G04 #@! TF.GenerationSoftware,KiCad,Pcbnew,(5.1.2)-1*
G04 #@! TF.CreationDate,2019-05-30T03:48:06-07:00*
G04 #@! TF.ProjectId,dsp2,64737032-2e6b-4696-9361-645f70636258,rev?*
G04 #@! TF.SameCoordinates,Original*
G04 #@! TF.FileFunction,Soldermask,Bot*
G04 #@! TF.FilePolarity,Negative*
%FSLAX46Y46*%
G04 Gerber Fmt 4.6, Leading zero omitted, Abs format (unit mm)*
G04 Created by KiCad (PCBNEW (5.1.2)-1) date 2019-05-30 03:48:06*
%MOMM*%
%LPD*%
G04 APERTURE LIST*
%ADD10C,0.100000*%
G04 APERTURE END LIST*
D10*
G36*
X138049943Y-83066248D02*
G01*
X138605189Y-83296238D01*
X138605190Y-83296239D01*
X139104899Y-83630134D01*
X139529866Y-84055101D01*
X139529867Y-84055103D01*
X139863762Y-84554811D01*
X140093752Y-85110057D01*
X140211000Y-85699501D01*
X140211000Y-86300499D01*
X140093752Y-86889943D01*
X139863762Y-87445189D01*
X139786379Y-87561000D01*
X139529866Y-87944899D01*
X139104899Y-88369866D01*
X138853347Y-88537948D01*
X138605189Y-88703762D01*
X138049943Y-88933752D01*
X137460499Y-89051000D01*
X136859501Y-89051000D01*
X136270057Y-88933752D01*
X135714811Y-88703762D01*
X135466653Y-88537948D01*
X135215101Y-88369866D01*
X134790134Y-87944899D01*
X134533621Y-87561000D01*
X134456238Y-87445189D01*
X134226248Y-86889943D01*
X134109000Y-86300499D01*
X134109000Y-85699501D01*
X134226248Y-85110057D01*
X134456238Y-84554811D01*
X134790133Y-84055103D01*
X134790134Y-84055101D01*
X135215101Y-83630134D01*
X135714810Y-83296239D01*
X135714811Y-83296238D01*
X136270057Y-83066248D01*
X136859501Y-82949000D01*
X137460499Y-82949000D01*
X138049943Y-83066248D01*
X138049943Y-83066248D01*
G37*
G36*
X67889943Y-83066248D02*
G01*
X68445189Y-83296238D01*
X68445190Y-83296239D01*
X68944899Y-83630134D01*
X69369866Y-84055101D01*
X69369867Y-84055103D01*
X69703762Y-84554811D01*
X69933752Y-85110057D01*
X70051000Y-85699501D01*
X70051000Y-86300499D01*
X69933752Y-86889943D01*
X69703762Y-87445189D01*
X69626379Y-87561000D01*
X69369866Y-87944899D01*
X68944899Y-88369866D01*
X68693347Y-88537948D01*
X68445189Y-88703762D01*
X67889943Y-88933752D01*
X67300499Y-89051000D01*
X66699501Y-89051000D01*
X66110057Y-88933752D01*
X65554811Y-88703762D01*
X65306653Y-88537948D01*
X65055101Y-88369866D01*
X64630134Y-87944899D01*
X64373621Y-87561000D01*
X64296238Y-87445189D01*
X64066248Y-86889943D01*
X63949000Y-86300499D01*
X63949000Y-85699501D01*
X64066248Y-85110057D01*
X64296238Y-84554811D01*
X64630133Y-84055103D01*
X64630134Y-84055101D01*
X65055101Y-83630134D01*
X65554810Y-83296239D01*
X65554811Y-83296238D01*
X66110057Y-83066248D01*
X66699501Y-82949000D01*
X67300499Y-82949000D01*
X67889943Y-83066248D01*
X67889943Y-83066248D01*
G37*
G36*
X108256564Y-85499389D02*
G01*
X108447833Y-85578615D01*
X108447835Y-85578616D01*
X108619973Y-85693635D01*
X108766365Y-85840027D01*
X108873256Y-86000000D01*
X108881385Y-86012167D01*
X108960611Y-86203436D01*
X109001000Y-86406484D01*
X109001000Y-86613516D01*
X108960611Y-86816564D01*
X108881385Y-87007833D01*
X108881384Y-87007835D01*
X108766365Y-87179973D01*
X108619973Y-87326365D01*
X108447835Y-87441384D01*
X108447834Y-87441385D01*
X108447833Y-87441385D01*
X108256564Y-87520611D01*
X108053516Y-87561000D01*
X107846484Y-87561000D01*
X107643436Y-87520611D01*
X107452167Y-87441385D01*
X107452166Y-87441385D01*
X107452165Y-87441384D01*
X107280027Y-87326365D01*
X107133635Y-87179973D01*
X107018616Y-87007835D01*
X107018615Y-87007833D01*
X106939389Y-86816564D01*
X106899000Y-86613516D01*
X106899000Y-86406484D01*
X106939389Y-86203436D01*
X107018615Y-86012167D01*
X107026745Y-86000000D01*
X107133635Y-85840027D01*
X107280027Y-85693635D01*
X107452165Y-85578616D01*
X107452167Y-85578615D01*
X107643436Y-85499389D01*
X107846484Y-85459000D01*
X108053516Y-85459000D01*
X108256564Y-85499389D01*
X108256564Y-85499389D01*
G37*
G36*
X103756564Y-85499389D02*
G01*
X103947833Y-85578615D01*
X103947835Y-85578616D01*
X104119973Y-85693635D01*
X104266365Y-85840027D01*
X104373256Y-86000000D01*
X104381385Y-86012167D01*
X104460611Y-86203436D01*
X104501000Y-86406484D01*
X104501000Y-86613516D01*
X104460611Y-86816564D01*
X104381385Y-87007833D01*
X104381384Y-87007835D01*
X104266365Y-87179973D01*
X104119973Y-87326365D01*
X103947835Y-87441384D01*
X103947834Y-87441385D01*
X103947833Y-87441385D01*
X103756564Y-87520611D01*
X103553516Y-87561000D01*
X103346484Y-87561000D01*
X103143436Y-87520611D01*
X102952167Y-87441385D01*
X102952166Y-87441385D01*
X102952165Y-87441384D01*
X102780027Y-87326365D01*
X102633635Y-87179973D01*
X102518616Y-87007835D01*
X102518615Y-87007833D01*
X102439389Y-86816564D01*
X102399000Y-86613516D01*
X102399000Y-86406484D01*
X102439389Y-86203436D01*
X102518615Y-86012167D01*
X102526745Y-86000000D01*
X102633635Y-85840027D01*
X102780027Y-85693635D01*
X102952165Y-85578616D01*
X102952167Y-85578615D01*
X103143436Y-85499389D01*
X103346484Y-85459000D01*
X103553516Y-85459000D01*
X103756564Y-85499389D01*
X103756564Y-85499389D01*
G37*
G36*
X97570443Y-85105519D02*
G01*
X97636627Y-85112037D01*
X97806466Y-85163557D01*
X97962991Y-85247222D01*
X97998729Y-85276552D01*
X98100186Y-85359814D01*
X98181585Y-85459000D01*
X98212778Y-85497009D01*
X98296443Y-85653534D01*
X98347963Y-85823373D01*
X98365359Y-86000000D01*
X98347963Y-86176627D01*
X98296443Y-86346466D01*
X98212778Y-86502991D01*
X98183448Y-86538729D01*
X98100186Y-86640186D01*
X97998729Y-86723448D01*
X97962991Y-86752778D01*
X97806466Y-86836443D01*
X97636627Y-86887963D01*
X97570442Y-86894482D01*
X97504260Y-86901000D01*
X97415740Y-86901000D01*
X97349558Y-86894482D01*
X97283373Y-86887963D01*
X97113534Y-86836443D01*
X96957009Y-86752778D01*
X96921271Y-86723448D01*
X96819814Y-86640186D01*
X96736552Y-86538729D01*
X96707222Y-86502991D01*
X96623557Y-86346466D01*
X96572037Y-86176627D01*
X96554641Y-86000000D01*
X96572037Y-85823373D01*
X96623557Y-85653534D01*
X96707222Y-85497009D01*
X96738415Y-85459000D01*
X96819814Y-85359814D01*
X96921271Y-85276552D01*
X96957009Y-85247222D01*
X97113534Y-85163557D01*
X97283373Y-85112037D01*
X97349557Y-85105519D01*
X97415740Y-85099000D01*
X97504260Y-85099000D01*
X97570443Y-85105519D01*
X97570443Y-85105519D01*
G37*
G36*
X100901000Y-86901000D02*
G01*
X99099000Y-86901000D01*
X99099000Y-85099000D01*
X100901000Y-85099000D01*
X100901000Y-86901000D01*
X100901000Y-86901000D01*
G37*
G36*
X95030443Y-85105519D02*
G01*
X95096627Y-85112037D01*
X95266466Y-85163557D01*
X95422991Y-85247222D01*
X95458729Y-85276552D01*
X95560186Y-85359814D01*
X95641585Y-85459000D01*
X95672778Y-85497009D01*
X95756443Y-85653534D01*
X95807963Y-85823373D01*
X95825359Y-86000000D01*
X95807963Y-86176627D01*
X95756443Y-86346466D01*
X95672778Y-86502991D01*
X95643448Y-86538729D01*
X95560186Y-86640186D01*
X95458729Y-86723448D01*
X95422991Y-86752778D01*
X95266466Y-86836443D01*
X95096627Y-86887963D01*
X95030442Y-86894482D01*
X94964260Y-86901000D01*
X94875740Y-86901000D01*
X94809558Y-86894482D01*
X94743373Y-86887963D01*
X94573534Y-86836443D01*
X94417009Y-86752778D01*
X94381271Y-86723448D01*
X94279814Y-86640186D01*
X94196552Y-86538729D01*
X94167222Y-86502991D01*
X94083557Y-86346466D01*
X94032037Y-86176627D01*
X94014641Y-86000000D01*
X94032037Y-85823373D01*
X94083557Y-85653534D01*
X94167222Y-85497009D01*
X94198415Y-85459000D01*
X94279814Y-85359814D01*
X94381271Y-85276552D01*
X94417009Y-85247222D01*
X94573534Y-85163557D01*
X94743373Y-85112037D01*
X94809557Y-85105519D01*
X94875740Y-85099000D01*
X94964260Y-85099000D01*
X95030443Y-85105519D01*
X95030443Y-85105519D01*
G37*
G36*
X92490443Y-85105519D02*
G01*
X92556627Y-85112037D01*
X92726466Y-85163557D01*
X92882991Y-85247222D01*
X92918729Y-85276552D01*
X93020186Y-85359814D01*
X93101585Y-85459000D01*
X93132778Y-85497009D01*
X93216443Y-85653534D01*
X93267963Y-85823373D01*
X93285359Y-86000000D01*
X93267963Y-86176627D01*
X93216443Y-86346466D01*
X93132778Y-86502991D01*
X93103448Y-86538729D01*
X93020186Y-86640186D01*
X92918729Y-86723448D01*
X92882991Y-86752778D01*
X92726466Y-86836443D01*
X92556627Y-86887963D01*
X92490442Y-86894482D01*
X92424260Y-86901000D01*
X92335740Y-86901000D01*
X92269558Y-86894482D01*
X92203373Y-86887963D01*
X92033534Y-86836443D01*
X91877009Y-86752778D01*
X91841271Y-86723448D01*
X91739814Y-86640186D01*
X91656552Y-86538729D01*
X91627222Y-86502991D01*
X91543557Y-86346466D01*
X91492037Y-86176627D01*
X91474641Y-86000000D01*
X91492037Y-85823373D01*
X91543557Y-85653534D01*
X91627222Y-85497009D01*
X91658415Y-85459000D01*
X91739814Y-85359814D01*
X91841271Y-85276552D01*
X91877009Y-85247222D01*
X92033534Y-85163557D01*
X92203373Y-85112037D01*
X92269557Y-85105519D01*
X92335740Y-85099000D01*
X92424260Y-85099000D01*
X92490443Y-85105519D01*
X92490443Y-85105519D01*
G37*
G36*
X89950443Y-85105519D02*
G01*
X90016627Y-85112037D01*
X90186466Y-85163557D01*
X90342991Y-85247222D01*
X90378729Y-85276552D01*
X90480186Y-85359814D01*
X90561585Y-85459000D01*
X90592778Y-85497009D01*
X90676443Y-85653534D01*
X90727963Y-85823373D01*
X90745359Y-86000000D01*
X90727963Y-86176627D01*
X90676443Y-86346466D01*
X90592778Y-86502991D01*
X90563448Y-86538729D01*
X90480186Y-86640186D01*
X90378729Y-86723448D01*
X90342991Y-86752778D01*
X90186466Y-86836443D01*
X90016627Y-86887963D01*
X89950442Y-86894482D01*
X89884260Y-86901000D01*
X89795740Y-86901000D01*
X89729558Y-86894482D01*
X89663373Y-86887963D01*
X89493534Y-86836443D01*
X89337009Y-86752778D01*
X89301271Y-86723448D01*
X89199814Y-86640186D01*
X89116552Y-86538729D01*
X89087222Y-86502991D01*
X89003557Y-86346466D01*
X88952037Y-86176627D01*
X88934641Y-86000000D01*
X88952037Y-85823373D01*
X89003557Y-85653534D01*
X89087222Y-85497009D01*
X89118415Y-85459000D01*
X89199814Y-85359814D01*
X89301271Y-85276552D01*
X89337009Y-85247222D01*
X89493534Y-85163557D01*
X89663373Y-85112037D01*
X89729557Y-85105519D01*
X89795740Y-85099000D01*
X89884260Y-85099000D01*
X89950443Y-85105519D01*
X89950443Y-85105519D01*
G37*
G36*
X87410443Y-85105519D02*
G01*
X87476627Y-85112037D01*
X87646466Y-85163557D01*
X87802991Y-85247222D01*
X87838729Y-85276552D01*
X87940186Y-85359814D01*
X88021585Y-85459000D01*
X88052778Y-85497009D01*
X88136443Y-85653534D01*
X88187963Y-85823373D01*
X88205359Y-86000000D01*
X88187963Y-86176627D01*
X88136443Y-86346466D01*
X88052778Y-86502991D01*
X88023448Y-86538729D01*
X87940186Y-86640186D01*
X87838729Y-86723448D01*
X87802991Y-86752778D01*
X87646466Y-86836443D01*
X87476627Y-86887963D01*
X87410442Y-86894482D01*
X87344260Y-86901000D01*
X87255740Y-86901000D01*
X87189558Y-86894482D01*
X87123373Y-86887963D01*
X86953534Y-86836443D01*
X86797009Y-86752778D01*
X86761271Y-86723448D01*
X86659814Y-86640186D01*
X86576552Y-86538729D01*
X86547222Y-86502991D01*
X86463557Y-86346466D01*
X86412037Y-86176627D01*
X86394641Y-86000000D01*
X86412037Y-85823373D01*
X86463557Y-85653534D01*
X86547222Y-85497009D01*
X86578415Y-85459000D01*
X86659814Y-85359814D01*
X86761271Y-85276552D01*
X86797009Y-85247222D01*
X86953534Y-85163557D01*
X87123373Y-85112037D01*
X87189557Y-85105519D01*
X87255740Y-85099000D01*
X87344260Y-85099000D01*
X87410443Y-85105519D01*
X87410443Y-85105519D01*
G37*
G36*
X84870443Y-85105519D02*
G01*
X84936627Y-85112037D01*
X85106466Y-85163557D01*
X85262991Y-85247222D01*
X85298729Y-85276552D01*
X85400186Y-85359814D01*
X85481585Y-85459000D01*
X85512778Y-85497009D01*
X85596443Y-85653534D01*
X85647963Y-85823373D01*
X85665359Y-86000000D01*
X85647963Y-86176627D01*
X85596443Y-86346466D01*
X85512778Y-86502991D01*
X85483448Y-86538729D01*
X85400186Y-86640186D01*
X85298729Y-86723448D01*
X85262991Y-86752778D01*
X85106466Y-86836443D01*
X84936627Y-86887963D01*
X84870442Y-86894482D01*
X84804260Y-86901000D01*
X84715740Y-86901000D01*
X84649558Y-86894482D01*
X84583373Y-86887963D01*
X84413534Y-86836443D01*
X84257009Y-86752778D01*
X84221271Y-86723448D01*
X84119814Y-86640186D01*
X84036552Y-86538729D01*
X84007222Y-86502991D01*
X83923557Y-86346466D01*
X83872037Y-86176627D01*
X83854641Y-86000000D01*
X83872037Y-85823373D01*
X83923557Y-85653534D01*
X84007222Y-85497009D01*
X84038415Y-85459000D01*
X84119814Y-85359814D01*
X84221271Y-85276552D01*
X84257009Y-85247222D01*
X84413534Y-85163557D01*
X84583373Y-85112037D01*
X84649557Y-85105519D01*
X84715740Y-85099000D01*
X84804260Y-85099000D01*
X84870443Y-85105519D01*
X84870443Y-85105519D01*
G37*
G36*
X82330443Y-85105519D02*
G01*
X82396627Y-85112037D01*
X82566466Y-85163557D01*
X82722991Y-85247222D01*
X82758729Y-85276552D01*
X82860186Y-85359814D01*
X82941585Y-85459000D01*
X82972778Y-85497009D01*
X83056443Y-85653534D01*
X83107963Y-85823373D01*
X83125359Y-86000000D01*
X83107963Y-86176627D01*
X83056443Y-86346466D01*
X82972778Y-86502991D01*
X82943448Y-86538729D01*
X82860186Y-86640186D01*
X82758729Y-86723448D01*
X82722991Y-86752778D01*
X82566466Y-86836443D01*
X82396627Y-86887963D01*
X82330442Y-86894482D01*
X82264260Y-86901000D01*
X82175740Y-86901000D01*
X82109558Y-86894482D01*
X82043373Y-86887963D01*
X81873534Y-86836443D01*
X81717009Y-86752778D01*
X81681271Y-86723448D01*
X81579814Y-86640186D01*
X81496552Y-86538729D01*
X81467222Y-86502991D01*
X81383557Y-86346466D01*
X81332037Y-86176627D01*
X81314641Y-86000000D01*
X81332037Y-85823373D01*
X81383557Y-85653534D01*
X81467222Y-85497009D01*
X81498415Y-85459000D01*
X81579814Y-85359814D01*
X81681271Y-85276552D01*
X81717009Y-85247222D01*
X81873534Y-85163557D01*
X82043373Y-85112037D01*
X82109557Y-85105519D01*
X82175740Y-85099000D01*
X82264260Y-85099000D01*
X82330443Y-85105519D01*
X82330443Y-85105519D01*
G37*
G36*
X79790443Y-85105519D02*
G01*
X79856627Y-85112037D01*
X80026466Y-85163557D01*
X80182991Y-85247222D01*
X80218729Y-85276552D01*
X80320186Y-85359814D01*
X80401585Y-85459000D01*
X80432778Y-85497009D01*
X80516443Y-85653534D01*
X80567963Y-85823373D01*
X80585359Y-86000000D01*
X80567963Y-86176627D01*
X80516443Y-86346466D01*
X80432778Y-86502991D01*
X80403448Y-86538729D01*
X80320186Y-86640186D01*
X80218729Y-86723448D01*
X80182991Y-86752778D01*
X80026466Y-86836443D01*
X79856627Y-86887963D01*
X79790442Y-86894482D01*
X79724260Y-86901000D01*
X79635740Y-86901000D01*
X79569558Y-86894482D01*
X79503373Y-86887963D01*
X79333534Y-86836443D01*
X79177009Y-86752778D01*
X79141271Y-86723448D01*
X79039814Y-86640186D01*
X78956552Y-86538729D01*
X78927222Y-86502991D01*
X78843557Y-86346466D01*
X78792037Y-86176627D01*
X78774641Y-86000000D01*
X78792037Y-85823373D01*
X78843557Y-85653534D01*
X78927222Y-85497009D01*
X78958415Y-85459000D01*
X79039814Y-85359814D01*
X79141271Y-85276552D01*
X79177009Y-85247222D01*
X79333534Y-85163557D01*
X79503373Y-85112037D01*
X79569557Y-85105519D01*
X79635740Y-85099000D01*
X79724260Y-85099000D01*
X79790443Y-85105519D01*
X79790443Y-85105519D01*
G37*
G36*
X124748228Y-81181703D02*
G01*
X124903100Y-81245853D01*
X125042481Y-81338985D01*
X125161015Y-81457519D01*
X125254147Y-81596900D01*
X125318297Y-81751772D01*
X125351000Y-81916184D01*
X125351000Y-82083816D01*
X125318297Y-82248228D01*
X125254147Y-82403100D01*
X125161015Y-82542481D01*
X125042481Y-82661015D01*
X124903100Y-82754147D01*
X124748228Y-82818297D01*
X124583816Y-82851000D01*
X124416184Y-82851000D01*
X124251772Y-82818297D01*
X124096900Y-82754147D01*
X123957519Y-82661015D01*
X123838985Y-82542481D01*
X123745853Y-82403100D01*
X123681703Y-82248228D01*
X123649000Y-82083816D01*
X123649000Y-81916184D01*
X123681703Y-81751772D01*
X123745853Y-81596900D01*
X123838985Y-81457519D01*
X123957519Y-81338985D01*
X124096900Y-81245853D01*
X124251772Y-81181703D01*
X124416184Y-81149000D01*
X124583816Y-81149000D01*
X124748228Y-81181703D01*
X124748228Y-81181703D01*
G37*
G36*
X122851000Y-82851000D02*
G01*
X121149000Y-82851000D01*
X121149000Y-81149000D01*
X122851000Y-81149000D01*
X122851000Y-82851000D01*
X122851000Y-82851000D01*
G37*
G36*
X103756564Y-78999389D02*
G01*
X103947833Y-79078615D01*
X103947835Y-79078616D01*
X104119973Y-79193635D01*
X104266365Y-79340027D01*
X104368431Y-79492779D01*
X104381385Y-79512167D01*
X104460611Y-79703436D01*
X104501000Y-79906484D01*
X104501000Y-80113516D01*
X104460611Y-80316564D01*
X104381385Y-80507833D01*
X104381384Y-80507835D01*
X104266365Y-80679973D01*
X104119973Y-80826365D01*
X103947835Y-80941384D01*
X103947834Y-80941385D01*
X103947833Y-80941385D01*
X103756564Y-81020611D01*
X103553516Y-81061000D01*
X103346484Y-81061000D01*
X103143436Y-81020611D01*
X102952167Y-80941385D01*
X102952166Y-80941385D01*
X102952165Y-80941384D01*
X102780027Y-80826365D01*
X102633635Y-80679973D01*
X102518616Y-80507835D01*
X102518615Y-80507833D01*
X102439389Y-80316564D01*
X102399000Y-80113516D01*
X102399000Y-79906484D01*
X102439389Y-79703436D01*
X102518615Y-79512167D01*
X102531570Y-79492779D01*
X102633635Y-79340027D01*
X102780027Y-79193635D01*
X102952165Y-79078616D01*
X102952167Y-79078615D01*
X103143436Y-78999389D01*
X103346484Y-78959000D01*
X103553516Y-78959000D01*
X103756564Y-78999389D01*
X103756564Y-78999389D01*
G37*
G36*
X108256564Y-78999389D02*
G01*
X108447833Y-79078615D01*
X108447835Y-79078616D01*
X108619973Y-79193635D01*
X108766365Y-79340027D01*
X108868431Y-79492779D01*
X108881385Y-79512167D01*
X108960611Y-79703436D01*
X109001000Y-79906484D01*
X109001000Y-80113516D01*
X108960611Y-80316564D01*
X108881385Y-80507833D01*
X108881384Y-80507835D01*
X108766365Y-80679973D01*
X108619973Y-80826365D01*
X108447835Y-80941384D01*
X108447834Y-80941385D01*
X108447833Y-80941385D01*
X108256564Y-81020611D01*
X108053516Y-81061000D01*
X107846484Y-81061000D01*
X107643436Y-81020611D01*
X107452167Y-80941385D01*
X107452166Y-80941385D01*
X107452165Y-80941384D01*
X107280027Y-80826365D01*
X107133635Y-80679973D01*
X107018616Y-80507835D01*
X107018615Y-80507833D01*
X106939389Y-80316564D01*
X106899000Y-80113516D01*
X106899000Y-79906484D01*
X106939389Y-79703436D01*
X107018615Y-79512167D01*
X107031570Y-79492779D01*
X107133635Y-79340027D01*
X107280027Y-79193635D01*
X107452165Y-79078616D01*
X107452167Y-79078615D01*
X107643436Y-78999389D01*
X107846484Y-78959000D01*
X108053516Y-78959000D01*
X108256564Y-78999389D01*
X108256564Y-78999389D01*
G37*
G36*
X71230443Y-77845519D02*
G01*
X71296627Y-77852037D01*
X71466466Y-77903557D01*
X71622991Y-77987222D01*
X71658729Y-78016552D01*
X71760186Y-78099814D01*
X71843448Y-78201271D01*
X71872778Y-78237009D01*
X71956443Y-78393534D01*
X72007963Y-78563373D01*
X72025359Y-78740000D01*
X72007963Y-78916627D01*
X71956443Y-79086466D01*
X71872778Y-79242991D01*
X71863350Y-79254479D01*
X71760186Y-79380186D01*
X71658729Y-79463448D01*
X71622991Y-79492778D01*
X71466466Y-79576443D01*
X71296627Y-79627963D01*
X71230442Y-79634482D01*
X71164260Y-79641000D01*
X71075740Y-79641000D01*
X71009558Y-79634482D01*
X70943373Y-79627963D01*
X70773534Y-79576443D01*
X70617009Y-79492778D01*
X70581271Y-79463448D01*
X70479814Y-79380186D01*
X70376650Y-79254479D01*
X70367222Y-79242991D01*
X70283557Y-79086466D01*
X70232037Y-78916627D01*
X70214641Y-78740000D01*
X70232037Y-78563373D01*
X70283557Y-78393534D01*
X70367222Y-78237009D01*
X70396552Y-78201271D01*
X70479814Y-78099814D01*
X70581271Y-78016552D01*
X70617009Y-77987222D01*
X70773534Y-77903557D01*
X70943373Y-77852037D01*
X71009557Y-77845519D01*
X71075740Y-77839000D01*
X71164260Y-77839000D01*
X71230443Y-77845519D01*
X71230443Y-77845519D01*
G37*
G36*
X83930443Y-77845519D02*
G01*
X83996627Y-77852037D01*
X84166466Y-77903557D01*
X84322991Y-77987222D01*
X84358729Y-78016552D01*
X84460186Y-78099814D01*
X84543448Y-78201271D01*
X84572778Y-78237009D01*
X84656443Y-78393534D01*
X84707963Y-78563373D01*
X84725359Y-78740000D01*
X84707963Y-78916627D01*
X84656443Y-79086466D01*
X84572778Y-79242991D01*
X84563350Y-79254479D01*
X84460186Y-79380186D01*
X84358729Y-79463448D01*
X84322991Y-79492778D01*
X84166466Y-79576443D01*
X83996627Y-79627963D01*
X83930442Y-79634482D01*
X83864260Y-79641000D01*
X83775740Y-79641000D01*
X83709558Y-79634482D01*
X83643373Y-79627963D01*
X83473534Y-79576443D01*
X83317009Y-79492778D01*
X83281271Y-79463448D01*
X83179814Y-79380186D01*
X83076650Y-79254479D01*
X83067222Y-79242991D01*
X82983557Y-79086466D01*
X82932037Y-78916627D01*
X82914641Y-78740000D01*
X82932037Y-78563373D01*
X82983557Y-78393534D01*
X83067222Y-78237009D01*
X83096552Y-78201271D01*
X83179814Y-78099814D01*
X83281271Y-78016552D01*
X83317009Y-77987222D01*
X83473534Y-77903557D01*
X83643373Y-77852037D01*
X83709557Y-77845519D01*
X83775740Y-77839000D01*
X83864260Y-77839000D01*
X83930443Y-77845519D01*
X83930443Y-77845519D01*
G37*
G36*
X81390443Y-77845519D02*
G01*
X81456627Y-77852037D01*
X81626466Y-77903557D01*
X81782991Y-77987222D01*
X81818729Y-78016552D01*
X81920186Y-78099814D01*
X82003448Y-78201271D01*
X82032778Y-78237009D01*
X82116443Y-78393534D01*
X82167963Y-78563373D01*
X82185359Y-78740000D01*
X82167963Y-78916627D01*
X82116443Y-79086466D01*
X82032778Y-79242991D01*
X82023350Y-79254479D01*
X81920186Y-79380186D01*
X81818729Y-79463448D01*
X81782991Y-79492778D01*
X81626466Y-79576443D01*
X81456627Y-79627963D01*
X81390442Y-79634482D01*
X81324260Y-79641000D01*
X81235740Y-79641000D01*
X81169558Y-79634482D01*
X81103373Y-79627963D01*
X80933534Y-79576443D01*
X80777009Y-79492778D01*
X80741271Y-79463448D01*
X80639814Y-79380186D01*
X80536650Y-79254479D01*
X80527222Y-79242991D01*
X80443557Y-79086466D01*
X80392037Y-78916627D01*
X80374641Y-78740000D01*
X80392037Y-78563373D01*
X80443557Y-78393534D01*
X80527222Y-78237009D01*
X80556552Y-78201271D01*
X80639814Y-78099814D01*
X80741271Y-78016552D01*
X80777009Y-77987222D01*
X80933534Y-77903557D01*
X81103373Y-77852037D01*
X81169557Y-77845519D01*
X81235740Y-77839000D01*
X81324260Y-77839000D01*
X81390443Y-77845519D01*
X81390443Y-77845519D01*
G37*
G36*
X73770443Y-77845519D02*
G01*
X73836627Y-77852037D01*
X74006466Y-77903557D01*
X74162991Y-77987222D01*
X74198729Y-78016552D01*
X74300186Y-78099814D01*
X74383448Y-78201271D01*
X74412778Y-78237009D01*
X74496443Y-78393534D01*
X74547963Y-78563373D01*
X74565359Y-78740000D01*
X74547963Y-78916627D01*
X74496443Y-79086466D01*
X74412778Y-79242991D01*
X74403350Y-79254479D01*
X74300186Y-79380186D01*
X74198729Y-79463448D01*
X74162991Y-79492778D01*
X74006466Y-79576443D01*
X73836627Y-79627963D01*
X73770442Y-79634482D01*
X73704260Y-79641000D01*
X73615740Y-79641000D01*
X73549558Y-79634482D01*
X73483373Y-79627963D01*
X73313534Y-79576443D01*
X73157009Y-79492778D01*
X73121271Y-79463448D01*
X73019814Y-79380186D01*
X72916650Y-79254479D01*
X72907222Y-79242991D01*
X72823557Y-79086466D01*
X72772037Y-78916627D01*
X72754641Y-78740000D01*
X72772037Y-78563373D01*
X72823557Y-78393534D01*
X72907222Y-78237009D01*
X72936552Y-78201271D01*
X73019814Y-78099814D01*
X73121271Y-78016552D01*
X73157009Y-77987222D01*
X73313534Y-77903557D01*
X73483373Y-77852037D01*
X73549557Y-77845519D01*
X73615740Y-77839000D01*
X73704260Y-77839000D01*
X73770443Y-77845519D01*
X73770443Y-77845519D01*
G37*
G36*
X143402585Y-76358802D02*
G01*
X143552410Y-76388604D01*
X143834674Y-76505521D01*
X144088705Y-76675259D01*
X144304741Y-76891295D01*
X144474479Y-77145326D01*
X144591396Y-77427590D01*
X144651000Y-77727240D01*
X144651000Y-78032760D01*
X144591396Y-78332410D01*
X144474479Y-78614674D01*
X144304741Y-78868705D01*
X144088705Y-79084741D01*
X143834674Y-79254479D01*
X143552410Y-79371396D01*
X143402585Y-79401198D01*
X143252761Y-79431000D01*
X142947239Y-79431000D01*
X142797415Y-79401198D01*
X142647590Y-79371396D01*
X142365326Y-79254479D01*
X142111295Y-79084741D01*
X141895259Y-78868705D01*
X141725521Y-78614674D01*
X141608604Y-78332410D01*
X141549000Y-78032760D01*
X141549000Y-77727240D01*
X141608604Y-77427590D01*
X141725521Y-77145326D01*
X141895259Y-76891295D01*
X142111295Y-76675259D01*
X142365326Y-76505521D01*
X142647590Y-76388604D01*
X142797415Y-76358802D01*
X142947239Y-76329000D01*
X143252761Y-76329000D01*
X143402585Y-76358802D01*
X143402585Y-76358802D01*
G37*
G36*
X83930442Y-75305518D02*
G01*
X83996627Y-75312037D01*
X84166466Y-75363557D01*
X84322991Y-75447222D01*
X84335539Y-75457520D01*
X84460186Y-75559814D01*
X84543448Y-75661271D01*
X84572778Y-75697009D01*
X84656443Y-75853534D01*
X84707963Y-76023373D01*
X84725359Y-76200000D01*
X84707963Y-76376627D01*
X84656443Y-76546466D01*
X84572778Y-76702991D01*
X84543448Y-76738729D01*
X84460186Y-76840186D01*
X84397907Y-76891296D01*
X84322991Y-76952778D01*
X84166466Y-77036443D01*
X83996627Y-77087963D01*
X83930442Y-77094482D01*
X83864260Y-77101000D01*
X83775740Y-77101000D01*
X83709558Y-77094482D01*
X83643373Y-77087963D01*
X83473534Y-77036443D01*
X83317009Y-76952778D01*
X83242093Y-76891296D01*
X83179814Y-76840186D01*
X83096552Y-76738729D01*
X83067222Y-76702991D01*
X82983557Y-76546466D01*
X82932037Y-76376627D01*
X82914641Y-76200000D01*
X82932037Y-76023373D01*
X82983557Y-75853534D01*
X83067222Y-75697009D01*
X83096552Y-75661271D01*
X83179814Y-75559814D01*
X83304461Y-75457520D01*
X83317009Y-75447222D01*
X83473534Y-75363557D01*
X83643373Y-75312037D01*
X83709558Y-75305518D01*
X83775740Y-75299000D01*
X83864260Y-75299000D01*
X83930442Y-75305518D01*
X83930442Y-75305518D01*
G37*
G36*
X81390442Y-75305518D02*
G01*
X81456627Y-75312037D01*
X81626466Y-75363557D01*
X81782991Y-75447222D01*
X81795539Y-75457520D01*
X81920186Y-75559814D01*
X82003448Y-75661271D01*
X82032778Y-75697009D01*
X82116443Y-75853534D01*
X82167963Y-76023373D01*
X82185359Y-76200000D01*
X82167963Y-76376627D01*
X82116443Y-76546466D01*
X82032778Y-76702991D01*
X82003448Y-76738729D01*
X81920186Y-76840186D01*
X81857907Y-76891296D01*
X81782991Y-76952778D01*
X81626466Y-77036443D01*
X81456627Y-77087963D01*
X81390442Y-77094482D01*
X81324260Y-77101000D01*
X81235740Y-77101000D01*
X81169558Y-77094482D01*
X81103373Y-77087963D01*
X80933534Y-77036443D01*
X80777009Y-76952778D01*
X80702093Y-76891296D01*
X80639814Y-76840186D01*
X80556552Y-76738729D01*
X80527222Y-76702991D01*
X80443557Y-76546466D01*
X80392037Y-76376627D01*
X80374641Y-76200000D01*
X80392037Y-76023373D01*
X80443557Y-75853534D01*
X80527222Y-75697009D01*
X80556552Y-75661271D01*
X80639814Y-75559814D01*
X80764461Y-75457520D01*
X80777009Y-75447222D01*
X80933534Y-75363557D01*
X81103373Y-75312037D01*
X81169558Y-75305518D01*
X81235740Y-75299000D01*
X81324260Y-75299000D01*
X81390442Y-75305518D01*
X81390442Y-75305518D01*
G37*
G36*
X73770442Y-75305518D02*
G01*
X73836627Y-75312037D01*
X74006466Y-75363557D01*
X74162991Y-75447222D01*
X74175539Y-75457520D01*
X74300186Y-75559814D01*
X74383448Y-75661271D01*
X74412778Y-75697009D01*
X74496443Y-75853534D01*
X74547963Y-76023373D01*
X74565359Y-76200000D01*
X74547963Y-76376627D01*
X74496443Y-76546466D01*
X74412778Y-76702991D01*
X74383448Y-76738729D01*
X74300186Y-76840186D01*
X74237907Y-76891296D01*
X74162991Y-76952778D01*
X74006466Y-77036443D01*
X73836627Y-77087963D01*
X73770442Y-77094482D01*
X73704260Y-77101000D01*
X73615740Y-77101000D01*
X73549558Y-77094482D01*
X73483373Y-77087963D01*
X73313534Y-77036443D01*
X73157009Y-76952778D01*
X73082093Y-76891296D01*
X73019814Y-76840186D01*
X72936552Y-76738729D01*
X72907222Y-76702991D01*
X72823557Y-76546466D01*
X72772037Y-76376627D01*
X72754641Y-76200000D01*
X72772037Y-76023373D01*
X72823557Y-75853534D01*
X72907222Y-75697009D01*
X72936552Y-75661271D01*
X73019814Y-75559814D01*
X73144461Y-75457520D01*
X73157009Y-75447222D01*
X73313534Y-75363557D01*
X73483373Y-75312037D01*
X73549558Y-75305518D01*
X73615740Y-75299000D01*
X73704260Y-75299000D01*
X73770442Y-75305518D01*
X73770442Y-75305518D01*
G37*
G36*
X71230442Y-75305518D02*
G01*
X71296627Y-75312037D01*
X71466466Y-75363557D01*
X71622991Y-75447222D01*
X71635539Y-75457520D01*
X71760186Y-75559814D01*
X71843448Y-75661271D01*
X71872778Y-75697009D01*
X71956443Y-75853534D01*
X72007963Y-76023373D01*
X72025359Y-76200000D01*
X72007963Y-76376627D01*
X71956443Y-76546466D01*
X71872778Y-76702991D01*
X71843448Y-76738729D01*
X71760186Y-76840186D01*
X71697907Y-76891296D01*
X71622991Y-76952778D01*
X71466466Y-77036443D01*
X71296627Y-77087963D01*
X71230442Y-77094482D01*
X71164260Y-77101000D01*
X71075740Y-77101000D01*
X71009558Y-77094482D01*
X70943373Y-77087963D01*
X70773534Y-77036443D01*
X70617009Y-76952778D01*
X70542093Y-76891296D01*
X70479814Y-76840186D01*
X70396552Y-76738729D01*
X70367222Y-76702991D01*
X70283557Y-76546466D01*
X70232037Y-76376627D01*
X70214641Y-76200000D01*
X70232037Y-76023373D01*
X70283557Y-75853534D01*
X70367222Y-75697009D01*
X70396552Y-75661271D01*
X70479814Y-75559814D01*
X70604461Y-75457520D01*
X70617009Y-75447222D01*
X70773534Y-75363557D01*
X70943373Y-75312037D01*
X71009558Y-75305518D01*
X71075740Y-75299000D01*
X71164260Y-75299000D01*
X71230442Y-75305518D01*
X71230442Y-75305518D01*
G37*
G36*
X131851000Y-76851000D02*
G01*
X130149000Y-76851000D01*
X130149000Y-75149000D01*
X131851000Y-75149000D01*
X131851000Y-76851000D01*
X131851000Y-76851000D01*
G37*
G36*
X133748228Y-75181703D02*
G01*
X133903100Y-75245853D01*
X134042481Y-75338985D01*
X134161015Y-75457519D01*
X134254147Y-75596900D01*
X134318297Y-75751772D01*
X134351000Y-75916184D01*
X134351000Y-76083816D01*
X134318297Y-76248228D01*
X134254147Y-76403100D01*
X134161015Y-76542481D01*
X134042481Y-76661015D01*
X133903100Y-76754147D01*
X133748228Y-76818297D01*
X133583816Y-76851000D01*
X133416184Y-76851000D01*
X133251772Y-76818297D01*
X133096900Y-76754147D01*
X132957519Y-76661015D01*
X132838985Y-76542481D01*
X132745853Y-76403100D01*
X132681703Y-76248228D01*
X132649000Y-76083816D01*
X132649000Y-75916184D01*
X132681703Y-75751772D01*
X132745853Y-75596900D01*
X132838985Y-75457519D01*
X132957519Y-75338985D01*
X133096900Y-75245853D01*
X133251772Y-75181703D01*
X133416184Y-75149000D01*
X133583816Y-75149000D01*
X133748228Y-75181703D01*
X133748228Y-75181703D01*
G37*
G36*
X72021000Y-74561000D02*
G01*
X70219000Y-74561000D01*
X70219000Y-72759000D01*
X72021000Y-72759000D01*
X72021000Y-74561000D01*
X72021000Y-74561000D01*
G37*
G36*
X73770442Y-72765518D02*
G01*
X73836627Y-72772037D01*
X74006466Y-72823557D01*
X74162991Y-72907222D01*
X74198729Y-72936552D01*
X74300186Y-73019814D01*
X74383448Y-73121271D01*
X74412778Y-73157009D01*
X74496443Y-73313534D01*
X74547963Y-73483373D01*
X74565359Y-73660000D01*
X74547963Y-73836627D01*
X74496443Y-74006466D01*
X74412778Y-74162991D01*
X74403350Y-74174479D01*
X74300186Y-74300186D01*
X74198729Y-74383448D01*
X74162991Y-74412778D01*
X74006466Y-74496443D01*
X73836627Y-74547963D01*
X73770442Y-74554482D01*
X73704260Y-74561000D01*
X73615740Y-74561000D01*
X73549558Y-74554482D01*
X73483373Y-74547963D01*
X73313534Y-74496443D01*
X73157009Y-74412778D01*
X73121271Y-74383448D01*
X73019814Y-74300186D01*
X72916650Y-74174479D01*
X72907222Y-74162991D01*
X72823557Y-74006466D01*
X72772037Y-73836627D01*
X72754641Y-73660000D01*
X72772037Y-73483373D01*
X72823557Y-73313534D01*
X72907222Y-73157009D01*
X72936552Y-73121271D01*
X73019814Y-73019814D01*
X73121271Y-72936552D01*
X73157009Y-72907222D01*
X73313534Y-72823557D01*
X73483373Y-72772037D01*
X73549558Y-72765518D01*
X73615740Y-72759000D01*
X73704260Y-72759000D01*
X73770442Y-72765518D01*
X73770442Y-72765518D01*
G37*
G36*
X83930442Y-72765518D02*
G01*
X83996627Y-72772037D01*
X84166466Y-72823557D01*
X84322991Y-72907222D01*
X84358729Y-72936552D01*
X84460186Y-73019814D01*
X84543448Y-73121271D01*
X84572778Y-73157009D01*
X84656443Y-73313534D01*
X84707963Y-73483373D01*
X84725359Y-73660000D01*
X84707963Y-73836627D01*
X84656443Y-74006466D01*
X84572778Y-74162991D01*
X84563350Y-74174479D01*
X84460186Y-74300186D01*
X84358729Y-74383448D01*
X84322991Y-74412778D01*
X84166466Y-74496443D01*
X83996627Y-74547963D01*
X83930442Y-74554482D01*
X83864260Y-74561000D01*
X83775740Y-74561000D01*
X83709558Y-74554482D01*
X83643373Y-74547963D01*
X83473534Y-74496443D01*
X83317009Y-74412778D01*
X83281271Y-74383448D01*
X83179814Y-74300186D01*
X83076650Y-74174479D01*
X83067222Y-74162991D01*
X82983557Y-74006466D01*
X82932037Y-73836627D01*
X82914641Y-73660000D01*
X82932037Y-73483373D01*
X82983557Y-73313534D01*
X83067222Y-73157009D01*
X83096552Y-73121271D01*
X83179814Y-73019814D01*
X83281271Y-72936552D01*
X83317009Y-72907222D01*
X83473534Y-72823557D01*
X83643373Y-72772037D01*
X83709558Y-72765518D01*
X83775740Y-72759000D01*
X83864260Y-72759000D01*
X83930442Y-72765518D01*
X83930442Y-72765518D01*
G37*
G36*
X82181000Y-74561000D02*
G01*
X80379000Y-74561000D01*
X80379000Y-72759000D01*
X82181000Y-72759000D01*
X82181000Y-74561000D01*
X82181000Y-74561000D01*
G37*
G36*
X143402585Y-71278802D02*
G01*
X143552410Y-71308604D01*
X143834674Y-71425521D01*
X144088705Y-71595259D01*
X144304741Y-71811295D01*
X144474479Y-72065326D01*
X144591396Y-72347590D01*
X144651000Y-72647240D01*
X144651000Y-72952760D01*
X144591396Y-73252410D01*
X144474479Y-73534674D01*
X144304741Y-73788705D01*
X144088705Y-74004741D01*
X143834674Y-74174479D01*
X143552410Y-74291396D01*
X143402585Y-74321198D01*
X143252761Y-74351000D01*
X142947239Y-74351000D01*
X142797415Y-74321198D01*
X142647590Y-74291396D01*
X142365326Y-74174479D01*
X142111295Y-74004741D01*
X141895259Y-73788705D01*
X141725521Y-73534674D01*
X141608604Y-73252410D01*
X141549000Y-72952760D01*
X141549000Y-72647240D01*
X141608604Y-72347590D01*
X141725521Y-72065326D01*
X141895259Y-71811295D01*
X142111295Y-71595259D01*
X142365326Y-71425521D01*
X142647590Y-71308604D01*
X142797415Y-71278802D01*
X142947239Y-71249000D01*
X143252761Y-71249000D01*
X143402585Y-71278802D01*
X143402585Y-71278802D01*
G37*
G36*
X122851000Y-70851000D02*
G01*
X121149000Y-70851000D01*
X121149000Y-69149000D01*
X122851000Y-69149000D01*
X122851000Y-70851000D01*
X122851000Y-70851000D01*
G37*
G36*
X124748228Y-69181703D02*
G01*
X124903100Y-69245853D01*
X125042481Y-69338985D01*
X125161015Y-69457519D01*
X125254147Y-69596900D01*
X125318297Y-69751772D01*
X125351000Y-69916184D01*
X125351000Y-70083816D01*
X125318297Y-70248228D01*
X125254147Y-70403100D01*
X125161015Y-70542481D01*
X125042481Y-70661015D01*
X124903100Y-70754147D01*
X124748228Y-70818297D01*
X124583816Y-70851000D01*
X124416184Y-70851000D01*
X124251772Y-70818297D01*
X124096900Y-70754147D01*
X123957519Y-70661015D01*
X123838985Y-70542481D01*
X123745853Y-70403100D01*
X123681703Y-70248228D01*
X123649000Y-70083816D01*
X123649000Y-69916184D01*
X123681703Y-69751772D01*
X123745853Y-69596900D01*
X123838985Y-69457519D01*
X123957519Y-69338985D01*
X124096900Y-69245853D01*
X124251772Y-69181703D01*
X124416184Y-69149000D01*
X124583816Y-69149000D01*
X124748228Y-69181703D01*
X124748228Y-69181703D01*
G37*
G36*
X143402585Y-66198802D02*
G01*
X143552410Y-66228604D01*
X143834674Y-66345521D01*
X144088705Y-66515259D01*
X144304741Y-66731295D01*
X144474479Y-66985326D01*
X144591396Y-67267590D01*
X144651000Y-67567240D01*
X144651000Y-67872760D01*
X144591396Y-68172410D01*
X144474479Y-68454674D01*
X144304741Y-68708705D01*
X144088705Y-68924741D01*
X143834674Y-69094479D01*
X143552410Y-69211396D01*
X143402585Y-69241198D01*
X143252761Y-69271000D01*
X142947239Y-69271000D01*
X142797415Y-69241198D01*
X142647590Y-69211396D01*
X142365326Y-69094479D01*
X142111295Y-68924741D01*
X141895259Y-68708705D01*
X141725521Y-68454674D01*
X141608604Y-68172410D01*
X141549000Y-67872760D01*
X141549000Y-67567240D01*
X141608604Y-67267590D01*
X141725521Y-66985326D01*
X141895259Y-66731295D01*
X142111295Y-66515259D01*
X142365326Y-66345521D01*
X142647590Y-66228604D01*
X142797415Y-66198802D01*
X142947239Y-66169000D01*
X143252761Y-66169000D01*
X143402585Y-66198802D01*
X143402585Y-66198802D01*
G37*
G36*
X68690442Y-65145518D02*
G01*
X68756627Y-65152037D01*
X68926466Y-65203557D01*
X69082991Y-65287222D01*
X69118729Y-65316552D01*
X69220186Y-65399814D01*
X69303448Y-65501271D01*
X69332778Y-65537009D01*
X69416443Y-65693534D01*
X69467963Y-65863373D01*
X69485359Y-66040000D01*
X69467963Y-66216627D01*
X69416443Y-66386466D01*
X69332778Y-66542991D01*
X69303448Y-66578729D01*
X69220186Y-66680186D01*
X69157907Y-66731296D01*
X69082991Y-66792778D01*
X68926466Y-66876443D01*
X68756627Y-66927963D01*
X68690442Y-66934482D01*
X68624260Y-66941000D01*
X68535740Y-66941000D01*
X68469558Y-66934482D01*
X68403373Y-66927963D01*
X68233534Y-66876443D01*
X68077009Y-66792778D01*
X68002093Y-66731296D01*
X67939814Y-66680186D01*
X67856552Y-66578729D01*
X67827222Y-66542991D01*
X67743557Y-66386466D01*
X67692037Y-66216627D01*
X67674641Y-66040000D01*
X67692037Y-65863373D01*
X67743557Y-65693534D01*
X67827222Y-65537009D01*
X67856552Y-65501271D01*
X67939814Y-65399814D01*
X68041271Y-65316552D01*
X68077009Y-65287222D01*
X68233534Y-65203557D01*
X68403373Y-65152037D01*
X68469558Y-65145518D01*
X68535740Y-65139000D01*
X68624260Y-65139000D01*
X68690442Y-65145518D01*
X68690442Y-65145518D01*
G37*
G36*
X66150442Y-65145518D02*
G01*
X66216627Y-65152037D01*
X66386466Y-65203557D01*
X66542991Y-65287222D01*
X66578729Y-65316552D01*
X66680186Y-65399814D01*
X66763448Y-65501271D01*
X66792778Y-65537009D01*
X66876443Y-65693534D01*
X66927963Y-65863373D01*
X66945359Y-66040000D01*
X66927963Y-66216627D01*
X66876443Y-66386466D01*
X66792778Y-66542991D01*
X66763448Y-66578729D01*
X66680186Y-66680186D01*
X66617907Y-66731296D01*
X66542991Y-66792778D01*
X66386466Y-66876443D01*
X66216627Y-66927963D01*
X66150442Y-66934482D01*
X66084260Y-66941000D01*
X65995740Y-66941000D01*
X65929558Y-66934482D01*
X65863373Y-66927963D01*
X65693534Y-66876443D01*
X65537009Y-66792778D01*
X65462093Y-66731296D01*
X65399814Y-66680186D01*
X65316552Y-66578729D01*
X65287222Y-66542991D01*
X65203557Y-66386466D01*
X65152037Y-66216627D01*
X65134641Y-66040000D01*
X65152037Y-65863373D01*
X65203557Y-65693534D01*
X65287222Y-65537009D01*
X65316552Y-65501271D01*
X65399814Y-65399814D01*
X65501271Y-65316552D01*
X65537009Y-65287222D01*
X65693534Y-65203557D01*
X65863373Y-65152037D01*
X65929558Y-65145518D01*
X65995740Y-65139000D01*
X66084260Y-65139000D01*
X66150442Y-65145518D01*
X66150442Y-65145518D01*
G37*
G36*
X100248228Y-64181703D02*
G01*
X100403100Y-64245853D01*
X100542481Y-64338985D01*
X100661015Y-64457519D01*
X100754147Y-64596900D01*
X100818297Y-64751772D01*
X100851000Y-64916184D01*
X100851000Y-65083816D01*
X100818297Y-65248228D01*
X100754147Y-65403100D01*
X100661015Y-65542481D01*
X100542481Y-65661015D01*
X100403100Y-65754147D01*
X100248228Y-65818297D01*
X100083816Y-65851000D01*
X99916184Y-65851000D01*
X99751772Y-65818297D01*
X99596900Y-65754147D01*
X99457519Y-65661015D01*
X99338985Y-65542481D01*
X99245853Y-65403100D01*
X99181703Y-65248228D01*
X99149000Y-65083816D01*
X99149000Y-64916184D01*
X99181703Y-64751772D01*
X99245853Y-64596900D01*
X99338985Y-64457519D01*
X99457519Y-64338985D01*
X99596900Y-64245853D01*
X99751772Y-64181703D01*
X99916184Y-64149000D01*
X100083816Y-64149000D01*
X100248228Y-64181703D01*
X100248228Y-64181703D01*
G37*
G36*
X133748228Y-63181703D02*
G01*
X133903100Y-63245853D01*
X134042481Y-63338985D01*
X134161015Y-63457519D01*
X134254147Y-63596900D01*
X134318297Y-63751772D01*
X134351000Y-63916184D01*
X134351000Y-64083816D01*
X134318297Y-64248228D01*
X134254147Y-64403100D01*
X134161015Y-64542481D01*
X134042481Y-64661015D01*
X133903100Y-64754147D01*
X133748228Y-64818297D01*
X133583816Y-64851000D01*
X133416184Y-64851000D01*
X133251772Y-64818297D01*
X133096900Y-64754147D01*
X132957519Y-64661015D01*
X132838985Y-64542481D01*
X132745853Y-64403100D01*
X132681703Y-64248228D01*
X132649000Y-64083816D01*
X132649000Y-63916184D01*
X132681703Y-63751772D01*
X132745853Y-63596900D01*
X132838985Y-63457519D01*
X132957519Y-63338985D01*
X133096900Y-63245853D01*
X133251772Y-63181703D01*
X133416184Y-63149000D01*
X133583816Y-63149000D01*
X133748228Y-63181703D01*
X133748228Y-63181703D01*
G37*
G36*
X131851000Y-64851000D02*
G01*
X130149000Y-64851000D01*
X130149000Y-63149000D01*
X131851000Y-63149000D01*
X131851000Y-64851000D01*
X131851000Y-64851000D01*
G37*
G36*
X68690442Y-62605518D02*
G01*
X68756627Y-62612037D01*
X68926466Y-62663557D01*
X69082991Y-62747222D01*
X69118729Y-62776552D01*
X69220186Y-62859814D01*
X69303448Y-62961271D01*
X69332778Y-62997009D01*
X69416443Y-63153534D01*
X69467963Y-63323373D01*
X69485359Y-63500000D01*
X69467963Y-63676627D01*
X69416443Y-63846466D01*
X69332778Y-64002991D01*
X69323350Y-64014479D01*
X69220186Y-64140186D01*
X69118729Y-64223448D01*
X69082991Y-64252778D01*
X68926466Y-64336443D01*
X68756627Y-64387963D01*
X68690442Y-64394482D01*
X68624260Y-64401000D01*
X68535740Y-64401000D01*
X68469558Y-64394482D01*
X68403373Y-64387963D01*
X68233534Y-64336443D01*
X68077009Y-64252778D01*
X68041271Y-64223448D01*
X67939814Y-64140186D01*
X67836650Y-64014479D01*
X67827222Y-64002991D01*
X67743557Y-63846466D01*
X67692037Y-63676627D01*
X67674641Y-63500000D01*
X67692037Y-63323373D01*
X67743557Y-63153534D01*
X67827222Y-62997009D01*
X67856552Y-62961271D01*
X67939814Y-62859814D01*
X68041271Y-62776552D01*
X68077009Y-62747222D01*
X68233534Y-62663557D01*
X68403373Y-62612037D01*
X68469558Y-62605518D01*
X68535740Y-62599000D01*
X68624260Y-62599000D01*
X68690442Y-62605518D01*
X68690442Y-62605518D01*
G37*
G36*
X66150442Y-62605518D02*
G01*
X66216627Y-62612037D01*
X66386466Y-62663557D01*
X66542991Y-62747222D01*
X66578729Y-62776552D01*
X66680186Y-62859814D01*
X66763448Y-62961271D01*
X66792778Y-62997009D01*
X66876443Y-63153534D01*
X66927963Y-63323373D01*
X66945359Y-63500000D01*
X66927963Y-63676627D01*
X66876443Y-63846466D01*
X66792778Y-64002991D01*
X66783350Y-64014479D01*
X66680186Y-64140186D01*
X66578729Y-64223448D01*
X66542991Y-64252778D01*
X66386466Y-64336443D01*
X66216627Y-64387963D01*
X66150442Y-64394482D01*
X66084260Y-64401000D01*
X65995740Y-64401000D01*
X65929558Y-64394482D01*
X65863373Y-64387963D01*
X65693534Y-64336443D01*
X65537009Y-64252778D01*
X65501271Y-64223448D01*
X65399814Y-64140186D01*
X65296650Y-64014479D01*
X65287222Y-64002991D01*
X65203557Y-63846466D01*
X65152037Y-63676627D01*
X65134641Y-63500000D01*
X65152037Y-63323373D01*
X65203557Y-63153534D01*
X65287222Y-62997009D01*
X65316552Y-62961271D01*
X65399814Y-62859814D01*
X65501271Y-62776552D01*
X65537009Y-62747222D01*
X65693534Y-62663557D01*
X65863373Y-62612037D01*
X65929558Y-62605518D01*
X65995740Y-62599000D01*
X66084260Y-62599000D01*
X66150442Y-62605518D01*
X66150442Y-62605518D01*
G37*
G36*
X143402585Y-61118802D02*
G01*
X143552410Y-61148604D01*
X143834674Y-61265521D01*
X144088705Y-61435259D01*
X144304741Y-61651295D01*
X144474479Y-61905326D01*
X144591396Y-62187590D01*
X144651000Y-62487240D01*
X144651000Y-62792760D01*
X144591396Y-63092410D01*
X144474479Y-63374674D01*
X144304741Y-63628705D01*
X144088705Y-63844741D01*
X143834674Y-64014479D01*
X143552410Y-64131396D01*
X143402585Y-64161198D01*
X143252761Y-64191000D01*
X142947239Y-64191000D01*
X142797415Y-64161198D01*
X142647590Y-64131396D01*
X142365326Y-64014479D01*
X142111295Y-63844741D01*
X141895259Y-63628705D01*
X141725521Y-63374674D01*
X141608604Y-63092410D01*
X141549000Y-62792760D01*
X141549000Y-62487240D01*
X141608604Y-62187590D01*
X141725521Y-61905326D01*
X141895259Y-61651295D01*
X142111295Y-61435259D01*
X142365326Y-61265521D01*
X142647590Y-61148604D01*
X142797415Y-61118802D01*
X142947239Y-61089000D01*
X143252761Y-61089000D01*
X143402585Y-61118802D01*
X143402585Y-61118802D01*
G37*
G36*
X100851000Y-63351000D02*
G01*
X99149000Y-63351000D01*
X99149000Y-61649000D01*
X100851000Y-61649000D01*
X100851000Y-63351000D01*
X100851000Y-63351000D01*
G37*
G36*
X68690442Y-60065518D02*
G01*
X68756627Y-60072037D01*
X68926466Y-60123557D01*
X69082991Y-60207222D01*
X69118729Y-60236552D01*
X69220186Y-60319814D01*
X69303448Y-60421271D01*
X69332778Y-60457009D01*
X69416443Y-60613534D01*
X69467963Y-60783373D01*
X69485359Y-60960000D01*
X69467963Y-61136627D01*
X69416443Y-61306466D01*
X69332778Y-61462991D01*
X69303448Y-61498729D01*
X69220186Y-61600186D01*
X69157907Y-61651296D01*
X69082991Y-61712778D01*
X68926466Y-61796443D01*
X68756627Y-61847963D01*
X68690443Y-61854481D01*
X68624260Y-61861000D01*
X68535740Y-61861000D01*
X68469557Y-61854481D01*
X68403373Y-61847963D01*
X68233534Y-61796443D01*
X68077009Y-61712778D01*
X68002093Y-61651296D01*
X67939814Y-61600186D01*
X67856552Y-61498729D01*
X67827222Y-61462991D01*
X67743557Y-61306466D01*
X67692037Y-61136627D01*
X67674641Y-60960000D01*
X67692037Y-60783373D01*
X67743557Y-60613534D01*
X67827222Y-60457009D01*
X67856552Y-60421271D01*
X67939814Y-60319814D01*
X68041271Y-60236552D01*
X68077009Y-60207222D01*
X68233534Y-60123557D01*
X68403373Y-60072037D01*
X68469558Y-60065518D01*
X68535740Y-60059000D01*
X68624260Y-60059000D01*
X68690442Y-60065518D01*
X68690442Y-60065518D01*
G37*
G36*
X66150442Y-60065518D02*
G01*
X66216627Y-60072037D01*
X66386466Y-60123557D01*
X66542991Y-60207222D01*
X66578729Y-60236552D01*
X66680186Y-60319814D01*
X66763448Y-60421271D01*
X66792778Y-60457009D01*
X66876443Y-60613534D01*
X66927963Y-60783373D01*
X66945359Y-60960000D01*
X66927963Y-61136627D01*
X66876443Y-61306466D01*
X66792778Y-61462991D01*
X66763448Y-61498729D01*
X66680186Y-61600186D01*
X66617907Y-61651296D01*
X66542991Y-61712778D01*
X66386466Y-61796443D01*
X66216627Y-61847963D01*
X66150443Y-61854481D01*
X66084260Y-61861000D01*
X65995740Y-61861000D01*
X65929557Y-61854481D01*
X65863373Y-61847963D01*
X65693534Y-61796443D01*
X65537009Y-61712778D01*
X65462093Y-61651296D01*
X65399814Y-61600186D01*
X65316552Y-61498729D01*
X65287222Y-61462991D01*
X65203557Y-61306466D01*
X65152037Y-61136627D01*
X65134641Y-60960000D01*
X65152037Y-60783373D01*
X65203557Y-60613534D01*
X65287222Y-60457009D01*
X65316552Y-60421271D01*
X65399814Y-60319814D01*
X65501271Y-60236552D01*
X65537009Y-60207222D01*
X65693534Y-60123557D01*
X65863373Y-60072037D01*
X65929558Y-60065518D01*
X65995740Y-60059000D01*
X66084260Y-60059000D01*
X66150442Y-60065518D01*
X66150442Y-60065518D01*
G37*
G36*
X66150443Y-57525519D02*
G01*
X66216627Y-57532037D01*
X66386466Y-57583557D01*
X66386468Y-57583558D01*
X66464729Y-57625390D01*
X66542991Y-57667222D01*
X66578729Y-57696552D01*
X66680186Y-57779814D01*
X66763448Y-57881271D01*
X66792778Y-57917009D01*
X66876443Y-58073534D01*
X66927963Y-58243373D01*
X66945359Y-58420000D01*
X66927963Y-58596627D01*
X66876443Y-58766466D01*
X66792778Y-58922991D01*
X66783350Y-58934479D01*
X66680186Y-59060186D01*
X66578729Y-59143448D01*
X66542991Y-59172778D01*
X66386466Y-59256443D01*
X66216627Y-59307963D01*
X66150442Y-59314482D01*
X66084260Y-59321000D01*
X65995740Y-59321000D01*
X65929558Y-59314482D01*
X65863373Y-59307963D01*
X65693534Y-59256443D01*
X65537009Y-59172778D01*
X65501271Y-59143448D01*
X65399814Y-59060186D01*
X65296650Y-58934479D01*
X65287222Y-58922991D01*
X65203557Y-58766466D01*
X65152037Y-58596627D01*
X65134641Y-58420000D01*
X65152037Y-58243373D01*
X65203557Y-58073534D01*
X65287222Y-57917009D01*
X65316552Y-57881271D01*
X65399814Y-57779814D01*
X65501271Y-57696552D01*
X65537009Y-57667222D01*
X65615271Y-57625390D01*
X65693532Y-57583558D01*
X65693534Y-57583557D01*
X65863373Y-57532037D01*
X65929557Y-57525519D01*
X65995740Y-57519000D01*
X66084260Y-57519000D01*
X66150443Y-57525519D01*
X66150443Y-57525519D01*
G37*
G36*
X68690443Y-57525519D02*
G01*
X68756627Y-57532037D01*
X68926466Y-57583557D01*
X68926468Y-57583558D01*
X69004729Y-57625390D01*
X69082991Y-57667222D01*
X69118729Y-57696552D01*
X69220186Y-57779814D01*
X69303448Y-57881271D01*
X69332778Y-57917009D01*
X69416443Y-58073534D01*
X69467963Y-58243373D01*
X69485359Y-58420000D01*
X69467963Y-58596627D01*
X69416443Y-58766466D01*
X69332778Y-58922991D01*
X69323350Y-58934479D01*
X69220186Y-59060186D01*
X69118729Y-59143448D01*
X69082991Y-59172778D01*
X68926466Y-59256443D01*
X68756627Y-59307963D01*
X68690442Y-59314482D01*
X68624260Y-59321000D01*
X68535740Y-59321000D01*
X68469558Y-59314482D01*
X68403373Y-59307963D01*
X68233534Y-59256443D01*
X68077009Y-59172778D01*
X68041271Y-59143448D01*
X67939814Y-59060186D01*
X67836650Y-58934479D01*
X67827222Y-58922991D01*
X67743557Y-58766466D01*
X67692037Y-58596627D01*
X67674641Y-58420000D01*
X67692037Y-58243373D01*
X67743557Y-58073534D01*
X67827222Y-57917009D01*
X67856552Y-57881271D01*
X67939814Y-57779814D01*
X68041271Y-57696552D01*
X68077009Y-57667222D01*
X68155271Y-57625390D01*
X68233532Y-57583558D01*
X68233534Y-57583557D01*
X68403373Y-57532037D01*
X68469557Y-57525519D01*
X68535740Y-57519000D01*
X68624260Y-57519000D01*
X68690443Y-57525519D01*
X68690443Y-57525519D01*
G37*
G36*
X143402585Y-56038802D02*
G01*
X143552410Y-56068604D01*
X143834674Y-56185521D01*
X144088705Y-56355259D01*
X144304741Y-56571295D01*
X144474479Y-56825326D01*
X144591396Y-57107590D01*
X144651000Y-57407240D01*
X144651000Y-57712760D01*
X144591396Y-58012410D01*
X144474479Y-58294674D01*
X144304741Y-58548705D01*
X144088705Y-58764741D01*
X143834674Y-58934479D01*
X143552410Y-59051396D01*
X143402585Y-59081198D01*
X143252761Y-59111000D01*
X142947239Y-59111000D01*
X142797415Y-59081198D01*
X142647590Y-59051396D01*
X142365326Y-58934479D01*
X142111295Y-58764741D01*
X141895259Y-58548705D01*
X141725521Y-58294674D01*
X141608604Y-58012410D01*
X141549000Y-57712760D01*
X141549000Y-57407240D01*
X141608604Y-57107590D01*
X141725521Y-56825326D01*
X141895259Y-56571295D01*
X142111295Y-56355259D01*
X142365326Y-56185521D01*
X142647590Y-56068604D01*
X142797415Y-56038802D01*
X142947239Y-56009000D01*
X143252761Y-56009000D01*
X143402585Y-56038802D01*
X143402585Y-56038802D01*
G37*
G36*
X124748228Y-57181703D02*
G01*
X124903100Y-57245853D01*
X125042481Y-57338985D01*
X125161015Y-57457519D01*
X125254147Y-57596900D01*
X125318297Y-57751772D01*
X125351000Y-57916184D01*
X125351000Y-58083816D01*
X125318297Y-58248228D01*
X125254147Y-58403100D01*
X125161015Y-58542481D01*
X125042481Y-58661015D01*
X124903100Y-58754147D01*
X124748228Y-58818297D01*
X124583816Y-58851000D01*
X124416184Y-58851000D01*
X124251772Y-58818297D01*
X124096900Y-58754147D01*
X123957519Y-58661015D01*
X123838985Y-58542481D01*
X123745853Y-58403100D01*
X123681703Y-58248228D01*
X123649000Y-58083816D01*
X123649000Y-57916184D01*
X123681703Y-57751772D01*
X123745853Y-57596900D01*
X123838985Y-57457519D01*
X123957519Y-57338985D01*
X124096900Y-57245853D01*
X124251772Y-57181703D01*
X124416184Y-57149000D01*
X124583816Y-57149000D01*
X124748228Y-57181703D01*
X124748228Y-57181703D01*
G37*
G36*
X122851000Y-58851000D02*
G01*
X121149000Y-58851000D01*
X121149000Y-57149000D01*
X122851000Y-57149000D01*
X122851000Y-58851000D01*
X122851000Y-58851000D01*
G37*
G36*
X68690443Y-54985519D02*
G01*
X68756627Y-54992037D01*
X68926466Y-55043557D01*
X69082991Y-55127222D01*
X69118729Y-55156552D01*
X69220186Y-55239814D01*
X69303448Y-55341271D01*
X69332778Y-55377009D01*
X69416443Y-55533534D01*
X69467963Y-55703373D01*
X69485359Y-55880000D01*
X69467963Y-56056627D01*
X69416443Y-56226466D01*
X69332778Y-56382991D01*
X69303448Y-56418729D01*
X69220186Y-56520186D01*
X69157907Y-56571296D01*
X69082991Y-56632778D01*
X68926466Y-56716443D01*
X68756627Y-56767963D01*
X68690443Y-56774481D01*
X68624260Y-56781000D01*
X68535740Y-56781000D01*
X68469557Y-56774481D01*
X68403373Y-56767963D01*
X68233534Y-56716443D01*
X68077009Y-56632778D01*
X68002093Y-56571296D01*
X67939814Y-56520186D01*
X67856552Y-56418729D01*
X67827222Y-56382991D01*
X67743557Y-56226466D01*
X67692037Y-56056627D01*
X67674641Y-55880000D01*
X67692037Y-55703373D01*
X67743557Y-55533534D01*
X67827222Y-55377009D01*
X67856552Y-55341271D01*
X67939814Y-55239814D01*
X68041271Y-55156552D01*
X68077009Y-55127222D01*
X68233534Y-55043557D01*
X68403373Y-54992037D01*
X68469557Y-54985519D01*
X68535740Y-54979000D01*
X68624260Y-54979000D01*
X68690443Y-54985519D01*
X68690443Y-54985519D01*
G37*
G36*
X66150443Y-54985519D02*
G01*
X66216627Y-54992037D01*
X66386466Y-55043557D01*
X66542991Y-55127222D01*
X66578729Y-55156552D01*
X66680186Y-55239814D01*
X66763448Y-55341271D01*
X66792778Y-55377009D01*
X66876443Y-55533534D01*
X66927963Y-55703373D01*
X66945359Y-55880000D01*
X66927963Y-56056627D01*
X66876443Y-56226466D01*
X66792778Y-56382991D01*
X66763448Y-56418729D01*
X66680186Y-56520186D01*
X66617907Y-56571296D01*
X66542991Y-56632778D01*
X66386466Y-56716443D01*
X66216627Y-56767963D01*
X66150443Y-56774481D01*
X66084260Y-56781000D01*
X65995740Y-56781000D01*
X65929557Y-56774481D01*
X65863373Y-56767963D01*
X65693534Y-56716443D01*
X65537009Y-56632778D01*
X65462093Y-56571296D01*
X65399814Y-56520186D01*
X65316552Y-56418729D01*
X65287222Y-56382991D01*
X65203557Y-56226466D01*
X65152037Y-56056627D01*
X65134641Y-55880000D01*
X65152037Y-55703373D01*
X65203557Y-55533534D01*
X65287222Y-55377009D01*
X65316552Y-55341271D01*
X65399814Y-55239814D01*
X65501271Y-55156552D01*
X65537009Y-55127222D01*
X65693534Y-55043557D01*
X65863373Y-54992037D01*
X65929557Y-54985519D01*
X65995740Y-54979000D01*
X66084260Y-54979000D01*
X66150443Y-54985519D01*
X66150443Y-54985519D01*
G37*
G36*
X88820442Y-54105518D02*
G01*
X88886627Y-54112037D01*
X89056466Y-54163557D01*
X89212991Y-54247222D01*
X89248729Y-54276552D01*
X89350186Y-54359814D01*
X89433448Y-54461271D01*
X89462778Y-54497009D01*
X89546443Y-54653534D01*
X89597963Y-54823373D01*
X89615359Y-55000000D01*
X89597963Y-55176627D01*
X89546443Y-55346466D01*
X89462778Y-55502991D01*
X89437713Y-55533532D01*
X89350186Y-55640186D01*
X89248729Y-55723448D01*
X89212991Y-55752778D01*
X89056466Y-55836443D01*
X88886627Y-55887963D01*
X88820442Y-55894482D01*
X88754260Y-55901000D01*
X88665740Y-55901000D01*
X88599558Y-55894482D01*
X88533373Y-55887963D01*
X88363534Y-55836443D01*
X88207009Y-55752778D01*
X88171271Y-55723448D01*
X88069814Y-55640186D01*
X87982287Y-55533532D01*
X87957222Y-55502991D01*
X87873557Y-55346466D01*
X87822037Y-55176627D01*
X87804641Y-55000000D01*
X87822037Y-54823373D01*
X87873557Y-54653534D01*
X87957222Y-54497009D01*
X87986552Y-54461271D01*
X88069814Y-54359814D01*
X88171271Y-54276552D01*
X88207009Y-54247222D01*
X88363534Y-54163557D01*
X88533373Y-54112037D01*
X88599558Y-54105518D01*
X88665740Y-54099000D01*
X88754260Y-54099000D01*
X88820442Y-54105518D01*
X88820442Y-54105518D01*
G37*
G36*
X86280442Y-54105518D02*
G01*
X86346627Y-54112037D01*
X86516466Y-54163557D01*
X86672991Y-54247222D01*
X86708729Y-54276552D01*
X86810186Y-54359814D01*
X86893448Y-54461271D01*
X86922778Y-54497009D01*
X87006443Y-54653534D01*
X87057963Y-54823373D01*
X87075359Y-55000000D01*
X87057963Y-55176627D01*
X87006443Y-55346466D01*
X86922778Y-55502991D01*
X86897713Y-55533532D01*
X86810186Y-55640186D01*
X86708729Y-55723448D01*
X86672991Y-55752778D01*
X86516466Y-55836443D01*
X86346627Y-55887963D01*
X86280442Y-55894482D01*
X86214260Y-55901000D01*
X86125740Y-55901000D01*
X86059558Y-55894482D01*
X85993373Y-55887963D01*
X85823534Y-55836443D01*
X85667009Y-55752778D01*
X85631271Y-55723448D01*
X85529814Y-55640186D01*
X85442287Y-55533532D01*
X85417222Y-55502991D01*
X85333557Y-55346466D01*
X85282037Y-55176627D01*
X85264641Y-55000000D01*
X85282037Y-54823373D01*
X85333557Y-54653534D01*
X85417222Y-54497009D01*
X85446552Y-54461271D01*
X85529814Y-54359814D01*
X85631271Y-54276552D01*
X85667009Y-54247222D01*
X85823534Y-54163557D01*
X85993373Y-54112037D01*
X86059558Y-54105518D01*
X86125740Y-54099000D01*
X86214260Y-54099000D01*
X86280442Y-54105518D01*
X86280442Y-54105518D01*
G37*
G36*
X92151000Y-55901000D02*
G01*
X90349000Y-55901000D01*
X90349000Y-54099000D01*
X92151000Y-54099000D01*
X92151000Y-55901000D01*
X92151000Y-55901000D01*
G37*
G36*
X66150443Y-52445519D02*
G01*
X66216627Y-52452037D01*
X66386466Y-52503557D01*
X66542991Y-52587222D01*
X66578729Y-52616552D01*
X66680186Y-52699814D01*
X66763448Y-52801271D01*
X66792778Y-52837009D01*
X66876443Y-52993534D01*
X66927963Y-53163373D01*
X66945359Y-53340000D01*
X66927963Y-53516627D01*
X66876443Y-53686466D01*
X66792778Y-53842991D01*
X66783350Y-53854479D01*
X66680186Y-53980186D01*
X66578729Y-54063448D01*
X66542991Y-54092778D01*
X66386466Y-54176443D01*
X66216627Y-54227963D01*
X66150442Y-54234482D01*
X66084260Y-54241000D01*
X65995740Y-54241000D01*
X65929558Y-54234482D01*
X65863373Y-54227963D01*
X65693534Y-54176443D01*
X65537009Y-54092778D01*
X65501271Y-54063448D01*
X65399814Y-53980186D01*
X65296650Y-53854479D01*
X65287222Y-53842991D01*
X65203557Y-53686466D01*
X65152037Y-53516627D01*
X65134641Y-53340000D01*
X65152037Y-53163373D01*
X65203557Y-52993534D01*
X65287222Y-52837009D01*
X65316552Y-52801271D01*
X65399814Y-52699814D01*
X65501271Y-52616552D01*
X65537009Y-52587222D01*
X65693534Y-52503557D01*
X65863373Y-52452037D01*
X65929558Y-52445518D01*
X65995740Y-52439000D01*
X66084260Y-52439000D01*
X66150443Y-52445519D01*
X66150443Y-52445519D01*
G37*
G36*
X68690443Y-52445519D02*
G01*
X68756627Y-52452037D01*
X68926466Y-52503557D01*
X69082991Y-52587222D01*
X69118729Y-52616552D01*
X69220186Y-52699814D01*
X69303448Y-52801271D01*
X69332778Y-52837009D01*
X69416443Y-52993534D01*
X69467963Y-53163373D01*
X69485359Y-53340000D01*
X69467963Y-53516627D01*
X69416443Y-53686466D01*
X69332778Y-53842991D01*
X69323350Y-53854479D01*
X69220186Y-53980186D01*
X69118729Y-54063448D01*
X69082991Y-54092778D01*
X68926466Y-54176443D01*
X68756627Y-54227963D01*
X68690442Y-54234482D01*
X68624260Y-54241000D01*
X68535740Y-54241000D01*
X68469558Y-54234482D01*
X68403373Y-54227963D01*
X68233534Y-54176443D01*
X68077009Y-54092778D01*
X68041271Y-54063448D01*
X67939814Y-53980186D01*
X67836650Y-53854479D01*
X67827222Y-53842991D01*
X67743557Y-53686466D01*
X67692037Y-53516627D01*
X67674641Y-53340000D01*
X67692037Y-53163373D01*
X67743557Y-52993534D01*
X67827222Y-52837009D01*
X67856552Y-52801271D01*
X67939814Y-52699814D01*
X68041271Y-52616552D01*
X68077009Y-52587222D01*
X68233534Y-52503557D01*
X68403373Y-52452037D01*
X68469558Y-52445518D01*
X68535740Y-52439000D01*
X68624260Y-52439000D01*
X68690443Y-52445519D01*
X68690443Y-52445519D01*
G37*
G36*
X143402585Y-50958802D02*
G01*
X143552410Y-50988604D01*
X143834674Y-51105521D01*
X144088705Y-51275259D01*
X144304741Y-51491295D01*
X144474479Y-51745326D01*
X144591396Y-52027590D01*
X144605183Y-52096903D01*
X144651000Y-52327239D01*
X144651000Y-52632761D01*
X144621198Y-52782585D01*
X144591396Y-52932410D01*
X144474479Y-53214674D01*
X144304741Y-53468705D01*
X144088705Y-53684741D01*
X143834674Y-53854479D01*
X143552410Y-53971396D01*
X143402585Y-54001198D01*
X143252761Y-54031000D01*
X142947239Y-54031000D01*
X142797415Y-54001198D01*
X142647590Y-53971396D01*
X142365326Y-53854479D01*
X142111295Y-53684741D01*
X141895259Y-53468705D01*
X141725521Y-53214674D01*
X141608604Y-52932410D01*
X141578802Y-52782585D01*
X141549000Y-52632761D01*
X141549000Y-52327239D01*
X141594817Y-52096903D01*
X141608604Y-52027590D01*
X141725521Y-51745326D01*
X141895259Y-51491295D01*
X142111295Y-51275259D01*
X142365326Y-51105521D01*
X142647590Y-50988604D01*
X142797415Y-50958802D01*
X142947239Y-50929000D01*
X143252761Y-50929000D01*
X143402585Y-50958802D01*
X143402585Y-50958802D01*
G37*
G36*
X102498228Y-51681703D02*
G01*
X102653100Y-51745853D01*
X102792481Y-51838985D01*
X102911015Y-51957519D01*
X103004147Y-52096900D01*
X103068297Y-52251772D01*
X103101000Y-52416184D01*
X103101000Y-52583816D01*
X103068297Y-52748228D01*
X103004147Y-52903100D01*
X102911015Y-53042481D01*
X102792481Y-53161015D01*
X102653100Y-53254147D01*
X102498228Y-53318297D01*
X102333816Y-53351000D01*
X102166184Y-53351000D01*
X102001772Y-53318297D01*
X101846900Y-53254147D01*
X101707519Y-53161015D01*
X101588985Y-53042481D01*
X101495853Y-52903100D01*
X101431703Y-52748228D01*
X101399000Y-52583816D01*
X101399000Y-52416184D01*
X101431703Y-52251772D01*
X101495853Y-52096900D01*
X101588985Y-51957519D01*
X101707519Y-51838985D01*
X101846900Y-51745853D01*
X102001772Y-51681703D01*
X102166184Y-51649000D01*
X102333816Y-51649000D01*
X102498228Y-51681703D01*
X102498228Y-51681703D01*
G37*
G36*
X107998228Y-51681703D02*
G01*
X108153100Y-51745853D01*
X108292481Y-51838985D01*
X108411015Y-51957519D01*
X108504147Y-52096900D01*
X108568297Y-52251772D01*
X108601000Y-52416184D01*
X108601000Y-52583816D01*
X108568297Y-52748228D01*
X108504147Y-52903100D01*
X108411015Y-53042481D01*
X108292481Y-53161015D01*
X108153100Y-53254147D01*
X107998228Y-53318297D01*
X107833816Y-53351000D01*
X107666184Y-53351000D01*
X107501772Y-53318297D01*
X107346900Y-53254147D01*
X107207519Y-53161015D01*
X107088985Y-53042481D01*
X106995853Y-52903100D01*
X106931703Y-52748228D01*
X106899000Y-52583816D01*
X106899000Y-52416184D01*
X106931703Y-52251772D01*
X106995853Y-52096900D01*
X107088985Y-51957519D01*
X107207519Y-51838985D01*
X107346900Y-51745853D01*
X107501772Y-51681703D01*
X107666184Y-51649000D01*
X107833816Y-51649000D01*
X107998228Y-51681703D01*
X107998228Y-51681703D01*
G37*
G36*
X131851000Y-52851000D02*
G01*
X130149000Y-52851000D01*
X130149000Y-51149000D01*
X131851000Y-51149000D01*
X131851000Y-52851000D01*
X131851000Y-52851000D01*
G37*
G36*
X133748228Y-51181703D02*
G01*
X133903100Y-51245853D01*
X134042481Y-51338985D01*
X134161015Y-51457519D01*
X134254147Y-51596900D01*
X134318297Y-51751772D01*
X134351000Y-51916184D01*
X134351000Y-52083816D01*
X134318297Y-52248228D01*
X134254147Y-52403100D01*
X134161015Y-52542481D01*
X134042481Y-52661015D01*
X133903100Y-52754147D01*
X133748228Y-52818297D01*
X133583816Y-52851000D01*
X133416184Y-52851000D01*
X133251772Y-52818297D01*
X133096900Y-52754147D01*
X132957519Y-52661015D01*
X132838985Y-52542481D01*
X132745853Y-52403100D01*
X132681703Y-52248228D01*
X132649000Y-52083816D01*
X132649000Y-51916184D01*
X132681703Y-51751772D01*
X132745853Y-51596900D01*
X132838985Y-51457519D01*
X132957519Y-51338985D01*
X133096900Y-51245853D01*
X133251772Y-51181703D01*
X133416184Y-51149000D01*
X133583816Y-51149000D01*
X133748228Y-51181703D01*
X133748228Y-51181703D01*
G37*
G36*
X66150442Y-49905518D02*
G01*
X66216627Y-49912037D01*
X66386466Y-49963557D01*
X66542991Y-50047222D01*
X66578729Y-50076552D01*
X66680186Y-50159814D01*
X66763448Y-50261271D01*
X66792778Y-50297009D01*
X66876443Y-50453534D01*
X66927963Y-50623373D01*
X66945359Y-50800000D01*
X66927963Y-50976627D01*
X66876443Y-51146466D01*
X66792778Y-51302991D01*
X66763448Y-51338729D01*
X66680186Y-51440186D01*
X66617907Y-51491296D01*
X66542991Y-51552778D01*
X66386466Y-51636443D01*
X66216627Y-51687963D01*
X66150442Y-51694482D01*
X66084260Y-51701000D01*
X65995740Y-51701000D01*
X65929558Y-51694482D01*
X65863373Y-51687963D01*
X65693534Y-51636443D01*
X65537009Y-51552778D01*
X65462093Y-51491296D01*
X65399814Y-51440186D01*
X65316552Y-51338729D01*
X65287222Y-51302991D01*
X65203557Y-51146466D01*
X65152037Y-50976627D01*
X65134641Y-50800000D01*
X65152037Y-50623373D01*
X65203557Y-50453534D01*
X65287222Y-50297009D01*
X65316552Y-50261271D01*
X65399814Y-50159814D01*
X65501271Y-50076552D01*
X65537009Y-50047222D01*
X65693534Y-49963557D01*
X65863373Y-49912037D01*
X65929557Y-49905519D01*
X65995740Y-49899000D01*
X66084260Y-49899000D01*
X66150442Y-49905518D01*
X66150442Y-49905518D01*
G37*
G36*
X68690442Y-49905518D02*
G01*
X68756627Y-49912037D01*
X68926466Y-49963557D01*
X69082991Y-50047222D01*
X69118729Y-50076552D01*
X69220186Y-50159814D01*
X69303448Y-50261271D01*
X69332778Y-50297009D01*
X69416443Y-50453534D01*
X69467963Y-50623373D01*
X69485359Y-50800000D01*
X69467963Y-50976627D01*
X69416443Y-51146466D01*
X69332778Y-51302991D01*
X69303448Y-51338729D01*
X69220186Y-51440186D01*
X69157907Y-51491296D01*
X69082991Y-51552778D01*
X68926466Y-51636443D01*
X68756627Y-51687963D01*
X68690442Y-51694482D01*
X68624260Y-51701000D01*
X68535740Y-51701000D01*
X68469558Y-51694482D01*
X68403373Y-51687963D01*
X68233534Y-51636443D01*
X68077009Y-51552778D01*
X68002093Y-51491296D01*
X67939814Y-51440186D01*
X67856552Y-51338729D01*
X67827222Y-51302991D01*
X67743557Y-51146466D01*
X67692037Y-50976627D01*
X67674641Y-50800000D01*
X67692037Y-50623373D01*
X67743557Y-50453534D01*
X67827222Y-50297009D01*
X67856552Y-50261271D01*
X67939814Y-50159814D01*
X68041271Y-50076552D01*
X68077009Y-50047222D01*
X68233534Y-49963557D01*
X68403373Y-49912037D01*
X68469557Y-49905519D01*
X68535740Y-49899000D01*
X68624260Y-49899000D01*
X68690442Y-49905518D01*
X68690442Y-49905518D01*
G37*
G36*
X108601000Y-50851000D02*
G01*
X106899000Y-50851000D01*
X106899000Y-49149000D01*
X108601000Y-49149000D01*
X108601000Y-50851000D01*
X108601000Y-50851000D01*
G37*
G36*
X103101000Y-50851000D02*
G01*
X101399000Y-50851000D01*
X101399000Y-49149000D01*
X103101000Y-49149000D01*
X103101000Y-50851000D01*
X103101000Y-50851000D01*
G37*
G36*
X68690443Y-47365519D02*
G01*
X68756627Y-47372037D01*
X68926466Y-47423557D01*
X69082991Y-47507222D01*
X69118729Y-47536552D01*
X69220186Y-47619814D01*
X69303448Y-47721271D01*
X69332778Y-47757009D01*
X69416443Y-47913534D01*
X69467963Y-48083373D01*
X69485359Y-48260000D01*
X69467963Y-48436627D01*
X69416443Y-48606466D01*
X69332778Y-48762991D01*
X69323350Y-48774479D01*
X69220186Y-48900186D01*
X69118729Y-48983448D01*
X69082991Y-49012778D01*
X68926466Y-49096443D01*
X68756627Y-49147963D01*
X68690443Y-49154481D01*
X68624260Y-49161000D01*
X68535740Y-49161000D01*
X68469557Y-49154481D01*
X68403373Y-49147963D01*
X68233534Y-49096443D01*
X68077009Y-49012778D01*
X68041271Y-48983448D01*
X67939814Y-48900186D01*
X67836650Y-48774479D01*
X67827222Y-48762991D01*
X67743557Y-48606466D01*
X67692037Y-48436627D01*
X67674641Y-48260000D01*
X67692037Y-48083373D01*
X67743557Y-47913534D01*
X67827222Y-47757009D01*
X67856552Y-47721271D01*
X67939814Y-47619814D01*
X68041271Y-47536552D01*
X68077009Y-47507222D01*
X68233534Y-47423557D01*
X68403373Y-47372037D01*
X68469557Y-47365519D01*
X68535740Y-47359000D01*
X68624260Y-47359000D01*
X68690443Y-47365519D01*
X68690443Y-47365519D01*
G37*
G36*
X66150443Y-47365519D02*
G01*
X66216627Y-47372037D01*
X66386466Y-47423557D01*
X66542991Y-47507222D01*
X66578729Y-47536552D01*
X66680186Y-47619814D01*
X66763448Y-47721271D01*
X66792778Y-47757009D01*
X66876443Y-47913534D01*
X66927963Y-48083373D01*
X66945359Y-48260000D01*
X66927963Y-48436627D01*
X66876443Y-48606466D01*
X66792778Y-48762991D01*
X66783350Y-48774479D01*
X66680186Y-48900186D01*
X66578729Y-48983448D01*
X66542991Y-49012778D01*
X66386466Y-49096443D01*
X66216627Y-49147963D01*
X66150443Y-49154481D01*
X66084260Y-49161000D01*
X65995740Y-49161000D01*
X65929557Y-49154481D01*
X65863373Y-49147963D01*
X65693534Y-49096443D01*
X65537009Y-49012778D01*
X65501271Y-48983448D01*
X65399814Y-48900186D01*
X65296650Y-48774479D01*
X65287222Y-48762991D01*
X65203557Y-48606466D01*
X65152037Y-48436627D01*
X65134641Y-48260000D01*
X65152037Y-48083373D01*
X65203557Y-47913534D01*
X65287222Y-47757009D01*
X65316552Y-47721271D01*
X65399814Y-47619814D01*
X65501271Y-47536552D01*
X65537009Y-47507222D01*
X65693534Y-47423557D01*
X65863373Y-47372037D01*
X65929557Y-47365519D01*
X65995740Y-47359000D01*
X66084260Y-47359000D01*
X66150443Y-47365519D01*
X66150443Y-47365519D01*
G37*
G36*
X143402585Y-45878802D02*
G01*
X143552410Y-45908604D01*
X143834674Y-46025521D01*
X144088705Y-46195259D01*
X144304741Y-46411295D01*
X144474479Y-46665326D01*
X144537841Y-46818297D01*
X144591396Y-46947591D01*
X144651000Y-47247239D01*
X144651000Y-47552761D01*
X144637662Y-47619814D01*
X144591396Y-47852410D01*
X144474479Y-48134674D01*
X144304741Y-48388705D01*
X144088705Y-48604741D01*
X143834674Y-48774479D01*
X143552410Y-48891396D01*
X143402585Y-48921198D01*
X143252761Y-48951000D01*
X142947239Y-48951000D01*
X142797415Y-48921198D01*
X142647590Y-48891396D01*
X142365326Y-48774479D01*
X142111295Y-48604741D01*
X141895259Y-48388705D01*
X141725521Y-48134674D01*
X141608604Y-47852410D01*
X141562338Y-47619814D01*
X141549000Y-47552761D01*
X141549000Y-47247239D01*
X141608604Y-46947591D01*
X141662159Y-46818297D01*
X141725521Y-46665326D01*
X141895259Y-46411295D01*
X142111295Y-46195259D01*
X142365326Y-46025521D01*
X142647590Y-45908604D01*
X142797415Y-45878802D01*
X142947239Y-45849000D01*
X143252761Y-45849000D01*
X143402585Y-45878802D01*
X143402585Y-45878802D01*
G37*
G36*
X103601000Y-47601000D02*
G01*
X101899000Y-47601000D01*
X101899000Y-45899000D01*
X103601000Y-45899000D01*
X103601000Y-47601000D01*
X103601000Y-47601000D01*
G37*
G36*
X124748228Y-45181703D02*
G01*
X124903100Y-45245853D01*
X125042481Y-45338985D01*
X125161015Y-45457519D01*
X125254147Y-45596900D01*
X125318297Y-45751772D01*
X125351000Y-45916184D01*
X125351000Y-46083816D01*
X125318297Y-46248228D01*
X125254147Y-46403100D01*
X125161015Y-46542481D01*
X125042481Y-46661015D01*
X124903100Y-46754147D01*
X124748228Y-46818297D01*
X124583816Y-46851000D01*
X124416184Y-46851000D01*
X124251772Y-46818297D01*
X124096900Y-46754147D01*
X123957519Y-46661015D01*
X123838985Y-46542481D01*
X123745853Y-46403100D01*
X123681703Y-46248228D01*
X123649000Y-46083816D01*
X123649000Y-45916184D01*
X123681703Y-45751772D01*
X123745853Y-45596900D01*
X123838985Y-45457519D01*
X123957519Y-45338985D01*
X124096900Y-45245853D01*
X124251772Y-45181703D01*
X124416184Y-45149000D01*
X124583816Y-45149000D01*
X124748228Y-45181703D01*
X124748228Y-45181703D01*
G37*
G36*
X122851000Y-46851000D02*
G01*
X121149000Y-46851000D01*
X121149000Y-45149000D01*
X122851000Y-45149000D01*
X122851000Y-46851000D01*
X122851000Y-46851000D01*
G37*
G36*
X68690442Y-44825518D02*
G01*
X68756627Y-44832037D01*
X68926466Y-44883557D01*
X69082991Y-44967222D01*
X69118729Y-44996552D01*
X69220186Y-45079814D01*
X69303448Y-45181271D01*
X69332778Y-45217009D01*
X69416443Y-45373534D01*
X69467963Y-45543373D01*
X69485359Y-45720000D01*
X69467963Y-45896627D01*
X69416443Y-46066466D01*
X69332778Y-46222991D01*
X69303448Y-46258729D01*
X69220186Y-46360186D01*
X69157907Y-46411296D01*
X69082991Y-46472778D01*
X68926466Y-46556443D01*
X68756627Y-46607963D01*
X68690443Y-46614481D01*
X68624260Y-46621000D01*
X68535740Y-46621000D01*
X68469558Y-46614482D01*
X68403373Y-46607963D01*
X68233534Y-46556443D01*
X68077009Y-46472778D01*
X68002093Y-46411296D01*
X67939814Y-46360186D01*
X67856552Y-46258729D01*
X67827222Y-46222991D01*
X67743557Y-46066466D01*
X67692037Y-45896627D01*
X67674641Y-45720000D01*
X67692037Y-45543373D01*
X67743557Y-45373534D01*
X67827222Y-45217009D01*
X67856552Y-45181271D01*
X67939814Y-45079814D01*
X68041271Y-44996552D01*
X68077009Y-44967222D01*
X68233534Y-44883557D01*
X68403373Y-44832037D01*
X68469558Y-44825518D01*
X68535740Y-44819000D01*
X68624260Y-44819000D01*
X68690442Y-44825518D01*
X68690442Y-44825518D01*
G37*
G36*
X66150442Y-44825518D02*
G01*
X66216627Y-44832037D01*
X66386466Y-44883557D01*
X66542991Y-44967222D01*
X66578729Y-44996552D01*
X66680186Y-45079814D01*
X66763448Y-45181271D01*
X66792778Y-45217009D01*
X66876443Y-45373534D01*
X66927963Y-45543373D01*
X66945359Y-45720000D01*
X66927963Y-45896627D01*
X66876443Y-46066466D01*
X66792778Y-46222991D01*
X66763448Y-46258729D01*
X66680186Y-46360186D01*
X66617907Y-46411296D01*
X66542991Y-46472778D01*
X66386466Y-46556443D01*
X66216627Y-46607963D01*
X66150443Y-46614481D01*
X66084260Y-46621000D01*
X65995740Y-46621000D01*
X65929558Y-46614482D01*
X65863373Y-46607963D01*
X65693534Y-46556443D01*
X65537009Y-46472778D01*
X65462093Y-46411296D01*
X65399814Y-46360186D01*
X65316552Y-46258729D01*
X65287222Y-46222991D01*
X65203557Y-46066466D01*
X65152037Y-45896627D01*
X65134641Y-45720000D01*
X65152037Y-45543373D01*
X65203557Y-45373534D01*
X65287222Y-45217009D01*
X65316552Y-45181271D01*
X65399814Y-45079814D01*
X65501271Y-44996552D01*
X65537009Y-44967222D01*
X65693534Y-44883557D01*
X65863373Y-44832037D01*
X65929558Y-44825518D01*
X65995740Y-44819000D01*
X66084260Y-44819000D01*
X66150442Y-44825518D01*
X66150442Y-44825518D01*
G37*
G36*
X79851000Y-46351000D02*
G01*
X78149000Y-46351000D01*
X78149000Y-44649000D01*
X79851000Y-44649000D01*
X79851000Y-46351000D01*
X79851000Y-46351000D01*
G37*
G36*
X102998228Y-43431703D02*
G01*
X103153100Y-43495853D01*
X103292481Y-43588985D01*
X103411015Y-43707519D01*
X103504147Y-43846900D01*
X103568297Y-44001772D01*
X103601000Y-44166184D01*
X103601000Y-44333816D01*
X103568297Y-44498228D01*
X103504147Y-44653100D01*
X103411015Y-44792481D01*
X103292481Y-44911015D01*
X103153100Y-45004147D01*
X102998228Y-45068297D01*
X102833816Y-45101000D01*
X102666184Y-45101000D01*
X102501772Y-45068297D01*
X102346900Y-45004147D01*
X102207519Y-44911015D01*
X102088985Y-44792481D01*
X101995853Y-44653100D01*
X101931703Y-44498228D01*
X101899000Y-44333816D01*
X101899000Y-44166184D01*
X101931703Y-44001772D01*
X101995853Y-43846900D01*
X102088985Y-43707519D01*
X102207519Y-43588985D01*
X102346900Y-43495853D01*
X102501772Y-43431703D01*
X102666184Y-43399000D01*
X102833816Y-43399000D01*
X102998228Y-43431703D01*
X102998228Y-43431703D01*
G37*
G36*
X66150442Y-42285518D02*
G01*
X66216627Y-42292037D01*
X66386466Y-42343557D01*
X66542991Y-42427222D01*
X66578729Y-42456552D01*
X66680186Y-42539814D01*
X66763448Y-42641271D01*
X66792778Y-42677009D01*
X66876443Y-42833534D01*
X66927963Y-43003373D01*
X66945359Y-43180000D01*
X66927963Y-43356627D01*
X66876443Y-43526466D01*
X66792778Y-43682991D01*
X66783350Y-43694479D01*
X66680186Y-43820186D01*
X66578729Y-43903448D01*
X66542991Y-43932778D01*
X66386466Y-44016443D01*
X66216627Y-44067963D01*
X66150443Y-44074481D01*
X66084260Y-44081000D01*
X65995740Y-44081000D01*
X65929557Y-44074481D01*
X65863373Y-44067963D01*
X65693534Y-44016443D01*
X65537009Y-43932778D01*
X65501271Y-43903448D01*
X65399814Y-43820186D01*
X65296650Y-43694479D01*
X65287222Y-43682991D01*
X65203557Y-43526466D01*
X65152037Y-43356627D01*
X65134641Y-43180000D01*
X65152037Y-43003373D01*
X65203557Y-42833534D01*
X65287222Y-42677009D01*
X65316552Y-42641271D01*
X65399814Y-42539814D01*
X65501271Y-42456552D01*
X65537009Y-42427222D01*
X65693534Y-42343557D01*
X65863373Y-42292037D01*
X65929558Y-42285518D01*
X65995740Y-42279000D01*
X66084260Y-42279000D01*
X66150442Y-42285518D01*
X66150442Y-42285518D01*
G37*
G36*
X68690442Y-42285518D02*
G01*
X68756627Y-42292037D01*
X68926466Y-42343557D01*
X69082991Y-42427222D01*
X69118729Y-42456552D01*
X69220186Y-42539814D01*
X69303448Y-42641271D01*
X69332778Y-42677009D01*
X69416443Y-42833534D01*
X69467963Y-43003373D01*
X69485359Y-43180000D01*
X69467963Y-43356627D01*
X69416443Y-43526466D01*
X69332778Y-43682991D01*
X69323350Y-43694479D01*
X69220186Y-43820186D01*
X69118729Y-43903448D01*
X69082991Y-43932778D01*
X68926466Y-44016443D01*
X68756627Y-44067963D01*
X68690443Y-44074481D01*
X68624260Y-44081000D01*
X68535740Y-44081000D01*
X68469557Y-44074481D01*
X68403373Y-44067963D01*
X68233534Y-44016443D01*
X68077009Y-43932778D01*
X68041271Y-43903448D01*
X67939814Y-43820186D01*
X67836650Y-43694479D01*
X67827222Y-43682991D01*
X67743557Y-43526466D01*
X67692037Y-43356627D01*
X67674641Y-43180000D01*
X67692037Y-43003373D01*
X67743557Y-42833534D01*
X67827222Y-42677009D01*
X67856552Y-42641271D01*
X67939814Y-42539814D01*
X68041271Y-42456552D01*
X68077009Y-42427222D01*
X68233534Y-42343557D01*
X68403373Y-42292037D01*
X68469558Y-42285518D01*
X68535740Y-42279000D01*
X68624260Y-42279000D01*
X68690442Y-42285518D01*
X68690442Y-42285518D01*
G37*
G36*
X143402585Y-40798802D02*
G01*
X143552410Y-40828604D01*
X143834674Y-40945521D01*
X144088705Y-41115259D01*
X144304741Y-41331295D01*
X144474479Y-41585326D01*
X144591396Y-41867590D01*
X144651000Y-42167240D01*
X144651000Y-42472760D01*
X144591396Y-42772410D01*
X144474479Y-43054674D01*
X144304741Y-43308705D01*
X144088705Y-43524741D01*
X143834674Y-43694479D01*
X143552410Y-43811396D01*
X143402585Y-43841198D01*
X143252761Y-43871000D01*
X142947239Y-43871000D01*
X142797415Y-43841198D01*
X142647590Y-43811396D01*
X142365326Y-43694479D01*
X142111295Y-43524741D01*
X141895259Y-43308705D01*
X141725521Y-43054674D01*
X141608604Y-42772410D01*
X141549000Y-42472760D01*
X141549000Y-42167240D01*
X141608604Y-41867590D01*
X141725521Y-41585326D01*
X141895259Y-41331295D01*
X142111295Y-41115259D01*
X142365326Y-40945521D01*
X142647590Y-40828604D01*
X142797415Y-40798802D01*
X142947239Y-40769000D01*
X143252761Y-40769000D01*
X143402585Y-40798802D01*
X143402585Y-40798802D01*
G37*
G36*
X79248228Y-42181703D02*
G01*
X79403100Y-42245853D01*
X79542481Y-42338985D01*
X79661015Y-42457519D01*
X79754147Y-42596900D01*
X79818297Y-42751772D01*
X79851000Y-42916184D01*
X79851000Y-43083816D01*
X79818297Y-43248228D01*
X79754147Y-43403100D01*
X79661015Y-43542481D01*
X79542481Y-43661015D01*
X79403100Y-43754147D01*
X79248228Y-43818297D01*
X79083816Y-43851000D01*
X78916184Y-43851000D01*
X78751772Y-43818297D01*
X78596900Y-43754147D01*
X78457519Y-43661015D01*
X78338985Y-43542481D01*
X78245853Y-43403100D01*
X78181703Y-43248228D01*
X78149000Y-43083816D01*
X78149000Y-42916184D01*
X78181703Y-42751772D01*
X78245853Y-42596900D01*
X78338985Y-42457519D01*
X78457519Y-42338985D01*
X78596900Y-42245853D01*
X78751772Y-42181703D01*
X78916184Y-42149000D01*
X79083816Y-42149000D01*
X79248228Y-42181703D01*
X79248228Y-42181703D01*
G37*
G36*
X102998228Y-40431703D02*
G01*
X103153100Y-40495853D01*
X103292481Y-40588985D01*
X103411015Y-40707519D01*
X103504147Y-40846900D01*
X103568297Y-41001772D01*
X103601000Y-41166184D01*
X103601000Y-41333816D01*
X103568297Y-41498228D01*
X103504147Y-41653100D01*
X103411015Y-41792481D01*
X103292481Y-41911015D01*
X103153100Y-42004147D01*
X102998228Y-42068297D01*
X102833816Y-42101000D01*
X102666184Y-42101000D01*
X102501772Y-42068297D01*
X102346900Y-42004147D01*
X102207519Y-41911015D01*
X102088985Y-41792481D01*
X101995853Y-41653100D01*
X101931703Y-41498228D01*
X101899000Y-41333816D01*
X101899000Y-41166184D01*
X101931703Y-41001772D01*
X101995853Y-40846900D01*
X102088985Y-40707519D01*
X102207519Y-40588985D01*
X102346900Y-40495853D01*
X102501772Y-40431703D01*
X102666184Y-40399000D01*
X102833816Y-40399000D01*
X102998228Y-40431703D01*
X102998228Y-40431703D01*
G37*
G36*
X131851000Y-41851000D02*
G01*
X130149000Y-41851000D01*
X130149000Y-40149000D01*
X131851000Y-40149000D01*
X131851000Y-41851000D01*
X131851000Y-41851000D01*
G37*
G36*
X133748228Y-40181703D02*
G01*
X133903100Y-40245853D01*
X134042481Y-40338985D01*
X134161015Y-40457519D01*
X134254147Y-40596900D01*
X134318297Y-40751772D01*
X134351000Y-40916184D01*
X134351000Y-41083816D01*
X134318297Y-41248228D01*
X134254147Y-41403100D01*
X134161015Y-41542481D01*
X134042481Y-41661015D01*
X133903100Y-41754147D01*
X133748228Y-41818297D01*
X133583816Y-41851000D01*
X133416184Y-41851000D01*
X133251772Y-41818297D01*
X133096900Y-41754147D01*
X132957519Y-41661015D01*
X132838985Y-41542481D01*
X132745853Y-41403100D01*
X132681703Y-41248228D01*
X132649000Y-41083816D01*
X132649000Y-40916184D01*
X132681703Y-40751772D01*
X132745853Y-40596900D01*
X132838985Y-40457519D01*
X132957519Y-40338985D01*
X133096900Y-40245853D01*
X133251772Y-40181703D01*
X133416184Y-40149000D01*
X133583816Y-40149000D01*
X133748228Y-40181703D01*
X133748228Y-40181703D01*
G37*
G36*
X68690442Y-39745518D02*
G01*
X68756627Y-39752037D01*
X68926466Y-39803557D01*
X69082991Y-39887222D01*
X69118729Y-39916552D01*
X69220186Y-39999814D01*
X69303448Y-40101271D01*
X69332778Y-40137009D01*
X69416443Y-40293534D01*
X69467963Y-40463373D01*
X69485359Y-40640000D01*
X69467963Y-40816627D01*
X69416443Y-40986466D01*
X69332778Y-41142991D01*
X69313744Y-41166184D01*
X69220186Y-41280186D01*
X69118729Y-41363448D01*
X69082991Y-41392778D01*
X68926466Y-41476443D01*
X68756627Y-41527963D01*
X68690442Y-41534482D01*
X68624260Y-41541000D01*
X68535740Y-41541000D01*
X68469558Y-41534482D01*
X68403373Y-41527963D01*
X68233534Y-41476443D01*
X68077009Y-41392778D01*
X68041271Y-41363448D01*
X67939814Y-41280186D01*
X67846256Y-41166184D01*
X67827222Y-41142991D01*
X67743557Y-40986466D01*
X67692037Y-40816627D01*
X67674641Y-40640000D01*
X67692037Y-40463373D01*
X67743557Y-40293534D01*
X67827222Y-40137009D01*
X67856552Y-40101271D01*
X67939814Y-39999814D01*
X68041271Y-39916552D01*
X68077009Y-39887222D01*
X68233534Y-39803557D01*
X68403373Y-39752037D01*
X68469558Y-39745518D01*
X68535740Y-39739000D01*
X68624260Y-39739000D01*
X68690442Y-39745518D01*
X68690442Y-39745518D01*
G37*
G36*
X66941000Y-41541000D02*
G01*
X65139000Y-41541000D01*
X65139000Y-39739000D01*
X66941000Y-39739000D01*
X66941000Y-41541000D01*
X66941000Y-41541000D01*
G37*
G36*
X103601000Y-39601000D02*
G01*
X101899000Y-39601000D01*
X101899000Y-37899000D01*
X103601000Y-37899000D01*
X103601000Y-39601000D01*
X103601000Y-39601000D01*
G37*
G36*
X81351000Y-38851000D02*
G01*
X79649000Y-38851000D01*
X79649000Y-37149000D01*
X81351000Y-37149000D01*
X81351000Y-38851000D01*
X81351000Y-38851000D01*
G37*
G36*
X143402585Y-35718802D02*
G01*
X143552410Y-35748604D01*
X143834674Y-35865521D01*
X144088705Y-36035259D01*
X144304741Y-36251295D01*
X144474479Y-36505326D01*
X144591396Y-36787590D01*
X144651000Y-37087240D01*
X144651000Y-37392760D01*
X144591396Y-37692410D01*
X144474479Y-37974674D01*
X144304741Y-38228705D01*
X144088705Y-38444741D01*
X143834674Y-38614479D01*
X143552410Y-38731396D01*
X143402585Y-38761198D01*
X143252761Y-38791000D01*
X142947239Y-38791000D01*
X142797415Y-38761198D01*
X142647590Y-38731396D01*
X142365326Y-38614479D01*
X142111295Y-38444741D01*
X141895259Y-38228705D01*
X141725521Y-37974674D01*
X141608604Y-37692410D01*
X141549000Y-37392760D01*
X141549000Y-37087240D01*
X141608604Y-36787590D01*
X141725521Y-36505326D01*
X141895259Y-36251295D01*
X142111295Y-36035259D01*
X142365326Y-35865521D01*
X142647590Y-35748604D01*
X142797415Y-35718802D01*
X142947239Y-35689000D01*
X143252761Y-35689000D01*
X143402585Y-35718802D01*
X143402585Y-35718802D01*
G37*
G36*
X73126366Y-32915695D02*
G01*
X73283460Y-32963349D01*
X73428231Y-33040731D01*
X73555128Y-33144872D01*
X73659269Y-33271769D01*
X73736651Y-33416540D01*
X73784305Y-33573634D01*
X73801000Y-33743140D01*
X73801000Y-35656860D01*
X73784305Y-35826366D01*
X73736651Y-35983460D01*
X73659269Y-36128231D01*
X73555128Y-36255128D01*
X73428231Y-36359269D01*
X73283460Y-36436651D01*
X73126366Y-36484305D01*
X72956860Y-36501000D01*
X71043140Y-36501000D01*
X70873634Y-36484305D01*
X70716540Y-36436651D01*
X70571769Y-36359269D01*
X70444872Y-36255128D01*
X70340731Y-36128231D01*
X70263349Y-35983460D01*
X70215695Y-35826366D01*
X70199000Y-35656860D01*
X70199000Y-33743140D01*
X70215695Y-33573634D01*
X70263349Y-33416540D01*
X70340731Y-33271769D01*
X70444872Y-33144872D01*
X70571769Y-33040731D01*
X70716540Y-32963349D01*
X70873634Y-32915695D01*
X71043140Y-32899000D01*
X72956860Y-32899000D01*
X73126366Y-32915695D01*
X73126366Y-32915695D01*
G37*
G36*
X80748228Y-34681703D02*
G01*
X80903100Y-34745853D01*
X81042481Y-34838985D01*
X81161015Y-34957519D01*
X81254147Y-35096900D01*
X81318297Y-35251772D01*
X81351000Y-35416184D01*
X81351000Y-35583816D01*
X81318297Y-35748228D01*
X81254147Y-35903100D01*
X81161015Y-36042481D01*
X81042481Y-36161015D01*
X80903100Y-36254147D01*
X80748228Y-36318297D01*
X80583816Y-36351000D01*
X80416184Y-36351000D01*
X80251772Y-36318297D01*
X80096900Y-36254147D01*
X79957519Y-36161015D01*
X79838985Y-36042481D01*
X79745853Y-35903100D01*
X79681703Y-35748228D01*
X79649000Y-35583816D01*
X79649000Y-35416184D01*
X79681703Y-35251772D01*
X79745853Y-35096900D01*
X79838985Y-34957519D01*
X79957519Y-34838985D01*
X80096900Y-34745853D01*
X80251772Y-34681703D01*
X80416184Y-34649000D01*
X80583816Y-34649000D01*
X80748228Y-34681703D01*
X80748228Y-34681703D01*
G37*
G36*
X98351000Y-35601000D02*
G01*
X96649000Y-35601000D01*
X96649000Y-33899000D01*
X98351000Y-33899000D01*
X98351000Y-35601000D01*
X98351000Y-35601000D01*
G37*
G36*
X95248228Y-33931703D02*
G01*
X95403100Y-33995853D01*
X95542481Y-34088985D01*
X95661015Y-34207519D01*
X95754147Y-34346900D01*
X95818297Y-34501772D01*
X95851000Y-34666184D01*
X95851000Y-34833816D01*
X95818297Y-34998228D01*
X95754147Y-35153100D01*
X95661015Y-35292481D01*
X95542481Y-35411015D01*
X95403100Y-35504147D01*
X95248228Y-35568297D01*
X95083816Y-35601000D01*
X94916184Y-35601000D01*
X94751772Y-35568297D01*
X94596900Y-35504147D01*
X94457519Y-35411015D01*
X94338985Y-35292481D01*
X94245853Y-35153100D01*
X94181703Y-34998228D01*
X94149000Y-34833816D01*
X94149000Y-34666184D01*
X94181703Y-34501772D01*
X94245853Y-34346900D01*
X94338985Y-34207519D01*
X94457519Y-34088985D01*
X94596900Y-33995853D01*
X94751772Y-33931703D01*
X94916184Y-33899000D01*
X95083816Y-33899000D01*
X95248228Y-33931703D01*
X95248228Y-33931703D01*
G37*
G36*
X117900443Y-33685519D02*
G01*
X117966627Y-33692037D01*
X118136466Y-33743557D01*
X118292991Y-33827222D01*
X118321964Y-33851000D01*
X118430186Y-33939814D01*
X118476175Y-33995853D01*
X118542778Y-34077009D01*
X118626443Y-34233534D01*
X118677963Y-34403373D01*
X118695359Y-34580000D01*
X118677963Y-34756627D01*
X118626443Y-34926466D01*
X118542778Y-35082991D01*
X118513448Y-35118729D01*
X118430186Y-35220186D01*
X118342094Y-35292480D01*
X118292991Y-35332778D01*
X118136466Y-35416443D01*
X117966627Y-35467963D01*
X117900442Y-35474482D01*
X117834260Y-35481000D01*
X117745740Y-35481000D01*
X117679558Y-35474482D01*
X117613373Y-35467963D01*
X117443534Y-35416443D01*
X117287009Y-35332778D01*
X117237906Y-35292480D01*
X117149814Y-35220186D01*
X117066552Y-35118729D01*
X117037222Y-35082991D01*
X116953557Y-34926466D01*
X116902037Y-34756627D01*
X116884641Y-34580000D01*
X116902037Y-34403373D01*
X116953557Y-34233534D01*
X117037222Y-34077009D01*
X117103825Y-33995853D01*
X117149814Y-33939814D01*
X117258036Y-33851000D01*
X117287009Y-33827222D01*
X117443534Y-33743557D01*
X117613373Y-33692037D01*
X117679557Y-33685519D01*
X117745740Y-33679000D01*
X117834260Y-33679000D01*
X117900443Y-33685519D01*
X117900443Y-33685519D01*
G37*
G36*
X115360443Y-33685519D02*
G01*
X115426627Y-33692037D01*
X115596466Y-33743557D01*
X115752991Y-33827222D01*
X115781964Y-33851000D01*
X115890186Y-33939814D01*
X115936175Y-33995853D01*
X116002778Y-34077009D01*
X116086443Y-34233534D01*
X116137963Y-34403373D01*
X116155359Y-34580000D01*
X116137963Y-34756627D01*
X116086443Y-34926466D01*
X116002778Y-35082991D01*
X115973448Y-35118729D01*
X115890186Y-35220186D01*
X115802094Y-35292480D01*
X115752991Y-35332778D01*
X115596466Y-35416443D01*
X115426627Y-35467963D01*
X115360442Y-35474482D01*
X115294260Y-35481000D01*
X115205740Y-35481000D01*
X115139558Y-35474482D01*
X115073373Y-35467963D01*
X114903534Y-35416443D01*
X114747009Y-35332778D01*
X114697906Y-35292480D01*
X114609814Y-35220186D01*
X114526552Y-35118729D01*
X114497222Y-35082991D01*
X114413557Y-34926466D01*
X114362037Y-34756627D01*
X114344641Y-34580000D01*
X114362037Y-34403373D01*
X114413557Y-34233534D01*
X114497222Y-34077009D01*
X114563825Y-33995853D01*
X114609814Y-33939814D01*
X114718036Y-33851000D01*
X114747009Y-33827222D01*
X114903534Y-33743557D01*
X115073373Y-33692037D01*
X115139557Y-33685519D01*
X115205740Y-33679000D01*
X115294260Y-33679000D01*
X115360443Y-33685519D01*
X115360443Y-33685519D01*
G37*
G36*
X133851000Y-33851000D02*
G01*
X132149000Y-33851000D01*
X132149000Y-32149000D01*
X133851000Y-32149000D01*
X133851000Y-33851000D01*
X133851000Y-33851000D01*
G37*
G36*
X130748228Y-32181703D02*
G01*
X130903100Y-32245853D01*
X131042481Y-32338985D01*
X131161015Y-32457519D01*
X131254147Y-32596900D01*
X131318297Y-32751772D01*
X131351000Y-32916184D01*
X131351000Y-33083816D01*
X131318297Y-33248228D01*
X131254147Y-33403100D01*
X131161015Y-33542481D01*
X131042481Y-33661015D01*
X130903100Y-33754147D01*
X130748228Y-33818297D01*
X130583816Y-33851000D01*
X130416184Y-33851000D01*
X130251772Y-33818297D01*
X130096900Y-33754147D01*
X129957519Y-33661015D01*
X129838985Y-33542481D01*
X129745853Y-33403100D01*
X129681703Y-33248228D01*
X129649000Y-33083816D01*
X129649000Y-32916184D01*
X129681703Y-32751772D01*
X129745853Y-32596900D01*
X129838985Y-32457519D01*
X129957519Y-32338985D01*
X130096900Y-32245853D01*
X130251772Y-32181703D01*
X130416184Y-32149000D01*
X130583816Y-32149000D01*
X130748228Y-32181703D01*
X130748228Y-32181703D01*
G37*
G36*
X143402585Y-30638802D02*
G01*
X143552410Y-30668604D01*
X143834674Y-30785521D01*
X144088705Y-30955259D01*
X144304741Y-31171295D01*
X144474479Y-31425326D01*
X144591396Y-31707590D01*
X144651000Y-32007240D01*
X144651000Y-32312760D01*
X144591396Y-32612410D01*
X144474479Y-32894674D01*
X144304741Y-33148705D01*
X144088705Y-33364741D01*
X143834674Y-33534479D01*
X143552410Y-33651396D01*
X143413635Y-33679000D01*
X143252761Y-33711000D01*
X142947239Y-33711000D01*
X142786365Y-33679000D01*
X142647590Y-33651396D01*
X142365326Y-33534479D01*
X142111295Y-33364741D01*
X141895259Y-33148705D01*
X141725521Y-32894674D01*
X141608604Y-32612410D01*
X141549000Y-32312760D01*
X141549000Y-32007240D01*
X141608604Y-31707590D01*
X141725521Y-31425326D01*
X141895259Y-31171295D01*
X142111295Y-30955259D01*
X142365326Y-30785521D01*
X142647590Y-30668604D01*
X142797415Y-30638802D01*
X142947239Y-30609000D01*
X143252761Y-30609000D01*
X143402585Y-30638802D01*
X143402585Y-30638802D01*
G37*
G36*
X115360442Y-31145518D02*
G01*
X115426627Y-31152037D01*
X115596466Y-31203557D01*
X115752991Y-31287222D01*
X115788729Y-31316552D01*
X115890186Y-31399814D01*
X115959097Y-31483784D01*
X116002778Y-31537009D01*
X116002779Y-31537011D01*
X116079389Y-31680336D01*
X116086443Y-31693534D01*
X116137963Y-31863373D01*
X116155359Y-32040000D01*
X116137963Y-32216627D01*
X116086443Y-32386466D01*
X116002778Y-32542991D01*
X115973448Y-32578729D01*
X115890186Y-32680186D01*
X115802958Y-32751771D01*
X115752991Y-32792778D01*
X115596466Y-32876443D01*
X115426627Y-32927963D01*
X115360443Y-32934481D01*
X115294260Y-32941000D01*
X115205740Y-32941000D01*
X115139557Y-32934481D01*
X115073373Y-32927963D01*
X114903534Y-32876443D01*
X114747009Y-32792778D01*
X114697042Y-32751771D01*
X114609814Y-32680186D01*
X114526552Y-32578729D01*
X114497222Y-32542991D01*
X114413557Y-32386466D01*
X114362037Y-32216627D01*
X114344641Y-32040000D01*
X114362037Y-31863373D01*
X114413557Y-31693534D01*
X114420612Y-31680336D01*
X114497221Y-31537011D01*
X114497222Y-31537009D01*
X114540903Y-31483784D01*
X114609814Y-31399814D01*
X114711271Y-31316552D01*
X114747009Y-31287222D01*
X114903534Y-31203557D01*
X115073373Y-31152037D01*
X115139558Y-31145518D01*
X115205740Y-31139000D01*
X115294260Y-31139000D01*
X115360442Y-31145518D01*
X115360442Y-31145518D01*
G37*
G36*
X117900442Y-31145518D02*
G01*
X117966627Y-31152037D01*
X118136466Y-31203557D01*
X118292991Y-31287222D01*
X118328729Y-31316552D01*
X118430186Y-31399814D01*
X118499097Y-31483784D01*
X118542778Y-31537009D01*
X118542779Y-31537011D01*
X118619389Y-31680336D01*
X118626443Y-31693534D01*
X118677963Y-31863373D01*
X118695359Y-32040000D01*
X118677963Y-32216627D01*
X118626443Y-32386466D01*
X118542778Y-32542991D01*
X118513448Y-32578729D01*
X118430186Y-32680186D01*
X118342958Y-32751771D01*
X118292991Y-32792778D01*
X118136466Y-32876443D01*
X117966627Y-32927963D01*
X117900443Y-32934481D01*
X117834260Y-32941000D01*
X117745740Y-32941000D01*
X117679557Y-32934481D01*
X117613373Y-32927963D01*
X117443534Y-32876443D01*
X117287009Y-32792778D01*
X117237042Y-32751771D01*
X117149814Y-32680186D01*
X117066552Y-32578729D01*
X117037222Y-32542991D01*
X116953557Y-32386466D01*
X116902037Y-32216627D01*
X116884641Y-32040000D01*
X116902037Y-31863373D01*
X116953557Y-31693534D01*
X116960612Y-31680336D01*
X117037221Y-31537011D01*
X117037222Y-31537009D01*
X117080903Y-31483784D01*
X117149814Y-31399814D01*
X117251271Y-31316552D01*
X117287009Y-31287222D01*
X117443534Y-31203557D01*
X117613373Y-31152037D01*
X117679558Y-31145518D01*
X117745740Y-31139000D01*
X117834260Y-31139000D01*
X117900442Y-31145518D01*
X117900442Y-31145518D01*
G37*
G36*
X69976979Y-28213293D02*
G01*
X70110625Y-28253834D01*
X70233784Y-28319664D01*
X70341740Y-28408260D01*
X70430336Y-28516216D01*
X70496166Y-28639375D01*
X70536707Y-28773021D01*
X70551000Y-28918140D01*
X70551000Y-31081860D01*
X70536707Y-31226979D01*
X70496166Y-31360625D01*
X70430336Y-31483784D01*
X70341740Y-31591740D01*
X70233784Y-31680336D01*
X70110625Y-31746166D01*
X69976979Y-31786707D01*
X69831860Y-31801000D01*
X68168140Y-31801000D01*
X68023021Y-31786707D01*
X67889375Y-31746166D01*
X67766216Y-31680336D01*
X67658260Y-31591740D01*
X67569664Y-31483784D01*
X67503834Y-31360625D01*
X67463293Y-31226979D01*
X67449000Y-31081860D01*
X67449000Y-28918140D01*
X67463293Y-28773021D01*
X67503834Y-28639375D01*
X67569664Y-28516216D01*
X67658260Y-28408260D01*
X67766216Y-28319664D01*
X67889375Y-28253834D01*
X68023021Y-28213293D01*
X68168140Y-28199000D01*
X69831860Y-28199000D01*
X69976979Y-28213293D01*
X69976979Y-28213293D01*
G37*
G36*
X76801000Y-31801000D02*
G01*
X73199000Y-31801000D01*
X73199000Y-28199000D01*
X76801000Y-28199000D01*
X76801000Y-31801000D01*
X76801000Y-31801000D01*
G37*
G36*
X117900443Y-28605519D02*
G01*
X117966627Y-28612037D01*
X118136466Y-28663557D01*
X118292991Y-28747222D01*
X118324427Y-28773021D01*
X118430186Y-28859814D01*
X118513448Y-28961271D01*
X118542778Y-28997009D01*
X118626443Y-29153534D01*
X118677963Y-29323373D01*
X118695359Y-29500000D01*
X118677963Y-29676627D01*
X118626443Y-29846466D01*
X118542778Y-30002991D01*
X118513448Y-30038729D01*
X118430186Y-30140186D01*
X118328729Y-30223448D01*
X118292991Y-30252778D01*
X118136466Y-30336443D01*
X117966627Y-30387963D01*
X117900442Y-30394482D01*
X117834260Y-30401000D01*
X117745740Y-30401000D01*
X117679558Y-30394482D01*
X117613373Y-30387963D01*
X117443534Y-30336443D01*
X117287009Y-30252778D01*
X117251271Y-30223448D01*
X117149814Y-30140186D01*
X117066552Y-30038729D01*
X117037222Y-30002991D01*
X116953557Y-29846466D01*
X116902037Y-29676627D01*
X116884641Y-29500000D01*
X116902037Y-29323373D01*
X116953557Y-29153534D01*
X117037222Y-28997009D01*
X117066552Y-28961271D01*
X117149814Y-28859814D01*
X117255573Y-28773021D01*
X117287009Y-28747222D01*
X117443534Y-28663557D01*
X117613373Y-28612037D01*
X117679557Y-28605519D01*
X117745740Y-28599000D01*
X117834260Y-28599000D01*
X117900443Y-28605519D01*
X117900443Y-28605519D01*
G37*
G36*
X116151000Y-30401000D02*
G01*
X114349000Y-30401000D01*
X114349000Y-28599000D01*
X116151000Y-28599000D01*
X116151000Y-30401000D01*
X116151000Y-30401000D01*
G37*
G36*
X143402585Y-25558802D02*
G01*
X143552410Y-25588604D01*
X143834674Y-25705521D01*
X144088705Y-25875259D01*
X144304741Y-26091295D01*
X144474479Y-26345326D01*
X144591396Y-26627590D01*
X144651000Y-26927240D01*
X144651000Y-27232760D01*
X144591396Y-27532410D01*
X144474479Y-27814674D01*
X144304741Y-28068705D01*
X144088705Y-28284741D01*
X143834674Y-28454479D01*
X143552410Y-28571396D01*
X143413635Y-28599000D01*
X143252761Y-28631000D01*
X142947239Y-28631000D01*
X142786365Y-28599000D01*
X142647590Y-28571396D01*
X142365326Y-28454479D01*
X142111295Y-28284741D01*
X141895259Y-28068705D01*
X141725521Y-27814674D01*
X141608604Y-27532410D01*
X141549000Y-27232760D01*
X141549000Y-26927240D01*
X141608604Y-26627590D01*
X141725521Y-26345326D01*
X141895259Y-26091295D01*
X142111295Y-25875259D01*
X142365326Y-25705521D01*
X142647590Y-25588604D01*
X142797415Y-25558802D01*
X142947239Y-25529000D01*
X143252761Y-25529000D01*
X143402585Y-25558802D01*
X143402585Y-25558802D01*
G37*
G36*
X133851000Y-27851000D02*
G01*
X132149000Y-27851000D01*
X132149000Y-26149000D01*
X133851000Y-26149000D01*
X133851000Y-27851000D01*
X133851000Y-27851000D01*
G37*
G36*
X130748228Y-26181703D02*
G01*
X130903100Y-26245853D01*
X131042481Y-26338985D01*
X131161015Y-26457519D01*
X131254147Y-26596900D01*
X131318297Y-26751772D01*
X131351000Y-26916184D01*
X131351000Y-27083816D01*
X131318297Y-27248228D01*
X131254147Y-27403100D01*
X131161015Y-27542481D01*
X131042481Y-27661015D01*
X130903100Y-27754147D01*
X130748228Y-27818297D01*
X130583816Y-27851000D01*
X130416184Y-27851000D01*
X130251772Y-27818297D01*
X130096900Y-27754147D01*
X129957519Y-27661015D01*
X129838985Y-27542481D01*
X129745853Y-27403100D01*
X129681703Y-27248228D01*
X129649000Y-27083816D01*
X129649000Y-26916184D01*
X129681703Y-26751772D01*
X129745853Y-26596900D01*
X129838985Y-26457519D01*
X129957519Y-26338985D01*
X130096900Y-26245853D01*
X130251772Y-26181703D01*
X130416184Y-26149000D01*
X130583816Y-26149000D01*
X130748228Y-26181703D01*
X130748228Y-26181703D01*
G37*
G36*
X90851000Y-26851000D02*
G01*
X89149000Y-26851000D01*
X89149000Y-25149000D01*
X90851000Y-25149000D01*
X90851000Y-26851000D01*
X90851000Y-26851000D01*
G37*
G36*
X92748228Y-25181703D02*
G01*
X92903100Y-25245853D01*
X93042481Y-25338985D01*
X93161015Y-25457519D01*
X93254147Y-25596900D01*
X93318297Y-25751772D01*
X93351000Y-25916184D01*
X93351000Y-26083816D01*
X93318297Y-26248228D01*
X93254147Y-26403100D01*
X93161015Y-26542481D01*
X93042481Y-26661015D01*
X92903100Y-26754147D01*
X92748228Y-26818297D01*
X92583816Y-26851000D01*
X92416184Y-26851000D01*
X92251772Y-26818297D01*
X92096900Y-26754147D01*
X91957519Y-26661015D01*
X91838985Y-26542481D01*
X91745853Y-26403100D01*
X91681703Y-26248228D01*
X91649000Y-26083816D01*
X91649000Y-25916184D01*
X91681703Y-25751772D01*
X91745853Y-25596900D01*
X91838985Y-25457519D01*
X91957519Y-25338985D01*
X92096900Y-25245853D01*
X92251772Y-25181703D01*
X92416184Y-25149000D01*
X92583816Y-25149000D01*
X92748228Y-25181703D01*
X92748228Y-25181703D01*
G37*
G36*
X117900442Y-23685518D02*
G01*
X117966627Y-23692037D01*
X118136466Y-23743557D01*
X118292991Y-23827222D01*
X118328729Y-23856552D01*
X118430186Y-23939814D01*
X118513448Y-24041271D01*
X118542778Y-24077009D01*
X118626443Y-24233534D01*
X118677963Y-24403373D01*
X118695359Y-24580000D01*
X118677963Y-24756627D01*
X118626443Y-24926466D01*
X118542778Y-25082991D01*
X118513448Y-25118729D01*
X118430186Y-25220186D01*
X118328729Y-25303448D01*
X118292991Y-25332778D01*
X118136466Y-25416443D01*
X117966627Y-25467963D01*
X117900442Y-25474482D01*
X117834260Y-25481000D01*
X117745740Y-25481000D01*
X117679558Y-25474482D01*
X117613373Y-25467963D01*
X117443534Y-25416443D01*
X117287009Y-25332778D01*
X117251271Y-25303448D01*
X117149814Y-25220186D01*
X117066552Y-25118729D01*
X117037222Y-25082991D01*
X116953557Y-24926466D01*
X116902037Y-24756627D01*
X116884641Y-24580000D01*
X116902037Y-24403373D01*
X116953557Y-24233534D01*
X117037222Y-24077009D01*
X117066552Y-24041271D01*
X117149814Y-23939814D01*
X117251271Y-23856552D01*
X117287009Y-23827222D01*
X117443534Y-23743557D01*
X117613373Y-23692037D01*
X117679558Y-23685518D01*
X117745740Y-23679000D01*
X117834260Y-23679000D01*
X117900442Y-23685518D01*
X117900442Y-23685518D01*
G37*
G36*
X115360442Y-23685518D02*
G01*
X115426627Y-23692037D01*
X115596466Y-23743557D01*
X115752991Y-23827222D01*
X115788729Y-23856552D01*
X115890186Y-23939814D01*
X115973448Y-24041271D01*
X116002778Y-24077009D01*
X116086443Y-24233534D01*
X116137963Y-24403373D01*
X116155359Y-24580000D01*
X116137963Y-24756627D01*
X116086443Y-24926466D01*
X116002778Y-25082991D01*
X115973448Y-25118729D01*
X115890186Y-25220186D01*
X115788729Y-25303448D01*
X115752991Y-25332778D01*
X115596466Y-25416443D01*
X115426627Y-25467963D01*
X115360442Y-25474482D01*
X115294260Y-25481000D01*
X115205740Y-25481000D01*
X115139558Y-25474482D01*
X115073373Y-25467963D01*
X114903534Y-25416443D01*
X114747009Y-25332778D01*
X114711271Y-25303448D01*
X114609814Y-25220186D01*
X114526552Y-25118729D01*
X114497222Y-25082991D01*
X114413557Y-24926466D01*
X114362037Y-24756627D01*
X114344641Y-24580000D01*
X114362037Y-24403373D01*
X114413557Y-24233534D01*
X114497222Y-24077009D01*
X114526552Y-24041271D01*
X114609814Y-23939814D01*
X114711271Y-23856552D01*
X114747009Y-23827222D01*
X114903534Y-23743557D01*
X115073373Y-23692037D01*
X115139558Y-23685518D01*
X115205740Y-23679000D01*
X115294260Y-23679000D01*
X115360442Y-23685518D01*
X115360442Y-23685518D01*
G37*
G36*
X144076979Y-20463293D02*
G01*
X144210625Y-20503834D01*
X144333784Y-20569664D01*
X144441740Y-20658260D01*
X144530336Y-20766216D01*
X144596166Y-20889375D01*
X144636707Y-21023021D01*
X144651000Y-21168140D01*
X144651000Y-22831860D01*
X144636707Y-22976979D01*
X144596166Y-23110625D01*
X144530336Y-23233784D01*
X144441740Y-23341740D01*
X144333784Y-23430336D01*
X144210625Y-23496166D01*
X144076979Y-23536707D01*
X143931860Y-23551000D01*
X142268140Y-23551000D01*
X142123021Y-23536707D01*
X141989375Y-23496166D01*
X141866216Y-23430336D01*
X141758260Y-23341740D01*
X141669664Y-23233784D01*
X141603834Y-23110625D01*
X141563293Y-22976979D01*
X141549000Y-22831860D01*
X141549000Y-21168140D01*
X141563293Y-21023021D01*
X141603834Y-20889375D01*
X141669664Y-20766216D01*
X141758260Y-20658260D01*
X141866216Y-20569664D01*
X141989375Y-20503834D01*
X142123021Y-20463293D01*
X142268140Y-20449000D01*
X143931860Y-20449000D01*
X144076979Y-20463293D01*
X144076979Y-20463293D01*
G37*
G36*
X138049943Y-17386248D02*
G01*
X138605189Y-17616238D01*
X138853347Y-17782052D01*
X139104899Y-17950134D01*
X139529866Y-18375101D01*
X139529867Y-18375103D01*
X139863762Y-18874811D01*
X140093752Y-19430057D01*
X140211000Y-20019501D01*
X140211000Y-20620499D01*
X140093752Y-21209943D01*
X139863762Y-21765189D01*
X139863761Y-21765190D01*
X139529866Y-22264899D01*
X139104899Y-22689866D01*
X138950880Y-22792778D01*
X138605189Y-23023762D01*
X138049943Y-23253752D01*
X137460499Y-23371000D01*
X136859501Y-23371000D01*
X136270057Y-23253752D01*
X135714811Y-23023762D01*
X135369120Y-22792778D01*
X135215101Y-22689866D01*
X134790134Y-22264899D01*
X134456239Y-21765190D01*
X134456238Y-21765189D01*
X134226248Y-21209943D01*
X134109000Y-20620499D01*
X134109000Y-20019501D01*
X134226248Y-19430057D01*
X134456238Y-18874811D01*
X134790133Y-18375103D01*
X134790134Y-18375101D01*
X135215101Y-17950134D01*
X135466653Y-17782052D01*
X135714811Y-17616238D01*
X136270057Y-17386248D01*
X136859501Y-17269000D01*
X137460499Y-17269000D01*
X138049943Y-17386248D01*
X138049943Y-17386248D01*
G37*
G36*
X67889943Y-17066248D02*
G01*
X68445189Y-17296238D01*
X68693347Y-17462052D01*
X68944899Y-17630134D01*
X69369866Y-18055101D01*
X69369867Y-18055103D01*
X69703762Y-18554811D01*
X69933752Y-19110057D01*
X70051000Y-19699501D01*
X70051000Y-20300499D01*
X69933752Y-20889943D01*
X69703762Y-21445189D01*
X69642408Y-21537011D01*
X69369866Y-21944899D01*
X68944899Y-22369866D01*
X68693347Y-22537948D01*
X68445189Y-22703762D01*
X67889943Y-22933752D01*
X67300499Y-23051000D01*
X66699501Y-23051000D01*
X66110057Y-22933752D01*
X65554811Y-22703762D01*
X65306653Y-22537948D01*
X65055101Y-22369866D01*
X64630134Y-21944899D01*
X64357592Y-21537011D01*
X64296238Y-21445189D01*
X64066248Y-20889943D01*
X63949000Y-20300499D01*
X63949000Y-19699501D01*
X64066248Y-19110057D01*
X64296238Y-18554811D01*
X64630133Y-18055103D01*
X64630134Y-18055101D01*
X65055101Y-17630134D01*
X65306653Y-17462052D01*
X65554811Y-17296238D01*
X66110057Y-17066248D01*
X66699501Y-16949000D01*
X67300499Y-16949000D01*
X67889943Y-17066248D01*
X67889943Y-17066248D01*
G37*
G36*
X117900442Y-21145518D02*
G01*
X117966627Y-21152037D01*
X118136466Y-21203557D01*
X118292991Y-21287222D01*
X118328729Y-21316552D01*
X118430186Y-21399814D01*
X118477543Y-21457520D01*
X118542778Y-21537009D01*
X118626443Y-21693534D01*
X118677963Y-21863373D01*
X118695359Y-22040000D01*
X118677963Y-22216627D01*
X118631478Y-22369867D01*
X118626442Y-22386468D01*
X118617552Y-22403100D01*
X118542778Y-22542991D01*
X118513448Y-22578729D01*
X118430186Y-22680186D01*
X118328729Y-22763448D01*
X118292991Y-22792778D01*
X118136466Y-22876443D01*
X117966627Y-22927963D01*
X117907849Y-22933752D01*
X117834260Y-22941000D01*
X117745740Y-22941000D01*
X117672151Y-22933752D01*
X117613373Y-22927963D01*
X117443534Y-22876443D01*
X117287009Y-22792778D01*
X117251271Y-22763448D01*
X117149814Y-22680186D01*
X117066552Y-22578729D01*
X117037222Y-22542991D01*
X116962448Y-22403100D01*
X116953558Y-22386468D01*
X116948522Y-22369867D01*
X116902037Y-22216627D01*
X116884641Y-22040000D01*
X116902037Y-21863373D01*
X116953557Y-21693534D01*
X117037222Y-21537009D01*
X117102457Y-21457520D01*
X117149814Y-21399814D01*
X117251271Y-21316552D01*
X117287009Y-21287222D01*
X117443534Y-21203557D01*
X117613373Y-21152037D01*
X117679557Y-21145519D01*
X117745740Y-21139000D01*
X117834260Y-21139000D01*
X117900442Y-21145518D01*
X117900442Y-21145518D01*
G37*
G36*
X115360442Y-21145518D02*
G01*
X115426627Y-21152037D01*
X115596466Y-21203557D01*
X115752991Y-21287222D01*
X115788729Y-21316552D01*
X115890186Y-21399814D01*
X115937543Y-21457520D01*
X116002778Y-21537009D01*
X116086443Y-21693534D01*
X116137963Y-21863373D01*
X116155359Y-22040000D01*
X116137963Y-22216627D01*
X116091478Y-22369867D01*
X116086442Y-22386468D01*
X116077552Y-22403100D01*
X116002778Y-22542991D01*
X115973448Y-22578729D01*
X115890186Y-22680186D01*
X115788729Y-22763448D01*
X115752991Y-22792778D01*
X115596466Y-22876443D01*
X115426627Y-22927963D01*
X115367849Y-22933752D01*
X115294260Y-22941000D01*
X115205740Y-22941000D01*
X115132151Y-22933752D01*
X115073373Y-22927963D01*
X114903534Y-22876443D01*
X114747009Y-22792778D01*
X114711271Y-22763448D01*
X114609814Y-22680186D01*
X114526552Y-22578729D01*
X114497222Y-22542991D01*
X114422448Y-22403100D01*
X114413558Y-22386468D01*
X114408522Y-22369867D01*
X114362037Y-22216627D01*
X114344641Y-22040000D01*
X114362037Y-21863373D01*
X114413557Y-21693534D01*
X114497222Y-21537009D01*
X114562457Y-21457520D01*
X114609814Y-21399814D01*
X114711271Y-21316552D01*
X114747009Y-21287222D01*
X114903534Y-21203557D01*
X115073373Y-21152037D01*
X115139557Y-21145519D01*
X115205740Y-21139000D01*
X115294260Y-21139000D01*
X115360442Y-21145518D01*
X115360442Y-21145518D01*
G37*
G36*
X74851000Y-22851000D02*
G01*
X73149000Y-22851000D01*
X73149000Y-21149000D01*
X74851000Y-21149000D01*
X74851000Y-22851000D01*
X74851000Y-22851000D01*
G37*
G36*
X76748228Y-21181703D02*
G01*
X76903100Y-21245853D01*
X77042481Y-21338985D01*
X77161015Y-21457519D01*
X77254147Y-21596900D01*
X77318297Y-21751772D01*
X77351000Y-21916184D01*
X77351000Y-22083816D01*
X77318297Y-22248228D01*
X77254147Y-22403100D01*
X77161015Y-22542481D01*
X77042481Y-22661015D01*
X76903100Y-22754147D01*
X76748228Y-22818297D01*
X76583816Y-22851000D01*
X76416184Y-22851000D01*
X76251772Y-22818297D01*
X76096900Y-22754147D01*
X75957519Y-22661015D01*
X75838985Y-22542481D01*
X75745853Y-22403100D01*
X75681703Y-22248228D01*
X75649000Y-22083816D01*
X75649000Y-21916184D01*
X75681703Y-21751772D01*
X75745853Y-21596900D01*
X75838985Y-21457519D01*
X75957519Y-21338985D01*
X76096900Y-21245853D01*
X76251772Y-21181703D01*
X76416184Y-21149000D01*
X76583816Y-21149000D01*
X76748228Y-21181703D01*
X76748228Y-21181703D01*
G37*
G36*
X116151000Y-20401000D02*
G01*
X114349000Y-20401000D01*
X114349000Y-18599000D01*
X116151000Y-18599000D01*
X116151000Y-20401000D01*
X116151000Y-20401000D01*
G37*
G36*
X117900442Y-18605518D02*
G01*
X117966627Y-18612037D01*
X118136466Y-18663557D01*
X118292991Y-18747222D01*
X118328729Y-18776552D01*
X118430186Y-18859814D01*
X118513448Y-18961271D01*
X118542778Y-18997009D01*
X118626443Y-19153534D01*
X118677963Y-19323373D01*
X118695359Y-19500000D01*
X118677963Y-19676627D01*
X118626443Y-19846466D01*
X118542778Y-20002991D01*
X118529228Y-20019501D01*
X118430186Y-20140186D01*
X118328729Y-20223448D01*
X118292991Y-20252778D01*
X118136466Y-20336443D01*
X117966627Y-20387963D01*
X117900442Y-20394482D01*
X117834260Y-20401000D01*
X117745740Y-20401000D01*
X117679558Y-20394482D01*
X117613373Y-20387963D01*
X117443534Y-20336443D01*
X117287009Y-20252778D01*
X117251271Y-20223448D01*
X117149814Y-20140186D01*
X117050772Y-20019501D01*
X117037222Y-20002991D01*
X116953557Y-19846466D01*
X116902037Y-19676627D01*
X116884641Y-19500000D01*
X116902037Y-19323373D01*
X116953557Y-19153534D01*
X117037222Y-18997009D01*
X117066552Y-18961271D01*
X117149814Y-18859814D01*
X117251271Y-18776552D01*
X117287009Y-18747222D01*
X117443534Y-18663557D01*
X117613373Y-18612037D01*
X117679558Y-18605518D01*
X117745740Y-18599000D01*
X117834260Y-18599000D01*
X117900442Y-18605518D01*
X117900442Y-18605518D01*
G37*
M02*
