M48
; DRILL file {KiCad (5.1.2)-1} date 5/30/2019 3:48:10 AM
; FORMAT={-:-/ absolute / inch / decimal}
; #@! TF.CreationDate,2019-05-30T03:48:10-07:00
; #@! TF.GenerationSoftware,Kicad,Pcbnew,(5.1.2)-1
; #@! TF.FileFunction,Plated,1,2,PTH
FMAT,2
INCH
T1C0.0118
T2C0.0315
T3C0.0394
T4C0.0433
T5C0.0669
T6C0.1181
%
G90
G05
T1
X2.3622Y-3.3071
X2.4409Y-0.9449
X2.4409Y-1.1417
X2.4409Y-2.9134
X2.4409Y-3.1496
X2.4409Y-3.4252
X2.4803Y-1.5354
X2.4803Y-3.2677
X2.5197Y-0.9843
X2.5197Y-1.378
X2.5591Y-1.1024
X2.5787Y-1.2992
X2.5984Y-2.7559
X2.6378Y-0.9449
X2.7165Y-2.9134
X2.7165Y-3.2283
X2.7559Y-1.5354
X2.7657Y-2.2736
X2.8346Y-1.063
X2.8642Y-2.2638
X2.874Y-3.4252
X2.9134Y-2.4016
X2.9134Y-2.7165
X2.9134Y-2.7953
X2.9331Y-3.2283
X2.9528Y-2.4409
X3.0118Y-0.9843
X3.0315Y-2.3228
X3.0709Y-2.1654
X3.0709Y-2.5984
X3.0906Y-1.0039
X3.1017Y-1.241
X3.1018Y-1.9626
X3.1102Y-0.8661
X3.1329Y-2.2274
X3.1496Y-2.6378
X3.1496Y-2.7953
X3.1723Y-2.188
X3.189Y-1.1417
X3.189Y-1.2598
X3.189Y-1.6929
X3.189Y-1.7717
X3.189Y-1.9291
X3.189Y-2.126
X3.2016Y-1.958
X3.2283Y-2.1654
X3.2283Y-3.3268
X3.2598Y-2.1654
X3.2677Y-1.063
X3.2677Y-1.5354
X3.3071Y-1.1811
X3.3071Y-1.6929
X3.3071Y-2.2047
X3.3071Y-2.6772
X3.3191Y-1.2949
X3.3465Y-1.1417
X3.3503Y-1.2992
X3.3858Y-1.5354
X3.3858Y-2.9528
X3.3858Y-3.3071
X3.3858Y-3.4252
X3.4055Y-2.2638
X3.4055Y-2.815
X3.4252Y-1.1024
X3.4252Y-3.1496
X3.4331Y-2.4331
X3.4449Y-2.874
X3.4646Y-1.7717
X3.467Y-1.7008
X3.4764Y-1.8122
X3.5039Y-1.8437
X3.5236Y-3.189
X3.5403Y-1.0779
X3.5433Y-0.9055
X3.5433Y-1.2008
X3.5433Y-1.6929
X3.5433Y-2.6378
X3.5433Y-3.0709
X3.5833Y-1.811
X3.6213Y-1.493
X3.6387Y-1.6261
X3.6417Y-2.5394
X3.6549Y-1.7717
X3.6614Y-1.2598
X3.6614Y-1.8307
X3.6811Y-0.7874
X3.7402Y-3.1496
X3.7598Y-0.8268
X3.764Y-1.7175
X3.7795Y-2.2638
X3.7795Y-3.0315
X3.7802Y-1.6545
X3.7955Y-1.7175
X3.8125Y-1.691
X3.8386Y-2.7362
X3.8583Y-3.189
X3.878Y-2.6969
X3.8976Y-2.9921
X3.9272Y-1.4665
X3.9567Y-1.1614
X3.9567Y-2.2244
X3.9764Y-2.3031
X4.0354Y-0.748
X4.0945Y-1.063
X4.0945Y-2.1654
X4.0945Y-2.6772
X4.0945Y-3.2677
X4.1142Y-2.815
X4.1142Y-2.9724
X4.1339Y-3.4646
X4.1436Y-1.6827
X4.1535Y-1.7126
X4.1535Y-1.7618
X4.1634Y-1.8012
X4.1732Y-0.9055
X4.1732Y-1.4173
X4.1732Y-2.1654
X4.2126Y-0.7677
X4.2126Y-1.0236
X4.252Y-1.6535
X4.2894Y-2.2047
X4.2913Y-2.7953
X4.3307Y-1.4173
X4.3307Y-1.6535
X4.3504Y-3.4449
X4.3701Y-1.9291
X4.3701Y-2.3228
X4.3701Y-2.9134
X4.3898Y-3.2283
X4.4094Y-1.9291
X4.4094Y-2.2047
X4.4488Y-1.063
X4.4488Y-1.8898
X4.4488Y-2.9134
X4.4488Y-3.3465
X4.4882Y-2.0472
X4.4882Y-2.3228
X4.5276Y-2.0472
X4.5276Y-2.3228
X4.5276Y-2.5591
X4.5472Y-2.6772
X4.5472Y-3.1496
X4.5579Y-2.2026
X4.5591Y-1.7323
X4.5669Y-2.9134
X4.6063Y-1.9685
X4.6063Y-2.4409
X4.6063Y-2.874
X4.6063Y-3.4646
X4.626Y-1.063
X4.7244Y-3.0709
X4.7441Y-2.5984
X4.748Y-2.0157
X4.748Y-2.5197
X4.748Y-2.9921
X4.7638Y-1.5748
X4.7638Y-3.3858
X4.8031Y-0.9843
X4.8031Y-1.1811
X4.8031Y-1.378
X4.8425Y-0.8661
X4.8819Y-3.4646
X4.8917Y-0.7087
X4.9213Y-0.9843
X4.9606Y-1.2205
X4.9606Y-1.5748
X4.9606Y-2.126
X4.9606Y-2.5197
X4.9606Y-2.9921
X5.0Y-1.7913
X5.0Y-2.0472
X5.0394Y-0.8661
X5.0394Y-1.6142
X5.0394Y-2.126
X5.0394Y-2.5984
X5.0394Y-3.0315
X5.0394Y-3.3465
X5.0591Y-1.8701
X5.0591Y-2.3228
X5.0984Y-1.437
X5.1181Y-3.4449
X5.1378Y-1.4764
X5.1772Y-2.3819
X5.1969Y-2.874
X5.2953Y-2.2835
X5.2953Y-2.7559
X5.315Y-1.1811
X5.315Y-1.4173
X5.315Y-1.4961
X5.315Y-1.8504
X5.315Y-3.2283
X5.3346Y-2.4016
X5.3346Y-2.8937
X5.3543Y-2.4803
X5.3937Y-1.5748
X5.3937Y-2.0472
X5.4134Y-2.7953
X5.4331Y-2.9528
X5.4724Y-1.5748
X5.4724Y-1.9685
X5.5118Y-2.3228
X5.5118Y-2.7165
X5.5512Y-3.2283
X5.5906Y-3.2677
X5.6102Y-3.1496
X5.6693Y-3.4646
X5.7874Y-3.3465
T2
X3.7402Y-1.3681
X3.8386Y-1.3681
X5.1575Y-2.5197
X5.2559Y-2.5197
X3.5433Y-1.0236
X3.6417Y-1.0236
X5.1378Y-1.063
X5.2362Y-1.063
X4.0256Y-1.9685
X4.0256Y-2.0669
X5.1575Y-2.9921
X5.2559Y-2.9921
X3.937Y-2.4606
X3.937Y-2.5591
X4.0453Y-1.7421
X4.0453Y-1.8406
X4.8031Y-2.2835
X4.9016Y-2.2835
X5.1575Y-2.0472
X5.2559Y-2.0472
X4.2421Y-1.9685
X4.2421Y-2.0669
X4.8031Y-3.2283
X4.9016Y-3.2283
X4.0453Y-1.5256
X4.0453Y-1.624
X4.8031Y-2.7559
X4.9016Y-2.7559
X4.8031Y-1.811
X4.9016Y-1.811
X3.1693Y-1.3976
X3.1693Y-1.4961
X3.1102Y-1.6929
X3.1102Y-1.7913
X5.1378Y-1.2992
X5.2362Y-1.2992
X5.1575Y-1.6142
X5.2559Y-1.6142
X2.9134Y-0.8661
X3.0118Y-0.8661
T3
X4.5374Y-1.1614
X4.5374Y-1.2614
X4.5374Y-1.3614
X4.6374Y-1.1614
X4.6374Y-1.2614
X4.6374Y-1.3614
X3.3925Y-2.1654
X3.4925Y-2.1654
X3.5925Y-2.1654
X2.8Y-2.9
X2.8Y-3.0
X2.8Y-3.1
X2.9Y-2.9
X2.9Y-3.0
X2.9Y-3.1
X2.6Y-1.6
X2.6Y-1.7
X2.6Y-1.8
X2.6Y-1.9
X2.6Y-2.0
X2.6Y-2.1
X2.6Y-2.2
X2.6Y-2.3
X2.6Y-2.4
X2.6Y-2.5
X2.6Y-2.6
X2.7Y-1.6
X2.7Y-1.7
X2.7Y-1.8
X2.7Y-1.9
X2.7Y-2.0
X2.7Y-2.1
X2.7Y-2.2
X2.7Y-2.3
X2.7Y-2.4
X2.7Y-2.5
X2.7Y-2.6
X4.5374Y-0.7677
X4.5374Y-0.8677
X4.5374Y-0.9677
X4.6374Y-0.7677
X4.6374Y-0.8677
X4.6374Y-0.9677
X3.137Y-3.3858
X3.237Y-3.3858
X3.337Y-3.3858
X3.437Y-3.3858
X3.537Y-3.3858
X3.637Y-3.3858
X3.737Y-3.3858
X3.837Y-3.3858
X3.937Y-3.3858
X3.2Y-2.9
X3.2Y-3.0
X3.2Y-3.1
X3.3Y-2.9
X3.3Y-3.0
X3.3Y-3.1
T4
X4.0728Y-3.15
X4.0728Y-3.4059
X4.25Y-3.15
X4.25Y-3.4059
T5
X5.6339Y-0.8661
X5.6339Y-1.0661
X5.6339Y-1.2661
X5.6339Y-1.4661
X5.6339Y-1.6661
X5.6339Y-1.8661
X5.6339Y-2.0661
X5.6339Y-2.2661
X5.6339Y-2.4661
X5.6339Y-2.6661
X5.6339Y-2.8661
X5.6339Y-3.0661
T6
X2.6378Y-0.7874
X5.4Y-3.3858
X2.6378Y-3.3858
X5.4Y-0.8
T3
G00X2.7165Y-1.1417
M15
G01X2.7165Y-1.2205
M16
G05
G00X2.7953Y-1.3661
M15
G01X2.874Y-1.3661
M16
G05
G00X2.9528Y-1.1417
M15
G01X2.9528Y-1.2205
M16
G05
T0
M30
