M48
; DRILL file {KiCad (7.0.0-0)} date Tuesday, November 26, 2024 at 04:17:09 PM
; FORMAT={-:-/ absolute / metric / decimal}
; #@! TF.CreationDate,2024-11-26T16:17:09-08:00
; #@! TF.GenerationSoftware,Kicad,Pcbnew,(7.0.0-0)
; #@! TF.FileFunction,Plated,1,2,PTH
FMAT,2
METRIC
; #@! TA.AperFunction,Plated,PTH,ViaDrill
T1C0.300
; #@! TA.AperFunction,Plated,PTH,ViaDrill
T2C0.400
; #@! TA.AperFunction,Plated,PTH,ComponentDrill
T3C0.800
; #@! TA.AperFunction,Plated,PTH,ComponentDrill
T4C1.000
; #@! TA.AperFunction,Plated,PTH,ComponentDrill
T5C1.200
; #@! TA.AperFunction,Plated,PTH,ComponentDrill
T6C1.600
%
G90
G05
T1
X96.42Y-124.46
X98.96Y-119.38
X98.96Y-121.92
X101.5Y-124.46
X101.5Y-127.0
X104.932Y-124.46
X105.84Y-118.64
X105.84Y-128.24
X105.84Y-130.16
X107.12Y-109.04
X109.04Y-106.75
X109.04Y-122.48
X109.04Y-124.4
X109.04Y-126.0
X109.04Y-127.6
X109.04Y-129.2
X112.24Y-124.72
X112.24Y-126.0
X112.24Y-127.28
X112.5Y-107.0
X112.88Y-100.08
X112.88Y-101.04
X113.75Y-106.0
X114.16Y-124.72
X114.16Y-126.0
X114.16Y-127.28
X115.44Y-124.72
X115.44Y-126.0
X115.44Y-127.28
X116.72Y-124.72
X116.72Y-126.0
X116.72Y-127.28
X118.0Y-124.72
X118.0Y-126.0
X118.0Y-127.28
X119.28Y-124.72
X119.28Y-126.0
X119.28Y-127.28
X120.56Y-124.72
X120.56Y-126.0
X120.56Y-127.28
X121.84Y-124.72
X121.84Y-126.0
X121.84Y-127.28
X123.76Y-124.72
X123.76Y-126.0
X123.76Y-127.28
X123.76Y-139.44
X124.4Y-112.24
X125.04Y-143.28
X125.68Y-107.44
X126.32Y-100.4
X126.32Y-149.68
X126.96Y-123.44
X126.96Y-124.72
X126.96Y-126.0
X126.96Y-127.28
X126.96Y-128.56
X128.88Y-135.92
X130.16Y-114.48
X130.8Y-122.8
X130.8Y-124.08
X130.8Y-126.0
X130.8Y-127.6
X130.8Y-129.2
X131.44Y-111.28
X131.44Y-139.44
X133.36Y-107.12
X133.36Y-144.56
X134.64Y-121.52
X134.64Y-123.76
X134.64Y-126.0
X134.64Y-128.24
X134.64Y-130.48
X139.76Y-119.92
X139.76Y-122.8
X139.76Y-126.0
X139.76Y-129.2
X139.76Y-133.04
X145.52Y-118.32
X145.52Y-122.16
X145.52Y-126.0
X145.52Y-130.48
X145.52Y-134.0
X152.56Y-116.4
X152.56Y-121.2
X152.56Y-126.32
X152.56Y-131.44
X152.56Y-136.24
X158.96Y-116.4
X158.96Y-121.2
X158.96Y-131.76
X158.96Y-136.56
X159.0Y-126.0
T2
X84.2Y-134.0
X84.9Y-115.0
X85.0Y-113.0
X86.0Y-133.0
X87.0Y-106.0
X87.0Y-135.0
X87.7Y-115.69
X87.7Y-118.0
X88.0Y-149.0
X88.5Y-133.0
X90.0Y-140.0
X91.0Y-143.0
X93.0Y-104.0
X93.0Y-138.0
X94.0Y-152.0
X96.0Y-102.0
X96.5Y-131.0
X96.5Y-134.0
X99.5Y-142.75
X103.0Y-106.0
X103.0Y-146.0
X104.0Y-102.0
X104.75Y-141.5
X105.0Y-151.0
X106.5Y-144.25
X106.651Y-133.361
X107.744Y-131.95
X108.0Y-135.0
X108.5Y-138.25
X109.5Y-143.25
X110.0Y-135.0
X110.0Y-154.0
X111.25Y-151.75
X111.5Y-143.5
X113.0Y-143.75
X113.0Y-151.5
X114.0Y-154.0
X118.75Y-96.5
X120.0Y-96.5
X120.25Y-153.75
X121.5Y-96.5
X122.25Y-153.75
X122.5Y-96.5
X124.0Y-96.5
X124.0Y-97.75
X124.0Y-99.5
X124.0Y-101.25
X124.0Y-102.75
X124.0Y-153.75
X124.229Y-152.271
X124.25Y-146.0
X124.25Y-147.75
X124.25Y-150.0
T3
X92.64Y-147.32
X95.14Y-147.32
X95.18Y-139.7
X97.68Y-139.7
X110.38Y-147.32
X112.88Y-147.32
T4
X88.8Y-111.76
X88.8Y-114.3
X88.8Y-116.84
X88.8Y-119.38
X88.8Y-121.92
X88.8Y-124.46
X88.8Y-127.0
X88.8Y-129.54
X91.34Y-111.76
X91.34Y-114.3
X91.34Y-116.84
X91.34Y-119.38
X91.34Y-121.92
X91.34Y-124.46
X91.34Y-127.0
X91.34Y-129.54
X98.96Y-162.56
X101.5Y-162.56
X102.21Y-134.92
X102.21Y-137.46
X102.21Y-140.0
X104.04Y-162.56
X104.75Y-134.92
X104.75Y-137.46
X104.75Y-140.0
X106.58Y-162.56
X109.12Y-162.56
X111.66Y-162.56
X147.0Y-98.46
X147.0Y-103.54
X147.0Y-149.46
X147.0Y-154.54
X155.0Y-103.46
X155.0Y-108.54
X155.0Y-144.46
X155.0Y-149.54
T5
X88.0Y-97.5
X88.0Y-102.5
T6
X168.0Y-118.0
X168.0Y-123.0
X168.0Y-128.0
X168.0Y-133.0
T0
M30
