G04 #@! TF.GenerationSoftware,KiCad,Pcbnew,(7.0.0-0)*
G04 #@! TF.CreationDate,2024-11-26T16:17:06-08:00*
G04 #@! TF.ProjectId,tas5754m,74617335-3735-4346-9d2e-6b696361645f,rev?*
G04 #@! TF.SameCoordinates,Original*
G04 #@! TF.FileFunction,Copper,L2,Bot*
G04 #@! TF.FilePolarity,Positive*
%FSLAX46Y46*%
G04 Gerber Fmt 4.6, Leading zero omitted, Abs format (unit mm)*
G04 Created by KiCad (PCBNEW (7.0.0-0)) date 2024-11-26 16:17:06*
%MOMM*%
%LPD*%
G01*
G04 APERTURE LIST*
G04 Aperture macros list*
%AMRoundRect*
0 Rectangle with rounded corners*
0 $1 Rounding radius*
0 $2 $3 $4 $5 $6 $7 $8 $9 X,Y pos of 4 corners*
0 Add a 4 corners polygon primitive as box body*
4,1,4,$2,$3,$4,$5,$6,$7,$8,$9,$2,$3,0*
0 Add four circle primitives for the rounded corners*
1,1,$1+$1,$2,$3*
1,1,$1+$1,$4,$5*
1,1,$1+$1,$6,$7*
1,1,$1+$1,$8,$9*
0 Add four rect primitives between the rounded corners*
20,1,$1+$1,$2,$3,$4,$5,0*
20,1,$1+$1,$4,$5,$6,$7,0*
20,1,$1+$1,$6,$7,$8,$9,0*
20,1,$1+$1,$8,$9,$2,$3,0*%
G04 Aperture macros list end*
G04 #@! TA.AperFunction,ComponentPad*
%ADD10RoundRect,0.250000X0.600000X0.600000X-0.600000X0.600000X-0.600000X-0.600000X0.600000X-0.600000X0*%
G04 #@! TD*
G04 #@! TA.AperFunction,ComponentPad*
%ADD11C,1.700000*%
G04 #@! TD*
G04 #@! TA.AperFunction,ComponentPad*
%ADD12C,2.000000*%
G04 #@! TD*
G04 #@! TA.AperFunction,ComponentPad*
%ADD13R,1.700000X1.700000*%
G04 #@! TD*
G04 #@! TA.AperFunction,ComponentPad*
%ADD14O,1.700000X1.700000*%
G04 #@! TD*
G04 #@! TA.AperFunction,ComponentPad*
%ADD15R,1.600000X1.600000*%
G04 #@! TD*
G04 #@! TA.AperFunction,ComponentPad*
%ADD16C,1.600000*%
G04 #@! TD*
G04 #@! TA.AperFunction,ComponentPad*
%ADD17C,3.000000*%
G04 #@! TD*
G04 #@! TA.AperFunction,ComponentPad*
%ADD18C,2.500000*%
G04 #@! TD*
G04 #@! TA.AperFunction,ViaPad*
%ADD19C,0.600000*%
G04 #@! TD*
G04 #@! TA.AperFunction,ViaPad*
%ADD20C,0.800000*%
G04 #@! TD*
G04 #@! TA.AperFunction,Conductor*
%ADD21C,0.300000*%
G04 #@! TD*
G04 #@! TA.AperFunction,Conductor*
%ADD22C,0.500000*%
G04 #@! TD*
G04 #@! TA.AperFunction,Conductor*
%ADD23C,2.000000*%
G04 #@! TD*
G04 #@! TA.AperFunction,Conductor*
%ADD24C,0.200000*%
G04 #@! TD*
G04 APERTURE END LIST*
D10*
X91340000Y-129540000D03*
D11*
X88800000Y-129540000D03*
X91340000Y-127000000D03*
X88800000Y-127000000D03*
X91340000Y-124460000D03*
X88800000Y-124460000D03*
X91340000Y-121920000D03*
X88800000Y-121920000D03*
X91340000Y-119380000D03*
X88800000Y-119380000D03*
X91340000Y-116840000D03*
X88800000Y-116840000D03*
X91340000Y-114300000D03*
X88800000Y-114300000D03*
X91340000Y-111760000D03*
X88800000Y-111760000D03*
D12*
X147000000Y-98460000D03*
X147000000Y-103540000D03*
X155000000Y-108540000D03*
X155000000Y-103460000D03*
X155000000Y-144460000D03*
X155000000Y-149540000D03*
X147000000Y-154540000D03*
X147000000Y-149460000D03*
D13*
X104749999Y-139999999D03*
D14*
X102209999Y-139999999D03*
X104749999Y-137459999D03*
X102209999Y-137459999D03*
X104749999Y-134919999D03*
X102209999Y-134919999D03*
D13*
X98959999Y-162559999D03*
D14*
X101499999Y-162559999D03*
X104039999Y-162559999D03*
X106579999Y-162559999D03*
X109119999Y-162559999D03*
X111659999Y-162559999D03*
D15*
X110379999Y-147319999D03*
D16*
X112880000Y-147320000D03*
D15*
X95179999Y-139699999D03*
D16*
X97680000Y-139700000D03*
D17*
X168000000Y-118000000D03*
X168000000Y-123000000D03*
X168000000Y-128000000D03*
X168000000Y-133000000D03*
D18*
X88000000Y-97500000D03*
X88000000Y-102500000D03*
D15*
X95139999Y-147319999D03*
D16*
X92640000Y-147320000D03*
D19*
X123760000Y-126000000D03*
X145520000Y-126000000D03*
X145520000Y-134000000D03*
X115440000Y-127280000D03*
X101500000Y-127000000D03*
X121840000Y-127280000D03*
X118000000Y-124720000D03*
X152560000Y-116400000D03*
X139760000Y-122800000D03*
X152560000Y-136240000D03*
X115440000Y-124720000D03*
X104932255Y-124460000D03*
X116720000Y-127280000D03*
X152560000Y-126320000D03*
D20*
X90000000Y-140000000D03*
D19*
X101500000Y-124460000D03*
X134640000Y-123760000D03*
X158960000Y-116400000D03*
X123760000Y-139440000D03*
D20*
X108000000Y-135000000D03*
D19*
X139760000Y-129200000D03*
D20*
X110000000Y-154000000D03*
D19*
X105840000Y-128240000D03*
X114160000Y-124720000D03*
X105840000Y-130160000D03*
X123760000Y-127280000D03*
X130800000Y-127600000D03*
X145520000Y-122160000D03*
D20*
X114000000Y-154000000D03*
D19*
X126320000Y-149680000D03*
X105840000Y-118640000D03*
X116720000Y-126000000D03*
X139760000Y-133040000D03*
D20*
X96000000Y-102000000D03*
D19*
X126960000Y-123440000D03*
D20*
X103000000Y-146000000D03*
D19*
X116720000Y-124720000D03*
X152560000Y-121200000D03*
D20*
X113000000Y-151500000D03*
D19*
X112880000Y-100080000D03*
X113750000Y-106000000D03*
X124400000Y-112240000D03*
X112240000Y-124720000D03*
X139760000Y-126000000D03*
D20*
X87000000Y-106000000D03*
X99500000Y-142750000D03*
D19*
X130800000Y-126000000D03*
X126960000Y-127280000D03*
X123760000Y-124720000D03*
X126960000Y-126000000D03*
X145520000Y-118320000D03*
X109040000Y-122480000D03*
X152560000Y-131440000D03*
D20*
X103000000Y-106000000D03*
D19*
X130800000Y-129200000D03*
X114160000Y-127280000D03*
X120560000Y-124720000D03*
X109040000Y-127600000D03*
D20*
X109500000Y-143250000D03*
X88000000Y-149000000D03*
D19*
X121840000Y-126000000D03*
X119280000Y-127280000D03*
X112500000Y-107000000D03*
X131440000Y-111280000D03*
X107120000Y-109040000D03*
X159000000Y-126000000D03*
X119280000Y-124720000D03*
X125040000Y-143280000D03*
X131440000Y-139440000D03*
X119280000Y-126000000D03*
X134640000Y-121520000D03*
X134640000Y-128240000D03*
X134640000Y-130480000D03*
X158960000Y-121200000D03*
D20*
X113000000Y-143750000D03*
D19*
X158960000Y-131760000D03*
D20*
X111250000Y-151750000D03*
D19*
X118000000Y-126000000D03*
X126320000Y-100400000D03*
X115440000Y-126000000D03*
X120560000Y-126000000D03*
X126960000Y-128560000D03*
D20*
X104000000Y-102000000D03*
D19*
X112880000Y-101040000D03*
X130160000Y-114480000D03*
X120560000Y-127280000D03*
X128880000Y-135920000D03*
D20*
X93000000Y-138000000D03*
D19*
X109040000Y-124400000D03*
X98960000Y-119380000D03*
X109040000Y-129200000D03*
X125680000Y-107440000D03*
X139760000Y-119920000D03*
X145520000Y-130480000D03*
X130800000Y-122800000D03*
X134640000Y-126000000D03*
D20*
X94000000Y-152000000D03*
D19*
X114160000Y-126000000D03*
D20*
X93000000Y-104000000D03*
D19*
X112240000Y-127280000D03*
X130800000Y-124080000D03*
X133360000Y-107120000D03*
D20*
X110000000Y-135000000D03*
D19*
X118000000Y-127280000D03*
X98960000Y-121920000D03*
X96420000Y-124460000D03*
X109040000Y-126000000D03*
D20*
X105000000Y-151000000D03*
D19*
X133360000Y-144560000D03*
D20*
X111500000Y-143500000D03*
X91000000Y-143000000D03*
D19*
X121840000Y-124720000D03*
X158960000Y-136560000D03*
X109040000Y-106750000D03*
X126960000Y-124720000D03*
X112240000Y-126000000D03*
D20*
X104750000Y-141500000D03*
X106500000Y-144250000D03*
X87000000Y-135000000D03*
X108500000Y-138250000D03*
X84200500Y-134000000D03*
X122250000Y-153750000D03*
X124229290Y-152270710D03*
X124000000Y-96500000D03*
X124000000Y-153750000D03*
X121500000Y-96500000D03*
X120000000Y-96500000D03*
X118750000Y-96500000D03*
X124000000Y-102750000D03*
X124250000Y-146000000D03*
X120250000Y-153750000D03*
X124250000Y-147750000D03*
X124000000Y-99500000D03*
X124000000Y-97750000D03*
X124000000Y-101250000D03*
X124250000Y-150000000D03*
X122500000Y-96500000D03*
X107744055Y-131950021D03*
X106650605Y-133361207D03*
X86000000Y-133000000D03*
X88500000Y-133000000D03*
X84900500Y-115000000D03*
X87699500Y-118000000D03*
X85000000Y-113000000D03*
X87699500Y-115690000D03*
X96500000Y-134000000D03*
X96500000Y-131000000D03*
D21*
X84200500Y-134000000D02*
X86000000Y-134000000D01*
D22*
X106500000Y-138250000D02*
X104750000Y-140000000D01*
X104750000Y-142500000D02*
X106500000Y-144250000D01*
D21*
X86000000Y-134000000D02*
X87000000Y-135000000D01*
D22*
X104750000Y-141500000D02*
X104750000Y-142500000D01*
X108500000Y-138250000D02*
X106500000Y-138250000D01*
D23*
X124000000Y-96500000D02*
X121250000Y-96500000D01*
X124000000Y-101250000D02*
X124000000Y-102750000D01*
X124000000Y-99500000D02*
X124000000Y-101250000D01*
X124250000Y-152250000D02*
X124250000Y-150000000D01*
X124000000Y-153750000D02*
X120250000Y-153750000D01*
X124000000Y-96500000D02*
X124000000Y-97750000D01*
X124229290Y-153520710D02*
X124000000Y-153750000D01*
X124000000Y-102750000D02*
X124000000Y-104000000D01*
X124250000Y-146000000D02*
X124250000Y-147750000D01*
X124250000Y-150000000D02*
X124250000Y-147750000D01*
X124000000Y-97750000D02*
X124000000Y-99500000D01*
X121500000Y-96500000D02*
X118750000Y-96500000D01*
X124229290Y-152270710D02*
X124229290Y-153520710D01*
D24*
X107744055Y-132267757D02*
X107744055Y-131950021D01*
X106650605Y-133361207D02*
X107744055Y-132267757D01*
X88500000Y-133000000D02*
X86000000Y-133000000D01*
X84900500Y-115201000D02*
X84900500Y-115000000D01*
X87699500Y-118000000D02*
X84900500Y-115201000D01*
X87690000Y-115690000D02*
X87699500Y-115690000D01*
X85000000Y-113000000D02*
X87690000Y-115690000D01*
D21*
X96500000Y-134000000D02*
X96500000Y-131000000D01*
G04 #@! TA.AperFunction,Conductor*
G36*
X125015050Y-93887999D02*
G01*
X125051299Y-93922906D01*
X125065704Y-93971125D01*
X125434158Y-105024747D01*
X125422346Y-105075043D01*
X125386805Y-105112539D01*
X125337213Y-105127025D01*
X119355298Y-105247872D01*
X119303762Y-105234608D01*
X119266540Y-105196578D01*
X119254384Y-105144772D01*
X119500000Y-99250000D01*
X119488557Y-99243134D01*
X119488556Y-99243133D01*
X118261539Y-98506923D01*
X118261537Y-98506922D01*
X118250000Y-98500000D01*
X118236542Y-98500000D01*
X102006898Y-98500000D01*
X102000000Y-98500000D01*
X101993374Y-98501892D01*
X101993367Y-98501894D01*
X97638332Y-99746191D01*
X97611135Y-99750000D01*
X84000000Y-99750000D01*
X84000105Y-99763096D01*
X84000105Y-99763100D01*
X84270378Y-133199700D01*
X84257383Y-133249537D01*
X84221112Y-133286103D01*
X84171381Y-133299500D01*
X84115444Y-133299500D01*
X84109631Y-133300932D01*
X84109628Y-133300933D01*
X83956091Y-133338776D01*
X83956087Y-133338777D01*
X83950275Y-133340210D01*
X83944976Y-133342990D01*
X83944971Y-133342993D01*
X83804951Y-133416482D01*
X83804946Y-133416485D01*
X83799648Y-133419266D01*
X83795167Y-133423234D01*
X83795165Y-133423237D01*
X83676799Y-133528099D01*
X83676793Y-133528105D01*
X83672317Y-133532071D01*
X83668917Y-133536996D01*
X83668914Y-133537000D01*
X83579081Y-133667144D01*
X83579077Y-133667151D01*
X83575682Y-133672070D01*
X83573561Y-133677660D01*
X83573560Y-133677664D01*
X83517483Y-133825528D01*
X83517481Y-133825533D01*
X83515360Y-133831128D01*
X83514639Y-133837065D01*
X83514637Y-133837074D01*
X83495888Y-133991487D01*
X83494855Y-134000000D01*
X83495577Y-134005946D01*
X83514637Y-134162925D01*
X83514638Y-134162932D01*
X83515360Y-134168872D01*
X83575682Y-134327930D01*
X83579079Y-134332851D01*
X83579081Y-134332855D01*
X83668914Y-134462999D01*
X83672317Y-134467929D01*
X83799648Y-134580734D01*
X83950275Y-134659790D01*
X84115444Y-134700500D01*
X84121432Y-134700500D01*
X84184307Y-134700500D01*
X84233576Y-134713630D01*
X84269776Y-134749539D01*
X84283304Y-134798700D01*
X84437405Y-153863369D01*
X84437406Y-153863373D01*
X84437500Y-153875000D01*
X100000000Y-156375000D01*
X114500000Y-156500000D01*
X119250000Y-155750000D01*
X119250000Y-152603077D01*
X119263937Y-152552428D01*
X119301824Y-152516040D01*
X119352993Y-152504158D01*
X120548783Y-152552428D01*
X122743867Y-152641037D01*
X122749921Y-145098921D01*
X122763211Y-145049454D01*
X122799444Y-145013250D01*
X122848921Y-145000000D01*
X125401000Y-145000000D01*
X125450500Y-145013263D01*
X125486737Y-145049500D01*
X125500000Y-145099000D01*
X125500000Y-160901000D01*
X125486737Y-160950500D01*
X125450500Y-160986737D01*
X125401000Y-161000000D01*
X100251769Y-161000000D01*
X100248236Y-160999937D01*
X93254737Y-160750169D01*
X93245307Y-160749380D01*
X90820983Y-160429185D01*
X90774021Y-160409841D01*
X90742832Y-160369756D01*
X90651546Y-160154943D01*
X90650130Y-160151610D01*
X90509018Y-159920390D01*
X90506708Y-159917614D01*
X90506705Y-159917610D01*
X90338064Y-159714967D01*
X90335745Y-159712180D01*
X90228288Y-159615898D01*
X90136699Y-159533834D01*
X90136694Y-159533830D01*
X90134002Y-159531418D01*
X90014807Y-159452559D01*
X89911109Y-159383953D01*
X89911105Y-159383951D01*
X89908090Y-159381956D01*
X89904812Y-159380419D01*
X89904808Y-159380417D01*
X89666098Y-159268515D01*
X89666100Y-159268515D01*
X89662824Y-159266980D01*
X89609250Y-159250862D01*
X89406900Y-159189983D01*
X89406891Y-159189981D01*
X89403431Y-159188940D01*
X89399857Y-159188414D01*
X89399848Y-159188412D01*
X89139020Y-159150027D01*
X89139019Y-159150026D01*
X89135439Y-159149500D01*
X88932369Y-159149500D01*
X88930590Y-159149630D01*
X88930568Y-159149631D01*
X88733443Y-159164059D01*
X88733435Y-159164060D01*
X88729844Y-159164323D01*
X88726327Y-159165106D01*
X88726323Y-159165107D01*
X88468969Y-159222435D01*
X88468963Y-159222436D01*
X88465447Y-159223220D01*
X88462086Y-159224505D01*
X88462074Y-159224509D01*
X88215816Y-159318695D01*
X88215809Y-159318698D01*
X88212442Y-159319986D01*
X88209300Y-159321749D01*
X88209288Y-159321755D01*
X87979378Y-159450787D01*
X87979364Y-159450795D01*
X87976223Y-159452559D01*
X87973360Y-159454769D01*
X87973358Y-159454771D01*
X87764689Y-159615898D01*
X87764681Y-159615904D01*
X87761823Y-159618112D01*
X87759314Y-159620713D01*
X87759311Y-159620717D01*
X87576326Y-159810512D01*
X87576316Y-159810522D01*
X87573814Y-159813119D01*
X87571713Y-159816055D01*
X87571706Y-159816064D01*
X87486020Y-159935830D01*
X87444897Y-159969050D01*
X87392542Y-159976373D01*
X80085371Y-159011275D01*
X80041736Y-158994353D01*
X80010749Y-158959278D01*
X79999337Y-158913891D01*
X79500767Y-94099760D01*
X79513775Y-94049940D01*
X79550044Y-94013391D01*
X79599764Y-94000000D01*
X96749773Y-94000000D01*
X96750000Y-94000000D01*
X124966324Y-93875424D01*
X125015050Y-93887999D01*
G37*
G04 #@! TD.AperFunction*
G04 #@! TA.AperFunction,Conductor*
G36*
X169002152Y-86250593D02*
G01*
X169409642Y-86268385D01*
X169418221Y-86269135D01*
X169820465Y-86322093D01*
X169828960Y-86323591D01*
X170225037Y-86411398D01*
X170233378Y-86413633D01*
X170620302Y-86535630D01*
X170628418Y-86538584D01*
X171003241Y-86693841D01*
X171011053Y-86697483D01*
X171370910Y-86884813D01*
X171378390Y-86889131D01*
X171720561Y-87107118D01*
X171727635Y-87112072D01*
X172049487Y-87359038D01*
X172056103Y-87364589D01*
X172355216Y-87638675D01*
X172361324Y-87644783D01*
X172635410Y-87943896D01*
X172640961Y-87950512D01*
X172887927Y-88272364D01*
X172892881Y-88279438D01*
X173110868Y-88621609D01*
X173115186Y-88629089D01*
X173302512Y-88988939D01*
X173306162Y-88996766D01*
X173461415Y-89371581D01*
X173464369Y-89379697D01*
X173586366Y-89766621D01*
X173588601Y-89774964D01*
X173676407Y-90171034D01*
X173677907Y-90179539D01*
X173730862Y-90581765D01*
X173731615Y-90590369D01*
X173749406Y-90997847D01*
X173749500Y-91002165D01*
X173749500Y-160997835D01*
X173749406Y-161002153D01*
X173731615Y-161409630D01*
X173730862Y-161418234D01*
X173677907Y-161820460D01*
X173676407Y-161828965D01*
X173588601Y-162225035D01*
X173586366Y-162233378D01*
X173464369Y-162620302D01*
X173461415Y-162628418D01*
X173306162Y-163003233D01*
X173302512Y-163011060D01*
X173115186Y-163370910D01*
X173110868Y-163378390D01*
X172892881Y-163720561D01*
X172887927Y-163727635D01*
X172640961Y-164049487D01*
X172635410Y-164056103D01*
X172361324Y-164355216D01*
X172355216Y-164361324D01*
X172056103Y-164635410D01*
X172049487Y-164640961D01*
X171727635Y-164887927D01*
X171720561Y-164892881D01*
X171378390Y-165110868D01*
X171370910Y-165115186D01*
X171011060Y-165302512D01*
X171003233Y-165306162D01*
X170628418Y-165461415D01*
X170620302Y-165464369D01*
X170233378Y-165586366D01*
X170225035Y-165588601D01*
X169828965Y-165676407D01*
X169820460Y-165677907D01*
X169418234Y-165730862D01*
X169409630Y-165731615D01*
X169002153Y-165749406D01*
X168997835Y-165749500D01*
X83002165Y-165749500D01*
X82997847Y-165749406D01*
X82590369Y-165731615D01*
X82581765Y-165730862D01*
X82179539Y-165677907D01*
X82171034Y-165676407D01*
X81774964Y-165588601D01*
X81766621Y-165586366D01*
X81379697Y-165464369D01*
X81371581Y-165461415D01*
X80996766Y-165306162D01*
X80988939Y-165302512D01*
X80629089Y-165115186D01*
X80621609Y-165110868D01*
X80279438Y-164892881D01*
X80272364Y-164887927D01*
X79950512Y-164640961D01*
X79943896Y-164635410D01*
X79644783Y-164361324D01*
X79638675Y-164355216D01*
X79364589Y-164056103D01*
X79359038Y-164049487D01*
X79112072Y-163727635D01*
X79107118Y-163720561D01*
X79072301Y-163665910D01*
X78889131Y-163378390D01*
X78884813Y-163370910D01*
X78697487Y-163011060D01*
X78693837Y-163003233D01*
X78683132Y-162977389D01*
X78538584Y-162628418D01*
X78535630Y-162620302D01*
X78460458Y-162381888D01*
X78413632Y-162233376D01*
X78411398Y-162225035D01*
X78392216Y-162138509D01*
X78323591Y-161828960D01*
X78322092Y-161820460D01*
X78269135Y-161418221D01*
X78268385Y-161409642D01*
X78250593Y-161002152D01*
X78250500Y-160997835D01*
X78250500Y-94102110D01*
X79195276Y-94102110D01*
X79195301Y-94105361D01*
X79195301Y-94105362D01*
X79671949Y-156069709D01*
X79693846Y-158916241D01*
X79694218Y-158919156D01*
X79694219Y-158919167D01*
X79702685Y-158985464D01*
X79702687Y-158985477D01*
X79703059Y-158988386D01*
X79714471Y-159033773D01*
X79715524Y-159036523D01*
X79738360Y-159096170D01*
X79738362Y-159096174D01*
X79740476Y-159101695D01*
X79743833Y-159106557D01*
X79743835Y-159106561D01*
X79780118Y-159159112D01*
X79781798Y-159161545D01*
X79783747Y-159163751D01*
X79783754Y-159163760D01*
X79810827Y-159194404D01*
X79812785Y-159196620D01*
X79867082Y-159245004D01*
X79931276Y-159279184D01*
X79974911Y-159296106D01*
X80045369Y-159314145D01*
X87173607Y-160255610D01*
X87225975Y-160279376D01*
X87256298Y-160328244D01*
X87254340Y-160385722D01*
X87204882Y-160530695D01*
X87204226Y-160534245D01*
X87204224Y-160534254D01*
X87156338Y-160793505D01*
X87156336Y-160793517D01*
X87155681Y-160797067D01*
X87155549Y-160800672D01*
X87155548Y-160800684D01*
X87146237Y-161055474D01*
X87145788Y-161067765D01*
X87146182Y-161071350D01*
X87146183Y-161071363D01*
X87175018Y-161333426D01*
X87175019Y-161333436D01*
X87175414Y-161337018D01*
X87176325Y-161340503D01*
X87176327Y-161340513D01*
X87229951Y-161545624D01*
X87243928Y-161599088D01*
X87349870Y-161848390D01*
X87351750Y-161851471D01*
X87351754Y-161851478D01*
X87489100Y-162076527D01*
X87490982Y-162079610D01*
X87493289Y-162082383D01*
X87493294Y-162082389D01*
X87577804Y-162183938D01*
X87664255Y-162287820D01*
X87865998Y-162468582D01*
X88091910Y-162618044D01*
X88337176Y-162733020D01*
X88596569Y-162811060D01*
X88864561Y-162850500D01*
X89065824Y-162850500D01*
X89067631Y-162850500D01*
X89270156Y-162835677D01*
X89534553Y-162776780D01*
X89787558Y-162680014D01*
X90023777Y-162547441D01*
X90238177Y-162381888D01*
X90426186Y-162186881D01*
X90583799Y-161966579D01*
X90707656Y-161725675D01*
X90795118Y-161469305D01*
X90844319Y-161202933D01*
X90854212Y-160932235D01*
X90846750Y-160864423D01*
X90858006Y-160806631D01*
X90900092Y-160765449D01*
X90958119Y-160755450D01*
X93205305Y-161052250D01*
X93219835Y-161053816D01*
X93229265Y-161054605D01*
X93243833Y-161055474D01*
X97998208Y-161225273D01*
X98048408Y-161241061D01*
X98083425Y-161280342D01*
X98093367Y-161332019D01*
X98075423Y-161381489D01*
X98034663Y-161414774D01*
X97945629Y-161454086D01*
X97945622Y-161454090D01*
X97937235Y-161457794D01*
X97930753Y-161464275D01*
X97930750Y-161464278D01*
X97864278Y-161530750D01*
X97864275Y-161530753D01*
X97857794Y-161537235D01*
X97854091Y-161545620D01*
X97854089Y-161545624D01*
X97815422Y-161633197D01*
X97815422Y-161633198D01*
X97812415Y-161640009D01*
X97811557Y-161647404D01*
X97811556Y-161647408D01*
X97809830Y-161662285D01*
X97809829Y-161662296D01*
X97809500Y-161665135D01*
X97809500Y-161667991D01*
X97809500Y-161667999D01*
X97809500Y-163452008D01*
X97809500Y-163452025D01*
X97809501Y-163454864D01*
X97809828Y-163457685D01*
X97809829Y-163457699D01*
X97811557Y-163472591D01*
X97812415Y-163479991D01*
X97857794Y-163582765D01*
X97937235Y-163662206D01*
X98040009Y-163707585D01*
X98065135Y-163710500D01*
X99854864Y-163710499D01*
X99879991Y-163707585D01*
X99982765Y-163662206D01*
X100062206Y-163582765D01*
X100107585Y-163479991D01*
X100110500Y-163454865D01*
X100110499Y-161665136D01*
X100107585Y-161640009D01*
X100062206Y-161537235D01*
X99993056Y-161468085D01*
X99965794Y-161416528D01*
X99972287Y-161358569D01*
X100010282Y-161314323D01*
X100066593Y-161299144D01*
X100237332Y-161305242D01*
X100242789Y-161305388D01*
X100246322Y-161305451D01*
X100251769Y-161305500D01*
X100251990Y-161305500D01*
X101023785Y-161305500D01*
X101075902Y-161320329D01*
X101112406Y-161360372D01*
X101122363Y-161413635D01*
X101102788Y-161464161D01*
X101059547Y-161496815D01*
X100989253Y-161524046D01*
X100989243Y-161524050D01*
X100984981Y-161525702D01*
X100981087Y-161528112D01*
X100981085Y-161528114D01*
X100807590Y-161635537D01*
X100807581Y-161635543D01*
X100803698Y-161637948D01*
X100800323Y-161641024D01*
X100800316Y-161641030D01*
X100649512Y-161778507D01*
X100649506Y-161778513D01*
X100646128Y-161781593D01*
X100643372Y-161785241D01*
X100643365Y-161785250D01*
X100520396Y-161948087D01*
X100517634Y-161951745D01*
X100515595Y-161955838D01*
X100515591Y-161955846D01*
X100424637Y-162138509D01*
X100424635Y-162138513D01*
X100422595Y-162142611D01*
X100421344Y-162147005D01*
X100421341Y-162147015D01*
X100365494Y-162343294D01*
X100365492Y-162343302D01*
X100364244Y-162347690D01*
X100363822Y-162352235D01*
X100363822Y-162352240D01*
X100361075Y-162381888D01*
X100344571Y-162560000D01*
X100364244Y-162772310D01*
X100365493Y-162776699D01*
X100365494Y-162776705D01*
X100421341Y-162972984D01*
X100421343Y-162972990D01*
X100422595Y-162977389D01*
X100517634Y-163168255D01*
X100520396Y-163171912D01*
X100643365Y-163334749D01*
X100643368Y-163334752D01*
X100646128Y-163338407D01*
X100649511Y-163341491D01*
X100649512Y-163341492D01*
X100770741Y-163452008D01*
X100803698Y-163482052D01*
X100984981Y-163594298D01*
X101183802Y-163671321D01*
X101393390Y-163710500D01*
X101602027Y-163710500D01*
X101606610Y-163710500D01*
X101816198Y-163671321D01*
X102015019Y-163594298D01*
X102196302Y-163482052D01*
X102353872Y-163338407D01*
X102482366Y-163168255D01*
X102577405Y-162977389D01*
X102635756Y-162772310D01*
X102655429Y-162560000D01*
X102635756Y-162347690D01*
X102577405Y-162142611D01*
X102482366Y-161951745D01*
X102353872Y-161781593D01*
X102229266Y-161667999D01*
X102199683Y-161641030D01*
X102199681Y-161641028D01*
X102196302Y-161637948D01*
X102192413Y-161635540D01*
X102192409Y-161635537D01*
X102033645Y-161537235D01*
X102015019Y-161525702D01*
X102010751Y-161524048D01*
X102010746Y-161524046D01*
X101940453Y-161496815D01*
X101897212Y-161464161D01*
X101877637Y-161413635D01*
X101887594Y-161360372D01*
X101924098Y-161320329D01*
X101976215Y-161305500D01*
X103563785Y-161305500D01*
X103615902Y-161320329D01*
X103652406Y-161360372D01*
X103662363Y-161413635D01*
X103642788Y-161464161D01*
X103599547Y-161496815D01*
X103529253Y-161524046D01*
X103529243Y-161524050D01*
X103524981Y-161525702D01*
X103521087Y-161528112D01*
X103521085Y-161528114D01*
X103347590Y-161635537D01*
X103347581Y-161635543D01*
X103343698Y-161637948D01*
X103340323Y-161641024D01*
X103340316Y-161641030D01*
X103189512Y-161778507D01*
X103189506Y-161778513D01*
X103186128Y-161781593D01*
X103183372Y-161785241D01*
X103183365Y-161785250D01*
X103060396Y-161948087D01*
X103057634Y-161951745D01*
X103055595Y-161955838D01*
X103055591Y-161955846D01*
X102964637Y-162138509D01*
X102964635Y-162138513D01*
X102962595Y-162142611D01*
X102961344Y-162147005D01*
X102961341Y-162147015D01*
X102905494Y-162343294D01*
X102905492Y-162343302D01*
X102904244Y-162347690D01*
X102903822Y-162352235D01*
X102903822Y-162352240D01*
X102901075Y-162381888D01*
X102884571Y-162560000D01*
X102904244Y-162772310D01*
X102905493Y-162776699D01*
X102905494Y-162776705D01*
X102961341Y-162972984D01*
X102961343Y-162972990D01*
X102962595Y-162977389D01*
X103057634Y-163168255D01*
X103060396Y-163171912D01*
X103183365Y-163334749D01*
X103183368Y-163334752D01*
X103186128Y-163338407D01*
X103189511Y-163341491D01*
X103189512Y-163341492D01*
X103310741Y-163452008D01*
X103343698Y-163482052D01*
X103524981Y-163594298D01*
X103723802Y-163671321D01*
X103933390Y-163710500D01*
X104142027Y-163710500D01*
X104146610Y-163710500D01*
X104356198Y-163671321D01*
X104555019Y-163594298D01*
X104736302Y-163482052D01*
X104893872Y-163338407D01*
X105022366Y-163168255D01*
X105117405Y-162977389D01*
X105175756Y-162772310D01*
X105195429Y-162560000D01*
X105175756Y-162347690D01*
X105117405Y-162142611D01*
X105022366Y-161951745D01*
X104893872Y-161781593D01*
X104769266Y-161667999D01*
X104739683Y-161641030D01*
X104739681Y-161641028D01*
X104736302Y-161637948D01*
X104732413Y-161635540D01*
X104732409Y-161635537D01*
X104573645Y-161537235D01*
X104555019Y-161525702D01*
X104550751Y-161524048D01*
X104550746Y-161524046D01*
X104480453Y-161496815D01*
X104437212Y-161464161D01*
X104417637Y-161413635D01*
X104427594Y-161360372D01*
X104464098Y-161320329D01*
X104516215Y-161305500D01*
X106103785Y-161305500D01*
X106155902Y-161320329D01*
X106192406Y-161360372D01*
X106202363Y-161413635D01*
X106182788Y-161464161D01*
X106139547Y-161496815D01*
X106069253Y-161524046D01*
X106069243Y-161524050D01*
X106064981Y-161525702D01*
X106061087Y-161528112D01*
X106061085Y-161528114D01*
X105887590Y-161635537D01*
X105887581Y-161635543D01*
X105883698Y-161637948D01*
X105880323Y-161641024D01*
X105880316Y-161641030D01*
X105729512Y-161778507D01*
X105729506Y-161778513D01*
X105726128Y-161781593D01*
X105723372Y-161785241D01*
X105723365Y-161785250D01*
X105600396Y-161948087D01*
X105597634Y-161951745D01*
X105595595Y-161955838D01*
X105595591Y-161955846D01*
X105504637Y-162138509D01*
X105504635Y-162138513D01*
X105502595Y-162142611D01*
X105501344Y-162147005D01*
X105501341Y-162147015D01*
X105445494Y-162343294D01*
X105445492Y-162343302D01*
X105444244Y-162347690D01*
X105443822Y-162352235D01*
X105443822Y-162352240D01*
X105441075Y-162381888D01*
X105424571Y-162560000D01*
X105444244Y-162772310D01*
X105445493Y-162776699D01*
X105445494Y-162776705D01*
X105501341Y-162972984D01*
X105501343Y-162972990D01*
X105502595Y-162977389D01*
X105597634Y-163168255D01*
X105600396Y-163171912D01*
X105723365Y-163334749D01*
X105723368Y-163334752D01*
X105726128Y-163338407D01*
X105729511Y-163341491D01*
X105729512Y-163341492D01*
X105850741Y-163452008D01*
X105883698Y-163482052D01*
X106064981Y-163594298D01*
X106263802Y-163671321D01*
X106473390Y-163710500D01*
X106682027Y-163710500D01*
X106686610Y-163710500D01*
X106896198Y-163671321D01*
X107095019Y-163594298D01*
X107276302Y-163482052D01*
X107433872Y-163338407D01*
X107562366Y-163168255D01*
X107657405Y-162977389D01*
X107715756Y-162772310D01*
X107735429Y-162560000D01*
X107715756Y-162347690D01*
X107657405Y-162142611D01*
X107562366Y-161951745D01*
X107433872Y-161781593D01*
X107309266Y-161667999D01*
X107279683Y-161641030D01*
X107279681Y-161641028D01*
X107276302Y-161637948D01*
X107272413Y-161635540D01*
X107272409Y-161635537D01*
X107113645Y-161537235D01*
X107095019Y-161525702D01*
X107090751Y-161524048D01*
X107090746Y-161524046D01*
X107020453Y-161496815D01*
X106977212Y-161464161D01*
X106957637Y-161413635D01*
X106967594Y-161360372D01*
X107004098Y-161320329D01*
X107056215Y-161305500D01*
X108643785Y-161305500D01*
X108695902Y-161320329D01*
X108732406Y-161360372D01*
X108742363Y-161413635D01*
X108722788Y-161464161D01*
X108679547Y-161496815D01*
X108609253Y-161524046D01*
X108609243Y-161524050D01*
X108604981Y-161525702D01*
X108601087Y-161528112D01*
X108601085Y-161528114D01*
X108427590Y-161635537D01*
X108427581Y-161635543D01*
X108423698Y-161637948D01*
X108420323Y-161641024D01*
X108420316Y-161641030D01*
X108269512Y-161778507D01*
X108269506Y-161778513D01*
X108266128Y-161781593D01*
X108263372Y-161785241D01*
X108263365Y-161785250D01*
X108140396Y-161948087D01*
X108137634Y-161951745D01*
X108135595Y-161955838D01*
X108135591Y-161955846D01*
X108044637Y-162138509D01*
X108044635Y-162138513D01*
X108042595Y-162142611D01*
X108041344Y-162147005D01*
X108041341Y-162147015D01*
X107985494Y-162343294D01*
X107985492Y-162343302D01*
X107984244Y-162347690D01*
X107983822Y-162352235D01*
X107983822Y-162352240D01*
X107981075Y-162381888D01*
X107964571Y-162560000D01*
X107984244Y-162772310D01*
X107985493Y-162776699D01*
X107985494Y-162776705D01*
X108041341Y-162972984D01*
X108041343Y-162972990D01*
X108042595Y-162977389D01*
X108137634Y-163168255D01*
X108140396Y-163171912D01*
X108263365Y-163334749D01*
X108263368Y-163334752D01*
X108266128Y-163338407D01*
X108269511Y-163341491D01*
X108269512Y-163341492D01*
X108390741Y-163452008D01*
X108423698Y-163482052D01*
X108604981Y-163594298D01*
X108803802Y-163671321D01*
X109013390Y-163710500D01*
X109222027Y-163710500D01*
X109226610Y-163710500D01*
X109436198Y-163671321D01*
X109635019Y-163594298D01*
X109816302Y-163482052D01*
X109973872Y-163338407D01*
X110102366Y-163168255D01*
X110197405Y-162977389D01*
X110255756Y-162772310D01*
X110275429Y-162560000D01*
X110255756Y-162347690D01*
X110197405Y-162142611D01*
X110102366Y-161951745D01*
X109973872Y-161781593D01*
X109849266Y-161667999D01*
X109819683Y-161641030D01*
X109819681Y-161641028D01*
X109816302Y-161637948D01*
X109812413Y-161635540D01*
X109812409Y-161635537D01*
X109653645Y-161537235D01*
X109635019Y-161525702D01*
X109630751Y-161524048D01*
X109630746Y-161524046D01*
X109560453Y-161496815D01*
X109517212Y-161464161D01*
X109497637Y-161413635D01*
X109507594Y-161360372D01*
X109544098Y-161320329D01*
X109596215Y-161305500D01*
X125397759Y-161305500D01*
X125401000Y-161305500D01*
X125480067Y-161295091D01*
X125529567Y-161281828D01*
X125603249Y-161251308D01*
X125666521Y-161202758D01*
X125702758Y-161166521D01*
X125751308Y-161103249D01*
X125766006Y-161067765D01*
X167145788Y-161067765D01*
X167146182Y-161071350D01*
X167146183Y-161071363D01*
X167175018Y-161333426D01*
X167175019Y-161333436D01*
X167175414Y-161337018D01*
X167176325Y-161340503D01*
X167176327Y-161340513D01*
X167229951Y-161545624D01*
X167243928Y-161599088D01*
X167349870Y-161848390D01*
X167351750Y-161851471D01*
X167351754Y-161851478D01*
X167489100Y-162076527D01*
X167490982Y-162079610D01*
X167493289Y-162082383D01*
X167493294Y-162082389D01*
X167577804Y-162183938D01*
X167664255Y-162287820D01*
X167865998Y-162468582D01*
X168091910Y-162618044D01*
X168337176Y-162733020D01*
X168596569Y-162811060D01*
X168864561Y-162850500D01*
X169065824Y-162850500D01*
X169067631Y-162850500D01*
X169270156Y-162835677D01*
X169534553Y-162776780D01*
X169787558Y-162680014D01*
X170023777Y-162547441D01*
X170238177Y-162381888D01*
X170426186Y-162186881D01*
X170583799Y-161966579D01*
X170707656Y-161725675D01*
X170795118Y-161469305D01*
X170844319Y-161202933D01*
X170854212Y-160932235D01*
X170824586Y-160662982D01*
X170756072Y-160400912D01*
X170650130Y-160151610D01*
X170509018Y-159920390D01*
X170506708Y-159917614D01*
X170506705Y-159917610D01*
X170338064Y-159714967D01*
X170335745Y-159712180D01*
X170228288Y-159615898D01*
X170136699Y-159533834D01*
X170136694Y-159533830D01*
X170134002Y-159531418D01*
X170014807Y-159452559D01*
X169911109Y-159383953D01*
X169911105Y-159383951D01*
X169908090Y-159381956D01*
X169904812Y-159380419D01*
X169904808Y-159380417D01*
X169666098Y-159268515D01*
X169666100Y-159268515D01*
X169662824Y-159266980D01*
X169576703Y-159241070D01*
X169406900Y-159189983D01*
X169406891Y-159189981D01*
X169403431Y-159188940D01*
X169399857Y-159188414D01*
X169399848Y-159188412D01*
X169139020Y-159150027D01*
X169139019Y-159150026D01*
X169135439Y-159149500D01*
X168932369Y-159149500D01*
X168930590Y-159149630D01*
X168930568Y-159149631D01*
X168733443Y-159164059D01*
X168733435Y-159164060D01*
X168729844Y-159164323D01*
X168726327Y-159165106D01*
X168726323Y-159165107D01*
X168468969Y-159222435D01*
X168468963Y-159222436D01*
X168465447Y-159223220D01*
X168462086Y-159224505D01*
X168462074Y-159224509D01*
X168215816Y-159318695D01*
X168215809Y-159318698D01*
X168212442Y-159319986D01*
X168209300Y-159321749D01*
X168209288Y-159321755D01*
X167979378Y-159450787D01*
X167979364Y-159450795D01*
X167976223Y-159452559D01*
X167973360Y-159454769D01*
X167973358Y-159454771D01*
X167764689Y-159615898D01*
X167764681Y-159615904D01*
X167761823Y-159618112D01*
X167759314Y-159620713D01*
X167759311Y-159620717D01*
X167576325Y-159810514D01*
X167576321Y-159810517D01*
X167573814Y-159813119D01*
X167571716Y-159816050D01*
X167571708Y-159816061D01*
X167418301Y-160030484D01*
X167418293Y-160030495D01*
X167416201Y-160033421D01*
X167414556Y-160036620D01*
X167414549Y-160036632D01*
X167293997Y-160271108D01*
X167293992Y-160271118D01*
X167292344Y-160274325D01*
X167291178Y-160277741D01*
X167291174Y-160277752D01*
X167206051Y-160527267D01*
X167204882Y-160530695D01*
X167204226Y-160534245D01*
X167204224Y-160534254D01*
X167156338Y-160793505D01*
X167156336Y-160793517D01*
X167155681Y-160797067D01*
X167155549Y-160800672D01*
X167155548Y-160800684D01*
X167146237Y-161055474D01*
X167145788Y-161067765D01*
X125766006Y-161067765D01*
X125781828Y-161029567D01*
X125795091Y-160980067D01*
X125805500Y-160901000D01*
X125805500Y-154540000D01*
X145694532Y-154540000D01*
X145694909Y-154544309D01*
X145713987Y-154762380D01*
X145713988Y-154762388D01*
X145714365Y-154766692D01*
X145715484Y-154770868D01*
X145772142Y-154982323D01*
X145772145Y-154982331D01*
X145773261Y-154986496D01*
X145775086Y-154990410D01*
X145775088Y-154990415D01*
X145867601Y-155188809D01*
X145867604Y-155188815D01*
X145869432Y-155192734D01*
X145871912Y-155196277D01*
X145871914Y-155196279D01*
X145997473Y-155375598D01*
X145997476Y-155375602D01*
X145999953Y-155379139D01*
X146160861Y-155540047D01*
X146347266Y-155670568D01*
X146553504Y-155766739D01*
X146773308Y-155825635D01*
X147000000Y-155845468D01*
X147226692Y-155825635D01*
X147446496Y-155766739D01*
X147652734Y-155670568D01*
X147839139Y-155540047D01*
X148000047Y-155379139D01*
X148130568Y-155192734D01*
X148226739Y-154986496D01*
X148285635Y-154766692D01*
X148305468Y-154540000D01*
X148285635Y-154313308D01*
X148226739Y-154093504D01*
X148130568Y-153887266D01*
X148000047Y-153700861D01*
X147839139Y-153539953D01*
X147835602Y-153537476D01*
X147835598Y-153537473D01*
X147656279Y-153411914D01*
X147656277Y-153411912D01*
X147652734Y-153409432D01*
X147648815Y-153407604D01*
X147648809Y-153407601D01*
X147450415Y-153315088D01*
X147450410Y-153315086D01*
X147446496Y-153313261D01*
X147442331Y-153312145D01*
X147442323Y-153312142D01*
X147230868Y-153255484D01*
X147226692Y-153254365D01*
X147222388Y-153253988D01*
X147222380Y-153253987D01*
X147004309Y-153234909D01*
X147000000Y-153234532D01*
X146995691Y-153234909D01*
X146777619Y-153253987D01*
X146777609Y-153253988D01*
X146773308Y-153254365D01*
X146769133Y-153255483D01*
X146769131Y-153255484D01*
X146557676Y-153312142D01*
X146557664Y-153312146D01*
X146553504Y-153313261D01*
X146549593Y-153315084D01*
X146549584Y-153315088D01*
X146351190Y-153407601D01*
X146351179Y-153407607D01*
X146347266Y-153409432D01*
X146343727Y-153411909D01*
X146343720Y-153411914D01*
X146164401Y-153537473D01*
X146164391Y-153537480D01*
X146160861Y-153539953D01*
X146157813Y-153543000D01*
X146157807Y-153543006D01*
X146003006Y-153697807D01*
X146003000Y-153697813D01*
X145999953Y-153700861D01*
X145997480Y-153704391D01*
X145997473Y-153704401D01*
X145871914Y-153883720D01*
X145871909Y-153883727D01*
X145869432Y-153887266D01*
X145867607Y-153891179D01*
X145867601Y-153891190D01*
X145775088Y-154089584D01*
X145775084Y-154089593D01*
X145773261Y-154093504D01*
X145772146Y-154097664D01*
X145772142Y-154097676D01*
X145715484Y-154309131D01*
X145714365Y-154313308D01*
X145713988Y-154317609D01*
X145713987Y-154317619D01*
X145695156Y-154532866D01*
X145694532Y-154540000D01*
X125805500Y-154540000D01*
X125805500Y-145099000D01*
X125795091Y-145019933D01*
X125781828Y-144970433D01*
X125772529Y-144947983D01*
X125753791Y-144902745D01*
X125753790Y-144902743D01*
X125751308Y-144896751D01*
X125747359Y-144891604D01*
X125747357Y-144891601D01*
X125704725Y-144836043D01*
X125702758Y-144833479D01*
X125666521Y-144797242D01*
X125654993Y-144788396D01*
X125608398Y-144752642D01*
X125608393Y-144752639D01*
X125603249Y-144748692D01*
X125597258Y-144746210D01*
X125597254Y-144746208D01*
X125532557Y-144719410D01*
X125532550Y-144719407D01*
X125529567Y-144718172D01*
X125526442Y-144717334D01*
X125526440Y-144717334D01*
X125483197Y-144705747D01*
X125483187Y-144705745D01*
X125480067Y-144704909D01*
X125476863Y-144704487D01*
X125476852Y-144704485D01*
X125404213Y-144694923D01*
X125401000Y-144694500D01*
X122848921Y-144694500D01*
X122845728Y-144694920D01*
X122845715Y-144694921D01*
X122773101Y-144704476D01*
X122773088Y-144704478D01*
X122769893Y-144704899D01*
X122766777Y-144705733D01*
X122766764Y-144705736D01*
X122723551Y-144717309D01*
X122723544Y-144717311D01*
X122720416Y-144718149D01*
X122717428Y-144719385D01*
X122717416Y-144719390D01*
X122652756Y-144746157D01*
X122652750Y-144746160D01*
X122646765Y-144748638D01*
X122641621Y-144752581D01*
X122641618Y-144752584D01*
X122586075Y-144795174D01*
X122586071Y-144795177D01*
X122583509Y-144797142D01*
X122581234Y-144799414D01*
X122581225Y-144799423D01*
X122549567Y-144831056D01*
X122549561Y-144831062D01*
X122547276Y-144833346D01*
X122545300Y-144835917D01*
X122545297Y-144835922D01*
X122502672Y-144891419D01*
X122502669Y-144891423D01*
X122498722Y-144896563D01*
X122496239Y-144902545D01*
X122496236Y-144902552D01*
X122469411Y-144967203D01*
X122469408Y-144967210D01*
X122468173Y-144970188D01*
X122467339Y-144973292D01*
X122467335Y-144973304D01*
X122455720Y-145016536D01*
X122455717Y-145016549D01*
X122454883Y-145019655D01*
X122454459Y-145022852D01*
X122454459Y-145022856D01*
X122444844Y-145095474D01*
X122444843Y-145095488D01*
X122444421Y-145098676D01*
X122444418Y-145101902D01*
X122444418Y-145101909D01*
X122438704Y-152219971D01*
X122424740Y-152270586D01*
X122386857Y-152306941D01*
X122335711Y-152318811D01*
X119368645Y-152199041D01*
X119368638Y-152199041D01*
X119365315Y-152198907D01*
X119362003Y-152199218D01*
X119362000Y-152199219D01*
X119287203Y-152206264D01*
X119287202Y-152206264D01*
X119283891Y-152206576D01*
X119280651Y-152207328D01*
X119280647Y-152207329D01*
X119235967Y-152217704D01*
X119235960Y-152217706D01*
X119232722Y-152218458D01*
X119229614Y-152219636D01*
X119229609Y-152219638D01*
X119162467Y-152245097D01*
X119162464Y-152245098D01*
X119156247Y-152247456D01*
X119150878Y-152251378D01*
X119150875Y-152251380D01*
X119092880Y-152293749D01*
X119092866Y-152293760D01*
X119090206Y-152295704D01*
X119087820Y-152297994D01*
X119087817Y-152297998D01*
X119054717Y-152329788D01*
X119054710Y-152329794D01*
X119052319Y-152332092D01*
X119050253Y-152334691D01*
X119050249Y-152334697D01*
X119005584Y-152390921D01*
X119005579Y-152390928D01*
X119001445Y-152396133D01*
X118998838Y-152402249D01*
X118998835Y-152402256D01*
X118970687Y-152468319D01*
X118970682Y-152468331D01*
X118969385Y-152471377D01*
X118968504Y-152474576D01*
X118968503Y-152474581D01*
X118956331Y-152518814D01*
X118956328Y-152518825D01*
X118955448Y-152522026D01*
X118944500Y-152603077D01*
X118944500Y-152606401D01*
X118944500Y-155404357D01*
X118933702Y-155449316D01*
X118903665Y-155484468D01*
X118860941Y-155502145D01*
X116819264Y-155824515D01*
X114485430Y-156193014D01*
X114469137Y-156194221D01*
X100033163Y-156069773D01*
X100018314Y-156068524D01*
X84823520Y-153627594D01*
X84781130Y-153610011D01*
X84751223Y-153575202D01*
X84740225Y-153530649D01*
X84696830Y-148162025D01*
X94039500Y-148162025D01*
X94039501Y-148164864D01*
X94039828Y-148167685D01*
X94039829Y-148167699D01*
X94041557Y-148182591D01*
X94042415Y-148189991D01*
X94087794Y-148292765D01*
X94167235Y-148372206D01*
X94270009Y-148417585D01*
X94295135Y-148420500D01*
X95984864Y-148420499D01*
X96009991Y-148417585D01*
X96112765Y-148372206D01*
X96192206Y-148292765D01*
X96237585Y-148189991D01*
X96240500Y-148164865D01*
X96240500Y-148162025D01*
X109279500Y-148162025D01*
X109279501Y-148164864D01*
X109279828Y-148167685D01*
X109279829Y-148167699D01*
X109281557Y-148182591D01*
X109282415Y-148189991D01*
X109327794Y-148292765D01*
X109407235Y-148372206D01*
X109510009Y-148417585D01*
X109535135Y-148420500D01*
X111224864Y-148420499D01*
X111249991Y-148417585D01*
X111352765Y-148372206D01*
X111432206Y-148292765D01*
X111477585Y-148189991D01*
X111480500Y-148164865D01*
X111480499Y-146475136D01*
X111477585Y-146450009D01*
X111432206Y-146347235D01*
X111352765Y-146267794D01*
X111344376Y-146264090D01*
X111344375Y-146264089D01*
X111256802Y-146225422D01*
X111256799Y-146225421D01*
X111249991Y-146222415D01*
X111242594Y-146221556D01*
X111242591Y-146221556D01*
X111227714Y-146219830D01*
X111227704Y-146219829D01*
X111224865Y-146219500D01*
X111222000Y-146219500D01*
X109537991Y-146219500D01*
X109537973Y-146219500D01*
X109535136Y-146219501D01*
X109532315Y-146219828D01*
X109532300Y-146219829D01*
X109517404Y-146221557D01*
X109517401Y-146221557D01*
X109510009Y-146222415D01*
X109503200Y-146225421D01*
X109503198Y-146225422D01*
X109415624Y-146264089D01*
X109415620Y-146264091D01*
X109407235Y-146267794D01*
X109400753Y-146274275D01*
X109400750Y-146274278D01*
X109334278Y-146340750D01*
X109334275Y-146340753D01*
X109327794Y-146347235D01*
X109324091Y-146355620D01*
X109324089Y-146355624D01*
X109285422Y-146443197D01*
X109285422Y-146443198D01*
X109282415Y-146450009D01*
X109281557Y-146457404D01*
X109281556Y-146457408D01*
X109279830Y-146472285D01*
X109279829Y-146472296D01*
X109279500Y-146475135D01*
X109279500Y-146477991D01*
X109279500Y-146477999D01*
X109279500Y-148162008D01*
X109279500Y-148162025D01*
X96240500Y-148162025D01*
X96240499Y-146475136D01*
X96237585Y-146450009D01*
X96192206Y-146347235D01*
X96112765Y-146267794D01*
X96104376Y-146264090D01*
X96104375Y-146264089D01*
X96016802Y-146225422D01*
X96016799Y-146225421D01*
X96009991Y-146222415D01*
X96002594Y-146221556D01*
X96002591Y-146221556D01*
X95987714Y-146219830D01*
X95987704Y-146219829D01*
X95984865Y-146219500D01*
X95982000Y-146219500D01*
X94297991Y-146219500D01*
X94297973Y-146219500D01*
X94295136Y-146219501D01*
X94292315Y-146219828D01*
X94292300Y-146219829D01*
X94277404Y-146221557D01*
X94277401Y-146221557D01*
X94270009Y-146222415D01*
X94263200Y-146225421D01*
X94263198Y-146225422D01*
X94175624Y-146264089D01*
X94175620Y-146264091D01*
X94167235Y-146267794D01*
X94160753Y-146274275D01*
X94160750Y-146274278D01*
X94094278Y-146340750D01*
X94094275Y-146340753D01*
X94087794Y-146347235D01*
X94084091Y-146355620D01*
X94084089Y-146355624D01*
X94045422Y-146443197D01*
X94045422Y-146443198D01*
X94042415Y-146450009D01*
X94041557Y-146457404D01*
X94041556Y-146457408D01*
X94039830Y-146472285D01*
X94039829Y-146472296D01*
X94039500Y-146475135D01*
X94039500Y-146477991D01*
X94039500Y-146477999D01*
X94039500Y-148162008D01*
X94039500Y-148162025D01*
X84696830Y-148162025D01*
X84635237Y-140542025D01*
X94079500Y-140542025D01*
X94079501Y-140544864D01*
X94079828Y-140547685D01*
X94079829Y-140547699D01*
X94081557Y-140562591D01*
X94082415Y-140569991D01*
X94127794Y-140672765D01*
X94207235Y-140752206D01*
X94310009Y-140797585D01*
X94335135Y-140800500D01*
X96024864Y-140800499D01*
X96049991Y-140797585D01*
X96152765Y-140752206D01*
X96232206Y-140672765D01*
X96277585Y-140569991D01*
X96280500Y-140544865D01*
X96280500Y-140000000D01*
X101054571Y-140000000D01*
X101074244Y-140212310D01*
X101075493Y-140216699D01*
X101075494Y-140216705D01*
X101131341Y-140412984D01*
X101131343Y-140412990D01*
X101132595Y-140417389D01*
X101227634Y-140608255D01*
X101230396Y-140611912D01*
X101353365Y-140774749D01*
X101353368Y-140774752D01*
X101356128Y-140778407D01*
X101359511Y-140781491D01*
X101359512Y-140781492D01*
X101480741Y-140892008D01*
X101513698Y-140922052D01*
X101694981Y-141034298D01*
X101893802Y-141111321D01*
X102103390Y-141150500D01*
X102312027Y-141150500D01*
X102316610Y-141150500D01*
X102526198Y-141111321D01*
X102725019Y-141034298D01*
X102906302Y-140922052D01*
X103063872Y-140778407D01*
X103192366Y-140608255D01*
X103287405Y-140417389D01*
X103345756Y-140212310D01*
X103365429Y-140000000D01*
X103345756Y-139787690D01*
X103287405Y-139582611D01*
X103192366Y-139391745D01*
X103063872Y-139221593D01*
X102906302Y-139077948D01*
X102902413Y-139075540D01*
X102902409Y-139075537D01*
X102743645Y-138977235D01*
X102725019Y-138965702D01*
X102682076Y-138949066D01*
X102530467Y-138890332D01*
X102530459Y-138890329D01*
X102526198Y-138888679D01*
X102521694Y-138887837D01*
X102321116Y-138850342D01*
X102321112Y-138850341D01*
X102316610Y-138849500D01*
X102103390Y-138849500D01*
X102098888Y-138850341D01*
X102098883Y-138850342D01*
X101898305Y-138887837D01*
X101898302Y-138887837D01*
X101893802Y-138888679D01*
X101889543Y-138890328D01*
X101889532Y-138890332D01*
X101699250Y-138964048D01*
X101699248Y-138964048D01*
X101694981Y-138965702D01*
X101691087Y-138968112D01*
X101691085Y-138968114D01*
X101517590Y-139075537D01*
X101517581Y-139075543D01*
X101513698Y-139077948D01*
X101510323Y-139081024D01*
X101510316Y-139081030D01*
X101359512Y-139218507D01*
X101359506Y-139218513D01*
X101356128Y-139221593D01*
X101353372Y-139225241D01*
X101353365Y-139225250D01*
X101230396Y-139388087D01*
X101227634Y-139391745D01*
X101225595Y-139395838D01*
X101225591Y-139395846D01*
X101134637Y-139578509D01*
X101134635Y-139578513D01*
X101132595Y-139582611D01*
X101131344Y-139587005D01*
X101131341Y-139587015D01*
X101075494Y-139783294D01*
X101075492Y-139783302D01*
X101074244Y-139787690D01*
X101054571Y-140000000D01*
X96280500Y-140000000D01*
X96280499Y-138855136D01*
X96277585Y-138830009D01*
X96232206Y-138727235D01*
X96152765Y-138647794D01*
X96144376Y-138644090D01*
X96144375Y-138644089D01*
X96056802Y-138605422D01*
X96056799Y-138605421D01*
X96049991Y-138602415D01*
X96042594Y-138601556D01*
X96042591Y-138601556D01*
X96027714Y-138599830D01*
X96027704Y-138599829D01*
X96024865Y-138599500D01*
X96022000Y-138599500D01*
X94337991Y-138599500D01*
X94337973Y-138599500D01*
X94335136Y-138599501D01*
X94332315Y-138599828D01*
X94332300Y-138599829D01*
X94317404Y-138601557D01*
X94317401Y-138601557D01*
X94310009Y-138602415D01*
X94303200Y-138605421D01*
X94303198Y-138605422D01*
X94215624Y-138644089D01*
X94215620Y-138644091D01*
X94207235Y-138647794D01*
X94200753Y-138654275D01*
X94200750Y-138654278D01*
X94134278Y-138720750D01*
X94134275Y-138720753D01*
X94127794Y-138727235D01*
X94124091Y-138735620D01*
X94124089Y-138735624D01*
X94085422Y-138823197D01*
X94085422Y-138823198D01*
X94082415Y-138830009D01*
X94081557Y-138837404D01*
X94081556Y-138837408D01*
X94079830Y-138852285D01*
X94079829Y-138852296D01*
X94079500Y-138855135D01*
X94079500Y-138857991D01*
X94079500Y-138857999D01*
X94079500Y-140542008D01*
X94079500Y-140542025D01*
X84635237Y-140542025D01*
X84610325Y-137460000D01*
X101054571Y-137460000D01*
X101054993Y-137464554D01*
X101066503Y-137588776D01*
X101074244Y-137672310D01*
X101075493Y-137676699D01*
X101075494Y-137676705D01*
X101131341Y-137872984D01*
X101131343Y-137872988D01*
X101132595Y-137877389D01*
X101134636Y-137881489D01*
X101134637Y-137881490D01*
X101182156Y-137976923D01*
X101227634Y-138068255D01*
X101241846Y-138087074D01*
X101353365Y-138234749D01*
X101353368Y-138234752D01*
X101356128Y-138238407D01*
X101513698Y-138382052D01*
X101694981Y-138494298D01*
X101893802Y-138571321D01*
X102103390Y-138610500D01*
X102312027Y-138610500D01*
X102316610Y-138610500D01*
X102526198Y-138571321D01*
X102725019Y-138494298D01*
X102906302Y-138382052D01*
X103063872Y-138238407D01*
X103192366Y-138068255D01*
X103287405Y-137877389D01*
X103345756Y-137672310D01*
X103365429Y-137460000D01*
X103594571Y-137460000D01*
X103594993Y-137464554D01*
X103606503Y-137588776D01*
X103614244Y-137672310D01*
X103615493Y-137676699D01*
X103615494Y-137676705D01*
X103671341Y-137872984D01*
X103671343Y-137872988D01*
X103672595Y-137877389D01*
X103674636Y-137881489D01*
X103674637Y-137881490D01*
X103722156Y-137976923D01*
X103767634Y-138068255D01*
X103781846Y-138087074D01*
X103893365Y-138234749D01*
X103893368Y-138234752D01*
X103896128Y-138238407D01*
X104053698Y-138382052D01*
X104234981Y-138494298D01*
X104433802Y-138571321D01*
X104643390Y-138610500D01*
X104852027Y-138610500D01*
X104856610Y-138610500D01*
X105066198Y-138571321D01*
X105173723Y-138529665D01*
X105226775Y-138524503D01*
X105274816Y-138547599D01*
X105303917Y-138592259D01*
X105305641Y-138645537D01*
X105279488Y-138691985D01*
X105150969Y-138820504D01*
X105118851Y-138841964D01*
X105080965Y-138849500D01*
X103857991Y-138849500D01*
X103857973Y-138849500D01*
X103855136Y-138849501D01*
X103852315Y-138849828D01*
X103852300Y-138849829D01*
X103837404Y-138851557D01*
X103837401Y-138851557D01*
X103830009Y-138852415D01*
X103823200Y-138855421D01*
X103823198Y-138855422D01*
X103735624Y-138894089D01*
X103735620Y-138894091D01*
X103727235Y-138897794D01*
X103720753Y-138904275D01*
X103720750Y-138904278D01*
X103654278Y-138970750D01*
X103654275Y-138970753D01*
X103647794Y-138977235D01*
X103644091Y-138985620D01*
X103644089Y-138985624D01*
X103605422Y-139073197D01*
X103605420Y-139073201D01*
X103602415Y-139080009D01*
X103601557Y-139087404D01*
X103601556Y-139087408D01*
X103599830Y-139102285D01*
X103599829Y-139102296D01*
X103599500Y-139105135D01*
X103599500Y-139107998D01*
X103599500Y-139107999D01*
X103599500Y-140892008D01*
X103599500Y-140892025D01*
X103599501Y-140894864D01*
X103599828Y-140897685D01*
X103599829Y-140897699D01*
X103601557Y-140912591D01*
X103602415Y-140919991D01*
X103647794Y-141022765D01*
X103727235Y-141102206D01*
X103830009Y-141147585D01*
X103855135Y-141150500D01*
X103989937Y-141150499D01*
X104035943Y-141161838D01*
X104071411Y-141193260D01*
X104088214Y-141237565D01*
X104082503Y-141284603D01*
X104066984Y-141325522D01*
X104066980Y-141325537D01*
X104064860Y-141331128D01*
X104064139Y-141337065D01*
X104064137Y-141337074D01*
X104045388Y-141491487D01*
X104044355Y-141500000D01*
X104045077Y-141505946D01*
X104064137Y-141662925D01*
X104064138Y-141662932D01*
X104064860Y-141668872D01*
X104125182Y-141827930D01*
X104128579Y-141832851D01*
X104128581Y-141832855D01*
X104181975Y-141910208D01*
X104199500Y-141966447D01*
X104199500Y-142488921D01*
X104199441Y-142492301D01*
X104197238Y-142556826D01*
X104198840Y-142563401D01*
X104198841Y-142563407D01*
X104207266Y-142597978D01*
X104209159Y-142607936D01*
X104214007Y-142643210D01*
X104214008Y-142643215D01*
X104214930Y-142649920D01*
X104217627Y-142656128D01*
X104222932Y-142668341D01*
X104228313Y-142684344D01*
X104233067Y-142703852D01*
X104236385Y-142709754D01*
X104236386Y-142709755D01*
X104253833Y-142740785D01*
X104258340Y-142749860D01*
X104275220Y-142788720D01*
X104279491Y-142793970D01*
X104279492Y-142793971D01*
X104287892Y-142804296D01*
X104297388Y-142818249D01*
X104307234Y-142835759D01*
X104312022Y-142840547D01*
X104337199Y-142865724D01*
X104343990Y-142873250D01*
X104370722Y-142906108D01*
X104376253Y-142910012D01*
X104387123Y-142917685D01*
X104400036Y-142928561D01*
X105780271Y-144308796D01*
X105799277Y-144335461D01*
X105808545Y-144366866D01*
X105814137Y-144412924D01*
X105814138Y-144412930D01*
X105814860Y-144418872D01*
X105816981Y-144424466D01*
X105816983Y-144424472D01*
X105873060Y-144572335D01*
X105875182Y-144577930D01*
X105878579Y-144582851D01*
X105878581Y-144582855D01*
X105953138Y-144690868D01*
X105971817Y-144717929D01*
X105976297Y-144721898D01*
X105976299Y-144721900D01*
X106011000Y-144752642D01*
X106099148Y-144830734D01*
X106249775Y-144909790D01*
X106414944Y-144950500D01*
X106579068Y-144950500D01*
X106585056Y-144950500D01*
X106750225Y-144909790D01*
X106900852Y-144830734D01*
X107028183Y-144717929D01*
X107124818Y-144577930D01*
X107169542Y-144460000D01*
X153694532Y-144460000D01*
X153694909Y-144464309D01*
X153713987Y-144682380D01*
X153713988Y-144682388D01*
X153714365Y-144686692D01*
X153718615Y-144702555D01*
X153772142Y-144902323D01*
X153772145Y-144902331D01*
X153773261Y-144906496D01*
X153775086Y-144910410D01*
X153775088Y-144910415D01*
X153867601Y-145108809D01*
X153867604Y-145108815D01*
X153869432Y-145112734D01*
X153871912Y-145116277D01*
X153871914Y-145116279D01*
X153997473Y-145295598D01*
X153997476Y-145295602D01*
X153999953Y-145299139D01*
X154160861Y-145460047D01*
X154347266Y-145590568D01*
X154553504Y-145686739D01*
X154773308Y-145745635D01*
X155000000Y-145765468D01*
X155226692Y-145745635D01*
X155446496Y-145686739D01*
X155652734Y-145590568D01*
X155839139Y-145460047D01*
X156000047Y-145299139D01*
X156130568Y-145112734D01*
X156226739Y-144906496D01*
X156285635Y-144686692D01*
X156305468Y-144460000D01*
X156285635Y-144233308D01*
X156226739Y-144013504D01*
X156130568Y-143807266D01*
X156000047Y-143620861D01*
X155839139Y-143459953D01*
X155835602Y-143457476D01*
X155835598Y-143457473D01*
X155656279Y-143331914D01*
X155656277Y-143331912D01*
X155652734Y-143329432D01*
X155648815Y-143327604D01*
X155648809Y-143327601D01*
X155450415Y-143235088D01*
X155450410Y-143235086D01*
X155446496Y-143233261D01*
X155442331Y-143232145D01*
X155442323Y-143232142D01*
X155230868Y-143175484D01*
X155226692Y-143174365D01*
X155222388Y-143173988D01*
X155222380Y-143173987D01*
X155004309Y-143154909D01*
X155000000Y-143154532D01*
X154995691Y-143154909D01*
X154777619Y-143173987D01*
X154777609Y-143173988D01*
X154773308Y-143174365D01*
X154769133Y-143175483D01*
X154769131Y-143175484D01*
X154557676Y-143232142D01*
X154557664Y-143232146D01*
X154553504Y-143233261D01*
X154549593Y-143235084D01*
X154549584Y-143235088D01*
X154351190Y-143327601D01*
X154351179Y-143327607D01*
X154347266Y-143329432D01*
X154343727Y-143331909D01*
X154343720Y-143331914D01*
X154164401Y-143457473D01*
X154164391Y-143457480D01*
X154160861Y-143459953D01*
X154157813Y-143463000D01*
X154157807Y-143463006D01*
X154003006Y-143617807D01*
X154003000Y-143617813D01*
X153999953Y-143620861D01*
X153997480Y-143624391D01*
X153997473Y-143624401D01*
X153871914Y-143803720D01*
X153871909Y-143803727D01*
X153869432Y-143807266D01*
X153867607Y-143811179D01*
X153867601Y-143811190D01*
X153775088Y-144009584D01*
X153775084Y-144009593D01*
X153773261Y-144013504D01*
X153772146Y-144017664D01*
X153772142Y-144017676D01*
X153715484Y-144229131D01*
X153714365Y-144233308D01*
X153713988Y-144237609D01*
X153713987Y-144237619D01*
X153698130Y-144418872D01*
X153694532Y-144460000D01*
X107169542Y-144460000D01*
X107185140Y-144418872D01*
X107205645Y-144250000D01*
X107185140Y-144081128D01*
X107124818Y-143922070D01*
X107028183Y-143782071D01*
X106900852Y-143669266D01*
X106808625Y-143620861D01*
X106755528Y-143592993D01*
X106755526Y-143592992D01*
X106750225Y-143590210D01*
X106744409Y-143588776D01*
X106744408Y-143588776D01*
X106602523Y-143553805D01*
X106556211Y-143527686D01*
X105329496Y-142300971D01*
X105308036Y-142268853D01*
X105300500Y-142230967D01*
X105300500Y-141966447D01*
X105318025Y-141910208D01*
X105371418Y-141832855D01*
X105374818Y-141827930D01*
X105435140Y-141668872D01*
X105455645Y-141500000D01*
X105435140Y-141331128D01*
X105417495Y-141284603D01*
X105411785Y-141237566D01*
X105428588Y-141193261D01*
X105464055Y-141161839D01*
X105510063Y-141150499D01*
X105642009Y-141150499D01*
X105644864Y-141150499D01*
X105669991Y-141147585D01*
X105772765Y-141102206D01*
X105852206Y-141022765D01*
X105897585Y-140919991D01*
X105900500Y-140894865D01*
X105900499Y-139669032D01*
X105908035Y-139631147D01*
X105929495Y-139599029D01*
X106699029Y-138829496D01*
X106731147Y-138808036D01*
X106769033Y-138800500D01*
X108027476Y-138800500D01*
X108062582Y-138806934D01*
X108093122Y-138825395D01*
X108099148Y-138830734D01*
X108249775Y-138909790D01*
X108414944Y-138950500D01*
X108579068Y-138950500D01*
X108585056Y-138950500D01*
X108750225Y-138909790D01*
X108900852Y-138830734D01*
X109028183Y-138717929D01*
X109124818Y-138577930D01*
X109185140Y-138418872D01*
X109205645Y-138250000D01*
X109185140Y-138081128D01*
X109124818Y-137922070D01*
X109100698Y-137887127D01*
X109066233Y-137837196D01*
X109028183Y-137782071D01*
X109017404Y-137772522D01*
X108945104Y-137708470D01*
X108900852Y-137669266D01*
X108750225Y-137590210D01*
X108744409Y-137588776D01*
X108744408Y-137588776D01*
X108590871Y-137550933D01*
X108590868Y-137550932D01*
X108585056Y-137549500D01*
X108414944Y-137549500D01*
X108409131Y-137550932D01*
X108409128Y-137550933D01*
X108255591Y-137588776D01*
X108255587Y-137588777D01*
X108249775Y-137590210D01*
X108244476Y-137592990D01*
X108244471Y-137592993D01*
X108104453Y-137666481D01*
X108104452Y-137666482D01*
X108099148Y-137669266D01*
X108093122Y-137674604D01*
X108062582Y-137693066D01*
X108027476Y-137699500D01*
X106511096Y-137699500D01*
X106507716Y-137699442D01*
X106449942Y-137697468D01*
X106449940Y-137697468D01*
X106443174Y-137697237D01*
X106436597Y-137698839D01*
X106436594Y-137698840D01*
X106402012Y-137707268D01*
X106392053Y-137709161D01*
X106356787Y-137714008D01*
X106356785Y-137714008D01*
X106350080Y-137714930D01*
X106343873Y-137717625D01*
X106343869Y-137717627D01*
X106331650Y-137722934D01*
X106315662Y-137728310D01*
X106302730Y-137731462D01*
X106302724Y-137731464D01*
X106296148Y-137733067D01*
X106290248Y-137736384D01*
X106290246Y-137736385D01*
X106259219Y-137753830D01*
X106250146Y-137758337D01*
X106217490Y-137772522D01*
X106217487Y-137772523D01*
X106211280Y-137775220D01*
X106206032Y-137779489D01*
X106206021Y-137779496D01*
X106195699Y-137787894D01*
X106181752Y-137797387D01*
X106170142Y-137803915D01*
X106170137Y-137803918D01*
X106164241Y-137807234D01*
X106159460Y-137812014D01*
X106159449Y-137812023D01*
X106134276Y-137837196D01*
X106126755Y-137843983D01*
X106099149Y-137866443D01*
X106099141Y-137866451D01*
X106093892Y-137870722D01*
X106089989Y-137876250D01*
X106089986Y-137876254D01*
X106082311Y-137887127D01*
X106071438Y-137900035D01*
X105989873Y-137981600D01*
X105943422Y-138007753D01*
X105890143Y-138006028D01*
X105845482Y-137976923D01*
X105822389Y-137928878D01*
X105827406Y-137877389D01*
X105827405Y-137877389D01*
X105885756Y-137672310D01*
X105905429Y-137460000D01*
X105885756Y-137247690D01*
X105827405Y-137042611D01*
X105732366Y-136851745D01*
X105603872Y-136681593D01*
X105446302Y-136537948D01*
X105442413Y-136535540D01*
X105442409Y-136535537D01*
X105331643Y-136466954D01*
X105265019Y-136425702D01*
X105224029Y-136409822D01*
X105070467Y-136350332D01*
X105070459Y-136350329D01*
X105066198Y-136348679D01*
X105061694Y-136347837D01*
X104861116Y-136310342D01*
X104861112Y-136310341D01*
X104856610Y-136309500D01*
X104643390Y-136309500D01*
X104638888Y-136310341D01*
X104638883Y-136310342D01*
X104438305Y-136347837D01*
X104438302Y-136347837D01*
X104433802Y-136348679D01*
X104429543Y-136350328D01*
X104429532Y-136350332D01*
X104239250Y-136424048D01*
X104239248Y-136424048D01*
X104234981Y-136425702D01*
X104231087Y-136428112D01*
X104231085Y-136428114D01*
X104057590Y-136535537D01*
X104057581Y-136535543D01*
X104053698Y-136537948D01*
X104050323Y-136541024D01*
X104050316Y-136541030D01*
X103899512Y-136678507D01*
X103899506Y-136678513D01*
X103896128Y-136681593D01*
X103893372Y-136685241D01*
X103893365Y-136685250D01*
X103770396Y-136848087D01*
X103767634Y-136851745D01*
X103765595Y-136855838D01*
X103765591Y-136855846D01*
X103674637Y-137038509D01*
X103674635Y-137038513D01*
X103672595Y-137042611D01*
X103671344Y-137047005D01*
X103671341Y-137047015D01*
X103615494Y-137243294D01*
X103615492Y-137243302D01*
X103614244Y-137247690D01*
X103594571Y-137460000D01*
X103365429Y-137460000D01*
X103345756Y-137247690D01*
X103287405Y-137042611D01*
X103192366Y-136851745D01*
X103063872Y-136681593D01*
X102906302Y-136537948D01*
X102902413Y-136535540D01*
X102902409Y-136535537D01*
X102791643Y-136466954D01*
X102725019Y-136425702D01*
X102684029Y-136409822D01*
X102530467Y-136350332D01*
X102530459Y-136350329D01*
X102526198Y-136348679D01*
X102521694Y-136347837D01*
X102321116Y-136310342D01*
X102321112Y-136310341D01*
X102316610Y-136309500D01*
X102103390Y-136309500D01*
X102098888Y-136310341D01*
X102098883Y-136310342D01*
X101898305Y-136347837D01*
X101898302Y-136347837D01*
X101893802Y-136348679D01*
X101889543Y-136350328D01*
X101889532Y-136350332D01*
X101699250Y-136424048D01*
X101699248Y-136424048D01*
X101694981Y-136425702D01*
X101691087Y-136428112D01*
X101691085Y-136428114D01*
X101517590Y-136535537D01*
X101517581Y-136535543D01*
X101513698Y-136537948D01*
X101510323Y-136541024D01*
X101510316Y-136541030D01*
X101359512Y-136678507D01*
X101359506Y-136678513D01*
X101356128Y-136681593D01*
X101353372Y-136685241D01*
X101353365Y-136685250D01*
X101230396Y-136848087D01*
X101227634Y-136851745D01*
X101225595Y-136855838D01*
X101225591Y-136855846D01*
X101134637Y-137038509D01*
X101134635Y-137038513D01*
X101132595Y-137042611D01*
X101131344Y-137047005D01*
X101131341Y-137047015D01*
X101075494Y-137243294D01*
X101075492Y-137243302D01*
X101074244Y-137247690D01*
X101054571Y-137460000D01*
X84610325Y-137460000D01*
X84588794Y-134796231D01*
X84577855Y-134717646D01*
X84568397Y-134683276D01*
X84570821Y-134623147D01*
X84602552Y-134582088D01*
X84601352Y-134580734D01*
X84660765Y-134528099D01*
X84720254Y-134475396D01*
X84750796Y-134456933D01*
X84785902Y-134450500D01*
X85772389Y-134450500D01*
X85810275Y-134458036D01*
X85842392Y-134479496D01*
X86267691Y-134904794D01*
X86291272Y-134942503D01*
X86295966Y-134986729D01*
X86294355Y-135000000D01*
X86295077Y-135005946D01*
X86314137Y-135162925D01*
X86314138Y-135162932D01*
X86314860Y-135168872D01*
X86375182Y-135327930D01*
X86378579Y-135332851D01*
X86378581Y-135332855D01*
X86468414Y-135462999D01*
X86471817Y-135467929D01*
X86599148Y-135580734D01*
X86749775Y-135659790D01*
X86914944Y-135700500D01*
X87079068Y-135700500D01*
X87085056Y-135700500D01*
X87250225Y-135659790D01*
X87400852Y-135580734D01*
X87528183Y-135467929D01*
X87624818Y-135327930D01*
X87685140Y-135168872D01*
X87705645Y-135000000D01*
X87685140Y-134831128D01*
X87624818Y-134672070D01*
X87528183Y-134532071D01*
X87400852Y-134419266D01*
X87386313Y-134411635D01*
X87255528Y-134342993D01*
X87255526Y-134342992D01*
X87250225Y-134340210D01*
X87244409Y-134338776D01*
X87244408Y-134338776D01*
X87090871Y-134300933D01*
X87090868Y-134300932D01*
X87085056Y-134299500D01*
X87079068Y-134299500D01*
X86977611Y-134299500D01*
X86939725Y-134291964D01*
X86907607Y-134270504D01*
X86637103Y-134000000D01*
X95794355Y-134000000D01*
X95795077Y-134005946D01*
X95814137Y-134162925D01*
X95814138Y-134162932D01*
X95814860Y-134168872D01*
X95816982Y-134174468D01*
X95816983Y-134174471D01*
X95873060Y-134322335D01*
X95875182Y-134327930D01*
X95878579Y-134332851D01*
X95878581Y-134332855D01*
X95964227Y-134456933D01*
X95971817Y-134467929D01*
X95976297Y-134471898D01*
X95976299Y-134471900D01*
X95984873Y-134479496D01*
X96099148Y-134580734D01*
X96249775Y-134659790D01*
X96414944Y-134700500D01*
X96579068Y-134700500D01*
X96585056Y-134700500D01*
X96750225Y-134659790D01*
X96900852Y-134580734D01*
X97028183Y-134467929D01*
X97124818Y-134327930D01*
X97185140Y-134168872D01*
X97205645Y-134000000D01*
X97185140Y-133831128D01*
X97124818Y-133672070D01*
X97028183Y-133532071D01*
X97023699Y-133528098D01*
X97023695Y-133528094D01*
X96983851Y-133492795D01*
X96959222Y-133459324D01*
X96950500Y-133418693D01*
X96950500Y-133361207D01*
X105944960Y-133361207D01*
X105945682Y-133367153D01*
X105964742Y-133524132D01*
X105964743Y-133524139D01*
X105965465Y-133530079D01*
X105967587Y-133535675D01*
X105967588Y-133535678D01*
X106008977Y-133644813D01*
X106025787Y-133689137D01*
X106029184Y-133694058D01*
X106029186Y-133694062D01*
X106033630Y-133700500D01*
X106122422Y-133829136D01*
X106249753Y-133941941D01*
X106400380Y-134020997D01*
X106565549Y-134061707D01*
X106729673Y-134061707D01*
X106735661Y-134061707D01*
X106900830Y-134020997D01*
X107051457Y-133941941D01*
X107178788Y-133829136D01*
X107275423Y-133689137D01*
X107335745Y-133530079D01*
X107356250Y-133361207D01*
X107346982Y-133284882D01*
X107351675Y-133240657D01*
X107375254Y-133202949D01*
X107578203Y-133000000D01*
X166194451Y-133000000D01*
X166194728Y-133003696D01*
X166214339Y-133265404D01*
X166214340Y-133265414D01*
X166214617Y-133269103D01*
X166215439Y-133272707D01*
X166215441Y-133272716D01*
X166254655Y-133444523D01*
X166274666Y-133532195D01*
X166276016Y-133535635D01*
X166276018Y-133535641D01*
X166364358Y-133760726D01*
X166373257Y-133783398D01*
X166508185Y-134017102D01*
X166676439Y-134228085D01*
X166874259Y-134411635D01*
X166877319Y-134413721D01*
X166877320Y-134413722D01*
X167094170Y-134561568D01*
X167094175Y-134561570D01*
X167097226Y-134563651D01*
X167340359Y-134680738D01*
X167343887Y-134681826D01*
X167343889Y-134681827D01*
X167348600Y-134683280D01*
X167598228Y-134760280D01*
X167865071Y-134800500D01*
X168131224Y-134800500D01*
X168134929Y-134800500D01*
X168401772Y-134760280D01*
X168659641Y-134680738D01*
X168902775Y-134563651D01*
X169125741Y-134411635D01*
X169323561Y-134228085D01*
X169491815Y-134017102D01*
X169626743Y-133783398D01*
X169725334Y-133532195D01*
X169785383Y-133269103D01*
X169805549Y-133000000D01*
X169785383Y-132730897D01*
X169725334Y-132467805D01*
X169626743Y-132216602D01*
X169491815Y-131982898D01*
X169323561Y-131771915D01*
X169125741Y-131588365D01*
X169122682Y-131586279D01*
X169122679Y-131586277D01*
X168905833Y-131438434D01*
X168902775Y-131436349D01*
X168899440Y-131434743D01*
X168899435Y-131434740D01*
X168662975Y-131320867D01*
X168662968Y-131320864D01*
X168659641Y-131319262D01*
X168656117Y-131318175D01*
X168656107Y-131318171D01*
X168405313Y-131240812D01*
X168405309Y-131240811D01*
X168401772Y-131239720D01*
X168387248Y-131237530D01*
X168138593Y-131200052D01*
X168138589Y-131200051D01*
X168134929Y-131199500D01*
X167865071Y-131199500D01*
X167861411Y-131200051D01*
X167861406Y-131200052D01*
X167601896Y-131239167D01*
X167601894Y-131239167D01*
X167598228Y-131239720D01*
X167594692Y-131240810D01*
X167594686Y-131240812D01*
X167343889Y-131318172D01*
X167343875Y-131318177D01*
X167340359Y-131319262D01*
X167337036Y-131320862D01*
X167337029Y-131320865D01*
X167100558Y-131434744D01*
X167100553Y-131434746D01*
X167097226Y-131436349D01*
X167094184Y-131438422D01*
X167094170Y-131438431D01*
X166877320Y-131586277D01*
X166877310Y-131586284D01*
X166874259Y-131588365D01*
X166871545Y-131590883D01*
X166871539Y-131590888D01*
X166679153Y-131769396D01*
X166679147Y-131769401D01*
X166676439Y-131771915D01*
X166674137Y-131774801D01*
X166674131Y-131774808D01*
X166510493Y-131980003D01*
X166510488Y-131980009D01*
X166508185Y-131982898D01*
X166506339Y-131986093D01*
X166506335Y-131986101D01*
X166375107Y-132213397D01*
X166373257Y-132216602D01*
X166371904Y-132220047D01*
X166371903Y-132220051D01*
X166276018Y-132464358D01*
X166276014Y-132464368D01*
X166274666Y-132467805D01*
X166273843Y-132471407D01*
X166273843Y-132471410D01*
X166215441Y-132727283D01*
X166215439Y-132727294D01*
X166214617Y-132730897D01*
X166214340Y-132734583D01*
X166214339Y-132734595D01*
X166202079Y-132898207D01*
X166194451Y-133000000D01*
X107578203Y-133000000D01*
X107940412Y-132637791D01*
X107983014Y-132613766D01*
X107982864Y-132613369D01*
X107985477Y-132612377D01*
X107986729Y-132611672D01*
X107994280Y-132609811D01*
X108144907Y-132530755D01*
X108272238Y-132417950D01*
X108368873Y-132277951D01*
X108429195Y-132118893D01*
X108449700Y-131950021D01*
X108429195Y-131781149D01*
X108368873Y-131622091D01*
X108345593Y-131588365D01*
X108275640Y-131487021D01*
X108272238Y-131482092D01*
X108260739Y-131471905D01*
X108149389Y-131373258D01*
X108144907Y-131369287D01*
X108139603Y-131366503D01*
X107999583Y-131293014D01*
X107999581Y-131293013D01*
X107994280Y-131290231D01*
X107988464Y-131288797D01*
X107988463Y-131288797D01*
X107834926Y-131250954D01*
X107834923Y-131250953D01*
X107829111Y-131249521D01*
X107658999Y-131249521D01*
X107653186Y-131250953D01*
X107653183Y-131250954D01*
X107499646Y-131288797D01*
X107499642Y-131288798D01*
X107493830Y-131290231D01*
X107488531Y-131293011D01*
X107488526Y-131293014D01*
X107348506Y-131366503D01*
X107348501Y-131366506D01*
X107343203Y-131369287D01*
X107338722Y-131373255D01*
X107338720Y-131373258D01*
X107220354Y-131478120D01*
X107220348Y-131478126D01*
X107215872Y-131482092D01*
X107212472Y-131487017D01*
X107212469Y-131487021D01*
X107122636Y-131617165D01*
X107122632Y-131617172D01*
X107119237Y-131622091D01*
X107117116Y-131627681D01*
X107117115Y-131627685D01*
X107061038Y-131775549D01*
X107061036Y-131775554D01*
X107058915Y-131781149D01*
X107058194Y-131787086D01*
X107058192Y-131787095D01*
X107039443Y-131941508D01*
X107038410Y-131950021D01*
X107039132Y-131955967D01*
X107058192Y-132112946D01*
X107058193Y-132112953D01*
X107058915Y-132118893D01*
X107061038Y-132124490D01*
X107061039Y-132124495D01*
X107109800Y-132253071D01*
X107114028Y-132308955D01*
X107087237Y-132358180D01*
X106812836Y-132632581D01*
X106775131Y-132656160D01*
X106735661Y-132660351D01*
X106735661Y-132660707D01*
X106565549Y-132660707D01*
X106559736Y-132662139D01*
X106559733Y-132662140D01*
X106406196Y-132699983D01*
X106406192Y-132699984D01*
X106400380Y-132701417D01*
X106395081Y-132704197D01*
X106395076Y-132704200D01*
X106255056Y-132777689D01*
X106255051Y-132777692D01*
X106249753Y-132780473D01*
X106245272Y-132784441D01*
X106245270Y-132784444D01*
X106126904Y-132889306D01*
X106126898Y-132889312D01*
X106122422Y-132893278D01*
X106119022Y-132898203D01*
X106119019Y-132898207D01*
X106029186Y-133028351D01*
X106029182Y-133028358D01*
X106025787Y-133033277D01*
X106023666Y-133038867D01*
X106023665Y-133038871D01*
X105967588Y-133186735D01*
X105967586Y-133186740D01*
X105965465Y-133192335D01*
X105964744Y-133198272D01*
X105964742Y-133198281D01*
X105948402Y-133332859D01*
X105944960Y-133361207D01*
X96950500Y-133361207D01*
X96950500Y-131581307D01*
X96959222Y-131540676D01*
X96983851Y-131507205D01*
X97023695Y-131471905D01*
X97023694Y-131471905D01*
X97028183Y-131467929D01*
X97124818Y-131327930D01*
X97185140Y-131168872D01*
X97205645Y-131000000D01*
X97185140Y-130831128D01*
X97124818Y-130672070D01*
X97028183Y-130532071D01*
X96900852Y-130419266D01*
X96887660Y-130412342D01*
X96755528Y-130342993D01*
X96755526Y-130342992D01*
X96750225Y-130340210D01*
X96744409Y-130338776D01*
X96744408Y-130338776D01*
X96590871Y-130300933D01*
X96590868Y-130300932D01*
X96585056Y-130299500D01*
X96414944Y-130299500D01*
X96409131Y-130300932D01*
X96409128Y-130300933D01*
X96255591Y-130338776D01*
X96255587Y-130338777D01*
X96249775Y-130340210D01*
X96244476Y-130342990D01*
X96244471Y-130342993D01*
X96104451Y-130416482D01*
X96104446Y-130416485D01*
X96099148Y-130419266D01*
X96094667Y-130423234D01*
X96094665Y-130423237D01*
X95976299Y-130528099D01*
X95976293Y-130528105D01*
X95971817Y-130532071D01*
X95968417Y-130536996D01*
X95968414Y-130537000D01*
X95878581Y-130667144D01*
X95878577Y-130667151D01*
X95875182Y-130672070D01*
X95873061Y-130677660D01*
X95873060Y-130677664D01*
X95816983Y-130825528D01*
X95816981Y-130825533D01*
X95814860Y-130831128D01*
X95814139Y-130837065D01*
X95814137Y-130837074D01*
X95795388Y-130991487D01*
X95794355Y-131000000D01*
X95795077Y-131005946D01*
X95814137Y-131162925D01*
X95814138Y-131162932D01*
X95814860Y-131168872D01*
X95816982Y-131174468D01*
X95816983Y-131174471D01*
X95845989Y-131250954D01*
X95875182Y-131327930D01*
X95878579Y-131332851D01*
X95878581Y-131332855D01*
X95906470Y-131373258D01*
X95971817Y-131467929D01*
X95976300Y-131471900D01*
X95976304Y-131471905D01*
X96016149Y-131507205D01*
X96040778Y-131540676D01*
X96049500Y-131581307D01*
X96049500Y-133418693D01*
X96040778Y-133459324D01*
X96016149Y-133492795D01*
X95976304Y-133528094D01*
X95976296Y-133528102D01*
X95971817Y-133532071D01*
X95968417Y-133536996D01*
X95968414Y-133537000D01*
X95878581Y-133667144D01*
X95878577Y-133667151D01*
X95875182Y-133672070D01*
X95873061Y-133677660D01*
X95873060Y-133677664D01*
X95816983Y-133825528D01*
X95816981Y-133825533D01*
X95814860Y-133831128D01*
X95814139Y-133837065D01*
X95814137Y-133837074D01*
X95795388Y-133991487D01*
X95794355Y-134000000D01*
X86637103Y-134000000D01*
X86375967Y-133738864D01*
X86348250Y-133684724D01*
X86357417Y-133624597D01*
X86392172Y-133589164D01*
X86390622Y-133586918D01*
X86395549Y-133583517D01*
X86400852Y-133580734D01*
X86528183Y-133467929D01*
X86545210Y-133443260D01*
X86580677Y-133411840D01*
X86626685Y-133400500D01*
X87873315Y-133400500D01*
X87919323Y-133411840D01*
X87954789Y-133443260D01*
X87971817Y-133467929D01*
X88099148Y-133580734D01*
X88249775Y-133659790D01*
X88414944Y-133700500D01*
X88579068Y-133700500D01*
X88585056Y-133700500D01*
X88750225Y-133659790D01*
X88900852Y-133580734D01*
X89028183Y-133467929D01*
X89124818Y-133327930D01*
X89185140Y-133168872D01*
X89205645Y-133000000D01*
X89185140Y-132831128D01*
X89124818Y-132672070D01*
X89117077Y-132660856D01*
X89066899Y-132588160D01*
X89028183Y-132532071D01*
X89022214Y-132526783D01*
X88905334Y-132423237D01*
X88900852Y-132419266D01*
X88895548Y-132416482D01*
X88755528Y-132342993D01*
X88755526Y-132342992D01*
X88750225Y-132340210D01*
X88744409Y-132338776D01*
X88744408Y-132338776D01*
X88590871Y-132300933D01*
X88590868Y-132300932D01*
X88585056Y-132299500D01*
X88414944Y-132299500D01*
X88409131Y-132300932D01*
X88409128Y-132300933D01*
X88255591Y-132338776D01*
X88255587Y-132338777D01*
X88249775Y-132340210D01*
X88244476Y-132342990D01*
X88244471Y-132342993D01*
X88104451Y-132416482D01*
X88104446Y-132416485D01*
X88099148Y-132419266D01*
X88094667Y-132423234D01*
X88094665Y-132423237D01*
X87976299Y-132528099D01*
X87976293Y-132528105D01*
X87971817Y-132532071D01*
X87968416Y-132536997D01*
X87968416Y-132536998D01*
X87954791Y-132556738D01*
X87919323Y-132588160D01*
X87873315Y-132599500D01*
X86626685Y-132599500D01*
X86580677Y-132588160D01*
X86545209Y-132556738D01*
X86528183Y-132532071D01*
X86522214Y-132526783D01*
X86405334Y-132423237D01*
X86400852Y-132419266D01*
X86395548Y-132416482D01*
X86255528Y-132342993D01*
X86255526Y-132342992D01*
X86250225Y-132340210D01*
X86244409Y-132338776D01*
X86244408Y-132338776D01*
X86090871Y-132300933D01*
X86090868Y-132300932D01*
X86085056Y-132299500D01*
X85914944Y-132299500D01*
X85909131Y-132300932D01*
X85909128Y-132300933D01*
X85755591Y-132338776D01*
X85755587Y-132338777D01*
X85749775Y-132340210D01*
X85744476Y-132342990D01*
X85744471Y-132342993D01*
X85604451Y-132416482D01*
X85604446Y-132416485D01*
X85599148Y-132419266D01*
X85594667Y-132423234D01*
X85594665Y-132423237D01*
X85476299Y-132528099D01*
X85476293Y-132528105D01*
X85471817Y-132532071D01*
X85468417Y-132536996D01*
X85468414Y-132537000D01*
X85378581Y-132667144D01*
X85378577Y-132667151D01*
X85375182Y-132672070D01*
X85373061Y-132677660D01*
X85373060Y-132677664D01*
X85316983Y-132825528D01*
X85316981Y-132825533D01*
X85314860Y-132831128D01*
X85314139Y-132837065D01*
X85314137Y-132837074D01*
X85295388Y-132991487D01*
X85294355Y-133000000D01*
X85295077Y-133005946D01*
X85314137Y-133162925D01*
X85314138Y-133162932D01*
X85314860Y-133168872D01*
X85316982Y-133174468D01*
X85316983Y-133174471D01*
X85358857Y-133284885D01*
X85375182Y-133327930D01*
X85378582Y-133332855D01*
X85378584Y-133332859D01*
X85420967Y-133394262D01*
X85438311Y-133444523D01*
X85427152Y-133496508D01*
X85390708Y-133535222D01*
X85339492Y-133549500D01*
X84785902Y-133549500D01*
X84750796Y-133543067D01*
X84720253Y-133524603D01*
X84719721Y-133524132D01*
X84601352Y-133419266D01*
X84596603Y-133416773D01*
X84560194Y-133369979D01*
X84557198Y-133310514D01*
X84563881Y-133284885D01*
X84565994Y-133276782D01*
X84575868Y-133197231D01*
X84551504Y-130183102D01*
X90189500Y-130183102D01*
X90189850Y-130186019D01*
X90189851Y-130186030D01*
X90199366Y-130265262D01*
X90200123Y-130271564D01*
X90255639Y-130412342D01*
X90347078Y-130532922D01*
X90467658Y-130624361D01*
X90608436Y-130679877D01*
X90696898Y-130690500D01*
X91980150Y-130690500D01*
X91983102Y-130690500D01*
X92071564Y-130679877D01*
X92212342Y-130624361D01*
X92332922Y-130532922D01*
X92424361Y-130412342D01*
X92479877Y-130271564D01*
X92490500Y-130183102D01*
X92490500Y-128896898D01*
X92479877Y-128808436D01*
X92424361Y-128667658D01*
X92332922Y-128547078D01*
X92212342Y-128455639D01*
X92071564Y-128400123D01*
X92065263Y-128399366D01*
X92065262Y-128399366D01*
X91986030Y-128389851D01*
X91986019Y-128389850D01*
X91983102Y-128389500D01*
X90696898Y-128389500D01*
X90693981Y-128389850D01*
X90693969Y-128389851D01*
X90614737Y-128399366D01*
X90614734Y-128399366D01*
X90608436Y-128400123D01*
X90602532Y-128402451D01*
X90602529Y-128402452D01*
X90473958Y-128453154D01*
X90473954Y-128453155D01*
X90467658Y-128455639D01*
X90462266Y-128459727D01*
X90462264Y-128459729D01*
X90352473Y-128542986D01*
X90352469Y-128542989D01*
X90347078Y-128547078D01*
X90342989Y-128552469D01*
X90342986Y-128552473D01*
X90259729Y-128662264D01*
X90255639Y-128667658D01*
X90253155Y-128673954D01*
X90253154Y-128673958D01*
X90208733Y-128786602D01*
X90200123Y-128808436D01*
X90199366Y-128814734D01*
X90199366Y-128814737D01*
X90189851Y-128893969D01*
X90189850Y-128893981D01*
X90189500Y-128896898D01*
X90189500Y-130183102D01*
X84551504Y-130183102D01*
X84525774Y-127000000D01*
X90184571Y-127000000D01*
X90204244Y-127212310D01*
X90205493Y-127216699D01*
X90205494Y-127216705D01*
X90261341Y-127412984D01*
X90261343Y-127412990D01*
X90262595Y-127417389D01*
X90264636Y-127421489D01*
X90264637Y-127421490D01*
X90285982Y-127464358D01*
X90357634Y-127608255D01*
X90360396Y-127611912D01*
X90483365Y-127774749D01*
X90483368Y-127774752D01*
X90486128Y-127778407D01*
X90643698Y-127922052D01*
X90824981Y-128034298D01*
X91023802Y-128111321D01*
X91233390Y-128150500D01*
X91442027Y-128150500D01*
X91446610Y-128150500D01*
X91656198Y-128111321D01*
X91855019Y-128034298D01*
X91910412Y-128000000D01*
X166194451Y-128000000D01*
X166194728Y-128003696D01*
X166214339Y-128265404D01*
X166214340Y-128265414D01*
X166214617Y-128269103D01*
X166215439Y-128272707D01*
X166215441Y-128272716D01*
X166258126Y-128459729D01*
X166274666Y-128532195D01*
X166276016Y-128535635D01*
X166276018Y-128535641D01*
X166325715Y-128662264D01*
X166373257Y-128783398D01*
X166508185Y-129017102D01*
X166676439Y-129228085D01*
X166874259Y-129411635D01*
X166877319Y-129413721D01*
X166877320Y-129413722D01*
X167094170Y-129561568D01*
X167094175Y-129561570D01*
X167097226Y-129563651D01*
X167340359Y-129680738D01*
X167343887Y-129681826D01*
X167343889Y-129681827D01*
X167404566Y-129700543D01*
X167598228Y-129760280D01*
X167865071Y-129800500D01*
X168131224Y-129800500D01*
X168134929Y-129800500D01*
X168401772Y-129760280D01*
X168659641Y-129680738D01*
X168902775Y-129563651D01*
X169125741Y-129411635D01*
X169323561Y-129228085D01*
X169491815Y-129017102D01*
X169626743Y-128783398D01*
X169725334Y-128532195D01*
X169785383Y-128269103D01*
X169805549Y-128000000D01*
X169785383Y-127730897D01*
X169725334Y-127467805D01*
X169626743Y-127216602D01*
X169491815Y-126982898D01*
X169323561Y-126771915D01*
X169125741Y-126588365D01*
X169122682Y-126586279D01*
X169122679Y-126586277D01*
X168905833Y-126438434D01*
X168902775Y-126436349D01*
X168899440Y-126434743D01*
X168899435Y-126434740D01*
X168662975Y-126320867D01*
X168662968Y-126320864D01*
X168659641Y-126319262D01*
X168656117Y-126318175D01*
X168656107Y-126318171D01*
X168405313Y-126240812D01*
X168405309Y-126240811D01*
X168401772Y-126239720D01*
X168305770Y-126225250D01*
X168138593Y-126200052D01*
X168138589Y-126200051D01*
X168134929Y-126199500D01*
X167865071Y-126199500D01*
X167861411Y-126200051D01*
X167861406Y-126200052D01*
X167601896Y-126239167D01*
X167601894Y-126239167D01*
X167598228Y-126239720D01*
X167594692Y-126240810D01*
X167594686Y-126240812D01*
X167343889Y-126318172D01*
X167343875Y-126318177D01*
X167340359Y-126319262D01*
X167337036Y-126320862D01*
X167337029Y-126320865D01*
X167100558Y-126434744D01*
X167100553Y-126434746D01*
X167097226Y-126436349D01*
X167094184Y-126438422D01*
X167094170Y-126438431D01*
X166877320Y-126586277D01*
X166877310Y-126586284D01*
X166874259Y-126588365D01*
X166871545Y-126590883D01*
X166871539Y-126590888D01*
X166679153Y-126769396D01*
X166679147Y-126769401D01*
X166676439Y-126771915D01*
X166674137Y-126774801D01*
X166674131Y-126774808D01*
X166510493Y-126980003D01*
X166510488Y-126980009D01*
X166508185Y-126982898D01*
X166506339Y-126986093D01*
X166506335Y-126986101D01*
X166378362Y-127207759D01*
X166373257Y-127216602D01*
X166371904Y-127220047D01*
X166371903Y-127220051D01*
X166276018Y-127464358D01*
X166276014Y-127464368D01*
X166274666Y-127467805D01*
X166273843Y-127471407D01*
X166273843Y-127471410D01*
X166215441Y-127727283D01*
X166215439Y-127727294D01*
X166214617Y-127730897D01*
X166214340Y-127734583D01*
X166214339Y-127734595D01*
X166195368Y-127987755D01*
X166194451Y-128000000D01*
X91910412Y-128000000D01*
X92036302Y-127922052D01*
X92193872Y-127778407D01*
X92322366Y-127608255D01*
X92417405Y-127417389D01*
X92475756Y-127212310D01*
X92495429Y-127000000D01*
X92475756Y-126787690D01*
X92417405Y-126582611D01*
X92322366Y-126391745D01*
X92207561Y-126239720D01*
X92196634Y-126225250D01*
X92196632Y-126225247D01*
X92193872Y-126221593D01*
X92036302Y-126077948D01*
X92032413Y-126075540D01*
X92032409Y-126075537D01*
X91921643Y-126006954D01*
X91855019Y-125965702D01*
X91814029Y-125949822D01*
X91660467Y-125890332D01*
X91660459Y-125890329D01*
X91656198Y-125888679D01*
X91651694Y-125887837D01*
X91451116Y-125850342D01*
X91451112Y-125850341D01*
X91446610Y-125849500D01*
X91233390Y-125849500D01*
X91228888Y-125850341D01*
X91228883Y-125850342D01*
X91028305Y-125887837D01*
X91028302Y-125887837D01*
X91023802Y-125888679D01*
X91019543Y-125890328D01*
X91019532Y-125890332D01*
X90829250Y-125964048D01*
X90829248Y-125964048D01*
X90824981Y-125965702D01*
X90821087Y-125968112D01*
X90821085Y-125968114D01*
X90647590Y-126075537D01*
X90647581Y-126075543D01*
X90643698Y-126077948D01*
X90640323Y-126081024D01*
X90640316Y-126081030D01*
X90489512Y-126218507D01*
X90489506Y-126218513D01*
X90486128Y-126221593D01*
X90483372Y-126225241D01*
X90483365Y-126225250D01*
X90360396Y-126388087D01*
X90357634Y-126391745D01*
X90355595Y-126395838D01*
X90355591Y-126395846D01*
X90264637Y-126578509D01*
X90264635Y-126578513D01*
X90262595Y-126582611D01*
X90261344Y-126587005D01*
X90261341Y-126587015D01*
X90205494Y-126783294D01*
X90205492Y-126783302D01*
X90204244Y-126787690D01*
X90184571Y-127000000D01*
X84525774Y-127000000D01*
X84505243Y-124460000D01*
X90184571Y-124460000D01*
X90204244Y-124672310D01*
X90205493Y-124676699D01*
X90205494Y-124676705D01*
X90261341Y-124872984D01*
X90261343Y-124872990D01*
X90262595Y-124877389D01*
X90357634Y-125068255D01*
X90360396Y-125071912D01*
X90483365Y-125234749D01*
X90483368Y-125234752D01*
X90486128Y-125238407D01*
X90643698Y-125382052D01*
X90824981Y-125494298D01*
X91023802Y-125571321D01*
X91233390Y-125610500D01*
X91442027Y-125610500D01*
X91446610Y-125610500D01*
X91656198Y-125571321D01*
X91855019Y-125494298D01*
X92036302Y-125382052D01*
X92193872Y-125238407D01*
X92322366Y-125068255D01*
X92417405Y-124877389D01*
X92475756Y-124672310D01*
X92495429Y-124460000D01*
X92475756Y-124247690D01*
X92417405Y-124042611D01*
X92322366Y-123851745D01*
X92193872Y-123681593D01*
X92036302Y-123537948D01*
X92032413Y-123535540D01*
X92032409Y-123535537D01*
X91921643Y-123466954D01*
X91855019Y-123425702D01*
X91814029Y-123409822D01*
X91660467Y-123350332D01*
X91660459Y-123350329D01*
X91656198Y-123348679D01*
X91651694Y-123347837D01*
X91451116Y-123310342D01*
X91451112Y-123310341D01*
X91446610Y-123309500D01*
X91233390Y-123309500D01*
X91228888Y-123310341D01*
X91228883Y-123310342D01*
X91028305Y-123347837D01*
X91028302Y-123347837D01*
X91023802Y-123348679D01*
X91019543Y-123350328D01*
X91019532Y-123350332D01*
X90829250Y-123424048D01*
X90829248Y-123424048D01*
X90824981Y-123425702D01*
X90821087Y-123428112D01*
X90821085Y-123428114D01*
X90647590Y-123535537D01*
X90647581Y-123535543D01*
X90643698Y-123537948D01*
X90640323Y-123541024D01*
X90640316Y-123541030D01*
X90489512Y-123678507D01*
X90489506Y-123678513D01*
X90486128Y-123681593D01*
X90483372Y-123685241D01*
X90483365Y-123685250D01*
X90360396Y-123848087D01*
X90357634Y-123851745D01*
X90355595Y-123855838D01*
X90355591Y-123855846D01*
X90264637Y-124038509D01*
X90264635Y-124038513D01*
X90262595Y-124042611D01*
X90261344Y-124047005D01*
X90261341Y-124047015D01*
X90205494Y-124243294D01*
X90205492Y-124243302D01*
X90204244Y-124247690D01*
X90184571Y-124460000D01*
X84505243Y-124460000D01*
X84484712Y-121920000D01*
X90184571Y-121920000D01*
X90204244Y-122132310D01*
X90205493Y-122136699D01*
X90205494Y-122136705D01*
X90261341Y-122332984D01*
X90261343Y-122332990D01*
X90262595Y-122337389D01*
X90264636Y-122341489D01*
X90264637Y-122341490D01*
X90327533Y-122467805D01*
X90357634Y-122528255D01*
X90360396Y-122531912D01*
X90483365Y-122694749D01*
X90483368Y-122694752D01*
X90486128Y-122698407D01*
X90643698Y-122842052D01*
X90824981Y-122954298D01*
X91023802Y-123031321D01*
X91233390Y-123070500D01*
X91442027Y-123070500D01*
X91446610Y-123070500D01*
X91656198Y-123031321D01*
X91737048Y-123000000D01*
X166194451Y-123000000D01*
X166194728Y-123003696D01*
X166214339Y-123265404D01*
X166214340Y-123265414D01*
X166214617Y-123269103D01*
X166215439Y-123272707D01*
X166215441Y-123272716D01*
X166250910Y-123428114D01*
X166274666Y-123532195D01*
X166276016Y-123535635D01*
X166276018Y-123535641D01*
X166332090Y-123678507D01*
X166373257Y-123783398D01*
X166508185Y-124017102D01*
X166676439Y-124228085D01*
X166874259Y-124411635D01*
X166877319Y-124413721D01*
X166877320Y-124413722D01*
X167094170Y-124561568D01*
X167094175Y-124561570D01*
X167097226Y-124563651D01*
X167340359Y-124680738D01*
X167343887Y-124681826D01*
X167343889Y-124681827D01*
X167404566Y-124700543D01*
X167598228Y-124760280D01*
X167865071Y-124800500D01*
X168131224Y-124800500D01*
X168134929Y-124800500D01*
X168401772Y-124760280D01*
X168659641Y-124680738D01*
X168902775Y-124563651D01*
X169125741Y-124411635D01*
X169323561Y-124228085D01*
X169491815Y-124017102D01*
X169626743Y-123783398D01*
X169725334Y-123532195D01*
X169785383Y-123269103D01*
X169805549Y-123000000D01*
X169785383Y-122730897D01*
X169725334Y-122467805D01*
X169626743Y-122216602D01*
X169491815Y-121982898D01*
X169323561Y-121771915D01*
X169125741Y-121588365D01*
X169122682Y-121586279D01*
X169122679Y-121586277D01*
X168905833Y-121438434D01*
X168902775Y-121436349D01*
X168899440Y-121434743D01*
X168899435Y-121434740D01*
X168662975Y-121320867D01*
X168662968Y-121320864D01*
X168659641Y-121319262D01*
X168656117Y-121318175D01*
X168656107Y-121318171D01*
X168405313Y-121240812D01*
X168405309Y-121240811D01*
X168401772Y-121239720D01*
X168387248Y-121237530D01*
X168138593Y-121200052D01*
X168138589Y-121200051D01*
X168134929Y-121199500D01*
X167865071Y-121199500D01*
X167861411Y-121200051D01*
X167861406Y-121200052D01*
X167601896Y-121239167D01*
X167601894Y-121239167D01*
X167598228Y-121239720D01*
X167594692Y-121240810D01*
X167594686Y-121240812D01*
X167343889Y-121318172D01*
X167343875Y-121318177D01*
X167340359Y-121319262D01*
X167337036Y-121320862D01*
X167337029Y-121320865D01*
X167100558Y-121434744D01*
X167100553Y-121434746D01*
X167097226Y-121436349D01*
X167094184Y-121438422D01*
X167094170Y-121438431D01*
X166877320Y-121586277D01*
X166877310Y-121586284D01*
X166874259Y-121588365D01*
X166871545Y-121590883D01*
X166871539Y-121590888D01*
X166679153Y-121769396D01*
X166679147Y-121769401D01*
X166676439Y-121771915D01*
X166674137Y-121774801D01*
X166674131Y-121774808D01*
X166510493Y-121980003D01*
X166510488Y-121980009D01*
X166508185Y-121982898D01*
X166506339Y-121986093D01*
X166506335Y-121986101D01*
X166419385Y-122136705D01*
X166373257Y-122216602D01*
X166371904Y-122220047D01*
X166371903Y-122220051D01*
X166276018Y-122464358D01*
X166276014Y-122464368D01*
X166274666Y-122467805D01*
X166273843Y-122471407D01*
X166273843Y-122471410D01*
X166215441Y-122727283D01*
X166215439Y-122727294D01*
X166214617Y-122730897D01*
X166214340Y-122734583D01*
X166214339Y-122734595D01*
X166198057Y-122951885D01*
X166194451Y-123000000D01*
X91737048Y-123000000D01*
X91855019Y-122954298D01*
X92036302Y-122842052D01*
X92193872Y-122698407D01*
X92322366Y-122528255D01*
X92417405Y-122337389D01*
X92475756Y-122132310D01*
X92495429Y-121920000D01*
X92475756Y-121707690D01*
X92417405Y-121502611D01*
X92322366Y-121311745D01*
X92193872Y-121141593D01*
X92036302Y-120997948D01*
X92032413Y-120995540D01*
X92032409Y-120995537D01*
X91921643Y-120926954D01*
X91855019Y-120885702D01*
X91814029Y-120869822D01*
X91660467Y-120810332D01*
X91660459Y-120810329D01*
X91656198Y-120808679D01*
X91651694Y-120807837D01*
X91451116Y-120770342D01*
X91451112Y-120770341D01*
X91446610Y-120769500D01*
X91233390Y-120769500D01*
X91228888Y-120770341D01*
X91228883Y-120770342D01*
X91028305Y-120807837D01*
X91028302Y-120807837D01*
X91023802Y-120808679D01*
X91019543Y-120810328D01*
X91019532Y-120810332D01*
X90829250Y-120884048D01*
X90829248Y-120884048D01*
X90824981Y-120885702D01*
X90821087Y-120888112D01*
X90821085Y-120888114D01*
X90647590Y-120995537D01*
X90647581Y-120995543D01*
X90643698Y-120997948D01*
X90640323Y-121001024D01*
X90640316Y-121001030D01*
X90489512Y-121138507D01*
X90489506Y-121138513D01*
X90486128Y-121141593D01*
X90483372Y-121145241D01*
X90483365Y-121145250D01*
X90360396Y-121308087D01*
X90357634Y-121311745D01*
X90355595Y-121315838D01*
X90355591Y-121315846D01*
X90264637Y-121498509D01*
X90264635Y-121498513D01*
X90262595Y-121502611D01*
X90261344Y-121507005D01*
X90261341Y-121507015D01*
X90205494Y-121703294D01*
X90205492Y-121703302D01*
X90204244Y-121707690D01*
X90203822Y-121712235D01*
X90203822Y-121712240D01*
X90185857Y-121906116D01*
X90184571Y-121920000D01*
X84484712Y-121920000D01*
X84464181Y-119380000D01*
X90184571Y-119380000D01*
X90204244Y-119592310D01*
X90205493Y-119596699D01*
X90205494Y-119596705D01*
X90261341Y-119792984D01*
X90261343Y-119792990D01*
X90262595Y-119797389D01*
X90357634Y-119988255D01*
X90360396Y-119991912D01*
X90483365Y-120154749D01*
X90483368Y-120154752D01*
X90486128Y-120158407D01*
X90643698Y-120302052D01*
X90824981Y-120414298D01*
X91023802Y-120491321D01*
X91233390Y-120530500D01*
X91442027Y-120530500D01*
X91446610Y-120530500D01*
X91656198Y-120491321D01*
X91855019Y-120414298D01*
X92036302Y-120302052D01*
X92193872Y-120158407D01*
X92322366Y-119988255D01*
X92417405Y-119797389D01*
X92475756Y-119592310D01*
X92495429Y-119380000D01*
X92475756Y-119167690D01*
X92417405Y-118962611D01*
X92322366Y-118771745D01*
X92193872Y-118601593D01*
X92036302Y-118457948D01*
X92032413Y-118455540D01*
X92032409Y-118455537D01*
X91921643Y-118386954D01*
X91855019Y-118345702D01*
X91809144Y-118327930D01*
X91660467Y-118270332D01*
X91660459Y-118270329D01*
X91656198Y-118268679D01*
X91651694Y-118267837D01*
X91451116Y-118230342D01*
X91451112Y-118230341D01*
X91446610Y-118229500D01*
X91233390Y-118229500D01*
X91228888Y-118230341D01*
X91228883Y-118230342D01*
X91028305Y-118267837D01*
X91028302Y-118267837D01*
X91023802Y-118268679D01*
X91019543Y-118270328D01*
X91019532Y-118270332D01*
X90829250Y-118344048D01*
X90829248Y-118344048D01*
X90824981Y-118345702D01*
X90821087Y-118348112D01*
X90821085Y-118348114D01*
X90647590Y-118455537D01*
X90647581Y-118455543D01*
X90643698Y-118457948D01*
X90640323Y-118461024D01*
X90640316Y-118461030D01*
X90489512Y-118598507D01*
X90489506Y-118598513D01*
X90486128Y-118601593D01*
X90483372Y-118605241D01*
X90483365Y-118605250D01*
X90360396Y-118768087D01*
X90357634Y-118771745D01*
X90355595Y-118775838D01*
X90355591Y-118775846D01*
X90264637Y-118958509D01*
X90264635Y-118958513D01*
X90262595Y-118962611D01*
X90261344Y-118967005D01*
X90261341Y-118967015D01*
X90205494Y-119163294D01*
X90205492Y-119163302D01*
X90204244Y-119167690D01*
X90203822Y-119172235D01*
X90203822Y-119172240D01*
X90198414Y-119230603D01*
X90184571Y-119380000D01*
X84464181Y-119380000D01*
X84434525Y-115711118D01*
X84446998Y-115662208D01*
X84481964Y-115625804D01*
X84530333Y-115611370D01*
X84579526Y-115622658D01*
X84650275Y-115659790D01*
X84812751Y-115699836D01*
X84859061Y-115725954D01*
X86974847Y-117841740D01*
X86998427Y-117879449D01*
X87003121Y-117923675D01*
X86995008Y-117990500D01*
X86993855Y-118000000D01*
X86994577Y-118005946D01*
X87013637Y-118162925D01*
X87013638Y-118162932D01*
X87014360Y-118168872D01*
X87074682Y-118327930D01*
X87078079Y-118332851D01*
X87078081Y-118332855D01*
X87086949Y-118345702D01*
X87171317Y-118467929D01*
X87298648Y-118580734D01*
X87449275Y-118659790D01*
X87614444Y-118700500D01*
X87778568Y-118700500D01*
X87784556Y-118700500D01*
X87949725Y-118659790D01*
X88100352Y-118580734D01*
X88227683Y-118467929D01*
X88324318Y-118327930D01*
X88384640Y-118168872D01*
X88405145Y-118000000D01*
X166194451Y-118000000D01*
X166194728Y-118003696D01*
X166214339Y-118265404D01*
X166214340Y-118265414D01*
X166214617Y-118269103D01*
X166215439Y-118272707D01*
X166215441Y-118272716D01*
X166258423Y-118461030D01*
X166274666Y-118532195D01*
X166276016Y-118535635D01*
X166276018Y-118535641D01*
X166364358Y-118760726D01*
X166373257Y-118783398D01*
X166375107Y-118786602D01*
X166474356Y-118958509D01*
X166508185Y-119017102D01*
X166676439Y-119228085D01*
X166874259Y-119411635D01*
X166877319Y-119413721D01*
X166877320Y-119413722D01*
X167094170Y-119561568D01*
X167094175Y-119561570D01*
X167097226Y-119563651D01*
X167340359Y-119680738D01*
X167343887Y-119681826D01*
X167343889Y-119681827D01*
X167404566Y-119700543D01*
X167598228Y-119760280D01*
X167865071Y-119800500D01*
X168131224Y-119800500D01*
X168134929Y-119800500D01*
X168401772Y-119760280D01*
X168659641Y-119680738D01*
X168902775Y-119563651D01*
X169125741Y-119411635D01*
X169323561Y-119228085D01*
X169491815Y-119017102D01*
X169626743Y-118783398D01*
X169725334Y-118532195D01*
X169785383Y-118269103D01*
X169805549Y-118000000D01*
X169785383Y-117730897D01*
X169725334Y-117467805D01*
X169626743Y-117216602D01*
X169491815Y-116982898D01*
X169323561Y-116771915D01*
X169125741Y-116588365D01*
X169122682Y-116586279D01*
X169122679Y-116586277D01*
X168905833Y-116438434D01*
X168902775Y-116436349D01*
X168899440Y-116434743D01*
X168899435Y-116434740D01*
X168662975Y-116320867D01*
X168662968Y-116320864D01*
X168659641Y-116319262D01*
X168656117Y-116318175D01*
X168656107Y-116318171D01*
X168405313Y-116240812D01*
X168405309Y-116240811D01*
X168401772Y-116239720D01*
X168324592Y-116228087D01*
X168138593Y-116200052D01*
X168138589Y-116200051D01*
X168134929Y-116199500D01*
X167865071Y-116199500D01*
X167861411Y-116200051D01*
X167861406Y-116200052D01*
X167601896Y-116239167D01*
X167601894Y-116239167D01*
X167598228Y-116239720D01*
X167594692Y-116240810D01*
X167594686Y-116240812D01*
X167343889Y-116318172D01*
X167343875Y-116318177D01*
X167340359Y-116319262D01*
X167337036Y-116320862D01*
X167337029Y-116320865D01*
X167100558Y-116434744D01*
X167100553Y-116434746D01*
X167097226Y-116436349D01*
X167094184Y-116438422D01*
X167094170Y-116438431D01*
X166877320Y-116586277D01*
X166877310Y-116586284D01*
X166874259Y-116588365D01*
X166871545Y-116590883D01*
X166871539Y-116590888D01*
X166679153Y-116769396D01*
X166679147Y-116769401D01*
X166676439Y-116771915D01*
X166674137Y-116774801D01*
X166674131Y-116774808D01*
X166510493Y-116980003D01*
X166510488Y-116980009D01*
X166508185Y-116982898D01*
X166506339Y-116986093D01*
X166506335Y-116986101D01*
X166375107Y-117213397D01*
X166373257Y-117216602D01*
X166371904Y-117220047D01*
X166371903Y-117220051D01*
X166276018Y-117464358D01*
X166276014Y-117464368D01*
X166274666Y-117467805D01*
X166273843Y-117471407D01*
X166273843Y-117471410D01*
X166215441Y-117727283D01*
X166215439Y-117727294D01*
X166214617Y-117730897D01*
X166214340Y-117734583D01*
X166214339Y-117734595D01*
X166198223Y-117949667D01*
X166194451Y-118000000D01*
X88405145Y-118000000D01*
X88384640Y-117831128D01*
X88324318Y-117672070D01*
X88227683Y-117532071D01*
X88100352Y-117419266D01*
X87949725Y-117340210D01*
X87943909Y-117338776D01*
X87943908Y-117338776D01*
X87790371Y-117300933D01*
X87790368Y-117300932D01*
X87784556Y-117299500D01*
X87614444Y-117299500D01*
X87614444Y-117299146D01*
X87574971Y-117294953D01*
X87537267Y-117271374D01*
X87105893Y-116840000D01*
X90184571Y-116840000D01*
X90204244Y-117052310D01*
X90205493Y-117056699D01*
X90205494Y-117056705D01*
X90261341Y-117252984D01*
X90261343Y-117252990D01*
X90262595Y-117257389D01*
X90264636Y-117261489D01*
X90264637Y-117261490D01*
X90345176Y-117423237D01*
X90357634Y-117448255D01*
X90360396Y-117451912D01*
X90483365Y-117614749D01*
X90483368Y-117614752D01*
X90486128Y-117618407D01*
X90489511Y-117621491D01*
X90489512Y-117621492D01*
X90539589Y-117667144D01*
X90643698Y-117762052D01*
X90824981Y-117874298D01*
X91023802Y-117951321D01*
X91233390Y-117990500D01*
X91442027Y-117990500D01*
X91446610Y-117990500D01*
X91656198Y-117951321D01*
X91855019Y-117874298D01*
X92036302Y-117762052D01*
X92193872Y-117618407D01*
X92322366Y-117448255D01*
X92417405Y-117257389D01*
X92475756Y-117052310D01*
X92495429Y-116840000D01*
X92475756Y-116627690D01*
X92417405Y-116422611D01*
X92322366Y-116231745D01*
X92193872Y-116061593D01*
X92036302Y-115917948D01*
X92032413Y-115915540D01*
X92032409Y-115915537D01*
X91921643Y-115846954D01*
X91855019Y-115805702D01*
X91814029Y-115789822D01*
X91660467Y-115730332D01*
X91660459Y-115730329D01*
X91656198Y-115728679D01*
X91641621Y-115725954D01*
X91451116Y-115690342D01*
X91451112Y-115690341D01*
X91446610Y-115689500D01*
X91233390Y-115689500D01*
X91228888Y-115690341D01*
X91228883Y-115690342D01*
X91028305Y-115727837D01*
X91028302Y-115727837D01*
X91023802Y-115728679D01*
X91019543Y-115730328D01*
X91019532Y-115730332D01*
X90829250Y-115804048D01*
X90829248Y-115804048D01*
X90824981Y-115805702D01*
X90821087Y-115808112D01*
X90821085Y-115808114D01*
X90647590Y-115915537D01*
X90647581Y-115915543D01*
X90643698Y-115917948D01*
X90640323Y-115921024D01*
X90640316Y-115921030D01*
X90489512Y-116058507D01*
X90489506Y-116058513D01*
X90486128Y-116061593D01*
X90483372Y-116065241D01*
X90483365Y-116065250D01*
X90360396Y-116228087D01*
X90357634Y-116231745D01*
X90355595Y-116235838D01*
X90355591Y-116235846D01*
X90264637Y-116418509D01*
X90264635Y-116418513D01*
X90262595Y-116422611D01*
X90261344Y-116427005D01*
X90261341Y-116427015D01*
X90205494Y-116623294D01*
X90205492Y-116623302D01*
X90204244Y-116627690D01*
X90184571Y-116840000D01*
X87105893Y-116840000D01*
X85589414Y-115323521D01*
X85562623Y-115274294D01*
X85566851Y-115218412D01*
X85585640Y-115168872D01*
X85606145Y-115000000D01*
X85585640Y-114831128D01*
X85525318Y-114672070D01*
X85428683Y-114532071D01*
X85411338Y-114516705D01*
X85305834Y-114423237D01*
X85301352Y-114419266D01*
X85296048Y-114416482D01*
X85156028Y-114342993D01*
X85156026Y-114342992D01*
X85150725Y-114340210D01*
X85144909Y-114338776D01*
X85144908Y-114338776D01*
X84991371Y-114300933D01*
X84991368Y-114300932D01*
X84985556Y-114299500D01*
X84815444Y-114299500D01*
X84809631Y-114300932D01*
X84809628Y-114300933D01*
X84656091Y-114338776D01*
X84656087Y-114338777D01*
X84650275Y-114340210D01*
X84644979Y-114342989D01*
X84644967Y-114342994D01*
X84568094Y-114383341D01*
X84519297Y-114394642D01*
X84471213Y-114380610D01*
X84436153Y-114344837D01*
X84423090Y-114296481D01*
X84419780Y-113887015D01*
X84417790Y-113640829D01*
X84433326Y-113586784D01*
X84475792Y-113549918D01*
X84531486Y-113542128D01*
X84582436Y-113565928D01*
X84599148Y-113580734D01*
X84749775Y-113659790D01*
X84914944Y-113700500D01*
X85079066Y-113700500D01*
X85081697Y-113700500D01*
X85085056Y-113700500D01*
X85085056Y-113700856D01*
X85124521Y-113705044D01*
X85162232Y-113728625D01*
X86973819Y-115540211D01*
X86997400Y-115577920D01*
X87002093Y-115622147D01*
X86994577Y-115684052D01*
X86993855Y-115690000D01*
X86994577Y-115695946D01*
X87013637Y-115852925D01*
X87013638Y-115852932D01*
X87014360Y-115858872D01*
X87074682Y-116017930D01*
X87078079Y-116022851D01*
X87078081Y-116022855D01*
X87107345Y-116065250D01*
X87171317Y-116157929D01*
X87298648Y-116270734D01*
X87449275Y-116349790D01*
X87614444Y-116390500D01*
X87778568Y-116390500D01*
X87784556Y-116390500D01*
X87949725Y-116349790D01*
X88100352Y-116270734D01*
X88227683Y-116157929D01*
X88324318Y-116017930D01*
X88384640Y-115858872D01*
X88405145Y-115690000D01*
X88384640Y-115521128D01*
X88324318Y-115362070D01*
X88227683Y-115222071D01*
X88100352Y-115109266D01*
X88041556Y-115078407D01*
X87955028Y-115032993D01*
X87955026Y-115032992D01*
X87949725Y-115030210D01*
X87943909Y-115028776D01*
X87943908Y-115028776D01*
X87790371Y-114990933D01*
X87790368Y-114990932D01*
X87784556Y-114989500D01*
X87614444Y-114989500D01*
X87609985Y-114990598D01*
X87566504Y-114985983D01*
X87528796Y-114962403D01*
X86866393Y-114300000D01*
X90184571Y-114300000D01*
X90184993Y-114304554D01*
X90192293Y-114383341D01*
X90204244Y-114512310D01*
X90205493Y-114516699D01*
X90205494Y-114516705D01*
X90261341Y-114712984D01*
X90261343Y-114712990D01*
X90262595Y-114717389D01*
X90264636Y-114721489D01*
X90264637Y-114721490D01*
X90319229Y-114831128D01*
X90357634Y-114908255D01*
X90360396Y-114911912D01*
X90483365Y-115074749D01*
X90483368Y-115074752D01*
X90486128Y-115078407D01*
X90643698Y-115222052D01*
X90824981Y-115334298D01*
X91023802Y-115411321D01*
X91233390Y-115450500D01*
X91442027Y-115450500D01*
X91446610Y-115450500D01*
X91656198Y-115411321D01*
X91855019Y-115334298D01*
X92036302Y-115222052D01*
X92193872Y-115078407D01*
X92322366Y-114908255D01*
X92417405Y-114717389D01*
X92475756Y-114512310D01*
X92495429Y-114300000D01*
X92475756Y-114087690D01*
X92417405Y-113882611D01*
X92322366Y-113691745D01*
X92215262Y-113549918D01*
X92196634Y-113525250D01*
X92196632Y-113525247D01*
X92193872Y-113521593D01*
X92036302Y-113377948D01*
X92032413Y-113375540D01*
X92032409Y-113375537D01*
X91921643Y-113306954D01*
X91855019Y-113265702D01*
X91814029Y-113249822D01*
X91660467Y-113190332D01*
X91660459Y-113190329D01*
X91656198Y-113188679D01*
X91651694Y-113187837D01*
X91451116Y-113150342D01*
X91451112Y-113150341D01*
X91446610Y-113149500D01*
X91233390Y-113149500D01*
X91228888Y-113150341D01*
X91228883Y-113150342D01*
X91028305Y-113187837D01*
X91028302Y-113187837D01*
X91023802Y-113188679D01*
X91019543Y-113190328D01*
X91019532Y-113190332D01*
X90829250Y-113264048D01*
X90829248Y-113264048D01*
X90824981Y-113265702D01*
X90821087Y-113268112D01*
X90821085Y-113268114D01*
X90647590Y-113375537D01*
X90647581Y-113375543D01*
X90643698Y-113377948D01*
X90640323Y-113381024D01*
X90640316Y-113381030D01*
X90489512Y-113518507D01*
X90489506Y-113518513D01*
X90486128Y-113521593D01*
X90483372Y-113525241D01*
X90483365Y-113525250D01*
X90380683Y-113661223D01*
X90357634Y-113691745D01*
X90355595Y-113695838D01*
X90355591Y-113695846D01*
X90264637Y-113878509D01*
X90264635Y-113878513D01*
X90262595Y-113882611D01*
X90261344Y-113887005D01*
X90261341Y-113887015D01*
X90205494Y-114083294D01*
X90205492Y-114083302D01*
X90204244Y-114087690D01*
X90184571Y-114300000D01*
X86866393Y-114300000D01*
X85724651Y-113158258D01*
X85701070Y-113120547D01*
X85696377Y-113076323D01*
X85705645Y-113000000D01*
X85685140Y-112831128D01*
X85624818Y-112672070D01*
X85528183Y-112532071D01*
X85400852Y-112419266D01*
X85395548Y-112416482D01*
X85255528Y-112342993D01*
X85255526Y-112342992D01*
X85250225Y-112340210D01*
X85244409Y-112338776D01*
X85244408Y-112338776D01*
X85090871Y-112300933D01*
X85090868Y-112300932D01*
X85085056Y-112299500D01*
X84914944Y-112299500D01*
X84909131Y-112300932D01*
X84909128Y-112300933D01*
X84755591Y-112338776D01*
X84755587Y-112338777D01*
X84749775Y-112340210D01*
X84744476Y-112342990D01*
X84744471Y-112342993D01*
X84604451Y-112416482D01*
X84604446Y-112416485D01*
X84599148Y-112419266D01*
X84594667Y-112423234D01*
X84594665Y-112423237D01*
X84572160Y-112443174D01*
X84521604Y-112466912D01*
X84466246Y-112459510D01*
X84423703Y-112423323D01*
X84407516Y-112369871D01*
X84402586Y-111760000D01*
X90184571Y-111760000D01*
X90204244Y-111972310D01*
X90205493Y-111976699D01*
X90205494Y-111976705D01*
X90261341Y-112172984D01*
X90261343Y-112172990D01*
X90262595Y-112177389D01*
X90357634Y-112368255D01*
X90360396Y-112371912D01*
X90483365Y-112534749D01*
X90483368Y-112534752D01*
X90486128Y-112538407D01*
X90489511Y-112541491D01*
X90489512Y-112541492D01*
X90638884Y-112677664D01*
X90643698Y-112682052D01*
X90824981Y-112794298D01*
X91023802Y-112871321D01*
X91233390Y-112910500D01*
X91442027Y-112910500D01*
X91446610Y-112910500D01*
X91656198Y-112871321D01*
X91855019Y-112794298D01*
X92036302Y-112682052D01*
X92193872Y-112538407D01*
X92322366Y-112368255D01*
X92417405Y-112177389D01*
X92475756Y-111972310D01*
X92495429Y-111760000D01*
X92475756Y-111547690D01*
X92417405Y-111342611D01*
X92322366Y-111151745D01*
X92193872Y-110981593D01*
X92036302Y-110837948D01*
X92032413Y-110835540D01*
X92032409Y-110835537D01*
X91921643Y-110766954D01*
X91855019Y-110725702D01*
X91814029Y-110709822D01*
X91660467Y-110650332D01*
X91660459Y-110650329D01*
X91656198Y-110648679D01*
X91651694Y-110647837D01*
X91451116Y-110610342D01*
X91451112Y-110610341D01*
X91446610Y-110609500D01*
X91233390Y-110609500D01*
X91228888Y-110610341D01*
X91228883Y-110610342D01*
X91028305Y-110647837D01*
X91028302Y-110647837D01*
X91023802Y-110648679D01*
X91019543Y-110650328D01*
X91019532Y-110650332D01*
X90829250Y-110724048D01*
X90829248Y-110724048D01*
X90824981Y-110725702D01*
X90821087Y-110728112D01*
X90821085Y-110728114D01*
X90647590Y-110835537D01*
X90647581Y-110835543D01*
X90643698Y-110837948D01*
X90640323Y-110841024D01*
X90640316Y-110841030D01*
X90489512Y-110978507D01*
X90489506Y-110978513D01*
X90486128Y-110981593D01*
X90483372Y-110985241D01*
X90483365Y-110985250D01*
X90360396Y-111148087D01*
X90357634Y-111151745D01*
X90355595Y-111155838D01*
X90355591Y-111155846D01*
X90264637Y-111338509D01*
X90264635Y-111338513D01*
X90262595Y-111342611D01*
X90261344Y-111347005D01*
X90261341Y-111347015D01*
X90205494Y-111543294D01*
X90205492Y-111543302D01*
X90204244Y-111547690D01*
X90184571Y-111760000D01*
X84402586Y-111760000D01*
X84376559Y-108540000D01*
X153694532Y-108540000D01*
X153694909Y-108544309D01*
X153713987Y-108762380D01*
X153713988Y-108762388D01*
X153714365Y-108766692D01*
X153715484Y-108770868D01*
X153772142Y-108982323D01*
X153772145Y-108982331D01*
X153773261Y-108986496D01*
X153775086Y-108990410D01*
X153775088Y-108990415D01*
X153867601Y-109188809D01*
X153867604Y-109188815D01*
X153869432Y-109192734D01*
X153871912Y-109196277D01*
X153871914Y-109196279D01*
X153997473Y-109375598D01*
X153997476Y-109375602D01*
X153999953Y-109379139D01*
X154160861Y-109540047D01*
X154347266Y-109670568D01*
X154553504Y-109766739D01*
X154773308Y-109825635D01*
X155000000Y-109845468D01*
X155226692Y-109825635D01*
X155446496Y-109766739D01*
X155652734Y-109670568D01*
X155839139Y-109540047D01*
X156000047Y-109379139D01*
X156130568Y-109192734D01*
X156226739Y-108986496D01*
X156285635Y-108766692D01*
X156305468Y-108540000D01*
X156285635Y-108313308D01*
X156226739Y-108093504D01*
X156130568Y-107887266D01*
X156000047Y-107700861D01*
X155839139Y-107539953D01*
X155835602Y-107537476D01*
X155835598Y-107537473D01*
X155656279Y-107411914D01*
X155656277Y-107411912D01*
X155652734Y-107409432D01*
X155648815Y-107407604D01*
X155648809Y-107407601D01*
X155450415Y-107315088D01*
X155450410Y-107315086D01*
X155446496Y-107313261D01*
X155442331Y-107312145D01*
X155442323Y-107312142D01*
X155230868Y-107255484D01*
X155226692Y-107254365D01*
X155222388Y-107253988D01*
X155222380Y-107253987D01*
X155004309Y-107234909D01*
X155000000Y-107234532D01*
X154995691Y-107234909D01*
X154777619Y-107253987D01*
X154777609Y-107253988D01*
X154773308Y-107254365D01*
X154769133Y-107255483D01*
X154769131Y-107255484D01*
X154557676Y-107312142D01*
X154557664Y-107312146D01*
X154553504Y-107313261D01*
X154549593Y-107315084D01*
X154549584Y-107315088D01*
X154351190Y-107407601D01*
X154351179Y-107407607D01*
X154347266Y-107409432D01*
X154343727Y-107411909D01*
X154343720Y-107411914D01*
X154164401Y-107537473D01*
X154164391Y-107537480D01*
X154160861Y-107539953D01*
X154157813Y-107543000D01*
X154157807Y-107543006D01*
X154003006Y-107697807D01*
X154003000Y-107697813D01*
X153999953Y-107700861D01*
X153997480Y-107704391D01*
X153997473Y-107704401D01*
X153871914Y-107883720D01*
X153871909Y-107883727D01*
X153869432Y-107887266D01*
X153867607Y-107891179D01*
X153867601Y-107891190D01*
X153775088Y-108089584D01*
X153775084Y-108089593D01*
X153773261Y-108093504D01*
X153772146Y-108097664D01*
X153772142Y-108097676D01*
X153715484Y-108309131D01*
X153714365Y-108313308D01*
X153713988Y-108317609D01*
X153713987Y-108317619D01*
X153695156Y-108532866D01*
X153694532Y-108540000D01*
X84376559Y-108540000D01*
X84308786Y-100155300D01*
X84321781Y-100105463D01*
X84358052Y-100068897D01*
X84407783Y-100055500D01*
X97609406Y-100055500D01*
X97611135Y-100055500D01*
X97653507Y-100052547D01*
X97680704Y-100048738D01*
X97722259Y-100039937D01*
X102029456Y-98809309D01*
X102056654Y-98805500D01*
X118137960Y-98805500D01*
X118188895Y-98819608D01*
X119136782Y-99388339D01*
X119172994Y-99426258D01*
X119184761Y-99477352D01*
X118949289Y-105128679D01*
X118949289Y-105128688D01*
X118949149Y-105132054D01*
X118949466Y-105135410D01*
X118949467Y-105135415D01*
X118956643Y-105211197D01*
X118956644Y-105211204D01*
X118956962Y-105214560D01*
X118957731Y-105217840D01*
X118957733Y-105217848D01*
X118968346Y-105263079D01*
X118968349Y-105263088D01*
X118969118Y-105266366D01*
X118970323Y-105269505D01*
X118970327Y-105269518D01*
X118996398Y-105337432D01*
X118998816Y-105343731D01*
X119002835Y-105349145D01*
X119002837Y-105349148D01*
X119045565Y-105406702D01*
X119048212Y-105410267D01*
X119085434Y-105448297D01*
X119150900Y-105499114D01*
X119227616Y-105530466D01*
X119279152Y-105543730D01*
X119361468Y-105553310D01*
X125343383Y-105432463D01*
X125422871Y-105420271D01*
X125472463Y-105405785D01*
X125546011Y-105373276D01*
X125608529Y-105322703D01*
X125644070Y-105285207D01*
X125691227Y-105220072D01*
X125719754Y-105144889D01*
X125731566Y-105094593D01*
X125739488Y-105014569D01*
X125521002Y-98460000D01*
X145694532Y-98460000D01*
X145694909Y-98464309D01*
X145713987Y-98682380D01*
X145713988Y-98682388D01*
X145714365Y-98686692D01*
X145715484Y-98690868D01*
X145772142Y-98902323D01*
X145772145Y-98902331D01*
X145773261Y-98906496D01*
X145775086Y-98910410D01*
X145775088Y-98910415D01*
X145867601Y-99108809D01*
X145867604Y-99108815D01*
X145869432Y-99112734D01*
X145871912Y-99116277D01*
X145871914Y-99116279D01*
X145997473Y-99295598D01*
X145997476Y-99295602D01*
X145999953Y-99299139D01*
X146160861Y-99460047D01*
X146347266Y-99590568D01*
X146553504Y-99686739D01*
X146773308Y-99745635D01*
X147000000Y-99765468D01*
X147226692Y-99745635D01*
X147446496Y-99686739D01*
X147652734Y-99590568D01*
X147839139Y-99460047D01*
X148000047Y-99299139D01*
X148130568Y-99112734D01*
X148226739Y-98906496D01*
X148285635Y-98686692D01*
X148305468Y-98460000D01*
X148285635Y-98233308D01*
X148226739Y-98013504D01*
X148130568Y-97807266D01*
X148000047Y-97620861D01*
X147839139Y-97459953D01*
X147835602Y-97457476D01*
X147835598Y-97457473D01*
X147656279Y-97331914D01*
X147656277Y-97331912D01*
X147652734Y-97329432D01*
X147648815Y-97327604D01*
X147648809Y-97327601D01*
X147450415Y-97235088D01*
X147450410Y-97235086D01*
X147446496Y-97233261D01*
X147442331Y-97232145D01*
X147442323Y-97232142D01*
X147230868Y-97175484D01*
X147226692Y-97174365D01*
X147222388Y-97173988D01*
X147222380Y-97173987D01*
X147004309Y-97154909D01*
X147000000Y-97154532D01*
X146995691Y-97154909D01*
X146777619Y-97173987D01*
X146777609Y-97173988D01*
X146773308Y-97174365D01*
X146769133Y-97175483D01*
X146769131Y-97175484D01*
X146557676Y-97232142D01*
X146557664Y-97232146D01*
X146553504Y-97233261D01*
X146549593Y-97235084D01*
X146549584Y-97235088D01*
X146351190Y-97327601D01*
X146351179Y-97327607D01*
X146347266Y-97329432D01*
X146343727Y-97331909D01*
X146343720Y-97331914D01*
X146164401Y-97457473D01*
X146164391Y-97457480D01*
X146160861Y-97459953D01*
X146157813Y-97463000D01*
X146157807Y-97463006D01*
X146003006Y-97617807D01*
X146003000Y-97617813D01*
X145999953Y-97620861D01*
X145997480Y-97624391D01*
X145997473Y-97624401D01*
X145871914Y-97803720D01*
X145871909Y-97803727D01*
X145869432Y-97807266D01*
X145867607Y-97811179D01*
X145867601Y-97811190D01*
X145775088Y-98009584D01*
X145775084Y-98009593D01*
X145773261Y-98013504D01*
X145772146Y-98017664D01*
X145772142Y-98017676D01*
X145715484Y-98229131D01*
X145714365Y-98233308D01*
X145713988Y-98237609D01*
X145713987Y-98237619D01*
X145695156Y-98452866D01*
X145694532Y-98460000D01*
X125521002Y-98460000D01*
X125371034Y-93960947D01*
X125358421Y-93883678D01*
X125344016Y-93835459D01*
X125312179Y-93763934D01*
X125263208Y-93702850D01*
X125226959Y-93667943D01*
X125224408Y-93666051D01*
X125224404Y-93666048D01*
X125195960Y-93644957D01*
X125164069Y-93621309D01*
X125157468Y-93618664D01*
X125094338Y-93593371D01*
X125094328Y-93593367D01*
X125091391Y-93592191D01*
X125088317Y-93591397D01*
X125088312Y-93591396D01*
X125045743Y-93580410D01*
X125045737Y-93580408D01*
X125042665Y-93579616D01*
X125039523Y-93579224D01*
X125039512Y-93579222D01*
X124968132Y-93570320D01*
X124968120Y-93570319D01*
X124964975Y-93569927D01*
X124961792Y-93569941D01*
X96749556Y-93694499D01*
X96749119Y-93694500D01*
X79599764Y-93694500D01*
X79596547Y-93694925D01*
X79596541Y-93694926D01*
X79523537Y-93704585D01*
X79523526Y-93704587D01*
X79520315Y-93705012D01*
X79517184Y-93705855D01*
X79517175Y-93705857D01*
X79473728Y-93717559D01*
X79473725Y-93717559D01*
X79470595Y-93718403D01*
X79467600Y-93719650D01*
X79467598Y-93719651D01*
X79402631Y-93746707D01*
X79402625Y-93746710D01*
X79396616Y-93749213D01*
X79391463Y-93753193D01*
X79391460Y-93753195D01*
X79335764Y-93796216D01*
X79335756Y-93796222D01*
X79333194Y-93798202D01*
X79330915Y-93800497D01*
X79330902Y-93800510D01*
X79299219Y-93832438D01*
X79299209Y-93832448D01*
X79296925Y-93834751D01*
X79294964Y-93837329D01*
X79294953Y-93837343D01*
X79252369Y-93893358D01*
X79252366Y-93893362D01*
X79248425Y-93898547D01*
X79245966Y-93904579D01*
X79245965Y-93904583D01*
X79219413Y-93969745D01*
X79219408Y-93969757D01*
X79218185Y-93972761D01*
X79217366Y-93975894D01*
X79217362Y-93975909D01*
X79205998Y-94019433D01*
X79205995Y-94019446D01*
X79205177Y-94022581D01*
X79195276Y-94102110D01*
X78250500Y-94102110D01*
X78250500Y-91067765D01*
X87145788Y-91067765D01*
X87146182Y-91071350D01*
X87146183Y-91071363D01*
X87175018Y-91333426D01*
X87175019Y-91333436D01*
X87175414Y-91337018D01*
X87176325Y-91340503D01*
X87176327Y-91340513D01*
X87209998Y-91469305D01*
X87243928Y-91599088D01*
X87349870Y-91848390D01*
X87351750Y-91851471D01*
X87351754Y-91851478D01*
X87489100Y-92076527D01*
X87490982Y-92079610D01*
X87493289Y-92082383D01*
X87493294Y-92082389D01*
X87577804Y-92183938D01*
X87664255Y-92287820D01*
X87865998Y-92468582D01*
X88091910Y-92618044D01*
X88337176Y-92733020D01*
X88596569Y-92811060D01*
X88864561Y-92850500D01*
X89065824Y-92850500D01*
X89067631Y-92850500D01*
X89270156Y-92835677D01*
X89534553Y-92776780D01*
X89787558Y-92680014D01*
X90023777Y-92547441D01*
X90238177Y-92381888D01*
X90426186Y-92186881D01*
X90583799Y-91966579D01*
X90707656Y-91725675D01*
X90795118Y-91469305D01*
X90844319Y-91202933D01*
X90849259Y-91067765D01*
X167145788Y-91067765D01*
X167146182Y-91071350D01*
X167146183Y-91071363D01*
X167175018Y-91333426D01*
X167175019Y-91333436D01*
X167175414Y-91337018D01*
X167176325Y-91340503D01*
X167176327Y-91340513D01*
X167209998Y-91469305D01*
X167243928Y-91599088D01*
X167349870Y-91848390D01*
X167351750Y-91851471D01*
X167351754Y-91851478D01*
X167489100Y-92076527D01*
X167490982Y-92079610D01*
X167493289Y-92082383D01*
X167493294Y-92082389D01*
X167577804Y-92183938D01*
X167664255Y-92287820D01*
X167865998Y-92468582D01*
X168091910Y-92618044D01*
X168337176Y-92733020D01*
X168596569Y-92811060D01*
X168864561Y-92850500D01*
X169065824Y-92850500D01*
X169067631Y-92850500D01*
X169270156Y-92835677D01*
X169534553Y-92776780D01*
X169787558Y-92680014D01*
X170023777Y-92547441D01*
X170238177Y-92381888D01*
X170426186Y-92186881D01*
X170583799Y-91966579D01*
X170707656Y-91725675D01*
X170795118Y-91469305D01*
X170844319Y-91202933D01*
X170854212Y-90932235D01*
X170824586Y-90662982D01*
X170756072Y-90400912D01*
X170650130Y-90151610D01*
X170509018Y-89920390D01*
X170506708Y-89917614D01*
X170506705Y-89917610D01*
X170338064Y-89714967D01*
X170335745Y-89712180D01*
X170228288Y-89615898D01*
X170136699Y-89533834D01*
X170136694Y-89533830D01*
X170134002Y-89531418D01*
X170014807Y-89452559D01*
X169911109Y-89383953D01*
X169911105Y-89383951D01*
X169908090Y-89381956D01*
X169904812Y-89380419D01*
X169904808Y-89380417D01*
X169666098Y-89268515D01*
X169666100Y-89268515D01*
X169662824Y-89266980D01*
X169609250Y-89250862D01*
X169406900Y-89189983D01*
X169406891Y-89189981D01*
X169403431Y-89188940D01*
X169399857Y-89188414D01*
X169399848Y-89188412D01*
X169139020Y-89150027D01*
X169139019Y-89150026D01*
X169135439Y-89149500D01*
X168932369Y-89149500D01*
X168930590Y-89149630D01*
X168930568Y-89149631D01*
X168733443Y-89164059D01*
X168733435Y-89164060D01*
X168729844Y-89164323D01*
X168726327Y-89165106D01*
X168726323Y-89165107D01*
X168468969Y-89222435D01*
X168468963Y-89222436D01*
X168465447Y-89223220D01*
X168462086Y-89224505D01*
X168462074Y-89224509D01*
X168215816Y-89318695D01*
X168215809Y-89318698D01*
X168212442Y-89319986D01*
X168209300Y-89321749D01*
X168209288Y-89321755D01*
X167979378Y-89450787D01*
X167979364Y-89450795D01*
X167976223Y-89452559D01*
X167973360Y-89454769D01*
X167973358Y-89454771D01*
X167764689Y-89615898D01*
X167764681Y-89615904D01*
X167761823Y-89618112D01*
X167759314Y-89620713D01*
X167759311Y-89620717D01*
X167576325Y-89810514D01*
X167576321Y-89810517D01*
X167573814Y-89813119D01*
X167571716Y-89816050D01*
X167571708Y-89816061D01*
X167418301Y-90030484D01*
X167418293Y-90030495D01*
X167416201Y-90033421D01*
X167414556Y-90036620D01*
X167414549Y-90036632D01*
X167293997Y-90271108D01*
X167293992Y-90271118D01*
X167292344Y-90274325D01*
X167291178Y-90277741D01*
X167291174Y-90277752D01*
X167206051Y-90527267D01*
X167204882Y-90530695D01*
X167204226Y-90534245D01*
X167204224Y-90534254D01*
X167156338Y-90793505D01*
X167156336Y-90793517D01*
X167155681Y-90797067D01*
X167155549Y-90800672D01*
X167155548Y-90800684D01*
X167148185Y-91002165D01*
X167145788Y-91067765D01*
X90849259Y-91067765D01*
X90854212Y-90932235D01*
X90824586Y-90662982D01*
X90756072Y-90400912D01*
X90650130Y-90151610D01*
X90509018Y-89920390D01*
X90506708Y-89917614D01*
X90506705Y-89917610D01*
X90338064Y-89714967D01*
X90335745Y-89712180D01*
X90228288Y-89615898D01*
X90136699Y-89533834D01*
X90136694Y-89533830D01*
X90134002Y-89531418D01*
X90014807Y-89452559D01*
X89911109Y-89383953D01*
X89911105Y-89383951D01*
X89908090Y-89381956D01*
X89904812Y-89380419D01*
X89904808Y-89380417D01*
X89666098Y-89268515D01*
X89666100Y-89268515D01*
X89662824Y-89266980D01*
X89609250Y-89250862D01*
X89406900Y-89189983D01*
X89406891Y-89189981D01*
X89403431Y-89188940D01*
X89399857Y-89188414D01*
X89399848Y-89188412D01*
X89139020Y-89150027D01*
X89139019Y-89150026D01*
X89135439Y-89149500D01*
X88932369Y-89149500D01*
X88930590Y-89149630D01*
X88930568Y-89149631D01*
X88733443Y-89164059D01*
X88733435Y-89164060D01*
X88729844Y-89164323D01*
X88726327Y-89165106D01*
X88726323Y-89165107D01*
X88468969Y-89222435D01*
X88468963Y-89222436D01*
X88465447Y-89223220D01*
X88462086Y-89224505D01*
X88462074Y-89224509D01*
X88215816Y-89318695D01*
X88215809Y-89318698D01*
X88212442Y-89319986D01*
X88209300Y-89321749D01*
X88209288Y-89321755D01*
X87979378Y-89450787D01*
X87979364Y-89450795D01*
X87976223Y-89452559D01*
X87973360Y-89454769D01*
X87973358Y-89454771D01*
X87764689Y-89615898D01*
X87764681Y-89615904D01*
X87761823Y-89618112D01*
X87759314Y-89620713D01*
X87759311Y-89620717D01*
X87576325Y-89810514D01*
X87576321Y-89810517D01*
X87573814Y-89813119D01*
X87571716Y-89816050D01*
X87571708Y-89816061D01*
X87418301Y-90030484D01*
X87418293Y-90030495D01*
X87416201Y-90033421D01*
X87414556Y-90036620D01*
X87414549Y-90036632D01*
X87293997Y-90271108D01*
X87293992Y-90271118D01*
X87292344Y-90274325D01*
X87291178Y-90277741D01*
X87291174Y-90277752D01*
X87206051Y-90527267D01*
X87204882Y-90530695D01*
X87204226Y-90534245D01*
X87204224Y-90534254D01*
X87156338Y-90793505D01*
X87156336Y-90793517D01*
X87155681Y-90797067D01*
X87155549Y-90800672D01*
X87155548Y-90800684D01*
X87148185Y-91002165D01*
X87145788Y-91067765D01*
X78250500Y-91067765D01*
X78250500Y-91002165D01*
X78250594Y-90997847D01*
X78259360Y-90797067D01*
X78268385Y-90590355D01*
X78269135Y-90581780D01*
X78322093Y-90179530D01*
X78323592Y-90171034D01*
X78327160Y-90154943D01*
X78411400Y-89774956D01*
X78413633Y-89766621D01*
X78429920Y-89714967D01*
X78535632Y-89379690D01*
X78538584Y-89371581D01*
X78559223Y-89321755D01*
X78693844Y-88996749D01*
X78697479Y-88988955D01*
X78884818Y-88629079D01*
X78889125Y-88621618D01*
X79107125Y-88279426D01*
X79112063Y-88272375D01*
X79359044Y-87950504D01*
X79364582Y-87943903D01*
X79638682Y-87644775D01*
X79644775Y-87638682D01*
X79943903Y-87364582D01*
X79950504Y-87359044D01*
X80272375Y-87112063D01*
X80279426Y-87107125D01*
X80621618Y-86889125D01*
X80629079Y-86884818D01*
X80988955Y-86697479D01*
X80996749Y-86693844D01*
X81371588Y-86538581D01*
X81379690Y-86535632D01*
X81766629Y-86413630D01*
X81774956Y-86411400D01*
X82171043Y-86323590D01*
X82179530Y-86322093D01*
X82581780Y-86269135D01*
X82590355Y-86268385D01*
X82997847Y-86250593D01*
X83002165Y-86250500D01*
X83044170Y-86250500D01*
X168955830Y-86250500D01*
X168997835Y-86250500D01*
X169002152Y-86250593D01*
G37*
G04 #@! TD.AperFunction*
M02*
