G04 #@! TF.GenerationSoftware,KiCad,Pcbnew,(7.0.0-0)*
G04 #@! TF.CreationDate,2024-11-26T16:17:07-08:00*
G04 #@! TF.ProjectId,tas5754m,74617335-3735-4346-9d2e-6b696361645f,rev?*
G04 #@! TF.SameCoordinates,Original*
G04 #@! TF.FileFunction,Legend,Bot*
G04 #@! TF.FilePolarity,Positive*
%FSLAX46Y46*%
G04 Gerber Fmt 4.6, Leading zero omitted, Abs format (unit mm)*
G04 Created by KiCad (PCBNEW (7.0.0-0)) date 2024-11-26 16:17:07*
%MOMM*%
%LPD*%
G01*
G04 APERTURE LIST*
%ADD10C,0.250000*%
G04 APERTURE END LIST*
D10*
X149105739Y-154133860D02*
X149041304Y-154117760D01*
X139450534Y-154166205D02*
X139148499Y-154403805D01*
X131871104Y-154601015D02*
X131891239Y-154480200D01*
X127538846Y-156578585D02*
X127079754Y-156578585D01*
X118759738Y-160458490D02*
X118556300Y-160528640D01*
X125462689Y-156272420D02*
X125527123Y-156264370D01*
X131291195Y-155861445D02*
X131154273Y-155901695D01*
X130517991Y-154580895D02*
X130622697Y-154496325D01*
X142936154Y-153804015D02*
X143048914Y-153711390D01*
X140043409Y-160058800D02*
X139910124Y-159301165D01*
X106446788Y-158606755D02*
X106110064Y-158375260D01*
X157644249Y-162500075D02*
X155385383Y-162500090D01*
X110910036Y-159539625D02*
X110910036Y-157491215D01*
X113256563Y-157701724D02*
X113573998Y-157533360D01*
X142400549Y-155632310D02*
X142585799Y-155962535D01*
X100690875Y-162014451D02*
X100792951Y-161501560D01*
X141151794Y-158361145D02*
X140978172Y-158645255D01*
X137885609Y-162205355D02*
X137885609Y-161118015D01*
X130014598Y-154689585D02*
X130083059Y-155003700D01*
X117588214Y-158753885D02*
X117539109Y-158522385D01*
X132028161Y-154443950D02*
X132092595Y-154452000D01*
X140948369Y-159932525D02*
X141081654Y-160185070D01*
X155385383Y-157491290D02*
X156486754Y-157491290D01*
X122206157Y-155192975D02*
X122463893Y-155289630D01*
X139611321Y-160451590D02*
X139611321Y-161118025D01*
X117917924Y-158080435D02*
X118149422Y-158059385D01*
X127784979Y-161006015D02*
X128851274Y-161006015D01*
X109521045Y-160612935D02*
X109500000Y-160612935D01*
X128562676Y-155873700D02*
X128466025Y-155809265D01*
X148582209Y-154137890D02*
X148461399Y-154335220D01*
X117714488Y-160255055D02*
X117651352Y-160002510D01*
X98446873Y-162037070D02*
X98308820Y-161780208D01*
X157644249Y-159287155D02*
X158079184Y-159320478D01*
X98317188Y-161216279D02*
X98480343Y-160992885D01*
X157707384Y-160171085D02*
X157342599Y-160143035D01*
X143020724Y-153344920D02*
X142730769Y-153453655D01*
X122766857Y-161216130D02*
X122149527Y-161082840D01*
X122149527Y-161082840D02*
X121893476Y-160909218D01*
X113917734Y-160381490D02*
X114317595Y-160465675D01*
X126767789Y-160634200D02*
X126311808Y-160788535D01*
X129170773Y-154117875D02*
X128844576Y-154081625D01*
X128836520Y-156276400D02*
X129142582Y-156240150D01*
X128482135Y-155563615D02*
X128635165Y-155475015D01*
X99209664Y-156457125D02*
X98550547Y-156534386D01*
X148050629Y-156276220D02*
X148352664Y-156244020D01*
X123229854Y-158494270D02*
X122963280Y-158241725D01*
X125177113Y-158047384D02*
X125441933Y-157800100D01*
X146213969Y-154150070D02*
X146040804Y-154250750D01*
X111906181Y-157491215D02*
X111906181Y-159722020D01*
X128466025Y-155809265D02*
X128425755Y-155700535D01*
X145299349Y-154138145D02*
X144840254Y-154138145D01*
X114778839Y-161170692D02*
X114345658Y-161216290D01*
X143093184Y-154561130D02*
X143342869Y-154500720D01*
X106755454Y-160816515D02*
X106755454Y-160816515D01*
X132092595Y-154133860D02*
X132028161Y-154117760D01*
X134197320Y-154137990D02*
X133738227Y-154137990D01*
X150073524Y-161005780D02*
X151301169Y-157491215D01*
X134615251Y-158150585D02*
X134811674Y-158080435D01*
X127079754Y-156220170D02*
X127538846Y-156220170D01*
X145586979Y-162500130D02*
X143692899Y-157491330D01*
X139464006Y-158241815D02*
X139302661Y-158234815D01*
X105029738Y-158438395D02*
X104608832Y-158824225D01*
X135780865Y-154532585D02*
X135913760Y-154653395D01*
X143048914Y-153711390D02*
X143197914Y-153667090D01*
X147104254Y-155583575D02*
X147200909Y-155917825D01*
X99397354Y-158282015D02*
X99880960Y-158400001D01*
X126733473Y-155877710D02*
X126318679Y-155877710D01*
X129154662Y-154492370D02*
X129271448Y-154572915D01*
X135793786Y-160311170D02*
X135653484Y-160458490D01*
X122524301Y-154959445D02*
X122439731Y-154858765D01*
X115110299Y-159694015D02*
X115110304Y-159694015D01*
X146391179Y-156844220D02*
X146391179Y-156220015D01*
X113573998Y-157533360D02*
X114345658Y-157400075D01*
X113588028Y-161068970D02*
X113005773Y-160662095D01*
X143902664Y-156220270D02*
X144361754Y-156220270D01*
X136159411Y-156139315D02*
X136352713Y-155950040D01*
X123740492Y-154081510D02*
X123506918Y-154137890D01*
X131569068Y-154137890D02*
X131448255Y-154335220D01*
X125568205Y-162247690D02*
X125133269Y-161770660D01*
X113665190Y-160185070D02*
X113917734Y-160381490D01*
X144295306Y-153836248D02*
X144095964Y-153546295D01*
X153391689Y-157491215D02*
X154422909Y-157491215D01*
X129315748Y-154717890D02*
X129251314Y-154862870D01*
X133724331Y-160584770D02*
X134117177Y-160956570D01*
X135055981Y-154858765D02*
X135027791Y-154709760D01*
X134797644Y-158999415D02*
X134608236Y-158901200D01*
X143270409Y-154138245D02*
X142843534Y-154222815D01*
X97395194Y-163423979D02*
X97958101Y-163773432D01*
X125859612Y-155877710D02*
X125513279Y-155877710D01*
X137885609Y-161118015D02*
X137282309Y-161118015D01*
X124015547Y-160626860D02*
X123503442Y-161054780D01*
X99850684Y-163989164D02*
X100461226Y-163773432D01*
X149853344Y-157013515D02*
X149853344Y-154138145D01*
X142568844Y-161033895D02*
X142195290Y-161170692D01*
X112991743Y-157926205D02*
X113256563Y-157701724D01*
X135966113Y-154838645D02*
X135966112Y-155180920D01*
X97026878Y-161976462D02*
X96471339Y-161625838D01*
X118359872Y-161216130D02*
X118914067Y-161174030D01*
X98481180Y-162696391D02*
X99079413Y-162803487D01*
X142077789Y-158180505D02*
X141797184Y-158143675D01*
X109499999Y-157491215D02*
X109499999Y-159392310D01*
X123889495Y-154097610D02*
X123808953Y-154085510D01*
X157342599Y-161644245D02*
X157707384Y-161616195D01*
X104370318Y-159357375D02*
X104300168Y-159974700D01*
X125108302Y-155793240D02*
X124931109Y-155656315D01*
X148811759Y-155950040D02*
X148884244Y-155672170D01*
X100758649Y-158568131D02*
X100577715Y-158284076D01*
X109545597Y-159867581D02*
X109682392Y-160185015D01*
X143459764Y-158613685D02*
X142582874Y-158613685D01*
X131037486Y-156276220D02*
X131339520Y-156244020D01*
X142333840Y-157470227D02*
X142814374Y-157680680D01*
X135950000Y-155776875D02*
X135845295Y-155861445D01*
X129706379Y-155636080D02*
X129227151Y-155636080D01*
X158977114Y-162002000D02*
X158443969Y-162359770D01*
X116542966Y-158480230D02*
X116648193Y-158985315D01*
X127006300Y-159539860D02*
X127483327Y-159392545D01*
X143870444Y-155483340D02*
X143769769Y-155704830D01*
X122339051Y-156131260D02*
X122637058Y-156244020D01*
X116043313Y-158613685D02*
X115166423Y-158613685D01*
X133633522Y-155801195D02*
X133331488Y-155913950D01*
X126978239Y-158228030D02*
X126557333Y-158277130D01*
X141940349Y-156220170D02*
X141940349Y-154138145D01*
X121721609Y-157940080D02*
X121735639Y-157940080D01*
X143338864Y-153312720D02*
X143020724Y-153344920D01*
X121735639Y-157940080D02*
X121942584Y-157705073D01*
X135022127Y-159055535D02*
X134797644Y-158999415D01*
X122560546Y-154496325D02*
X122697469Y-154456075D01*
X148815784Y-154081510D02*
X148582209Y-154137890D01*
X113005773Y-160662095D02*
X112626958Y-160058800D01*
X107183374Y-157926290D02*
X107442932Y-158220925D01*
X105113920Y-162568535D02*
X104622864Y-162415955D01*
X127167650Y-161728570D02*
X127476314Y-161609315D01*
X137885609Y-160451580D02*
X137885609Y-158311975D01*
X135260641Y-159090585D02*
X135022127Y-159055535D01*
X129714435Y-155015925D02*
X129774842Y-154758190D01*
X125098193Y-160514960D02*
X125441933Y-160115100D01*
X143342894Y-155914240D02*
X143085154Y-155849810D01*
X144095964Y-153546295D02*
X143775806Y-153371114D01*
X145299349Y-157013515D02*
X145299349Y-156578585D01*
X139474694Y-156211985D02*
X139808949Y-156276420D01*
X128852627Y-154444070D02*
X128997604Y-154452120D01*
X97566686Y-159393105D02*
X98159061Y-159393105D01*
X135941948Y-155478870D02*
X135994300Y-155631900D01*
X116036298Y-159869390D02*
X115906518Y-160234175D01*
X142916019Y-155680670D02*
X142823394Y-155447095D01*
X118598390Y-159700860D02*
X118864964Y-159820115D01*
X142513304Y-153655010D02*
X142408599Y-153961070D01*
X107737568Y-161226898D02*
X107583235Y-161588175D01*
X142823394Y-155447095D02*
X142795194Y-155189360D01*
X125869854Y-159154020D02*
X125869854Y-159154015D01*
X130526043Y-155289630D02*
X130815996Y-155337930D01*
X103851204Y-161854750D02*
X103572353Y-161465411D01*
X135072091Y-154580895D02*
X135176797Y-154496325D01*
X118591374Y-159125635D02*
X118366891Y-159090585D01*
X141365756Y-161179460D02*
X141004479Y-161068970D01*
X122488054Y-155583575D02*
X122028962Y-155583575D01*
X140199579Y-156199890D02*
X140368719Y-156095185D01*
X115906518Y-160234175D02*
X115713603Y-160556870D01*
X128172045Y-155241420D02*
X128023041Y-155414585D01*
X116655204Y-160002515D02*
X116709571Y-160323456D01*
X100792951Y-161501560D02*
X100207271Y-161501560D01*
X124317197Y-158564420D02*
X124415408Y-159265930D01*
X132032174Y-157491215D02*
X133238769Y-157491215D01*
X122665249Y-154081510D02*
X122395432Y-154121760D01*
X135913760Y-154653395D02*
X135966113Y-154838645D01*
X100461226Y-163773432D02*
X101024133Y-163423979D01*
X158443969Y-159420445D02*
X158977114Y-159785230D01*
X126733496Y-154142020D02*
X126584492Y-154125920D01*
X106797543Y-159420510D02*
X106678286Y-158964526D01*
X101024133Y-163423979D02*
X101522249Y-162949068D01*
X158079184Y-159320478D02*
X158443969Y-159420445D01*
X133999990Y-156099200D02*
X134147987Y-155877708D01*
X122975336Y-156276220D02*
X123277371Y-156244020D01*
X130691153Y-155833255D02*
X130550204Y-155583575D01*
X114857755Y-160269250D02*
X115012087Y-160027231D01*
X115152393Y-161033895D02*
X114778839Y-161170692D01*
X123222838Y-160093715D02*
X123370156Y-159721915D01*
X148461399Y-154335220D02*
X148123119Y-154141920D01*
X131359660Y-154653395D02*
X131412013Y-154838645D01*
X129690272Y-154444070D02*
X129468780Y-154234660D01*
X118738694Y-157633158D02*
X118437044Y-157498115D01*
X136972325Y-157491100D02*
X135962150Y-157491100D01*
X154422909Y-157491215D02*
X154422909Y-162500015D01*
X119915475Y-160481288D02*
X119952304Y-160184900D01*
X118998254Y-157841855D02*
X118738694Y-157633158D01*
X109736759Y-160884770D02*
X109521045Y-160612935D01*
X135913045Y-157659465D02*
X135892000Y-157841855D01*
X140486495Y-155489117D02*
X140368704Y-155720675D01*
X123164964Y-161175793D02*
X122766857Y-161216130D01*
X143197914Y-153667090D02*
X143367054Y-153654990D01*
X128974037Y-159360960D02*
X128837243Y-159666115D01*
X130699207Y-156244020D02*
X131037486Y-156276220D01*
X116648193Y-158985315D02*
X116928797Y-159308010D01*
X101930673Y-162369863D02*
X102231203Y-161715320D01*
X107442932Y-158220925D02*
X107646370Y-158571680D01*
X113531904Y-159932525D02*
X113665190Y-160185070D01*
X126318679Y-155877710D02*
X126318679Y-154766220D01*
X121942584Y-157705073D02*
X122198635Y-157533200D01*
X139394139Y-155430725D02*
X139365939Y-155156880D01*
X125527123Y-155821390D02*
X125426445Y-155833490D01*
X139881434Y-154081635D02*
X139450534Y-154166205D01*
X102480154Y-160260015D02*
X102413708Y-159493600D01*
X128844576Y-154081625D02*
X128478108Y-154125925D01*
X146134154Y-161265470D02*
X146148204Y-161265470D01*
X146391179Y-154766220D02*
X146395179Y-154641380D01*
X127079754Y-154138145D02*
X127079754Y-156220170D01*
X148884244Y-154085510D02*
X148815784Y-154081510D01*
X130550204Y-155583575D02*
X130091112Y-155583575D01*
X140525759Y-155181040D02*
X140486495Y-155489117D01*
X108503854Y-157491215D02*
X109499999Y-157491215D01*
X99079415Y-157140740D02*
X99079415Y-157790010D01*
X127079754Y-157013515D02*
X127538846Y-157013515D01*
X131440200Y-155631900D02*
X131395900Y-155776875D01*
X105661099Y-157379115D02*
X106104803Y-157414190D01*
X136425201Y-155672170D02*
X136425204Y-154601015D01*
X132369004Y-154137985D02*
X132369004Y-156220015D01*
X136356742Y-154081510D02*
X136123168Y-154137890D01*
X131802642Y-154081510D02*
X131569068Y-154137890D01*
X158226499Y-160507810D02*
X158016049Y-160276310D01*
X141481254Y-154138145D02*
X141481254Y-156220170D01*
X123966011Y-154443950D02*
X124030445Y-154452000D01*
X128719740Y-158064922D02*
X128886349Y-158340265D01*
X125859612Y-154649435D02*
X125859612Y-155877710D01*
X130650199Y-157491215D02*
X130650199Y-158739905D01*
X127855127Y-158536700D02*
X127609598Y-158347295D01*
X132092595Y-154452000D02*
X132092595Y-154133860D01*
X135499154Y-158157595D02*
X135737667Y-158389095D01*
X126311808Y-160788535D02*
X126094340Y-160956895D01*
X129468780Y-154234660D02*
X129170773Y-154117875D01*
X126171505Y-162528295D02*
X125568205Y-162247690D01*
X144801289Y-157491330D02*
X145194134Y-158606730D01*
X133541939Y-158985315D02*
X133822543Y-159308010D01*
X133122077Y-155869650D02*
X132965019Y-155752865D01*
X143628824Y-154234895D02*
X143270409Y-154138245D01*
X143902664Y-155934345D02*
X143902664Y-156220270D01*
X135563396Y-155913795D02*
X135245253Y-155833255D01*
X130622697Y-154496325D02*
X130759619Y-154456075D01*
X134481964Y-158297905D02*
X134615251Y-158150585D01*
X131716494Y-159785155D02*
X133084439Y-161118025D01*
X136425204Y-154601015D02*
X136445339Y-154480200D01*
X135253622Y-161216130D02*
X135807817Y-161174030D01*
X145932084Y-156844220D02*
X146391179Y-156844220D01*
X142526764Y-159694015D02*
X142526754Y-159694015D01*
X129142582Y-156240150D02*
X129408372Y-156131415D01*
X145956234Y-154419890D02*
X145932084Y-154649435D01*
X133085833Y-156175715D02*
X133460355Y-156276395D01*
X141940349Y-157013515D02*
X141940349Y-156578585D01*
X102231203Y-161715320D02*
X102416732Y-161005388D01*
X129271448Y-154572915D02*
X129315748Y-154717890D01*
X99397360Y-162294740D02*
X99397360Y-160668220D01*
X126038219Y-161195410D02*
X126108370Y-161461985D01*
X147515034Y-154858765D02*
X147486834Y-154709760D01*
X142924044Y-154718185D02*
X143093184Y-154561130D01*
X143894614Y-154504715D02*
X143628824Y-154234895D01*
X118047705Y-160518123D02*
X117847775Y-160423420D01*
X130401200Y-156131260D02*
X130699207Y-156244020D01*
X147635839Y-154496325D02*
X147772764Y-154456075D01*
X128385482Y-155132685D02*
X128172045Y-155241420D01*
X101522248Y-157570966D02*
X101038224Y-157106599D01*
X114899849Y-158290995D02*
X114661335Y-158180505D01*
X113489811Y-159062655D02*
X113489814Y-159062655D01*
X129227151Y-155636080D02*
X129074121Y-155857575D01*
X124306904Y-156220015D02*
X124737806Y-156220015D01*
X127079754Y-156578585D02*
X127079754Y-157013515D01*
X147772764Y-154456075D02*
X147909684Y-154443975D01*
X100577715Y-158284076D02*
X100324407Y-158064445D01*
X142408599Y-153961070D02*
X142867689Y-153961070D01*
X140368719Y-156095185D02*
X140501614Y-155950205D01*
X122149528Y-158241725D02*
X121875939Y-158494270D01*
X139494814Y-155672350D02*
X139394139Y-155430725D01*
X147712354Y-156244020D02*
X148050629Y-156276220D01*
X124737806Y-156220015D02*
X124737806Y-155817300D01*
X148964789Y-154097610D02*
X148884244Y-154085510D01*
X149853344Y-154138145D02*
X149394254Y-154138145D01*
X117903894Y-158999415D02*
X117714486Y-158901200D01*
X122963280Y-158241725D02*
X122556404Y-158143515D01*
X123370156Y-159721915D02*
X123419261Y-159293990D01*
X99993077Y-159801440D02*
X99397357Y-160042405D01*
X120725464Y-161117920D02*
X120725464Y-156221380D01*
X148453344Y-155631900D02*
X148409044Y-155776875D01*
X147096204Y-155003700D02*
X147281449Y-155192975D01*
X135653484Y-160458490D02*
X135450046Y-160528640D01*
X127595570Y-162528295D02*
X126844955Y-162619490D01*
X146805954Y-154496405D02*
X146805954Y-154142020D01*
X143902664Y-154504715D02*
X143894614Y-154504715D01*
X138881754Y-162205355D02*
X137885609Y-162205355D01*
X135849907Y-160058630D02*
X135793786Y-160311170D01*
X122645115Y-155019850D02*
X122524301Y-154959445D01*
X133238769Y-157491215D02*
X131716494Y-159785155D01*
X100418115Y-162415225D02*
X100690875Y-162014451D01*
X156486754Y-159287155D02*
X157644249Y-159287155D01*
X135892000Y-157841855D02*
X135632441Y-157633158D01*
X118794812Y-159174735D02*
X118591374Y-159125635D01*
X129347967Y-155297820D02*
X129561404Y-155189090D01*
X127953338Y-158852380D02*
X127855127Y-158536700D01*
X137282309Y-160451580D02*
X137885609Y-160451580D01*
X147829139Y-155337930D02*
X148066739Y-155370130D01*
X98697044Y-162229500D02*
X98446873Y-162037070D01*
X148993004Y-154443950D02*
X149041304Y-154443950D01*
X146491839Y-154496405D02*
X146612654Y-154480305D01*
X145585754Y-156220015D02*
X145932084Y-156220015D01*
X126419380Y-154496405D02*
X126540194Y-154480305D01*
X143452749Y-159869390D02*
X143322970Y-160234175D01*
X143322970Y-160234175D02*
X143130054Y-160556870D01*
X110910036Y-157491215D02*
X111906181Y-157491215D01*
X125961050Y-158726100D02*
X125869854Y-159154020D01*
X132028161Y-154117760D02*
X131951645Y-154097610D01*
X136319922Y-161026710D02*
X136698737Y-160711030D01*
X128429779Y-154635360D02*
X128534484Y-154524615D01*
X123333750Y-155776875D02*
X123229045Y-155861445D01*
X100187189Y-158700360D02*
X100300979Y-159165555D01*
X141081654Y-160185070D02*
X141334199Y-160381490D01*
X122395432Y-154121760D02*
X122165886Y-154230495D01*
X124803559Y-159154015D02*
X124842142Y-158722588D01*
X130457582Y-154121760D02*
X130228036Y-154230495D01*
X124415408Y-159265930D02*
X124317197Y-160002515D01*
X145194134Y-158606730D02*
X147067164Y-158606730D01*
X134782136Y-154230495D02*
X134625078Y-154419770D01*
X123808953Y-154085510D02*
X123740492Y-154081510D01*
X136646695Y-154452000D02*
X136646695Y-154133860D01*
X97746575Y-160964407D02*
X97660396Y-161471440D01*
X126283747Y-161637360D02*
X126529276Y-161735570D01*
X128880819Y-155011870D02*
X128635164Y-155064225D01*
X158079184Y-162464999D02*
X157644249Y-162500075D01*
X148239909Y-154532585D02*
X148372804Y-154653395D01*
X126199563Y-158438480D02*
X125961050Y-158726100D01*
X117721501Y-158150585D02*
X117917924Y-158080435D01*
X134650322Y-161152995D02*
X135253622Y-161216130D01*
X119019299Y-157659465D02*
X118998254Y-157841855D01*
X123377171Y-158866070D02*
X123229854Y-158494270D01*
X133548954Y-160002515D02*
X133603321Y-160323456D01*
X98738879Y-160833913D02*
X99072718Y-160731835D01*
X113949305Y-161179460D02*
X113588028Y-161068970D01*
X124030445Y-154133860D02*
X123966011Y-154117760D01*
X139365939Y-155156880D02*
X139365959Y-155156880D01*
X118956159Y-158894180D02*
X118956159Y-159265930D01*
X122020909Y-155003700D02*
X122206157Y-155192975D01*
X125859587Y-156220015D02*
X125859587Y-156844220D01*
X130759619Y-154456075D02*
X130896541Y-154443975D01*
X131891239Y-154480200D02*
X131979836Y-154443950D01*
X121728622Y-158866070D02*
X121686532Y-159293990D01*
X131250926Y-155406380D02*
X131387848Y-155478870D01*
X147740544Y-154081510D02*
X147470724Y-154121760D01*
X133738227Y-155446805D02*
X133633522Y-155801195D01*
X132828096Y-154137985D02*
X132369004Y-154137985D01*
X142388469Y-154810775D02*
X142336114Y-155233625D01*
X142428552Y-160027231D02*
X142526764Y-159694015D01*
X99880960Y-158400001D02*
X100187189Y-158700360D01*
X139502864Y-154665570D02*
X139684084Y-154504485D01*
X130187763Y-155917825D02*
X130401200Y-156131260D01*
X147720414Y-155019850D02*
X147599604Y-154959445D01*
X100867210Y-158916613D02*
X100758649Y-158568131D01*
X131412013Y-154838645D02*
X131412012Y-155180920D01*
X143870444Y-154959815D02*
X143902644Y-155225605D01*
X123517475Y-157554245D02*
X124015547Y-157968140D01*
X126636845Y-154480305D02*
X126733496Y-154496405D01*
X126529276Y-161735570D02*
X126795850Y-161763620D01*
X146040804Y-154250750D02*
X145956234Y-154419890D01*
X105661098Y-158298095D02*
X105317358Y-158333170D01*
X118900040Y-160311170D02*
X118759738Y-160458490D01*
X103367162Y-161012935D02*
X103240890Y-160514864D01*
X145932084Y-154649435D02*
X145932084Y-155877710D01*
X126318679Y-156844220D02*
X126318679Y-156220015D01*
X135313719Y-154456075D02*
X135450641Y-154443975D01*
X129654054Y-157491215D02*
X130650199Y-157491215D01*
X149041304Y-154117760D02*
X148964789Y-154097610D01*
X110005087Y-161068915D02*
X109736759Y-160884770D01*
X124765995Y-154138090D02*
X124306903Y-154138090D01*
X102416732Y-161005388D02*
X102480154Y-160260015D01*
X142730769Y-153453655D02*
X142513304Y-153655010D01*
X123092123Y-155901695D02*
X122947146Y-155913795D01*
X122439731Y-154858765D02*
X122411541Y-154709760D01*
X99397357Y-157790010D02*
X99397357Y-157140740D01*
X118437044Y-157498115D02*
X117777624Y-157399905D01*
X134811674Y-158080435D02*
X135043172Y-158059385D01*
X135807817Y-161174030D02*
X136319922Y-161026710D01*
X150059474Y-161005780D02*
X150073524Y-161005780D01*
X139949879Y-155913975D02*
X139676039Y-155845515D01*
X148409044Y-155776875D02*
X148304339Y-155861445D01*
X137885609Y-158311975D02*
X137976805Y-157870020D01*
X148618454Y-156139315D02*
X148811759Y-155950040D01*
X116830581Y-160584770D02*
X117223427Y-160956570D01*
X135708376Y-155096350D02*
X135402314Y-155056100D01*
X149028254Y-162500015D02*
X149028254Y-157491215D01*
X155385383Y-162500090D02*
X155385383Y-157491290D01*
X139184744Y-156018685D02*
X139474694Y-156211985D01*
X127538846Y-157013515D02*
X127538846Y-156578585D01*
X129408372Y-156131415D02*
X129605701Y-155930060D01*
X122125613Y-155917825D02*
X122339051Y-156131260D01*
X126466140Y-159680160D02*
X127006300Y-159539860D01*
X135758711Y-159820115D02*
X135849907Y-160058630D01*
X131109976Y-154141920D02*
X130727399Y-154081510D01*
X114317595Y-160465675D02*
X114635027Y-160416569D01*
X136935204Y-154138145D02*
X136935204Y-157013515D01*
X134741863Y-155917825D02*
X134955300Y-156131260D01*
X153391689Y-161040855D02*
X153391689Y-157491215D01*
X130896541Y-154443975D02*
X131061653Y-154464125D01*
X159278764Y-160297330D02*
X159376974Y-160893615D01*
X141940349Y-156578585D02*
X141481254Y-156578585D01*
X157342599Y-160143035D02*
X156486754Y-160143015D01*
X97381103Y-157106599D02*
X96897080Y-157570966D01*
X141481254Y-157013515D02*
X141940349Y-157013515D01*
X127820051Y-159182090D02*
X127920017Y-159036528D01*
X158226499Y-161279470D02*
X158310679Y-160893640D01*
X131605311Y-156139315D02*
X131798613Y-155950040D01*
X143596599Y-155857865D02*
X143342894Y-155914240D01*
X127483327Y-159392545D02*
X127820051Y-159182090D01*
X147539184Y-155289630D02*
X147829139Y-155337930D01*
X129251314Y-154862870D02*
X129094256Y-154951465D01*
X149028254Y-157491215D02*
X150059474Y-157491215D01*
X141481254Y-156578585D02*
X141481254Y-157013515D01*
X138881751Y-160451590D02*
X139611321Y-160451590D01*
X140533824Y-154419915D02*
X140525774Y-154419915D01*
X106871202Y-157691286D02*
X107183374Y-157926290D01*
X143193189Y-158054234D02*
X143459764Y-158613685D01*
X125859587Y-156844220D02*
X126318679Y-156844220D01*
X114917389Y-157470227D02*
X115397923Y-157680680D01*
X99932000Y-157892086D02*
X99397357Y-157790010D01*
X134664355Y-159581600D02*
X135106306Y-159637720D01*
X99397355Y-163248565D02*
X99397355Y-162810141D01*
X118366891Y-159090585D02*
X118128377Y-159055535D01*
X97958101Y-163773432D02*
X98568643Y-163989164D01*
X123277371Y-156244020D02*
X123543161Y-156139315D01*
X103851204Y-158129730D02*
X104201958Y-157815804D01*
X100903397Y-159329520D02*
X100867210Y-158916613D01*
X135253307Y-156244020D02*
X135591586Y-156276220D01*
X133460355Y-156276395D02*
X133766417Y-156232097D01*
X140968754Y-157013370D02*
X140968754Y-154138015D01*
X126322729Y-154641380D02*
X126350919Y-154552785D01*
X113489814Y-159694015D02*
X113531904Y-159932525D01*
X139029071Y-157456155D02*
X139330721Y-157463155D01*
X141762109Y-157400075D02*
X142333840Y-157470227D01*
X139398159Y-154895115D02*
X139502864Y-154665570D01*
X135708373Y-155901695D02*
X135563396Y-155913795D01*
X135828864Y-158669700D02*
X135849909Y-158894180D01*
X123092125Y-155096350D02*
X122786064Y-155056100D01*
X141734059Y-160465675D02*
X142051491Y-160416569D01*
X131871101Y-155672170D02*
X131871104Y-154601015D01*
X101522249Y-162949068D02*
X101930673Y-162369863D01*
X128997604Y-154452120D02*
X129154662Y-154492370D01*
X146656954Y-154125920D02*
X146507949Y-154117870D01*
X130727399Y-154081510D02*
X130457582Y-154121760D01*
X109500000Y-160612935D02*
X109500000Y-162500000D01*
X110271662Y-160430545D02*
X110575065Y-160374424D01*
X140422224Y-160662095D02*
X140043409Y-160058800D01*
X100451585Y-160259915D02*
X100790444Y-159870019D01*
X140408194Y-157926205D02*
X140673015Y-157701724D01*
X125148573Y-156236120D02*
X125353957Y-156276420D01*
X106629182Y-161160255D02*
X106755454Y-160816515D01*
X99072718Y-160731835D02*
X99072718Y-162304810D01*
X147909684Y-154443975D02*
X148074799Y-154464125D01*
X126350919Y-154552785D02*
X126419380Y-154496405D01*
X99072718Y-162304810D02*
X98697044Y-162229500D01*
X116709571Y-160323456D02*
X116830581Y-160584770D01*
X117223427Y-160956570D02*
X117756572Y-161152995D01*
X96188125Y-161715320D02*
X96488654Y-162369863D01*
X135615753Y-154464125D02*
X135780865Y-154532585D01*
X122999503Y-154464125D02*
X123164615Y-154532585D01*
X99072726Y-160122700D02*
X98444373Y-160305934D01*
X129074121Y-155857575D02*
X128804303Y-155913950D01*
X107863838Y-159420510D02*
X106797543Y-159420510D01*
X138983384Y-155680405D02*
X139184744Y-156018685D01*
X104201958Y-162173937D02*
X103851204Y-161854750D01*
X104300168Y-159974700D02*
X104370318Y-160613075D01*
X111843045Y-160332330D02*
X111639607Y-160802345D01*
X131798613Y-155950040D02*
X131871101Y-155672170D01*
X132864341Y-155579695D02*
X132828096Y-155366260D01*
X138881751Y-158655725D02*
X138881751Y-160451590D01*
X135485124Y-159125635D02*
X135260641Y-159090585D01*
X98631578Y-157856946D02*
X98261972Y-157994163D01*
X124765995Y-155128765D02*
X124765995Y-154138090D01*
X115166423Y-158613685D02*
X114899849Y-158290995D01*
X101921604Y-158133783D02*
X101522248Y-157570966D01*
X143278464Y-156276650D02*
X143640904Y-156192080D01*
X104622864Y-162415955D02*
X104201958Y-162173937D01*
X131154276Y-155096350D02*
X130848214Y-155056100D01*
X139148499Y-154403805D02*
X138967279Y-154754165D01*
X117756572Y-161152995D02*
X118359872Y-161216130D01*
X132803933Y-155913950D02*
X132811988Y-155905900D01*
X120725464Y-156221380D02*
X121721609Y-156221380D01*
X116928797Y-159308010D02*
X117321642Y-159483390D01*
X96897078Y-162949068D02*
X97395194Y-163423979D01*
X148123119Y-154141920D02*
X147740544Y-154081510D01*
X147084119Y-154419770D02*
X147027739Y-154689585D01*
X131905904Y-161118025D02*
X130650199Y-159813215D01*
X122455841Y-154580895D02*
X122560546Y-154496325D01*
X159376974Y-160893615D02*
X159278764Y-161489900D01*
X107367521Y-161896840D02*
X107099194Y-162149385D01*
X105029738Y-161546085D02*
X105317357Y-161656572D01*
X123829089Y-154480200D02*
X123917686Y-154443950D01*
X127834083Y-157498450D02*
X128486488Y-157828160D01*
X106104803Y-157414190D02*
X106509924Y-157519415D01*
X97660396Y-161471440D02*
X97660389Y-161471480D01*
X125329794Y-155841540D02*
X125108302Y-155793240D01*
X140187483Y-155865650D02*
X139949879Y-155913975D01*
X148884254Y-154601015D02*
X148904404Y-154480200D01*
X143600629Y-154561130D02*
X143773794Y-154726240D01*
X132369004Y-156220015D02*
X132803933Y-156220015D01*
X126318679Y-156220015D02*
X126733473Y-156220015D01*
X146507949Y-154117870D02*
X146213969Y-154150070D01*
X100070055Y-161939985D02*
X99796458Y-162197684D01*
X119980364Y-157827825D02*
X120078575Y-157491100D01*
X122028962Y-155583575D02*
X122125613Y-155917825D01*
X126584492Y-154125920D02*
X126435489Y-154117870D01*
X99397360Y-160668220D02*
X100049138Y-160457374D01*
X140990449Y-157533360D02*
X141762109Y-157400075D01*
X136809225Y-160481288D02*
X136846054Y-160184900D01*
X125527123Y-156264370D02*
X125527123Y-155821390D01*
X140255959Y-154158150D02*
X139881434Y-154081635D01*
X107099194Y-162149385D02*
X106439774Y-162500140D01*
X148074799Y-154464125D02*
X148239909Y-154532585D01*
X132965019Y-155752865D02*
X132864341Y-155579695D01*
X144840254Y-154138145D02*
X144840254Y-156220170D01*
X136505745Y-154097610D02*
X136425203Y-154085510D01*
X137976805Y-157870020D02*
X138222333Y-157610465D01*
X107583235Y-161588175D02*
X107367521Y-161896840D01*
X143342869Y-154500720D02*
X143342894Y-154500720D01*
X158310679Y-160893640D02*
X158226499Y-160507810D01*
X99397355Y-162810141D02*
X99985547Y-162687984D01*
X100300979Y-159165555D02*
X100224003Y-159533699D01*
X150578614Y-162500015D02*
X149028254Y-162500015D01*
X126435489Y-154117870D02*
X126141508Y-154150070D01*
X98550547Y-156534386D02*
X97936642Y-156755975D01*
X122549389Y-160465515D02*
X122949250Y-160360285D01*
X130586451Y-154959445D02*
X130501881Y-154858765D01*
X124745861Y-155817300D02*
X124822376Y-155982415D01*
X135330790Y-157498115D02*
X134671370Y-157399905D01*
X127920017Y-159036528D02*
X127953338Y-158852380D01*
X138965936Y-158319000D02*
X138881751Y-158655725D01*
X135402314Y-155056100D02*
X135261365Y-155019850D01*
X103367162Y-158950495D02*
X103572353Y-158510299D01*
X114661335Y-158180505D02*
X114380729Y-158143675D01*
X137394296Y-157013515D02*
X137394296Y-154138145D01*
X135962150Y-157491100D02*
X135913045Y-157659465D01*
X97757450Y-158479440D02*
X97614377Y-158876869D01*
X133822543Y-159308010D02*
X134215389Y-159483390D01*
X156486754Y-161644245D02*
X157342599Y-161644245D01*
X123808954Y-154601015D02*
X123829089Y-154480200D01*
X134197320Y-155567620D02*
X134197320Y-154137990D01*
X107788426Y-158973295D02*
X107863838Y-159420510D01*
X122629004Y-155833255D02*
X122488054Y-155583575D01*
X144361754Y-154247015D02*
X144295306Y-153836248D01*
X125426445Y-155833490D02*
X125329794Y-155841540D01*
X147470724Y-154121760D02*
X147241179Y-154230495D01*
X136445339Y-154480200D02*
X136533936Y-154443950D01*
X146779564Y-159427515D02*
X145481754Y-159427515D01*
X126318679Y-154766220D02*
X126322729Y-154641380D01*
X128023041Y-155414585D02*
X127966661Y-155680375D01*
X126540194Y-154480305D02*
X126636845Y-154480305D01*
X126795850Y-161763620D02*
X127167650Y-161728570D01*
X107646370Y-158571680D02*
X107788426Y-158973295D01*
X96005619Y-159493600D02*
X95939174Y-160260015D01*
X128486488Y-157828160D02*
X128719740Y-158064922D01*
X115397923Y-157680680D02*
X115776738Y-158054234D01*
X119952304Y-158297840D02*
X119980364Y-157827825D01*
X147563349Y-155583575D02*
X147104254Y-155583575D01*
X96002596Y-161005388D02*
X96188125Y-161715320D01*
X103572353Y-161465411D02*
X103367162Y-161012935D01*
X127966661Y-155680375D02*
X128047204Y-155962275D01*
X128635164Y-155064225D02*
X128385482Y-155132685D01*
X133084439Y-161118025D02*
X131905904Y-161118025D01*
X124810295Y-155434825D02*
X124765995Y-155128765D01*
X132811988Y-155905900D02*
X133085833Y-156175715D01*
X105113921Y-157428220D02*
X105661099Y-157379115D01*
X122165886Y-154230495D02*
X122008828Y-154419770D01*
X126844955Y-162619490D02*
X126171505Y-162528295D01*
X118212560Y-159637720D02*
X118598390Y-159700860D01*
X118864964Y-159820115D02*
X118956160Y-160058630D01*
X125353957Y-156276420D02*
X125462689Y-156272420D01*
X114380729Y-158143675D02*
X114008929Y-158198043D01*
X153377638Y-161040855D02*
X153391689Y-161040855D01*
X116106449Y-159062655D02*
X116036298Y-159869390D01*
X143522899Y-159062655D02*
X143452749Y-159869390D01*
X132803933Y-156220015D02*
X132803933Y-155913950D01*
X97970596Y-158201661D02*
X97757450Y-158479440D01*
X125968342Y-154250750D02*
X125883772Y-154419890D01*
X142336114Y-155233625D02*
X142400549Y-155632310D01*
X136425203Y-154085510D02*
X136356742Y-154081510D01*
X103240890Y-160514864D02*
X103198799Y-159974700D01*
X123808951Y-155672170D02*
X123808954Y-154601015D01*
X135370096Y-155337930D02*
X135607696Y-155370130D01*
X125513279Y-155877710D02*
X125513254Y-156220015D01*
X139941824Y-154444075D02*
X140203584Y-154508510D01*
X146148204Y-161265470D02*
X146779564Y-159427515D01*
X142526754Y-159694015D02*
X140906269Y-159694015D01*
X134955300Y-156131260D02*
X135253307Y-156244020D01*
X108503854Y-162500015D02*
X108503854Y-157491215D01*
X149041304Y-154443950D02*
X149105739Y-154452000D01*
X136533936Y-154443950D02*
X136582261Y-154443950D01*
X116634162Y-157996190D02*
X116542966Y-158480230D01*
X141425384Y-158198043D02*
X141151794Y-158361145D01*
X141334199Y-160381490D02*
X141734059Y-160465675D01*
X104370318Y-160613075D02*
X104608832Y-161160255D01*
X98262804Y-161511630D02*
X98317188Y-161216279D01*
X139910124Y-159301165D02*
X140036394Y-158529505D01*
X122556404Y-158143515D02*
X122149528Y-158241725D01*
X126129413Y-157484420D02*
X126936148Y-157379195D01*
X134637159Y-155003700D02*
X134822407Y-155192975D01*
X114345658Y-161216290D02*
X113949305Y-161179460D01*
X131036029Y-159111705D02*
X132032174Y-157491215D01*
X143085154Y-155849810D02*
X142916019Y-155680670D01*
X130083059Y-155003700D02*
X130268307Y-155192975D01*
X131154273Y-155901695D02*
X131009296Y-155913795D01*
X128425755Y-155700535D02*
X128482135Y-155563615D01*
X133527909Y-157996190D02*
X133436713Y-158480230D01*
X148167419Y-155901695D02*
X148022439Y-155913795D01*
X130650199Y-159813215D02*
X130650199Y-162500000D01*
X121868924Y-160100730D02*
X122135498Y-160360285D01*
X128416337Y-160101055D02*
X127918265Y-160332550D01*
X146805954Y-154142020D02*
X146656954Y-154125920D01*
X147200909Y-155917825D02*
X147414344Y-156131260D01*
X118310771Y-160549690D02*
X118047705Y-160518123D01*
X154422909Y-162500015D02*
X152872569Y-162500015D01*
X146805969Y-156220015D02*
X146805969Y-155877710D01*
X140006274Y-156256270D02*
X140199579Y-156199890D01*
X134215389Y-159483390D02*
X134664355Y-159581600D01*
X117777624Y-157399905D02*
X117293582Y-157463040D01*
X128256614Y-156147520D02*
X128538513Y-156248200D01*
X146612654Y-154480305D02*
X146709304Y-154480305D01*
X99209664Y-164062910D02*
X99850684Y-163989164D01*
X106110064Y-158375260D02*
X105661098Y-158298095D01*
X135849909Y-159265930D02*
X135688562Y-159174735D01*
X135245253Y-155833255D02*
X135104304Y-155583575D01*
X124822376Y-155982415D02*
X124963326Y-156127390D01*
X142881016Y-160826952D02*
X142568844Y-161033895D01*
X136698737Y-160711030D02*
X136809225Y-160481288D01*
X135966112Y-155180920D02*
X135708376Y-155096350D01*
X136874114Y-157827825D02*
X136972325Y-157491100D01*
X123736463Y-155950040D02*
X123808951Y-155672170D01*
X118843917Y-158389095D02*
X118935114Y-158669700D01*
X139676039Y-155845515D02*
X139494814Y-155672350D01*
X127686767Y-161377815D02*
X127784979Y-161006015D01*
X140906269Y-159062655D02*
X143522899Y-159062655D01*
X120078575Y-157491100D02*
X119068404Y-157491100D01*
X110580327Y-161216235D02*
X110005087Y-161068915D01*
X140509664Y-155950205D02*
X140509664Y-157013370D01*
X125012258Y-161463753D02*
X124971921Y-161104230D01*
X114345658Y-157400075D02*
X114917389Y-157470227D01*
X147861364Y-155056100D02*
X147720414Y-155019850D01*
X143640904Y-156192080D02*
X143894614Y-155934345D01*
X151764184Y-159055600D02*
X151750134Y-159055600D01*
X117714486Y-158901200D02*
X117588214Y-158753885D01*
X136002355Y-154335220D02*
X135664076Y-154141920D01*
X128240960Y-162247690D02*
X127595570Y-162528295D01*
X148167429Y-155096350D02*
X147861364Y-155056100D01*
X131412012Y-155180920D02*
X131154276Y-155096350D01*
X158977114Y-159785230D02*
X159278764Y-160297330D01*
X141004479Y-161068970D02*
X140422224Y-160662095D01*
X122198635Y-157533200D02*
X122822980Y-157399915D01*
X144840254Y-157013515D02*
X145299349Y-157013515D01*
X131951645Y-154097610D02*
X131871103Y-154085510D01*
X139330721Y-157463155D02*
X139611321Y-157491205D01*
X110769734Y-160206060D02*
X110874961Y-159930717D01*
X123047826Y-154141920D02*
X122665249Y-154081510D01*
X128682911Y-161742600D02*
X128491750Y-162023205D01*
X134625078Y-154419770D02*
X134568698Y-154689585D01*
X134568698Y-154689585D02*
X134637159Y-155003700D01*
X128809183Y-161407629D02*
X128682911Y-161742600D01*
X144840254Y-156220170D02*
X145299349Y-156220170D01*
X128852630Y-155418635D02*
X129102312Y-155366285D01*
X142195290Y-161170692D02*
X141762109Y-161216290D01*
X146805969Y-155877710D02*
X146391179Y-155877710D01*
X143902664Y-154186570D02*
X143902664Y-154504715D01*
X147067164Y-158606730D02*
X147445979Y-157491330D01*
X128478108Y-154125925D02*
X128188155Y-154258820D01*
X127476314Y-161609315D02*
X127686767Y-161377815D01*
X146423379Y-154552785D02*
X146491839Y-154496405D01*
X112493671Y-159301165D02*
X112619943Y-158529505D01*
X103572353Y-158510299D02*
X103851204Y-158129730D01*
X134741521Y-160423420D02*
X134608234Y-160255055D01*
X96488654Y-162369863D02*
X96897078Y-162949068D01*
X114008929Y-158198043D02*
X113735339Y-158361145D01*
X129774842Y-154758190D02*
X129690272Y-154444070D01*
X135664076Y-154141920D02*
X135281499Y-154081510D01*
X141797184Y-158143675D02*
X141425384Y-158198043D01*
X106755454Y-160816515D02*
X107821749Y-160816515D01*
X126936148Y-157379195D02*
X127834083Y-157498450D01*
X119952304Y-160184900D02*
X119952304Y-158297840D01*
X100207271Y-161501560D02*
X100070055Y-161939985D01*
X105317357Y-161656572D02*
X105661098Y-161693400D01*
X136935204Y-157013515D02*
X137394296Y-157013515D01*
X123196534Y-157438498D02*
X123517475Y-157554245D01*
X148304339Y-155861445D02*
X148167419Y-155901695D01*
X97660389Y-161471480D02*
X97753261Y-161955085D01*
X109104789Y-157925448D02*
X108803251Y-158571424D01*
X130228036Y-154230495D02*
X130070978Y-154419770D01*
X134545098Y-160002510D02*
X133548954Y-160002515D01*
X122008828Y-154419770D02*
X121952448Y-154689585D01*
X117539109Y-158522385D02*
X117588214Y-158297905D01*
X129654054Y-162500015D02*
X129654054Y-157491215D01*
X134645212Y-155583575D02*
X134741863Y-155917825D01*
X134608236Y-158901200D02*
X134481964Y-158753885D01*
X143902644Y-155225605D02*
X143870444Y-155483340D01*
X135591586Y-156276220D02*
X135893620Y-156244020D01*
X143773794Y-153791915D02*
X143870446Y-153959039D01*
X122637058Y-156244020D02*
X122975336Y-156276220D01*
X127293919Y-158249080D02*
X126978239Y-158228030D01*
X125869854Y-159154015D02*
X124803559Y-159154015D01*
X135176797Y-154496325D02*
X135313719Y-154456075D01*
X122949250Y-160360285D02*
X123222838Y-160093715D01*
X148425159Y-154838645D02*
X148425164Y-155180920D01*
X129102312Y-155366285D02*
X129347967Y-155297820D01*
X135632441Y-157633158D02*
X135330790Y-157498115D01*
X145299349Y-156578585D02*
X144840254Y-156578585D01*
X99079413Y-162803487D02*
X99079413Y-163248565D01*
X115110304Y-159694015D02*
X113489814Y-159694015D01*
X126141508Y-154150070D02*
X125968342Y-154250750D01*
X131448255Y-154335220D02*
X131109976Y-154141920D01*
X97614377Y-158876869D02*
X97566686Y-159393105D01*
X148400989Y-155478870D02*
X148453344Y-155631900D01*
X123378050Y-155631900D02*
X123333750Y-155776875D01*
X100049138Y-160457374D02*
X100451585Y-160259915D01*
X142585799Y-155962535D02*
X142879779Y-156192080D01*
X131061653Y-154464125D02*
X131226765Y-154532585D01*
X111906181Y-159722020D02*
X111843045Y-160332330D01*
X95939174Y-160260015D02*
X96002596Y-161005388D01*
X125133269Y-161770660D02*
X125012258Y-161463753D01*
X143130054Y-160556870D02*
X142881016Y-160826952D01*
X131339520Y-156244020D02*
X131605311Y-156139315D01*
X149394254Y-157013515D02*
X149853344Y-157013515D01*
X99397357Y-160042405D02*
X99397354Y-158282015D01*
X99796458Y-162197684D02*
X99397360Y-162294740D01*
X118605404Y-158157595D02*
X118843917Y-158389095D01*
X117651352Y-160002510D02*
X116655204Y-160002515D01*
X98262802Y-161511630D02*
X98262804Y-161511630D01*
X147027739Y-154689585D02*
X147096204Y-155003700D01*
X147281449Y-155192975D02*
X147539184Y-155289630D01*
X130707265Y-155019850D02*
X130586451Y-154959445D01*
X140906269Y-159062655D02*
X140906269Y-159062655D01*
X115464567Y-160826952D02*
X115152393Y-161033895D01*
X118128377Y-159055535D02*
X117903894Y-158999415D01*
X133603321Y-160323456D02*
X133724331Y-160584770D01*
X149105739Y-154452000D02*
X149105739Y-154133860D01*
X98261972Y-157994163D02*
X97970596Y-158201661D01*
X143773794Y-154726240D02*
X143870444Y-154959815D01*
X158016049Y-161503955D02*
X158226499Y-161279470D01*
X121686531Y-160654920D02*
X121672500Y-160654920D01*
X110575065Y-160374424D02*
X110769734Y-160206060D01*
X135204518Y-160549690D02*
X134941452Y-160518123D01*
X152872569Y-162500015D02*
X151764184Y-159055600D01*
X135450641Y-154443975D02*
X135615753Y-154464125D01*
X134671370Y-157399905D02*
X134187328Y-157463040D01*
X146716409Y-162500130D02*
X145586979Y-162500130D01*
X138881754Y-161118015D02*
X138881754Y-162205355D01*
X100790444Y-159870019D02*
X100903397Y-159329520D01*
X140673015Y-157701724D02*
X140990449Y-157533360D01*
X119426172Y-161026710D02*
X119804987Y-160711030D01*
X139684084Y-154504485D02*
X139941824Y-154444075D01*
X124030445Y-154452000D02*
X124030445Y-154133860D01*
X143692899Y-157491330D02*
X144801289Y-157491330D01*
X121686532Y-159293990D02*
X121728622Y-159728930D01*
X125513254Y-156220015D02*
X125859587Y-156220015D01*
X111232732Y-161103995D02*
X110580327Y-161216235D01*
X135011682Y-154121760D02*
X134782136Y-154230495D01*
X128635165Y-155475015D02*
X128852630Y-155418635D01*
X109499999Y-159392310D02*
X109545597Y-159867581D01*
X125918960Y-159848525D02*
X126466140Y-159680160D01*
X152149994Y-157491215D02*
X153377638Y-161040855D01*
X135805026Y-155406380D02*
X135941948Y-155478870D01*
X121721609Y-156221380D02*
X121721609Y-157940080D01*
X135492137Y-159700860D02*
X135758711Y-159820115D01*
X99079413Y-163248565D02*
X99397355Y-163248565D01*
X122135498Y-160360285D02*
X122549389Y-160465515D01*
X123349861Y-155180920D02*
X123092125Y-155096350D01*
X151750134Y-159055600D02*
X150578614Y-162500015D01*
X111639607Y-160802345D02*
X111232732Y-161103995D01*
X148904404Y-154480200D02*
X148993004Y-154443950D01*
X102223141Y-158779759D02*
X101921604Y-158133783D01*
X142867689Y-153961070D02*
X142936154Y-153804015D01*
X140978172Y-158645255D02*
X140906269Y-159062655D01*
X121728622Y-159728930D02*
X121868924Y-160100730D01*
X138967279Y-154754165D02*
X138906869Y-155193120D01*
X117770609Y-159581600D02*
X118212560Y-159637720D01*
X123503442Y-161054780D02*
X123164964Y-161175793D01*
X113561716Y-158645255D02*
X113489811Y-159062655D01*
X131871103Y-154085510D02*
X131802642Y-154081510D01*
X138906869Y-155193120D02*
X138983384Y-155680405D01*
X140533824Y-154138015D02*
X140533824Y-154419915D01*
X121875939Y-158494270D02*
X121728622Y-158866070D01*
X116900736Y-157659465D02*
X116634162Y-157996190D01*
X132828096Y-155366260D02*
X132828096Y-154137985D01*
X139302661Y-158234815D02*
X138965936Y-158319000D01*
X123419261Y-159293990D02*
X123377171Y-158866070D01*
X126733496Y-154496405D02*
X126733496Y-154142020D01*
X130650199Y-158739905D02*
X131036029Y-159111705D01*
X142582874Y-158613685D02*
X142316304Y-158290995D01*
X121893476Y-160909218D02*
X121686531Y-160654920D01*
X130501881Y-154858765D02*
X130473691Y-154709760D01*
X146709304Y-154480305D02*
X146805954Y-154496405D01*
X134432859Y-158522385D02*
X134481964Y-158297905D01*
X147599604Y-154959445D02*
X147515034Y-154858765D01*
X128047204Y-155962275D02*
X128256614Y-156147520D01*
X128851274Y-161006015D02*
X128809183Y-161407629D01*
X104608832Y-158824225D02*
X104370318Y-159357375D01*
X127538846Y-156220170D02*
X127538846Y-154138145D01*
X144361754Y-156220270D02*
X144361754Y-154247015D01*
X147414344Y-156131260D02*
X147712354Y-156244020D01*
X121672500Y-161117920D02*
X120725464Y-161117920D01*
X158443969Y-162359770D02*
X158079184Y-162464999D01*
X131053596Y-155370130D02*
X131250926Y-155406380D01*
X147445979Y-157491330D02*
X148589439Y-157491330D01*
X124317197Y-160002515D02*
X124015547Y-160626860D01*
X122947146Y-155913795D02*
X122629004Y-155833255D01*
X135104304Y-155583575D02*
X134645212Y-155583575D01*
X142795194Y-155189360D02*
X142827394Y-154935650D01*
X117321642Y-159483390D02*
X117770609Y-159581600D01*
X134147987Y-155877708D02*
X134197320Y-155567620D01*
X98005111Y-160581205D02*
X97746575Y-160964407D01*
X113489814Y-159062655D02*
X116106449Y-159062655D01*
X131979836Y-154443950D02*
X132028161Y-154443950D01*
X106439774Y-162500140D02*
X105661099Y-162619395D01*
X150059474Y-157491215D02*
X150059474Y-161005780D01*
X136646695Y-154133860D02*
X136582261Y-154117760D01*
X148884244Y-155672170D02*
X148884254Y-154601015D01*
X112619943Y-158529505D02*
X112991743Y-157926205D01*
X140509664Y-157013370D02*
X140968754Y-157013370D01*
X118956159Y-159265930D02*
X118794812Y-159174735D01*
X109500000Y-162500000D02*
X108503854Y-162500015D01*
X124015547Y-157968140D02*
X124317197Y-158564420D01*
X118956160Y-160058630D02*
X118900040Y-160311170D01*
X134187328Y-157463040D02*
X133794483Y-157659465D01*
X135027791Y-154709760D02*
X135072091Y-154580895D01*
X109682392Y-160185015D02*
X109920905Y-160369163D01*
X124971921Y-158354295D02*
X125177113Y-158047384D01*
X126108370Y-161461985D02*
X126283747Y-161637360D01*
X119068404Y-157491100D02*
X119019299Y-157659465D01*
X127532434Y-160437780D02*
X126767789Y-160634200D01*
X146395179Y-154641380D02*
X146423379Y-154552785D01*
X114635027Y-160416569D02*
X114857755Y-160269250D01*
X148372804Y-154653395D02*
X148425159Y-154838645D01*
X136123168Y-154137890D02*
X136002355Y-154335220D01*
X121672500Y-160654920D02*
X121672500Y-161117920D01*
X128886349Y-158340265D02*
X129019635Y-158978635D01*
X113735339Y-158361145D02*
X113561716Y-158645255D01*
X96196186Y-158779759D02*
X96005619Y-159493600D01*
X142553579Y-154460415D02*
X142388469Y-154810775D01*
X133331488Y-155913950D02*
X133122077Y-155869650D01*
X143775806Y-153371114D02*
X143338864Y-153312720D01*
X130815996Y-155337930D02*
X131053596Y-155370130D01*
X98599159Y-158428404D02*
X99072726Y-158298720D01*
X156486754Y-160143015D02*
X156486754Y-161644245D01*
X148352664Y-156244020D02*
X148618454Y-156139315D01*
X105317358Y-158333170D02*
X105029738Y-158438395D01*
X145932084Y-156220015D02*
X145932084Y-156844220D01*
X136846054Y-158297840D02*
X136874114Y-157827825D01*
X128804303Y-155913950D02*
X128687517Y-155905900D01*
X125441933Y-160115100D02*
X125918960Y-159848525D01*
X125883772Y-154419890D02*
X125859612Y-154649435D01*
X123164615Y-154532585D02*
X123297510Y-154653395D01*
X143367054Y-153654990D02*
X143607674Y-153689222D01*
X140036394Y-158529505D02*
X140408194Y-157926205D01*
X136352713Y-155950040D02*
X136425201Y-155672170D01*
X123506918Y-154137890D02*
X123386105Y-154335220D01*
X97753261Y-161955085D02*
X98031878Y-162388490D01*
X148589439Y-157491330D02*
X146716409Y-162500130D01*
X122463893Y-155289630D02*
X122753846Y-155337930D01*
X125441933Y-157800100D02*
X126129413Y-157484420D01*
X135607696Y-155370130D02*
X135805026Y-155406380D01*
X119804987Y-160711030D02*
X119915475Y-160481288D01*
X135845295Y-155861445D02*
X135708373Y-155901695D01*
X123386105Y-154335220D02*
X123047826Y-154141920D01*
X135893620Y-156244020D02*
X136159411Y-156139315D01*
X142814374Y-157680680D02*
X143193189Y-158054234D01*
X126557333Y-158277130D02*
X126199563Y-158438480D01*
X145481754Y-159427515D02*
X146134154Y-161265470D01*
X133436713Y-158480230D02*
X133541939Y-158985315D01*
X104201958Y-157815804D02*
X104622864Y-157575535D01*
X127918265Y-160332550D02*
X127532434Y-160437780D01*
X137394296Y-154138145D02*
X136935204Y-154138145D01*
X130848214Y-155056100D02*
X130707265Y-155019850D01*
X142843534Y-154222815D02*
X142553579Y-154460415D01*
X142316304Y-158290995D02*
X142077789Y-158180505D01*
X143894614Y-155934345D02*
X143902664Y-155934345D01*
X129605701Y-155930060D02*
X129706379Y-155636080D01*
X145932084Y-155877710D02*
X145585754Y-155877710D01*
X103240890Y-159445062D02*
X103367162Y-158950495D01*
X141481254Y-156220170D02*
X141940349Y-156220170D01*
X124963326Y-156127390D02*
X125148573Y-156236120D01*
X129019635Y-158978635D02*
X128974037Y-159360960D01*
X127922364Y-154806510D02*
X128381454Y-154806515D01*
X140968754Y-154138015D02*
X140533824Y-154138015D01*
X126733473Y-156220015D02*
X126733473Y-155877710D01*
X109920905Y-160369163D02*
X110271662Y-160430545D01*
X142827394Y-154935650D02*
X142924044Y-154718185D01*
X140489509Y-154911225D02*
X140525759Y-155181040D01*
X96471339Y-161625838D02*
X95857435Y-161404249D01*
X136846054Y-160184900D02*
X136846054Y-158297840D01*
X134822407Y-155192975D02*
X135080143Y-155289630D01*
X98031878Y-162388490D02*
X98481180Y-162696391D01*
X128687517Y-155905900D02*
X128562676Y-155873700D01*
X100224003Y-159533699D02*
X99993077Y-159801440D01*
X122697469Y-154456075D02*
X122834391Y-154443975D01*
X103198799Y-159974700D02*
X103240890Y-159445062D01*
X118556300Y-160528640D02*
X118310771Y-160549690D01*
X140906269Y-159694015D02*
X140948369Y-159932525D01*
X104608832Y-161160255D02*
X105029738Y-161546085D01*
X122991446Y-155370130D02*
X123188775Y-155406380D01*
X156486754Y-157491290D02*
X156486754Y-159287155D01*
X135737667Y-158389095D02*
X135828864Y-158669700D01*
X123349863Y-154838645D02*
X123349861Y-155180920D01*
X141762109Y-161216290D02*
X141365756Y-161179460D01*
X131009296Y-155913795D02*
X130691153Y-155833255D01*
X139611321Y-161118025D02*
X138881754Y-161118015D01*
X134608234Y-160255055D02*
X134545098Y-160002510D01*
X127538846Y-154138145D02*
X127079754Y-154138145D01*
X157707384Y-161616195D02*
X158016049Y-161503955D01*
X124971921Y-161104230D02*
X125098193Y-160514960D01*
X140501614Y-155950205D02*
X140509664Y-155950205D01*
X142051491Y-160416569D02*
X142274219Y-160269250D01*
X99072726Y-158298720D02*
X99072726Y-160122700D01*
X144840254Y-156578585D02*
X144840254Y-157013515D01*
X123917686Y-154443950D02*
X123966011Y-154443950D01*
X99397357Y-157140740D02*
X99079415Y-157140740D01*
X138587116Y-157491205D02*
X139029071Y-157456155D01*
X131226765Y-154532585D02*
X131359660Y-154653395D01*
X123543161Y-156139315D02*
X123736463Y-155950040D01*
X133794483Y-157659465D02*
X133527909Y-157996190D01*
X129561404Y-155189090D02*
X129714435Y-155015925D01*
X105661099Y-162619395D02*
X105113920Y-162568535D01*
X99868781Y-156534386D02*
X99209664Y-156457125D01*
X107821749Y-160816515D02*
X107737568Y-161226898D01*
X118935114Y-158669700D02*
X118956159Y-158894180D01*
X117847775Y-160423420D02*
X117714488Y-160255055D01*
X135261365Y-155019850D02*
X135140551Y-154959445D01*
X142274219Y-160269250D02*
X142428552Y-160027231D01*
X100324407Y-158064445D02*
X99932000Y-157892086D01*
X106509924Y-157519415D02*
X106871202Y-157691286D01*
X133738227Y-154137990D02*
X133738227Y-155446805D01*
X123229045Y-155861445D02*
X123092123Y-155901695D01*
X117293582Y-157463040D02*
X116900736Y-157659465D01*
X128538513Y-156248200D02*
X128836520Y-156276400D01*
X115713603Y-160556870D02*
X115464567Y-160826952D01*
X129094256Y-154951465D02*
X128880819Y-155011870D01*
X118149422Y-158059385D02*
X118605404Y-158157595D01*
X130091112Y-155583575D02*
X130187763Y-155917825D01*
X143607674Y-153689222D02*
X143773794Y-153791915D01*
X128534484Y-154524615D02*
X128852627Y-154444070D01*
X130473691Y-154709760D02*
X130517991Y-154580895D01*
X151301169Y-157491215D02*
X152149994Y-157491215D01*
X139611321Y-157491205D02*
X139611321Y-158262865D01*
X135043172Y-158059385D02*
X135499154Y-158157595D01*
X140203584Y-154508510D02*
X140384804Y-154677650D01*
X130268307Y-155192975D02*
X130526043Y-155289630D01*
X142879779Y-156192080D02*
X143278464Y-156276650D01*
X147486834Y-154709760D02*
X147531134Y-154580895D01*
X98480343Y-160992885D02*
X98738879Y-160833913D01*
X135688562Y-159174735D02*
X135485124Y-159125635D01*
X135140551Y-154959445D02*
X135055981Y-154858765D01*
X126094340Y-160956895D02*
X126038219Y-161195410D01*
X135849909Y-158894180D02*
X135849909Y-159265930D01*
X148425164Y-155180920D02*
X148167429Y-155096350D01*
X106678286Y-158964526D02*
X106446788Y-158606755D01*
X98444373Y-160305934D02*
X98005111Y-160581205D01*
X117588214Y-158297905D02*
X117721501Y-158150585D01*
X97936642Y-156755975D02*
X97381103Y-157106599D01*
X139611321Y-158262865D02*
X139464006Y-158241815D01*
X159278764Y-161489900D02*
X158977114Y-162002000D01*
X147704299Y-155833255D02*
X147563349Y-155583575D01*
X143769769Y-155704830D02*
X143596599Y-155857865D01*
X148264069Y-155406380D02*
X148400989Y-155478870D01*
X128381454Y-154806515D02*
X128429779Y-154635360D01*
X124931109Y-155656315D02*
X124810295Y-155434825D01*
X105661098Y-161693400D02*
X106046929Y-161623250D01*
X133766417Y-156232097D02*
X133999990Y-156099200D01*
X122834391Y-154443975D02*
X122999503Y-154464125D01*
X143342894Y-154500720D02*
X143600629Y-154561130D01*
X110874961Y-159930717D02*
X110910036Y-159539625D01*
X147241179Y-154230495D02*
X147084119Y-154419770D01*
X102413708Y-159493600D02*
X102223141Y-158779759D01*
X140525774Y-154419915D02*
X140255959Y-154158150D01*
X122556404Y-158143515D02*
X122556404Y-158143515D01*
X123297510Y-154653395D02*
X123349863Y-154838645D01*
X128837243Y-159666115D02*
X128416337Y-160101055D01*
X135281499Y-154081510D02*
X135011682Y-154121760D01*
X123188775Y-155406380D02*
X123325698Y-155478870D01*
X122411541Y-154709760D02*
X122455841Y-154580895D01*
X98308820Y-161780208D02*
X98262802Y-161511630D01*
X146391179Y-156220015D02*
X146805969Y-156220015D01*
X130070978Y-154419770D02*
X130014598Y-154689585D01*
X158016049Y-160276310D02*
X157707384Y-160171085D01*
X122786064Y-155056100D02*
X122645115Y-155019850D01*
X124842142Y-158722588D02*
X124971921Y-158354295D01*
X123966011Y-154117760D02*
X123889495Y-154097610D01*
X99079415Y-157790010D02*
X98631578Y-157856946D01*
X98568643Y-163989164D02*
X99209664Y-164062910D01*
X136582261Y-154443950D02*
X136646695Y-154452000D01*
X130650199Y-162500000D02*
X129654054Y-162500015D01*
X122822980Y-157399915D02*
X123196534Y-157438498D01*
X148022439Y-155913795D02*
X147704299Y-155833255D01*
X118914067Y-161174030D02*
X119426172Y-161026710D01*
X106383653Y-161440855D02*
X106629182Y-161160255D01*
X135450046Y-160528640D02*
X135204518Y-160549690D01*
X134941452Y-160518123D02*
X134741521Y-160423420D01*
X134481964Y-158753885D02*
X134432859Y-158522385D01*
X112626958Y-160058800D02*
X112493671Y-159301165D01*
X143870446Y-153959039D02*
X143902664Y-154186570D01*
X135106306Y-159637720D02*
X135492137Y-159700860D01*
X149394254Y-154138145D02*
X149394254Y-157013515D01*
X136582261Y-154117760D02*
X136505745Y-154097610D01*
X124737806Y-155817300D02*
X124745861Y-155817300D01*
X138222333Y-157610465D02*
X138587116Y-157491205D01*
X123325698Y-155478870D02*
X123378050Y-155631900D01*
X110910036Y-158515420D02*
X111206224Y-158220069D01*
X148066739Y-155370130D02*
X148264069Y-155406380D01*
X140368704Y-155720675D02*
X140187483Y-155865650D01*
X98159061Y-159393105D02*
X98302971Y-158723755D01*
X127994853Y-154484340D02*
X127922364Y-154806510D01*
X145299349Y-156220170D02*
X145299349Y-154138145D01*
X147531134Y-154580895D02*
X147635839Y-154496325D01*
X102480154Y-160260015D02*
X102480154Y-160260015D01*
X131387848Y-155478870D02*
X131440200Y-155631900D01*
X146391179Y-155877710D02*
X146391179Y-154766220D01*
X139808949Y-156276420D02*
X140006274Y-156256270D01*
X104622864Y-157575535D02*
X105113921Y-157428220D01*
X128188155Y-154258820D02*
X127994853Y-154484340D01*
X135080143Y-155289630D02*
X135370096Y-155337930D01*
X121952448Y-154689585D02*
X122020909Y-155003700D01*
X131395900Y-155776875D02*
X131291195Y-155861445D01*
X124306903Y-154138090D02*
X124306904Y-156220015D01*
X134117177Y-160956570D02*
X134650322Y-161152995D01*
X96897080Y-157570966D02*
X96497724Y-158133783D01*
X139365959Y-155156880D02*
X139398159Y-154895115D01*
X140384804Y-154677650D02*
X140489509Y-154911225D01*
X99985547Y-162687984D02*
X100418115Y-162415225D01*
X127609598Y-158347295D02*
X127293919Y-158249080D01*
X115776738Y-158054234D02*
X116043313Y-158613685D01*
X137282309Y-161118015D02*
X137282309Y-160451580D01*
X115012087Y-160027231D02*
X115110299Y-159694015D01*
X145585754Y-155877710D02*
X145585754Y-156220015D01*
X106046929Y-161623250D02*
X106383653Y-161440855D01*
X122753846Y-155337930D02*
X122991446Y-155370130D01*
X141940349Y-154138145D02*
X141481254Y-154138145D01*
X135994300Y-155631900D02*
X135950000Y-155776875D01*
X128491750Y-162023205D02*
X128240960Y-162247690D01*
M02*
