G04 #@! TF.GenerationSoftware,KiCad,Pcbnew,(7.0.0-0)*
G04 #@! TF.CreationDate,2024-11-26T16:17:07-08:00*
G04 #@! TF.ProjectId,tas5754m,74617335-3735-4346-9d2e-6b696361645f,rev?*
G04 #@! TF.SameCoordinates,Original*
G04 #@! TF.FileFunction,Paste,Top*
G04 #@! TF.FilePolarity,Positive*
%FSLAX46Y46*%
G04 Gerber Fmt 4.6, Leading zero omitted, Abs format (unit mm)*
G04 Created by KiCad (PCBNEW (7.0.0-0)) date 2024-11-26 16:17:07*
%MOMM*%
%LPD*%
G01*
G04 APERTURE LIST*
G04 Aperture macros list*
%AMRoundRect*
0 Rectangle with rounded corners*
0 $1 Rounding radius*
0 $2 $3 $4 $5 $6 $7 $8 $9 X,Y pos of 4 corners*
0 Add a 4 corners polygon primitive as box body*
4,1,4,$2,$3,$4,$5,$6,$7,$8,$9,$2,$3,0*
0 Add four circle primitives for the rounded corners*
1,1,$1+$1,$2,$3*
1,1,$1+$1,$4,$5*
1,1,$1+$1,$6,$7*
1,1,$1+$1,$8,$9*
0 Add four rect primitives between the rounded corners*
20,1,$1+$1,$2,$3,$4,$5,0*
20,1,$1+$1,$4,$5,$6,$7,0*
20,1,$1+$1,$6,$7,$8,$9,0*
20,1,$1+$1,$8,$9,$2,$3,0*%
G04 Aperture macros list end*
%ADD10R,0.300000X1.100000*%
%ADD11R,8.500000X3.300000*%
%ADD12R,3.250000X5.000000*%
%ADD13RoundRect,0.250000X-0.325000X-0.450000X0.325000X-0.450000X0.325000X0.450000X-0.325000X0.450000X0*%
%ADD14RoundRect,0.250000X1.500000X0.550000X-1.500000X0.550000X-1.500000X-0.550000X1.500000X-0.550000X0*%
%ADD15RoundRect,0.250000X0.325000X0.450000X-0.325000X0.450000X-0.325000X-0.450000X0.325000X-0.450000X0*%
%ADD16RoundRect,0.250000X0.450000X-0.325000X0.450000X0.325000X-0.450000X0.325000X-0.450000X-0.325000X0*%
%ADD17RoundRect,0.250000X-0.450000X0.325000X-0.450000X-0.325000X0.450000X-0.325000X0.450000X0.325000X0*%
%ADD18RoundRect,0.250000X0.350000X0.450000X-0.350000X0.450000X-0.350000X-0.450000X0.350000X-0.450000X0*%
%ADD19R,2.000000X1.500000*%
%ADD20R,2.000000X3.800000*%
%ADD21RoundRect,0.250000X-0.450000X0.350000X-0.450000X-0.350000X0.450000X-0.350000X0.450000X0.350000X0*%
G04 APERTURE END LIST*
D10*
X123749999Y-122249999D03*
X123249999Y-122249999D03*
X122749999Y-122249999D03*
X122249999Y-122249999D03*
X121749999Y-122249999D03*
X121249999Y-122249999D03*
X120749999Y-122249999D03*
X120249999Y-122249999D03*
X119749999Y-122249999D03*
X119249999Y-122249999D03*
X118749999Y-122249999D03*
X118249999Y-122249999D03*
X117749999Y-122249999D03*
X117249999Y-122249999D03*
X116749999Y-122249999D03*
X116249999Y-122249999D03*
X115749999Y-122249999D03*
X115249999Y-122249999D03*
X114749999Y-122249999D03*
X114249999Y-122249999D03*
X113749999Y-122249999D03*
X113249999Y-122249999D03*
X112749999Y-122249999D03*
X112249999Y-122249999D03*
X112249999Y-129749999D03*
X112749999Y-129749999D03*
X113249999Y-129749999D03*
X113749999Y-129749999D03*
X114249999Y-129749999D03*
X114749999Y-129749999D03*
X115249999Y-129749999D03*
X115749999Y-129749999D03*
X116249999Y-129749999D03*
X116749999Y-129749999D03*
X117249999Y-129749999D03*
X117749999Y-129749999D03*
X118249999Y-129749999D03*
X118749999Y-129749999D03*
X119249999Y-129749999D03*
X119749999Y-129749999D03*
X120249999Y-129749999D03*
X120749999Y-129749999D03*
X121249999Y-129749999D03*
X121749999Y-129749999D03*
X122249999Y-129749999D03*
X122749999Y-129749999D03*
X123249999Y-129749999D03*
X123749999Y-129749999D03*
D11*
X117999999Y-125999999D03*
D12*
X129374999Y-153999999D03*
X140624999Y-153999999D03*
X136374999Y-137999999D03*
X147624999Y-137999999D03*
X136374999Y-113999999D03*
X147624999Y-113999999D03*
X129374999Y-97999999D03*
X140624999Y-97999999D03*
D13*
X121225000Y-115750000D03*
X123275000Y-115750000D03*
D14*
X121400000Y-100600000D03*
X115800000Y-100600000D03*
X121400000Y-108200000D03*
X115800000Y-108200000D03*
D15*
X120025000Y-113000000D03*
X117975000Y-113000000D03*
X127225000Y-115800000D03*
X125175000Y-115800000D03*
X114225000Y-115250000D03*
X112175000Y-115250000D03*
D16*
X118000000Y-117775000D03*
X118000000Y-115725000D03*
D17*
X128000000Y-119975000D03*
X128000000Y-122025000D03*
D16*
X128000000Y-132025000D03*
X128000000Y-129975000D03*
D17*
X117500000Y-136225000D03*
X117500000Y-138275000D03*
D15*
X126325000Y-137000000D03*
X124275000Y-137000000D03*
X111775000Y-133000000D03*
X109725000Y-133000000D03*
D17*
X109250000Y-139475000D03*
X109250000Y-141525000D03*
X112750000Y-139475000D03*
X112750000Y-141525000D03*
D13*
X120375000Y-136250000D03*
X122425000Y-136250000D03*
D14*
X121400000Y-151400000D03*
X115800000Y-151400000D03*
X122300000Y-143750000D03*
X116700000Y-143750000D03*
D18*
X99000000Y-153000000D03*
X97000000Y-153000000D03*
D17*
X109750000Y-108225000D03*
X109750000Y-110275000D03*
D16*
X111800000Y-110275000D03*
X111800000Y-108225000D03*
D19*
X99849999Y-144699999D03*
X99849999Y-146999999D03*
D20*
X106149999Y-146999999D03*
D19*
X99849999Y-149299999D03*
D17*
X116000000Y-114725000D03*
X116000000Y-116775000D03*
D13*
X110725000Y-137250000D03*
X112775000Y-137250000D03*
D17*
X115500000Y-136225000D03*
X115500000Y-138275000D03*
D21*
X106000000Y-155000000D03*
X106000000Y-157000000D03*
D18*
X103000000Y-153000000D03*
X101000000Y-153000000D03*
M02*
