%TF.GenerationSoftware,KiCad,Pcbnew,8.0.6*%
%TF.CreationDate,2024-12-08T12:16:10-08:00*%
%TF.ProjectId,dsp3,64737033-2e6b-4696-9361-645f70636258,rev?*%
%TF.SameCoordinates,Original*%
%TF.FileFunction,Soldermask,Bot*%
%TF.FilePolarity,Negative*%
%FSLAX46Y46*%
G04 Gerber Fmt 4.6, Leading zero omitted, Abs format (unit mm)*
G04 Created by KiCad (PCBNEW 8.0.6) date 2024-12-08 12:16:10*
%MOMM*%
%LPD*%
G01*
G04 APERTURE LIST*
G04 Aperture macros list*
%AMRoundRect*
0 Rectangle with rounded corners*
0 $1 Rounding radius*
0 $2 $3 $4 $5 $6 $7 $8 $9 X,Y pos of 4 corners*
0 Add a 4 corners polygon primitive as box body*
4,1,4,$2,$3,$4,$5,$6,$7,$8,$9,$2,$3,0*
0 Add four circle primitives for the rounded corners*
1,1,$1+$1,$2,$3*
1,1,$1+$1,$4,$5*
1,1,$1+$1,$6,$7*
1,1,$1+$1,$8,$9*
0 Add four rect primitives between the rounded corners*
20,1,$1+$1,$2,$3,$4,$5,0*
20,1,$1+$1,$4,$5,$6,$7,0*
20,1,$1+$1,$6,$7,$8,$9,0*
20,1,$1+$1,$8,$9,$2,$3,0*%
G04 Aperture macros list end*
%ADD10C,2.000000*%
%ADD11C,1.400000*%
%ADD12C,1.600000*%
%ADD13R,1.700000X1.700000*%
%ADD14O,1.700000X1.700000*%
%ADD15RoundRect,0.250000X-0.600000X-0.600000X0.600000X-0.600000X0.600000X0.600000X-0.600000X0.600000X0*%
%ADD16C,1.700000*%
%ADD17O,2.000000X1.600000*%
%ADD18R,2.000000X2.000000*%
%ADD19C,3.200000*%
%ADD20C,2.500000*%
G04 APERTURE END LIST*
D10*
%TO.C,U7*%
X42660000Y-55880000D03*
D11*
X42920000Y-58490000D03*
X48000000Y-58490000D03*
D10*
X48260000Y-55880000D03*
D12*
X42920000Y-61120000D03*
X45460000Y-61120000D03*
X48000000Y-61120000D03*
%TD*%
D13*
%TO.C,J5*%
X99060000Y-106680000D03*
D14*
X101600000Y-106680000D03*
X104139999Y-106680000D03*
X106680000Y-106680000D03*
X109220000Y-106680000D03*
%TD*%
D13*
%TO.C,J17*%
X22860000Y-58420000D03*
D14*
X22860000Y-60960000D03*
X22860000Y-63500000D03*
X22860000Y-66040000D03*
%TD*%
D15*
%TO.C,J3*%
X76200000Y-55880000D03*
D16*
X78740000Y-55880000D03*
X76200000Y-58420000D03*
X78740000Y-58420000D03*
X76200000Y-60960000D03*
X78740000Y-60960000D03*
X76200000Y-63500000D03*
X78740000Y-63500000D03*
X76200000Y-66040000D03*
X78740000Y-66040000D03*
X76200000Y-68580000D03*
X78740000Y-68580000D03*
X76200000Y-71120000D03*
X78740000Y-71120000D03*
X76200000Y-73660000D03*
X78740000Y-73660000D03*
%TD*%
D15*
%TO.C,J1*%
X96520000Y-55880000D03*
D16*
X99060000Y-55880000D03*
X96520000Y-58420000D03*
X99060000Y-58420000D03*
X96520000Y-60960000D03*
X99060000Y-60960000D03*
X96520000Y-63500000D03*
X99060000Y-63500000D03*
X96520000Y-66040000D03*
X99060000Y-66040000D03*
X96520000Y-68580000D03*
X99060000Y-68580000D03*
X96520000Y-71120000D03*
X99060000Y-71120000D03*
X96520000Y-73660000D03*
X99060000Y-73660000D03*
%TD*%
D13*
%TO.C,J13*%
X58420000Y-118000000D03*
D14*
X55880000Y-118000000D03*
%TD*%
D15*
%TO.C,J2*%
X86360000Y-55880000D03*
D16*
X88900000Y-55880000D03*
X86360000Y-58420000D03*
X88900000Y-58420000D03*
X86360000Y-60960000D03*
X88900000Y-60960000D03*
X86360000Y-63500000D03*
X88900000Y-63500000D03*
X86360000Y-66040000D03*
X88900000Y-66040000D03*
X86360000Y-68580000D03*
X88900000Y-68580000D03*
X86360000Y-71120000D03*
X88900000Y-71120000D03*
X86360000Y-73660000D03*
X88900000Y-73660000D03*
%TD*%
D15*
%TO.C,J18*%
X22860000Y-73660000D03*
D16*
X25400000Y-73660000D03*
X22860000Y-76200000D03*
X25400000Y-76200000D03*
X22860000Y-78739999D03*
X25400000Y-78740000D03*
X22860000Y-81280000D03*
X25400000Y-81280000D03*
X22860000Y-83820000D03*
X25400000Y-83820000D03*
X22860000Y-86360000D03*
X25400000Y-86360000D03*
X22860000Y-88900000D03*
X25400000Y-88900000D03*
X22860000Y-91440001D03*
X25400000Y-91440000D03*
X22860000Y-93980000D03*
X25400000Y-93980000D03*
X22860000Y-96520000D03*
X25400000Y-96520000D03*
%TD*%
D17*
%TO.C,U3*%
X109220000Y-121920000D03*
X109220000Y-124460000D03*
X109220000Y-126999999D03*
X109220000Y-129540000D03*
X109220000Y-132080000D03*
X109220000Y-134620000D03*
X109220000Y-137160000D03*
X109220000Y-139700001D03*
X86360000Y-139700001D03*
X86360000Y-137160000D03*
X86360000Y-134620000D03*
X86360000Y-132080000D03*
X86360000Y-129540000D03*
X86360000Y-126999999D03*
X86360000Y-124460000D03*
D18*
X86360000Y-121920000D03*
%TD*%
D12*
%TO.C,U4*%
X33020000Y-58420000D03*
X38100000Y-58420000D03*
X38100000Y-61050000D03*
X35560000Y-61050000D03*
X33020000Y-61050000D03*
%TD*%
D13*
%TO.C,J6*%
X86360000Y-106680000D03*
D14*
X88900000Y-106680000D03*
X91439999Y-106680000D03*
X93980000Y-106680000D03*
%TD*%
D19*
%TO.C,H3*%
X116000000Y-51000000D03*
%TD*%
%TO.C,H1*%
X23000000Y-51000000D03*
%TD*%
D13*
%TO.C,J12*%
X50800000Y-124460000D03*
D14*
X48260000Y-124460000D03*
X50800000Y-121920000D03*
X48260000Y-121920000D03*
X50800000Y-119380001D03*
X48260000Y-119380000D03*
X50800000Y-116840000D03*
X48260000Y-116840000D03*
X50800000Y-114300000D03*
X48260000Y-114300000D03*
X50800000Y-111760000D03*
X48260000Y-111760000D03*
%TD*%
D20*
%TO.C,J15*%
X113000000Y-57000000D03*
X108000000Y-57000000D03*
%TD*%
D10*
%TO.C,SW2*%
X45500000Y-134000000D03*
X52000000Y-134000000D03*
X45500000Y-138500000D03*
X52000000Y-138500000D03*
%TD*%
D13*
%TO.C,J10*%
X45720000Y-71120000D03*
D14*
X48260000Y-71120000D03*
X45720000Y-73660000D03*
X48260000Y-73660000D03*
X45720000Y-76200000D03*
X48260000Y-76200000D03*
X45720000Y-78740000D03*
X48260000Y-78740000D03*
%TD*%
D13*
%TO.C,J8*%
X55880000Y-121920000D03*
D14*
X58420000Y-121920000D03*
X55880000Y-124460000D03*
X58420000Y-124460000D03*
X55880000Y-127000000D03*
X58420000Y-127000000D03*
%TD*%
D19*
%TO.C,H4*%
X116000000Y-144000000D03*
%TD*%
D15*
%TO.C,J7*%
X55880000Y-55880000D03*
D16*
X58420000Y-55880000D03*
X55880000Y-58420000D03*
X58420000Y-58420000D03*
X55880000Y-60960000D03*
X58420000Y-60960000D03*
X55880000Y-63500000D03*
X58420000Y-63500000D03*
X55880000Y-66040000D03*
X58420000Y-66040000D03*
X55880000Y-68580000D03*
X58420000Y-68580000D03*
X55880000Y-71120000D03*
X58420000Y-71120000D03*
X55880000Y-73660000D03*
X58420000Y-73660000D03*
%TD*%
D15*
%TO.C,J4*%
X66040000Y-55880000D03*
D16*
X68580000Y-55880000D03*
X66040000Y-58420000D03*
X68580000Y-58420000D03*
X66040000Y-60960000D03*
X68580000Y-60960000D03*
X66040000Y-63500000D03*
X68580000Y-63500000D03*
X66040000Y-66040000D03*
X68580000Y-66040000D03*
X66040000Y-68580000D03*
X68580000Y-68580000D03*
X66040000Y-71120000D03*
X68580000Y-71120000D03*
X66040000Y-73660000D03*
X68580000Y-73660000D03*
%TD*%
D19*
%TO.C,H2*%
X23000000Y-144000000D03*
%TD*%
D13*
%TO.C,J11*%
X81280000Y-132080000D03*
D14*
X81280000Y-134620000D03*
X81280000Y-137160000D03*
X81280000Y-139700000D03*
%TD*%
D13*
%TO.C,J9*%
X38100000Y-71120000D03*
D14*
X40640000Y-71120000D03*
X38100000Y-73660000D03*
X40640000Y-73660000D03*
X38100000Y-76200000D03*
X40640000Y-76200000D03*
X38100000Y-78740000D03*
X40640000Y-78740000D03*
%TD*%
D13*
%TO.C,J16*%
X42400000Y-114300000D03*
D14*
X42400000Y-116840000D03*
X42400000Y-119380000D03*
X42400000Y-121920000D03*
X42400000Y-124460000D03*
%TD*%
M02*
