M48
; DRILL file {KiCad 8.0.6} date 2024-12-08T12:16:13-0800
; FORMAT={-:-/ absolute / inch / decimal}
; #@! TF.CreationDate,2024-12-08T12:16:13-08:00
; #@! TF.GenerationSoftware,Kicad,Pcbnew,8.0.6
; #@! TF.FileFunction,Plated,1,2,PTH
FMAT,2
INCH
; #@! TA.AperFunction,Plated,PTH,ViaDrill
T1C0.0118
; #@! TA.AperFunction,Plated,PTH,ViaDrill
T2C0.0157
; #@! TA.AperFunction,Plated,PTH,ComponentDrill
T3C0.0354
; #@! TA.AperFunction,Plated,PTH,ComponentDrill
T4C0.0394
; #@! TA.AperFunction,Plated,PTH,ComponentDrill
T5C0.0433
; #@! TA.AperFunction,Plated,PTH,ComponentDrill
T6C0.0472
%
G90
G05
T1
X0.9331Y-5.1693
X0.937Y-5.2835
X1.0157Y-5.1457
X1.125Y-4.1969
X1.1496Y-4.7756
X1.1811Y-4.6535
X1.2047Y-4.7087
X1.2126Y-4.1969
X1.2126Y-4.7441
X1.2323Y-4.6693
X1.2362Y-4.7795
X1.2598Y-4.7283
X1.2638Y-4.685
X1.2854Y-3.7347
X1.2874Y-4.1102
X1.3622Y-5.1181
X1.4173Y-4.5906
X1.4409Y-5.1969
X1.448Y-3.184
X1.4961Y-3.4252
X1.5354Y-3.2677
X1.5748Y-3.8976
X1.6142Y-3.7402
X1.7272Y-3.8138
X1.7717Y-4.3307
X1.8393Y-3.7049
X1.8898Y-4.0945
X1.9685Y-4.0945
X2.0472Y-3.8189
X2.1358Y-4.124
X2.1457Y-4.0157
X2.1765Y-3.9895
X2.2047Y-3.8189
X2.2047Y-5.1575
X2.2126Y-3.0079
X2.3071Y-3.1654
X2.3425Y-4.5079
X2.3425Y-4.5472
X2.3622Y-3.3858
X2.4016Y-4.8031
X2.4094Y-2.8898
X2.4606Y-3.8583
X2.4724Y-2.3543
X2.4803Y-3.3465
X2.4803Y-3.8189
X2.4803Y-5.1969
X2.4921Y-3.8976
X2.4961Y-2.1732
X2.5Y-3.7874
X2.5Y-3.9331
X2.5039Y-3.2047
X2.5197Y-3.8583
X2.5197Y-4.6457
X2.5197Y-5.0
X2.5394Y-3.815
X2.5472Y-3.9173
X2.5906Y-3.8622
X2.5984Y-4.3012
X2.5984Y-4.685
X2.6142Y-3.0236
X2.6378Y-5.0787
X2.6476Y-4.3701
X2.8425Y-2.378
X2.8976Y-2.1575
X2.9134Y-4.5276
X2.9528Y-4.3701
X2.9921Y-3.0079
X2.9921Y-4.7244
X3.0315Y-4.4488
X3.1102Y-5.1969
X3.2283Y-3.622
X3.2283Y-3.7008
X3.2283Y-3.7795
X3.2598Y-2.3465
X3.2913Y-2.126
X3.3228Y-2.874
X3.4016Y-3.811
X3.5039Y-3.8189
X3.6693Y-3.1102
X3.6772Y-2.3543
X3.685Y-2.1417
X3.685Y-2.9134
X3.7008Y-3.5433
X3.7402Y-3.6614
X3.7402Y-3.7795
X3.7795Y-3.8976
X3.7841Y-3.3117
X3.7866Y-3.3406
X3.7874Y-3.0
X3.8189Y-3.5433
X3.9764Y-3.1496
X3.9764Y-3.2677
X3.9969Y-3.0989
X4.0945Y-2.9134
X4.0945Y-3.5039
X4.1339Y-3.0315
X4.1339Y-3.1496
X4.252Y-3.8976
X4.2598Y-1.937
X4.2598Y-2.1654
X4.2913Y-3.2087
X4.3071Y-3.3425
X4.3386Y-2.0945
X4.5197Y-3.3228
X4.5354Y-3.189
X4.5354Y-3.4567
T2
X0.8031Y-4.5984
X0.8071Y-2.4016
X0.8071Y-2.5394
X0.8071Y-2.6575
X0.8071Y-4.4724
X0.8071Y-4.7598
X0.815Y-4.1417
X0.822Y-3.4307
X0.822Y-3.5685
X0.822Y-3.6866
X0.8228Y-4.311
X0.8268Y-2.9921
X0.8268Y-3.1299
X0.8268Y-3.248
X0.8386Y-4.8819
X0.8622Y-4.9882
X0.874Y-5.3701
X0.9016Y-4.8346
X0.9291Y-4.5433
X0.9404Y-4.9679
X0.9449Y-4.4646
X0.9528Y-5.0197
X0.9528Y-4.6969
X0.9764Y-4.5039
X0.9961Y-4.7047
X1.0236Y-5.315
X1.0433Y-4.8169
X1.063Y-2.1654
X1.1024Y-5.2362
X1.1417Y-2.185
X1.1496Y-5.189
X1.1811Y-2.4213
X1.1969Y-4.3346
X1.1969Y-5.0394
X1.2087Y-4.2756
X1.2205Y-4.0748
X1.2205Y-5.4331
X1.2205Y-5.4882
X1.2205Y-5.6181
X1.2234Y-5.3626
X1.251Y-5.0118
X1.2795Y-2.1063
X1.3031Y-5.315
X1.3465Y-4.3386
X1.3733Y-3.5086
X1.3826Y-5.3809
X1.3937Y-4.9882
X1.3976Y-2.1063
X1.3976Y-5.5315
X1.4032Y-4.3895
X1.4126Y-3.548
X1.4173Y-2.7165
X1.4311Y-4.8049
X1.4528Y-4.2795
X1.4567Y-2.5984
X1.4567Y-4.3189
X1.4614Y-2.7212
X1.4685Y-4.2362
X1.4766Y-4.8089
X1.4961Y-2.6378
X1.4961Y-5.3996
X1.4961Y-5.5315
X1.5039Y-3.5061
X1.5157Y-3.3465
X1.5354Y-2.1063
X1.5433Y-4.6102
X1.5709Y-4.0118
X1.5748Y-3.7992
X1.5775Y-4.8556
X1.5788Y-4.0788
X1.6091Y-4.036
X1.6142Y-4.3307
X1.6339Y-2.0669
X1.6494Y-4.0904
X1.6535Y-3.3661
X1.6732Y-2.815
X1.6732Y-2.8937
X1.6732Y-3.0118
X1.6732Y-3.0906
X1.685Y-4.9843
X1.6929Y-4.3228
X1.7126Y-3.7008
X1.7323Y-5.1969
X1.752Y-2.0669
X1.7913Y-3.3858
X1.811Y-4.0551
X1.8325Y-4.1714
X1.8504Y-3.5039
X1.8504Y-3.8976
X1.8701Y-5.5315
X1.8701Y-5.014
X1.8898Y-5.1203
X1.8898Y-2.0669
X1.9069Y-4.9982
X1.9208Y-3.5249
X1.9291Y-3.2874
X1.944Y-3.5638
X1.9488Y-5.5512
X1.9882Y-2.815
X1.9882Y-2.8937
X1.9882Y-2.9921
X1.9882Y-3.1102
X2.0079Y-4.2717
X2.0079Y-5.7087
X2.0669Y-5.0394
X2.0676Y-3.4048
X2.0866Y-5.7087
X2.1457Y-3.1693
X2.1457Y-5.3937
X2.1457Y-5.5709
X2.1488Y-4.4126
X2.1513Y-3.5163
X2.1857Y-4.1641
X2.197Y-4.2332
X2.2171Y-4.1926
X2.2244Y-4.3504
X2.2291Y-4.3063
X2.2441Y-3.3071
X2.2446Y-4.429
X2.3146Y-4.0336
X2.3178Y-4.1123
X2.333Y-4.076
X2.3543Y-1.9567
X2.3543Y-2.0551
X2.3622Y-4.685
X2.3976Y-2.0472
X2.4016Y-4.1339
X2.4016Y-3.4646
X2.4134Y-1.9213
X2.4409Y-3.4252
X2.4409Y-3.9961
X2.4409Y-4.685
X2.4718Y-4.0205
X2.4767Y-4.3007
X2.4803Y-3.1024
X2.5197Y-2.7165
X2.5197Y-2.9134
X2.5591Y-5.5906
X2.5787Y-5.748
X2.5886Y-3.9961
X2.5984Y-4.4291
X2.5984Y-4.5669
X2.6427Y-3.3465
X2.6457Y-3.1024
X2.6457Y-5.4567
X2.685Y-1.9567
X2.6969Y-5.748
X2.7205Y-2.0713
X2.748Y-5.0157
X2.7559Y-4.5276
X2.7559Y-4.685
X2.7559Y-5.5709
X2.7598Y-5.4646
X2.7657Y-2.0689
X2.7717Y-1.9449
X2.7953Y-2.8346
X2.7953Y-2.9331
X2.7953Y-4.2126
X2.7953Y-5.0787
X2.7953Y-5.1181
X2.8002Y-4.5262
X2.8031Y-4.8346
X2.815Y-2.6378
X2.8189Y-3.0236
X2.8228Y-3.1024
X2.8278Y-4.7579
X2.8346Y-4.6457
X2.8346Y-5.748
X2.8622Y-4.7874
X2.8629Y-4.7296
X2.8704Y-4.2493
X2.874Y-2.2638
X2.874Y-3.9764
X2.874Y-5.2756
X2.8787Y-4.5716
X2.8895Y-5.3898
X2.9134Y-4.0157
X2.9134Y-4.1339
X2.9134Y-4.7244
X2.9175Y-5.4291
X2.9331Y-5.748
X2.9528Y-5.2596
X2.9552Y-4.2525
X2.9724Y-3.7795
X2.9875Y-5.1134
X2.9908Y-4.6558
X2.9921Y-4.1732
X2.9921Y-4.2126
X2.9921Y-4.5276
X2.9935Y-5.0686
X2.9968Y-4.5716
X2.9968Y-4.611
X3.001Y-4.1339
X3.0063Y-4.3778
X3.0357Y-4.1073
X3.0512Y-5.748
X3.0709Y-4.4094
X3.0709Y-5.0
X3.0866Y-4.748
X3.1102Y-4.9213
X3.133Y-2.0689
X3.1417Y-1.9567
X3.1614Y-3.0748
X3.1614Y-3.1181
X3.1772Y-2.0787
X3.1818Y-4.181
X3.185Y-1.9291
X3.189Y-3.8976
X3.189Y-3.9961
X3.189Y-5.748
X3.216Y-4.1215
X3.2323Y-3.0039
X3.248Y-4.1535
X3.252Y-4.9213
X3.2618Y-4.7874
X3.2677Y-4.2126
X3.2677Y-4.6772
X3.2812Y-4.0293
X3.2992Y-4.9528
X3.3071Y-2.2638
X3.3071Y-2.4016
X3.3071Y-5.0
X3.3268Y-5.748
X3.4016Y-3.5276
X3.4409Y-3.3937
X3.4449Y-5.748
X3.4488Y-3.0315
X3.4567Y-3.4882
X3.4626Y-4.0461
X3.4646Y-5.3543
X3.4666Y-3.9673
X3.4801Y-3.657
X3.4843Y-4.1142
X3.5238Y-5.3135
X3.5348Y-2.0576
X3.5404Y-1.9636
X3.5433Y-3.937
X3.5433Y-5.3543
X3.548Y-4.0992
X3.5748Y-1.9291
X3.5748Y-2.0787
X3.5827Y-5.1378
X3.5827Y-5.748
X3.5886Y-3.937
X3.5894Y-3.3967
X3.6024Y-5.0197
X3.622Y-2.4409
X3.6417Y-2.2638
X3.6417Y-4.9016
X3.6535Y-3.4803
X3.6614Y-5.4921
X3.6725Y-3.2867
X3.6811Y-5.748
X3.7008Y-4.7638
X3.7008Y-5.4134
X3.7402Y-4.0945
X3.7402Y-5.1378
X3.7992Y-5.748
X3.8144Y-3.2869
X3.8976Y-5.0394
X3.8999Y-5.1998
X3.9272Y-2.0709
X3.937Y-5.748
X3.9409Y-1.9636
X3.9437Y-5.1781
X3.9567Y-3.3661
X3.9646Y-3.3071
X3.9724Y-2.0709
X3.9921Y-1.9291
X3.9921Y-5.4882
X4.0055Y-5.1528
X4.0157Y-5.1969
X4.0354Y-4.0945
X4.0354Y-4.9016
X4.063Y-1.9567
X4.0669Y-2.0591
X4.0945Y-5.748
X4.1142Y-2.1457
X4.1142Y-2.2441
X4.1142Y-2.3228
X4.1142Y-2.6969
X4.1142Y-4.8228
X4.1339Y-2.8543
X4.1339Y-5.3311
X4.1969Y-5.0551
X4.2126Y-4.9449
X4.2126Y-5.2756
X4.2126Y-5.748
X4.2559Y-2.9409
X4.2717Y-2.3819
X4.3228Y-2.9016
X4.3307Y-4.0551
X4.3465Y-3.2008
X4.3504Y-2.3425
X4.3504Y-5.748
X4.4016Y-3.5906
X4.4016Y-3.6457
X4.4173Y-3.6929
X4.4213Y-2.937
X4.4449Y-2.9134
X4.4488Y-3.9764
X4.4882Y-2.3622
X4.5276Y-3.9764
X4.6142Y-5.2835
T3
X1.3Y-2.4035
X1.4Y-2.4035
X1.5Y-2.4035
X1.6898Y-2.4063
X1.7898Y-2.4063
X1.8898Y-2.4063
T4
X0.9Y-2.3
X0.9Y-2.4
X0.9Y-2.5
X0.9Y-2.6
X0.9Y-2.9
X0.9Y-3.0
X0.9Y-3.1
X0.9Y-3.2
X0.9Y-3.3
X0.9Y-3.4
X0.9Y-3.5
X0.9Y-3.6
X0.9Y-3.7
X0.9Y-3.8
X1.0Y-2.9
X1.0Y-3.0
X1.0Y-3.1
X1.0Y-3.2
X1.0Y-3.3
X1.0Y-3.4
X1.0Y-3.5
X1.0Y-3.6
X1.0Y-3.7
X1.0Y-3.8
X1.5Y-2.8
X1.5Y-2.9
X1.5Y-3.0
X1.5Y-3.1
X1.6Y-2.8
X1.6Y-2.9
X1.6Y-3.0
X1.6Y-3.1
X1.6693Y-4.5
X1.6693Y-4.6
X1.6693Y-4.7
X1.6693Y-4.8
X1.6693Y-4.9
X1.8Y-2.8
X1.8Y-2.9
X1.8Y-3.0
X1.8Y-3.1
X1.9Y-2.8
X1.9Y-2.9
X1.9Y-3.0
X1.9Y-3.1
X1.9Y-4.4
X1.9Y-4.5
X1.9Y-4.6
X1.9Y-4.7
X1.9Y-4.8
X1.9Y-4.9
X2.0Y-4.4
X2.0Y-4.5
X2.0Y-4.6
X2.0Y-4.7
X2.0Y-4.8
X2.0Y-4.9
X2.2Y-2.2
X2.2Y-2.3
X2.2Y-2.4
X2.2Y-2.5
X2.2Y-2.6
X2.2Y-2.7
X2.2Y-2.8
X2.2Y-2.9
X2.2Y-4.6457
X2.2Y-4.8
X2.2Y-4.9
X2.2Y-5.0
X2.3Y-2.2
X2.3Y-2.3
X2.3Y-2.4
X2.3Y-2.5
X2.3Y-2.6
X2.3Y-2.7
X2.3Y-2.8
X2.3Y-2.9
X2.3Y-4.6457
X2.3Y-4.8
X2.3Y-4.9
X2.3Y-5.0
X2.6Y-2.2
X2.6Y-2.3
X2.6Y-2.4
X2.6Y-2.5
X2.6Y-2.6
X2.6Y-2.7
X2.6Y-2.8
X2.6Y-2.9
X2.7Y-2.2
X2.7Y-2.3
X2.7Y-2.4
X2.7Y-2.5
X2.7Y-2.6
X2.7Y-2.7
X2.7Y-2.8
X2.7Y-2.9
X3.0Y-2.2
X3.0Y-2.3
X3.0Y-2.4
X3.0Y-2.5
X3.0Y-2.6
X3.0Y-2.7
X3.0Y-2.8
X3.0Y-2.9
X3.1Y-2.2
X3.1Y-2.3
X3.1Y-2.4
X3.1Y-2.5
X3.1Y-2.6
X3.1Y-2.7
X3.1Y-2.8
X3.1Y-2.9
X3.2Y-5.2
X3.2Y-5.3
X3.2Y-5.4
X3.2Y-5.5
X3.4Y-2.2
X3.4Y-2.3
X3.4Y-2.4
X3.4Y-2.5
X3.4Y-2.6
X3.4Y-2.7
X3.4Y-2.8
X3.4Y-2.9
X3.4Y-4.2
X3.4Y-4.8
X3.4Y-4.9
X3.4Y-5.0
X3.4Y-5.1
X3.4Y-5.2
X3.4Y-5.3
X3.4Y-5.4
X3.4Y-5.5
X3.5Y-2.2
X3.5Y-2.3
X3.5Y-2.4
X3.5Y-2.5
X3.5Y-2.6
X3.5Y-2.7
X3.5Y-2.8
X3.5Y-2.9
X3.5Y-4.2
X3.6Y-4.2
X3.7Y-4.2
X3.8Y-2.2
X3.8Y-2.3
X3.8Y-2.4
X3.8Y-2.5
X3.8Y-2.6
X3.8Y-2.7
X3.8Y-2.8
X3.8Y-2.9
X3.9Y-2.2
X3.9Y-2.3
X3.9Y-2.4
X3.9Y-2.5
X3.9Y-2.6
X3.9Y-2.7
X3.9Y-2.8
X3.9Y-2.9
X3.9Y-4.2
X4.0Y-4.2
X4.1Y-4.2
X4.2Y-4.2
X4.3Y-4.2
X4.3Y-4.8
X4.3Y-4.9
X4.3Y-5.0
X4.3Y-5.1
X4.3Y-5.2
X4.3Y-5.3
X4.3Y-5.4
X4.3Y-5.5
T5
X1.7913Y-5.2756
X1.7913Y-5.4528
X2.0472Y-5.2756
X2.0472Y-5.4528
T6
X4.252Y-2.2441
X4.4488Y-2.2441
M30
