%TF.GenerationSoftware,KiCad,Pcbnew,8.0.6*%
%TF.CreationDate,2024-12-08T12:16:14-08:00*%
%TF.ProjectId,dsp3,64737033-2e6b-4696-9361-645f70636258,rev?*%
%TF.SameCoordinates,Original*%
%TF.FileFunction,Drillmap*%
%TF.FilePolarity,Positive*%
%FSLAX45Y45*%
G04 Gerber Fmt 4.5, Leading zero omitted, Abs format (unit mm)*
G04 Created by KiCad (PCBNEW 8.0.6) date 2024-12-08 12:16:14*
%MOMM*%
%LPD*%
G01*
G04 APERTURE LIST*
%ADD10C,0.200000*%
%ADD11C,0.100000*%
%ADD12C,0.110000*%
%ADD13C,0.120000*%
G04 APERTURE END LIST*
D10*
X11600000Y-4750000D02*
X2300000Y-4750000D01*
D11*
X11600000Y-4750000D02*
G75*
G02*
X11950000Y-5100000I0J-350000D01*
G01*
X11950000Y-5100000D02*
X11950000Y-14400000D01*
X11600000Y-14750000D02*
X2300000Y-14750000D01*
X1950000Y-5100000D02*
G75*
G02*
X2300000Y-4750000I350000J0D01*
G01*
X1950000Y-14400000D02*
X1950000Y-5100000D01*
X2300000Y-14750000D02*
G75*
G02*
X1950000Y-14400000I0J350000D01*
G01*
X11950000Y-14400000D02*
G75*
G02*
X11600000Y-14750000I-350000J0D01*
G01*
D10*
D11*
X2355000Y-13115000D02*
X2385000Y-13145000D01*
X2385000Y-13115000D02*
X2355000Y-13145000D01*
X2365000Y-13405000D02*
X2395000Y-13435000D01*
X2395000Y-13405000D02*
X2365000Y-13435000D01*
X2565000Y-13055000D02*
X2595000Y-13085000D01*
X2595000Y-13055000D02*
X2565000Y-13085000D01*
X2842500Y-10645000D02*
X2872500Y-10675000D01*
X2872500Y-10645000D02*
X2842500Y-10675000D01*
X2905001Y-12115000D02*
X2935001Y-12145000D01*
X2935001Y-12115000D02*
X2905001Y-12145000D01*
X2985000Y-11805000D02*
X3015000Y-11835000D01*
X3015000Y-11805000D02*
X2985000Y-11835000D01*
X3045000Y-11945000D02*
X3075000Y-11975000D01*
X3075000Y-11945000D02*
X3045000Y-11975000D01*
X3065000Y-10645000D02*
X3095000Y-10675000D01*
X3095000Y-10645000D02*
X3065000Y-10675000D01*
X3065000Y-12035000D02*
X3095000Y-12065000D01*
X3095000Y-12035000D02*
X3065000Y-12065000D01*
X3115000Y-11845000D02*
X3145000Y-11875000D01*
X3145000Y-11845000D02*
X3115000Y-11875000D01*
X3125000Y-12125000D02*
X3155000Y-12155000D01*
X3155000Y-12125000D02*
X3125000Y-12155000D01*
X3185000Y-11995000D02*
X3215000Y-12025000D01*
X3215000Y-11995000D02*
X3185000Y-12025000D01*
X3195000Y-11885000D02*
X3225000Y-11915000D01*
X3225000Y-11885000D02*
X3195000Y-11915000D01*
X3250000Y-9471255D02*
X3280000Y-9501255D01*
X3280000Y-9471255D02*
X3250000Y-9501255D01*
X3255000Y-10425000D02*
X3285000Y-10455000D01*
X3285000Y-10425000D02*
X3255000Y-10455000D01*
X3445000Y-12985000D02*
X3475000Y-13015000D01*
X3475000Y-12985000D02*
X3445000Y-13015000D01*
X3585000Y-11645000D02*
X3615000Y-11675000D01*
X3615000Y-11645000D02*
X3585000Y-11675000D01*
X3645000Y-13185000D02*
X3675000Y-13215000D01*
X3675000Y-13185000D02*
X3645000Y-13215000D01*
X3662853Y-8072455D02*
X3692853Y-8102455D01*
X3692853Y-8072455D02*
X3662853Y-8102455D01*
X3785000Y-8685000D02*
X3815000Y-8715000D01*
X3815000Y-8685000D02*
X3785000Y-8715000D01*
X3885000Y-8285000D02*
X3915000Y-8315000D01*
X3915000Y-8285000D02*
X3885000Y-8315000D01*
X3985000Y-9885000D02*
X4015000Y-9915000D01*
X4015000Y-9885000D02*
X3985000Y-9915000D01*
X4085000Y-9485000D02*
X4115000Y-9515000D01*
X4115000Y-9485000D02*
X4085000Y-9515000D01*
X4371967Y-9671967D02*
X4401967Y-9701967D01*
X4401967Y-9671967D02*
X4371967Y-9701967D01*
X4485000Y-10985000D02*
X4515000Y-11015000D01*
X4515000Y-10985000D02*
X4485000Y-11015000D01*
X4656805Y-9395501D02*
X4686805Y-9425501D01*
X4686805Y-9395501D02*
X4656805Y-9425501D01*
X4785000Y-10385000D02*
X4815000Y-10415000D01*
X4815000Y-10385000D02*
X4785000Y-10415000D01*
X4985000Y-10385000D02*
X5015000Y-10415000D01*
X5015000Y-10385000D02*
X4985000Y-10415000D01*
X5185000Y-9685000D02*
X5215000Y-9715000D01*
X5215000Y-9685000D02*
X5185000Y-9715000D01*
X5410000Y-10460000D02*
X5440000Y-10490000D01*
X5440000Y-10460000D02*
X5410000Y-10490000D01*
X5435000Y-10185000D02*
X5465000Y-10215000D01*
X5465000Y-10185000D02*
X5435000Y-10215000D01*
X5513275Y-10118336D02*
X5543275Y-10148336D01*
X5543275Y-10118336D02*
X5513275Y-10148336D01*
X5585000Y-9685000D02*
X5615000Y-9715000D01*
X5615000Y-9685000D02*
X5585000Y-9715000D01*
X5585000Y-13085000D02*
X5615000Y-13115000D01*
X5615000Y-13085000D02*
X5585000Y-13115000D01*
X5605000Y-7625000D02*
X5635000Y-7655000D01*
X5635000Y-7625000D02*
X5605000Y-7655000D01*
X5845000Y-8025000D02*
X5875000Y-8055000D01*
X5875000Y-8025000D02*
X5845000Y-8055000D01*
X5935000Y-11435000D02*
X5965000Y-11465000D01*
X5965000Y-11435000D02*
X5935000Y-11465000D01*
X5935000Y-11535000D02*
X5965000Y-11565000D01*
X5965000Y-11535000D02*
X5935000Y-11565000D01*
X5985000Y-8585000D02*
X6015000Y-8615000D01*
X6015000Y-8585000D02*
X5985000Y-8615000D01*
X6085000Y-12185000D02*
X6115000Y-12215000D01*
X6115000Y-12185000D02*
X6085000Y-12215000D01*
X6105000Y-7325000D02*
X6135000Y-7355000D01*
X6135000Y-7325000D02*
X6105000Y-7355000D01*
X6235000Y-9785000D02*
X6265000Y-9815000D01*
X6265000Y-9785000D02*
X6235000Y-9815000D01*
X6265000Y-5965000D02*
X6295000Y-5995000D01*
X6295000Y-5965000D02*
X6265000Y-5995000D01*
X6285000Y-8485000D02*
X6315000Y-8515000D01*
X6315000Y-8485000D02*
X6285000Y-8515000D01*
X6285000Y-9685000D02*
X6315000Y-9715000D01*
X6315000Y-9685000D02*
X6285000Y-9715000D01*
X6285000Y-13185000D02*
X6315000Y-13215000D01*
X6315000Y-13185000D02*
X6285000Y-13215000D01*
X6315000Y-9885000D02*
X6345000Y-9915000D01*
X6345000Y-9885000D02*
X6315000Y-9915000D01*
X6325000Y-5505000D02*
X6355000Y-5535000D01*
X6355000Y-5505000D02*
X6325000Y-5535000D01*
X6335000Y-9605000D02*
X6365000Y-9635000D01*
X6365000Y-9605000D02*
X6335000Y-9635000D01*
X6335000Y-9975000D02*
X6365000Y-10005000D01*
X6365000Y-9975000D02*
X6335000Y-10005000D01*
X6345000Y-8125000D02*
X6375000Y-8155000D01*
X6375000Y-8125000D02*
X6345000Y-8155000D01*
X6385000Y-9785000D02*
X6415000Y-9815000D01*
X6415000Y-9785000D02*
X6385000Y-9815000D01*
X6385000Y-11785000D02*
X6415000Y-11815000D01*
X6415000Y-11785000D02*
X6385000Y-11815000D01*
X6385000Y-12685000D02*
X6415000Y-12715000D01*
X6415000Y-12685000D02*
X6385000Y-12715000D01*
X6435000Y-9675000D02*
X6465000Y-9705000D01*
X6465000Y-9675000D02*
X6435000Y-9705000D01*
X6455000Y-9935000D02*
X6485000Y-9965000D01*
X6485000Y-9935000D02*
X6455000Y-9965000D01*
X6565000Y-9795000D02*
X6595000Y-9825000D01*
X6595000Y-9795000D02*
X6565000Y-9825000D01*
X6585000Y-10910000D02*
X6615000Y-10940000D01*
X6615000Y-10910000D02*
X6585000Y-10940000D01*
X6585000Y-11885000D02*
X6615000Y-11915000D01*
X6615000Y-11885000D02*
X6585000Y-11915000D01*
X6625000Y-7665000D02*
X6655000Y-7695000D01*
X6655000Y-7665000D02*
X6625000Y-7695000D01*
X6685000Y-12885000D02*
X6715000Y-12915000D01*
X6715000Y-12885000D02*
X6685000Y-12915000D01*
X6710000Y-11085000D02*
X6740000Y-11115000D01*
X6740000Y-11085000D02*
X6710000Y-11115000D01*
X7205000Y-6025000D02*
X7235000Y-6055000D01*
X7235000Y-6025000D02*
X7205000Y-6055000D01*
X7345000Y-5465000D02*
X7375000Y-5495000D01*
X7375000Y-5465000D02*
X7345000Y-5495000D01*
X7385000Y-11485000D02*
X7415000Y-11515000D01*
X7415000Y-11485000D02*
X7385000Y-11515000D01*
X7485000Y-11085000D02*
X7515000Y-11115000D01*
X7515000Y-11085000D02*
X7485000Y-11115000D01*
X7585000Y-7625000D02*
X7615000Y-7655000D01*
X7615000Y-7625000D02*
X7585000Y-7655000D01*
X7585000Y-11985000D02*
X7615000Y-12015000D01*
X7615000Y-11985000D02*
X7585000Y-12015000D01*
X7685000Y-11285000D02*
X7715000Y-11315000D01*
X7715000Y-11285000D02*
X7685000Y-11315000D01*
X7885000Y-13185000D02*
X7915000Y-13215000D01*
X7915000Y-13185000D02*
X7885000Y-13215000D01*
X8185000Y-9185000D02*
X8215000Y-9215000D01*
X8215000Y-9185000D02*
X8185000Y-9215000D01*
X8185000Y-9385000D02*
X8215000Y-9415000D01*
X8215000Y-9385000D02*
X8185000Y-9415000D01*
X8185000Y-9585000D02*
X8215000Y-9615000D01*
X8215000Y-9585000D02*
X8185000Y-9615000D01*
X8265000Y-5945000D02*
X8295000Y-5975000D01*
X8295000Y-5945000D02*
X8265000Y-5975000D01*
X8345000Y-5385000D02*
X8375000Y-5415000D01*
X8375000Y-5385000D02*
X8345000Y-5415000D01*
X8425000Y-7285000D02*
X8455000Y-7315000D01*
X8455000Y-7285000D02*
X8425000Y-7315000D01*
X8625000Y-9665000D02*
X8655000Y-9695000D01*
X8655000Y-9665000D02*
X8625000Y-9695000D01*
X8885000Y-9685000D02*
X8915000Y-9715000D01*
X8915000Y-9685000D02*
X8885000Y-9715000D01*
X9305000Y-7885000D02*
X9335000Y-7915000D01*
X9335000Y-7885000D02*
X9305000Y-7915000D01*
X9325000Y-5965000D02*
X9355000Y-5995000D01*
X9355000Y-5965000D02*
X9325000Y-5995000D01*
X9345000Y-5425000D02*
X9375000Y-5455000D01*
X9375000Y-5425000D02*
X9345000Y-5455000D01*
X9345000Y-7385000D02*
X9375000Y-7415000D01*
X9375000Y-7385000D02*
X9345000Y-7415000D01*
X9385000Y-8985000D02*
X9415000Y-9015000D01*
X9415000Y-8985000D02*
X9385000Y-9015000D01*
X9485000Y-9285000D02*
X9515000Y-9315000D01*
X9515000Y-9285000D02*
X9485000Y-9315000D01*
X9485000Y-9585000D02*
X9515000Y-9615000D01*
X9515000Y-9585000D02*
X9485000Y-9615000D01*
X9585000Y-9885000D02*
X9615000Y-9915000D01*
X9615000Y-9885000D02*
X9585000Y-9915000D01*
X9596621Y-8396621D02*
X9626621Y-8426621D01*
X9626621Y-8396621D02*
X9596621Y-8426621D01*
X9602969Y-8470000D02*
X9632969Y-8500000D01*
X9632969Y-8470000D02*
X9602969Y-8500000D01*
X9605000Y-7605000D02*
X9635000Y-7635000D01*
X9635000Y-7605000D02*
X9605000Y-7635000D01*
X9685000Y-8985000D02*
X9715000Y-9015000D01*
X9715000Y-8985000D02*
X9685000Y-9015000D01*
X10085000Y-7985000D02*
X10115000Y-8015000D01*
X10115000Y-7985000D02*
X10085000Y-8015000D01*
X10085000Y-8285000D02*
X10115000Y-8315000D01*
X10115000Y-8285000D02*
X10085000Y-8315000D01*
X10137149Y-7856093D02*
X10167149Y-7886093D01*
X10167149Y-7856093D02*
X10137149Y-7886093D01*
X10385000Y-7385000D02*
X10415000Y-7415000D01*
X10415000Y-7385000D02*
X10385000Y-7415000D01*
X10385000Y-8885000D02*
X10415000Y-8915000D01*
X10415000Y-8885000D02*
X10385000Y-8915000D01*
X10485000Y-7685000D02*
X10515000Y-7715000D01*
X10515000Y-7685000D02*
X10485000Y-7715000D01*
X10485000Y-7985000D02*
X10515000Y-8015000D01*
X10515000Y-7985000D02*
X10485000Y-8015000D01*
X10785000Y-9885000D02*
X10815000Y-9915000D01*
X10815000Y-9885000D02*
X10785000Y-9915000D01*
X10805000Y-4905000D02*
X10835000Y-4935000D01*
X10835000Y-4905000D02*
X10805000Y-4935000D01*
X10805000Y-5485000D02*
X10835000Y-5515000D01*
X10835000Y-5485000D02*
X10805000Y-5515000D01*
X10885000Y-8135000D02*
X10915000Y-8165000D01*
X10915000Y-8135000D02*
X10885000Y-8165000D01*
X10925000Y-8475000D02*
X10955000Y-8505000D01*
X10955000Y-8475000D02*
X10925000Y-8505000D01*
X11005000Y-5305000D02*
X11035000Y-5335000D01*
X11035000Y-5305000D02*
X11005000Y-5335000D01*
X11465000Y-8425000D02*
X11495000Y-8455000D01*
X11495000Y-8425000D02*
X11465000Y-8455000D01*
X11505000Y-8085000D02*
X11535000Y-8115000D01*
X11535000Y-8085000D02*
X11505000Y-8115000D01*
X11505000Y-8765000D02*
X11535000Y-8795000D01*
X11535000Y-8765000D02*
X11505000Y-8795000D01*
X2060000Y-11680000D02*
G75*
G02*
X2020000Y-11680000I-20000J0D01*
G01*
X2020000Y-11680000D02*
G75*
G02*
X2060000Y-11680000I20000J0D01*
G01*
X2070000Y-6100000D02*
G75*
G02*
X2030000Y-6100000I-20000J0D01*
G01*
X2030000Y-6100000D02*
G75*
G02*
X2070000Y-6100000I20000J0D01*
G01*
X2070000Y-6450000D02*
G75*
G02*
X2030000Y-6450000I-20000J0D01*
G01*
X2030000Y-6450000D02*
G75*
G02*
X2070000Y-6450000I20000J0D01*
G01*
X2070000Y-6750000D02*
G75*
G02*
X2030000Y-6750000I-20000J0D01*
G01*
X2030000Y-6750000D02*
G75*
G02*
X2070000Y-6750000I20000J0D01*
G01*
X2070000Y-11360000D02*
G75*
G02*
X2030000Y-11360000I-20000J0D01*
G01*
X2030000Y-11360000D02*
G75*
G02*
X2070000Y-11360000I20000J0D01*
G01*
X2070000Y-12090000D02*
G75*
G02*
X2030000Y-12090000I-20000J0D01*
G01*
X2030000Y-12090000D02*
G75*
G02*
X2070000Y-12090000I20000J0D01*
G01*
X2090000Y-10520000D02*
G75*
G02*
X2050000Y-10520000I-20000J0D01*
G01*
X2050000Y-10520000D02*
G75*
G02*
X2090000Y-10520000I20000J0D01*
G01*
X2108000Y-8714000D02*
G75*
G02*
X2068000Y-8714000I-20000J0D01*
G01*
X2068000Y-8714000D02*
G75*
G02*
X2108000Y-8714000I20000J0D01*
G01*
X2108000Y-9064000D02*
G75*
G02*
X2068000Y-9064000I-20000J0D01*
G01*
X2068000Y-9064000D02*
G75*
G02*
X2108000Y-9064000I20000J0D01*
G01*
X2108000Y-9364000D02*
G75*
G02*
X2068000Y-9364000I-20000J0D01*
G01*
X2068000Y-9364000D02*
G75*
G02*
X2108000Y-9364000I20000J0D01*
G01*
X2110000Y-10950000D02*
G75*
G02*
X2070000Y-10950000I-20000J0D01*
G01*
X2070000Y-10950000D02*
G75*
G02*
X2110000Y-10950000I20000J0D01*
G01*
X2120000Y-7600000D02*
G75*
G02*
X2080000Y-7600000I-20000J0D01*
G01*
X2080000Y-7600000D02*
G75*
G02*
X2120000Y-7600000I20000J0D01*
G01*
X2120000Y-7950000D02*
G75*
G02*
X2080000Y-7950000I-20000J0D01*
G01*
X2080000Y-7950000D02*
G75*
G02*
X2120000Y-7950000I20000J0D01*
G01*
X2120000Y-8250000D02*
G75*
G02*
X2080000Y-8250000I-20000J0D01*
G01*
X2080000Y-8250000D02*
G75*
G02*
X2120000Y-8250000I20000J0D01*
G01*
X2150000Y-12400000D02*
G75*
G02*
X2110000Y-12400000I-20000J0D01*
G01*
X2110000Y-12400000D02*
G75*
G02*
X2150000Y-12400000I20000J0D01*
G01*
X2210000Y-12670000D02*
G75*
G02*
X2170000Y-12670000I-20000J0D01*
G01*
X2170000Y-12670000D02*
G75*
G02*
X2210000Y-12670000I20000J0D01*
G01*
X2240000Y-13640000D02*
G75*
G02*
X2200000Y-13640000I-20000J0D01*
G01*
X2200000Y-13640000D02*
G75*
G02*
X2240000Y-13640000I20000J0D01*
G01*
X2310000Y-12280000D02*
G75*
G02*
X2270000Y-12280000I-20000J0D01*
G01*
X2270000Y-12280000D02*
G75*
G02*
X2310000Y-12280000I20000J0D01*
G01*
X2380000Y-11540000D02*
G75*
G02*
X2340000Y-11540000I-20000J0D01*
G01*
X2340000Y-11540000D02*
G75*
G02*
X2380000Y-11540000I20000J0D01*
G01*
X2408591Y-12618395D02*
G75*
G02*
X2368591Y-12618395I-20000J0D01*
G01*
X2368591Y-12618395D02*
G75*
G02*
X2408591Y-12618395I20000J0D01*
G01*
X2420000Y-11340000D02*
G75*
G02*
X2380000Y-11340000I-20000J0D01*
G01*
X2380000Y-11340000D02*
G75*
G02*
X2420000Y-11340000I20000J0D01*
G01*
X2439999Y-12750000D02*
G75*
G02*
X2399999Y-12750000I-20000J0D01*
G01*
X2399999Y-12750000D02*
G75*
G02*
X2439999Y-12750000I20000J0D01*
G01*
X2440000Y-11930000D02*
G75*
G02*
X2400000Y-11930000I-20000J0D01*
G01*
X2400000Y-11930000D02*
G75*
G02*
X2440000Y-11930000I20000J0D01*
G01*
X2500000Y-11440000D02*
G75*
G02*
X2460000Y-11440000I-20000J0D01*
G01*
X2460000Y-11440000D02*
G75*
G02*
X2500000Y-11440000I20000J0D01*
G01*
X2550000Y-11949999D02*
G75*
G02*
X2510000Y-11949999I-20000J0D01*
G01*
X2510000Y-11949999D02*
G75*
G02*
X2550000Y-11949999I20000J0D01*
G01*
X2620000Y-13500000D02*
G75*
G02*
X2580000Y-13500000I-20000J0D01*
G01*
X2580000Y-13500000D02*
G75*
G02*
X2620000Y-13500000I20000J0D01*
G01*
X2670000Y-12235000D02*
G75*
G02*
X2630000Y-12235000I-20000J0D01*
G01*
X2630000Y-12235000D02*
G75*
G02*
X2670000Y-12235000I20000J0D01*
G01*
X2720000Y-5500000D02*
G75*
G02*
X2680000Y-5500000I-20000J0D01*
G01*
X2680000Y-5500000D02*
G75*
G02*
X2720000Y-5500000I20000J0D01*
G01*
X2820000Y-13300000D02*
G75*
G02*
X2780000Y-13300000I-20000J0D01*
G01*
X2780000Y-13300000D02*
G75*
G02*
X2820000Y-13300000I20000J0D01*
G01*
X2920000Y-5550000D02*
G75*
G02*
X2880000Y-5550000I-20000J0D01*
G01*
X2880000Y-5550000D02*
G75*
G02*
X2920000Y-5550000I20000J0D01*
G01*
X2940000Y-13180000D02*
G75*
G02*
X2900000Y-13180000I-20000J0D01*
G01*
X2900000Y-13180000D02*
G75*
G02*
X2940000Y-13180000I20000J0D01*
G01*
X3020000Y-6150000D02*
G75*
G02*
X2980000Y-6150000I-20000J0D01*
G01*
X2980000Y-6150000D02*
G75*
G02*
X3020000Y-6150000I20000J0D01*
G01*
X3060000Y-11010000D02*
G75*
G02*
X3020000Y-11010000I-20000J0D01*
G01*
X3020000Y-11010000D02*
G75*
G02*
X3060000Y-11010000I20000J0D01*
G01*
X3060000Y-12800000D02*
G75*
G02*
X3020000Y-12800000I-20000J0D01*
G01*
X3020000Y-12800000D02*
G75*
G02*
X3060000Y-12800000I20000J0D01*
G01*
X3090000Y-10860000D02*
G75*
G02*
X3050000Y-10860000I-20000J0D01*
G01*
X3050000Y-10860000D02*
G75*
G02*
X3090000Y-10860000I20000J0D01*
G01*
X3120000Y-10350000D02*
G75*
G02*
X3080000Y-10350000I-20000J0D01*
G01*
X3080000Y-10350000D02*
G75*
G02*
X3120000Y-10350000I20000J0D01*
G01*
X3120000Y-13800000D02*
G75*
G02*
X3080000Y-13800000I-20000J0D01*
G01*
X3080000Y-13800000D02*
G75*
G02*
X3120000Y-13800000I20000J0D01*
G01*
X3120000Y-13940000D02*
G75*
G02*
X3080000Y-13940000I-20000J0D01*
G01*
X3080000Y-13940000D02*
G75*
G02*
X3120000Y-13940000I20000J0D01*
G01*
X3120000Y-14270000D02*
G75*
G02*
X3080000Y-14270000I-20000J0D01*
G01*
X3080000Y-14270000D02*
G75*
G02*
X3120000Y-14270000I20000J0D01*
G01*
X3127531Y-13620990D02*
G75*
G02*
X3087531Y-13620990I-20000J0D01*
G01*
X3087531Y-13620990D02*
G75*
G02*
X3127531Y-13620990I20000J0D01*
G01*
X3197500Y-12730000D02*
G75*
G02*
X3157500Y-12730000I-20000J0D01*
G01*
X3157500Y-12730000D02*
G75*
G02*
X3197500Y-12730000I20000J0D01*
G01*
X3270000Y-5350000D02*
G75*
G02*
X3230000Y-5350000I-20000J0D01*
G01*
X3230000Y-5350000D02*
G75*
G02*
X3270000Y-5350000I20000J0D01*
G01*
X3330000Y-13500000D02*
G75*
G02*
X3290000Y-13500000I-20000J0D01*
G01*
X3290000Y-13500000D02*
G75*
G02*
X3330000Y-13500000I20000J0D01*
G01*
X3440000Y-11020000D02*
G75*
G02*
X3400000Y-11020000I-20000J0D01*
G01*
X3400000Y-11020000D02*
G75*
G02*
X3440000Y-11020000I20000J0D01*
G01*
X3508128Y-8911872D02*
G75*
G02*
X3468128Y-8911872I-20000J0D01*
G01*
X3468128Y-8911872D02*
G75*
G02*
X3508128Y-8911872I20000J0D01*
G01*
X3531872Y-13667500D02*
G75*
G02*
X3491872Y-13667500I-20000J0D01*
G01*
X3491872Y-13667500D02*
G75*
G02*
X3531872Y-13667500I20000J0D01*
G01*
X3560000Y-12670000D02*
G75*
G02*
X3520000Y-12670000I-20000J0D01*
G01*
X3520000Y-12670000D02*
G75*
G02*
X3560000Y-12670000I20000J0D01*
G01*
X3570000Y-5350000D02*
G75*
G02*
X3530000Y-5350000I-20000J0D01*
G01*
X3530000Y-5350000D02*
G75*
G02*
X3570000Y-5350000I20000J0D01*
G01*
X3570000Y-14050000D02*
G75*
G02*
X3530000Y-14050000I-20000J0D01*
G01*
X3530000Y-14050000D02*
G75*
G02*
X3570000Y-14050000I20000J0D01*
G01*
X3584046Y-11149268D02*
G75*
G02*
X3544046Y-11149268I-20000J0D01*
G01*
X3544046Y-11149268D02*
G75*
G02*
X3584046Y-11149268I20000J0D01*
G01*
X3608128Y-9011872D02*
G75*
G02*
X3568128Y-9011872I-20000J0D01*
G01*
X3568128Y-9011872D02*
G75*
G02*
X3608128Y-9011872I20000J0D01*
G01*
X3620000Y-6900000D02*
G75*
G02*
X3580000Y-6900000I-20000J0D01*
G01*
X3580000Y-6900000D02*
G75*
G02*
X3620000Y-6900000I20000J0D01*
G01*
X3654877Y-12204568D02*
G75*
G02*
X3614877Y-12204568I-20000J0D01*
G01*
X3614877Y-12204568D02*
G75*
G02*
X3654877Y-12204568I20000J0D01*
G01*
X3710000Y-10870000D02*
G75*
G02*
X3670000Y-10870000I-20000J0D01*
G01*
X3670000Y-10870000D02*
G75*
G02*
X3710000Y-10870000I20000J0D01*
G01*
X3720000Y-6600000D02*
G75*
G02*
X3680000Y-6600000I-20000J0D01*
G01*
X3680000Y-6600000D02*
G75*
G02*
X3720000Y-6600000I20000J0D01*
G01*
X3720000Y-10970000D02*
G75*
G02*
X3680000Y-10970000I-20000J0D01*
G01*
X3680000Y-10970000D02*
G75*
G02*
X3720000Y-10970000I20000J0D01*
G01*
X3731872Y-6911872D02*
G75*
G02*
X3691872Y-6911872I-20000J0D01*
G01*
X3691872Y-6911872D02*
G75*
G02*
X3731872Y-6911872I20000J0D01*
G01*
X3750000Y-10760000D02*
G75*
G02*
X3710000Y-10760000I-20000J0D01*
G01*
X3710000Y-10760000D02*
G75*
G02*
X3750000Y-10760000I20000J0D01*
G01*
X3770672Y-12214625D02*
G75*
G02*
X3730672Y-12214625I-20000J0D01*
G01*
X3730672Y-12214625D02*
G75*
G02*
X3770672Y-12214625I20000J0D01*
G01*
X3820000Y-6700000D02*
G75*
G02*
X3780000Y-6700000I-20000J0D01*
G01*
X3780000Y-6700000D02*
G75*
G02*
X3820000Y-6700000I20000J0D01*
G01*
X3820000Y-13715000D02*
G75*
G02*
X3780000Y-13715000I-20000J0D01*
G01*
X3780000Y-13715000D02*
G75*
G02*
X3820000Y-13715000I20000J0D01*
G01*
X3820000Y-14050000D02*
G75*
G02*
X3780000Y-14050000I-20000J0D01*
G01*
X3780000Y-14050000D02*
G75*
G02*
X3820000Y-14050000I20000J0D01*
G01*
X3840000Y-8905514D02*
G75*
G02*
X3800000Y-8905514I-20000J0D01*
G01*
X3800000Y-8905514D02*
G75*
G02*
X3840000Y-8905514I20000J0D01*
G01*
X3870000Y-8500000D02*
G75*
G02*
X3830000Y-8500000I-20000J0D01*
G01*
X3830000Y-8500000D02*
G75*
G02*
X3870000Y-8500000I20000J0D01*
G01*
X3920000Y-5350000D02*
G75*
G02*
X3880000Y-5350000I-20000J0D01*
G01*
X3880000Y-5350000D02*
G75*
G02*
X3920000Y-5350000I20000J0D01*
G01*
X3940000Y-11710000D02*
G75*
G02*
X3900000Y-11710000I-20000J0D01*
G01*
X3900000Y-11710000D02*
G75*
G02*
X3940000Y-11710000I20000J0D01*
G01*
X4010000Y-10190000D02*
G75*
G02*
X3970000Y-10190000I-20000J0D01*
G01*
X3970000Y-10190000D02*
G75*
G02*
X4010000Y-10190000I20000J0D01*
G01*
X4020000Y-9650000D02*
G75*
G02*
X3980000Y-9650000I-20000J0D01*
G01*
X3980000Y-9650000D02*
G75*
G02*
X4020000Y-9650000I20000J0D01*
G01*
X4026896Y-12333104D02*
G75*
G02*
X3986896Y-12333104I-20000J0D01*
G01*
X3986896Y-12333104D02*
G75*
G02*
X4026896Y-12333104I20000J0D01*
G01*
X4030104Y-10360104D02*
G75*
G02*
X3990104Y-10360104I-20000J0D01*
G01*
X3990104Y-10360104D02*
G75*
G02*
X4030104Y-10360104I20000J0D01*
G01*
X4107233Y-10251406D02*
G75*
G02*
X4067233Y-10251406I-20000J0D01*
G01*
X4067233Y-10251406D02*
G75*
G02*
X4107233Y-10251406I20000J0D01*
G01*
X4120000Y-11000000D02*
G75*
G02*
X4080000Y-11000000I-20000J0D01*
G01*
X4080000Y-11000000D02*
G75*
G02*
X4120000Y-11000000I20000J0D01*
G01*
X4170000Y-5250000D02*
G75*
G02*
X4130000Y-5250000I-20000J0D01*
G01*
X4130000Y-5250000D02*
G75*
G02*
X4170000Y-5250000I20000J0D01*
G01*
X4209357Y-10389700D02*
G75*
G02*
X4169356Y-10389700I-20000J0D01*
G01*
X4169356Y-10389700D02*
G75*
G02*
X4209357Y-10389700I20000J0D01*
G01*
X4220000Y-8550000D02*
G75*
G02*
X4180000Y-8550000I-20000J0D01*
G01*
X4180000Y-8550000D02*
G75*
G02*
X4220000Y-8550000I20000J0D01*
G01*
X4270000Y-7150000D02*
G75*
G02*
X4230000Y-7150000I-20000J0D01*
G01*
X4230000Y-7150000D02*
G75*
G02*
X4270000Y-7150000I20000J0D01*
G01*
X4270000Y-7350000D02*
G75*
G02*
X4230000Y-7350000I-20000J0D01*
G01*
X4230000Y-7350000D02*
G75*
G02*
X4270000Y-7350000I20000J0D01*
G01*
X4270000Y-7650000D02*
G75*
G02*
X4230000Y-7650000I-20000J0D01*
G01*
X4230000Y-7650000D02*
G75*
G02*
X4270000Y-7650000I20000J0D01*
G01*
X4270000Y-7850000D02*
G75*
G02*
X4230000Y-7850000I-20000J0D01*
G01*
X4230000Y-7850000D02*
G75*
G02*
X4270000Y-7850000I20000J0D01*
G01*
X4300000Y-12660000D02*
G75*
G02*
X4260000Y-12660000I-20000J0D01*
G01*
X4260000Y-12660000D02*
G75*
G02*
X4300000Y-12660000I20000J0D01*
G01*
X4320000Y-10980000D02*
G75*
G02*
X4280000Y-10980000I-20000J0D01*
G01*
X4280000Y-10980000D02*
G75*
G02*
X4320000Y-10980000I20000J0D01*
G01*
X4370000Y-9400000D02*
G75*
G02*
X4330000Y-9400000I-20000J0D01*
G01*
X4330000Y-9400000D02*
G75*
G02*
X4370000Y-9400000I20000J0D01*
G01*
X4420000Y-13200000D02*
G75*
G02*
X4380000Y-13200000I-20000J0D01*
G01*
X4380000Y-13200000D02*
G75*
G02*
X4420000Y-13200000I20000J0D01*
G01*
X4470000Y-5250000D02*
G75*
G02*
X4430000Y-5250000I-20000J0D01*
G01*
X4430000Y-5250000D02*
G75*
G02*
X4470000Y-5250000I20000J0D01*
G01*
X4570000Y-8600000D02*
G75*
G02*
X4530000Y-8600000I-20000J0D01*
G01*
X4530000Y-8600000D02*
G75*
G02*
X4570000Y-8600000I20000J0D01*
G01*
X4620000Y-10300000D02*
G75*
G02*
X4580000Y-10300000I-20000J0D01*
G01*
X4580000Y-10300000D02*
G75*
G02*
X4620000Y-10300000I20000J0D01*
G01*
X4674523Y-10595477D02*
G75*
G02*
X4634523Y-10595477I-20000J0D01*
G01*
X4634523Y-10595477D02*
G75*
G02*
X4674523Y-10595477I20000J0D01*
G01*
X4720000Y-8900000D02*
G75*
G02*
X4680000Y-8900000I-20000J0D01*
G01*
X4680000Y-8900000D02*
G75*
G02*
X4720000Y-8900000I20000J0D01*
G01*
X4720000Y-9900000D02*
G75*
G02*
X4680000Y-9900000I-20000J0D01*
G01*
X4680000Y-9900000D02*
G75*
G02*
X4720000Y-9900000I20000J0D01*
G01*
X4770000Y-14050000D02*
G75*
G02*
X4730000Y-14050000I-20000J0D01*
G01*
X4730000Y-14050000D02*
G75*
G02*
X4770000Y-14050000I20000J0D01*
G01*
X4770062Y-12735441D02*
G75*
G02*
X4730062Y-12735441I-20000J0D01*
G01*
X4730062Y-12735441D02*
G75*
G02*
X4770062Y-12735441I20000J0D01*
G01*
X4820000Y-13005441D02*
G75*
G02*
X4780000Y-13005441I-20000J0D01*
G01*
X4780000Y-13005441D02*
G75*
G02*
X4820000Y-13005441I20000J0D01*
G01*
X4820000Y-5250000D02*
G75*
G02*
X4780000Y-5250000I-20000J0D01*
G01*
X4780000Y-5250000D02*
G75*
G02*
X4820000Y-5250000I20000J0D01*
G01*
X4863467Y-12695441D02*
G75*
G02*
X4823467Y-12695441I-20000J0D01*
G01*
X4823467Y-12695441D02*
G75*
G02*
X4863467Y-12695441I20000J0D01*
G01*
X4898933Y-8953263D02*
G75*
G02*
X4858933Y-8953263I-20000J0D01*
G01*
X4858933Y-8953263D02*
G75*
G02*
X4898933Y-8953263I20000J0D01*
G01*
X4920000Y-8350000D02*
G75*
G02*
X4880000Y-8350000I-20000J0D01*
G01*
X4880000Y-8350000D02*
G75*
G02*
X4920000Y-8350000I20000J0D01*
G01*
X4957644Y-9052148D02*
G75*
G02*
X4917644Y-9052148I-20000J0D01*
G01*
X4917644Y-9052148D02*
G75*
G02*
X4957644Y-9052148I20000J0D01*
G01*
X4970000Y-14100000D02*
G75*
G02*
X4930000Y-14100000I-20000J0D01*
G01*
X4930000Y-14100000D02*
G75*
G02*
X4970000Y-14100000I20000J0D01*
G01*
X5070000Y-7150000D02*
G75*
G02*
X5030000Y-7150000I-20000J0D01*
G01*
X5030000Y-7150000D02*
G75*
G02*
X5070000Y-7150000I20000J0D01*
G01*
X5070000Y-7350000D02*
G75*
G02*
X5030000Y-7350000I-20000J0D01*
G01*
X5030000Y-7350000D02*
G75*
G02*
X5070000Y-7350000I20000J0D01*
G01*
X5070000Y-7600000D02*
G75*
G02*
X5030000Y-7600000I-20000J0D01*
G01*
X5030000Y-7600000D02*
G75*
G02*
X5070000Y-7600000I20000J0D01*
G01*
X5070000Y-7900000D02*
G75*
G02*
X5030000Y-7900000I-20000J0D01*
G01*
X5030000Y-7900000D02*
G75*
G02*
X5070000Y-7900000I20000J0D01*
G01*
X5120000Y-10850000D02*
G75*
G02*
X5080000Y-10850000I-20000J0D01*
G01*
X5080000Y-10850000D02*
G75*
G02*
X5120000Y-10850000I20000J0D01*
G01*
X5120000Y-14500000D02*
G75*
G02*
X5080000Y-14500000I-20000J0D01*
G01*
X5080000Y-14500000D02*
G75*
G02*
X5120000Y-14500000I20000J0D01*
G01*
X5270000Y-12799998D02*
G75*
G02*
X5230000Y-12799998I-20000J0D01*
G01*
X5230000Y-12799998D02*
G75*
G02*
X5270000Y-12799998I20000J0D01*
G01*
X5271768Y-8648232D02*
G75*
G02*
X5231768Y-8648232I-20000J0D01*
G01*
X5231768Y-8648232D02*
G75*
G02*
X5271768Y-8648232I20000J0D01*
G01*
X5320000Y-14500000D02*
G75*
G02*
X5280000Y-14500000I-20000J0D01*
G01*
X5280000Y-14500000D02*
G75*
G02*
X5320000Y-14500000I20000J0D01*
G01*
X5470000Y-8050000D02*
G75*
G02*
X5430000Y-8050000I-20000J0D01*
G01*
X5430000Y-8050000D02*
G75*
G02*
X5470000Y-8050000I20000J0D01*
G01*
X5470000Y-13700000D02*
G75*
G02*
X5430000Y-13700000I-20000J0D01*
G01*
X5430000Y-13700000D02*
G75*
G02*
X5470000Y-13700000I20000J0D01*
G01*
X5470000Y-14150000D02*
G75*
G02*
X5430000Y-14150000I-20000J0D01*
G01*
X5430000Y-14150000D02*
G75*
G02*
X5470000Y-14150000I20000J0D01*
G01*
X5478000Y-11208000D02*
G75*
G02*
X5438000Y-11208000I-20000J0D01*
G01*
X5438000Y-11208000D02*
G75*
G02*
X5478000Y-11208000I20000J0D01*
G01*
X5484307Y-8931482D02*
G75*
G02*
X5444307Y-8931482I-20000J0D01*
G01*
X5444307Y-8931482D02*
G75*
G02*
X5484307Y-8931482I20000J0D01*
G01*
X5571693Y-10576801D02*
G75*
G02*
X5531693Y-10576801I-20000J0D01*
G01*
X5531693Y-10576801D02*
G75*
G02*
X5571693Y-10576801I20000J0D01*
G01*
X5600297Y-10752323D02*
G75*
G02*
X5560297Y-10752323I-20000J0D01*
G01*
X5560297Y-10752323D02*
G75*
G02*
X5600297Y-10752323I20000J0D01*
G01*
X5651330Y-10649267D02*
G75*
G02*
X5611330Y-10649267I-20000J0D01*
G01*
X5611330Y-10649267D02*
G75*
G02*
X5651330Y-10649267I20000J0D01*
G01*
X5670000Y-11050000D02*
G75*
G02*
X5630000Y-11050000I-20000J0D01*
G01*
X5630000Y-11050000D02*
G75*
G02*
X5670000Y-11050000I20000J0D01*
G01*
X5681872Y-10938128D02*
G75*
G02*
X5641872Y-10938128I-20000J0D01*
G01*
X5641872Y-10938128D02*
G75*
G02*
X5681872Y-10938128I20000J0D01*
G01*
X5720000Y-8400000D02*
G75*
G02*
X5680000Y-8400000I-20000J0D01*
G01*
X5680000Y-8400000D02*
G75*
G02*
X5720000Y-8400000I20000J0D01*
G01*
X5721350Y-11249611D02*
G75*
G02*
X5681350Y-11249611I-20000J0D01*
G01*
X5681350Y-11249611D02*
G75*
G02*
X5721350Y-11249611I20000J0D01*
G01*
X5899155Y-10245287D02*
G75*
G02*
X5859155Y-10245287I-20000J0D01*
G01*
X5859155Y-10245287D02*
G75*
G02*
X5899155Y-10245287I20000J0D01*
G01*
X5907310Y-10445310D02*
G75*
G02*
X5867310Y-10445310I-20000J0D01*
G01*
X5867310Y-10445310D02*
G75*
G02*
X5907310Y-10445310I20000J0D01*
G01*
X5945930Y-10352940D02*
G75*
G02*
X5905930Y-10352940I-20000J0D01*
G01*
X5905930Y-10352940D02*
G75*
G02*
X5945930Y-10352940I20000J0D01*
G01*
X6000000Y-4970000D02*
G75*
G02*
X5960000Y-4970000I-20000J0D01*
G01*
X5960000Y-4970000D02*
G75*
G02*
X6000000Y-4970000I20000J0D01*
G01*
X6000000Y-5220000D02*
G75*
G02*
X5960000Y-5220000I-20000J0D01*
G01*
X5960000Y-5220000D02*
G75*
G02*
X6000000Y-5220000I20000J0D01*
G01*
X6020000Y-11900000D02*
G75*
G02*
X5980000Y-11900000I-20000J0D01*
G01*
X5980000Y-11900000D02*
G75*
G02*
X6020000Y-11900000I20000J0D01*
G01*
X6110000Y-5200000D02*
G75*
G02*
X6070000Y-5200000I-20000J0D01*
G01*
X6070000Y-5200000D02*
G75*
G02*
X6110000Y-5200000I20000J0D01*
G01*
X6119999Y-10500000D02*
G75*
G02*
X6079999Y-10500000I-20000J0D01*
G01*
X6079999Y-10500000D02*
G75*
G02*
X6119999Y-10500000I20000J0D01*
G01*
X6120000Y-8800000D02*
G75*
G02*
X6080000Y-8800000I-20000J0D01*
G01*
X6080000Y-8800000D02*
G75*
G02*
X6120000Y-8800000I20000J0D01*
G01*
X6150000Y-4880000D02*
G75*
G02*
X6110000Y-4880000I-20000J0D01*
G01*
X6110000Y-4880000D02*
G75*
G02*
X6150000Y-4880000I20000J0D01*
G01*
X6220000Y-8700000D02*
G75*
G02*
X6180000Y-8700000I-20000J0D01*
G01*
X6180000Y-8700000D02*
G75*
G02*
X6220000Y-8700000I20000J0D01*
G01*
X6220000Y-10150000D02*
G75*
G02*
X6180000Y-10150000I-20000J0D01*
G01*
X6180000Y-10150000D02*
G75*
G02*
X6220000Y-10150000I20000J0D01*
G01*
X6220000Y-11900000D02*
G75*
G02*
X6180000Y-11900000I-20000J0D01*
G01*
X6180000Y-11900000D02*
G75*
G02*
X6220000Y-11900000I20000J0D01*
G01*
X6298446Y-10212018D02*
G75*
G02*
X6258446Y-10212018I-20000J0D01*
G01*
X6258446Y-10212018D02*
G75*
G02*
X6298446Y-10212018I20000J0D01*
G01*
X6310901Y-10923744D02*
G75*
G02*
X6270901Y-10923744I-20000J0D01*
G01*
X6270901Y-10923744D02*
G75*
G02*
X6310901Y-10923744I20000J0D01*
G01*
X6320000Y-7880000D02*
G75*
G02*
X6280000Y-7880000I-20000J0D01*
G01*
X6280000Y-7880000D02*
G75*
G02*
X6320000Y-7880000I20000J0D01*
G01*
X6420000Y-6900000D02*
G75*
G02*
X6380000Y-6900000I-20000J0D01*
G01*
X6380000Y-6900000D02*
G75*
G02*
X6420000Y-6900000I20000J0D01*
G01*
X6420000Y-7400000D02*
G75*
G02*
X6380000Y-7400000I-20000J0D01*
G01*
X6380000Y-7400000D02*
G75*
G02*
X6420000Y-7400000I20000J0D01*
G01*
X6520000Y-14200000D02*
G75*
G02*
X6480000Y-14200000I-20000J0D01*
G01*
X6480000Y-14200000D02*
G75*
G02*
X6520000Y-14200000I20000J0D01*
G01*
X6570000Y-14600000D02*
G75*
G02*
X6530000Y-14600000I-20000J0D01*
G01*
X6530000Y-14600000D02*
G75*
G02*
X6570000Y-14600000I20000J0D01*
G01*
X6595000Y-10150000D02*
G75*
G02*
X6555000Y-10150000I-20000J0D01*
G01*
X6555000Y-10150000D02*
G75*
G02*
X6595000Y-10150000I20000J0D01*
G01*
X6620000Y-11250000D02*
G75*
G02*
X6580000Y-11250000I-20000J0D01*
G01*
X6580000Y-11250000D02*
G75*
G02*
X6620000Y-11250000I20000J0D01*
G01*
X6620000Y-11600000D02*
G75*
G02*
X6580000Y-11600000I-20000J0D01*
G01*
X6580000Y-11600000D02*
G75*
G02*
X6620000Y-11600000I20000J0D01*
G01*
X6732500Y-8500000D02*
G75*
G02*
X6692500Y-8500000I-20000J0D01*
G01*
X6692500Y-8500000D02*
G75*
G02*
X6732500Y-8500000I20000J0D01*
G01*
X6740000Y-7880000D02*
G75*
G02*
X6700000Y-7880000I-20000J0D01*
G01*
X6700000Y-7880000D02*
G75*
G02*
X6740000Y-7880000I20000J0D01*
G01*
X6740000Y-13860000D02*
G75*
G02*
X6700000Y-13860000I-20000J0D01*
G01*
X6700000Y-13860000D02*
G75*
G02*
X6740000Y-13860000I20000J0D01*
G01*
X6840000Y-4970000D02*
G75*
G02*
X6800000Y-4970000I-20000J0D01*
G01*
X6800000Y-4970000D02*
G75*
G02*
X6840000Y-4970000I20000J0D01*
G01*
X6870000Y-14600000D02*
G75*
G02*
X6830000Y-14600000I-20000J0D01*
G01*
X6830000Y-14600000D02*
G75*
G02*
X6870000Y-14600000I20000J0D01*
G01*
X6930159Y-5261044D02*
G75*
G02*
X6890159Y-5261044I-20000J0D01*
G01*
X6890159Y-5261044D02*
G75*
G02*
X6930159Y-5261044I20000J0D01*
G01*
X7000000Y-12740000D02*
G75*
G02*
X6960000Y-12740000I-20000J0D01*
G01*
X6960000Y-12740000D02*
G75*
G02*
X7000000Y-12740000I20000J0D01*
G01*
X7020000Y-11500000D02*
G75*
G02*
X6980000Y-11500000I-20000J0D01*
G01*
X6980000Y-11500000D02*
G75*
G02*
X7020000Y-11500000I20000J0D01*
G01*
X7020000Y-11900000D02*
G75*
G02*
X6980000Y-11900000I-20000J0D01*
G01*
X6980000Y-11900000D02*
G75*
G02*
X7020000Y-11900000I20000J0D01*
G01*
X7020000Y-14150000D02*
G75*
G02*
X6980000Y-14150000I-20000J0D01*
G01*
X6980000Y-14150000D02*
G75*
G02*
X7020000Y-14150000I20000J0D01*
G01*
X7030000Y-13880000D02*
G75*
G02*
X6990000Y-13880000I-20000J0D01*
G01*
X6990000Y-13880000D02*
G75*
G02*
X7030000Y-13880000I20000J0D01*
G01*
X7045000Y-5255000D02*
G75*
G02*
X7005000Y-5255000I-20000J0D01*
G01*
X7005000Y-5255000D02*
G75*
G02*
X7045000Y-5255000I20000J0D01*
G01*
X7060000Y-4940000D02*
G75*
G02*
X7020000Y-4940000I-20000J0D01*
G01*
X7020000Y-4940000D02*
G75*
G02*
X7060000Y-4940000I20000J0D01*
G01*
X7120000Y-7200000D02*
G75*
G02*
X7080000Y-7200000I-20000J0D01*
G01*
X7080000Y-7200000D02*
G75*
G02*
X7120000Y-7200000I20000J0D01*
G01*
X7120000Y-7450000D02*
G75*
G02*
X7080000Y-7450000I-20000J0D01*
G01*
X7080000Y-7450000D02*
G75*
G02*
X7120000Y-7450000I20000J0D01*
G01*
X7120000Y-10700000D02*
G75*
G02*
X7080000Y-10700000I-20000J0D01*
G01*
X7080000Y-10700000D02*
G75*
G02*
X7120000Y-10700000I20000J0D01*
G01*
X7120000Y-12900000D02*
G75*
G02*
X7080000Y-12900000I-20000J0D01*
G01*
X7080000Y-12900000D02*
G75*
G02*
X7120000Y-12900000I20000J0D01*
G01*
X7120000Y-13000000D02*
G75*
G02*
X7080000Y-13000000I-20000J0D01*
G01*
X7080000Y-13000000D02*
G75*
G02*
X7120000Y-13000000I20000J0D01*
G01*
X7132571Y-11496477D02*
G75*
G02*
X7092571Y-11496477I-20000J0D01*
G01*
X7092571Y-11496477D02*
G75*
G02*
X7132571Y-11496477I20000J0D01*
G01*
X7140000Y-12280000D02*
G75*
G02*
X7100000Y-12280000I-20000J0D01*
G01*
X7100000Y-12280000D02*
G75*
G02*
X7140000Y-12280000I20000J0D01*
G01*
X7170000Y-6700000D02*
G75*
G02*
X7130000Y-6700000I-20000J0D01*
G01*
X7130000Y-6700000D02*
G75*
G02*
X7170000Y-6700000I20000J0D01*
G01*
X7180000Y-7680000D02*
G75*
G02*
X7140000Y-7680000I-20000J0D01*
G01*
X7140000Y-7680000D02*
G75*
G02*
X7180000Y-7680000I20000J0D01*
G01*
X7190000Y-7880000D02*
G75*
G02*
X7150000Y-7880000I-20000J0D01*
G01*
X7150000Y-7880000D02*
G75*
G02*
X7190000Y-7880000I20000J0D01*
G01*
X7202685Y-12085159D02*
G75*
G02*
X7162685Y-12085159I-20000J0D01*
G01*
X7162685Y-12085159D02*
G75*
G02*
X7202685Y-12085159I20000J0D01*
G01*
X7220000Y-11800000D02*
G75*
G02*
X7180000Y-11800000I-20000J0D01*
G01*
X7180000Y-11800000D02*
G75*
G02*
X7220000Y-11800000I20000J0D01*
G01*
X7220000Y-14600000D02*
G75*
G02*
X7180000Y-14600000I-20000J0D01*
G01*
X7180000Y-14600000D02*
G75*
G02*
X7220000Y-14600000I20000J0D01*
G01*
X7290000Y-12160000D02*
G75*
G02*
X7250000Y-12160000I-20000J0D01*
G01*
X7250000Y-12160000D02*
G75*
G02*
X7290000Y-12160000I20000J0D01*
G01*
X7291789Y-12013211D02*
G75*
G02*
X7251789Y-12013211I-20000J0D01*
G01*
X7251789Y-12013211D02*
G75*
G02*
X7291789Y-12013211I20000J0D01*
G01*
X7310725Y-10793256D02*
G75*
G02*
X7270725Y-10793256I-20000J0D01*
G01*
X7270725Y-10793256D02*
G75*
G02*
X7310725Y-10793256I20000J0D01*
G01*
X7320000Y-5750000D02*
G75*
G02*
X7280000Y-5750000I-20000J0D01*
G01*
X7280000Y-5750000D02*
G75*
G02*
X7320000Y-5750000I20000J0D01*
G01*
X7320000Y-10100000D02*
G75*
G02*
X7280000Y-10100000I-20000J0D01*
G01*
X7280000Y-10100000D02*
G75*
G02*
X7320000Y-10100000I20000J0D01*
G01*
X7320000Y-13400000D02*
G75*
G02*
X7280000Y-13400000I-20000J0D01*
G01*
X7280000Y-13400000D02*
G75*
G02*
X7320000Y-13400000I20000J0D01*
G01*
X7331872Y-11611872D02*
G75*
G02*
X7291872Y-11611872I-20000J0D01*
G01*
X7291872Y-11611872D02*
G75*
G02*
X7331872Y-11611872I20000J0D01*
G01*
X7359203Y-13690000D02*
G75*
G02*
X7319203Y-13690000I-20000J0D01*
G01*
X7319203Y-13690000D02*
G75*
G02*
X7359203Y-13690000I20000J0D01*
G01*
X7420000Y-10200000D02*
G75*
G02*
X7380000Y-10200000I-20000J0D01*
G01*
X7380000Y-10200000D02*
G75*
G02*
X7420000Y-10200000I20000J0D01*
G01*
X7420000Y-10500000D02*
G75*
G02*
X7380000Y-10500000I-20000J0D01*
G01*
X7380000Y-10500000D02*
G75*
G02*
X7420000Y-10500000I20000J0D01*
G01*
X7420000Y-12000000D02*
G75*
G02*
X7380000Y-12000000I-20000J0D01*
G01*
X7380000Y-12000000D02*
G75*
G02*
X7420000Y-12000000I20000J0D01*
G01*
X7430365Y-13790000D02*
G75*
G02*
X7390365Y-13790000I-20000J0D01*
G01*
X7390365Y-13790000D02*
G75*
G02*
X7430365Y-13790000I20000J0D01*
G01*
X7470000Y-14600000D02*
G75*
G02*
X7430000Y-14600000I-20000J0D01*
G01*
X7430000Y-14600000D02*
G75*
G02*
X7470000Y-14600000I20000J0D01*
G01*
X7520000Y-13359494D02*
G75*
G02*
X7480000Y-13359494I-20000J0D01*
G01*
X7480000Y-13359494D02*
G75*
G02*
X7520000Y-13359494I20000J0D01*
G01*
X7526328Y-10801269D02*
G75*
G02*
X7486328Y-10801269I-20000J0D01*
G01*
X7486328Y-10801269D02*
G75*
G02*
X7526328Y-10801269I20000J0D01*
G01*
X7570001Y-9600000D02*
G75*
G02*
X7530001Y-9600000I-20000J0D01*
G01*
X7530001Y-9600000D02*
G75*
G02*
X7570001Y-9600000I20000J0D01*
G01*
X7608128Y-12988128D02*
G75*
G02*
X7568128Y-12988128I-20000J0D01*
G01*
X7568128Y-12988128D02*
G75*
G02*
X7608128Y-12988128I20000J0D01*
G01*
X7616519Y-11825843D02*
G75*
G02*
X7576519Y-11825843I-20000J0D01*
G01*
X7576519Y-11825843D02*
G75*
G02*
X7616519Y-11825843I20000J0D01*
G01*
X7620000Y-10600000D02*
G75*
G02*
X7580000Y-10600000I-20000J0D01*
G01*
X7580000Y-10600000D02*
G75*
G02*
X7620000Y-10600000I20000J0D01*
G01*
X7620000Y-10700000D02*
G75*
G02*
X7580000Y-10700000I-20000J0D01*
G01*
X7580000Y-10700000D02*
G75*
G02*
X7620000Y-10700000I20000J0D01*
G01*
X7620000Y-11500000D02*
G75*
G02*
X7580000Y-11500000I-20000J0D01*
G01*
X7580000Y-11500000D02*
G75*
G02*
X7620000Y-11500000I20000J0D01*
G01*
X7623481Y-12874157D02*
G75*
G02*
X7583481Y-12874157I-20000J0D01*
G01*
X7583481Y-12874157D02*
G75*
G02*
X7623481Y-12874157I20000J0D01*
G01*
X7631872Y-11611872D02*
G75*
G02*
X7591872Y-11611872I-20000J0D01*
G01*
X7591872Y-11611872D02*
G75*
G02*
X7631872Y-11611872I20000J0D01*
G01*
X7631872Y-11711872D02*
G75*
G02*
X7591872Y-11711872I-20000J0D01*
G01*
X7591872Y-11711872D02*
G75*
G02*
X7631872Y-11711872I20000J0D01*
G01*
X7642500Y-10500000D02*
G75*
G02*
X7602500Y-10500000I-20000J0D01*
G01*
X7602500Y-10500000D02*
G75*
G02*
X7642500Y-10500000I20000J0D01*
G01*
X7655901Y-11119727D02*
G75*
G02*
X7615901Y-11119727I-20000J0D01*
G01*
X7615901Y-11119727D02*
G75*
G02*
X7655901Y-11119727I20000J0D01*
G01*
X7730571Y-10432500D02*
G75*
G02*
X7690571Y-10432500I-20000J0D01*
G01*
X7690571Y-10432500D02*
G75*
G02*
X7730571Y-10432500I20000J0D01*
G01*
X7770000Y-14600000D02*
G75*
G02*
X7730000Y-14600000I-20000J0D01*
G01*
X7730000Y-14600000D02*
G75*
G02*
X7770000Y-14600000I20000J0D01*
G01*
X7820000Y-11200000D02*
G75*
G02*
X7780000Y-11200000I-20000J0D01*
G01*
X7780000Y-11200000D02*
G75*
G02*
X7820000Y-11200000I20000J0D01*
G01*
X7820000Y-12700000D02*
G75*
G02*
X7780000Y-12700000I-20000J0D01*
G01*
X7780000Y-12700000D02*
G75*
G02*
X7820000Y-12700000I20000J0D01*
G01*
X7860000Y-12060000D02*
G75*
G02*
X7820000Y-12060000I-20000J0D01*
G01*
X7820000Y-12060000D02*
G75*
G02*
X7860000Y-12060000I20000J0D01*
G01*
X7920000Y-12500000D02*
G75*
G02*
X7880000Y-12500000I-20000J0D01*
G01*
X7880000Y-12500000D02*
G75*
G02*
X7920000Y-12500000I20000J0D01*
G01*
X7977738Y-5255053D02*
G75*
G02*
X7937738Y-5255053I-20000J0D01*
G01*
X7937738Y-5255053D02*
G75*
G02*
X7977738Y-5255053I20000J0D01*
G01*
X8000000Y-4970000D02*
G75*
G02*
X7960000Y-4970000I-20000J0D01*
G01*
X7960000Y-4970000D02*
G75*
G02*
X8000000Y-4970000I20000J0D01*
G01*
X8050000Y-7810000D02*
G75*
G02*
X8010000Y-7810000I-20000J0D01*
G01*
X8010000Y-7810000D02*
G75*
G02*
X8050000Y-7810000I20000J0D01*
G01*
X8050000Y-7920000D02*
G75*
G02*
X8010000Y-7920000I-20000J0D01*
G01*
X8010000Y-7920000D02*
G75*
G02*
X8050000Y-7920000I20000J0D01*
G01*
X8090000Y-5280000D02*
G75*
G02*
X8050000Y-5280000I-20000J0D01*
G01*
X8050000Y-5280000D02*
G75*
G02*
X8090000Y-5280000I20000J0D01*
G01*
X8101660Y-10619729D02*
G75*
G02*
X8061660Y-10619729I-20000J0D01*
G01*
X8061660Y-10619729D02*
G75*
G02*
X8101660Y-10619729I20000J0D01*
G01*
X8110000Y-4900000D02*
G75*
G02*
X8070000Y-4900000I-20000J0D01*
G01*
X8070000Y-4900000D02*
G75*
G02*
X8110000Y-4900000I20000J0D01*
G01*
X8120000Y-9900000D02*
G75*
G02*
X8080000Y-9900000I-20000J0D01*
G01*
X8080000Y-9900000D02*
G75*
G02*
X8120000Y-9900000I20000J0D01*
G01*
X8120000Y-10150000D02*
G75*
G02*
X8080000Y-10150000I-20000J0D01*
G01*
X8080000Y-10150000D02*
G75*
G02*
X8120000Y-10150000I20000J0D01*
G01*
X8120000Y-14600000D02*
G75*
G02*
X8080000Y-14600000I-20000J0D01*
G01*
X8080000Y-14600000D02*
G75*
G02*
X8120000Y-14600000I20000J0D01*
G01*
X8188682Y-10468683D02*
G75*
G02*
X8148682Y-10468683I-20000J0D01*
G01*
X8148682Y-10468683D02*
G75*
G02*
X8188682Y-10468683I20000J0D01*
G01*
X8230000Y-7630000D02*
G75*
G02*
X8190000Y-7630000I-20000J0D01*
G01*
X8190000Y-7630000D02*
G75*
G02*
X8230000Y-7630000I20000J0D01*
G01*
X8270000Y-10550000D02*
G75*
G02*
X8230000Y-10550000I-20000J0D01*
G01*
X8230000Y-10550000D02*
G75*
G02*
X8270000Y-10550000I20000J0D01*
G01*
X8280000Y-12500000D02*
G75*
G02*
X8240000Y-12500000I-20000J0D01*
G01*
X8240000Y-12500000D02*
G75*
G02*
X8280000Y-12500000I20000J0D01*
G01*
X8305000Y-12160000D02*
G75*
G02*
X8265000Y-12160000I-20000J0D01*
G01*
X8265000Y-12160000D02*
G75*
G02*
X8305000Y-12160000I20000J0D01*
G01*
X8320000Y-10700000D02*
G75*
G02*
X8280000Y-10700000I-20000J0D01*
G01*
X8280000Y-10700000D02*
G75*
G02*
X8320000Y-10700000I20000J0D01*
G01*
X8320000Y-11880000D02*
G75*
G02*
X8280000Y-11880000I-20000J0D01*
G01*
X8280000Y-11880000D02*
G75*
G02*
X8320000Y-11880000I20000J0D01*
G01*
X8354372Y-10234372D02*
G75*
G02*
X8314372Y-10234372I-20000J0D01*
G01*
X8314372Y-10234372D02*
G75*
G02*
X8354372Y-10234372I20000J0D01*
G01*
X8400000Y-12580000D02*
G75*
G02*
X8360000Y-12580000I-20000J0D01*
G01*
X8360000Y-12580000D02*
G75*
G02*
X8400000Y-12580000I20000J0D01*
G01*
X8420000Y-5750000D02*
G75*
G02*
X8380000Y-5750000I-20000J0D01*
G01*
X8380000Y-5750000D02*
G75*
G02*
X8420000Y-5750000I20000J0D01*
G01*
X8420000Y-6100000D02*
G75*
G02*
X8380000Y-6100000I-20000J0D01*
G01*
X8380000Y-6100000D02*
G75*
G02*
X8420000Y-6100000I20000J0D01*
G01*
X8420000Y-12700000D02*
G75*
G02*
X8380000Y-12700000I-20000J0D01*
G01*
X8380000Y-12700000D02*
G75*
G02*
X8420000Y-12700000I20000J0D01*
G01*
X8470000Y-14600000D02*
G75*
G02*
X8430000Y-14600000I-20000J0D01*
G01*
X8430000Y-14600000D02*
G75*
G02*
X8470000Y-14600000I20000J0D01*
G01*
X8660000Y-8960000D02*
G75*
G02*
X8620000Y-8960000I-20000J0D01*
G01*
X8620000Y-8960000D02*
G75*
G02*
X8660000Y-8960000I20000J0D01*
G01*
X8760000Y-8620000D02*
G75*
G02*
X8720000Y-8620000I-20000J0D01*
G01*
X8720000Y-8620000D02*
G75*
G02*
X8760000Y-8620000I20000J0D01*
G01*
X8770000Y-14600000D02*
G75*
G02*
X8730000Y-14600000I-20000J0D01*
G01*
X8730000Y-14600000D02*
G75*
G02*
X8770000Y-14600000I20000J0D01*
G01*
X8780000Y-7700000D02*
G75*
G02*
X8740000Y-7700000I-20000J0D01*
G01*
X8740000Y-7700000D02*
G75*
G02*
X8780000Y-7700000I20000J0D01*
G01*
X8800000Y-8860000D02*
G75*
G02*
X8760000Y-8860000I-20000J0D01*
G01*
X8760000Y-8860000D02*
G75*
G02*
X8800000Y-8860000I20000J0D01*
G01*
X8814948Y-10277045D02*
G75*
G02*
X8774948Y-10277045I-20000J0D01*
G01*
X8774948Y-10277045D02*
G75*
G02*
X8814948Y-10277045I20000J0D01*
G01*
X8820000Y-13600000D02*
G75*
G02*
X8780000Y-13600000I-20000J0D01*
G01*
X8780000Y-13600000D02*
G75*
G02*
X8820000Y-13600000I20000J0D01*
G01*
X8825177Y-10077045D02*
G75*
G02*
X8785177Y-10077045I-20000J0D01*
G01*
X8785177Y-10077045D02*
G75*
G02*
X8825177Y-10077045I20000J0D01*
G01*
X8859343Y-9288891D02*
G75*
G02*
X8819343Y-9288891I-20000J0D01*
G01*
X8819343Y-9288891D02*
G75*
G02*
X8859343Y-9288891I20000J0D01*
G01*
X8870000Y-10450000D02*
G75*
G02*
X8830000Y-10450000I-20000J0D01*
G01*
X8830000Y-10450000D02*
G75*
G02*
X8870000Y-10450000I20000J0D01*
G01*
X8970545Y-13496177D02*
G75*
G02*
X8930545Y-13496177I-20000J0D01*
G01*
X8930545Y-13496177D02*
G75*
G02*
X8970545Y-13496177I20000J0D01*
G01*
X8998360Y-5226201D02*
G75*
G02*
X8958360Y-5226201I-20000J0D01*
G01*
X8958360Y-5226201D02*
G75*
G02*
X8998360Y-5226201I20000J0D01*
G01*
X9012500Y-4987500D02*
G75*
G02*
X8972500Y-4987500I-20000J0D01*
G01*
X8972500Y-4987500D02*
G75*
G02*
X9012500Y-4987500I20000J0D01*
G01*
X9020000Y-10000000D02*
G75*
G02*
X8980000Y-10000000I-20000J0D01*
G01*
X8980000Y-10000000D02*
G75*
G02*
X9020000Y-10000000I20000J0D01*
G01*
X9020000Y-13600000D02*
G75*
G02*
X8980000Y-13600000I-20000J0D01*
G01*
X8980000Y-13600000D02*
G75*
G02*
X9020000Y-13600000I20000J0D01*
G01*
X9031872Y-10411872D02*
G75*
G02*
X8991872Y-10411872I-20000J0D01*
G01*
X8991872Y-10411872D02*
G75*
G02*
X9031872Y-10411872I20000J0D01*
G01*
X9100000Y-4900000D02*
G75*
G02*
X9060000Y-4900000I-20000J0D01*
G01*
X9060000Y-4900000D02*
G75*
G02*
X9100000Y-4900000I20000J0D01*
G01*
X9100000Y-5280000D02*
G75*
G02*
X9060000Y-5280000I-20000J0D01*
G01*
X9060000Y-5280000D02*
G75*
G02*
X9100000Y-5280000I20000J0D01*
G01*
X9120000Y-13050000D02*
G75*
G02*
X9080000Y-13050000I-20000J0D01*
G01*
X9080000Y-13050000D02*
G75*
G02*
X9120000Y-13050000I20000J0D01*
G01*
X9120000Y-14600000D02*
G75*
G02*
X9080000Y-14600000I-20000J0D01*
G01*
X9080000Y-14600000D02*
G75*
G02*
X9120000Y-14600000I20000J0D01*
G01*
X9135000Y-10000000D02*
G75*
G02*
X9095000Y-10000000I-20000J0D01*
G01*
X9095000Y-10000000D02*
G75*
G02*
X9135000Y-10000000I20000J0D01*
G01*
X9136990Y-8627670D02*
G75*
G02*
X9096990Y-8627670I-20000J0D01*
G01*
X9096990Y-8627670D02*
G75*
G02*
X9136990Y-8627670I20000J0D01*
G01*
X9170000Y-12750000D02*
G75*
G02*
X9130000Y-12750000I-20000J0D01*
G01*
X9130000Y-12750000D02*
G75*
G02*
X9170000Y-12750000I20000J0D01*
G01*
X9220000Y-6200000D02*
G75*
G02*
X9180000Y-6200000I-20000J0D01*
G01*
X9180000Y-6200000D02*
G75*
G02*
X9220000Y-6200000I20000J0D01*
G01*
X9270000Y-5750000D02*
G75*
G02*
X9230000Y-5750000I-20000J0D01*
G01*
X9230000Y-5750000D02*
G75*
G02*
X9270000Y-5750000I20000J0D01*
G01*
X9270000Y-12450000D02*
G75*
G02*
X9230000Y-12450000I-20000J0D01*
G01*
X9230000Y-12450000D02*
G75*
G02*
X9270000Y-12450000I20000J0D01*
G01*
X9300000Y-8840000D02*
G75*
G02*
X9260000Y-8840000I-20000J0D01*
G01*
X9260000Y-8840000D02*
G75*
G02*
X9300000Y-8840000I20000J0D01*
G01*
X9320000Y-13950000D02*
G75*
G02*
X9280000Y-13950000I-20000J0D01*
G01*
X9280000Y-13950000D02*
G75*
G02*
X9320000Y-13950000I20000J0D01*
G01*
X9348128Y-8348128D02*
G75*
G02*
X9308128Y-8348128I-20000J0D01*
G01*
X9308128Y-8348128D02*
G75*
G02*
X9348128Y-8348128I20000J0D01*
G01*
X9370000Y-14600000D02*
G75*
G02*
X9330000Y-14600000I-20000J0D01*
G01*
X9330000Y-14600000D02*
G75*
G02*
X9370000Y-14600000I20000J0D01*
G01*
X9420000Y-12100000D02*
G75*
G02*
X9380000Y-12100000I-20000J0D01*
G01*
X9380000Y-12100000D02*
G75*
G02*
X9420000Y-12100000I20000J0D01*
G01*
X9420000Y-13750000D02*
G75*
G02*
X9380000Y-13750000I-20000J0D01*
G01*
X9380000Y-13750000D02*
G75*
G02*
X9420000Y-13750000I20000J0D01*
G01*
X9520000Y-10400000D02*
G75*
G02*
X9480000Y-10400000I-20000J0D01*
G01*
X9480000Y-10400000D02*
G75*
G02*
X9520000Y-10400000I20000J0D01*
G01*
X9520000Y-13050000D02*
G75*
G02*
X9480000Y-13050000I-20000J0D01*
G01*
X9480000Y-13050000D02*
G75*
G02*
X9520000Y-13050000I20000J0D01*
G01*
X9670000Y-14600000D02*
G75*
G02*
X9630000Y-14600000I-20000J0D01*
G01*
X9630000Y-14600000D02*
G75*
G02*
X9670000Y-14600000I20000J0D01*
G01*
X9708692Y-8348692D02*
G75*
G02*
X9668692Y-8348692I-20000J0D01*
G01*
X9668692Y-8348692D02*
G75*
G02*
X9708692Y-8348692I20000J0D01*
G01*
X9920000Y-12800000D02*
G75*
G02*
X9880000Y-12800000I-20000J0D01*
G01*
X9880000Y-12800000D02*
G75*
G02*
X9920000Y-12800000I20000J0D01*
G01*
X9925805Y-13207489D02*
G75*
G02*
X9885805Y-13207489I-20000J0D01*
G01*
X9885805Y-13207489D02*
G75*
G02*
X9925805Y-13207489I20000J0D01*
G01*
X9995000Y-5260000D02*
G75*
G02*
X9955000Y-5260000I-20000J0D01*
G01*
X9955000Y-5260000D02*
G75*
G02*
X9995000Y-5260000I20000J0D01*
G01*
X10020000Y-14600000D02*
G75*
G02*
X9980000Y-14600000I-20000J0D01*
G01*
X9980000Y-14600000D02*
G75*
G02*
X10020000Y-14600000I20000J0D01*
G01*
X10030000Y-4987500D02*
G75*
G02*
X9990000Y-4987500I-20000J0D01*
G01*
X9990000Y-4987500D02*
G75*
G02*
X10030000Y-4987500I20000J0D01*
G01*
X10036998Y-13152500D02*
G75*
G02*
X9996998Y-13152500I-20000J0D01*
G01*
X9996998Y-13152500D02*
G75*
G02*
X10036998Y-13152500I20000J0D01*
G01*
X10070000Y-8550000D02*
G75*
G02*
X10030000Y-8550000I-20000J0D01*
G01*
X10030000Y-8550000D02*
G75*
G02*
X10070000Y-8550000I20000J0D01*
G01*
X10090000Y-8400000D02*
G75*
G02*
X10050000Y-8400000I-20000J0D01*
G01*
X10050000Y-8400000D02*
G75*
G02*
X10090000Y-8400000I20000J0D01*
G01*
X10110000Y-5260000D02*
G75*
G02*
X10070000Y-5260000I-20000J0D01*
G01*
X10070000Y-5260000D02*
G75*
G02*
X10110000Y-5260000I20000J0D01*
G01*
X10160000Y-4900000D02*
G75*
G02*
X10120000Y-4900000I-20000J0D01*
G01*
X10120000Y-4900000D02*
G75*
G02*
X10160000Y-4900000I20000J0D01*
G01*
X10160000Y-13940000D02*
G75*
G02*
X10120000Y-13940000I-20000J0D01*
G01*
X10120000Y-13940000D02*
G75*
G02*
X10160000Y-13940000I20000J0D01*
G01*
X10193854Y-13088011D02*
G75*
G02*
X10153854Y-13088011I-20000J0D01*
G01*
X10153854Y-13088011D02*
G75*
G02*
X10193854Y-13088011I20000J0D01*
G01*
X10220000Y-13200000D02*
G75*
G02*
X10180000Y-13200000I-20000J0D01*
G01*
X10180000Y-13200000D02*
G75*
G02*
X10220000Y-13200000I20000J0D01*
G01*
X10270000Y-10400000D02*
G75*
G02*
X10230000Y-10400000I-20000J0D01*
G01*
X10230000Y-10400000D02*
G75*
G02*
X10270000Y-10400000I20000J0D01*
G01*
X10270000Y-12450000D02*
G75*
G02*
X10230000Y-12450000I-20000J0D01*
G01*
X10230000Y-12450000D02*
G75*
G02*
X10270000Y-12450000I20000J0D01*
G01*
X10340000Y-4970000D02*
G75*
G02*
X10300000Y-4970000I-20000J0D01*
G01*
X10300000Y-4970000D02*
G75*
G02*
X10340000Y-4970000I20000J0D01*
G01*
X10350000Y-5230000D02*
G75*
G02*
X10310000Y-5230000I-20000J0D01*
G01*
X10310000Y-5230000D02*
G75*
G02*
X10350000Y-5230000I20000J0D01*
G01*
X10420000Y-14600000D02*
G75*
G02*
X10380000Y-14600000I-20000J0D01*
G01*
X10380000Y-14600000D02*
G75*
G02*
X10420000Y-14600000I20000J0D01*
G01*
X10470000Y-5450000D02*
G75*
G02*
X10430000Y-5450000I-20000J0D01*
G01*
X10430000Y-5450000D02*
G75*
G02*
X10470000Y-5450000I20000J0D01*
G01*
X10470000Y-5700000D02*
G75*
G02*
X10430000Y-5700000I-20000J0D01*
G01*
X10430000Y-5700000D02*
G75*
G02*
X10470000Y-5700000I20000J0D01*
G01*
X10470000Y-5900000D02*
G75*
G02*
X10430000Y-5900000I-20000J0D01*
G01*
X10430000Y-5900000D02*
G75*
G02*
X10470000Y-5900000I20000J0D01*
G01*
X10470000Y-6850000D02*
G75*
G02*
X10430000Y-6850000I-20000J0D01*
G01*
X10430000Y-6850000D02*
G75*
G02*
X10470000Y-6850000I20000J0D01*
G01*
X10470000Y-12250000D02*
G75*
G02*
X10430000Y-12250000I-20000J0D01*
G01*
X10430000Y-12250000D02*
G75*
G02*
X10470000Y-12250000I20000J0D01*
G01*
X10520000Y-7250000D02*
G75*
G02*
X10480000Y-7250000I-20000J0D01*
G01*
X10480000Y-7250000D02*
G75*
G02*
X10520000Y-7250000I20000J0D01*
G01*
X10520000Y-13541000D02*
G75*
G02*
X10480000Y-13541000I-20000J0D01*
G01*
X10480000Y-13541000D02*
G75*
G02*
X10520000Y-13541000I20000J0D01*
G01*
X10680000Y-12840000D02*
G75*
G02*
X10640000Y-12840000I-20000J0D01*
G01*
X10640000Y-12840000D02*
G75*
G02*
X10680000Y-12840000I20000J0D01*
G01*
X10720000Y-12560000D02*
G75*
G02*
X10680000Y-12560000I-20000J0D01*
G01*
X10680000Y-12560000D02*
G75*
G02*
X10720000Y-12560000I20000J0D01*
G01*
X10720000Y-13400000D02*
G75*
G02*
X10680000Y-13400000I-20000J0D01*
G01*
X10680000Y-13400000D02*
G75*
G02*
X10720000Y-13400000I20000J0D01*
G01*
X10720000Y-14600000D02*
G75*
G02*
X10680000Y-14600000I-20000J0D01*
G01*
X10680000Y-14600000D02*
G75*
G02*
X10720000Y-14600000I20000J0D01*
G01*
X10830000Y-7470000D02*
G75*
G02*
X10790000Y-7470000I-20000J0D01*
G01*
X10790000Y-7470000D02*
G75*
G02*
X10830000Y-7470000I20000J0D01*
G01*
X10870000Y-6050000D02*
G75*
G02*
X10830000Y-6050000I-20000J0D01*
G01*
X10830000Y-6050000D02*
G75*
G02*
X10870000Y-6050000I20000J0D01*
G01*
X11000000Y-7370000D02*
G75*
G02*
X10960000Y-7370000I-20000J0D01*
G01*
X10960000Y-7370000D02*
G75*
G02*
X11000000Y-7370000I20000J0D01*
G01*
X11020000Y-10300000D02*
G75*
G02*
X10980000Y-10300000I-20000J0D01*
G01*
X10980000Y-10300000D02*
G75*
G02*
X11020000Y-10300000I20000J0D01*
G01*
X11060000Y-8130000D02*
G75*
G02*
X11020000Y-8130000I-20000J0D01*
G01*
X11020000Y-8130000D02*
G75*
G02*
X11060000Y-8130000I20000J0D01*
G01*
X11070000Y-5950000D02*
G75*
G02*
X11030000Y-5950000I-20000J0D01*
G01*
X11030000Y-5950000D02*
G75*
G02*
X11070000Y-5950000I20000J0D01*
G01*
X11070000Y-14600000D02*
G75*
G02*
X11030000Y-14600000I-20000J0D01*
G01*
X11030000Y-14600000D02*
G75*
G02*
X11070000Y-14600000I20000J0D01*
G01*
X11200000Y-9120000D02*
G75*
G02*
X11160000Y-9120000I-20000J0D01*
G01*
X11160000Y-9120000D02*
G75*
G02*
X11200000Y-9120000I20000J0D01*
G01*
X11200000Y-9260000D02*
G75*
G02*
X11160000Y-9260000I-20000J0D01*
G01*
X11160000Y-9260000D02*
G75*
G02*
X11200000Y-9260000I20000J0D01*
G01*
X11240000Y-9380000D02*
G75*
G02*
X11200000Y-9380000I-20000J0D01*
G01*
X11200000Y-9380000D02*
G75*
G02*
X11240000Y-9380000I20000J0D01*
G01*
X11250000Y-7460000D02*
G75*
G02*
X11210000Y-7460000I-20000J0D01*
G01*
X11210000Y-7460000D02*
G75*
G02*
X11250000Y-7460000I20000J0D01*
G01*
X11310000Y-7400000D02*
G75*
G02*
X11270000Y-7400000I-20000J0D01*
G01*
X11270000Y-7400000D02*
G75*
G02*
X11310000Y-7400000I20000J0D01*
G01*
X11320000Y-10100000D02*
G75*
G02*
X11280000Y-10100000I-20000J0D01*
G01*
X11280000Y-10100000D02*
G75*
G02*
X11320000Y-10100000I20000J0D01*
G01*
X11420000Y-6000000D02*
G75*
G02*
X11380000Y-6000000I-20000J0D01*
G01*
X11380000Y-6000000D02*
G75*
G02*
X11420000Y-6000000I20000J0D01*
G01*
X11520000Y-10100000D02*
G75*
G02*
X11480000Y-10100000I-20000J0D01*
G01*
X11480000Y-10100000D02*
G75*
G02*
X11520000Y-10100000I20000J0D01*
G01*
X11740000Y-13420000D02*
G75*
G02*
X11700000Y-13420000I-20000J0D01*
G01*
X11700000Y-13420000D02*
G75*
G02*
X11740000Y-13420000I20000J0D01*
G01*
X3302000Y-6060000D02*
X3302000Y-6150000D01*
X3257000Y-6105000D02*
X3347000Y-6105000D01*
X3556000Y-6060000D02*
X3556000Y-6150000D01*
X3511000Y-6105000D02*
X3601000Y-6105000D01*
X3810000Y-6060000D02*
X3810000Y-6150000D01*
X3765000Y-6105000D02*
X3855000Y-6105000D01*
X4292000Y-6067000D02*
X4292000Y-6157000D01*
X4247000Y-6112000D02*
X4337000Y-6112000D01*
X4546000Y-6067000D02*
X4546000Y-6157000D01*
X4501000Y-6112000D02*
X4591000Y-6112000D01*
X4800000Y-6067000D02*
X4800000Y-6157000D01*
X4755000Y-6112000D02*
X4845000Y-6112000D01*
X2321356Y-5877356D02*
X2321356Y-5806644D01*
X2250644Y-5806644D01*
X2250644Y-5877356D01*
X2321356Y-5877356D01*
X2321356Y-6131356D02*
X2321356Y-6060644D01*
X2250644Y-6060644D01*
X2250644Y-6131356D01*
X2321356Y-6131356D01*
X2321356Y-6385356D02*
X2321356Y-6314644D01*
X2250644Y-6314644D01*
X2250644Y-6385356D01*
X2321356Y-6385356D01*
X2321356Y-6639356D02*
X2321356Y-6568644D01*
X2250644Y-6568644D01*
X2250644Y-6639356D01*
X2321356Y-6639356D01*
X2321356Y-7401356D02*
X2321356Y-7330644D01*
X2250644Y-7330644D01*
X2250644Y-7401356D01*
X2321356Y-7401356D01*
X2321356Y-7655356D02*
X2321356Y-7584644D01*
X2250644Y-7584644D01*
X2250644Y-7655356D01*
X2321356Y-7655356D01*
X2321356Y-7909356D02*
X2321356Y-7838644D01*
X2250644Y-7838644D01*
X2250644Y-7909356D01*
X2321356Y-7909356D01*
X2321356Y-8163356D02*
X2321356Y-8092644D01*
X2250644Y-8092644D01*
X2250644Y-8163356D01*
X2321356Y-8163356D01*
X2321356Y-8417356D02*
X2321356Y-8346644D01*
X2250644Y-8346644D01*
X2250644Y-8417356D01*
X2321356Y-8417356D01*
X2321356Y-8671356D02*
X2321356Y-8600644D01*
X2250644Y-8600644D01*
X2250644Y-8671356D01*
X2321356Y-8671356D01*
X2321356Y-8925356D02*
X2321356Y-8854644D01*
X2250644Y-8854644D01*
X2250644Y-8925356D01*
X2321356Y-8925356D01*
X2321356Y-9179356D02*
X2321356Y-9108644D01*
X2250644Y-9108644D01*
X2250644Y-9179356D01*
X2321356Y-9179356D01*
X2321356Y-9433356D02*
X2321356Y-9362644D01*
X2250644Y-9362644D01*
X2250644Y-9433356D01*
X2321356Y-9433356D01*
X2321356Y-9687356D02*
X2321356Y-9616644D01*
X2250644Y-9616644D01*
X2250644Y-9687356D01*
X2321356Y-9687356D01*
X2575356Y-7401356D02*
X2575356Y-7330644D01*
X2504644Y-7330644D01*
X2504644Y-7401356D01*
X2575356Y-7401356D01*
X2575356Y-7655356D02*
X2575356Y-7584644D01*
X2504644Y-7584644D01*
X2504644Y-7655356D01*
X2575356Y-7655356D01*
X2575356Y-7909356D02*
X2575356Y-7838644D01*
X2504644Y-7838644D01*
X2504644Y-7909356D01*
X2575356Y-7909356D01*
X2575356Y-8163356D02*
X2575356Y-8092644D01*
X2504644Y-8092644D01*
X2504644Y-8163356D01*
X2575356Y-8163356D01*
X2575356Y-8417356D02*
X2575356Y-8346644D01*
X2504644Y-8346644D01*
X2504644Y-8417356D01*
X2575356Y-8417356D01*
X2575356Y-8671356D02*
X2575356Y-8600644D01*
X2504644Y-8600644D01*
X2504644Y-8671356D01*
X2575356Y-8671356D01*
X2575356Y-8925356D02*
X2575356Y-8854644D01*
X2504644Y-8854644D01*
X2504644Y-8925356D01*
X2575356Y-8925356D01*
X2575356Y-9179356D02*
X2575356Y-9108644D01*
X2504644Y-9108644D01*
X2504644Y-9179356D01*
X2575356Y-9179356D01*
X2575356Y-9433356D02*
X2575356Y-9362644D01*
X2504644Y-9362644D01*
X2504644Y-9433356D01*
X2575356Y-9433356D01*
X2575356Y-9687356D02*
X2575356Y-9616644D01*
X2504644Y-9616644D01*
X2504644Y-9687356D01*
X2575356Y-9687356D01*
X3845356Y-7147356D02*
X3845356Y-7076644D01*
X3774644Y-7076644D01*
X3774644Y-7147356D01*
X3845356Y-7147356D01*
X3845356Y-7401356D02*
X3845356Y-7330644D01*
X3774644Y-7330644D01*
X3774644Y-7401356D01*
X3845356Y-7401356D01*
X3845356Y-7655356D02*
X3845356Y-7584644D01*
X3774644Y-7584644D01*
X3774644Y-7655356D01*
X3845356Y-7655356D01*
X3845356Y-7909356D02*
X3845356Y-7838644D01*
X3774644Y-7838644D01*
X3774644Y-7909356D01*
X3845356Y-7909356D01*
X4099356Y-7147356D02*
X4099356Y-7076644D01*
X4028644Y-7076644D01*
X4028644Y-7147356D01*
X4099356Y-7147356D01*
X4099356Y-7401356D02*
X4099356Y-7330644D01*
X4028644Y-7330644D01*
X4028644Y-7401356D01*
X4099356Y-7401356D01*
X4099356Y-7655356D02*
X4099356Y-7584644D01*
X4028644Y-7584644D01*
X4028644Y-7655356D01*
X4099356Y-7655356D01*
X4099356Y-7909356D02*
X4099356Y-7838644D01*
X4028644Y-7838644D01*
X4028644Y-7909356D01*
X4099356Y-7909356D01*
X4275356Y-11465356D02*
X4275356Y-11394644D01*
X4204644Y-11394644D01*
X4204644Y-11465356D01*
X4275356Y-11465356D01*
X4275356Y-11719356D02*
X4275356Y-11648644D01*
X4204644Y-11648644D01*
X4204644Y-11719356D01*
X4275356Y-11719356D01*
X4275356Y-11973356D02*
X4275356Y-11902644D01*
X4204644Y-11902644D01*
X4204644Y-11973356D01*
X4275356Y-11973356D01*
X4275356Y-12227356D02*
X4275356Y-12156644D01*
X4204644Y-12156644D01*
X4204644Y-12227356D01*
X4275356Y-12227356D01*
X4275356Y-12481356D02*
X4275356Y-12410644D01*
X4204644Y-12410644D01*
X4204644Y-12481356D01*
X4275356Y-12481356D01*
X4607356Y-7147356D02*
X4607356Y-7076644D01*
X4536644Y-7076644D01*
X4536644Y-7147356D01*
X4607356Y-7147356D01*
X4607356Y-7401356D02*
X4607356Y-7330644D01*
X4536644Y-7330644D01*
X4536644Y-7401356D01*
X4607356Y-7401356D01*
X4607356Y-7655356D02*
X4607356Y-7584644D01*
X4536644Y-7584644D01*
X4536644Y-7655356D01*
X4607356Y-7655356D01*
X4607356Y-7909356D02*
X4607356Y-7838644D01*
X4536644Y-7838644D01*
X4536644Y-7909356D01*
X4607356Y-7909356D01*
X4861356Y-7147356D02*
X4861356Y-7076644D01*
X4790644Y-7076644D01*
X4790644Y-7147356D01*
X4861356Y-7147356D01*
X4861356Y-7401356D02*
X4861356Y-7330644D01*
X4790644Y-7330644D01*
X4790644Y-7401356D01*
X4861356Y-7401356D01*
X4861356Y-7655356D02*
X4861356Y-7584644D01*
X4790644Y-7584644D01*
X4790644Y-7655356D01*
X4861356Y-7655356D01*
X4861356Y-7909356D02*
X4861356Y-7838644D01*
X4790644Y-7838644D01*
X4790644Y-7909356D01*
X4861356Y-7909356D01*
X4861356Y-11211356D02*
X4861356Y-11140644D01*
X4790644Y-11140644D01*
X4790644Y-11211356D01*
X4861356Y-11211356D01*
X4861356Y-11465356D02*
X4861356Y-11394644D01*
X4790644Y-11394644D01*
X4790644Y-11465356D01*
X4861356Y-11465356D01*
X4861356Y-11719356D02*
X4861356Y-11648644D01*
X4790644Y-11648644D01*
X4790644Y-11719356D01*
X4861356Y-11719356D01*
X4861356Y-11973356D02*
X4861356Y-11902644D01*
X4790644Y-11902644D01*
X4790644Y-11973356D01*
X4861356Y-11973356D01*
X4861356Y-12227356D02*
X4861356Y-12156644D01*
X4790644Y-12156644D01*
X4790644Y-12227356D01*
X4861356Y-12227356D01*
X4861356Y-12481356D02*
X4861356Y-12410644D01*
X4790644Y-12410644D01*
X4790644Y-12481356D01*
X4861356Y-12481356D01*
X5115356Y-11211356D02*
X5115356Y-11140644D01*
X5044644Y-11140644D01*
X5044644Y-11211356D01*
X5115356Y-11211356D01*
X5115356Y-11465356D02*
X5115356Y-11394644D01*
X5044644Y-11394644D01*
X5044644Y-11465356D01*
X5115356Y-11465356D01*
X5115356Y-11719356D02*
X5115356Y-11648644D01*
X5044644Y-11648644D01*
X5044644Y-11719356D01*
X5115356Y-11719356D01*
X5115356Y-11973356D02*
X5115356Y-11902644D01*
X5044644Y-11902644D01*
X5044644Y-11973356D01*
X5115356Y-11973356D01*
X5115356Y-12227356D02*
X5115356Y-12156644D01*
X5044644Y-12156644D01*
X5044644Y-12227356D01*
X5115356Y-12227356D01*
X5115356Y-12481356D02*
X5115356Y-12410644D01*
X5044644Y-12410644D01*
X5044644Y-12481356D01*
X5115356Y-12481356D01*
X5623356Y-5623356D02*
X5623356Y-5552644D01*
X5552644Y-5552644D01*
X5552644Y-5623356D01*
X5623356Y-5623356D01*
X5623356Y-5877356D02*
X5623356Y-5806644D01*
X5552644Y-5806644D01*
X5552644Y-5877356D01*
X5623356Y-5877356D01*
X5623356Y-6131356D02*
X5623356Y-6060644D01*
X5552644Y-6060644D01*
X5552644Y-6131356D01*
X5623356Y-6131356D01*
X5623356Y-6385356D02*
X5623356Y-6314644D01*
X5552644Y-6314644D01*
X5552644Y-6385356D01*
X5623356Y-6385356D01*
X5623356Y-6639356D02*
X5623356Y-6568644D01*
X5552644Y-6568644D01*
X5552644Y-6639356D01*
X5623356Y-6639356D01*
X5623356Y-6893356D02*
X5623356Y-6822644D01*
X5552644Y-6822644D01*
X5552644Y-6893356D01*
X5623356Y-6893356D01*
X5623356Y-7147356D02*
X5623356Y-7076644D01*
X5552644Y-7076644D01*
X5552644Y-7147356D01*
X5623356Y-7147356D01*
X5623356Y-7401356D02*
X5623356Y-7330644D01*
X5552644Y-7330644D01*
X5552644Y-7401356D01*
X5623356Y-7401356D01*
X5623356Y-11835356D02*
X5623356Y-11764644D01*
X5552644Y-11764644D01*
X5552644Y-11835356D01*
X5623356Y-11835356D01*
X5623356Y-12227356D02*
X5623356Y-12156644D01*
X5552644Y-12156644D01*
X5552644Y-12227356D01*
X5623356Y-12227356D01*
X5623356Y-12481356D02*
X5623356Y-12410644D01*
X5552644Y-12410644D01*
X5552644Y-12481356D01*
X5623356Y-12481356D01*
X5623356Y-12735356D02*
X5623356Y-12664644D01*
X5552644Y-12664644D01*
X5552644Y-12735356D01*
X5623356Y-12735356D01*
X5877356Y-5623356D02*
X5877356Y-5552644D01*
X5806644Y-5552644D01*
X5806644Y-5623356D01*
X5877356Y-5623356D01*
X5877356Y-5877356D02*
X5877356Y-5806644D01*
X5806644Y-5806644D01*
X5806644Y-5877356D01*
X5877356Y-5877356D01*
X5877356Y-6131356D02*
X5877356Y-6060644D01*
X5806644Y-6060644D01*
X5806644Y-6131356D01*
X5877356Y-6131356D01*
X5877356Y-6385356D02*
X5877356Y-6314644D01*
X5806644Y-6314644D01*
X5806644Y-6385356D01*
X5877356Y-6385356D01*
X5877356Y-6639356D02*
X5877356Y-6568644D01*
X5806644Y-6568644D01*
X5806644Y-6639356D01*
X5877356Y-6639356D01*
X5877356Y-6893356D02*
X5877356Y-6822644D01*
X5806644Y-6822644D01*
X5806644Y-6893356D01*
X5877356Y-6893356D01*
X5877356Y-7147356D02*
X5877356Y-7076644D01*
X5806644Y-7076644D01*
X5806644Y-7147356D01*
X5877356Y-7147356D01*
X5877356Y-7401356D02*
X5877356Y-7330644D01*
X5806644Y-7330644D01*
X5806644Y-7401356D01*
X5877356Y-7401356D01*
X5877356Y-11835356D02*
X5877356Y-11764644D01*
X5806644Y-11764644D01*
X5806644Y-11835356D01*
X5877356Y-11835356D01*
X5877356Y-12227356D02*
X5877356Y-12156644D01*
X5806644Y-12156644D01*
X5806644Y-12227356D01*
X5877356Y-12227356D01*
X5877356Y-12481356D02*
X5877356Y-12410644D01*
X5806644Y-12410644D01*
X5806644Y-12481356D01*
X5877356Y-12481356D01*
X5877356Y-12735356D02*
X5877356Y-12664644D01*
X5806644Y-12664644D01*
X5806644Y-12735356D01*
X5877356Y-12735356D01*
X6639356Y-5623356D02*
X6639356Y-5552644D01*
X6568644Y-5552644D01*
X6568644Y-5623356D01*
X6639356Y-5623356D01*
X6639356Y-5877356D02*
X6639356Y-5806644D01*
X6568644Y-5806644D01*
X6568644Y-5877356D01*
X6639356Y-5877356D01*
X6639356Y-6131356D02*
X6639356Y-6060644D01*
X6568644Y-6060644D01*
X6568644Y-6131356D01*
X6639356Y-6131356D01*
X6639356Y-6385356D02*
X6639356Y-6314644D01*
X6568644Y-6314644D01*
X6568644Y-6385356D01*
X6639356Y-6385356D01*
X6639356Y-6639356D02*
X6639356Y-6568644D01*
X6568644Y-6568644D01*
X6568644Y-6639356D01*
X6639356Y-6639356D01*
X6639356Y-6893356D02*
X6639356Y-6822644D01*
X6568644Y-6822644D01*
X6568644Y-6893356D01*
X6639356Y-6893356D01*
X6639356Y-7147356D02*
X6639356Y-7076644D01*
X6568644Y-7076644D01*
X6568644Y-7147356D01*
X6639356Y-7147356D01*
X6639356Y-7401356D02*
X6639356Y-7330644D01*
X6568644Y-7330644D01*
X6568644Y-7401356D01*
X6639356Y-7401356D01*
X6893356Y-5623356D02*
X6893356Y-5552644D01*
X6822644Y-5552644D01*
X6822644Y-5623356D01*
X6893356Y-5623356D01*
X6893356Y-5877356D02*
X6893356Y-5806644D01*
X6822644Y-5806644D01*
X6822644Y-5877356D01*
X6893356Y-5877356D01*
X6893356Y-6131356D02*
X6893356Y-6060644D01*
X6822644Y-6060644D01*
X6822644Y-6131356D01*
X6893356Y-6131356D01*
X6893356Y-6385356D02*
X6893356Y-6314644D01*
X6822644Y-6314644D01*
X6822644Y-6385356D01*
X6893356Y-6385356D01*
X6893356Y-6639356D02*
X6893356Y-6568644D01*
X6822644Y-6568644D01*
X6822644Y-6639356D01*
X6893356Y-6639356D01*
X6893356Y-6893356D02*
X6893356Y-6822644D01*
X6822644Y-6822644D01*
X6822644Y-6893356D01*
X6893356Y-6893356D01*
X6893356Y-7147356D02*
X6893356Y-7076644D01*
X6822644Y-7076644D01*
X6822644Y-7147356D01*
X6893356Y-7147356D01*
X6893356Y-7401356D02*
X6893356Y-7330644D01*
X6822644Y-7330644D01*
X6822644Y-7401356D01*
X6893356Y-7401356D01*
X7655356Y-5623356D02*
X7655356Y-5552644D01*
X7584644Y-5552644D01*
X7584644Y-5623356D01*
X7655356Y-5623356D01*
X7655356Y-5877356D02*
X7655356Y-5806644D01*
X7584644Y-5806644D01*
X7584644Y-5877356D01*
X7655356Y-5877356D01*
X7655356Y-6131356D02*
X7655356Y-6060644D01*
X7584644Y-6060644D01*
X7584644Y-6131356D01*
X7655356Y-6131356D01*
X7655356Y-6385356D02*
X7655356Y-6314644D01*
X7584644Y-6314644D01*
X7584644Y-6385356D01*
X7655356Y-6385356D01*
X7655356Y-6639356D02*
X7655356Y-6568644D01*
X7584644Y-6568644D01*
X7584644Y-6639356D01*
X7655356Y-6639356D01*
X7655356Y-6893356D02*
X7655356Y-6822644D01*
X7584644Y-6822644D01*
X7584644Y-6893356D01*
X7655356Y-6893356D01*
X7655356Y-7147356D02*
X7655356Y-7076644D01*
X7584644Y-7076644D01*
X7584644Y-7147356D01*
X7655356Y-7147356D01*
X7655356Y-7401356D02*
X7655356Y-7330644D01*
X7584644Y-7330644D01*
X7584644Y-7401356D01*
X7655356Y-7401356D01*
X7909356Y-5623356D02*
X7909356Y-5552644D01*
X7838644Y-5552644D01*
X7838644Y-5623356D01*
X7909356Y-5623356D01*
X7909356Y-5877356D02*
X7909356Y-5806644D01*
X7838644Y-5806644D01*
X7838644Y-5877356D01*
X7909356Y-5877356D01*
X7909356Y-6131356D02*
X7909356Y-6060644D01*
X7838644Y-6060644D01*
X7838644Y-6131356D01*
X7909356Y-6131356D01*
X7909356Y-6385356D02*
X7909356Y-6314644D01*
X7838644Y-6314644D01*
X7838644Y-6385356D01*
X7909356Y-6385356D01*
X7909356Y-6639356D02*
X7909356Y-6568644D01*
X7838644Y-6568644D01*
X7838644Y-6639356D01*
X7909356Y-6639356D01*
X7909356Y-6893356D02*
X7909356Y-6822644D01*
X7838644Y-6822644D01*
X7838644Y-6893356D01*
X7909356Y-6893356D01*
X7909356Y-7147356D02*
X7909356Y-7076644D01*
X7838644Y-7076644D01*
X7838644Y-7147356D01*
X7909356Y-7147356D01*
X7909356Y-7401356D02*
X7909356Y-7330644D01*
X7838644Y-7330644D01*
X7838644Y-7401356D01*
X7909356Y-7401356D01*
X8163356Y-13243356D02*
X8163356Y-13172644D01*
X8092644Y-13172644D01*
X8092644Y-13243356D01*
X8163356Y-13243356D01*
X8163356Y-13497356D02*
X8163356Y-13426644D01*
X8092644Y-13426644D01*
X8092644Y-13497356D01*
X8163356Y-13497356D01*
X8163356Y-13751356D02*
X8163356Y-13680644D01*
X8092644Y-13680644D01*
X8092644Y-13751356D01*
X8163356Y-13751356D01*
X8163356Y-14005356D02*
X8163356Y-13934644D01*
X8092644Y-13934644D01*
X8092644Y-14005356D01*
X8163356Y-14005356D01*
X8671356Y-5623356D02*
X8671356Y-5552644D01*
X8600644Y-5552644D01*
X8600644Y-5623356D01*
X8671356Y-5623356D01*
X8671356Y-5877356D02*
X8671356Y-5806644D01*
X8600644Y-5806644D01*
X8600644Y-5877356D01*
X8671356Y-5877356D01*
X8671356Y-6131356D02*
X8671356Y-6060644D01*
X8600644Y-6060644D01*
X8600644Y-6131356D01*
X8671356Y-6131356D01*
X8671356Y-6385356D02*
X8671356Y-6314644D01*
X8600644Y-6314644D01*
X8600644Y-6385356D01*
X8671356Y-6385356D01*
X8671356Y-6639356D02*
X8671356Y-6568644D01*
X8600644Y-6568644D01*
X8600644Y-6639356D01*
X8671356Y-6639356D01*
X8671356Y-6893356D02*
X8671356Y-6822644D01*
X8600644Y-6822644D01*
X8600644Y-6893356D01*
X8671356Y-6893356D01*
X8671356Y-7147356D02*
X8671356Y-7076644D01*
X8600644Y-7076644D01*
X8600644Y-7147356D01*
X8671356Y-7147356D01*
X8671356Y-7401356D02*
X8671356Y-7330644D01*
X8600644Y-7330644D01*
X8600644Y-7401356D01*
X8671356Y-7401356D01*
X8671356Y-10703356D02*
X8671356Y-10632644D01*
X8600644Y-10632644D01*
X8600644Y-10703356D01*
X8671356Y-10703356D01*
X8671356Y-12227356D02*
X8671356Y-12156644D01*
X8600644Y-12156644D01*
X8600644Y-12227356D01*
X8671356Y-12227356D01*
X8671356Y-12481356D02*
X8671356Y-12410644D01*
X8600644Y-12410644D01*
X8600644Y-12481356D01*
X8671356Y-12481356D01*
X8671356Y-12735356D02*
X8671356Y-12664644D01*
X8600644Y-12664644D01*
X8600644Y-12735356D01*
X8671356Y-12735356D01*
X8671356Y-12989356D02*
X8671356Y-12918644D01*
X8600644Y-12918644D01*
X8600644Y-12989356D01*
X8671356Y-12989356D01*
X8671356Y-13243356D02*
X8671356Y-13172644D01*
X8600644Y-13172644D01*
X8600644Y-13243356D01*
X8671356Y-13243356D01*
X8671356Y-13497356D02*
X8671356Y-13426644D01*
X8600644Y-13426644D01*
X8600644Y-13497356D01*
X8671356Y-13497356D01*
X8671356Y-13751356D02*
X8671356Y-13680644D01*
X8600644Y-13680644D01*
X8600644Y-13751356D01*
X8671356Y-13751356D01*
X8671356Y-14005356D02*
X8671356Y-13934644D01*
X8600644Y-13934644D01*
X8600644Y-14005356D01*
X8671356Y-14005356D01*
X8925356Y-5623356D02*
X8925356Y-5552644D01*
X8854644Y-5552644D01*
X8854644Y-5623356D01*
X8925356Y-5623356D01*
X8925356Y-5877356D02*
X8925356Y-5806644D01*
X8854644Y-5806644D01*
X8854644Y-5877356D01*
X8925356Y-5877356D01*
X8925356Y-6131356D02*
X8925356Y-6060644D01*
X8854644Y-6060644D01*
X8854644Y-6131356D01*
X8925356Y-6131356D01*
X8925356Y-6385356D02*
X8925356Y-6314644D01*
X8854644Y-6314644D01*
X8854644Y-6385356D01*
X8925356Y-6385356D01*
X8925356Y-6639356D02*
X8925356Y-6568644D01*
X8854644Y-6568644D01*
X8854644Y-6639356D01*
X8925356Y-6639356D01*
X8925356Y-6893356D02*
X8925356Y-6822644D01*
X8854644Y-6822644D01*
X8854644Y-6893356D01*
X8925356Y-6893356D01*
X8925356Y-7147356D02*
X8925356Y-7076644D01*
X8854644Y-7076644D01*
X8854644Y-7147356D01*
X8925356Y-7147356D01*
X8925356Y-7401356D02*
X8925356Y-7330644D01*
X8854644Y-7330644D01*
X8854644Y-7401356D01*
X8925356Y-7401356D01*
X8925356Y-10703356D02*
X8925356Y-10632644D01*
X8854644Y-10632644D01*
X8854644Y-10703356D01*
X8925356Y-10703356D01*
X9179356Y-10703356D02*
X9179356Y-10632644D01*
X9108644Y-10632644D01*
X9108644Y-10703356D01*
X9179356Y-10703356D01*
X9433356Y-10703356D02*
X9433356Y-10632644D01*
X9362644Y-10632644D01*
X9362644Y-10703356D01*
X9433356Y-10703356D01*
X9687356Y-5623356D02*
X9687356Y-5552644D01*
X9616644Y-5552644D01*
X9616644Y-5623356D01*
X9687356Y-5623356D01*
X9687356Y-5877356D02*
X9687356Y-5806644D01*
X9616644Y-5806644D01*
X9616644Y-5877356D01*
X9687356Y-5877356D01*
X9687356Y-6131356D02*
X9687356Y-6060644D01*
X9616644Y-6060644D01*
X9616644Y-6131356D01*
X9687356Y-6131356D01*
X9687356Y-6385356D02*
X9687356Y-6314644D01*
X9616644Y-6314644D01*
X9616644Y-6385356D01*
X9687356Y-6385356D01*
X9687356Y-6639356D02*
X9687356Y-6568644D01*
X9616644Y-6568644D01*
X9616644Y-6639356D01*
X9687356Y-6639356D01*
X9687356Y-6893356D02*
X9687356Y-6822644D01*
X9616644Y-6822644D01*
X9616644Y-6893356D01*
X9687356Y-6893356D01*
X9687356Y-7147356D02*
X9687356Y-7076644D01*
X9616644Y-7076644D01*
X9616644Y-7147356D01*
X9687356Y-7147356D01*
X9687356Y-7401356D02*
X9687356Y-7330644D01*
X9616644Y-7330644D01*
X9616644Y-7401356D01*
X9687356Y-7401356D01*
X9941356Y-5623356D02*
X9941356Y-5552644D01*
X9870644Y-5552644D01*
X9870644Y-5623356D01*
X9941356Y-5623356D01*
X9941356Y-5877356D02*
X9941356Y-5806644D01*
X9870644Y-5806644D01*
X9870644Y-5877356D01*
X9941356Y-5877356D01*
X9941356Y-6131356D02*
X9941356Y-6060644D01*
X9870644Y-6060644D01*
X9870644Y-6131356D01*
X9941356Y-6131356D01*
X9941356Y-6385356D02*
X9941356Y-6314644D01*
X9870644Y-6314644D01*
X9870644Y-6385356D01*
X9941356Y-6385356D01*
X9941356Y-6639356D02*
X9941356Y-6568644D01*
X9870644Y-6568644D01*
X9870644Y-6639356D01*
X9941356Y-6639356D01*
X9941356Y-6893356D02*
X9941356Y-6822644D01*
X9870644Y-6822644D01*
X9870644Y-6893356D01*
X9941356Y-6893356D01*
X9941356Y-7147356D02*
X9941356Y-7076644D01*
X9870644Y-7076644D01*
X9870644Y-7147356D01*
X9941356Y-7147356D01*
X9941356Y-7401356D02*
X9941356Y-7330644D01*
X9870644Y-7330644D01*
X9870644Y-7401356D01*
X9941356Y-7401356D01*
X9941356Y-10703356D02*
X9941356Y-10632644D01*
X9870644Y-10632644D01*
X9870644Y-10703356D01*
X9941356Y-10703356D01*
X10195356Y-10703356D02*
X10195356Y-10632644D01*
X10124644Y-10632644D01*
X10124644Y-10703356D01*
X10195356Y-10703356D01*
X10449356Y-10703356D02*
X10449356Y-10632644D01*
X10378644Y-10632644D01*
X10378644Y-10703356D01*
X10449356Y-10703356D01*
X10703356Y-10703356D02*
X10703356Y-10632644D01*
X10632644Y-10632644D01*
X10632644Y-10703356D01*
X10703356Y-10703356D01*
X10957356Y-10703356D02*
X10957356Y-10632644D01*
X10886644Y-10632644D01*
X10886644Y-10703356D01*
X10957356Y-10703356D01*
X10957356Y-12227356D02*
X10957356Y-12156644D01*
X10886644Y-12156644D01*
X10886644Y-12227356D01*
X10957356Y-12227356D01*
X10957356Y-12481356D02*
X10957356Y-12410644D01*
X10886644Y-12410644D01*
X10886644Y-12481356D01*
X10957356Y-12481356D01*
X10957356Y-12735356D02*
X10957356Y-12664644D01*
X10886644Y-12664644D01*
X10886644Y-12735356D01*
X10957356Y-12735356D01*
X10957356Y-12989356D02*
X10957356Y-12918644D01*
X10886644Y-12918644D01*
X10886644Y-12989356D01*
X10957356Y-12989356D01*
X10957356Y-13243356D02*
X10957356Y-13172644D01*
X10886644Y-13172644D01*
X10886644Y-13243356D01*
X10957356Y-13243356D01*
X10957356Y-13497356D02*
X10957356Y-13426644D01*
X10886644Y-13426644D01*
X10886644Y-13497356D01*
X10957356Y-13497356D01*
X10957356Y-13751356D02*
X10957356Y-13680644D01*
X10886644Y-13680644D01*
X10886644Y-13751356D01*
X10957356Y-13751356D01*
X10957356Y-14005356D02*
X10957356Y-13934644D01*
X10886644Y-13934644D01*
X10886644Y-14005356D01*
X10957356Y-14005356D01*
D12*
X4550000Y-13455000D02*
X4605000Y-13400000D01*
X4550000Y-13345000D01*
X4495000Y-13400000D01*
X4550000Y-13455000D01*
X4550000Y-13905000D02*
X4605000Y-13850000D01*
X4550000Y-13795000D01*
X4495000Y-13850000D01*
X4550000Y-13905000D01*
X5200000Y-13455000D02*
X5255000Y-13400000D01*
X5200000Y-13345000D01*
X5145000Y-13400000D01*
X5200000Y-13455000D01*
X5200000Y-13905000D02*
X5255000Y-13850000D01*
X5200000Y-13795000D01*
X5145000Y-13850000D01*
X5200000Y-13905000D01*
D13*
X10740000Y-5640000D02*
X10860000Y-5760000D01*
X10860000Y-5640000D02*
X10740000Y-5760000D01*
X10860000Y-5700000D02*
G75*
G02*
X10740000Y-5700000I-60000J0D01*
G01*
X10740000Y-5700000D02*
G75*
G02*
X10860000Y-5700000I60000J0D01*
G01*
X11240000Y-5640000D02*
X11360000Y-5760000D01*
X11360000Y-5640000D02*
X11240000Y-5760000D01*
X11360000Y-5700000D02*
G75*
G02*
X11240000Y-5700000I-60000J0D01*
G01*
X11240000Y-5700000D02*
G75*
G02*
X11360000Y-5700000I60000J0D01*
G01*
D10*
X2205777Y-15066484D02*
X2205777Y-14866484D01*
X2205777Y-14866484D02*
X2253396Y-14866484D01*
X2253396Y-14866484D02*
X2281967Y-14876008D01*
X2281967Y-14876008D02*
X2301015Y-14895055D01*
X2301015Y-14895055D02*
X2310539Y-14914103D01*
X2310539Y-14914103D02*
X2320063Y-14952198D01*
X2320063Y-14952198D02*
X2320063Y-14980769D01*
X2320063Y-14980769D02*
X2310539Y-15018865D01*
X2310539Y-15018865D02*
X2301015Y-15037912D01*
X2301015Y-15037912D02*
X2281967Y-15056960D01*
X2281967Y-15056960D02*
X2253396Y-15066484D01*
X2253396Y-15066484D02*
X2205777Y-15066484D01*
X2405777Y-15066484D02*
X2405777Y-14933150D01*
X2405777Y-14971246D02*
X2415301Y-14952198D01*
X2415301Y-14952198D02*
X2424824Y-14942674D01*
X2424824Y-14942674D02*
X2443872Y-14933150D01*
X2443872Y-14933150D02*
X2462920Y-14933150D01*
X2529586Y-15066484D02*
X2529586Y-14933150D01*
X2529586Y-14866484D02*
X2520063Y-14876008D01*
X2520063Y-14876008D02*
X2529586Y-14885531D01*
X2529586Y-14885531D02*
X2539110Y-14876008D01*
X2539110Y-14876008D02*
X2529586Y-14866484D01*
X2529586Y-14866484D02*
X2529586Y-14885531D01*
X2653396Y-15066484D02*
X2634348Y-15056960D01*
X2634348Y-15056960D02*
X2624824Y-15037912D01*
X2624824Y-15037912D02*
X2624824Y-14866484D01*
X2758158Y-15066484D02*
X2739110Y-15056960D01*
X2739110Y-15056960D02*
X2729586Y-15037912D01*
X2729586Y-15037912D02*
X2729586Y-14866484D01*
X2986729Y-15066484D02*
X2986729Y-14866484D01*
X2986729Y-14866484D02*
X3053396Y-15009341D01*
X3053396Y-15009341D02*
X3120062Y-14866484D01*
X3120062Y-14866484D02*
X3120062Y-15066484D01*
X3301015Y-15066484D02*
X3301015Y-14961722D01*
X3301015Y-14961722D02*
X3291491Y-14942674D01*
X3291491Y-14942674D02*
X3272443Y-14933150D01*
X3272443Y-14933150D02*
X3234348Y-14933150D01*
X3234348Y-14933150D02*
X3215301Y-14942674D01*
X3301015Y-15056960D02*
X3281967Y-15066484D01*
X3281967Y-15066484D02*
X3234348Y-15066484D01*
X3234348Y-15066484D02*
X3215301Y-15056960D01*
X3215301Y-15056960D02*
X3205777Y-15037912D01*
X3205777Y-15037912D02*
X3205777Y-15018865D01*
X3205777Y-15018865D02*
X3215301Y-14999817D01*
X3215301Y-14999817D02*
X3234348Y-14990293D01*
X3234348Y-14990293D02*
X3281967Y-14990293D01*
X3281967Y-14990293D02*
X3301015Y-14980769D01*
X3396253Y-14933150D02*
X3396253Y-15133150D01*
X3396253Y-14942674D02*
X3415301Y-14933150D01*
X3415301Y-14933150D02*
X3453396Y-14933150D01*
X3453396Y-14933150D02*
X3472443Y-14942674D01*
X3472443Y-14942674D02*
X3481967Y-14952198D01*
X3481967Y-14952198D02*
X3491491Y-14971246D01*
X3491491Y-14971246D02*
X3491491Y-15028388D01*
X3491491Y-15028388D02*
X3481967Y-15047436D01*
X3481967Y-15047436D02*
X3472443Y-15056960D01*
X3472443Y-15056960D02*
X3453396Y-15066484D01*
X3453396Y-15066484D02*
X3415301Y-15066484D01*
X3415301Y-15066484D02*
X3396253Y-15056960D01*
X3577205Y-15047436D02*
X3586729Y-15056960D01*
X3586729Y-15056960D02*
X3577205Y-15066484D01*
X3577205Y-15066484D02*
X3567682Y-15056960D01*
X3567682Y-15056960D02*
X3577205Y-15047436D01*
X3577205Y-15047436D02*
X3577205Y-15066484D01*
X3577205Y-14942674D02*
X3586729Y-14952198D01*
X3586729Y-14952198D02*
X3577205Y-14961722D01*
X3577205Y-14961722D02*
X3567682Y-14952198D01*
X3567682Y-14952198D02*
X3577205Y-14942674D01*
X3577205Y-14942674D02*
X3577205Y-14961722D01*
D11*
X1915000Y-15380000D02*
X1945000Y-15410000D01*
X1945000Y-15380000D02*
X1915000Y-15410000D01*
D10*
X2243872Y-15286484D02*
X2262920Y-15286484D01*
X2262920Y-15286484D02*
X2281967Y-15296008D01*
X2281967Y-15296008D02*
X2291491Y-15305531D01*
X2291491Y-15305531D02*
X2301015Y-15324579D01*
X2301015Y-15324579D02*
X2310539Y-15362674D01*
X2310539Y-15362674D02*
X2310539Y-15410293D01*
X2310539Y-15410293D02*
X2301015Y-15448388D01*
X2301015Y-15448388D02*
X2291491Y-15467436D01*
X2291491Y-15467436D02*
X2281967Y-15476960D01*
X2281967Y-15476960D02*
X2262920Y-15486484D01*
X2262920Y-15486484D02*
X2243872Y-15486484D01*
X2243872Y-15486484D02*
X2224824Y-15476960D01*
X2224824Y-15476960D02*
X2215301Y-15467436D01*
X2215301Y-15467436D02*
X2205777Y-15448388D01*
X2205777Y-15448388D02*
X2196253Y-15410293D01*
X2196253Y-15410293D02*
X2196253Y-15362674D01*
X2196253Y-15362674D02*
X2205777Y-15324579D01*
X2205777Y-15324579D02*
X2215301Y-15305531D01*
X2215301Y-15305531D02*
X2224824Y-15296008D01*
X2224824Y-15296008D02*
X2243872Y-15286484D01*
X2396253Y-15467436D02*
X2405777Y-15476960D01*
X2405777Y-15476960D02*
X2396253Y-15486484D01*
X2396253Y-15486484D02*
X2386729Y-15476960D01*
X2386729Y-15476960D02*
X2396253Y-15467436D01*
X2396253Y-15467436D02*
X2396253Y-15486484D01*
X2472444Y-15286484D02*
X2596253Y-15286484D01*
X2596253Y-15286484D02*
X2529586Y-15362674D01*
X2529586Y-15362674D02*
X2558158Y-15362674D01*
X2558158Y-15362674D02*
X2577205Y-15372198D01*
X2577205Y-15372198D02*
X2586729Y-15381722D01*
X2586729Y-15381722D02*
X2596253Y-15400769D01*
X2596253Y-15400769D02*
X2596253Y-15448388D01*
X2596253Y-15448388D02*
X2586729Y-15467436D01*
X2586729Y-15467436D02*
X2577205Y-15476960D01*
X2577205Y-15476960D02*
X2558158Y-15486484D01*
X2558158Y-15486484D02*
X2501015Y-15486484D01*
X2501015Y-15486484D02*
X2481967Y-15476960D01*
X2481967Y-15476960D02*
X2472444Y-15467436D01*
X2720063Y-15286484D02*
X2739110Y-15286484D01*
X2739110Y-15286484D02*
X2758158Y-15296008D01*
X2758158Y-15296008D02*
X2767682Y-15305531D01*
X2767682Y-15305531D02*
X2777205Y-15324579D01*
X2777205Y-15324579D02*
X2786729Y-15362674D01*
X2786729Y-15362674D02*
X2786729Y-15410293D01*
X2786729Y-15410293D02*
X2777205Y-15448388D01*
X2777205Y-15448388D02*
X2767682Y-15467436D01*
X2767682Y-15467436D02*
X2758158Y-15476960D01*
X2758158Y-15476960D02*
X2739110Y-15486484D01*
X2739110Y-15486484D02*
X2720063Y-15486484D01*
X2720063Y-15486484D02*
X2701015Y-15476960D01*
X2701015Y-15476960D02*
X2691491Y-15467436D01*
X2691491Y-15467436D02*
X2681967Y-15448388D01*
X2681967Y-15448388D02*
X2672444Y-15410293D01*
X2672444Y-15410293D02*
X2672444Y-15362674D01*
X2672444Y-15362674D02*
X2681967Y-15324579D01*
X2681967Y-15324579D02*
X2691491Y-15305531D01*
X2691491Y-15305531D02*
X2701015Y-15296008D01*
X2701015Y-15296008D02*
X2720063Y-15286484D01*
X2910539Y-15286484D02*
X2929586Y-15286484D01*
X2929586Y-15286484D02*
X2948634Y-15296008D01*
X2948634Y-15296008D02*
X2958158Y-15305531D01*
X2958158Y-15305531D02*
X2967682Y-15324579D01*
X2967682Y-15324579D02*
X2977205Y-15362674D01*
X2977205Y-15362674D02*
X2977205Y-15410293D01*
X2977205Y-15410293D02*
X2967682Y-15448388D01*
X2967682Y-15448388D02*
X2958158Y-15467436D01*
X2958158Y-15467436D02*
X2948634Y-15476960D01*
X2948634Y-15476960D02*
X2929586Y-15486484D01*
X2929586Y-15486484D02*
X2910539Y-15486484D01*
X2910539Y-15486484D02*
X2891491Y-15476960D01*
X2891491Y-15476960D02*
X2881967Y-15467436D01*
X2881967Y-15467436D02*
X2872443Y-15448388D01*
X2872443Y-15448388D02*
X2862920Y-15410293D01*
X2862920Y-15410293D02*
X2862920Y-15362674D01*
X2862920Y-15362674D02*
X2872443Y-15324579D01*
X2872443Y-15324579D02*
X2881967Y-15305531D01*
X2881967Y-15305531D02*
X2891491Y-15296008D01*
X2891491Y-15296008D02*
X2910539Y-15286484D01*
X3062920Y-15486484D02*
X3062920Y-15353150D01*
X3062920Y-15372198D02*
X3072443Y-15362674D01*
X3072443Y-15362674D02*
X3091491Y-15353150D01*
X3091491Y-15353150D02*
X3120063Y-15353150D01*
X3120063Y-15353150D02*
X3139110Y-15362674D01*
X3139110Y-15362674D02*
X3148634Y-15381722D01*
X3148634Y-15381722D02*
X3148634Y-15486484D01*
X3148634Y-15381722D02*
X3158158Y-15362674D01*
X3158158Y-15362674D02*
X3177205Y-15353150D01*
X3177205Y-15353150D02*
X3205777Y-15353150D01*
X3205777Y-15353150D02*
X3224824Y-15362674D01*
X3224824Y-15362674D02*
X3234348Y-15381722D01*
X3234348Y-15381722D02*
X3234348Y-15486484D01*
X3329586Y-15486484D02*
X3329586Y-15353150D01*
X3329586Y-15372198D02*
X3339110Y-15362674D01*
X3339110Y-15362674D02*
X3358158Y-15353150D01*
X3358158Y-15353150D02*
X3386729Y-15353150D01*
X3386729Y-15353150D02*
X3405777Y-15362674D01*
X3405777Y-15362674D02*
X3415301Y-15381722D01*
X3415301Y-15381722D02*
X3415301Y-15486484D01*
X3415301Y-15381722D02*
X3424824Y-15362674D01*
X3424824Y-15362674D02*
X3443872Y-15353150D01*
X3443872Y-15353150D02*
X3472443Y-15353150D01*
X3472443Y-15353150D02*
X3491491Y-15362674D01*
X3491491Y-15362674D02*
X3501015Y-15381722D01*
X3501015Y-15381722D02*
X3501015Y-15486484D01*
X3891491Y-15276960D02*
X3720063Y-15534103D01*
X4148634Y-15286484D02*
X4167682Y-15286484D01*
X4167682Y-15286484D02*
X4186729Y-15296008D01*
X4186729Y-15296008D02*
X4196253Y-15305531D01*
X4196253Y-15305531D02*
X4205777Y-15324579D01*
X4205777Y-15324579D02*
X4215301Y-15362674D01*
X4215301Y-15362674D02*
X4215301Y-15410293D01*
X4215301Y-15410293D02*
X4205777Y-15448388D01*
X4205777Y-15448388D02*
X4196253Y-15467436D01*
X4196253Y-15467436D02*
X4186729Y-15476960D01*
X4186729Y-15476960D02*
X4167682Y-15486484D01*
X4167682Y-15486484D02*
X4148634Y-15486484D01*
X4148634Y-15486484D02*
X4129586Y-15476960D01*
X4129586Y-15476960D02*
X4120063Y-15467436D01*
X4120063Y-15467436D02*
X4110539Y-15448388D01*
X4110539Y-15448388D02*
X4101015Y-15410293D01*
X4101015Y-15410293D02*
X4101015Y-15362674D01*
X4101015Y-15362674D02*
X4110539Y-15324579D01*
X4110539Y-15324579D02*
X4120063Y-15305531D01*
X4120063Y-15305531D02*
X4129586Y-15296008D01*
X4129586Y-15296008D02*
X4148634Y-15286484D01*
X4301015Y-15467436D02*
X4310539Y-15476960D01*
X4310539Y-15476960D02*
X4301015Y-15486484D01*
X4301015Y-15486484D02*
X4291491Y-15476960D01*
X4291491Y-15476960D02*
X4301015Y-15467436D01*
X4301015Y-15467436D02*
X4301015Y-15486484D01*
X4434348Y-15286484D02*
X4453396Y-15286484D01*
X4453396Y-15286484D02*
X4472444Y-15296008D01*
X4472444Y-15296008D02*
X4481968Y-15305531D01*
X4481968Y-15305531D02*
X4491491Y-15324579D01*
X4491491Y-15324579D02*
X4501015Y-15362674D01*
X4501015Y-15362674D02*
X4501015Y-15410293D01*
X4501015Y-15410293D02*
X4491491Y-15448388D01*
X4491491Y-15448388D02*
X4481968Y-15467436D01*
X4481968Y-15467436D02*
X4472444Y-15476960D01*
X4472444Y-15476960D02*
X4453396Y-15486484D01*
X4453396Y-15486484D02*
X4434348Y-15486484D01*
X4434348Y-15486484D02*
X4415301Y-15476960D01*
X4415301Y-15476960D02*
X4405777Y-15467436D01*
X4405777Y-15467436D02*
X4396253Y-15448388D01*
X4396253Y-15448388D02*
X4386729Y-15410293D01*
X4386729Y-15410293D02*
X4386729Y-15362674D01*
X4386729Y-15362674D02*
X4396253Y-15324579D01*
X4396253Y-15324579D02*
X4405777Y-15305531D01*
X4405777Y-15305531D02*
X4415301Y-15296008D01*
X4415301Y-15296008D02*
X4434348Y-15286484D01*
X4691491Y-15486484D02*
X4577206Y-15486484D01*
X4634348Y-15486484D02*
X4634348Y-15286484D01*
X4634348Y-15286484D02*
X4615301Y-15315055D01*
X4615301Y-15315055D02*
X4596253Y-15334103D01*
X4596253Y-15334103D02*
X4577206Y-15343627D01*
X4881968Y-15486484D02*
X4767682Y-15486484D01*
X4824825Y-15486484D02*
X4824825Y-15286484D01*
X4824825Y-15286484D02*
X4805777Y-15315055D01*
X4805777Y-15315055D02*
X4786729Y-15334103D01*
X4786729Y-15334103D02*
X4767682Y-15343627D01*
X4996253Y-15372198D02*
X4977206Y-15362674D01*
X4977206Y-15362674D02*
X4967682Y-15353150D01*
X4967682Y-15353150D02*
X4958158Y-15334103D01*
X4958158Y-15334103D02*
X4958158Y-15324579D01*
X4958158Y-15324579D02*
X4967682Y-15305531D01*
X4967682Y-15305531D02*
X4977206Y-15296008D01*
X4977206Y-15296008D02*
X4996253Y-15286484D01*
X4996253Y-15286484D02*
X5034349Y-15286484D01*
X5034349Y-15286484D02*
X5053396Y-15296008D01*
X5053396Y-15296008D02*
X5062920Y-15305531D01*
X5062920Y-15305531D02*
X5072444Y-15324579D01*
X5072444Y-15324579D02*
X5072444Y-15334103D01*
X5072444Y-15334103D02*
X5062920Y-15353150D01*
X5062920Y-15353150D02*
X5053396Y-15362674D01*
X5053396Y-15362674D02*
X5034349Y-15372198D01*
X5034349Y-15372198D02*
X4996253Y-15372198D01*
X4996253Y-15372198D02*
X4977206Y-15381722D01*
X4977206Y-15381722D02*
X4967682Y-15391246D01*
X4967682Y-15391246D02*
X4958158Y-15410293D01*
X4958158Y-15410293D02*
X4958158Y-15448388D01*
X4958158Y-15448388D02*
X4967682Y-15467436D01*
X4967682Y-15467436D02*
X4977206Y-15476960D01*
X4977206Y-15476960D02*
X4996253Y-15486484D01*
X4996253Y-15486484D02*
X5034349Y-15486484D01*
X5034349Y-15486484D02*
X5053396Y-15476960D01*
X5053396Y-15476960D02*
X5062920Y-15467436D01*
X5062920Y-15467436D02*
X5072444Y-15448388D01*
X5072444Y-15448388D02*
X5072444Y-15410293D01*
X5072444Y-15410293D02*
X5062920Y-15391246D01*
X5062920Y-15391246D02*
X5053396Y-15381722D01*
X5053396Y-15381722D02*
X5034349Y-15372198D01*
X5148634Y-15286484D02*
X5148634Y-15324579D01*
X5224825Y-15286484D02*
X5224825Y-15324579D01*
X5520063Y-15562674D02*
X5510539Y-15553150D01*
X5510539Y-15553150D02*
X5491491Y-15524579D01*
X5491491Y-15524579D02*
X5481968Y-15505531D01*
X5481968Y-15505531D02*
X5472444Y-15476960D01*
X5472444Y-15476960D02*
X5462920Y-15429341D01*
X5462920Y-15429341D02*
X5462920Y-15391246D01*
X5462920Y-15391246D02*
X5472444Y-15343627D01*
X5472444Y-15343627D02*
X5481968Y-15315055D01*
X5481968Y-15315055D02*
X5491491Y-15296008D01*
X5491491Y-15296008D02*
X5510539Y-15267436D01*
X5510539Y-15267436D02*
X5520063Y-15257912D01*
X5701015Y-15486484D02*
X5586730Y-15486484D01*
X5643872Y-15486484D02*
X5643872Y-15286484D01*
X5643872Y-15286484D02*
X5624825Y-15315055D01*
X5624825Y-15315055D02*
X5605777Y-15334103D01*
X5605777Y-15334103D02*
X5586730Y-15343627D01*
X5824825Y-15286484D02*
X5843872Y-15286484D01*
X5843872Y-15286484D02*
X5862920Y-15296008D01*
X5862920Y-15296008D02*
X5872444Y-15305531D01*
X5872444Y-15305531D02*
X5881968Y-15324579D01*
X5881968Y-15324579D02*
X5891491Y-15362674D01*
X5891491Y-15362674D02*
X5891491Y-15410293D01*
X5891491Y-15410293D02*
X5881968Y-15448388D01*
X5881968Y-15448388D02*
X5872444Y-15467436D01*
X5872444Y-15467436D02*
X5862920Y-15476960D01*
X5862920Y-15476960D02*
X5843872Y-15486484D01*
X5843872Y-15486484D02*
X5824825Y-15486484D01*
X5824825Y-15486484D02*
X5805777Y-15476960D01*
X5805777Y-15476960D02*
X5796253Y-15467436D01*
X5796253Y-15467436D02*
X5786729Y-15448388D01*
X5786729Y-15448388D02*
X5777206Y-15410293D01*
X5777206Y-15410293D02*
X5777206Y-15362674D01*
X5777206Y-15362674D02*
X5786729Y-15324579D01*
X5786729Y-15324579D02*
X5796253Y-15305531D01*
X5796253Y-15305531D02*
X5805777Y-15296008D01*
X5805777Y-15296008D02*
X5824825Y-15286484D01*
X6062920Y-15286484D02*
X6024825Y-15286484D01*
X6024825Y-15286484D02*
X6005777Y-15296008D01*
X6005777Y-15296008D02*
X5996253Y-15305531D01*
X5996253Y-15305531D02*
X5977206Y-15334103D01*
X5977206Y-15334103D02*
X5967682Y-15372198D01*
X5967682Y-15372198D02*
X5967682Y-15448388D01*
X5967682Y-15448388D02*
X5977206Y-15467436D01*
X5977206Y-15467436D02*
X5986729Y-15476960D01*
X5986729Y-15476960D02*
X6005777Y-15486484D01*
X6005777Y-15486484D02*
X6043872Y-15486484D01*
X6043872Y-15486484D02*
X6062920Y-15476960D01*
X6062920Y-15476960D02*
X6072444Y-15467436D01*
X6072444Y-15467436D02*
X6081968Y-15448388D01*
X6081968Y-15448388D02*
X6081968Y-15400769D01*
X6081968Y-15400769D02*
X6072444Y-15381722D01*
X6072444Y-15381722D02*
X6062920Y-15372198D01*
X6062920Y-15372198D02*
X6043872Y-15362674D01*
X6043872Y-15362674D02*
X6005777Y-15362674D01*
X6005777Y-15362674D02*
X5986729Y-15372198D01*
X5986729Y-15372198D02*
X5977206Y-15381722D01*
X5977206Y-15381722D02*
X5967682Y-15400769D01*
X6320063Y-15486484D02*
X6320063Y-15286484D01*
X6405777Y-15486484D02*
X6405777Y-15381722D01*
X6405777Y-15381722D02*
X6396253Y-15362674D01*
X6396253Y-15362674D02*
X6377206Y-15353150D01*
X6377206Y-15353150D02*
X6348634Y-15353150D01*
X6348634Y-15353150D02*
X6329587Y-15362674D01*
X6329587Y-15362674D02*
X6320063Y-15372198D01*
X6529587Y-15486484D02*
X6510539Y-15476960D01*
X6510539Y-15476960D02*
X6501015Y-15467436D01*
X6501015Y-15467436D02*
X6491491Y-15448388D01*
X6491491Y-15448388D02*
X6491491Y-15391246D01*
X6491491Y-15391246D02*
X6501015Y-15372198D01*
X6501015Y-15372198D02*
X6510539Y-15362674D01*
X6510539Y-15362674D02*
X6529587Y-15353150D01*
X6529587Y-15353150D02*
X6558158Y-15353150D01*
X6558158Y-15353150D02*
X6577206Y-15362674D01*
X6577206Y-15362674D02*
X6586730Y-15372198D01*
X6586730Y-15372198D02*
X6596253Y-15391246D01*
X6596253Y-15391246D02*
X6596253Y-15448388D01*
X6596253Y-15448388D02*
X6586730Y-15467436D01*
X6586730Y-15467436D02*
X6577206Y-15476960D01*
X6577206Y-15476960D02*
X6558158Y-15486484D01*
X6558158Y-15486484D02*
X6529587Y-15486484D01*
X6710539Y-15486484D02*
X6691491Y-15476960D01*
X6691491Y-15476960D02*
X6681968Y-15457912D01*
X6681968Y-15457912D02*
X6681968Y-15286484D01*
X6862920Y-15476960D02*
X6843872Y-15486484D01*
X6843872Y-15486484D02*
X6805777Y-15486484D01*
X6805777Y-15486484D02*
X6786730Y-15476960D01*
X6786730Y-15476960D02*
X6777206Y-15457912D01*
X6777206Y-15457912D02*
X6777206Y-15381722D01*
X6777206Y-15381722D02*
X6786730Y-15362674D01*
X6786730Y-15362674D02*
X6805777Y-15353150D01*
X6805777Y-15353150D02*
X6843872Y-15353150D01*
X6843872Y-15353150D02*
X6862920Y-15362674D01*
X6862920Y-15362674D02*
X6872444Y-15381722D01*
X6872444Y-15381722D02*
X6872444Y-15400769D01*
X6872444Y-15400769D02*
X6777206Y-15419817D01*
X6948634Y-15476960D02*
X6967682Y-15486484D01*
X6967682Y-15486484D02*
X7005777Y-15486484D01*
X7005777Y-15486484D02*
X7024825Y-15476960D01*
X7024825Y-15476960D02*
X7034349Y-15457912D01*
X7034349Y-15457912D02*
X7034349Y-15448388D01*
X7034349Y-15448388D02*
X7024825Y-15429341D01*
X7024825Y-15429341D02*
X7005777Y-15419817D01*
X7005777Y-15419817D02*
X6977206Y-15419817D01*
X6977206Y-15419817D02*
X6958158Y-15410293D01*
X6958158Y-15410293D02*
X6948634Y-15391246D01*
X6948634Y-15391246D02*
X6948634Y-15381722D01*
X6948634Y-15381722D02*
X6958158Y-15362674D01*
X6958158Y-15362674D02*
X6977206Y-15353150D01*
X6977206Y-15353150D02*
X7005777Y-15353150D01*
X7005777Y-15353150D02*
X7024825Y-15362674D01*
X7101015Y-15562674D02*
X7110539Y-15553150D01*
X7110539Y-15553150D02*
X7129587Y-15524579D01*
X7129587Y-15524579D02*
X7139111Y-15505531D01*
X7139111Y-15505531D02*
X7148634Y-15476960D01*
X7148634Y-15476960D02*
X7158158Y-15429341D01*
X7158158Y-15429341D02*
X7158158Y-15391246D01*
X7158158Y-15391246D02*
X7148634Y-15343627D01*
X7148634Y-15343627D02*
X7139111Y-15315055D01*
X7139111Y-15315055D02*
X7129587Y-15296008D01*
X7129587Y-15296008D02*
X7110539Y-15267436D01*
X7110539Y-15267436D02*
X7101015Y-15257912D01*
D11*
X1945000Y-15659000D02*
G75*
G02*
X1905000Y-15659000I-20000J0D01*
G01*
X1905000Y-15659000D02*
G75*
G02*
X1945000Y-15659000I20000J0D01*
G01*
D10*
X2243872Y-15550484D02*
X2262920Y-15550484D01*
X2262920Y-15550484D02*
X2281967Y-15560008D01*
X2281967Y-15560008D02*
X2291491Y-15569531D01*
X2291491Y-15569531D02*
X2301015Y-15588579D01*
X2301015Y-15588579D02*
X2310539Y-15626674D01*
X2310539Y-15626674D02*
X2310539Y-15674293D01*
X2310539Y-15674293D02*
X2301015Y-15712388D01*
X2301015Y-15712388D02*
X2291491Y-15731436D01*
X2291491Y-15731436D02*
X2281967Y-15740960D01*
X2281967Y-15740960D02*
X2262920Y-15750484D01*
X2262920Y-15750484D02*
X2243872Y-15750484D01*
X2243872Y-15750484D02*
X2224824Y-15740960D01*
X2224824Y-15740960D02*
X2215301Y-15731436D01*
X2215301Y-15731436D02*
X2205777Y-15712388D01*
X2205777Y-15712388D02*
X2196253Y-15674293D01*
X2196253Y-15674293D02*
X2196253Y-15626674D01*
X2196253Y-15626674D02*
X2205777Y-15588579D01*
X2205777Y-15588579D02*
X2215301Y-15569531D01*
X2215301Y-15569531D02*
X2224824Y-15560008D01*
X2224824Y-15560008D02*
X2243872Y-15550484D01*
X2396253Y-15731436D02*
X2405777Y-15740960D01*
X2405777Y-15740960D02*
X2396253Y-15750484D01*
X2396253Y-15750484D02*
X2386729Y-15740960D01*
X2386729Y-15740960D02*
X2396253Y-15731436D01*
X2396253Y-15731436D02*
X2396253Y-15750484D01*
X2577205Y-15617150D02*
X2577205Y-15750484D01*
X2529586Y-15540960D02*
X2481967Y-15683817D01*
X2481967Y-15683817D02*
X2605777Y-15683817D01*
X2720063Y-15550484D02*
X2739110Y-15550484D01*
X2739110Y-15550484D02*
X2758158Y-15560008D01*
X2758158Y-15560008D02*
X2767682Y-15569531D01*
X2767682Y-15569531D02*
X2777205Y-15588579D01*
X2777205Y-15588579D02*
X2786729Y-15626674D01*
X2786729Y-15626674D02*
X2786729Y-15674293D01*
X2786729Y-15674293D02*
X2777205Y-15712388D01*
X2777205Y-15712388D02*
X2767682Y-15731436D01*
X2767682Y-15731436D02*
X2758158Y-15740960D01*
X2758158Y-15740960D02*
X2739110Y-15750484D01*
X2739110Y-15750484D02*
X2720063Y-15750484D01*
X2720063Y-15750484D02*
X2701015Y-15740960D01*
X2701015Y-15740960D02*
X2691491Y-15731436D01*
X2691491Y-15731436D02*
X2681967Y-15712388D01*
X2681967Y-15712388D02*
X2672444Y-15674293D01*
X2672444Y-15674293D02*
X2672444Y-15626674D01*
X2672444Y-15626674D02*
X2681967Y-15588579D01*
X2681967Y-15588579D02*
X2691491Y-15569531D01*
X2691491Y-15569531D02*
X2701015Y-15560008D01*
X2701015Y-15560008D02*
X2720063Y-15550484D01*
X2910539Y-15550484D02*
X2929586Y-15550484D01*
X2929586Y-15550484D02*
X2948634Y-15560008D01*
X2948634Y-15560008D02*
X2958158Y-15569531D01*
X2958158Y-15569531D02*
X2967682Y-15588579D01*
X2967682Y-15588579D02*
X2977205Y-15626674D01*
X2977205Y-15626674D02*
X2977205Y-15674293D01*
X2977205Y-15674293D02*
X2967682Y-15712388D01*
X2967682Y-15712388D02*
X2958158Y-15731436D01*
X2958158Y-15731436D02*
X2948634Y-15740960D01*
X2948634Y-15740960D02*
X2929586Y-15750484D01*
X2929586Y-15750484D02*
X2910539Y-15750484D01*
X2910539Y-15750484D02*
X2891491Y-15740960D01*
X2891491Y-15740960D02*
X2881967Y-15731436D01*
X2881967Y-15731436D02*
X2872443Y-15712388D01*
X2872443Y-15712388D02*
X2862920Y-15674293D01*
X2862920Y-15674293D02*
X2862920Y-15626674D01*
X2862920Y-15626674D02*
X2872443Y-15588579D01*
X2872443Y-15588579D02*
X2881967Y-15569531D01*
X2881967Y-15569531D02*
X2891491Y-15560008D01*
X2891491Y-15560008D02*
X2910539Y-15550484D01*
X3062920Y-15750484D02*
X3062920Y-15617150D01*
X3062920Y-15636198D02*
X3072443Y-15626674D01*
X3072443Y-15626674D02*
X3091491Y-15617150D01*
X3091491Y-15617150D02*
X3120063Y-15617150D01*
X3120063Y-15617150D02*
X3139110Y-15626674D01*
X3139110Y-15626674D02*
X3148634Y-15645722D01*
X3148634Y-15645722D02*
X3148634Y-15750484D01*
X3148634Y-15645722D02*
X3158158Y-15626674D01*
X3158158Y-15626674D02*
X3177205Y-15617150D01*
X3177205Y-15617150D02*
X3205777Y-15617150D01*
X3205777Y-15617150D02*
X3224824Y-15626674D01*
X3224824Y-15626674D02*
X3234348Y-15645722D01*
X3234348Y-15645722D02*
X3234348Y-15750484D01*
X3329586Y-15750484D02*
X3329586Y-15617150D01*
X3329586Y-15636198D02*
X3339110Y-15626674D01*
X3339110Y-15626674D02*
X3358158Y-15617150D01*
X3358158Y-15617150D02*
X3386729Y-15617150D01*
X3386729Y-15617150D02*
X3405777Y-15626674D01*
X3405777Y-15626674D02*
X3415301Y-15645722D01*
X3415301Y-15645722D02*
X3415301Y-15750484D01*
X3415301Y-15645722D02*
X3424824Y-15626674D01*
X3424824Y-15626674D02*
X3443872Y-15617150D01*
X3443872Y-15617150D02*
X3472443Y-15617150D01*
X3472443Y-15617150D02*
X3491491Y-15626674D01*
X3491491Y-15626674D02*
X3501015Y-15645722D01*
X3501015Y-15645722D02*
X3501015Y-15750484D01*
X3891491Y-15540960D02*
X3720063Y-15798103D01*
X4148634Y-15550484D02*
X4167682Y-15550484D01*
X4167682Y-15550484D02*
X4186729Y-15560008D01*
X4186729Y-15560008D02*
X4196253Y-15569531D01*
X4196253Y-15569531D02*
X4205777Y-15588579D01*
X4205777Y-15588579D02*
X4215301Y-15626674D01*
X4215301Y-15626674D02*
X4215301Y-15674293D01*
X4215301Y-15674293D02*
X4205777Y-15712388D01*
X4205777Y-15712388D02*
X4196253Y-15731436D01*
X4196253Y-15731436D02*
X4186729Y-15740960D01*
X4186729Y-15740960D02*
X4167682Y-15750484D01*
X4167682Y-15750484D02*
X4148634Y-15750484D01*
X4148634Y-15750484D02*
X4129586Y-15740960D01*
X4129586Y-15740960D02*
X4120063Y-15731436D01*
X4120063Y-15731436D02*
X4110539Y-15712388D01*
X4110539Y-15712388D02*
X4101015Y-15674293D01*
X4101015Y-15674293D02*
X4101015Y-15626674D01*
X4101015Y-15626674D02*
X4110539Y-15588579D01*
X4110539Y-15588579D02*
X4120063Y-15569531D01*
X4120063Y-15569531D02*
X4129586Y-15560008D01*
X4129586Y-15560008D02*
X4148634Y-15550484D01*
X4301015Y-15731436D02*
X4310539Y-15740960D01*
X4310539Y-15740960D02*
X4301015Y-15750484D01*
X4301015Y-15750484D02*
X4291491Y-15740960D01*
X4291491Y-15740960D02*
X4301015Y-15731436D01*
X4301015Y-15731436D02*
X4301015Y-15750484D01*
X4434348Y-15550484D02*
X4453396Y-15550484D01*
X4453396Y-15550484D02*
X4472444Y-15560008D01*
X4472444Y-15560008D02*
X4481968Y-15569531D01*
X4481968Y-15569531D02*
X4491491Y-15588579D01*
X4491491Y-15588579D02*
X4501015Y-15626674D01*
X4501015Y-15626674D02*
X4501015Y-15674293D01*
X4501015Y-15674293D02*
X4491491Y-15712388D01*
X4491491Y-15712388D02*
X4481968Y-15731436D01*
X4481968Y-15731436D02*
X4472444Y-15740960D01*
X4472444Y-15740960D02*
X4453396Y-15750484D01*
X4453396Y-15750484D02*
X4434348Y-15750484D01*
X4434348Y-15750484D02*
X4415301Y-15740960D01*
X4415301Y-15740960D02*
X4405777Y-15731436D01*
X4405777Y-15731436D02*
X4396253Y-15712388D01*
X4396253Y-15712388D02*
X4386729Y-15674293D01*
X4386729Y-15674293D02*
X4386729Y-15626674D01*
X4386729Y-15626674D02*
X4396253Y-15588579D01*
X4396253Y-15588579D02*
X4405777Y-15569531D01*
X4405777Y-15569531D02*
X4415301Y-15560008D01*
X4415301Y-15560008D02*
X4434348Y-15550484D01*
X4691491Y-15750484D02*
X4577206Y-15750484D01*
X4634348Y-15750484D02*
X4634348Y-15550484D01*
X4634348Y-15550484D02*
X4615301Y-15579055D01*
X4615301Y-15579055D02*
X4596253Y-15598103D01*
X4596253Y-15598103D02*
X4577206Y-15607627D01*
X4872444Y-15550484D02*
X4777206Y-15550484D01*
X4777206Y-15550484D02*
X4767682Y-15645722D01*
X4767682Y-15645722D02*
X4777206Y-15636198D01*
X4777206Y-15636198D02*
X4796253Y-15626674D01*
X4796253Y-15626674D02*
X4843872Y-15626674D01*
X4843872Y-15626674D02*
X4862920Y-15636198D01*
X4862920Y-15636198D02*
X4872444Y-15645722D01*
X4872444Y-15645722D02*
X4881968Y-15664769D01*
X4881968Y-15664769D02*
X4881968Y-15712388D01*
X4881968Y-15712388D02*
X4872444Y-15731436D01*
X4872444Y-15731436D02*
X4862920Y-15740960D01*
X4862920Y-15740960D02*
X4843872Y-15750484D01*
X4843872Y-15750484D02*
X4796253Y-15750484D01*
X4796253Y-15750484D02*
X4777206Y-15740960D01*
X4777206Y-15740960D02*
X4767682Y-15731436D01*
X4948634Y-15550484D02*
X5081968Y-15550484D01*
X5081968Y-15550484D02*
X4996253Y-15750484D01*
X5148634Y-15550484D02*
X5148634Y-15588579D01*
X5224825Y-15550484D02*
X5224825Y-15588579D01*
X5520063Y-15826674D02*
X5510539Y-15817150D01*
X5510539Y-15817150D02*
X5491491Y-15788579D01*
X5491491Y-15788579D02*
X5481968Y-15769531D01*
X5481968Y-15769531D02*
X5472444Y-15740960D01*
X5472444Y-15740960D02*
X5462920Y-15693341D01*
X5462920Y-15693341D02*
X5462920Y-15655246D01*
X5462920Y-15655246D02*
X5472444Y-15607627D01*
X5472444Y-15607627D02*
X5481968Y-15579055D01*
X5481968Y-15579055D02*
X5491491Y-15560008D01*
X5491491Y-15560008D02*
X5510539Y-15531436D01*
X5510539Y-15531436D02*
X5520063Y-15521912D01*
X5577206Y-15550484D02*
X5701015Y-15550484D01*
X5701015Y-15550484D02*
X5634348Y-15626674D01*
X5634348Y-15626674D02*
X5662920Y-15626674D01*
X5662920Y-15626674D02*
X5681968Y-15636198D01*
X5681968Y-15636198D02*
X5691491Y-15645722D01*
X5691491Y-15645722D02*
X5701015Y-15664769D01*
X5701015Y-15664769D02*
X5701015Y-15712388D01*
X5701015Y-15712388D02*
X5691491Y-15731436D01*
X5691491Y-15731436D02*
X5681968Y-15740960D01*
X5681968Y-15740960D02*
X5662920Y-15750484D01*
X5662920Y-15750484D02*
X5605777Y-15750484D01*
X5605777Y-15750484D02*
X5586730Y-15740960D01*
X5586730Y-15740960D02*
X5577206Y-15731436D01*
X5824825Y-15550484D02*
X5843872Y-15550484D01*
X5843872Y-15550484D02*
X5862920Y-15560008D01*
X5862920Y-15560008D02*
X5872444Y-15569531D01*
X5872444Y-15569531D02*
X5881968Y-15588579D01*
X5881968Y-15588579D02*
X5891491Y-15626674D01*
X5891491Y-15626674D02*
X5891491Y-15674293D01*
X5891491Y-15674293D02*
X5881968Y-15712388D01*
X5881968Y-15712388D02*
X5872444Y-15731436D01*
X5872444Y-15731436D02*
X5862920Y-15740960D01*
X5862920Y-15740960D02*
X5843872Y-15750484D01*
X5843872Y-15750484D02*
X5824825Y-15750484D01*
X5824825Y-15750484D02*
X5805777Y-15740960D01*
X5805777Y-15740960D02*
X5796253Y-15731436D01*
X5796253Y-15731436D02*
X5786729Y-15712388D01*
X5786729Y-15712388D02*
X5777206Y-15674293D01*
X5777206Y-15674293D02*
X5777206Y-15626674D01*
X5777206Y-15626674D02*
X5786729Y-15588579D01*
X5786729Y-15588579D02*
X5796253Y-15569531D01*
X5796253Y-15569531D02*
X5805777Y-15560008D01*
X5805777Y-15560008D02*
X5824825Y-15550484D01*
X6062920Y-15617150D02*
X6062920Y-15750484D01*
X6015301Y-15540960D02*
X5967682Y-15683817D01*
X5967682Y-15683817D02*
X6091491Y-15683817D01*
X6320063Y-15750484D02*
X6320063Y-15550484D01*
X6405777Y-15750484D02*
X6405777Y-15645722D01*
X6405777Y-15645722D02*
X6396253Y-15626674D01*
X6396253Y-15626674D02*
X6377206Y-15617150D01*
X6377206Y-15617150D02*
X6348634Y-15617150D01*
X6348634Y-15617150D02*
X6329587Y-15626674D01*
X6329587Y-15626674D02*
X6320063Y-15636198D01*
X6529587Y-15750484D02*
X6510539Y-15740960D01*
X6510539Y-15740960D02*
X6501015Y-15731436D01*
X6501015Y-15731436D02*
X6491491Y-15712388D01*
X6491491Y-15712388D02*
X6491491Y-15655246D01*
X6491491Y-15655246D02*
X6501015Y-15636198D01*
X6501015Y-15636198D02*
X6510539Y-15626674D01*
X6510539Y-15626674D02*
X6529587Y-15617150D01*
X6529587Y-15617150D02*
X6558158Y-15617150D01*
X6558158Y-15617150D02*
X6577206Y-15626674D01*
X6577206Y-15626674D02*
X6586730Y-15636198D01*
X6586730Y-15636198D02*
X6596253Y-15655246D01*
X6596253Y-15655246D02*
X6596253Y-15712388D01*
X6596253Y-15712388D02*
X6586730Y-15731436D01*
X6586730Y-15731436D02*
X6577206Y-15740960D01*
X6577206Y-15740960D02*
X6558158Y-15750484D01*
X6558158Y-15750484D02*
X6529587Y-15750484D01*
X6710539Y-15750484D02*
X6691491Y-15740960D01*
X6691491Y-15740960D02*
X6681968Y-15721912D01*
X6681968Y-15721912D02*
X6681968Y-15550484D01*
X6862920Y-15740960D02*
X6843872Y-15750484D01*
X6843872Y-15750484D02*
X6805777Y-15750484D01*
X6805777Y-15750484D02*
X6786730Y-15740960D01*
X6786730Y-15740960D02*
X6777206Y-15721912D01*
X6777206Y-15721912D02*
X6777206Y-15645722D01*
X6777206Y-15645722D02*
X6786730Y-15626674D01*
X6786730Y-15626674D02*
X6805777Y-15617150D01*
X6805777Y-15617150D02*
X6843872Y-15617150D01*
X6843872Y-15617150D02*
X6862920Y-15626674D01*
X6862920Y-15626674D02*
X6872444Y-15645722D01*
X6872444Y-15645722D02*
X6872444Y-15664769D01*
X6872444Y-15664769D02*
X6777206Y-15683817D01*
X6948634Y-15740960D02*
X6967682Y-15750484D01*
X6967682Y-15750484D02*
X7005777Y-15750484D01*
X7005777Y-15750484D02*
X7024825Y-15740960D01*
X7024825Y-15740960D02*
X7034349Y-15721912D01*
X7034349Y-15721912D02*
X7034349Y-15712388D01*
X7034349Y-15712388D02*
X7024825Y-15693341D01*
X7024825Y-15693341D02*
X7005777Y-15683817D01*
X7005777Y-15683817D02*
X6977206Y-15683817D01*
X6977206Y-15683817D02*
X6958158Y-15674293D01*
X6958158Y-15674293D02*
X6948634Y-15655246D01*
X6948634Y-15655246D02*
X6948634Y-15645722D01*
X6948634Y-15645722D02*
X6958158Y-15626674D01*
X6958158Y-15626674D02*
X6977206Y-15617150D01*
X6977206Y-15617150D02*
X7005777Y-15617150D01*
X7005777Y-15617150D02*
X7024825Y-15626674D01*
X7101015Y-15826674D02*
X7110539Y-15817150D01*
X7110539Y-15817150D02*
X7129587Y-15788579D01*
X7129587Y-15788579D02*
X7139111Y-15769531D01*
X7139111Y-15769531D02*
X7148634Y-15740960D01*
X7148634Y-15740960D02*
X7158158Y-15693341D01*
X7158158Y-15693341D02*
X7158158Y-15655246D01*
X7158158Y-15655246D02*
X7148634Y-15607627D01*
X7148634Y-15607627D02*
X7139111Y-15579055D01*
X7139111Y-15579055D02*
X7129587Y-15560008D01*
X7129587Y-15560008D02*
X7110539Y-15531436D01*
X7110539Y-15531436D02*
X7101015Y-15521912D01*
D11*
X1900000Y-15878000D02*
X1900000Y-15968000D01*
X1855000Y-15923000D02*
X1945000Y-15923000D01*
D10*
X2243872Y-15814484D02*
X2262920Y-15814484D01*
X2262920Y-15814484D02*
X2281967Y-15824008D01*
X2281967Y-15824008D02*
X2291491Y-15833531D01*
X2291491Y-15833531D02*
X2301015Y-15852579D01*
X2301015Y-15852579D02*
X2310539Y-15890674D01*
X2310539Y-15890674D02*
X2310539Y-15938293D01*
X2310539Y-15938293D02*
X2301015Y-15976388D01*
X2301015Y-15976388D02*
X2291491Y-15995436D01*
X2291491Y-15995436D02*
X2281967Y-16004960D01*
X2281967Y-16004960D02*
X2262920Y-16014484D01*
X2262920Y-16014484D02*
X2243872Y-16014484D01*
X2243872Y-16014484D02*
X2224824Y-16004960D01*
X2224824Y-16004960D02*
X2215301Y-15995436D01*
X2215301Y-15995436D02*
X2205777Y-15976388D01*
X2205777Y-15976388D02*
X2196253Y-15938293D01*
X2196253Y-15938293D02*
X2196253Y-15890674D01*
X2196253Y-15890674D02*
X2205777Y-15852579D01*
X2205777Y-15852579D02*
X2215301Y-15833531D01*
X2215301Y-15833531D02*
X2224824Y-15824008D01*
X2224824Y-15824008D02*
X2243872Y-15814484D01*
X2396253Y-15995436D02*
X2405777Y-16004960D01*
X2405777Y-16004960D02*
X2396253Y-16014484D01*
X2396253Y-16014484D02*
X2386729Y-16004960D01*
X2386729Y-16004960D02*
X2396253Y-15995436D01*
X2396253Y-15995436D02*
X2396253Y-16014484D01*
X2501015Y-16014484D02*
X2539110Y-16014484D01*
X2539110Y-16014484D02*
X2558158Y-16004960D01*
X2558158Y-16004960D02*
X2567682Y-15995436D01*
X2567682Y-15995436D02*
X2586729Y-15966865D01*
X2586729Y-15966865D02*
X2596253Y-15928769D01*
X2596253Y-15928769D02*
X2596253Y-15852579D01*
X2596253Y-15852579D02*
X2586729Y-15833531D01*
X2586729Y-15833531D02*
X2577205Y-15824008D01*
X2577205Y-15824008D02*
X2558158Y-15814484D01*
X2558158Y-15814484D02*
X2520063Y-15814484D01*
X2520063Y-15814484D02*
X2501015Y-15824008D01*
X2501015Y-15824008D02*
X2491491Y-15833531D01*
X2491491Y-15833531D02*
X2481967Y-15852579D01*
X2481967Y-15852579D02*
X2481967Y-15900198D01*
X2481967Y-15900198D02*
X2491491Y-15919246D01*
X2491491Y-15919246D02*
X2501015Y-15928769D01*
X2501015Y-15928769D02*
X2520063Y-15938293D01*
X2520063Y-15938293D02*
X2558158Y-15938293D01*
X2558158Y-15938293D02*
X2577205Y-15928769D01*
X2577205Y-15928769D02*
X2586729Y-15919246D01*
X2586729Y-15919246D02*
X2596253Y-15900198D01*
X2720063Y-15814484D02*
X2739110Y-15814484D01*
X2739110Y-15814484D02*
X2758158Y-15824008D01*
X2758158Y-15824008D02*
X2767682Y-15833531D01*
X2767682Y-15833531D02*
X2777205Y-15852579D01*
X2777205Y-15852579D02*
X2786729Y-15890674D01*
X2786729Y-15890674D02*
X2786729Y-15938293D01*
X2786729Y-15938293D02*
X2777205Y-15976388D01*
X2777205Y-15976388D02*
X2767682Y-15995436D01*
X2767682Y-15995436D02*
X2758158Y-16004960D01*
X2758158Y-16004960D02*
X2739110Y-16014484D01*
X2739110Y-16014484D02*
X2720063Y-16014484D01*
X2720063Y-16014484D02*
X2701015Y-16004960D01*
X2701015Y-16004960D02*
X2691491Y-15995436D01*
X2691491Y-15995436D02*
X2681967Y-15976388D01*
X2681967Y-15976388D02*
X2672444Y-15938293D01*
X2672444Y-15938293D02*
X2672444Y-15890674D01*
X2672444Y-15890674D02*
X2681967Y-15852579D01*
X2681967Y-15852579D02*
X2691491Y-15833531D01*
X2691491Y-15833531D02*
X2701015Y-15824008D01*
X2701015Y-15824008D02*
X2720063Y-15814484D01*
X2910539Y-15814484D02*
X2929586Y-15814484D01*
X2929586Y-15814484D02*
X2948634Y-15824008D01*
X2948634Y-15824008D02*
X2958158Y-15833531D01*
X2958158Y-15833531D02*
X2967682Y-15852579D01*
X2967682Y-15852579D02*
X2977205Y-15890674D01*
X2977205Y-15890674D02*
X2977205Y-15938293D01*
X2977205Y-15938293D02*
X2967682Y-15976388D01*
X2967682Y-15976388D02*
X2958158Y-15995436D01*
X2958158Y-15995436D02*
X2948634Y-16004960D01*
X2948634Y-16004960D02*
X2929586Y-16014484D01*
X2929586Y-16014484D02*
X2910539Y-16014484D01*
X2910539Y-16014484D02*
X2891491Y-16004960D01*
X2891491Y-16004960D02*
X2881967Y-15995436D01*
X2881967Y-15995436D02*
X2872443Y-15976388D01*
X2872443Y-15976388D02*
X2862920Y-15938293D01*
X2862920Y-15938293D02*
X2862920Y-15890674D01*
X2862920Y-15890674D02*
X2872443Y-15852579D01*
X2872443Y-15852579D02*
X2881967Y-15833531D01*
X2881967Y-15833531D02*
X2891491Y-15824008D01*
X2891491Y-15824008D02*
X2910539Y-15814484D01*
X3062920Y-16014484D02*
X3062920Y-15881150D01*
X3062920Y-15900198D02*
X3072443Y-15890674D01*
X3072443Y-15890674D02*
X3091491Y-15881150D01*
X3091491Y-15881150D02*
X3120063Y-15881150D01*
X3120063Y-15881150D02*
X3139110Y-15890674D01*
X3139110Y-15890674D02*
X3148634Y-15909722D01*
X3148634Y-15909722D02*
X3148634Y-16014484D01*
X3148634Y-15909722D02*
X3158158Y-15890674D01*
X3158158Y-15890674D02*
X3177205Y-15881150D01*
X3177205Y-15881150D02*
X3205777Y-15881150D01*
X3205777Y-15881150D02*
X3224824Y-15890674D01*
X3224824Y-15890674D02*
X3234348Y-15909722D01*
X3234348Y-15909722D02*
X3234348Y-16014484D01*
X3329586Y-16014484D02*
X3329586Y-15881150D01*
X3329586Y-15900198D02*
X3339110Y-15890674D01*
X3339110Y-15890674D02*
X3358158Y-15881150D01*
X3358158Y-15881150D02*
X3386729Y-15881150D01*
X3386729Y-15881150D02*
X3405777Y-15890674D01*
X3405777Y-15890674D02*
X3415301Y-15909722D01*
X3415301Y-15909722D02*
X3415301Y-16014484D01*
X3415301Y-15909722D02*
X3424824Y-15890674D01*
X3424824Y-15890674D02*
X3443872Y-15881150D01*
X3443872Y-15881150D02*
X3472443Y-15881150D01*
X3472443Y-15881150D02*
X3491491Y-15890674D01*
X3491491Y-15890674D02*
X3501015Y-15909722D01*
X3501015Y-15909722D02*
X3501015Y-16014484D01*
X3891491Y-15804960D02*
X3720063Y-16062103D01*
X4148634Y-15814484D02*
X4167682Y-15814484D01*
X4167682Y-15814484D02*
X4186729Y-15824008D01*
X4186729Y-15824008D02*
X4196253Y-15833531D01*
X4196253Y-15833531D02*
X4205777Y-15852579D01*
X4205777Y-15852579D02*
X4215301Y-15890674D01*
X4215301Y-15890674D02*
X4215301Y-15938293D01*
X4215301Y-15938293D02*
X4205777Y-15976388D01*
X4205777Y-15976388D02*
X4196253Y-15995436D01*
X4196253Y-15995436D02*
X4186729Y-16004960D01*
X4186729Y-16004960D02*
X4167682Y-16014484D01*
X4167682Y-16014484D02*
X4148634Y-16014484D01*
X4148634Y-16014484D02*
X4129586Y-16004960D01*
X4129586Y-16004960D02*
X4120063Y-15995436D01*
X4120063Y-15995436D02*
X4110539Y-15976388D01*
X4110539Y-15976388D02*
X4101015Y-15938293D01*
X4101015Y-15938293D02*
X4101015Y-15890674D01*
X4101015Y-15890674D02*
X4110539Y-15852579D01*
X4110539Y-15852579D02*
X4120063Y-15833531D01*
X4120063Y-15833531D02*
X4129586Y-15824008D01*
X4129586Y-15824008D02*
X4148634Y-15814484D01*
X4301015Y-15995436D02*
X4310539Y-16004960D01*
X4310539Y-16004960D02*
X4301015Y-16014484D01*
X4301015Y-16014484D02*
X4291491Y-16004960D01*
X4291491Y-16004960D02*
X4301015Y-15995436D01*
X4301015Y-15995436D02*
X4301015Y-16014484D01*
X4434348Y-15814484D02*
X4453396Y-15814484D01*
X4453396Y-15814484D02*
X4472444Y-15824008D01*
X4472444Y-15824008D02*
X4481968Y-15833531D01*
X4481968Y-15833531D02*
X4491491Y-15852579D01*
X4491491Y-15852579D02*
X4501015Y-15890674D01*
X4501015Y-15890674D02*
X4501015Y-15938293D01*
X4501015Y-15938293D02*
X4491491Y-15976388D01*
X4491491Y-15976388D02*
X4481968Y-15995436D01*
X4481968Y-15995436D02*
X4472444Y-16004960D01*
X4472444Y-16004960D02*
X4453396Y-16014484D01*
X4453396Y-16014484D02*
X4434348Y-16014484D01*
X4434348Y-16014484D02*
X4415301Y-16004960D01*
X4415301Y-16004960D02*
X4405777Y-15995436D01*
X4405777Y-15995436D02*
X4396253Y-15976388D01*
X4396253Y-15976388D02*
X4386729Y-15938293D01*
X4386729Y-15938293D02*
X4386729Y-15890674D01*
X4386729Y-15890674D02*
X4396253Y-15852579D01*
X4396253Y-15852579D02*
X4405777Y-15833531D01*
X4405777Y-15833531D02*
X4415301Y-15824008D01*
X4415301Y-15824008D02*
X4434348Y-15814484D01*
X4567682Y-15814484D02*
X4691491Y-15814484D01*
X4691491Y-15814484D02*
X4624825Y-15890674D01*
X4624825Y-15890674D02*
X4653396Y-15890674D01*
X4653396Y-15890674D02*
X4672444Y-15900198D01*
X4672444Y-15900198D02*
X4681968Y-15909722D01*
X4681968Y-15909722D02*
X4691491Y-15928769D01*
X4691491Y-15928769D02*
X4691491Y-15976388D01*
X4691491Y-15976388D02*
X4681968Y-15995436D01*
X4681968Y-15995436D02*
X4672444Y-16004960D01*
X4672444Y-16004960D02*
X4653396Y-16014484D01*
X4653396Y-16014484D02*
X4596253Y-16014484D01*
X4596253Y-16014484D02*
X4577206Y-16004960D01*
X4577206Y-16004960D02*
X4567682Y-15995436D01*
X4872444Y-15814484D02*
X4777206Y-15814484D01*
X4777206Y-15814484D02*
X4767682Y-15909722D01*
X4767682Y-15909722D02*
X4777206Y-15900198D01*
X4777206Y-15900198D02*
X4796253Y-15890674D01*
X4796253Y-15890674D02*
X4843872Y-15890674D01*
X4843872Y-15890674D02*
X4862920Y-15900198D01*
X4862920Y-15900198D02*
X4872444Y-15909722D01*
X4872444Y-15909722D02*
X4881968Y-15928769D01*
X4881968Y-15928769D02*
X4881968Y-15976388D01*
X4881968Y-15976388D02*
X4872444Y-15995436D01*
X4872444Y-15995436D02*
X4862920Y-16004960D01*
X4862920Y-16004960D02*
X4843872Y-16014484D01*
X4843872Y-16014484D02*
X4796253Y-16014484D01*
X4796253Y-16014484D02*
X4777206Y-16004960D01*
X4777206Y-16004960D02*
X4767682Y-15995436D01*
X5053396Y-15881150D02*
X5053396Y-16014484D01*
X5005777Y-15804960D02*
X4958158Y-15947817D01*
X4958158Y-15947817D02*
X5081968Y-15947817D01*
X5148634Y-15814484D02*
X5148634Y-15852579D01*
X5224825Y-15814484D02*
X5224825Y-15852579D01*
X5520063Y-16090674D02*
X5510539Y-16081150D01*
X5510539Y-16081150D02*
X5491491Y-16052579D01*
X5491491Y-16052579D02*
X5481968Y-16033531D01*
X5481968Y-16033531D02*
X5472444Y-16004960D01*
X5472444Y-16004960D02*
X5462920Y-15957341D01*
X5462920Y-15957341D02*
X5462920Y-15919246D01*
X5462920Y-15919246D02*
X5472444Y-15871627D01*
X5472444Y-15871627D02*
X5481968Y-15843055D01*
X5481968Y-15843055D02*
X5491491Y-15824008D01*
X5491491Y-15824008D02*
X5510539Y-15795436D01*
X5510539Y-15795436D02*
X5520063Y-15785912D01*
X5681968Y-15814484D02*
X5643872Y-15814484D01*
X5643872Y-15814484D02*
X5624825Y-15824008D01*
X5624825Y-15824008D02*
X5615301Y-15833531D01*
X5615301Y-15833531D02*
X5596253Y-15862103D01*
X5596253Y-15862103D02*
X5586730Y-15900198D01*
X5586730Y-15900198D02*
X5586730Y-15976388D01*
X5586730Y-15976388D02*
X5596253Y-15995436D01*
X5596253Y-15995436D02*
X5605777Y-16004960D01*
X5605777Y-16004960D02*
X5624825Y-16014484D01*
X5624825Y-16014484D02*
X5662920Y-16014484D01*
X5662920Y-16014484D02*
X5681968Y-16004960D01*
X5681968Y-16004960D02*
X5691491Y-15995436D01*
X5691491Y-15995436D02*
X5701015Y-15976388D01*
X5701015Y-15976388D02*
X5701015Y-15928769D01*
X5701015Y-15928769D02*
X5691491Y-15909722D01*
X5691491Y-15909722D02*
X5681968Y-15900198D01*
X5681968Y-15900198D02*
X5662920Y-15890674D01*
X5662920Y-15890674D02*
X5624825Y-15890674D01*
X5624825Y-15890674D02*
X5605777Y-15900198D01*
X5605777Y-15900198D02*
X5596253Y-15909722D01*
X5596253Y-15909722D02*
X5586730Y-15928769D01*
X5939110Y-16014484D02*
X5939110Y-15814484D01*
X6024825Y-16014484D02*
X6024825Y-15909722D01*
X6024825Y-15909722D02*
X6015301Y-15890674D01*
X6015301Y-15890674D02*
X5996253Y-15881150D01*
X5996253Y-15881150D02*
X5967682Y-15881150D01*
X5967682Y-15881150D02*
X5948634Y-15890674D01*
X5948634Y-15890674D02*
X5939110Y-15900198D01*
X6148634Y-16014484D02*
X6129587Y-16004960D01*
X6129587Y-16004960D02*
X6120063Y-15995436D01*
X6120063Y-15995436D02*
X6110539Y-15976388D01*
X6110539Y-15976388D02*
X6110539Y-15919246D01*
X6110539Y-15919246D02*
X6120063Y-15900198D01*
X6120063Y-15900198D02*
X6129587Y-15890674D01*
X6129587Y-15890674D02*
X6148634Y-15881150D01*
X6148634Y-15881150D02*
X6177206Y-15881150D01*
X6177206Y-15881150D02*
X6196253Y-15890674D01*
X6196253Y-15890674D02*
X6205777Y-15900198D01*
X6205777Y-15900198D02*
X6215301Y-15919246D01*
X6215301Y-15919246D02*
X6215301Y-15976388D01*
X6215301Y-15976388D02*
X6205777Y-15995436D01*
X6205777Y-15995436D02*
X6196253Y-16004960D01*
X6196253Y-16004960D02*
X6177206Y-16014484D01*
X6177206Y-16014484D02*
X6148634Y-16014484D01*
X6329587Y-16014484D02*
X6310539Y-16004960D01*
X6310539Y-16004960D02*
X6301015Y-15985912D01*
X6301015Y-15985912D02*
X6301015Y-15814484D01*
X6481968Y-16004960D02*
X6462920Y-16014484D01*
X6462920Y-16014484D02*
X6424825Y-16014484D01*
X6424825Y-16014484D02*
X6405777Y-16004960D01*
X6405777Y-16004960D02*
X6396253Y-15985912D01*
X6396253Y-15985912D02*
X6396253Y-15909722D01*
X6396253Y-15909722D02*
X6405777Y-15890674D01*
X6405777Y-15890674D02*
X6424825Y-15881150D01*
X6424825Y-15881150D02*
X6462920Y-15881150D01*
X6462920Y-15881150D02*
X6481968Y-15890674D01*
X6481968Y-15890674D02*
X6491491Y-15909722D01*
X6491491Y-15909722D02*
X6491491Y-15928769D01*
X6491491Y-15928769D02*
X6396253Y-15947817D01*
X6567682Y-16004960D02*
X6586730Y-16014484D01*
X6586730Y-16014484D02*
X6624825Y-16014484D01*
X6624825Y-16014484D02*
X6643872Y-16004960D01*
X6643872Y-16004960D02*
X6653396Y-15985912D01*
X6653396Y-15985912D02*
X6653396Y-15976388D01*
X6653396Y-15976388D02*
X6643872Y-15957341D01*
X6643872Y-15957341D02*
X6624825Y-15947817D01*
X6624825Y-15947817D02*
X6596253Y-15947817D01*
X6596253Y-15947817D02*
X6577206Y-15938293D01*
X6577206Y-15938293D02*
X6567682Y-15919246D01*
X6567682Y-15919246D02*
X6567682Y-15909722D01*
X6567682Y-15909722D02*
X6577206Y-15890674D01*
X6577206Y-15890674D02*
X6596253Y-15881150D01*
X6596253Y-15881150D02*
X6624825Y-15881150D01*
X6624825Y-15881150D02*
X6643872Y-15890674D01*
X6720063Y-16090674D02*
X6729587Y-16081150D01*
X6729587Y-16081150D02*
X6748634Y-16052579D01*
X6748634Y-16052579D02*
X6758158Y-16033531D01*
X6758158Y-16033531D02*
X6767682Y-16004960D01*
X6767682Y-16004960D02*
X6777206Y-15957341D01*
X6777206Y-15957341D02*
X6777206Y-15919246D01*
X6777206Y-15919246D02*
X6767682Y-15871627D01*
X6767682Y-15871627D02*
X6758158Y-15843055D01*
X6758158Y-15843055D02*
X6748634Y-15824008D01*
X6748634Y-15824008D02*
X6729587Y-15795436D01*
X6729587Y-15795436D02*
X6720063Y-15785912D01*
D11*
X1930356Y-16222356D02*
X1930356Y-16151644D01*
X1859644Y-16151644D01*
X1859644Y-16222356D01*
X1930356Y-16222356D01*
D10*
X2310539Y-16278484D02*
X2196253Y-16278484D01*
X2253396Y-16278484D02*
X2253396Y-16078484D01*
X2253396Y-16078484D02*
X2234348Y-16107055D01*
X2234348Y-16107055D02*
X2215301Y-16126103D01*
X2215301Y-16126103D02*
X2196253Y-16135627D01*
X2396253Y-16259436D02*
X2405777Y-16268960D01*
X2405777Y-16268960D02*
X2396253Y-16278484D01*
X2396253Y-16278484D02*
X2386729Y-16268960D01*
X2386729Y-16268960D02*
X2396253Y-16259436D01*
X2396253Y-16259436D02*
X2396253Y-16278484D01*
X2529586Y-16078484D02*
X2548634Y-16078484D01*
X2548634Y-16078484D02*
X2567682Y-16088008D01*
X2567682Y-16088008D02*
X2577205Y-16097531D01*
X2577205Y-16097531D02*
X2586729Y-16116579D01*
X2586729Y-16116579D02*
X2596253Y-16154674D01*
X2596253Y-16154674D02*
X2596253Y-16202293D01*
X2596253Y-16202293D02*
X2586729Y-16240388D01*
X2586729Y-16240388D02*
X2577205Y-16259436D01*
X2577205Y-16259436D02*
X2567682Y-16268960D01*
X2567682Y-16268960D02*
X2548634Y-16278484D01*
X2548634Y-16278484D02*
X2529586Y-16278484D01*
X2529586Y-16278484D02*
X2510539Y-16268960D01*
X2510539Y-16268960D02*
X2501015Y-16259436D01*
X2501015Y-16259436D02*
X2491491Y-16240388D01*
X2491491Y-16240388D02*
X2481967Y-16202293D01*
X2481967Y-16202293D02*
X2481967Y-16154674D01*
X2481967Y-16154674D02*
X2491491Y-16116579D01*
X2491491Y-16116579D02*
X2501015Y-16097531D01*
X2501015Y-16097531D02*
X2510539Y-16088008D01*
X2510539Y-16088008D02*
X2529586Y-16078484D01*
X2720063Y-16078484D02*
X2739110Y-16078484D01*
X2739110Y-16078484D02*
X2758158Y-16088008D01*
X2758158Y-16088008D02*
X2767682Y-16097531D01*
X2767682Y-16097531D02*
X2777205Y-16116579D01*
X2777205Y-16116579D02*
X2786729Y-16154674D01*
X2786729Y-16154674D02*
X2786729Y-16202293D01*
X2786729Y-16202293D02*
X2777205Y-16240388D01*
X2777205Y-16240388D02*
X2767682Y-16259436D01*
X2767682Y-16259436D02*
X2758158Y-16268960D01*
X2758158Y-16268960D02*
X2739110Y-16278484D01*
X2739110Y-16278484D02*
X2720063Y-16278484D01*
X2720063Y-16278484D02*
X2701015Y-16268960D01*
X2701015Y-16268960D02*
X2691491Y-16259436D01*
X2691491Y-16259436D02*
X2681967Y-16240388D01*
X2681967Y-16240388D02*
X2672444Y-16202293D01*
X2672444Y-16202293D02*
X2672444Y-16154674D01*
X2672444Y-16154674D02*
X2681967Y-16116579D01*
X2681967Y-16116579D02*
X2691491Y-16097531D01*
X2691491Y-16097531D02*
X2701015Y-16088008D01*
X2701015Y-16088008D02*
X2720063Y-16078484D01*
X2910539Y-16078484D02*
X2929586Y-16078484D01*
X2929586Y-16078484D02*
X2948634Y-16088008D01*
X2948634Y-16088008D02*
X2958158Y-16097531D01*
X2958158Y-16097531D02*
X2967682Y-16116579D01*
X2967682Y-16116579D02*
X2977205Y-16154674D01*
X2977205Y-16154674D02*
X2977205Y-16202293D01*
X2977205Y-16202293D02*
X2967682Y-16240388D01*
X2967682Y-16240388D02*
X2958158Y-16259436D01*
X2958158Y-16259436D02*
X2948634Y-16268960D01*
X2948634Y-16268960D02*
X2929586Y-16278484D01*
X2929586Y-16278484D02*
X2910539Y-16278484D01*
X2910539Y-16278484D02*
X2891491Y-16268960D01*
X2891491Y-16268960D02*
X2881967Y-16259436D01*
X2881967Y-16259436D02*
X2872443Y-16240388D01*
X2872443Y-16240388D02*
X2862920Y-16202293D01*
X2862920Y-16202293D02*
X2862920Y-16154674D01*
X2862920Y-16154674D02*
X2872443Y-16116579D01*
X2872443Y-16116579D02*
X2881967Y-16097531D01*
X2881967Y-16097531D02*
X2891491Y-16088008D01*
X2891491Y-16088008D02*
X2910539Y-16078484D01*
X3062920Y-16278484D02*
X3062920Y-16145150D01*
X3062920Y-16164198D02*
X3072443Y-16154674D01*
X3072443Y-16154674D02*
X3091491Y-16145150D01*
X3091491Y-16145150D02*
X3120063Y-16145150D01*
X3120063Y-16145150D02*
X3139110Y-16154674D01*
X3139110Y-16154674D02*
X3148634Y-16173722D01*
X3148634Y-16173722D02*
X3148634Y-16278484D01*
X3148634Y-16173722D02*
X3158158Y-16154674D01*
X3158158Y-16154674D02*
X3177205Y-16145150D01*
X3177205Y-16145150D02*
X3205777Y-16145150D01*
X3205777Y-16145150D02*
X3224824Y-16154674D01*
X3224824Y-16154674D02*
X3234348Y-16173722D01*
X3234348Y-16173722D02*
X3234348Y-16278484D01*
X3329586Y-16278484D02*
X3329586Y-16145150D01*
X3329586Y-16164198D02*
X3339110Y-16154674D01*
X3339110Y-16154674D02*
X3358158Y-16145150D01*
X3358158Y-16145150D02*
X3386729Y-16145150D01*
X3386729Y-16145150D02*
X3405777Y-16154674D01*
X3405777Y-16154674D02*
X3415301Y-16173722D01*
X3415301Y-16173722D02*
X3415301Y-16278484D01*
X3415301Y-16173722D02*
X3424824Y-16154674D01*
X3424824Y-16154674D02*
X3443872Y-16145150D01*
X3443872Y-16145150D02*
X3472443Y-16145150D01*
X3472443Y-16145150D02*
X3491491Y-16154674D01*
X3491491Y-16154674D02*
X3501015Y-16173722D01*
X3501015Y-16173722D02*
X3501015Y-16278484D01*
X3891491Y-16068960D02*
X3720063Y-16326103D01*
X4148634Y-16078484D02*
X4167682Y-16078484D01*
X4167682Y-16078484D02*
X4186729Y-16088008D01*
X4186729Y-16088008D02*
X4196253Y-16097531D01*
X4196253Y-16097531D02*
X4205777Y-16116579D01*
X4205777Y-16116579D02*
X4215301Y-16154674D01*
X4215301Y-16154674D02*
X4215301Y-16202293D01*
X4215301Y-16202293D02*
X4205777Y-16240388D01*
X4205777Y-16240388D02*
X4196253Y-16259436D01*
X4196253Y-16259436D02*
X4186729Y-16268960D01*
X4186729Y-16268960D02*
X4167682Y-16278484D01*
X4167682Y-16278484D02*
X4148634Y-16278484D01*
X4148634Y-16278484D02*
X4129586Y-16268960D01*
X4129586Y-16268960D02*
X4120063Y-16259436D01*
X4120063Y-16259436D02*
X4110539Y-16240388D01*
X4110539Y-16240388D02*
X4101015Y-16202293D01*
X4101015Y-16202293D02*
X4101015Y-16154674D01*
X4101015Y-16154674D02*
X4110539Y-16116579D01*
X4110539Y-16116579D02*
X4120063Y-16097531D01*
X4120063Y-16097531D02*
X4129586Y-16088008D01*
X4129586Y-16088008D02*
X4148634Y-16078484D01*
X4301015Y-16259436D02*
X4310539Y-16268960D01*
X4310539Y-16268960D02*
X4301015Y-16278484D01*
X4301015Y-16278484D02*
X4291491Y-16268960D01*
X4291491Y-16268960D02*
X4301015Y-16259436D01*
X4301015Y-16259436D02*
X4301015Y-16278484D01*
X4434348Y-16078484D02*
X4453396Y-16078484D01*
X4453396Y-16078484D02*
X4472444Y-16088008D01*
X4472444Y-16088008D02*
X4481968Y-16097531D01*
X4481968Y-16097531D02*
X4491491Y-16116579D01*
X4491491Y-16116579D02*
X4501015Y-16154674D01*
X4501015Y-16154674D02*
X4501015Y-16202293D01*
X4501015Y-16202293D02*
X4491491Y-16240388D01*
X4491491Y-16240388D02*
X4481968Y-16259436D01*
X4481968Y-16259436D02*
X4472444Y-16268960D01*
X4472444Y-16268960D02*
X4453396Y-16278484D01*
X4453396Y-16278484D02*
X4434348Y-16278484D01*
X4434348Y-16278484D02*
X4415301Y-16268960D01*
X4415301Y-16268960D02*
X4405777Y-16259436D01*
X4405777Y-16259436D02*
X4396253Y-16240388D01*
X4396253Y-16240388D02*
X4386729Y-16202293D01*
X4386729Y-16202293D02*
X4386729Y-16154674D01*
X4386729Y-16154674D02*
X4396253Y-16116579D01*
X4396253Y-16116579D02*
X4405777Y-16097531D01*
X4405777Y-16097531D02*
X4415301Y-16088008D01*
X4415301Y-16088008D02*
X4434348Y-16078484D01*
X4567682Y-16078484D02*
X4691491Y-16078484D01*
X4691491Y-16078484D02*
X4624825Y-16154674D01*
X4624825Y-16154674D02*
X4653396Y-16154674D01*
X4653396Y-16154674D02*
X4672444Y-16164198D01*
X4672444Y-16164198D02*
X4681968Y-16173722D01*
X4681968Y-16173722D02*
X4691491Y-16192769D01*
X4691491Y-16192769D02*
X4691491Y-16240388D01*
X4691491Y-16240388D02*
X4681968Y-16259436D01*
X4681968Y-16259436D02*
X4672444Y-16268960D01*
X4672444Y-16268960D02*
X4653396Y-16278484D01*
X4653396Y-16278484D02*
X4596253Y-16278484D01*
X4596253Y-16278484D02*
X4577206Y-16268960D01*
X4577206Y-16268960D02*
X4567682Y-16259436D01*
X4786729Y-16278484D02*
X4824825Y-16278484D01*
X4824825Y-16278484D02*
X4843872Y-16268960D01*
X4843872Y-16268960D02*
X4853396Y-16259436D01*
X4853396Y-16259436D02*
X4872444Y-16230865D01*
X4872444Y-16230865D02*
X4881968Y-16192769D01*
X4881968Y-16192769D02*
X4881968Y-16116579D01*
X4881968Y-16116579D02*
X4872444Y-16097531D01*
X4872444Y-16097531D02*
X4862920Y-16088008D01*
X4862920Y-16088008D02*
X4843872Y-16078484D01*
X4843872Y-16078484D02*
X4805777Y-16078484D01*
X4805777Y-16078484D02*
X4786729Y-16088008D01*
X4786729Y-16088008D02*
X4777206Y-16097531D01*
X4777206Y-16097531D02*
X4767682Y-16116579D01*
X4767682Y-16116579D02*
X4767682Y-16164198D01*
X4767682Y-16164198D02*
X4777206Y-16183246D01*
X4777206Y-16183246D02*
X4786729Y-16192769D01*
X4786729Y-16192769D02*
X4805777Y-16202293D01*
X4805777Y-16202293D02*
X4843872Y-16202293D01*
X4843872Y-16202293D02*
X4862920Y-16192769D01*
X4862920Y-16192769D02*
X4872444Y-16183246D01*
X4872444Y-16183246D02*
X4881968Y-16164198D01*
X5053396Y-16145150D02*
X5053396Y-16278484D01*
X5005777Y-16068960D02*
X4958158Y-16211817D01*
X4958158Y-16211817D02*
X5081968Y-16211817D01*
X5148634Y-16078484D02*
X5148634Y-16116579D01*
X5224825Y-16078484D02*
X5224825Y-16116579D01*
X5520063Y-16354674D02*
X5510539Y-16345150D01*
X5510539Y-16345150D02*
X5491491Y-16316579D01*
X5491491Y-16316579D02*
X5481968Y-16297531D01*
X5481968Y-16297531D02*
X5472444Y-16268960D01*
X5472444Y-16268960D02*
X5462920Y-16221341D01*
X5462920Y-16221341D02*
X5462920Y-16183246D01*
X5462920Y-16183246D02*
X5472444Y-16135627D01*
X5472444Y-16135627D02*
X5481968Y-16107055D01*
X5481968Y-16107055D02*
X5491491Y-16088008D01*
X5491491Y-16088008D02*
X5510539Y-16059436D01*
X5510539Y-16059436D02*
X5520063Y-16049912D01*
X5701015Y-16278484D02*
X5586730Y-16278484D01*
X5643872Y-16278484D02*
X5643872Y-16078484D01*
X5643872Y-16078484D02*
X5624825Y-16107055D01*
X5624825Y-16107055D02*
X5605777Y-16126103D01*
X5605777Y-16126103D02*
X5586730Y-16135627D01*
X5767682Y-16078484D02*
X5901015Y-16078484D01*
X5901015Y-16078484D02*
X5815301Y-16278484D01*
X6062920Y-16145150D02*
X6062920Y-16278484D01*
X6015301Y-16068960D02*
X5967682Y-16211817D01*
X5967682Y-16211817D02*
X6091491Y-16211817D01*
X6320063Y-16278484D02*
X6320063Y-16078484D01*
X6405777Y-16278484D02*
X6405777Y-16173722D01*
X6405777Y-16173722D02*
X6396253Y-16154674D01*
X6396253Y-16154674D02*
X6377206Y-16145150D01*
X6377206Y-16145150D02*
X6348634Y-16145150D01*
X6348634Y-16145150D02*
X6329587Y-16154674D01*
X6329587Y-16154674D02*
X6320063Y-16164198D01*
X6529587Y-16278484D02*
X6510539Y-16268960D01*
X6510539Y-16268960D02*
X6501015Y-16259436D01*
X6501015Y-16259436D02*
X6491491Y-16240388D01*
X6491491Y-16240388D02*
X6491491Y-16183246D01*
X6491491Y-16183246D02*
X6501015Y-16164198D01*
X6501015Y-16164198D02*
X6510539Y-16154674D01*
X6510539Y-16154674D02*
X6529587Y-16145150D01*
X6529587Y-16145150D02*
X6558158Y-16145150D01*
X6558158Y-16145150D02*
X6577206Y-16154674D01*
X6577206Y-16154674D02*
X6586730Y-16164198D01*
X6586730Y-16164198D02*
X6596253Y-16183246D01*
X6596253Y-16183246D02*
X6596253Y-16240388D01*
X6596253Y-16240388D02*
X6586730Y-16259436D01*
X6586730Y-16259436D02*
X6577206Y-16268960D01*
X6577206Y-16268960D02*
X6558158Y-16278484D01*
X6558158Y-16278484D02*
X6529587Y-16278484D01*
X6710539Y-16278484D02*
X6691491Y-16268960D01*
X6691491Y-16268960D02*
X6681968Y-16249912D01*
X6681968Y-16249912D02*
X6681968Y-16078484D01*
X6862920Y-16268960D02*
X6843872Y-16278484D01*
X6843872Y-16278484D02*
X6805777Y-16278484D01*
X6805777Y-16278484D02*
X6786730Y-16268960D01*
X6786730Y-16268960D02*
X6777206Y-16249912D01*
X6777206Y-16249912D02*
X6777206Y-16173722D01*
X6777206Y-16173722D02*
X6786730Y-16154674D01*
X6786730Y-16154674D02*
X6805777Y-16145150D01*
X6805777Y-16145150D02*
X6843872Y-16145150D01*
X6843872Y-16145150D02*
X6862920Y-16154674D01*
X6862920Y-16154674D02*
X6872444Y-16173722D01*
X6872444Y-16173722D02*
X6872444Y-16192769D01*
X6872444Y-16192769D02*
X6777206Y-16211817D01*
X6948634Y-16268960D02*
X6967682Y-16278484D01*
X6967682Y-16278484D02*
X7005777Y-16278484D01*
X7005777Y-16278484D02*
X7024825Y-16268960D01*
X7024825Y-16268960D02*
X7034349Y-16249912D01*
X7034349Y-16249912D02*
X7034349Y-16240388D01*
X7034349Y-16240388D02*
X7024825Y-16221341D01*
X7024825Y-16221341D02*
X7005777Y-16211817D01*
X7005777Y-16211817D02*
X6977206Y-16211817D01*
X6977206Y-16211817D02*
X6958158Y-16202293D01*
X6958158Y-16202293D02*
X6948634Y-16183246D01*
X6948634Y-16183246D02*
X6948634Y-16173722D01*
X6948634Y-16173722D02*
X6958158Y-16154674D01*
X6958158Y-16154674D02*
X6977206Y-16145150D01*
X6977206Y-16145150D02*
X7005777Y-16145150D01*
X7005777Y-16145150D02*
X7024825Y-16154674D01*
X7101015Y-16354674D02*
X7110539Y-16345150D01*
X7110539Y-16345150D02*
X7129587Y-16316579D01*
X7129587Y-16316579D02*
X7139111Y-16297531D01*
X7139111Y-16297531D02*
X7148634Y-16268960D01*
X7148634Y-16268960D02*
X7158158Y-16221341D01*
X7158158Y-16221341D02*
X7158158Y-16183246D01*
X7158158Y-16183246D02*
X7148634Y-16135627D01*
X7148634Y-16135627D02*
X7139111Y-16107055D01*
X7139111Y-16107055D02*
X7129587Y-16088008D01*
X7129587Y-16088008D02*
X7110539Y-16059436D01*
X7110539Y-16059436D02*
X7101015Y-16049912D01*
D12*
X1890000Y-16506000D02*
X1945000Y-16451000D01*
X1890000Y-16396000D01*
X1835000Y-16451000D01*
X1890000Y-16506000D01*
D10*
X2310539Y-16542484D02*
X2196253Y-16542484D01*
X2253396Y-16542484D02*
X2253396Y-16342484D01*
X2253396Y-16342484D02*
X2234348Y-16371055D01*
X2234348Y-16371055D02*
X2215301Y-16390103D01*
X2215301Y-16390103D02*
X2196253Y-16399627D01*
X2396253Y-16523436D02*
X2405777Y-16532960D01*
X2405777Y-16532960D02*
X2396253Y-16542484D01*
X2396253Y-16542484D02*
X2386729Y-16532960D01*
X2386729Y-16532960D02*
X2396253Y-16523436D01*
X2396253Y-16523436D02*
X2396253Y-16542484D01*
X2596253Y-16542484D02*
X2481967Y-16542484D01*
X2539110Y-16542484D02*
X2539110Y-16342484D01*
X2539110Y-16342484D02*
X2520063Y-16371055D01*
X2520063Y-16371055D02*
X2501015Y-16390103D01*
X2501015Y-16390103D02*
X2481967Y-16399627D01*
X2720063Y-16342484D02*
X2739110Y-16342484D01*
X2739110Y-16342484D02*
X2758158Y-16352008D01*
X2758158Y-16352008D02*
X2767682Y-16361531D01*
X2767682Y-16361531D02*
X2777205Y-16380579D01*
X2777205Y-16380579D02*
X2786729Y-16418674D01*
X2786729Y-16418674D02*
X2786729Y-16466293D01*
X2786729Y-16466293D02*
X2777205Y-16504388D01*
X2777205Y-16504388D02*
X2767682Y-16523436D01*
X2767682Y-16523436D02*
X2758158Y-16532960D01*
X2758158Y-16532960D02*
X2739110Y-16542484D01*
X2739110Y-16542484D02*
X2720063Y-16542484D01*
X2720063Y-16542484D02*
X2701015Y-16532960D01*
X2701015Y-16532960D02*
X2691491Y-16523436D01*
X2691491Y-16523436D02*
X2681967Y-16504388D01*
X2681967Y-16504388D02*
X2672444Y-16466293D01*
X2672444Y-16466293D02*
X2672444Y-16418674D01*
X2672444Y-16418674D02*
X2681967Y-16380579D01*
X2681967Y-16380579D02*
X2691491Y-16361531D01*
X2691491Y-16361531D02*
X2701015Y-16352008D01*
X2701015Y-16352008D02*
X2720063Y-16342484D01*
X2910539Y-16342484D02*
X2929586Y-16342484D01*
X2929586Y-16342484D02*
X2948634Y-16352008D01*
X2948634Y-16352008D02*
X2958158Y-16361531D01*
X2958158Y-16361531D02*
X2967682Y-16380579D01*
X2967682Y-16380579D02*
X2977205Y-16418674D01*
X2977205Y-16418674D02*
X2977205Y-16466293D01*
X2977205Y-16466293D02*
X2967682Y-16504388D01*
X2967682Y-16504388D02*
X2958158Y-16523436D01*
X2958158Y-16523436D02*
X2948634Y-16532960D01*
X2948634Y-16532960D02*
X2929586Y-16542484D01*
X2929586Y-16542484D02*
X2910539Y-16542484D01*
X2910539Y-16542484D02*
X2891491Y-16532960D01*
X2891491Y-16532960D02*
X2881967Y-16523436D01*
X2881967Y-16523436D02*
X2872443Y-16504388D01*
X2872443Y-16504388D02*
X2862920Y-16466293D01*
X2862920Y-16466293D02*
X2862920Y-16418674D01*
X2862920Y-16418674D02*
X2872443Y-16380579D01*
X2872443Y-16380579D02*
X2881967Y-16361531D01*
X2881967Y-16361531D02*
X2891491Y-16352008D01*
X2891491Y-16352008D02*
X2910539Y-16342484D01*
X3062920Y-16542484D02*
X3062920Y-16409150D01*
X3062920Y-16428198D02*
X3072443Y-16418674D01*
X3072443Y-16418674D02*
X3091491Y-16409150D01*
X3091491Y-16409150D02*
X3120063Y-16409150D01*
X3120063Y-16409150D02*
X3139110Y-16418674D01*
X3139110Y-16418674D02*
X3148634Y-16437722D01*
X3148634Y-16437722D02*
X3148634Y-16542484D01*
X3148634Y-16437722D02*
X3158158Y-16418674D01*
X3158158Y-16418674D02*
X3177205Y-16409150D01*
X3177205Y-16409150D02*
X3205777Y-16409150D01*
X3205777Y-16409150D02*
X3224824Y-16418674D01*
X3224824Y-16418674D02*
X3234348Y-16437722D01*
X3234348Y-16437722D02*
X3234348Y-16542484D01*
X3329586Y-16542484D02*
X3329586Y-16409150D01*
X3329586Y-16428198D02*
X3339110Y-16418674D01*
X3339110Y-16418674D02*
X3358158Y-16409150D01*
X3358158Y-16409150D02*
X3386729Y-16409150D01*
X3386729Y-16409150D02*
X3405777Y-16418674D01*
X3405777Y-16418674D02*
X3415301Y-16437722D01*
X3415301Y-16437722D02*
X3415301Y-16542484D01*
X3415301Y-16437722D02*
X3424824Y-16418674D01*
X3424824Y-16418674D02*
X3443872Y-16409150D01*
X3443872Y-16409150D02*
X3472443Y-16409150D01*
X3472443Y-16409150D02*
X3491491Y-16418674D01*
X3491491Y-16418674D02*
X3501015Y-16437722D01*
X3501015Y-16437722D02*
X3501015Y-16542484D01*
X3891491Y-16332960D02*
X3720063Y-16590103D01*
X4148634Y-16342484D02*
X4167682Y-16342484D01*
X4167682Y-16342484D02*
X4186729Y-16352008D01*
X4186729Y-16352008D02*
X4196253Y-16361531D01*
X4196253Y-16361531D02*
X4205777Y-16380579D01*
X4205777Y-16380579D02*
X4215301Y-16418674D01*
X4215301Y-16418674D02*
X4215301Y-16466293D01*
X4215301Y-16466293D02*
X4205777Y-16504388D01*
X4205777Y-16504388D02*
X4196253Y-16523436D01*
X4196253Y-16523436D02*
X4186729Y-16532960D01*
X4186729Y-16532960D02*
X4167682Y-16542484D01*
X4167682Y-16542484D02*
X4148634Y-16542484D01*
X4148634Y-16542484D02*
X4129586Y-16532960D01*
X4129586Y-16532960D02*
X4120063Y-16523436D01*
X4120063Y-16523436D02*
X4110539Y-16504388D01*
X4110539Y-16504388D02*
X4101015Y-16466293D01*
X4101015Y-16466293D02*
X4101015Y-16418674D01*
X4101015Y-16418674D02*
X4110539Y-16380579D01*
X4110539Y-16380579D02*
X4120063Y-16361531D01*
X4120063Y-16361531D02*
X4129586Y-16352008D01*
X4129586Y-16352008D02*
X4148634Y-16342484D01*
X4301015Y-16523436D02*
X4310539Y-16532960D01*
X4310539Y-16532960D02*
X4301015Y-16542484D01*
X4301015Y-16542484D02*
X4291491Y-16532960D01*
X4291491Y-16532960D02*
X4301015Y-16523436D01*
X4301015Y-16523436D02*
X4301015Y-16542484D01*
X4434348Y-16342484D02*
X4453396Y-16342484D01*
X4453396Y-16342484D02*
X4472444Y-16352008D01*
X4472444Y-16352008D02*
X4481968Y-16361531D01*
X4481968Y-16361531D02*
X4491491Y-16380579D01*
X4491491Y-16380579D02*
X4501015Y-16418674D01*
X4501015Y-16418674D02*
X4501015Y-16466293D01*
X4501015Y-16466293D02*
X4491491Y-16504388D01*
X4491491Y-16504388D02*
X4481968Y-16523436D01*
X4481968Y-16523436D02*
X4472444Y-16532960D01*
X4472444Y-16532960D02*
X4453396Y-16542484D01*
X4453396Y-16542484D02*
X4434348Y-16542484D01*
X4434348Y-16542484D02*
X4415301Y-16532960D01*
X4415301Y-16532960D02*
X4405777Y-16523436D01*
X4405777Y-16523436D02*
X4396253Y-16504388D01*
X4396253Y-16504388D02*
X4386729Y-16466293D01*
X4386729Y-16466293D02*
X4386729Y-16418674D01*
X4386729Y-16418674D02*
X4396253Y-16380579D01*
X4396253Y-16380579D02*
X4405777Y-16361531D01*
X4405777Y-16361531D02*
X4415301Y-16352008D01*
X4415301Y-16352008D02*
X4434348Y-16342484D01*
X4672444Y-16409150D02*
X4672444Y-16542484D01*
X4624825Y-16332960D02*
X4577206Y-16475817D01*
X4577206Y-16475817D02*
X4701015Y-16475817D01*
X4758158Y-16342484D02*
X4881968Y-16342484D01*
X4881968Y-16342484D02*
X4815301Y-16418674D01*
X4815301Y-16418674D02*
X4843872Y-16418674D01*
X4843872Y-16418674D02*
X4862920Y-16428198D01*
X4862920Y-16428198D02*
X4872444Y-16437722D01*
X4872444Y-16437722D02*
X4881968Y-16456769D01*
X4881968Y-16456769D02*
X4881968Y-16504388D01*
X4881968Y-16504388D02*
X4872444Y-16523436D01*
X4872444Y-16523436D02*
X4862920Y-16532960D01*
X4862920Y-16532960D02*
X4843872Y-16542484D01*
X4843872Y-16542484D02*
X4786729Y-16542484D01*
X4786729Y-16542484D02*
X4767682Y-16532960D01*
X4767682Y-16532960D02*
X4758158Y-16523436D01*
X4948634Y-16342484D02*
X5072444Y-16342484D01*
X5072444Y-16342484D02*
X5005777Y-16418674D01*
X5005777Y-16418674D02*
X5034349Y-16418674D01*
X5034349Y-16418674D02*
X5053396Y-16428198D01*
X5053396Y-16428198D02*
X5062920Y-16437722D01*
X5062920Y-16437722D02*
X5072444Y-16456769D01*
X5072444Y-16456769D02*
X5072444Y-16504388D01*
X5072444Y-16504388D02*
X5062920Y-16523436D01*
X5062920Y-16523436D02*
X5053396Y-16532960D01*
X5053396Y-16532960D02*
X5034349Y-16542484D01*
X5034349Y-16542484D02*
X4977206Y-16542484D01*
X4977206Y-16542484D02*
X4958158Y-16532960D01*
X4958158Y-16532960D02*
X4948634Y-16523436D01*
X5148634Y-16342484D02*
X5148634Y-16380579D01*
X5224825Y-16342484D02*
X5224825Y-16380579D01*
X5520063Y-16618674D02*
X5510539Y-16609150D01*
X5510539Y-16609150D02*
X5491491Y-16580579D01*
X5491491Y-16580579D02*
X5481968Y-16561531D01*
X5481968Y-16561531D02*
X5472444Y-16532960D01*
X5472444Y-16532960D02*
X5462920Y-16485341D01*
X5462920Y-16485341D02*
X5462920Y-16447246D01*
X5462920Y-16447246D02*
X5472444Y-16399627D01*
X5472444Y-16399627D02*
X5481968Y-16371055D01*
X5481968Y-16371055D02*
X5491491Y-16352008D01*
X5491491Y-16352008D02*
X5510539Y-16323436D01*
X5510539Y-16323436D02*
X5520063Y-16313912D01*
X5681968Y-16409150D02*
X5681968Y-16542484D01*
X5634348Y-16332960D02*
X5586730Y-16475817D01*
X5586730Y-16475817D02*
X5710539Y-16475817D01*
X5939110Y-16542484D02*
X5939110Y-16342484D01*
X6024825Y-16542484D02*
X6024825Y-16437722D01*
X6024825Y-16437722D02*
X6015301Y-16418674D01*
X6015301Y-16418674D02*
X5996253Y-16409150D01*
X5996253Y-16409150D02*
X5967682Y-16409150D01*
X5967682Y-16409150D02*
X5948634Y-16418674D01*
X5948634Y-16418674D02*
X5939110Y-16428198D01*
X6148634Y-16542484D02*
X6129587Y-16532960D01*
X6129587Y-16532960D02*
X6120063Y-16523436D01*
X6120063Y-16523436D02*
X6110539Y-16504388D01*
X6110539Y-16504388D02*
X6110539Y-16447246D01*
X6110539Y-16447246D02*
X6120063Y-16428198D01*
X6120063Y-16428198D02*
X6129587Y-16418674D01*
X6129587Y-16418674D02*
X6148634Y-16409150D01*
X6148634Y-16409150D02*
X6177206Y-16409150D01*
X6177206Y-16409150D02*
X6196253Y-16418674D01*
X6196253Y-16418674D02*
X6205777Y-16428198D01*
X6205777Y-16428198D02*
X6215301Y-16447246D01*
X6215301Y-16447246D02*
X6215301Y-16504388D01*
X6215301Y-16504388D02*
X6205777Y-16523436D01*
X6205777Y-16523436D02*
X6196253Y-16532960D01*
X6196253Y-16532960D02*
X6177206Y-16542484D01*
X6177206Y-16542484D02*
X6148634Y-16542484D01*
X6329587Y-16542484D02*
X6310539Y-16532960D01*
X6310539Y-16532960D02*
X6301015Y-16513912D01*
X6301015Y-16513912D02*
X6301015Y-16342484D01*
X6481968Y-16532960D02*
X6462920Y-16542484D01*
X6462920Y-16542484D02*
X6424825Y-16542484D01*
X6424825Y-16542484D02*
X6405777Y-16532960D01*
X6405777Y-16532960D02*
X6396253Y-16513912D01*
X6396253Y-16513912D02*
X6396253Y-16437722D01*
X6396253Y-16437722D02*
X6405777Y-16418674D01*
X6405777Y-16418674D02*
X6424825Y-16409150D01*
X6424825Y-16409150D02*
X6462920Y-16409150D01*
X6462920Y-16409150D02*
X6481968Y-16418674D01*
X6481968Y-16418674D02*
X6491491Y-16437722D01*
X6491491Y-16437722D02*
X6491491Y-16456769D01*
X6491491Y-16456769D02*
X6396253Y-16475817D01*
X6567682Y-16532960D02*
X6586730Y-16542484D01*
X6586730Y-16542484D02*
X6624825Y-16542484D01*
X6624825Y-16542484D02*
X6643872Y-16532960D01*
X6643872Y-16532960D02*
X6653396Y-16513912D01*
X6653396Y-16513912D02*
X6653396Y-16504388D01*
X6653396Y-16504388D02*
X6643872Y-16485341D01*
X6643872Y-16485341D02*
X6624825Y-16475817D01*
X6624825Y-16475817D02*
X6596253Y-16475817D01*
X6596253Y-16475817D02*
X6577206Y-16466293D01*
X6577206Y-16466293D02*
X6567682Y-16447246D01*
X6567682Y-16447246D02*
X6567682Y-16437722D01*
X6567682Y-16437722D02*
X6577206Y-16418674D01*
X6577206Y-16418674D02*
X6596253Y-16409150D01*
X6596253Y-16409150D02*
X6624825Y-16409150D01*
X6624825Y-16409150D02*
X6643872Y-16418674D01*
X6720063Y-16618674D02*
X6729587Y-16609150D01*
X6729587Y-16609150D02*
X6748634Y-16580579D01*
X6748634Y-16580579D02*
X6758158Y-16561531D01*
X6758158Y-16561531D02*
X6767682Y-16532960D01*
X6767682Y-16532960D02*
X6777206Y-16485341D01*
X6777206Y-16485341D02*
X6777206Y-16447246D01*
X6777206Y-16447246D02*
X6767682Y-16399627D01*
X6767682Y-16399627D02*
X6758158Y-16371055D01*
X6758158Y-16371055D02*
X6748634Y-16352008D01*
X6748634Y-16352008D02*
X6729587Y-16323436D01*
X6729587Y-16323436D02*
X6720063Y-16313912D01*
D13*
X1825000Y-16655000D02*
X1945000Y-16775000D01*
X1945000Y-16655000D02*
X1825000Y-16775000D01*
X1945000Y-16715000D02*
G75*
G02*
X1825000Y-16715000I-60000J0D01*
G01*
X1825000Y-16715000D02*
G75*
G02*
X1945000Y-16715000I60000J0D01*
G01*
D10*
X2310539Y-16806484D02*
X2196253Y-16806484D01*
X2253396Y-16806484D02*
X2253396Y-16606484D01*
X2253396Y-16606484D02*
X2234348Y-16635055D01*
X2234348Y-16635055D02*
X2215301Y-16654103D01*
X2215301Y-16654103D02*
X2196253Y-16663627D01*
X2396253Y-16787436D02*
X2405777Y-16796960D01*
X2405777Y-16796960D02*
X2396253Y-16806484D01*
X2396253Y-16806484D02*
X2386729Y-16796960D01*
X2386729Y-16796960D02*
X2396253Y-16787436D01*
X2396253Y-16787436D02*
X2396253Y-16806484D01*
X2481967Y-16625531D02*
X2491491Y-16616008D01*
X2491491Y-16616008D02*
X2510539Y-16606484D01*
X2510539Y-16606484D02*
X2558158Y-16606484D01*
X2558158Y-16606484D02*
X2577205Y-16616008D01*
X2577205Y-16616008D02*
X2586729Y-16625531D01*
X2586729Y-16625531D02*
X2596253Y-16644579D01*
X2596253Y-16644579D02*
X2596253Y-16663627D01*
X2596253Y-16663627D02*
X2586729Y-16692198D01*
X2586729Y-16692198D02*
X2472444Y-16806484D01*
X2472444Y-16806484D02*
X2596253Y-16806484D01*
X2720063Y-16606484D02*
X2739110Y-16606484D01*
X2739110Y-16606484D02*
X2758158Y-16616008D01*
X2758158Y-16616008D02*
X2767682Y-16625531D01*
X2767682Y-16625531D02*
X2777205Y-16644579D01*
X2777205Y-16644579D02*
X2786729Y-16682674D01*
X2786729Y-16682674D02*
X2786729Y-16730293D01*
X2786729Y-16730293D02*
X2777205Y-16768388D01*
X2777205Y-16768388D02*
X2767682Y-16787436D01*
X2767682Y-16787436D02*
X2758158Y-16796960D01*
X2758158Y-16796960D02*
X2739110Y-16806484D01*
X2739110Y-16806484D02*
X2720063Y-16806484D01*
X2720063Y-16806484D02*
X2701015Y-16796960D01*
X2701015Y-16796960D02*
X2691491Y-16787436D01*
X2691491Y-16787436D02*
X2681967Y-16768388D01*
X2681967Y-16768388D02*
X2672444Y-16730293D01*
X2672444Y-16730293D02*
X2672444Y-16682674D01*
X2672444Y-16682674D02*
X2681967Y-16644579D01*
X2681967Y-16644579D02*
X2691491Y-16625531D01*
X2691491Y-16625531D02*
X2701015Y-16616008D01*
X2701015Y-16616008D02*
X2720063Y-16606484D01*
X2910539Y-16606484D02*
X2929586Y-16606484D01*
X2929586Y-16606484D02*
X2948634Y-16616008D01*
X2948634Y-16616008D02*
X2958158Y-16625531D01*
X2958158Y-16625531D02*
X2967682Y-16644579D01*
X2967682Y-16644579D02*
X2977205Y-16682674D01*
X2977205Y-16682674D02*
X2977205Y-16730293D01*
X2977205Y-16730293D02*
X2967682Y-16768388D01*
X2967682Y-16768388D02*
X2958158Y-16787436D01*
X2958158Y-16787436D02*
X2948634Y-16796960D01*
X2948634Y-16796960D02*
X2929586Y-16806484D01*
X2929586Y-16806484D02*
X2910539Y-16806484D01*
X2910539Y-16806484D02*
X2891491Y-16796960D01*
X2891491Y-16796960D02*
X2881967Y-16787436D01*
X2881967Y-16787436D02*
X2872443Y-16768388D01*
X2872443Y-16768388D02*
X2862920Y-16730293D01*
X2862920Y-16730293D02*
X2862920Y-16682674D01*
X2862920Y-16682674D02*
X2872443Y-16644579D01*
X2872443Y-16644579D02*
X2881967Y-16625531D01*
X2881967Y-16625531D02*
X2891491Y-16616008D01*
X2891491Y-16616008D02*
X2910539Y-16606484D01*
X3062920Y-16806484D02*
X3062920Y-16673150D01*
X3062920Y-16692198D02*
X3072443Y-16682674D01*
X3072443Y-16682674D02*
X3091491Y-16673150D01*
X3091491Y-16673150D02*
X3120063Y-16673150D01*
X3120063Y-16673150D02*
X3139110Y-16682674D01*
X3139110Y-16682674D02*
X3148634Y-16701722D01*
X3148634Y-16701722D02*
X3148634Y-16806484D01*
X3148634Y-16701722D02*
X3158158Y-16682674D01*
X3158158Y-16682674D02*
X3177205Y-16673150D01*
X3177205Y-16673150D02*
X3205777Y-16673150D01*
X3205777Y-16673150D02*
X3224824Y-16682674D01*
X3224824Y-16682674D02*
X3234348Y-16701722D01*
X3234348Y-16701722D02*
X3234348Y-16806484D01*
X3329586Y-16806484D02*
X3329586Y-16673150D01*
X3329586Y-16692198D02*
X3339110Y-16682674D01*
X3339110Y-16682674D02*
X3358158Y-16673150D01*
X3358158Y-16673150D02*
X3386729Y-16673150D01*
X3386729Y-16673150D02*
X3405777Y-16682674D01*
X3405777Y-16682674D02*
X3415301Y-16701722D01*
X3415301Y-16701722D02*
X3415301Y-16806484D01*
X3415301Y-16701722D02*
X3424824Y-16682674D01*
X3424824Y-16682674D02*
X3443872Y-16673150D01*
X3443872Y-16673150D02*
X3472443Y-16673150D01*
X3472443Y-16673150D02*
X3491491Y-16682674D01*
X3491491Y-16682674D02*
X3501015Y-16701722D01*
X3501015Y-16701722D02*
X3501015Y-16806484D01*
X3891491Y-16596960D02*
X3720063Y-16854103D01*
X4148634Y-16606484D02*
X4167682Y-16606484D01*
X4167682Y-16606484D02*
X4186729Y-16616008D01*
X4186729Y-16616008D02*
X4196253Y-16625531D01*
X4196253Y-16625531D02*
X4205777Y-16644579D01*
X4205777Y-16644579D02*
X4215301Y-16682674D01*
X4215301Y-16682674D02*
X4215301Y-16730293D01*
X4215301Y-16730293D02*
X4205777Y-16768388D01*
X4205777Y-16768388D02*
X4196253Y-16787436D01*
X4196253Y-16787436D02*
X4186729Y-16796960D01*
X4186729Y-16796960D02*
X4167682Y-16806484D01*
X4167682Y-16806484D02*
X4148634Y-16806484D01*
X4148634Y-16806484D02*
X4129586Y-16796960D01*
X4129586Y-16796960D02*
X4120063Y-16787436D01*
X4120063Y-16787436D02*
X4110539Y-16768388D01*
X4110539Y-16768388D02*
X4101015Y-16730293D01*
X4101015Y-16730293D02*
X4101015Y-16682674D01*
X4101015Y-16682674D02*
X4110539Y-16644579D01*
X4110539Y-16644579D02*
X4120063Y-16625531D01*
X4120063Y-16625531D02*
X4129586Y-16616008D01*
X4129586Y-16616008D02*
X4148634Y-16606484D01*
X4301015Y-16787436D02*
X4310539Y-16796960D01*
X4310539Y-16796960D02*
X4301015Y-16806484D01*
X4301015Y-16806484D02*
X4291491Y-16796960D01*
X4291491Y-16796960D02*
X4301015Y-16787436D01*
X4301015Y-16787436D02*
X4301015Y-16806484D01*
X4434348Y-16606484D02*
X4453396Y-16606484D01*
X4453396Y-16606484D02*
X4472444Y-16616008D01*
X4472444Y-16616008D02*
X4481968Y-16625531D01*
X4481968Y-16625531D02*
X4491491Y-16644579D01*
X4491491Y-16644579D02*
X4501015Y-16682674D01*
X4501015Y-16682674D02*
X4501015Y-16730293D01*
X4501015Y-16730293D02*
X4491491Y-16768388D01*
X4491491Y-16768388D02*
X4481968Y-16787436D01*
X4481968Y-16787436D02*
X4472444Y-16796960D01*
X4472444Y-16796960D02*
X4453396Y-16806484D01*
X4453396Y-16806484D02*
X4434348Y-16806484D01*
X4434348Y-16806484D02*
X4415301Y-16796960D01*
X4415301Y-16796960D02*
X4405777Y-16787436D01*
X4405777Y-16787436D02*
X4396253Y-16768388D01*
X4396253Y-16768388D02*
X4386729Y-16730293D01*
X4386729Y-16730293D02*
X4386729Y-16682674D01*
X4386729Y-16682674D02*
X4396253Y-16644579D01*
X4396253Y-16644579D02*
X4405777Y-16625531D01*
X4405777Y-16625531D02*
X4415301Y-16616008D01*
X4415301Y-16616008D02*
X4434348Y-16606484D01*
X4672444Y-16673150D02*
X4672444Y-16806484D01*
X4624825Y-16596960D02*
X4577206Y-16739817D01*
X4577206Y-16739817D02*
X4701015Y-16739817D01*
X4758158Y-16606484D02*
X4891491Y-16606484D01*
X4891491Y-16606484D02*
X4805777Y-16806484D01*
X4958158Y-16625531D02*
X4967682Y-16616008D01*
X4967682Y-16616008D02*
X4986729Y-16606484D01*
X4986729Y-16606484D02*
X5034349Y-16606484D01*
X5034349Y-16606484D02*
X5053396Y-16616008D01*
X5053396Y-16616008D02*
X5062920Y-16625531D01*
X5062920Y-16625531D02*
X5072444Y-16644579D01*
X5072444Y-16644579D02*
X5072444Y-16663627D01*
X5072444Y-16663627D02*
X5062920Y-16692198D01*
X5062920Y-16692198D02*
X4948634Y-16806484D01*
X4948634Y-16806484D02*
X5072444Y-16806484D01*
X5148634Y-16606484D02*
X5148634Y-16644579D01*
X5224825Y-16606484D02*
X5224825Y-16644579D01*
X5520063Y-16882674D02*
X5510539Y-16873150D01*
X5510539Y-16873150D02*
X5491491Y-16844579D01*
X5491491Y-16844579D02*
X5481968Y-16825531D01*
X5481968Y-16825531D02*
X5472444Y-16796960D01*
X5472444Y-16796960D02*
X5462920Y-16749341D01*
X5462920Y-16749341D02*
X5462920Y-16711246D01*
X5462920Y-16711246D02*
X5472444Y-16663627D01*
X5472444Y-16663627D02*
X5481968Y-16635055D01*
X5481968Y-16635055D02*
X5491491Y-16616008D01*
X5491491Y-16616008D02*
X5510539Y-16587436D01*
X5510539Y-16587436D02*
X5520063Y-16577912D01*
X5586730Y-16625531D02*
X5596253Y-16616008D01*
X5596253Y-16616008D02*
X5615301Y-16606484D01*
X5615301Y-16606484D02*
X5662920Y-16606484D01*
X5662920Y-16606484D02*
X5681968Y-16616008D01*
X5681968Y-16616008D02*
X5691491Y-16625531D01*
X5691491Y-16625531D02*
X5701015Y-16644579D01*
X5701015Y-16644579D02*
X5701015Y-16663627D01*
X5701015Y-16663627D02*
X5691491Y-16692198D01*
X5691491Y-16692198D02*
X5577206Y-16806484D01*
X5577206Y-16806484D02*
X5701015Y-16806484D01*
X5939110Y-16806484D02*
X5939110Y-16606484D01*
X6024825Y-16806484D02*
X6024825Y-16701722D01*
X6024825Y-16701722D02*
X6015301Y-16682674D01*
X6015301Y-16682674D02*
X5996253Y-16673150D01*
X5996253Y-16673150D02*
X5967682Y-16673150D01*
X5967682Y-16673150D02*
X5948634Y-16682674D01*
X5948634Y-16682674D02*
X5939110Y-16692198D01*
X6148634Y-16806484D02*
X6129587Y-16796960D01*
X6129587Y-16796960D02*
X6120063Y-16787436D01*
X6120063Y-16787436D02*
X6110539Y-16768388D01*
X6110539Y-16768388D02*
X6110539Y-16711246D01*
X6110539Y-16711246D02*
X6120063Y-16692198D01*
X6120063Y-16692198D02*
X6129587Y-16682674D01*
X6129587Y-16682674D02*
X6148634Y-16673150D01*
X6148634Y-16673150D02*
X6177206Y-16673150D01*
X6177206Y-16673150D02*
X6196253Y-16682674D01*
X6196253Y-16682674D02*
X6205777Y-16692198D01*
X6205777Y-16692198D02*
X6215301Y-16711246D01*
X6215301Y-16711246D02*
X6215301Y-16768388D01*
X6215301Y-16768388D02*
X6205777Y-16787436D01*
X6205777Y-16787436D02*
X6196253Y-16796960D01*
X6196253Y-16796960D02*
X6177206Y-16806484D01*
X6177206Y-16806484D02*
X6148634Y-16806484D01*
X6329587Y-16806484D02*
X6310539Y-16796960D01*
X6310539Y-16796960D02*
X6301015Y-16777912D01*
X6301015Y-16777912D02*
X6301015Y-16606484D01*
X6481968Y-16796960D02*
X6462920Y-16806484D01*
X6462920Y-16806484D02*
X6424825Y-16806484D01*
X6424825Y-16806484D02*
X6405777Y-16796960D01*
X6405777Y-16796960D02*
X6396253Y-16777912D01*
X6396253Y-16777912D02*
X6396253Y-16701722D01*
X6396253Y-16701722D02*
X6405777Y-16682674D01*
X6405777Y-16682674D02*
X6424825Y-16673150D01*
X6424825Y-16673150D02*
X6462920Y-16673150D01*
X6462920Y-16673150D02*
X6481968Y-16682674D01*
X6481968Y-16682674D02*
X6491491Y-16701722D01*
X6491491Y-16701722D02*
X6491491Y-16720769D01*
X6491491Y-16720769D02*
X6396253Y-16739817D01*
X6567682Y-16796960D02*
X6586730Y-16806484D01*
X6586730Y-16806484D02*
X6624825Y-16806484D01*
X6624825Y-16806484D02*
X6643872Y-16796960D01*
X6643872Y-16796960D02*
X6653396Y-16777912D01*
X6653396Y-16777912D02*
X6653396Y-16768388D01*
X6653396Y-16768388D02*
X6643872Y-16749341D01*
X6643872Y-16749341D02*
X6624825Y-16739817D01*
X6624825Y-16739817D02*
X6596253Y-16739817D01*
X6596253Y-16739817D02*
X6577206Y-16730293D01*
X6577206Y-16730293D02*
X6567682Y-16711246D01*
X6567682Y-16711246D02*
X6567682Y-16701722D01*
X6567682Y-16701722D02*
X6577206Y-16682674D01*
X6577206Y-16682674D02*
X6596253Y-16673150D01*
X6596253Y-16673150D02*
X6624825Y-16673150D01*
X6624825Y-16673150D02*
X6643872Y-16682674D01*
X6720063Y-16882674D02*
X6729587Y-16873150D01*
X6729587Y-16873150D02*
X6748634Y-16844579D01*
X6748634Y-16844579D02*
X6758158Y-16825531D01*
X6758158Y-16825531D02*
X6767682Y-16796960D01*
X6767682Y-16796960D02*
X6777206Y-16749341D01*
X6777206Y-16749341D02*
X6777206Y-16711246D01*
X6777206Y-16711246D02*
X6767682Y-16663627D01*
X6767682Y-16663627D02*
X6758158Y-16635055D01*
X6758158Y-16635055D02*
X6748634Y-16616008D01*
X6748634Y-16616008D02*
X6729587Y-16587436D01*
X6729587Y-16587436D02*
X6720063Y-16577912D01*
M02*
