M48
; DRILL file {KiCad 8.0.5} date 2025-01-18T12:22:14-0800
; FORMAT={-:-/ absolute / inch / decimal}
; #@! TF.CreationDate,2025-01-18T12:22:14-08:00
; #@! TF.GenerationSoftware,Kicad,Pcbnew,8.0.5
; #@! TF.FileFunction,Plated,1,4,PTH
FMAT,2
INCH
; #@! TA.AperFunction,Plated,PTH,ViaDrill
T1C0.0157
; #@! TA.AperFunction,Plated,PTH,ComponentDrill
T2C0.0197
; #@! TA.AperFunction,Plated,PTH,ComponentDrill
T3C0.0354
; #@! TA.AperFunction,Plated,PTH,ComponentDrill
T4C0.0394
; #@! TA.AperFunction,Plated,PTH,ComponentDrill
T5C0.0433
; #@! TA.AperFunction,Plated,PTH,ComponentDrill
T6C0.0472
; #@! TA.AperFunction,Plated,PTH,ComponentDrill
T7C0.0551
%
G90
G05
T1
X4.252Y-4.9213
X4.2913Y-4.8819
X4.3945Y-3.598
X4.4094Y-3.5433
X4.4094Y-4.4094
X4.4094Y-4.685
X4.4488Y-3.8976
X4.4488Y-3.9741
X4.4488Y-4.3701
X4.4488Y-4.7244
X4.4843Y-5.7795
X4.4882Y-4.7638
X4.4916Y-3.851
X4.4961Y-5.6299
X4.502Y-4.0193
X4.5138Y-4.3307
X4.5138Y-4.3701
X4.5276Y-5.3937
X4.5551Y-3.8346
X4.5669Y-3.8976
X4.5669Y-3.9508
X4.5669Y-5.4331
X4.5709Y-4.126
X4.5989Y-5.4724
X4.6614Y-3.1929
X4.6732Y-3.6496
X4.6732Y-3.689
X4.6732Y-3.7323
X4.6772Y-3.3937
X4.7126Y-3.7323
X4.7165Y-3.6929
X4.7165Y-3.6496
X4.7165Y-5.5236
X4.7244Y-3.1929
X4.7283Y-3.9843
X4.7559Y-3.6496
X4.7559Y-3.689
X4.7559Y-3.7323
X4.7638Y-3.1496
X4.771Y-4.132
X4.8031Y-3.6614
X4.8189Y-3.122
X4.8327Y-4.1531
X4.8425Y-3.4409
X4.8622Y-5.6693
X4.8622Y-5.7598
X4.8819Y-4.1732
X4.8858Y-4.0539
X4.9021Y-3.1392
X4.9213Y-3.8189
X5.063Y-4.1457
X5.1299Y-3.8228
X5.1339Y-3.6378
X5.1969Y-5.4331
X5.2756Y-4.1339
X5.2953Y-3.8189
X5.3653Y-4.115
X5.4094Y-4.0236
X5.4515Y-4.0068
X5.4606Y-4.1457
X5.4921Y-3.7402
X5.5118Y-2.6732
X5.5128Y-4.1388
X5.5472Y-3.0079
X5.5512Y-5.6693
X5.5807Y-3.0413
X5.5906Y-5.7087
X5.6104Y-3.4744
X5.6339Y-5.752
X5.7126Y-3.5236
X5.7165Y-3.8228
X5.748Y-5.0394
X5.748Y-5.1181
X5.752Y-3.5157
X5.9173Y-2.6063
X6.0607Y-4.4311
X6.0915Y-4.3898
X6.1063Y-4.4961
X6.1457Y-4.4252
X6.1535Y-2.0492
X6.1732Y-4.3228
X6.1909Y-2.0236
X6.1929Y-4.1063
X6.2095Y-2.1986
X6.2203Y-3.8659
X6.2244Y-4.0709
X6.239Y-4.5091
X6.2504Y-2.1578
X6.2559Y-4.0354
X6.2736Y-4.4744
X6.2913Y-3.0984
X6.3031Y-4.4449
X6.3583Y-5.1929
X6.4055Y-3.7362
X6.4252Y-3.0984
X6.4449Y-3.8504
X6.4449Y-4.2835
X6.4528Y-3.7402
X6.4724Y-3.9134
X6.4751Y-3.8026
X6.4961Y-3.7402
X6.5Y-5.1378
X6.5256Y-4.961
X6.563Y-2.1417
X6.563Y-4.4843
X6.566Y-2.0374
X6.6052Y-2.0147
X6.6142Y-5.1378
X6.6144Y-2.1358
X6.6535Y-4.9213
X6.7323Y-4.5669
X6.7717Y-3.5236
X6.815Y-3.4843
X6.8228Y-4.2913
X6.8504Y-3.8976
X6.8898Y-3.8583
X6.8898Y-3.937
X6.9074Y-3.0728
X6.9291Y-3.4705
X6.9291Y-3.8189
X6.9291Y-3.8976
X6.9291Y-3.9764
X6.9302Y-3.1434
X6.9409Y-4.748
X6.95Y-2.0362
X6.9567Y-3.4252
X6.968Y-2.1357
X6.9685Y-3.8583
X6.9685Y-3.937
X6.9685Y-4.4882
X6.9764Y-4.378
X6.9843Y-4.0433
X6.9882Y-2.0157
X7.0079Y-3.8976
X7.0079Y-5.1969
X7.0079Y-5.2362
X7.0433Y-3.0315
X7.0439Y-2.1358
X7.0472Y-4.7244
X7.063Y-3.0748
X7.0866Y-4.2913
X7.0892Y-4.1454
X7.126Y-4.8031
X7.1318Y-4.1711
X7.1561Y-4.1349
X7.1614Y-4.5472
X7.1654Y-2.0866
X7.1781Y-3.1003
X7.1792Y-3.5857
X7.185Y-4.3819
X7.189Y-3.6299
X7.1983Y-3.1409
X7.2002Y-4.0825
X7.2008Y-4.498
X7.2008Y-4.1278
X7.2047Y-3.1969
X7.2047Y-4.7638
X7.2362Y-4.6417
X7.2441Y-2.0866
X7.2441Y-4.4882
X7.2441Y-5.7313
X7.2473Y-4.0796
X7.2498Y-4.3455
X7.2773Y-4.3096
X7.2816Y-4.2145
X7.2832Y-4.1099
X7.2835Y-4.5531
X7.2835Y-4.9606
X7.2835Y-5.7313
X7.2854Y-3.124
X7.2874Y-4.7323
X7.2964Y-4.2686
X7.297Y-3.1636
X7.3031Y-4.5079
X7.3142Y-4.0711
X7.3228Y-3.7874
X7.3228Y-4.3228
X7.3337Y-4.1462
X7.3346Y-3.2008
X7.3525Y-4.2211
X7.3622Y-5.315
X7.3622Y-5.3543
X7.3634Y-4.1166
X7.3687Y-2.1358
X7.3709Y-4.1797
X7.372Y-3.815
X7.3906Y-4.0327
X7.4026Y-1.9843
X7.4055Y-3.2362
X7.4173Y-3.0945
X7.4242Y-2.1398
X7.4291Y-4.5827
X7.4331Y-3.2047
X7.4331Y-4.7441
X7.437Y-3.1496
X7.4383Y-2.0177
X7.4409Y-5.5512
X7.4409Y-5.5906
X7.4803Y-2.0669
X7.4803Y-4.7441
X7.4828Y-3.9885
X7.5079Y-3.2756
X7.5276Y-3.2047
X7.5315Y-3.1063
X7.5315Y-4.7441
X7.535Y-4.1018
X7.5354Y-3.1535
X7.5591Y-4.1339
X7.5591Y-4.9213
X7.5787Y-2.0669
X7.5885Y-4.2894
X7.6378Y-5.4724
X7.6772Y-5.5118
X7.6824Y-3.3799
X7.7005Y-5.5408
X7.7013Y-3.4344
X7.7126Y-2.0748
X7.7559Y-4.0551
X7.7756Y-2.0472
X7.7953Y-4.9213
X7.874Y-4.252
X7.874Y-4.2913
X7.9528Y-4.685
X7.9921Y-5.0
X7.9921Y-5.0787
X8.0189Y-4.8819
X8.0198Y-4.9581
X8.0315Y-4.685
T3
X6.2457Y-5.4
X6.3457Y-5.4
X6.4457Y-5.4
X6.6Y-5.4
X6.7Y-5.4
X6.8Y-5.4
T4
X4.3Y-2.7
X4.3Y-2.8
X4.3Y-2.9
X4.3Y-3.0
X4.3Y-3.1
X4.3Y-3.2
X4.3Y-3.3
X4.3Y-3.4
X4.3Y-3.5
X4.3Y-3.6
X4.3Y-3.7
X4.3Y-3.8
X4.3Y-3.9
X4.3Y-4.0
X4.3Y-4.1
X4.3Y-4.2
X4.3Y-4.3
X4.75Y-2.9
X4.85Y-2.9
X4.937Y-5.2
X4.937Y-5.3
X4.937Y-5.4
X4.937Y-5.5
X4.95Y-2.9
X5.05Y-2.9
X5.1Y-4.3
X5.1Y-4.8089
X5.1Y-4.9089
X5.1Y-5.0089
X5.1Y-5.1089
X5.1Y-5.2089
X5.1Y-5.3089
X5.1Y-5.4089
X5.1Y-5.5089
X5.2Y-4.3
X5.3Y-4.3
X5.4Y-2.5
X5.4Y-2.6
X5.4Y-2.7
X5.4Y-2.8
X5.4Y-2.9
X5.4Y-3.0
X5.4Y-3.1
X5.4Y-3.2
X5.4Y-3.3
X5.4Y-3.4
X5.4Y-3.5
X5.4Y-3.6
X5.4Y-3.7
X5.4Y-4.3
X5.6Y-2.1
X5.6Y-2.2
X5.6Y-2.3
X5.6Y-2.4
X5.6Y-2.6
X5.6Y-2.7
X5.6Y-2.8
X5.6Y-2.9
X5.6Y-3.1
X5.6Y-3.2
X5.6Y-3.3
X5.6Y-3.4
X5.6Y-4.3
X5.7Y-2.1
X5.7Y-2.2
X5.7Y-2.3
X5.7Y-2.4
X5.7Y-2.6
X5.7Y-2.7
X5.7Y-2.8
X5.7Y-2.9
X5.7Y-3.1
X5.7Y-3.2
X5.7Y-3.3
X5.7Y-3.4
X5.7Y-4.3
X5.8Y-4.3
X5.8937Y-3.3
X5.8937Y-3.4
X5.9Y-4.3
X6.0Y-2.2
X6.0Y-2.3
X6.0Y-2.4
X6.0Y-2.5
X6.0Y-2.6
X6.0Y-2.7
X6.0Y-2.8
X6.0Y-2.9
X6.0Y-4.3
X6.0Y-4.8089
X6.0Y-4.9089
X6.0Y-5.0089
X6.0Y-5.1089
X6.0Y-5.2089
X6.0Y-5.3089
X6.0Y-5.4089
X6.0Y-5.5089
X6.1Y-2.2
X6.1Y-2.3
X6.1Y-2.4
X6.1Y-2.5
X6.1Y-2.6
X6.1Y-2.7
X6.1Y-2.8
X6.1Y-2.9
X6.3Y-4.7
X6.3Y-4.8
X6.4Y-2.2
X6.4Y-2.3
X6.4Y-2.4
X6.4Y-2.5
X6.4Y-2.6
X6.4Y-2.7
X6.4Y-2.8
X6.4Y-2.9
X6.4Y-4.7
X6.4Y-4.8
X6.5Y-2.2
X6.5Y-2.3
X6.5Y-2.4
X6.5Y-2.5
X6.5Y-2.6
X6.5Y-2.7
X6.5Y-2.8
X6.5Y-2.9
X6.5Y-4.7
X6.5Y-4.8
X6.6Y-4.8
X6.6Y-4.7
X6.7Y-4.7
X6.7Y-4.8
X6.8Y-2.2
X6.8Y-2.3
X6.8Y-2.4
X6.8Y-2.5
X6.8Y-2.6
X6.8Y-2.7
X6.8Y-2.8
X6.8Y-2.9
X6.8Y-4.7
X6.8Y-4.8
X6.9Y-2.2
X6.9Y-2.3
X6.9Y-2.4
X6.9Y-2.5
X6.9Y-2.6
X6.9Y-2.7
X6.9Y-2.8
X6.9Y-2.9
X7.2Y-2.2
X7.2Y-2.3
X7.2Y-2.4
X7.2Y-2.5
X7.2Y-2.6
X7.2Y-2.7
X7.2Y-2.8
X7.2Y-2.9
X7.3Y-2.2
X7.3Y-2.3
X7.3Y-2.4
X7.3Y-2.5
X7.3Y-2.6
X7.3Y-2.7
X7.3Y-2.8
X7.3Y-2.9
X7.6Y-2.2
X7.6Y-2.3
X7.6Y-2.4
X7.6Y-2.5
X7.6Y-2.6
X7.6Y-2.7
X7.6Y-2.8
X7.6Y-2.9
X7.7Y-2.2
X7.7Y-2.3
X7.7Y-2.4
X7.7Y-2.5
X7.7Y-2.6
X7.7Y-2.7
X7.7Y-2.8
X7.7Y-2.9
X7.7Y-4.4
X7.7Y-4.6
X7.7Y-4.7
X7.7Y-4.8
X7.8Y-3.2
X7.8Y-3.3
X7.8Y-3.4
X7.8Y-4.4
X7.8Y-4.6
X7.8Y-4.7
X7.8Y-4.8
T5
X5.5Y-3.9
X5.5Y-4.0772
X5.7559Y-3.9
X5.7559Y-4.0772
T6
X6.4457Y-5.5035
X6.6Y-5.5035
X6.8Y-5.5035
X7.5Y-5.7
X7.6969Y-5.7
T7
X6.2457Y-5.5035
T2
G00X4.5531Y-5.7431
M15
G01X4.5531Y-5.7844
M16
G05
G00X4.7756Y-5.7431
M15
G01X4.7756Y-5.7844
M16
G05
T4
G00X7.0827Y-5.4291
M15
G01X7.1614Y-5.4291
M16
G05
G00X7.0827Y-5.6654
M15
G01X7.1614Y-5.6654
M16
G05
G00X7.3071Y-5.5866
M15
G01X7.3071Y-5.5079
M16
G05
M30
