%TF.GenerationSoftware,KiCad,Pcbnew,8.0.5*%
%TF.CreationDate,2025-01-18T12:22:11-08:00*%
%TF.ProjectId,dsp3,64737033-2e6b-4696-9361-645f70636258,rev?*%
%TF.SameCoordinates,Original*%
%TF.FileFunction,Copper,L1,Top*%
%TF.FilePolarity,Positive*%
%FSLAX46Y46*%
G04 Gerber Fmt 4.6, Leading zero omitted, Abs format (unit mm)*
G04 Created by KiCad (PCBNEW 8.0.5) date 2025-01-18 12:22:11*
%MOMM*%
%LPD*%
G01*
G04 APERTURE LIST*
G04 Aperture macros list*
%AMRoundRect*
0 Rectangle with rounded corners*
0 $1 Rounding radius*
0 $2 $3 $4 $5 $6 $7 $8 $9 X,Y pos of 4 corners*
0 Add a 4 corners polygon primitive as box body*
4,1,4,$2,$3,$4,$5,$6,$7,$8,$9,$2,$3,0*
0 Add four circle primitives for the rounded corners*
1,1,$1+$1,$2,$3*
1,1,$1+$1,$4,$5*
1,1,$1+$1,$6,$7*
1,1,$1+$1,$8,$9*
0 Add four rect primitives between the rounded corners*
20,1,$1+$1,$2,$3,$4,$5,0*
20,1,$1+$1,$4,$5,$6,$7,0*
20,1,$1+$1,$6,$7,$8,$9,0*
20,1,$1+$1,$8,$9,$2,$3,0*%
%AMRotRect*
0 Rectangle, with rotation*
0 The origin of the aperture is its center*
0 $1 length*
0 $2 width*
0 $3 Rotation angle, in degrees counterclockwise*
0 Add horizontal line*
21,1,$1,$2,0,0,$3*%
G04 Aperture macros list end*
%TA.AperFunction,EtchedComponent*%
%ADD10C,0.000000*%
%TD*%
%TA.AperFunction,SMDPad,CuDef*%
%ADD11RoundRect,0.200000X0.275000X-0.200000X0.275000X0.200000X-0.275000X0.200000X-0.275000X-0.200000X0*%
%TD*%
%TA.AperFunction,SMDPad,CuDef*%
%ADD12RoundRect,0.200000X-0.200000X-0.275000X0.200000X-0.275000X0.200000X0.275000X-0.200000X0.275000X0*%
%TD*%
%TA.AperFunction,SMDPad,CuDef*%
%ADD13RoundRect,0.225000X0.017678X-0.335876X0.335876X-0.017678X-0.017678X0.335876X-0.335876X0.017678X0*%
%TD*%
%TA.AperFunction,SMDPad,CuDef*%
%ADD14RoundRect,0.175000X0.175000X0.325000X-0.175000X0.325000X-0.175000X-0.325000X0.175000X-0.325000X0*%
%TD*%
%TA.AperFunction,SMDPad,CuDef*%
%ADD15RoundRect,0.150000X0.200000X0.150000X-0.200000X0.150000X-0.200000X-0.150000X0.200000X-0.150000X0*%
%TD*%
%TA.AperFunction,SMDPad,CuDef*%
%ADD16RoundRect,0.225000X0.225000X0.250000X-0.225000X0.250000X-0.225000X-0.250000X0.225000X-0.250000X0*%
%TD*%
%TA.AperFunction,SMDPad,CuDef*%
%ADD17RoundRect,0.225000X-0.225000X-0.250000X0.225000X-0.250000X0.225000X0.250000X-0.225000X0.250000X0*%
%TD*%
%TA.AperFunction,SMDPad,CuDef*%
%ADD18RoundRect,0.200000X0.053033X-0.335876X0.335876X-0.053033X-0.053033X0.335876X-0.335876X0.053033X0*%
%TD*%
%TA.AperFunction,ComponentPad*%
%ADD19C,2.000000*%
%TD*%
%TA.AperFunction,ComponentPad*%
%ADD20C,1.600000*%
%TD*%
%TA.AperFunction,ComponentPad*%
%ADD21R,1.700000X1.700000*%
%TD*%
%TA.AperFunction,ComponentPad*%
%ADD22O,1.700000X1.700000*%
%TD*%
%TA.AperFunction,SMDPad,CuDef*%
%ADD23RoundRect,0.225000X-0.017678X0.335876X-0.335876X0.017678X0.017678X-0.335876X0.335876X-0.017678X0*%
%TD*%
%TA.AperFunction,SMDPad,CuDef*%
%ADD24RoundRect,0.225000X-0.250000X0.225000X-0.250000X-0.225000X0.250000X-0.225000X0.250000X0.225000X0*%
%TD*%
%TA.AperFunction,SMDPad,CuDef*%
%ADD25RoundRect,0.218750X0.256250X-0.218750X0.256250X0.218750X-0.256250X0.218750X-0.256250X-0.218750X0*%
%TD*%
%TA.AperFunction,SMDPad,CuDef*%
%ADD26RoundRect,0.150000X0.565685X-0.353553X-0.353553X0.565685X-0.565685X0.353553X0.353553X-0.565685X0*%
%TD*%
%TA.AperFunction,SMDPad,CuDef*%
%ADD27RoundRect,0.200000X-0.335876X-0.053033X-0.053033X-0.335876X0.335876X0.053033X0.053033X0.335876X0*%
%TD*%
%TA.AperFunction,SMDPad,CuDef*%
%ADD28RoundRect,0.200000X0.200000X0.275000X-0.200000X0.275000X-0.200000X-0.275000X0.200000X-0.275000X0*%
%TD*%
%TA.AperFunction,ComponentPad*%
%ADD29RoundRect,0.250000X-0.600000X-0.600000X0.600000X-0.600000X0.600000X0.600000X-0.600000X0.600000X0*%
%TD*%
%TA.AperFunction,ComponentPad*%
%ADD30C,1.700000*%
%TD*%
%TA.AperFunction,SMDPad,CuDef*%
%ADD31RoundRect,0.120000X-0.035355X-0.714178X0.714178X0.035355X0.035355X0.714178X-0.714178X-0.035355X0*%
%TD*%
%TA.AperFunction,SMDPad,CuDef*%
%ADD32RoundRect,0.225000X0.335876X0.017678X0.017678X0.335876X-0.335876X-0.017678X-0.017678X-0.335876X0*%
%TD*%
%TA.AperFunction,SMDPad,CuDef*%
%ADD33RoundRect,0.225000X0.250000X-0.225000X0.250000X0.225000X-0.250000X0.225000X-0.250000X-0.225000X0*%
%TD*%
%TA.AperFunction,SMDPad,CuDef*%
%ADD34RoundRect,0.200000X-0.275000X0.200000X-0.275000X-0.200000X0.275000X-0.200000X0.275000X0.200000X0*%
%TD*%
%TA.AperFunction,SMDPad,CuDef*%
%ADD35RoundRect,0.250000X0.550000X-1.050000X0.550000X1.050000X-0.550000X1.050000X-0.550000X-1.050000X0*%
%TD*%
%TA.AperFunction,ComponentPad*%
%ADD36R,2.000000X2.000000*%
%TD*%
%TA.AperFunction,ComponentPad*%
%ADD37O,2.000000X1.600000*%
%TD*%
%TA.AperFunction,SMDPad,CuDef*%
%ADD38RoundRect,0.250000X-0.550000X1.050000X-0.550000X-1.050000X0.550000X-1.050000X0.550000X1.050000X0*%
%TD*%
%TA.AperFunction,SMDPad,CuDef*%
%ADD39RoundRect,0.250000X0.450000X-0.262500X0.450000X0.262500X-0.450000X0.262500X-0.450000X-0.262500X0*%
%TD*%
%TA.AperFunction,SMDPad,CuDef*%
%ADD40RoundRect,0.250000X-1.000000X-0.900000X1.000000X-0.900000X1.000000X0.900000X-1.000000X0.900000X0*%
%TD*%
%TA.AperFunction,SMDPad,CuDef*%
%ADD41RoundRect,0.120000X0.530000X0.480000X-0.530000X0.480000X-0.530000X-0.480000X0.530000X-0.480000X0*%
%TD*%
%TA.AperFunction,ComponentPad*%
%ADD42R,3.500000X3.500000*%
%TD*%
%TA.AperFunction,ComponentPad*%
%ADD43RoundRect,0.750000X1.000000X-0.750000X1.000000X0.750000X-1.000000X0.750000X-1.000000X-0.750000X0*%
%TD*%
%TA.AperFunction,ComponentPad*%
%ADD44RoundRect,0.875000X0.875000X-0.875000X0.875000X0.875000X-0.875000X0.875000X-0.875000X-0.875000X0*%
%TD*%
%TA.AperFunction,SMDPad,CuDef*%
%ADD45RoundRect,0.062500X-0.220971X-0.309359X0.309359X0.220971X0.220971X0.309359X-0.309359X-0.220971X0*%
%TD*%
%TA.AperFunction,SMDPad,CuDef*%
%ADD46RoundRect,0.062500X0.220971X-0.309359X0.309359X-0.220971X-0.220971X0.309359X-0.309359X0.220971X0*%
%TD*%
%TA.AperFunction,HeatsinkPad*%
%ADD47RotRect,5.300000X5.300000X45.000000*%
%TD*%
%TA.AperFunction,SMDPad,CuDef*%
%ADD48R,1.500000X1.000000*%
%TD*%
%TA.AperFunction,SMDPad,CuDef*%
%ADD49RoundRect,0.250000X0.262500X0.450000X-0.262500X0.450000X-0.262500X-0.450000X0.262500X-0.450000X0*%
%TD*%
%TA.AperFunction,SMDPad,CuDef*%
%ADD50RoundRect,0.225000X-0.335876X-0.017678X-0.017678X-0.335876X0.335876X0.017678X0.017678X0.335876X0*%
%TD*%
%TA.AperFunction,SMDPad,CuDef*%
%ADD51RoundRect,0.250000X1.000000X0.900000X-1.000000X0.900000X-1.000000X-0.900000X1.000000X-0.900000X0*%
%TD*%
%TA.AperFunction,SMDPad,CuDef*%
%ADD52RoundRect,0.150000X0.650000X0.150000X-0.650000X0.150000X-0.650000X-0.150000X0.650000X-0.150000X0*%
%TD*%
%TA.AperFunction,SMDPad,CuDef*%
%ADD53RoundRect,0.375000X0.176777X0.707107X-0.707107X-0.176777X-0.176777X-0.707107X0.707107X0.176777X0*%
%TD*%
%TA.AperFunction,SMDPad,CuDef*%
%ADD54RoundRect,0.500000X-0.636396X1.343503X-1.343503X0.636396X0.636396X-1.343503X1.343503X-0.636396X0*%
%TD*%
%TA.AperFunction,SMDPad,CuDef*%
%ADD55RoundRect,0.200000X0.335876X0.053033X0.053033X0.335876X-0.335876X-0.053033X-0.053033X-0.335876X0*%
%TD*%
%TA.AperFunction,SMDPad,CuDef*%
%ADD56RoundRect,0.375000X0.625000X0.375000X-0.625000X0.375000X-0.625000X-0.375000X0.625000X-0.375000X0*%
%TD*%
%TA.AperFunction,SMDPad,CuDef*%
%ADD57RoundRect,0.500000X0.500000X1.400000X-0.500000X1.400000X-0.500000X-1.400000X0.500000X-1.400000X0*%
%TD*%
%TA.AperFunction,SMDPad,CuDef*%
%ADD58RoundRect,0.375000X0.375000X-0.625000X0.375000X0.625000X-0.375000X0.625000X-0.375000X-0.625000X0*%
%TD*%
%TA.AperFunction,SMDPad,CuDef*%
%ADD59RoundRect,0.500000X1.400000X-0.500000X1.400000X0.500000X-1.400000X0.500000X-1.400000X-0.500000X0*%
%TD*%
%TA.AperFunction,SMDPad,CuDef*%
%ADD60RoundRect,0.100000X-0.100000X-0.950000X0.100000X-0.950000X0.100000X0.950000X-0.100000X0.950000X0*%
%TD*%
%TA.AperFunction,SMDPad,CuDef*%
%ADD61R,1.350000X1.000000*%
%TD*%
%TA.AperFunction,ComponentPad*%
%ADD62O,1.050000X2.150000*%
%TD*%
%TA.AperFunction,SMDPad,CuDef*%
%ADD63RoundRect,0.190000X-0.760000X-0.810000X0.760000X-0.810000X0.760000X0.810000X-0.760000X0.810000X0*%
%TD*%
%TA.AperFunction,ComponentPad*%
%ADD64C,2.500000*%
%TD*%
%TA.AperFunction,SMDPad,CuDef*%
%ADD65RoundRect,0.250000X-0.325000X-0.450000X0.325000X-0.450000X0.325000X0.450000X-0.325000X0.450000X0*%
%TD*%
%TA.AperFunction,SMDPad,CuDef*%
%ADD66RoundRect,0.050000X0.387500X0.050000X-0.387500X0.050000X-0.387500X-0.050000X0.387500X-0.050000X0*%
%TD*%
%TA.AperFunction,SMDPad,CuDef*%
%ADD67RoundRect,0.050000X0.050000X0.387500X-0.050000X0.387500X-0.050000X-0.387500X0.050000X-0.387500X0*%
%TD*%
%TA.AperFunction,HeatsinkPad*%
%ADD68R,3.200000X3.200000*%
%TD*%
%TA.AperFunction,SMDPad,CuDef*%
%ADD69RoundRect,0.200000X-0.053033X0.335876X-0.335876X0.053033X0.053033X-0.335876X0.335876X-0.053033X0*%
%TD*%
%TA.AperFunction,SMDPad,CuDef*%
%ADD70RoundRect,0.150000X0.150000X-0.650000X0.150000X0.650000X-0.150000X0.650000X-0.150000X-0.650000X0*%
%TD*%
%TA.AperFunction,SMDPad,CuDef*%
%ADD71RoundRect,0.250000X-1.050000X-0.550000X1.050000X-0.550000X1.050000X0.550000X-1.050000X0.550000X0*%
%TD*%
%TA.AperFunction,SMDPad,CuDef*%
%ADD72RoundRect,0.218750X-0.256250X0.218750X-0.256250X-0.218750X0.256250X-0.218750X0.256250X0.218750X0*%
%TD*%
%TA.AperFunction,SMDPad,CuDef*%
%ADD73RoundRect,0.250000X0.132583X-0.503814X0.503814X-0.132583X-0.132583X0.503814X-0.503814X0.132583X0*%
%TD*%
%TA.AperFunction,ViaPad*%
%ADD74C,0.800000*%
%TD*%
%TA.AperFunction,Conductor*%
%ADD75C,1.000000*%
%TD*%
%TA.AperFunction,Conductor*%
%ADD76C,0.200000*%
%TD*%
%TA.AperFunction,Conductor*%
%ADD77C,0.250000*%
%TD*%
%TA.AperFunction,Conductor*%
%ADD78C,0.500000*%
%TD*%
%TA.AperFunction,Conductor*%
%ADD79C,0.400000*%
%TD*%
%TA.AperFunction,Conductor*%
%ADD80C,0.160000*%
%TD*%
G04 APERTURE END LIST*
D10*
%TA.AperFunction,EtchedComponent*%
%TO.C,JP1*%
G36*
X143000000Y-91899999D02*
G01*
X142400000Y-91899999D01*
X142400000Y-91399999D01*
X143000000Y-91399999D01*
X143000000Y-91899999D01*
G37*
%TD.AperFunction*%
%TA.AperFunction,EtchedComponent*%
%TO.C,JP2*%
G36*
X145700000Y-91899999D02*
G01*
X145100000Y-91899999D01*
X145100000Y-91399999D01*
X145700000Y-91399999D01*
X145700000Y-91899999D01*
G37*
%TD.AperFunction*%
%TA.AperFunction,EtchedComponent*%
%TO.C,JP3*%
G36*
X148300000Y-91899999D02*
G01*
X147700000Y-91899999D01*
X147700000Y-91399999D01*
X148300000Y-91399999D01*
X148300000Y-91899999D01*
G37*
%TD.AperFunction*%
%TD*%
D11*
%TO.P,R16,1*%
%TO.N,/DSP/MCLK3*%
X194600000Y-95600000D03*
%TO.P,R16,2*%
%TO.N,Net-(J4-Pin_15)*%
X194600000Y-93950000D03*
%TD*%
D12*
%TO.P,R24,1*%
%TO.N,V33*%
X194175000Y-109000000D03*
%TO.P,R24,2*%
%TO.N,/DSP/SELFBOOT*%
X195825000Y-109000000D03*
%TD*%
D11*
%TO.P,R12,1*%
%TO.N,/DSP/MCLK2*%
X196200000Y-95600000D03*
%TO.P,R12,2*%
%TO.N,Net-(J3-Pin_15)*%
X196200000Y-93950000D03*
%TD*%
D13*
%TO.P,C31,1*%
%TO.N,Net-(C31-Pad1)*%
X158250000Y-99500000D03*
%TO.P,C31,2*%
%TO.N,GND*%
X159346016Y-98403984D03*
%TD*%
D11*
%TO.P,R26,1*%
%TO.N,/DSP/MCLK4*%
X193000000Y-95600000D03*
%TO.P,R26,2*%
%TO.N,Net-(J7-Pin_15)*%
X193000000Y-93950000D03*
%TD*%
D14*
%TO.P,U8,1,GND*%
%TO.N,GND*%
X182600000Y-119500000D03*
D15*
%TO.P,U8,2,~{RESET}*%
%TO.N,/DSP/~{DSPRESET_SUPERVISED}*%
X182600000Y-117800000D03*
%TO.P,U8,3,~{MR}*%
%TO.N,/DSP/~{DSPRESET}*%
X180600000Y-117800000D03*
%TO.P,U8,4,VCC*%
%TO.N,V33*%
X180600000Y-119700000D03*
%TD*%
D16*
%TO.P,C49,1*%
%TO.N,/rp2040/PI_3V3*%
X124000000Y-80700000D03*
%TO.P,C49,2*%
%TO.N,GND*%
X122450000Y-80700000D03*
%TD*%
D17*
%TO.P,C3,1*%
%TO.N,V33*%
X169025000Y-134800000D03*
%TO.P,C3,2*%
%TO.N,GND*%
X170575000Y-134800000D03*
%TD*%
D18*
%TO.P,R10,1*%
%TO.N,/DSP/I2S2_SCLK*%
X181693934Y-88627386D03*
%TO.P,R10,2*%
%TO.N,Net-(J3-Pin_7)*%
X182860660Y-87460660D03*
%TD*%
D19*
%TO.P,U7,*%
%TO.N,*%
X163720000Y-139790000D03*
X158640000Y-139790000D03*
D20*
%TO.P,U7,1,VOUT*%
%TO.N,Net-(U7-VOUT)*%
X163720000Y-137160000D03*
%TO.P,U7,2,GND*%
%TO.N,GND*%
X161180000Y-137160000D03*
%TO.P,U7,3,VCC*%
%TO.N,Net-(U7-VCC)*%
X158640000Y-137160000D03*
%TD*%
D21*
%TO.P,J5,1,Pin_1*%
%TO.N,GND*%
X142240000Y-109220000D03*
D22*
%TO.P,J5,2,Pin_2*%
%TO.N,/ESP8266/MCU_V33*%
X144780000Y-109220000D03*
%TO.P,J5,3,Pin_3*%
%TO.N,/ESP8266/SW*%
X147319999Y-109220000D03*
%TO.P,J5,4,Pin_4*%
%TO.N,/ESP8266/ENCODER2*%
X149860000Y-109220000D03*
%TO.P,J5,5,Pin_5*%
%TO.N,/ESP8266/ENCODER1*%
X152400000Y-109220000D03*
%TD*%
D23*
%TO.P,C15,1*%
%TO.N,/DSP/DVDD*%
X165848008Y-95851992D03*
%TO.P,C15,2*%
%TO.N,GND*%
X164751992Y-96948008D03*
%TD*%
D24*
%TO.P,C36,1*%
%TO.N,V33*%
X185000000Y-117225000D03*
%TO.P,C36,2*%
%TO.N,GND*%
X185000000Y-118775000D03*
%TD*%
D18*
%TO.P,R14,1*%
%TO.N,/DSP/I2S3_SCLK*%
X178400000Y-85300000D03*
%TO.P,R14,2*%
%TO.N,Net-(J4-Pin_7)*%
X179566726Y-84133274D03*
%TD*%
D24*
%TO.P,C38,1*%
%TO.N,GND*%
X160720000Y-133000000D03*
%TO.P,C38,2*%
%TO.N,Net-(U7-VCC)*%
X160720000Y-134550000D03*
%TD*%
D21*
%TO.P,J20,1,Pin_1*%
%TO.N,/DSP/THD_M*%
X149700000Y-83820000D03*
D22*
%TO.P,J20,2,Pin_2*%
%TO.N,/DSP/THD_P*%
X149700000Y-86360000D03*
%TD*%
D17*
%TO.P,C37,1*%
%TO.N,/DSP/SELFBOOT*%
X197225000Y-109000000D03*
%TO.P,C37,2*%
%TO.N,GND*%
X198775000Y-109000000D03*
%TD*%
D18*
%TO.P,R2,1*%
%TO.N,/DSP/I2S0_SCLK*%
X188272614Y-95006066D03*
%TO.P,R2,2*%
%TO.N,Net-(J1-Pin_7)*%
X189439340Y-93839340D03*
%TD*%
D12*
%TO.P,R18,1*%
%TO.N,/ESP8266/MCU_V33*%
X147600000Y-129900000D03*
%TO.P,R18,2*%
%TO.N,/ESP8266/MCU_SDA*%
X149250000Y-129900000D03*
%TD*%
D25*
%TO.P,L4,1,1*%
%TO.N,Net-(U7-VCC)*%
X158720000Y-134575002D03*
%TO.P,L4,2,2*%
%TO.N,V33*%
X158720000Y-133000000D03*
%TD*%
D26*
%TO.P,U2,1,BUF_IN*%
%TO.N,/DSP/MCLK_DSP*%
X196698546Y-106692623D03*
%TO.P,U2,2,OUT1*%
%TO.N,/DSP/MCLK0*%
X197596572Y-105794597D03*
%TO.P,U2,3,OUT2*%
%TO.N,/DSP/MCLK1*%
X198494597Y-104896572D03*
%TO.P,U2,4,GND*%
%TO.N,GND*%
X199392623Y-103998546D03*
%TO.P,U2,5,OUT3*%
%TO.N,/DSP/MCLK2*%
X194301454Y-98907377D03*
%TO.P,U2,6,VDD*%
%TO.N,V33*%
X193403428Y-99805403D03*
%TO.P,U2,7,OUT4*%
%TO.N,/DSP/MCLK3*%
X192505403Y-100703428D03*
%TO.P,U2,8,OUT5*%
%TO.N,/DSP/MCLK4*%
X191607377Y-101601454D03*
%TD*%
D18*
%TO.P,R3,1*%
%TO.N,/DSP/I2S0_LR*%
X189333274Y-96066726D03*
%TO.P,R3,2*%
%TO.N,Net-(J1-Pin_9)*%
X190500000Y-94900000D03*
%TD*%
D27*
%TO.P,R27,1*%
%TO.N,Net-(U1-CLKOUT)*%
X181616637Y-108016637D03*
%TO.P,R27,2*%
%TO.N,/DSP/MCLK_DSP*%
X182783363Y-109183363D03*
%TD*%
D28*
%TO.P,R30,1*%
%TO.N,Net-(D1-K)*%
X183000000Y-124000000D03*
%TO.P,R30,2*%
%TO.N,GND*%
X181350000Y-124000000D03*
%TD*%
D21*
%TO.P,J17,1,Pin_1*%
%TO.N,/rp2040/SWCLK*%
X128270000Y-73660000D03*
D22*
%TO.P,J17,2,Pin_2*%
%TO.N,GND*%
X125730000Y-73660000D03*
%TO.P,J17,3,Pin_3*%
%TO.N,/rp2040/SWD*%
X123190001Y-73660000D03*
%TO.P,J17,4,Pin_4*%
%TO.N,/rp2040/RUN*%
X120650000Y-73660000D03*
%TD*%
D29*
%TO.P,J3,1,Pin_1*%
%TO.N,/RAW_5V*%
X172720000Y-55880000D03*
D30*
%TO.P,J3,2,Pin_2*%
%TO.N,GND*%
X175260000Y-55880000D03*
%TO.P,J3,3,Pin_3*%
%TO.N,/DSP/dspconnector2/TODSP*%
X172720000Y-58420000D03*
%TO.P,J3,4,Pin_4*%
%TO.N,GND*%
X175260000Y-58420000D03*
%TO.P,J3,5,Pin_5*%
%TO.N,Net-(J3-Pin_5)*%
X172720000Y-60960000D03*
%TO.P,J3,6,Pin_6*%
%TO.N,GND*%
X175260000Y-60960000D03*
%TO.P,J3,7,Pin_7*%
%TO.N,Net-(J3-Pin_7)*%
X172720000Y-63500000D03*
%TO.P,J3,8,Pin_8*%
%TO.N,GND*%
X175260000Y-63500000D03*
%TO.P,J3,9,Pin_9*%
%TO.N,Net-(J3-Pin_9)*%
X172720000Y-66040000D03*
%TO.P,J3,10,Pin_10*%
%TO.N,GND*%
X175260000Y-66040000D03*
%TO.P,J3,11,Pin_11*%
%TO.N,/DSP/SDA*%
X172720000Y-68580000D03*
%TO.P,J3,12,Pin_12*%
%TO.N,GND*%
X175260000Y-68580000D03*
%TO.P,J3,13,Pin_13*%
%TO.N,/DSP/SCL*%
X172720000Y-71120000D03*
%TO.P,J3,14,Pin_14*%
%TO.N,GND*%
X175260000Y-71120000D03*
%TO.P,J3,15,Pin_15*%
%TO.N,Net-(J3-Pin_15)*%
X172720000Y-73660000D03*
%TO.P,J3,16,Pin_16*%
%TO.N,GND*%
X175260000Y-73660000D03*
%TD*%
D31*
%TO.P,U9,1,EN*%
%TO.N,V33*%
X179515075Y-113484925D03*
%TO.P,U9,2,GND*%
%TO.N,GND*%
X181000000Y-112000000D03*
%TO.P,U9,3,OUT*%
%TO.N,/DSP/MCLK*%
X179656497Y-110656497D03*
%TO.P,U9,4,VDD*%
%TO.N,V33*%
X178171572Y-112141422D03*
%TD*%
D13*
%TO.P,C23,1*%
%TO.N,V33*%
X171750000Y-112000000D03*
%TO.P,C23,2*%
%TO.N,Net-(U1-PLLFILT)*%
X172846016Y-110903984D03*
%TD*%
D17*
%TO.P,C44,1*%
%TO.N,/rp2040/PI_3V3*%
X127450000Y-97100000D03*
%TO.P,C44,2*%
%TO.N,GND*%
X129000000Y-97100000D03*
%TD*%
D29*
%TO.P,J1,1,Pin_1*%
%TO.N,/RAW_5V*%
X193040000Y-55880000D03*
D30*
%TO.P,J1,2,Pin_2*%
%TO.N,GND*%
X195580000Y-55880000D03*
%TO.P,J1,3,Pin_3*%
%TO.N,/DSP/dspconnector/TODSP*%
X193040000Y-58420000D03*
%TO.P,J1,4,Pin_4*%
%TO.N,GND*%
X195580000Y-58420000D03*
%TO.P,J1,5,Pin_5*%
%TO.N,Net-(J1-Pin_5)*%
X193040000Y-60960000D03*
%TO.P,J1,6,Pin_6*%
%TO.N,GND*%
X195580000Y-60960000D03*
%TO.P,J1,7,Pin_7*%
%TO.N,Net-(J1-Pin_7)*%
X193040000Y-63500000D03*
%TO.P,J1,8,Pin_8*%
%TO.N,GND*%
X195580000Y-63500000D03*
%TO.P,J1,9,Pin_9*%
%TO.N,Net-(J1-Pin_9)*%
X193040000Y-66040000D03*
%TO.P,J1,10,Pin_10*%
%TO.N,GND*%
X195580000Y-66040000D03*
%TO.P,J1,11,Pin_11*%
%TO.N,/DSP/SDA*%
X193040000Y-68580000D03*
%TO.P,J1,12,Pin_12*%
%TO.N,GND*%
X195580000Y-68580000D03*
%TO.P,J1,13,Pin_13*%
%TO.N,/DSP/SCL*%
X193040000Y-71120000D03*
%TO.P,J1,14,Pin_14*%
%TO.N,GND*%
X195580000Y-71120000D03*
%TO.P,J1,15,Pin_15*%
%TO.N,Net-(J1-Pin_15)*%
X193040000Y-73660000D03*
%TO.P,J1,16,Pin_16*%
%TO.N,GND*%
X195580000Y-73660000D03*
%TD*%
D32*
%TO.P,C10,1*%
%TO.N,V33*%
X168600000Y-113800000D03*
%TO.P,C10,2*%
%TO.N,GND*%
X167503984Y-112703984D03*
%TD*%
D33*
%TO.P,C55,1*%
%TO.N,Net-(U3-5V)*%
X146000000Y-139775000D03*
%TO.P,C55,2*%
%TO.N,GND*%
X146000000Y-138225000D03*
%TD*%
D21*
%TO.P,J13,1,Pin_1*%
%TO.N,/DSP/SELFBOOT*%
X198120000Y-111760000D03*
D22*
%TO.P,J13,2,Pin_2*%
%TO.N,GND*%
X195580000Y-111760000D03*
%TD*%
D34*
%TO.P,R33,1*%
%TO.N,/rp2040/PI_3V3*%
X136200000Y-98300000D03*
%TO.P,R33,2*%
%TO.N,/rp2040/QSPI_SS*%
X136200000Y-99950000D03*
%TD*%
D29*
%TO.P,J2,1,Pin_1*%
%TO.N,/RAW_5V*%
X182880000Y-55880000D03*
D30*
%TO.P,J2,2,Pin_2*%
%TO.N,GND*%
X185420000Y-55880000D03*
%TO.P,J2,3,Pin_3*%
%TO.N,/DSP/dspconnector1/TODSP*%
X182880000Y-58420000D03*
%TO.P,J2,4,Pin_4*%
%TO.N,GND*%
X185420000Y-58420000D03*
%TO.P,J2,5,Pin_5*%
%TO.N,Net-(J2-Pin_5)*%
X182880000Y-60959999D03*
%TO.P,J2,6,Pin_6*%
%TO.N,GND*%
X185420000Y-60960000D03*
%TO.P,J2,7,Pin_7*%
%TO.N,Net-(J2-Pin_7)*%
X182880000Y-63500000D03*
%TO.P,J2,8,Pin_8*%
%TO.N,GND*%
X185420000Y-63500000D03*
%TO.P,J2,9,Pin_9*%
%TO.N,Net-(J2-Pin_9)*%
X182880000Y-66040000D03*
%TO.P,J2,10,Pin_10*%
%TO.N,GND*%
X185420000Y-66040000D03*
%TO.P,J2,11,Pin_11*%
%TO.N,/DSP/SDA*%
X182880000Y-68580000D03*
%TO.P,J2,12,Pin_12*%
%TO.N,GND*%
X185420000Y-68580000D03*
%TO.P,J2,13,Pin_13*%
%TO.N,/DSP/SCL*%
X182880000Y-71120000D03*
%TO.P,J2,14,Pin_14*%
%TO.N,GND*%
X185420000Y-71120000D03*
%TO.P,J2,15,Pin_15*%
%TO.N,Net-(J2-Pin_15)*%
X182880000Y-73660001D03*
%TO.P,J2,16,Pin_16*%
%TO.N,GND*%
X185420000Y-73660000D03*
%TD*%
D35*
%TO.P,C53,1*%
%TO.N,Net-(U3-5V)*%
X142000000Y-140800000D03*
%TO.P,C53,2*%
%TO.N,GND*%
X142000000Y-137200000D03*
%TD*%
D24*
%TO.P,C48,1*%
%TO.N,/rp2040/PI_3V3*%
X117100000Y-98800000D03*
%TO.P,C48,2*%
%TO.N,GND*%
X117100000Y-100350000D03*
%TD*%
D36*
%TO.P,U3,1,~{RST}*%
%TO.N,unconnected-(U3-~{RST}-Pad1)*%
X129540000Y-122144999D03*
D37*
%TO.P,U3,2,A0*%
%TO.N,/ESP8266/A0*%
X129540000Y-124684999D03*
%TO.P,U3,3,D0*%
%TO.N,/ESP8266/D0*%
X129540000Y-127224998D03*
%TO.P,U3,4,SCK/D5*%
%TO.N,/ESP8266/ENCODER1*%
X129540000Y-129764999D03*
%TO.P,U3,5,MISO/D6*%
%TO.N,/ESP8266/ENCODER2*%
X129540000Y-132304999D03*
%TO.P,U3,6,MOSI/D7*%
%TO.N,/DSP/~{DSPRESET}*%
X129540000Y-134844999D03*
%TO.P,U3,7,CS/D8*%
%TO.N,/ESP8266/D8*%
X129540000Y-137384999D03*
%TO.P,U3,8,3V3*%
%TO.N,/ESP8266/MCU_V33*%
X129540000Y-139925000D03*
%TO.P,U3,9,5V*%
%TO.N,Net-(U3-5V)*%
X152400000Y-139925000D03*
%TO.P,U3,10,GND*%
%TO.N,GND*%
X152400000Y-137384999D03*
%TO.P,U3,11,D4*%
%TO.N,/ESP8266/D4*%
X152400000Y-134844999D03*
%TO.P,U3,12,D3*%
%TO.N,/ESP8266/SW*%
X152400000Y-132304999D03*
%TO.P,U3,13,SDA/D2*%
%TO.N,/ESP8266/MCU_SDA*%
X152400000Y-129764999D03*
%TO.P,U3,14,SCL/D1*%
%TO.N,/ESP8266/MCU_SCL*%
X152400000Y-127224998D03*
%TO.P,U3,15,RX*%
%TO.N,unconnected-(U3-RX-Pad15)*%
X152400000Y-124684999D03*
%TO.P,U3,16,TX*%
%TO.N,unconnected-(U3-TX-Pad16)*%
X152400000Y-122144999D03*
%TD*%
D38*
%TO.P,C27,1*%
%TO.N,/RAW_5V*%
X192000000Y-135000000D03*
%TO.P,C27,2*%
%TO.N,GND*%
X192000000Y-138600000D03*
%TD*%
D39*
%TO.P,FB4,1*%
%TO.N,Net-(D6-K)*%
X137000000Y-139825000D03*
%TO.P,FB4,2*%
%TO.N,Net-(U3-5V)*%
X137000000Y-138000000D03*
%TD*%
D40*
%TO.P,D3,1,K*%
%TO.N,Net-(D3-K)*%
X198699998Y-136000000D03*
%TO.P,D3,2,A*%
%TO.N,Net-(D3-A)*%
X203000000Y-136000000D03*
%TD*%
D41*
%TO.P,U12,1,EN*%
%TO.N,/rp2040/PI_3V3*%
X124300000Y-82700000D03*
%TO.P,U12,2,GND*%
%TO.N,GND*%
X122199998Y-82700000D03*
%TO.P,U12,3,OUT*%
%TO.N,Net-(U12-OUT)*%
X122199998Y-84600000D03*
%TO.P,U12,4,VDD*%
%TO.N,/rp2040/PI_3V3*%
X124300000Y-84600000D03*
%TD*%
D42*
%TO.P,J21,1*%
%TO.N,Net-(D3-A)*%
X180900000Y-137900000D03*
D43*
%TO.P,J21,2*%
%TO.N,GND*%
X180900000Y-143900000D03*
D44*
%TO.P,J21,3*%
%TO.N,N/C*%
X185600000Y-140900000D03*
%TD*%
D45*
%TO.P,U1,1,DGND*%
%TO.N,GND*%
X169000298Y-99486136D03*
%TO.P,U1,2,IOVDD*%
%TO.N,V33*%
X169353852Y-99839689D03*
%TO.P,U1,3,VDRIVE*%
%TO.N,/DSP/VDRIVE*%
X169707405Y-100193243D03*
%TO.P,U1,4,SPDIFIN*%
%TO.N,/DSP/SPDIFIN*%
X170060959Y-100546796D03*
%TO.P,U1,5,SPDIFOUT*%
%TO.N,/DSP/SPDIFOUT*%
X170414512Y-100900349D03*
%TO.P,U1,6,AGND*%
%TO.N,GND*%
X170768065Y-101253903D03*
%TO.P,U1,7,AVDD*%
%TO.N,/DSP/AVDD*%
X171121619Y-101607456D03*
%TO.P,U1,8,AUXADC0*%
%TO.N,/DSP/AUXADC0*%
X171475172Y-101961010D03*
%TO.P,U1,9,AUXADC1*%
%TO.N,/DSP/AUXADC1*%
X171828726Y-102314563D03*
%TO.P,U1,10,AUXADC2*%
%TO.N,/DSP/AUXADC2*%
X172182279Y-102668116D03*
%TO.P,U1,11,AUXADC3*%
%TO.N,/DSP/AUXADC3*%
X172535832Y-103021670D03*
%TO.P,U1,12,AUXADC4*%
%TO.N,/DSP/AUXADC4*%
X172889386Y-103375223D03*
%TO.P,U1,13,AUXADC5*%
%TO.N,/DSP/AUXADC5*%
X173242939Y-103728777D03*
%TO.P,U1,14,PGND*%
%TO.N,GND*%
X173596493Y-104082330D03*
%TO.P,U1,15,PVDD*%
%TO.N,V33*%
X173950046Y-104435883D03*
%TO.P,U1,16,PLLFILT*%
%TO.N,Net-(U1-PLLFILT)*%
X174303599Y-104789437D03*
%TO.P,U1,17,DGND*%
%TO.N,GND*%
X174657153Y-105142990D03*
%TO.P,U1,18,IOVDD*%
%TO.N,V33*%
X175010706Y-105496544D03*
D46*
%TO.P,U1,19,DGND*%
%TO.N,GND*%
X175982978Y-105496544D03*
%TO.P,U1,20,DVDD*%
%TO.N,/DSP/DVDD*%
X176336531Y-105142990D03*
%TO.P,U1,21,XTALIN/MCLK*%
%TO.N,Net-(U1-XTALIN{slash}MCLK)*%
X176690085Y-104789437D03*
%TO.P,U1,22,XTALOUT*%
%TO.N,/DSP/XTALOUT*%
X177043638Y-104435883D03*
%TO.P,U1,23,CLKOUT*%
%TO.N,Net-(U1-CLKOUT)*%
X177397191Y-104082330D03*
%TO.P,U1,24,~{RESET}*%
%TO.N,/DSP/~{DSPRESET_SUPERVISED}*%
X177750745Y-103728777D03*
%TO.P,U1,25,DGND*%
%TO.N,GND*%
X178104298Y-103375223D03*
%TO.P,U1,26,SS_M/MP0*%
%TO.N,Net-(U1-SS_M{slash}MP0)*%
X178457852Y-103021670D03*
%TO.P,U1,27,MOSI_M/MP1*%
%TO.N,unconnected-(U1-MOSI_M{slash}MP1-Pad27)*%
X178811405Y-102668116D03*
%TO.P,U1,28,SCL_M/SCLK_M/MP2*%
%TO.N,/DSP/SCL_M*%
X179164958Y-102314563D03*
%TO.P,U1,29,SDA_M/MISO_M/MP3*%
%TO.N,/DSP/SDA_M*%
X179518512Y-101961010D03*
%TO.P,U1,30,MISO/SDA*%
%TO.N,/DSP/SDA*%
X179872065Y-101607456D03*
%TO.P,U1,31,SCLK/SCL*%
%TO.N,/DSP/SCL*%
X180225619Y-101253903D03*
%TO.P,U1,32,MOSI/ADDR1*%
%TO.N,/DSP/I2CADDR1*%
X180579172Y-100900349D03*
%TO.P,U1,33,SS/ADDR0*%
%TO.N,/DSP/I2CADDR0*%
X180932725Y-100546796D03*
%TO.P,U1,34,SELFBOOT*%
%TO.N,/DSP/SELFBOOT*%
X181286279Y-100193243D03*
%TO.P,U1,35,DVDD*%
%TO.N,/DSP/DVDD*%
X181639832Y-99839689D03*
%TO.P,U1,36,DGND*%
%TO.N,GND*%
X181993386Y-99486136D03*
D45*
%TO.P,U1,37,DGND*%
X181993386Y-98513864D03*
%TO.P,U1,38,IOVDD*%
%TO.N,V33*%
X181639832Y-98160311D03*
%TO.P,U1,39,LRCLK_OUT0/MP4*%
%TO.N,/DSP/I2S0_LR*%
X181286279Y-97806757D03*
%TO.P,U1,40,BCLK_OUT0*%
%TO.N,/DSP/I2S0_SCLK*%
X180932725Y-97453204D03*
%TO.P,U1,41,SDATA_OUT0*%
%TO.N,/DSP/I2S0_SDAT*%
X180579172Y-97099651D03*
%TO.P,U1,42,LRCLK_OUT1/MP5*%
%TO.N,/DSP/I2S1_LR*%
X180225619Y-96746097D03*
%TO.P,U1,43,BCLK_OUT1*%
%TO.N,/DSP/I2S1_SCLK*%
X179872065Y-96392544D03*
%TO.P,U1,44,SDATA_OUT1*%
%TO.N,/DSP/I2S1_SDAT*%
X179518512Y-96038990D03*
%TO.P,U1,45,MP6*%
%TO.N,/DSP/MP6*%
X179164958Y-95685437D03*
%TO.P,U1,46,MP7*%
%TO.N,/DSP/MP7*%
X178811405Y-95331884D03*
%TO.P,U1,47,LRCLK_OUT2/MP8*%
%TO.N,/DSP/I2S2_LR*%
X178457852Y-94978330D03*
%TO.P,U1,48,BCLK_OUT2*%
%TO.N,/DSP/I2S2_SCLK*%
X178104298Y-94624777D03*
%TO.P,U1,49,SDATA_OUT2*%
%TO.N,/DSP/I2S2_SDAT*%
X177750745Y-94271223D03*
%TO.P,U1,50,LRCLK_OUT3/MP9*%
%TO.N,/DSP/I2S3_LR*%
X177397191Y-93917670D03*
%TO.P,U1,51,BCLK_OUT3*%
%TO.N,/DSP/I2S3_SCLK*%
X177043638Y-93564117D03*
%TO.P,U1,52,SDATA_OUT3*%
%TO.N,/DSP/I2S3_SDAT*%
X176690085Y-93210563D03*
%TO.P,U1,53,DVDD*%
%TO.N,/DSP/DVDD*%
X176336531Y-92857010D03*
%TO.P,U1,54,DGND*%
%TO.N,GND*%
X175982978Y-92503456D03*
D46*
%TO.P,U1,55,DGND*%
X175010706Y-92503456D03*
%TO.P,U1,56,IOVDD*%
%TO.N,V33*%
X174657153Y-92857010D03*
%TO.P,U1,57,BCLK_IN0*%
%TO.N,/DSP/I2SIN0_SCLK*%
X174303599Y-93210563D03*
%TO.P,U1,58,LRCLK_IN0/MP10*%
%TO.N,/DSP/I2SIN0_LR*%
X173950046Y-93564117D03*
%TO.P,U1,59,SDATA_IN0*%
%TO.N,/DSP/I2SIN0_SDAT*%
X173596493Y-93917670D03*
%TO.P,U1,60,BCLK_IN1*%
%TO.N,/DSP/BCLK_IN1*%
X173242939Y-94271223D03*
%TO.P,U1,61,LRCLK_IN1/MP11*%
%TO.N,/DSP/LRCLK_IN1{slash}MP11*%
X172889386Y-94624777D03*
%TO.P,U1,62,SDATA_IN1*%
%TO.N,/DSP/SDATA_IN1*%
X172535832Y-94978330D03*
%TO.P,U1,63,THD_M*%
%TO.N,/DSP/THD_M*%
X172182279Y-95331884D03*
%TO.P,U1,64,THD_P*%
%TO.N,/DSP/THD_P*%
X171828726Y-95685437D03*
%TO.P,U1,65,BCLK_IN2*%
%TO.N,/DSP/BCLK_IN2*%
X171475172Y-96038990D03*
%TO.P,U1,66,LRCLK_IN2/MP12*%
%TO.N,/DSP/LRCLK_IN2{slash}MP12*%
X171121619Y-96392544D03*
%TO.P,U1,67,SDATA_IN2*%
%TO.N,/DSP/SDATA_IN2*%
X170768065Y-96746097D03*
%TO.P,U1,68,BCLK_IN3*%
%TO.N,/DSP/EXT_BCLK*%
X170414512Y-97099651D03*
%TO.P,U1,69,LRCLK_IN3/MP13*%
%TO.N,/DSP/EXT_LRCLK*%
X170060959Y-97453204D03*
%TO.P,U1,70,SDATA_IN3*%
%TO.N,/DSP/dspconnector_minimal_input3/SDAT*%
X169707405Y-97806757D03*
%TO.P,U1,71,DVDD*%
%TO.N,/DSP/DVDD*%
X169353852Y-98160311D03*
%TO.P,U1,72,DGND*%
%TO.N,GND*%
X169000298Y-98513864D03*
D47*
%TO.P,U1,73,EP*%
X175496842Y-99000000D03*
%TD*%
D48*
%TO.P,JP1,1,A*%
%TO.N,Net-(JP1-A)*%
X142700000Y-92299998D03*
%TO.P,JP1,2,B*%
%TO.N,/DSP/dspconnector_minimal_input3/SDAT*%
X142700000Y-91000000D03*
%TD*%
%TO.P,JP2,1,A*%
%TO.N,Net-(JP2-A)*%
X145400000Y-92299998D03*
%TO.P,JP2,2,B*%
%TO.N,/DSP/EXT_LRCLK*%
X145400000Y-91000000D03*
%TD*%
D49*
%TO.P,FB2,1*%
%TO.N,/DSP/dsp_power/V33_BEFORE_F*%
X178225000Y-130100000D03*
%TO.P,FB2,2*%
%TO.N,V33*%
X176400000Y-130100000D03*
%TD*%
D50*
%TO.P,C24,1*%
%TO.N,V33*%
X170903984Y-113403984D03*
%TO.P,C24,2*%
%TO.N,Net-(C24-Pad2)*%
X172000000Y-114500000D03*
%TD*%
D51*
%TO.P,D4,1,K*%
%TO.N,Net-(D4-K)*%
X114900002Y-128500000D03*
%TO.P,D4,2,A*%
%TO.N,/rp2040/VBUS*%
X110600000Y-128500000D03*
%TD*%
D17*
%TO.P,C28,1*%
%TO.N,/DSP/dsp_power/V33_BEFORE_F*%
X182450000Y-135000000D03*
%TO.P,C28,2*%
%TO.N,GND*%
X184000000Y-135000000D03*
%TD*%
D11*
%TO.P,R37,1*%
%TO.N,/rp2040/GPIO14*%
X146000000Y-95850000D03*
%TO.P,R37,2*%
%TO.N,Net-(JP3-A)*%
X146000000Y-94200000D03*
%TD*%
D33*
%TO.P,C46,1*%
%TO.N,/rp2040/PI_1V1*%
X118400000Y-84000000D03*
%TO.P,C46,2*%
%TO.N,GND*%
X118400000Y-82450000D03*
%TD*%
D50*
%TO.P,C17,1*%
%TO.N,V33*%
X184403984Y-96203984D03*
%TO.P,C17,2*%
%TO.N,GND*%
X185500000Y-97300000D03*
%TD*%
D52*
%TO.P,U13,1,~{CS}*%
%TO.N,/rp2040/QSPI_SS*%
X133100000Y-103410000D03*
%TO.P,U13,2,DO(IO1)*%
%TO.N,/rp2040/QSPI_SD1*%
X133100000Y-102140000D03*
%TO.P,U13,3,IO2*%
%TO.N,/rp2040/QSPI_SD2*%
X133100000Y-100870000D03*
%TO.P,U13,4,GND*%
%TO.N,GND*%
X133100000Y-99600000D03*
%TO.P,U13,5,DI(IO0)*%
%TO.N,/rp2040/QSPI_SD0*%
X125900000Y-99600000D03*
%TO.P,U13,6,CLK*%
%TO.N,/rp2040/QSPI_SCLK*%
X125900000Y-100870000D03*
%TO.P,U13,7,IO3*%
%TO.N,/rp2040/QSPI_SD3*%
X125900000Y-102140000D03*
%TO.P,U13,8,VCC*%
%TO.N,/rp2040/PI_3V3*%
X125900000Y-103410000D03*
%TD*%
D40*
%TO.P,D5,1,K*%
%TO.N,Net-(D4-K)*%
X110700000Y-133600000D03*
%TO.P,D5,2,A*%
%TO.N,/RAW_5V*%
X115000000Y-133600000D03*
%TD*%
D23*
%TO.P,C5,1*%
%TO.N,/DSP/DVDD*%
X177496016Y-107903984D03*
%TO.P,C5,2*%
%TO.N,GND*%
X176400000Y-109000000D03*
%TD*%
D53*
%TO.P,Q1,1,B*%
%TO.N,/DSP/VDRIVE*%
X163750000Y-104250000D03*
%TO.P,Q1,2,C*%
%TO.N,/DSP/DVDD*%
X162123654Y-102623655D03*
D54*
X157668882Y-107078427D03*
D53*
%TO.P,Q1,3,E*%
%TO.N,V33*%
X160497309Y-100997309D03*
%TD*%
D16*
%TO.P,C33,1*%
%TO.N,/rp2040/PI_3V3*%
X114800000Y-96900000D03*
%TO.P,C33,2*%
%TO.N,GND*%
X113250000Y-96900000D03*
%TD*%
D19*
%TO.P,U4,*%
%TO.N,*%
X172720000Y-139790000D03*
X167640000Y-139790000D03*
D20*
%TO.P,U4,1,VIN*%
%TO.N,Net-(U4-VIN)*%
X167640000Y-137160000D03*
%TO.P,U4,2,VCC*%
%TO.N,V33*%
X170180000Y-137160000D03*
%TO.P,U4,3,GND*%
%TO.N,GND*%
X172720000Y-137160000D03*
%TD*%
D28*
%TO.P,R28,1*%
%TO.N,/ESP8266/MCU_SDA*%
X152000000Y-106000000D03*
%TO.P,R28,2*%
%TO.N,/DSP/SDA*%
X150350000Y-106000000D03*
%TD*%
D39*
%TO.P,FB1,1*%
%TO.N,Net-(D3-K)*%
X203000000Y-132000000D03*
%TO.P,FB1,2*%
%TO.N,/RAW_5V*%
X203000000Y-130175000D03*
%TD*%
D11*
%TO.P,R4,1*%
%TO.N,/DSP/MCLK0*%
X200600000Y-99150000D03*
%TO.P,R4,2*%
%TO.N,Net-(J1-Pin_15)*%
X200600000Y-97500000D03*
%TD*%
D55*
%TO.P,R23,1*%
%TO.N,GND*%
X185400000Y-113400000D03*
%TO.P,R23,2*%
%TO.N,Net-(U1-SS_M{slash}MP0)*%
X184233274Y-112233274D03*
%TD*%
D21*
%TO.P,J6,1,Pin_1*%
%TO.N,/ESP8266/MCU_V33*%
X129540000Y-109220000D03*
D22*
%TO.P,J6,2,Pin_2*%
%TO.N,GND*%
X132080000Y-109220000D03*
%TO.P,J6,3,Pin_3*%
%TO.N,/ESP8266/MCU_SCL*%
X134619999Y-109220000D03*
%TO.P,J6,4,Pin_4*%
%TO.N,/ESP8266/MCU_SDA*%
X137160000Y-109220000D03*
%TD*%
D12*
%TO.P,R19,1*%
%TO.N,/ESP8266/MCU_V33*%
X147600000Y-127360000D03*
%TO.P,R19,2*%
%TO.N,/ESP8266/MCU_SCL*%
X149250000Y-127360000D03*
%TD*%
D18*
%TO.P,R7,1*%
%TO.N,/DSP/I2S1_LR*%
X186054594Y-92888046D03*
%TO.P,R7,2*%
%TO.N,Net-(J2-Pin_9)*%
X187221320Y-91721320D03*
%TD*%
D17*
%TO.P,C40,1*%
%TO.N,/rp2040/PI_3V3*%
X127550000Y-92400000D03*
%TO.P,C40,2*%
%TO.N,GND*%
X129100000Y-92400000D03*
%TD*%
D24*
%TO.P,C41,1*%
%TO.N,/rp2040/PI_3V3*%
X121500000Y-102000000D03*
%TO.P,C41,2*%
%TO.N,GND*%
X121500000Y-103550000D03*
%TD*%
D17*
%TO.P,C32,1*%
%TO.N,/rp2040/PI_3V3*%
X109450000Y-113200000D03*
%TO.P,C32,2*%
%TO.N,GND*%
X111000000Y-113200000D03*
%TD*%
D21*
%TO.P,J16,1,Pin_1*%
%TO.N,/DSP/MP6*%
X198120000Y-86359999D03*
D22*
%TO.P,J16,2,Pin_2*%
%TO.N,/DSP/MP7*%
X198120000Y-83819999D03*
%TO.P,J16,3,Pin_3*%
%TO.N,GND*%
X198120000Y-81280000D03*
%TD*%
D34*
%TO.P,R32,1*%
%TO.N,/rp2040/MCU_USB_P*%
X119900000Y-103000000D03*
%TO.P,R32,2*%
%TO.N,/rp2040/USB_D_P*%
X119900000Y-104650000D03*
%TD*%
D11*
%TO.P,R34,1*%
%TO.N,Net-(SW2-B)*%
X136200000Y-103150000D03*
%TO.P,R34,2*%
%TO.N,/rp2040/QSPI_SS*%
X136200000Y-101500000D03*
%TD*%
D24*
%TO.P,C45,1*%
%TO.N,/rp2040/PI_1V1*%
X123100000Y-102000000D03*
%TO.P,C45,2*%
%TO.N,GND*%
X123100000Y-103550000D03*
%TD*%
D21*
%TO.P,J12,1,Pin_1*%
%TO.N,/DSP/AUXADC5*%
X172720000Y-119380000D03*
D22*
%TO.P,J12,2,Pin_2*%
%TO.N,GND*%
X172720000Y-121920000D03*
%TO.P,J12,3,Pin_3*%
%TO.N,/DSP/AUXADC4*%
X170180000Y-119380000D03*
%TO.P,J12,4,Pin_4*%
%TO.N,GND*%
X170180000Y-121920000D03*
%TO.P,J12,5,Pin_5*%
%TO.N,/DSP/AUXADC3*%
X167640001Y-119380000D03*
%TO.P,J12,6,Pin_6*%
%TO.N,GND*%
X167640000Y-121920000D03*
%TO.P,J12,7,Pin_7*%
%TO.N,/DSP/AUXADC2*%
X165100000Y-119380000D03*
%TO.P,J12,8,Pin_8*%
%TO.N,GND*%
X165100000Y-121920000D03*
%TO.P,J12,9,Pin_9*%
%TO.N,/DSP/AUXADC1*%
X162560000Y-119380000D03*
%TO.P,J12,10,Pin_10*%
%TO.N,GND*%
X162560000Y-121920000D03*
%TO.P,J12,11,Pin_11*%
%TO.N,/DSP/AUXADC0*%
X160020000Y-119380000D03*
%TO.P,J12,12,Pin_12*%
%TO.N,GND*%
X160020000Y-121920000D03*
%TD*%
D27*
%TO.P,R38,1*%
%TO.N,V33*%
X187333274Y-110533274D03*
%TO.P,R38,2*%
%TO.N,/DSP/SDA_M*%
X188500000Y-111700000D03*
%TD*%
D56*
%TO.P,U5,1,GND*%
%TO.N,GND*%
X187000000Y-132600000D03*
%TO.P,U5,2,VO*%
%TO.N,/DSP/dsp_power/V33_BEFORE_F*%
X186999999Y-130300000D03*
D57*
X180700001Y-130300000D03*
D56*
%TO.P,U5,3,VI*%
%TO.N,/RAW_5V*%
X187000000Y-128000000D03*
%TD*%
D34*
%TO.P,R25,1*%
%TO.N,/DSP/SPDIFIN*%
X156000000Y-121000000D03*
%TO.P,R25,2*%
%TO.N,Net-(L3-Pad1)*%
X156000000Y-122650000D03*
%TD*%
D18*
%TO.P,R6,1*%
%TO.N,/DSP/I2S1_SCLK*%
X184993934Y-91827386D03*
%TO.P,R6,2*%
%TO.N,Net-(J2-Pin_7)*%
X186160660Y-90660660D03*
%TD*%
D55*
%TO.P,R40,1*%
%TO.N,/DSP/MCLK*%
X179783363Y-107783363D03*
%TO.P,R40,2*%
%TO.N,Net-(U1-XTALIN{slash}MCLK)*%
X178616637Y-106616637D03*
%TD*%
D13*
%TO.P,C1,1*%
%TO.N,V33*%
X180975556Y-114637438D03*
%TO.P,C1,2*%
%TO.N,GND*%
X182071572Y-113541422D03*
%TD*%
D58*
%TO.P,U11,1,GND*%
%TO.N,GND*%
X110500000Y-123499999D03*
%TO.P,U11,2,VO*%
%TO.N,/rp2040/PI_3V3*%
X112800000Y-123499998D03*
D59*
X112800000Y-117200000D03*
D58*
%TO.P,U11,3,VI*%
%TO.N,Net-(D4-K)*%
X115100000Y-123499999D03*
%TD*%
D55*
%TO.P,R22,1*%
%TO.N,/DSP/VDRIVE*%
X165500000Y-102750000D03*
%TO.P,R22,2*%
%TO.N,V33*%
X164333274Y-101583274D03*
%TD*%
D18*
%TO.P,R5,1*%
%TO.N,/DSP/I2S1_SDAT*%
X183933274Y-90766726D03*
%TO.P,R5,2*%
%TO.N,Net-(J2-Pin_5)*%
X185100000Y-89600000D03*
%TD*%
D32*
%TO.P,C22,1*%
%TO.N,/DSP/AVDD*%
X166796016Y-107996016D03*
%TO.P,C22,2*%
%TO.N,GND*%
X165700000Y-106900000D03*
%TD*%
D60*
%TO.P,J14,1,VBUS*%
%TO.N,/rp2040/VBUS*%
X117175000Y-143350000D03*
%TO.P,J14,2,D-*%
%TO.N,/rp2040/USB_D_N*%
X117825000Y-143350000D03*
%TO.P,J14,3,D+*%
%TO.N,/rp2040/USB_D_P*%
X118475000Y-143350000D03*
%TO.P,J14,4,ID*%
%TO.N,unconnected-(J14-ID-Pad4)*%
X119125000Y-143350000D03*
%TO.P,J14,5,GND*%
%TO.N,GND*%
X119775000Y-143350000D03*
D61*
%TO.P,J14,6,Shield*%
X115275000Y-144150000D03*
D62*
X115650000Y-146400000D03*
D63*
X117325000Y-146400000D03*
X119625000Y-146400000D03*
D62*
X121300000Y-146400000D03*
D61*
X121675000Y-144150000D03*
%TD*%
D18*
%TO.P,R11,1*%
%TO.N,/DSP/I2S2_LR*%
X182754594Y-89688046D03*
%TO.P,R11,2*%
%TO.N,Net-(J3-Pin_9)*%
X183921320Y-88521320D03*
%TD*%
D24*
%TO.P,R17,1*%
%TO.N,/rp2040/MCU_USB_N*%
X118300000Y-103000000D03*
%TO.P,R17,2*%
%TO.N,/rp2040/USB_D_N*%
X118300000Y-104550000D03*
%TD*%
D33*
%TO.P,C54,1*%
%TO.N,Net-(U3-5V)*%
X148000000Y-139775000D03*
%TO.P,C54,2*%
%TO.N,GND*%
X148000000Y-138225000D03*
%TD*%
D21*
%TO.P,J18,1,Pin_1*%
%TO.N,GND*%
X109220000Y-68580000D03*
D22*
%TO.P,J18,2,Pin_2*%
%TO.N,/rp2040/GPIO16*%
X109220000Y-71120000D03*
%TO.P,J18,3,Pin_3*%
%TO.N,/rp2040/GPIO17*%
X109220000Y-73660000D03*
%TO.P,J18,4,Pin_4*%
%TO.N,/rp2040/GPIO18*%
X109220000Y-76200000D03*
%TO.P,J18,5,Pin_5*%
%TO.N,/rp2040/GPIO19*%
X109220000Y-78740000D03*
%TO.P,J18,6,Pin_6*%
%TO.N,/rp2040/GPIO20*%
X109220000Y-81280000D03*
%TO.P,J18,7,Pin_7*%
%TO.N,/rp2040/GPIO21*%
X109220000Y-83820000D03*
%TO.P,J18,8,Pin_8*%
%TO.N,/rp2040/GPIO22*%
X109220000Y-86360000D03*
%TO.P,J18,9,Pin_9*%
%TO.N,/rp2040/GPIO23*%
X109220000Y-88900000D03*
%TO.P,J18,10,Pin_10*%
%TO.N,/rp2040/GPIO24*%
X109220000Y-91440000D03*
%TO.P,J18,11,Pin_11*%
%TO.N,/rp2040/GPIO25*%
X109220000Y-93980000D03*
%TO.P,J18,12,Pin_12*%
%TO.N,GND*%
X109220000Y-96520000D03*
%TO.P,J18,13,Pin_13*%
%TO.N,/rp2040/GPIO26_ADC0*%
X109220000Y-99060000D03*
%TO.P,J18,14,Pin_14*%
%TO.N,/rp2040/GPIO27_ADC1*%
X109220000Y-101600000D03*
%TO.P,J18,15,Pin_15*%
%TO.N,/rp2040/GPIO28_ADC2*%
X109220000Y-104140000D03*
%TO.P,J18,16,Pin_16*%
%TO.N,/rp2040/GPIO29_ADC3*%
X109220000Y-106680000D03*
%TO.P,J18,17,Pin_17*%
%TO.N,GND*%
X109220000Y-109220000D03*
%TD*%
D64*
%TO.P,J15,1,Pin_1*%
%TO.N,GND*%
X190500000Y-144780000D03*
%TO.P,J15,2,Pin_2*%
%TO.N,Net-(D3-A)*%
X195500000Y-144780000D03*
%TD*%
D24*
%TO.P,C47,1*%
%TO.N,/rp2040/PI_1V1*%
X116500000Y-101900000D03*
%TO.P,C47,2*%
%TO.N,GND*%
X116500000Y-103450000D03*
%TD*%
D34*
%TO.P,R41,1*%
%TO.N,Net-(U12-OUT)*%
X120500000Y-86650000D03*
%TO.P,R41,2*%
%TO.N,Net-(U10-XIN)*%
X120500000Y-88300000D03*
%TD*%
D27*
%TO.P,R39,1*%
%TO.N,V33*%
X186100000Y-111600000D03*
%TO.P,R39,2*%
%TO.N,/DSP/SCL_M*%
X187266726Y-112766726D03*
%TD*%
D21*
%TO.P,J19,1,Pin_1*%
%TO.N,/RAW_5V*%
X142240000Y-78740000D03*
D22*
%TO.P,J19,2,Pin_2*%
%TO.N,GND*%
X144780000Y-78740000D03*
%TO.P,J19,3,Pin_3*%
%TO.N,/DSP/dspconnector_minimal_input3/SDAT*%
X142240000Y-81280000D03*
%TO.P,J19,4,Pin_4*%
%TO.N,GND*%
X144780000Y-81280000D03*
%TO.P,J19,5,Pin_5*%
%TO.N,/DSP/EXT_LRCLK*%
X142240000Y-83820000D03*
%TO.P,J19,6,Pin_6*%
%TO.N,GND*%
X144780000Y-83820000D03*
%TO.P,J19,7,Pin_7*%
%TO.N,/DSP/EXT_BCLK*%
X142240000Y-86360000D03*
%TO.P,J19,8,Pin_8*%
%TO.N,GND*%
X144780000Y-86360000D03*
%TD*%
D18*
%TO.P,R9,1*%
%TO.N,/DSP/I2S2_SDAT*%
X180633274Y-87566726D03*
%TO.P,R9,2*%
%TO.N,Net-(J3-Pin_5)*%
X181800000Y-86400000D03*
%TD*%
D19*
%TO.P,SW2,1,A*%
%TO.N,GND*%
X139700000Y-99060000D03*
X146200000Y-99060000D03*
%TO.P,SW2,2,B*%
%TO.N,Net-(SW2-B)*%
X139700000Y-103560000D03*
X146200000Y-103560000D03*
%TD*%
D16*
%TO.P,C42,1*%
%TO.N,/rp2040/PI_3V3*%
X113750000Y-92300000D03*
%TO.P,C42,2*%
%TO.N,GND*%
X112200000Y-92300000D03*
%TD*%
D65*
%TO.P,D1,1,K*%
%TO.N,Net-(D1-K)*%
X184950002Y-124000000D03*
%TO.P,D1,2,A*%
%TO.N,/RAW_5V*%
X187000000Y-124000000D03*
%TD*%
D12*
%TO.P,R31,1*%
%TO.N,Net-(D2-K)*%
X177350000Y-123000000D03*
%TO.P,R31,2*%
%TO.N,GND*%
X179000000Y-123000000D03*
%TD*%
D11*
%TO.P,R36,1*%
%TO.N,/rp2040/GPIO13*%
X144400000Y-95850000D03*
%TO.P,R36,2*%
%TO.N,Net-(JP2-A)*%
X144400000Y-94200000D03*
%TD*%
D40*
%TO.P,D6,1,K*%
%TO.N,Net-(D6-K)*%
X133849999Y-144000000D03*
%TO.P,D6,2,A*%
%TO.N,/RAW_5V*%
X138150001Y-144000000D03*
%TD*%
D32*
%TO.P,C51,1*%
%TO.N,V33*%
X162548008Y-98548008D03*
%TO.P,C51,2*%
%TO.N,GND*%
X161451992Y-97451992D03*
%TD*%
D21*
%TO.P,J10,1,Pin_1*%
%TO.N,/RAW_5V*%
X142240000Y-53340000D03*
D22*
%TO.P,J10,2,Pin_2*%
%TO.N,GND*%
X144780000Y-53340000D03*
%TO.P,J10,3,Pin_3*%
%TO.N,/DSP/SDATA_IN1*%
X142240000Y-55880000D03*
%TO.P,J10,4,Pin_4*%
%TO.N,GND*%
X144780000Y-55880000D03*
%TO.P,J10,5,Pin_5*%
%TO.N,/DSP/LRCLK_IN1{slash}MP11*%
X142240000Y-58420000D03*
%TO.P,J10,6,Pin_6*%
%TO.N,GND*%
X144780000Y-58420000D03*
%TO.P,J10,7,Pin_7*%
%TO.N,/DSP/BCLK_IN1*%
X142240000Y-60960000D03*
%TO.P,J10,8,Pin_8*%
%TO.N,GND*%
X144780000Y-60960000D03*
%TD*%
D18*
%TO.P,R1,1*%
%TO.N,/DSP/I2S0_SDAT*%
X187211954Y-93945406D03*
%TO.P,R1,2*%
%TO.N,Net-(J1-Pin_5)*%
X188378680Y-92778680D03*
%TD*%
D66*
%TO.P,U10,1,IOVDD*%
%TO.N,/rp2040/PI_3V3*%
X123237500Y-96400000D03*
%TO.P,U10,2,GPIO0*%
%TO.N,/DSP/SDA*%
X123237500Y-95999999D03*
%TO.P,U10,3,GPIO1*%
%TO.N,/DSP/SCL*%
X123237500Y-95600000D03*
%TO.P,U10,4,GPIO2*%
%TO.N,/rp2040/GPIO2*%
X123237500Y-95200000D03*
%TO.P,U10,5,GPIO3*%
%TO.N,/rp2040/GPIO3*%
X123237500Y-94800000D03*
%TO.P,U10,6,GPIO4*%
%TO.N,/rp2040/GPIO4*%
X123237500Y-94400001D03*
%TO.P,U10,7,GPIO5*%
%TO.N,/rp2040/GPIO5*%
X123237500Y-94000000D03*
%TO.P,U10,8,GPIO6*%
%TO.N,/rp2040/GPIO6*%
X123237500Y-93600000D03*
%TO.P,U10,9,GPIO7*%
%TO.N,/rp2040/GPIO7*%
X123237500Y-93199999D03*
%TO.P,U10,10,IOVDD*%
%TO.N,/rp2040/PI_3V3*%
X123237500Y-92800000D03*
%TO.P,U10,11,GPIO8*%
%TO.N,/rp2040/GPIO8*%
X123237500Y-92400000D03*
%TO.P,U10,12,GPIO9*%
%TO.N,/rp2040/GPIO9*%
X123237500Y-92000000D03*
%TO.P,U10,13,GPIO10*%
%TO.N,/rp2040/GPIO10*%
X123237500Y-91600001D03*
%TO.P,U10,14,GPIO11*%
%TO.N,/rp2040/GPIO11*%
X123237500Y-91200000D03*
D67*
%TO.P,U10,15,GPIO12*%
%TO.N,/rp2040/GPIO12*%
X122400000Y-90362500D03*
%TO.P,U10,16,GPIO13*%
%TO.N,/rp2040/GPIO13*%
X121999999Y-90362500D03*
%TO.P,U10,17,GPIO14*%
%TO.N,/rp2040/GPIO14*%
X121600000Y-90362500D03*
%TO.P,U10,18,GPIO15*%
%TO.N,unconnected-(U10-GPIO15-Pad18)*%
X121200000Y-90362500D03*
%TO.P,U10,19,TESTEN*%
%TO.N,GND*%
X120800000Y-90362500D03*
%TO.P,U10,20,XIN*%
%TO.N,Net-(U10-XIN)*%
X120400001Y-90362500D03*
%TO.P,U10,21,XOUT*%
%TO.N,unconnected-(U10-XOUT-Pad21)*%
X120000000Y-90362500D03*
%TO.P,U10,22,IOVDD*%
%TO.N,/rp2040/PI_3V3*%
X119600000Y-90362500D03*
%TO.P,U10,23,DVDD*%
%TO.N,/rp2040/PI_1V1*%
X119199999Y-90362500D03*
%TO.P,U10,24,SWCLK*%
%TO.N,/rp2040/SWCLK*%
X118800000Y-90362500D03*
%TO.P,U10,25,SWD*%
%TO.N,/rp2040/SWD*%
X118400000Y-90362500D03*
%TO.P,U10,26,RUN*%
%TO.N,/rp2040/RUN*%
X118000000Y-90362500D03*
%TO.P,U10,27,GPIO16*%
%TO.N,/rp2040/GPIO16*%
X117600001Y-90362500D03*
%TO.P,U10,28,GPIO17*%
%TO.N,/rp2040/GPIO17*%
X117200000Y-90362500D03*
D66*
%TO.P,U10,29,GPIO18*%
%TO.N,/rp2040/GPIO18*%
X116362500Y-91200000D03*
%TO.P,U10,30,GPIO19*%
%TO.N,/rp2040/GPIO19*%
X116362500Y-91600001D03*
%TO.P,U10,31,GPIO20*%
%TO.N,/rp2040/GPIO20*%
X116362500Y-92000000D03*
%TO.P,U10,32,GPIO21*%
%TO.N,/rp2040/GPIO21*%
X116362500Y-92400000D03*
%TO.P,U10,33,IOVDD*%
%TO.N,/rp2040/PI_3V3*%
X116362500Y-92800000D03*
%TO.P,U10,34,GPIO22*%
%TO.N,/rp2040/GPIO22*%
X116362500Y-93199999D03*
%TO.P,U10,35,GPIO23*%
%TO.N,/rp2040/GPIO23*%
X116362500Y-93600000D03*
%TO.P,U10,36,GPIO24*%
%TO.N,/rp2040/GPIO24*%
X116362500Y-94000000D03*
%TO.P,U10,37,GPIO25*%
%TO.N,/rp2040/GPIO25*%
X116362500Y-94400001D03*
%TO.P,U10,38,GPIO26_ADC0*%
%TO.N,/rp2040/GPIO26_ADC0*%
X116362500Y-94800000D03*
%TO.P,U10,39,GPIO27_ADC1*%
%TO.N,/rp2040/GPIO27_ADC1*%
X116362500Y-95200000D03*
%TO.P,U10,40,GPIO28_ADC2*%
%TO.N,/rp2040/GPIO28_ADC2*%
X116362500Y-95600000D03*
%TO.P,U10,41,GPIO29_ADC3*%
%TO.N,/rp2040/GPIO29_ADC3*%
X116362500Y-95999999D03*
%TO.P,U10,42,IOVDD*%
%TO.N,/rp2040/PI_3V3*%
X116362500Y-96400000D03*
D67*
%TO.P,U10,43,ADC_AVDD*%
X117200000Y-97237500D03*
%TO.P,U10,44,VREG_IN*%
X117600001Y-97237500D03*
%TO.P,U10,45,VREG_VOUT*%
%TO.N,/rp2040/PI_1V1*%
X118000000Y-97237500D03*
%TO.P,U10,46,USB_DM*%
%TO.N,/rp2040/MCU_USB_N*%
X118400000Y-97237500D03*
%TO.P,U10,47,USB_DP*%
%TO.N,/rp2040/MCU_USB_P*%
X118800000Y-97237500D03*
%TO.P,U10,48,USB_VDD*%
%TO.N,/rp2040/PI_3V3*%
X119199999Y-97237500D03*
%TO.P,U10,49,IOVDD*%
X119600000Y-97237500D03*
%TO.P,U10,50,DVDD*%
%TO.N,/rp2040/PI_1V1*%
X120000000Y-97237500D03*
%TO.P,U10,51,QSPI_SD3*%
%TO.N,/rp2040/QSPI_SD3*%
X120400001Y-97237500D03*
%TO.P,U10,52,QSPI_SCLK*%
%TO.N,/rp2040/QSPI_SCLK*%
X120800000Y-97237500D03*
%TO.P,U10,53,QSPI_SD0*%
%TO.N,/rp2040/QSPI_SD0*%
X121200000Y-97237500D03*
%TO.P,U10,54,QSPI_SD2*%
%TO.N,/rp2040/QSPI_SD2*%
X121600000Y-97237500D03*
%TO.P,U10,55,QSPI_SD1*%
%TO.N,/rp2040/QSPI_SD1*%
X121999999Y-97237500D03*
%TO.P,U10,56,QSPI_SS*%
%TO.N,/rp2040/QSPI_SS*%
X122400000Y-97237500D03*
D68*
%TO.P,U10,57,GND*%
%TO.N,GND*%
X119800000Y-93800000D03*
%TD*%
D69*
%TO.P,R21,1*%
%TO.N,Net-(U1-PLLFILT)*%
X174166726Y-112083274D03*
%TO.P,R21,2*%
%TO.N,Net-(C24-Pad2)*%
X173000000Y-113250000D03*
%TD*%
D21*
%TO.P,J8,1,Pin_1*%
%TO.N,V33*%
X195580000Y-116840000D03*
D22*
%TO.P,J8,2,Pin_2*%
X198120000Y-116840000D03*
%TO.P,J8,3,Pin_3*%
%TO.N,/DSP/I2CADDR0*%
X195580000Y-119380000D03*
%TO.P,J8,4,Pin_4*%
%TO.N,/DSP/I2CADDR1*%
X198120000Y-119380000D03*
%TO.P,J8,5,Pin_5*%
%TO.N,GND*%
X195580000Y-121920000D03*
%TO.P,J8,6,Pin_6*%
X198120000Y-121920000D03*
%TD*%
D35*
%TO.P,C26,1*%
%TO.N,/RAW_5V*%
X198000000Y-131600000D03*
%TO.P,C26,2*%
%TO.N,GND*%
X198000000Y-128000000D03*
%TD*%
D70*
%TO.P,U6,1,A0*%
%TO.N,GND*%
X187460000Y-122000000D03*
%TO.P,U6,2,A1*%
X188730000Y-122000000D03*
%TO.P,U6,3,A2*%
X190000000Y-122000000D03*
%TO.P,U6,4,GND*%
X191270000Y-122000000D03*
%TO.P,U6,5,SDA*%
%TO.N,/DSP/SDA_M*%
X191270000Y-114800000D03*
%TO.P,U6,6,SCL*%
%TO.N,/DSP/SCL_M*%
X190000000Y-114800000D03*
%TO.P,U6,7,WP*%
%TO.N,GND*%
X188730000Y-114800000D03*
%TO.P,U6,8,VCC*%
%TO.N,V33*%
X187460000Y-114800000D03*
%TD*%
D71*
%TO.P,C2,1*%
%TO.N,V33*%
X173000000Y-134000000D03*
%TO.P,C2,2*%
%TO.N,GND*%
X176600000Y-134000000D03*
%TD*%
D11*
%TO.P,R35,1*%
%TO.N,/rp2040/GPIO12*%
X142700000Y-95850000D03*
%TO.P,R35,2*%
%TO.N,Net-(JP1-A)*%
X142700000Y-94200000D03*
%TD*%
D17*
%TO.P,C29,1*%
%TO.N,/DSP/dsp_power/V33_BEFORE_F*%
X182225000Y-125800000D03*
%TO.P,C29,2*%
%TO.N,GND*%
X183775000Y-125800000D03*
%TD*%
D13*
%TO.P,C9,1*%
%TO.N,/DSP/DVDD*%
X186548008Y-100851992D03*
%TO.P,C9,2*%
%TO.N,GND*%
X187644024Y-99755976D03*
%TD*%
D72*
%TO.P,L3,1,1*%
%TO.N,Net-(L3-Pad1)*%
X163720000Y-133000000D03*
%TO.P,L3,2,2*%
%TO.N,Net-(U7-VOUT)*%
X163720000Y-134575002D03*
%TD*%
D73*
%TO.P,FB3,1*%
%TO.N,V33*%
X161354765Y-111645235D03*
%TO.P,FB3,2*%
%TO.N,/DSP/AVDD*%
X162645235Y-110354765D03*
%TD*%
D32*
%TO.P,C12,1*%
%TO.N,/DSP/DVDD*%
X178400000Y-89800000D03*
%TO.P,C12,2*%
%TO.N,GND*%
X177303984Y-88703984D03*
%TD*%
D65*
%TO.P,D2,1,K*%
%TO.N,Net-(D2-K)*%
X176950002Y-124875001D03*
%TO.P,D2,2,A*%
%TO.N,/DSP/dsp_power/V33_BEFORE_F*%
X179000000Y-124875001D03*
%TD*%
D23*
%TO.P,C6,1*%
%TO.N,/DSP/DVDD*%
X178596016Y-109003984D03*
%TO.P,C6,2*%
%TO.N,GND*%
X177500000Y-110100000D03*
%TD*%
D18*
%TO.P,R13,1*%
%TO.N,/DSP/I2S3_SDAT*%
X177339340Y-84239340D03*
%TO.P,R13,2*%
%TO.N,Net-(J4-Pin_5)*%
X178506066Y-83072614D03*
%TD*%
D23*
%TO.P,C14,1*%
%TO.N,/DSP/DVDD*%
X167000000Y-97000000D03*
%TO.P,C14,2*%
%TO.N,GND*%
X165903984Y-98096016D03*
%TD*%
D24*
%TO.P,C39,1*%
%TO.N,/rp2040/PI_3V3*%
X114800000Y-98800000D03*
%TO.P,C39,2*%
%TO.N,GND*%
X114800000Y-100350000D03*
%TD*%
D29*
%TO.P,J7,1,Pin_1*%
%TO.N,/RAW_5V*%
X152400000Y-55880000D03*
D30*
%TO.P,J7,2,Pin_2*%
%TO.N,GND*%
X154940000Y-55880000D03*
%TO.P,J7,3,Pin_3*%
%TO.N,/DSP/I2SIN0_SDAT*%
X152400000Y-58420000D03*
%TO.P,J7,4,Pin_4*%
%TO.N,GND*%
X154940000Y-58420000D03*
%TO.P,J7,5,Pin_5*%
%TO.N,/DSP/dspconnector_input/FROMDSP*%
X152400000Y-60960000D03*
%TO.P,J7,6,Pin_6*%
%TO.N,GND*%
X154940000Y-60960000D03*
%TO.P,J7,7,Pin_7*%
%TO.N,/DSP/I2SIN0_SCLK*%
X152400000Y-63500000D03*
%TO.P,J7,8,Pin_8*%
%TO.N,GND*%
X154940000Y-63500000D03*
%TO.P,J7,9,Pin_9*%
%TO.N,/DSP/I2SIN0_LR*%
X152400000Y-66040000D03*
%TO.P,J7,10,Pin_10*%
%TO.N,GND*%
X154940000Y-66040000D03*
%TO.P,J7,11,Pin_11*%
%TO.N,/DSP/SDA*%
X152400000Y-68580000D03*
%TO.P,J7,12,Pin_12*%
%TO.N,GND*%
X154940000Y-68580000D03*
%TO.P,J7,13,Pin_13*%
%TO.N,/DSP/SCL*%
X152400000Y-71120000D03*
%TO.P,J7,14,Pin_14*%
%TO.N,GND*%
X154940000Y-71120000D03*
%TO.P,J7,15,Pin_15*%
%TO.N,Net-(J7-Pin_15)*%
X152400000Y-73660000D03*
%TO.P,J7,16,Pin_16*%
%TO.N,GND*%
X154940000Y-73660000D03*
%TD*%
D13*
%TO.P,C8,1*%
%TO.N,/DSP/DVDD*%
X185451992Y-99748008D03*
%TO.P,C8,2*%
%TO.N,GND*%
X186548008Y-98651992D03*
%TD*%
D29*
%TO.P,J4,1,Pin_1*%
%TO.N,/RAW_5V*%
X162560000Y-55880000D03*
D30*
%TO.P,J4,2,Pin_2*%
%TO.N,GND*%
X165100000Y-55880000D03*
%TO.P,J4,3,Pin_3*%
%TO.N,/DSP/dspconnector3/TODSP*%
X162560000Y-58420000D03*
%TO.P,J4,4,Pin_4*%
%TO.N,GND*%
X165100000Y-58420000D03*
%TO.P,J4,5,Pin_5*%
%TO.N,Net-(J4-Pin_5)*%
X162560000Y-60960000D03*
%TO.P,J4,6,Pin_6*%
%TO.N,GND*%
X165100000Y-60960000D03*
%TO.P,J4,7,Pin_7*%
%TO.N,Net-(J4-Pin_7)*%
X162560000Y-63500000D03*
%TO.P,J4,8,Pin_8*%
%TO.N,GND*%
X165100000Y-63500000D03*
%TO.P,J4,9,Pin_9*%
%TO.N,Net-(J4-Pin_9)*%
X162560000Y-66040000D03*
%TO.P,J4,10,Pin_10*%
%TO.N,GND*%
X165100000Y-66040000D03*
%TO.P,J4,11,Pin_11*%
%TO.N,/DSP/SDA*%
X162560000Y-68580000D03*
%TO.P,J4,12,Pin_12*%
%TO.N,GND*%
X165100000Y-68580000D03*
%TO.P,J4,13,Pin_13*%
%TO.N,/DSP/SCL*%
X162560000Y-71120000D03*
%TO.P,J4,14,Pin_14*%
%TO.N,GND*%
X165100000Y-71120000D03*
%TO.P,J4,15,Pin_15*%
%TO.N,Net-(J4-Pin_15)*%
X162560000Y-73660000D03*
%TO.P,J4,16,Pin_16*%
%TO.N,GND*%
X165100000Y-73660000D03*
%TD*%
D34*
%TO.P,R20,1*%
%TO.N,/DSP/SPDIFOUT*%
X167160000Y-133175000D03*
%TO.P,R20,2*%
%TO.N,Net-(U4-VIN)*%
X167160000Y-134825000D03*
%TD*%
D17*
%TO.P,C4,1*%
%TO.N,Net-(D4-K)*%
X113550000Y-113200000D03*
%TO.P,C4,2*%
%TO.N,GND*%
X115100000Y-113200000D03*
%TD*%
D48*
%TO.P,JP3,1,A*%
%TO.N,Net-(JP3-A)*%
X148000000Y-92299998D03*
%TO.P,JP3,2,B*%
%TO.N,/DSP/EXT_BCLK*%
X148000000Y-91000000D03*
%TD*%
D17*
%TO.P,C50,1*%
%TO.N,/rp2040/PI_3V3*%
X125850000Y-105300000D03*
%TO.P,C50,2*%
%TO.N,GND*%
X127400000Y-105300000D03*
%TD*%
D21*
%TO.P,J11,1,Pin_1*%
%TO.N,/ESP8266/A0*%
X125400000Y-132080000D03*
D22*
%TO.P,J11,2,Pin_2*%
%TO.N,/ESP8266/D0*%
X125400000Y-134620000D03*
%TO.P,J11,3,Pin_3*%
%TO.N,/ESP8266/D4*%
X125400000Y-137160000D03*
%TO.P,J11,4,Pin_4*%
%TO.N,/ESP8266/D8*%
X125400000Y-139700000D03*
%TD*%
D21*
%TO.P,J22,1,Pin_1*%
%TO.N,/rp2040/GPIO2*%
X137160000Y-93980000D03*
D22*
%TO.P,J22,2,Pin_2*%
%TO.N,/rp2040/GPIO3*%
X137160000Y-91440000D03*
%TO.P,J22,3,Pin_3*%
%TO.N,/rp2040/GPIO4*%
X137160000Y-88900001D03*
%TO.P,J22,4,Pin_4*%
%TO.N,/rp2040/GPIO5*%
X137160000Y-86360000D03*
%TO.P,J22,5,Pin_5*%
%TO.N,/rp2040/GPIO6*%
X137160000Y-83820000D03*
%TO.P,J22,6,Pin_6*%
%TO.N,/rp2040/GPIO7*%
X137160000Y-81280000D03*
%TO.P,J22,7,Pin_7*%
%TO.N,/rp2040/GPIO8*%
X137160000Y-78740000D03*
%TO.P,J22,8,Pin_8*%
%TO.N,/rp2040/GPIO9*%
X137160000Y-76199999D03*
%TO.P,J22,9,Pin_9*%
%TO.N,/rp2040/GPIO10*%
X137160000Y-73660000D03*
%TO.P,J22,10,Pin_10*%
%TO.N,/rp2040/GPIO11*%
X137160000Y-71120000D03*
%TO.P,J22,11,Pin_11*%
%TO.N,/rp2040/GPIO12*%
X137160000Y-68580000D03*
%TO.P,J22,12,Pin_12*%
%TO.N,/rp2040/GPIO13*%
X137160000Y-66040001D03*
%TO.P,J22,13,Pin_13*%
%TO.N,/rp2040/GPIO14*%
X137160000Y-63500000D03*
%TD*%
D18*
%TO.P,R42,1*%
%TO.N,/DSP/DVDD*%
X155583274Y-102166726D03*
%TO.P,R42,2*%
%TO.N,Net-(C31-Pad1)*%
X156750000Y-101000000D03*
%TD*%
D11*
%TO.P,R8,1*%
%TO.N,/DSP/MCLK1*%
X198900000Y-99150000D03*
%TO.P,R8,2*%
%TO.N,Net-(J2-Pin_15)*%
X198900000Y-97500000D03*
%TD*%
D33*
%TO.P,C43,1*%
%TO.N,/rp2040/PI_3V3*%
X120000000Y-84000000D03*
%TO.P,C43,2*%
%TO.N,GND*%
X120000000Y-82450000D03*
%TD*%
D32*
%TO.P,C11,1*%
%TO.N,/DSP/DVDD*%
X177300000Y-90900000D03*
%TO.P,C11,2*%
%TO.N,GND*%
X176203984Y-89803984D03*
%TD*%
%TO.P,C21,1*%
%TO.N,/DSP/AVDD*%
X165700000Y-109100000D03*
%TO.P,C21,2*%
%TO.N,GND*%
X164603984Y-108003984D03*
%TD*%
D28*
%TO.P,R29,1*%
%TO.N,/ESP8266/MCU_SCL*%
X152000000Y-104000000D03*
%TO.P,R29,2*%
%TO.N,/DSP/SCL*%
X150350000Y-104000000D03*
%TD*%
D35*
%TO.P,C25,1*%
%TO.N,/RAW_5V*%
X192000000Y-131600000D03*
%TO.P,C25,2*%
%TO.N,GND*%
X192000000Y-128000000D03*
%TD*%
D18*
%TO.P,R15,1*%
%TO.N,/DSP/I2S3_LR*%
X179460660Y-86360660D03*
%TO.P,R15,2*%
%TO.N,Net-(J4-Pin_9)*%
X180627386Y-85193934D03*
%TD*%
D32*
%TO.P,C20,1*%
%TO.N,V33*%
X175348008Y-110848008D03*
%TO.P,C20,2*%
%TO.N,GND*%
X174251992Y-109751992D03*
%TD*%
D13*
%TO.P,C18,1*%
%TO.N,V33*%
X173000000Y-90500000D03*
%TO.P,C18,2*%
%TO.N,GND*%
X174096016Y-89403984D03*
%TD*%
D32*
%TO.P,C7,1*%
%TO.N,V33*%
X169700000Y-112500000D03*
%TO.P,C7,2*%
%TO.N,GND*%
X168603984Y-111403984D03*
%TD*%
D21*
%TO.P,J9,1,Pin_1*%
%TO.N,/RAW_5V*%
X142240000Y-66040000D03*
D22*
%TO.P,J9,2,Pin_2*%
%TO.N,GND*%
X144780000Y-66040000D03*
%TO.P,J9,3,Pin_3*%
%TO.N,/DSP/SDATA_IN2*%
X142240000Y-68580000D03*
%TO.P,J9,4,Pin_4*%
%TO.N,GND*%
X144780000Y-68580000D03*
%TO.P,J9,5,Pin_5*%
%TO.N,/DSP/LRCLK_IN2{slash}MP12*%
X142240000Y-71120000D03*
%TO.P,J9,6,Pin_6*%
%TO.N,GND*%
X144780000Y-71120000D03*
%TO.P,J9,7,Pin_7*%
%TO.N,/DSP/BCLK_IN2*%
X142240000Y-73660000D03*
%TO.P,J9,8,Pin_8*%
%TO.N,GND*%
X144780000Y-73660000D03*
%TD*%
D32*
%TO.P,C19,1*%
%TO.N,V33*%
X166500000Y-101500000D03*
%TO.P,C19,2*%
%TO.N,GND*%
X165403984Y-100403984D03*
%TD*%
D74*
%TO.N,GND*%
X189000000Y-142000000D03*
X114650000Y-110000000D03*
X114650000Y-111000000D03*
X123500000Y-146300000D03*
X114200000Y-143000000D03*
X123500000Y-144000000D03*
X113000000Y-100942588D03*
X177200000Y-111200000D03*
X163700000Y-108800000D03*
X177000000Y-98000000D03*
X116000000Y-100349996D03*
X120000002Y-81100000D03*
X161500000Y-131900000D03*
X182900000Y-114250000D03*
X157995318Y-98192652D03*
X195000000Y-140000000D03*
X122400000Y-79299996D03*
X164467024Y-96587004D03*
X188700000Y-116400000D03*
X122750000Y-105489425D03*
X120800000Y-92700000D03*
X194000000Y-139000000D03*
X119700000Y-94800000D03*
X195593548Y-140735454D03*
X173100000Y-88500000D03*
X197000000Y-103000000D03*
X185000000Y-145575000D03*
X112000000Y-112000000D03*
X113000000Y-111000000D03*
X177400000Y-102700000D03*
X109000000Y-124000000D03*
X175000000Y-98000000D03*
X200000000Y-109000000D03*
X130400000Y-92400000D03*
X118399998Y-81100000D03*
X187000000Y-136000000D03*
X174000000Y-99000000D03*
X188800000Y-120500000D03*
X187000000Y-135000000D03*
X178000000Y-132000000D03*
X121184420Y-104952189D03*
X166700000Y-113900000D03*
X123000000Y-87400000D03*
X116100000Y-104800000D03*
X118700000Y-93700000D03*
X108000000Y-125000000D03*
X187250000Y-96900000D03*
X114086813Y-97816024D03*
X118700000Y-92700000D03*
X198000000Y-125000000D03*
X190064321Y-101308686D03*
X119800000Y-140300000D03*
X120800000Y-93700000D03*
X130300000Y-97100000D03*
X176000000Y-88150003D03*
X178000000Y-99000000D03*
X189000000Y-141000000D03*
X192000000Y-125000000D03*
X178000000Y-133000000D03*
X181000000Y-122000000D03*
X185000000Y-126000000D03*
X191300000Y-120500000D03*
X173300000Y-109000000D03*
X113900000Y-146800000D03*
X182500000Y-111300000D03*
X185500000Y-114500000D03*
X184000000Y-145575000D03*
X185100000Y-120200000D03*
X164400000Y-99400000D03*
X177000000Y-100000000D03*
X175000000Y-100000000D03*
X176000000Y-97000000D03*
X176000000Y-99000000D03*
X118700000Y-94800000D03*
X183000000Y-121000000D03*
X200000000Y-108000000D03*
X190000000Y-120500000D03*
X119799999Y-93799999D03*
X119800000Y-92700000D03*
X120800000Y-94800000D03*
X128600000Y-105300000D03*
X111621416Y-91389184D03*
X176000000Y-101000000D03*
%TO.N,Net-(J2-Pin_15)*%
X191300000Y-78900000D03*
X188400000Y-78600000D03*
%TO.N,Net-(J3-Pin_15)*%
X185050000Y-79350002D03*
X188900006Y-80000000D03*
X191400000Y-80100000D03*
X182324923Y-78748627D03*
%TO.N,Net-(J4-Pin_15)*%
X191200000Y-81400000D03*
X182837805Y-79777927D03*
X178900000Y-77000000D03*
X185343934Y-80356066D03*
X188799992Y-81400000D03*
X175448958Y-78048958D03*
%TO.N,/DSP/SDA*%
X176529024Y-51719801D03*
X137400000Y-102200000D03*
X195900000Y-52700000D03*
X188931698Y-51250000D03*
X187164204Y-54250000D03*
X156300000Y-52050000D03*
X166777508Y-51750000D03*
X166700000Y-54400000D03*
X182900639Y-104846533D03*
X136277647Y-104520313D03*
X157722340Y-55845427D03*
X197500000Y-52000000D03*
X184952774Y-107047225D03*
X176987594Y-54246928D03*
%TO.N,/DSP/SCL*%
X204000000Y-119000000D03*
X188026936Y-50400000D03*
X138700000Y-105300000D03*
X168004622Y-54250000D03*
X157247650Y-51398490D03*
X138467751Y-101772900D03*
X177500000Y-51200000D03*
X188575766Y-54350000D03*
X167772613Y-51173568D03*
X140026327Y-105126371D03*
X158759672Y-54808096D03*
X182885460Y-103696631D03*
X134000000Y-105000000D03*
X186752480Y-107215102D03*
X202000000Y-119000000D03*
X178915353Y-54250000D03*
%TO.N,V33*%
X186000000Y-96200000D03*
X168000000Y-130500000D03*
X192747486Y-108950000D03*
X181900000Y-115500000D03*
X157300000Y-104300000D03*
X192000000Y-105000000D03*
X158900000Y-102500000D03*
X177000000Y-114000000D03*
X160100000Y-112900000D03*
X171000000Y-116000000D03*
X158470000Y-114530000D03*
X163700000Y-97800000D03*
X172000000Y-89500000D03*
X179000000Y-120000000D03*
X159350000Y-113650000D03*
X158100000Y-103400000D03*
X165100000Y-130500000D03*
X191388876Y-104186102D03*
X185000000Y-115650000D03*
X176300000Y-120600000D03*
X186000000Y-109800000D03*
%TO.N,/RAW_5V*%
X143100000Y-146100000D03*
X182000000Y-53000000D03*
X192500000Y-52500000D03*
X116812500Y-139000000D03*
X141750000Y-77250000D03*
X203000000Y-127000000D03*
X116000000Y-138000000D03*
X190000000Y-52500000D03*
X203681281Y-124000000D03*
X203000000Y-129000000D03*
X141000000Y-144000000D03*
X140900000Y-76400000D03*
X184000000Y-53000000D03*
X203703851Y-125935146D03*
X142000000Y-145000000D03*
X115000000Y-137000012D03*
%TO.N,/DSP/DVDD*%
X163900000Y-95000000D03*
X165000000Y-95000000D03*
X187722288Y-102431477D03*
X162700000Y-94900000D03*
X176700000Y-87000010D03*
X180000000Y-109000000D03*
%TO.N,/ESP8266/SW*%
X156800000Y-109800000D03*
%TO.N,/ESP8266/MCU_V33*%
X146000000Y-130000000D03*
X146000000Y-128000000D03*
X132000000Y-138000000D03*
%TO.N,/ESP8266/MCU_SDA*%
X156100000Y-112400000D03*
X154725000Y-111500000D03*
%TO.N,/ESP8266/MCU_SCL*%
X153942461Y-112549980D03*
X155100000Y-114200000D03*
%TO.N,Net-(J7-Pin_15)*%
X183000000Y-81200000D03*
X179400000Y-78100000D03*
X176026997Y-79842969D03*
X186300000Y-81300000D03*
X163200000Y-78700000D03*
X188100000Y-82200000D03*
X190700000Y-83200000D03*
X159800000Y-78700000D03*
%TO.N,/DSP/I2SIN0_LR*%
X150300000Y-66200000D03*
%TO.N,/DSP/MP7*%
X182350520Y-91077385D03*
X195132940Y-85849114D03*
%TO.N,Net-(U1-SS_M{slash}MP0)*%
X180064733Y-105293566D03*
X184144299Y-110376531D03*
%TO.N,/DSP/I2CADDR0*%
X184993679Y-104390900D03*
X186275714Y-105314478D03*
%TO.N,/DSP/MP6*%
X195612385Y-87234401D03*
X182600000Y-92200000D03*
%TO.N,/DSP/I2CADDR1*%
X187220129Y-106164478D03*
X184080613Y-103622342D03*
%TO.N,/DSP/EXT_LRCLK*%
X142503654Y-88250000D03*
X145100000Y-89500000D03*
%TO.N,/DSP/EXT_BCLK*%
X146100000Y-89300000D03*
%TO.N,/DSP/~{DSPRESET_SUPERVISED}*%
X184000000Y-114000000D03*
X183800000Y-117900000D03*
%TO.N,/DSP/SCL_M*%
X184844074Y-109463941D03*
X181148334Y-105946252D03*
%TO.N,/DSP/SDA_M*%
X185329119Y-108421234D03*
X181764733Y-105026047D03*
%TO.N,/DSP/SELFBOOT*%
X185780613Y-103406961D03*
X187031275Y-104560464D03*
%TO.N,/DSP/~{DSPRESET}*%
X169000000Y-125000000D03*
X165750000Y-126009061D03*
%TO.N,/rp2040/PI_3V3*%
X124000000Y-106000000D03*
X121000000Y-80000000D03*
X125000000Y-97000000D03*
X134500000Y-97000000D03*
X120100000Y-101200014D03*
X116000000Y-99000000D03*
X122000000Y-93000000D03*
X113000000Y-99000000D03*
X114000000Y-121000000D03*
X113000000Y-120000000D03*
X112000000Y-90000000D03*
X124512951Y-79734787D03*
X115700000Y-97400000D03*
X112000000Y-119000000D03*
%TO.N,/rp2040/PI_1V1*%
X114350000Y-102090811D03*
X124098340Y-102968358D03*
X118800000Y-86200000D03*
%TO.N,/rp2040/GPIO12*%
X140000000Y-67900000D03*
%TO.N,/rp2040/GPIO14*%
X139500000Y-95000000D03*
X145200000Y-97100000D03*
%TD*%
D75*
%TO.N,Net-(D4-K)*%
X110700000Y-133600000D02*
X110700000Y-132700002D01*
X115400000Y-116195672D02*
X115400000Y-123199999D01*
X114900002Y-123699997D02*
X115100000Y-123499999D01*
X115400000Y-123199999D02*
X115100000Y-123499999D01*
X114900002Y-128500000D02*
X114900002Y-123699997D01*
X113550000Y-113200000D02*
X113550000Y-114345672D01*
X113550000Y-114345672D02*
X115400000Y-116195672D01*
X110700000Y-132700002D02*
X114900002Y-128500000D01*
%TO.N,GND*%
X195593548Y-140593548D02*
X195593548Y-140735454D01*
D76*
X123100000Y-103550000D02*
X123100000Y-105139425D01*
X174251992Y-109055976D02*
X174251992Y-109751992D01*
D75*
X151559999Y-138225000D02*
X152400000Y-137384999D01*
D76*
X113592588Y-100350000D02*
X113000000Y-100942588D01*
D77*
X186775000Y-118775000D02*
X187460000Y-119460000D01*
D76*
X172000000Y-107966548D02*
X171250000Y-108716548D01*
X174096016Y-89403984D02*
X174300000Y-89607968D01*
X120000000Y-81100002D02*
X120000002Y-81100000D01*
D78*
X121675000Y-144150000D02*
X123350000Y-144150000D01*
D76*
X175982978Y-105496544D02*
X175982978Y-105582978D01*
X176203984Y-91103984D02*
X176600000Y-91500000D01*
X120800000Y-89600000D02*
X123000000Y-87400000D01*
X116500000Y-104400000D02*
X116100000Y-104800000D01*
X181000000Y-112469850D02*
X182071572Y-113541422D01*
X174003984Y-89403984D02*
X173100000Y-88500000D01*
D77*
X160720000Y-132680000D02*
X161500000Y-131900000D01*
D76*
X117100000Y-100350000D02*
X116000004Y-100350000D01*
X182071572Y-113541422D02*
X182780150Y-114250000D01*
D75*
X182325000Y-143900000D02*
X184000000Y-145575000D01*
D76*
X164496016Y-108003984D02*
X163700000Y-108800000D01*
D78*
X123400000Y-146400000D02*
X123500000Y-146300000D01*
D76*
X167503984Y-112703984D02*
X167503984Y-113096016D01*
X176400000Y-92100000D02*
X176386434Y-92100000D01*
D75*
X115100000Y-111450000D02*
X114650000Y-111000000D01*
D76*
X166000000Y-106750000D02*
X166000000Y-106021968D01*
X167653984Y-112346016D02*
X167653984Y-112403984D01*
D75*
X112000000Y-112000000D02*
X113000000Y-111000000D01*
D78*
X117362500Y-147062500D02*
X117400000Y-147100000D01*
D76*
X176203984Y-89803984D02*
X176203984Y-91103984D01*
X185500000Y-97300000D02*
X186850000Y-97300000D01*
D75*
X190500000Y-144780000D02*
X190500000Y-143500000D01*
D76*
X181700000Y-111300000D02*
X182500000Y-111300000D01*
D75*
X109000000Y-124000000D02*
X108000000Y-125000000D01*
D79*
X119812500Y-140312500D02*
X119800000Y-140300000D01*
D77*
X160720000Y-133000000D02*
X160720000Y-132680000D01*
D76*
X159346016Y-97353984D02*
X159800000Y-96900000D01*
X184640758Y-98651992D02*
X186548008Y-98651992D01*
X175982978Y-105582978D02*
X176600000Y-106200000D01*
X166000000Y-106021968D02*
X170768065Y-101253903D01*
X176203984Y-89803984D02*
X177303984Y-88703984D01*
D79*
X127400000Y-104500001D02*
X127400000Y-105300000D01*
D78*
X121300000Y-146400000D02*
X123400000Y-146400000D01*
D76*
X174403984Y-108903984D02*
X174403984Y-108596016D01*
X159346016Y-98403984D02*
X158206650Y-98403984D01*
D75*
X170575000Y-134800000D02*
X170575000Y-135015000D01*
D76*
X165903984Y-98096016D02*
X164903984Y-97096016D01*
X173596493Y-104082330D02*
X172000000Y-105678823D01*
X118400000Y-81100002D02*
X118399998Y-81100000D01*
D78*
X119662500Y-146962500D02*
X119700000Y-147000000D01*
D75*
X192000000Y-138600000D02*
X193600000Y-138600000D01*
D76*
X127400000Y-105300000D02*
X128600000Y-105300000D01*
X112300000Y-92000000D02*
X111689184Y-91389184D01*
D79*
X188730000Y-116370000D02*
X188700000Y-116400000D01*
D77*
X185000000Y-120100000D02*
X185100000Y-120200000D01*
D76*
X174300000Y-89607968D02*
X174300000Y-91700000D01*
D75*
X181350000Y-122350000D02*
X181000000Y-122000000D01*
D78*
X114300000Y-146400000D02*
X113900000Y-146800000D01*
D79*
X119812500Y-142325000D02*
X119812500Y-140312500D01*
D76*
X122450000Y-79349996D02*
X122400000Y-79299996D01*
X123100000Y-105139425D02*
X122750000Y-105489425D01*
D78*
X117325000Y-146400000D02*
X115650000Y-146400000D01*
D76*
X165403984Y-100403984D02*
X164400000Y-99400000D01*
D79*
X191270000Y-122000000D02*
X191270000Y-120530000D01*
D76*
X174251992Y-109751992D02*
X174051992Y-109751992D01*
X176400000Y-109000000D02*
X177500000Y-110100000D01*
X168300000Y-97800000D02*
X168003984Y-98096016D01*
X121500000Y-103550000D02*
X121500000Y-104636609D01*
X176553981Y-88703984D02*
X176000000Y-88150003D01*
X185400000Y-114400000D02*
X185500000Y-114500000D01*
X177500000Y-110100000D02*
X177500000Y-110900000D01*
D75*
X170575000Y-135015000D02*
X172720000Y-137160000D01*
D76*
X168096016Y-100403984D02*
X165403984Y-100403984D01*
D79*
X188730000Y-120570000D02*
X188800000Y-120500000D01*
D75*
X187000000Y-132600000D02*
X187000000Y-135000000D01*
D76*
X174403984Y-108596016D02*
X174100000Y-108292032D01*
X122450000Y-80700000D02*
X122450000Y-79349996D01*
X176386434Y-92100000D02*
X175982978Y-92503456D01*
X182600000Y-120600000D02*
X183000000Y-121000000D01*
X185500000Y-97300000D02*
X183207250Y-97300000D01*
D75*
X146000000Y-138225000D02*
X148000000Y-138225000D01*
D76*
X120800000Y-90362500D02*
X120800000Y-89600000D01*
X174051992Y-109751992D02*
X173300000Y-109000000D01*
X186850000Y-97300000D02*
X187250000Y-96900000D01*
X116000004Y-100350000D02*
X116000000Y-100349996D01*
X122450000Y-82449998D02*
X122199998Y-82700000D01*
X174657153Y-105142990D02*
X174100000Y-105700143D01*
X168003984Y-98096016D02*
X165903984Y-98096016D01*
D78*
X115275000Y-144075000D02*
X114200000Y-143000000D01*
D76*
X174096016Y-89403984D02*
X174003984Y-89403984D01*
D75*
X187000000Y-132600000D02*
X187000000Y-136000000D01*
D78*
X198394077Y-103000000D02*
X197000000Y-103000000D01*
D75*
X143025000Y-138225000D02*
X142000000Y-137200000D01*
D76*
X175010706Y-92410706D02*
X174300000Y-91700000D01*
X187644024Y-99755976D02*
X188511611Y-99755976D01*
X158206650Y-98403984D02*
X157995318Y-98192652D01*
X176400000Y-106400000D02*
X176400000Y-109000000D01*
X120000000Y-82450000D02*
X120000000Y-81100002D01*
D75*
X111000000Y-113000000D02*
X112000000Y-112000000D01*
D76*
X182900000Y-100392750D02*
X184640758Y-98651992D01*
X167503984Y-113096016D02*
X166700000Y-113900000D01*
X177500000Y-110900000D02*
X177200000Y-111200000D01*
D75*
X190500000Y-143500000D02*
X189000000Y-142000000D01*
X177000000Y-134000000D02*
X178000000Y-133000000D01*
X146000000Y-138225000D02*
X143025000Y-138225000D01*
D76*
X114800000Y-100350000D02*
X113592588Y-100350000D01*
D78*
X119625000Y-146400000D02*
X121300000Y-146400000D01*
D79*
X132300001Y-99600000D02*
X127400000Y-104500001D01*
D76*
X169000298Y-98513864D02*
X169000298Y-98500298D01*
X181993386Y-99486136D02*
X182900000Y-100392750D01*
X176600000Y-106200000D02*
X176400000Y-106400000D01*
D75*
X111000000Y-113200000D02*
X111000000Y-113000000D01*
D76*
X169000298Y-99499702D02*
X168096016Y-100403984D01*
X159800000Y-96900000D02*
X160900000Y-96900000D01*
D79*
X190000000Y-122000000D02*
X190000000Y-120500000D01*
D76*
X159346016Y-98403984D02*
X159346016Y-97353984D01*
X183207250Y-97300000D02*
X181993386Y-98513864D01*
X188511611Y-99755976D02*
X190064321Y-101308686D01*
D75*
X195000000Y-140000000D02*
X195593548Y-140593548D01*
D76*
X118400000Y-82450000D02*
X118400000Y-81100002D01*
D77*
X185000000Y-118775000D02*
X186775000Y-118775000D01*
D76*
X176400000Y-91700000D02*
X176400000Y-92100000D01*
D75*
X115100000Y-113200000D02*
X115100000Y-111450000D01*
D76*
X177303984Y-88703984D02*
X176553981Y-88703984D01*
X182780150Y-114250000D02*
X182900000Y-114250000D01*
X164903984Y-97096016D02*
X164467024Y-96659056D01*
X111689184Y-91389184D02*
X111621416Y-91389184D01*
D79*
X188730000Y-114800000D02*
X188730000Y-116370000D01*
D76*
X169000298Y-99486136D02*
X169000298Y-99499702D01*
X164603984Y-107996016D02*
X165700000Y-106900000D01*
D78*
X199392623Y-103998546D02*
X198394077Y-103000000D01*
D75*
X181350000Y-124000000D02*
X181350000Y-122350000D01*
D77*
X178075223Y-103375223D02*
X177400000Y-102700000D01*
D76*
X172000000Y-105678823D02*
X172000000Y-107966548D01*
X113250000Y-96900000D02*
X113250000Y-96979211D01*
D79*
X188730000Y-122000000D02*
X188730000Y-120570000D01*
D77*
X178104298Y-103375223D02*
X178075223Y-103375223D01*
D76*
X129000000Y-97100000D02*
X130300000Y-97100000D01*
D75*
X189000000Y-142000000D02*
X189000000Y-141000000D01*
X198000000Y-128000000D02*
X198000000Y-125000000D01*
X183775000Y-125800000D02*
X184800000Y-125800000D01*
X109500001Y-123499999D02*
X109000000Y-124000000D01*
D76*
X160900000Y-96900000D02*
X161451992Y-97451992D01*
X116500000Y-103450000D02*
X116500000Y-104400000D01*
X171250000Y-108716548D02*
X171250000Y-108750000D01*
X182600000Y-119500000D02*
X182600000Y-120600000D01*
X181000000Y-112000000D02*
X181700000Y-111300000D01*
D75*
X110500000Y-123499999D02*
X109500001Y-123499999D01*
X176600000Y-134000000D02*
X177000000Y-134000000D01*
D76*
X169000298Y-98500298D02*
X168300000Y-97800000D01*
X186548008Y-98659960D02*
X187644024Y-99755976D01*
X129100000Y-92400000D02*
X130400000Y-92400000D01*
D77*
X180000000Y-123000000D02*
X181000000Y-122000000D01*
X198775000Y-109000000D02*
X200000000Y-109000000D01*
D76*
X122450000Y-80700000D02*
X122450000Y-82449998D01*
X164603984Y-108003984D02*
X164496016Y-108003984D01*
D79*
X187460000Y-120700000D02*
X187460000Y-122000000D01*
D76*
X174403984Y-108903984D02*
X174251992Y-109055976D01*
X185400000Y-113400000D02*
X185400000Y-114400000D01*
X171250000Y-108750000D02*
X167653984Y-112346016D01*
D79*
X133100000Y-99600000D02*
X132300001Y-99600000D01*
D77*
X187460000Y-119460000D02*
X187460000Y-120700000D01*
X185000000Y-118775000D02*
X185000000Y-120100000D01*
D75*
X178000000Y-133000000D02*
X178000000Y-132000000D01*
D76*
X174100000Y-108292032D02*
X174100000Y-105700143D01*
D78*
X123350000Y-144150000D02*
X123500000Y-144000000D01*
D75*
X193600000Y-138600000D02*
X195000000Y-140000000D01*
D78*
X115275000Y-144150000D02*
X115275000Y-144075000D01*
D75*
X114650000Y-111000000D02*
X114650000Y-110000000D01*
X180900000Y-143900000D02*
X182325000Y-143900000D01*
D77*
X179000000Y-123000000D02*
X180000000Y-123000000D01*
D76*
X176600000Y-91500000D02*
X176400000Y-91700000D01*
D75*
X184000000Y-145575000D02*
X185000000Y-145575000D01*
D76*
X164467024Y-96659056D02*
X164467024Y-96587004D01*
X113250000Y-96979211D02*
X114086813Y-97816024D01*
D75*
X192000000Y-128000000D02*
X192000000Y-125000000D01*
X184000000Y-135000000D02*
X187000000Y-135000000D01*
D76*
X121500000Y-104636609D02*
X121184420Y-104952189D01*
D75*
X184800000Y-125800000D02*
X185000000Y-126000000D01*
D76*
X164603984Y-108003984D02*
X164603984Y-107996016D01*
D79*
X191270000Y-120530000D02*
X191300000Y-120500000D01*
D75*
X148000000Y-138225000D02*
X151559999Y-138225000D01*
D78*
X115650000Y-146400000D02*
X114300000Y-146400000D01*
D76*
X175010706Y-92503456D02*
X175010706Y-92410706D01*
%TO.N,/DSP/I2S0_SDAT*%
X183328823Y-94350000D02*
X186807360Y-94350000D01*
X180579172Y-97099651D02*
X183328823Y-94350000D01*
X186807360Y-94350000D02*
X187211954Y-93945406D01*
%TO.N,Net-(J1-Pin_5)*%
X188378680Y-92778680D02*
X188378680Y-83287867D01*
X189700000Y-81966547D02*
X189700000Y-64300000D01*
X189700000Y-64300000D02*
X193040000Y-60960000D01*
X188378680Y-83287867D02*
X189700000Y-81966547D01*
%TO.N,Net-(J1-Pin_7)*%
X190100000Y-82132232D02*
X189250000Y-82982232D01*
X189250000Y-82982232D02*
X189250000Y-93650000D01*
X190100000Y-66440000D02*
X190100000Y-82132232D01*
X189250000Y-93650000D02*
X189439340Y-93839340D01*
X193040000Y-63500000D02*
X190100000Y-66440000D01*
%TO.N,/DSP/I2S0_SCLK*%
X188205248Y-94938700D02*
X183447229Y-94938700D01*
X183447229Y-94938700D02*
X180932725Y-97453204D01*
X188272614Y-95006066D02*
X188205248Y-94938700D01*
%TO.N,Net-(J1-Pin_9)*%
X189650000Y-90765686D02*
X189650000Y-83147918D01*
X190500000Y-68580000D02*
X193040000Y-66040000D01*
X189650000Y-83147918D02*
X190500000Y-82297918D01*
X190500000Y-94900000D02*
X190500000Y-91615686D01*
X190500000Y-91615686D02*
X189650000Y-90765686D01*
X190500000Y-82297918D02*
X190500000Y-68580000D01*
%TO.N,/DSP/I2S0_LR*%
X187538700Y-95338700D02*
X188266726Y-96066726D01*
X183754336Y-95338700D02*
X187538700Y-95338700D01*
X181286279Y-97806757D02*
X183754336Y-95338700D01*
X188266726Y-96066726D02*
X189333274Y-96066726D01*
%TO.N,/DSP/MCLK0*%
X200834315Y-105865685D02*
X200834315Y-99384315D01*
X199900000Y-106800000D02*
X200834315Y-105865685D01*
X200834315Y-99384315D02*
X200600000Y-99150000D01*
X198601975Y-106800000D02*
X199900000Y-106800000D01*
X197596572Y-105794597D02*
X198601975Y-106800000D01*
%TO.N,Net-(J1-Pin_15)*%
X200600000Y-93500000D02*
X200600000Y-97500000D01*
X193040000Y-85940000D02*
X200600000Y-93500000D01*
X193040000Y-73660000D02*
X193040000Y-85940000D01*
%TO.N,/DSP/I2S1_SDAT*%
X182407502Y-93150000D02*
X179518512Y-96038990D01*
X183933274Y-90766726D02*
X183933274Y-92168808D01*
X183933274Y-92168808D02*
X182952082Y-93150000D01*
X182952082Y-93150000D02*
X182407502Y-93150000D01*
%TO.N,Net-(J2-Pin_5)*%
X183850000Y-81150000D02*
X185100000Y-82400000D01*
X182880000Y-60959999D02*
X180930000Y-62909999D01*
X185100000Y-82400000D02*
X185100000Y-89600000D01*
X183550000Y-78947917D02*
X183550000Y-80547918D01*
X180930000Y-76327917D02*
X183550000Y-78947917D01*
X180930000Y-62909999D02*
X180930000Y-76327917D01*
X183850000Y-80847918D02*
X183850000Y-81150000D01*
X183550000Y-80547918D02*
X183850000Y-80847918D01*
%TO.N,/DSP/I2S1_SCLK*%
X179874183Y-96392544D02*
X182716727Y-93550000D01*
X183271320Y-93550000D02*
X184993934Y-91827386D01*
X182716727Y-93550000D02*
X183271320Y-93550000D01*
X179872065Y-96392544D02*
X179874183Y-96392544D01*
%TO.N,Net-(J2-Pin_7)*%
X181330000Y-76162231D02*
X181330000Y-65050000D01*
X184250000Y-80817768D02*
X184250000Y-80682232D01*
X183950000Y-80382232D02*
X183950000Y-78782231D01*
X183950000Y-78782231D02*
X181330000Y-76162231D01*
X186160660Y-82728428D02*
X184250000Y-80817768D01*
X186160660Y-90660660D02*
X186160660Y-82728428D01*
X181330000Y-65050000D02*
X182880000Y-63500000D01*
X184250000Y-80682232D02*
X183950000Y-80382232D01*
%TO.N,/DSP/I2S1_LR*%
X186054594Y-92888046D02*
X184992640Y-93950000D01*
X184992640Y-93950000D02*
X183021716Y-93950000D01*
X183021716Y-93950000D02*
X180225619Y-96746097D01*
%TO.N,Net-(J2-Pin_9)*%
X181730000Y-67190000D02*
X182880000Y-66040000D01*
X184650000Y-80516546D02*
X184350000Y-80216546D01*
X184350000Y-80216546D02*
X184350000Y-78616545D01*
X184350000Y-78616545D02*
X181730000Y-75996545D01*
X187221320Y-83223402D02*
X184650000Y-80652082D01*
X187221320Y-91721320D02*
X187221320Y-83223402D01*
X181730000Y-75996545D02*
X181730000Y-67190000D01*
X184650000Y-80652082D02*
X184650000Y-80516546D01*
%TO.N,/DSP/MCLK1*%
X198494597Y-105320835D02*
X199573762Y-106400000D01*
X199734314Y-106400000D02*
X200434315Y-105699999D01*
X200434315Y-100684315D02*
X198900000Y-99150000D01*
X200434315Y-105699999D02*
X200434315Y-100684315D01*
X199573762Y-106400000D02*
X199734314Y-106400000D01*
X198494597Y-104896572D02*
X198494597Y-105320835D01*
%TO.N,Net-(J2-Pin_15)*%
X198832842Y-92667158D02*
X198900000Y-92734316D01*
X182880000Y-73660001D02*
X187819999Y-78600000D01*
X187819999Y-78600000D02*
X188400000Y-78600000D01*
X198900000Y-92734316D02*
X198900000Y-97500000D01*
X192550000Y-80150000D02*
X192550000Y-86384315D01*
X191300000Y-78900000D02*
X192550000Y-80150000D01*
X192550000Y-86384315D02*
X198832842Y-92667158D01*
%TO.N,/DSP/I2S2_SDAT*%
X180500000Y-91330150D02*
X180500000Y-91521968D01*
X180500000Y-91521968D02*
X177750745Y-94271223D01*
X180633274Y-87566726D02*
X180633274Y-91196877D01*
X180633274Y-91196877D02*
X180500000Y-91330150D01*
%TO.N,Net-(J3-Pin_5)*%
X170000000Y-63680000D02*
X172720000Y-60960000D01*
X177200000Y-77734315D02*
X176765685Y-77300000D01*
X176765685Y-77300000D02*
X173000001Y-77300000D01*
X181800000Y-82634314D02*
X177200000Y-78034314D01*
X181800000Y-86400000D02*
X181800000Y-82634314D01*
X173000001Y-77300000D02*
X170000000Y-74299999D01*
X170000000Y-74299999D02*
X170000000Y-63680000D01*
X177200000Y-78034314D02*
X177200000Y-77734315D01*
%TO.N,Net-(J3-Pin_7)*%
X177600000Y-77568629D02*
X176931371Y-76900000D01*
X177600000Y-77865686D02*
X177600000Y-77568629D01*
X182860660Y-83126346D02*
X177600000Y-77865686D01*
X170465686Y-74199999D02*
X170465686Y-65754314D01*
X176931371Y-76900000D02*
X173165687Y-76900000D01*
X182860660Y-87460660D02*
X182860660Y-83126346D01*
X173165687Y-76900000D02*
X170465686Y-74199999D01*
X170465686Y-65754314D02*
X172720000Y-63500000D01*
%TO.N,/DSP/I2S2_SCLK*%
X180900000Y-91829075D02*
X180900000Y-91495836D01*
X181050000Y-91345836D02*
X181050000Y-89271320D01*
X181050000Y-89271320D02*
X181693934Y-88627386D01*
X178104298Y-94624777D02*
X180900000Y-91829075D01*
X180900000Y-91495836D02*
X181050000Y-91345836D01*
%TO.N,Net-(J3-Pin_9)*%
X182800000Y-82500000D02*
X183921320Y-82500000D01*
X173331372Y-76500000D02*
X178000000Y-76500000D01*
X183921320Y-88521320D02*
X183921320Y-82500000D01*
X178000000Y-76500000D02*
X178000000Y-77700000D01*
X178000000Y-77700000D02*
X182800000Y-82500000D01*
X170900000Y-74068628D02*
X173331372Y-76500000D01*
X172720000Y-66040000D02*
X170900000Y-67860000D01*
X170900000Y-67860000D02*
X170900000Y-74068628D01*
%TO.N,/DSP/I2S2_LR*%
X181450000Y-90463395D02*
X181450000Y-91511522D01*
X181300000Y-91661522D02*
X181300000Y-92136182D01*
X181300000Y-92136182D02*
X178457852Y-94978330D01*
X182225349Y-89688046D02*
X181450000Y-90463395D01*
X182754594Y-89688046D02*
X182225349Y-89688046D01*
X181450000Y-91511522D02*
X181300000Y-91661522D01*
%TO.N,/DSP/MCLK2*%
X193500000Y-97900000D02*
X193500000Y-98105923D01*
X193500000Y-98105923D02*
X194301454Y-98907377D01*
X196200000Y-95600000D02*
X195800000Y-95600000D01*
X195800000Y-95600000D02*
X193500000Y-97900000D01*
%TO.N,Net-(J3-Pin_15)*%
X185050000Y-79350002D02*
X187515688Y-79350002D01*
X196200000Y-91334315D02*
X192050000Y-87184315D01*
X172720000Y-73660000D02*
X175160000Y-76100000D01*
X192050000Y-87184315D02*
X192050000Y-80750000D01*
X196200000Y-93950000D02*
X196200000Y-91334315D01*
X188165686Y-80000000D02*
X188900006Y-80000000D01*
X179676296Y-76100000D02*
X182324923Y-78748627D01*
X192050000Y-80750000D02*
X191400000Y-80100000D01*
X175160000Y-76100000D02*
X179676296Y-76100000D01*
X187515688Y-79350002D02*
X188165686Y-80000000D01*
%TO.N,/DSP/I2S3_SDAT*%
X177339340Y-85711192D02*
X177663033Y-86034885D01*
X179300000Y-88800000D02*
X179300000Y-90600648D01*
X178800000Y-88300000D02*
X179300000Y-88800000D01*
X177663033Y-87097348D02*
X178800000Y-88234315D01*
X178800000Y-88234315D02*
X178800000Y-88300000D01*
X177339340Y-84239340D02*
X177339340Y-85711192D01*
X177663033Y-86034885D02*
X177663033Y-87097348D01*
X179300000Y-90600648D02*
X176690085Y-93210563D01*
%TO.N,Net-(J4-Pin_5)*%
X160610000Y-62910000D02*
X162560000Y-60960000D01*
X164872614Y-83072614D02*
X160610000Y-78810000D01*
X178506066Y-83072614D02*
X164872614Y-83072614D01*
X160610000Y-78810000D02*
X160610000Y-62910000D01*
%TO.N,/DSP/I2S3_SCLK*%
X177043638Y-93564117D02*
X179700000Y-90907755D01*
X179200000Y-88068629D02*
X178400000Y-87268629D01*
X179700000Y-90907755D02*
X179700000Y-88634314D01*
X178400000Y-87268629D02*
X178400000Y-85300000D01*
X179700000Y-88634314D02*
X179200000Y-88134314D01*
X179200000Y-88134314D02*
X179200000Y-88068629D01*
%TO.N,Net-(J4-Pin_7)*%
X161010000Y-78410000D02*
X164501040Y-81901040D01*
X179849569Y-83850431D02*
X179566726Y-84133274D01*
X179566726Y-81901040D02*
X179849569Y-82183883D01*
X161010000Y-65050000D02*
X161010000Y-78410000D01*
X179849569Y-82183883D02*
X179849569Y-83850431D01*
X164501040Y-81901040D02*
X179566726Y-81901040D01*
X162560000Y-63500000D02*
X161010000Y-65050000D01*
%TO.N,/DSP/I2S3_LR*%
X180100000Y-88402943D02*
X179460660Y-87763603D01*
X179460660Y-87763603D02*
X179460660Y-86360660D01*
X180100000Y-91200862D02*
X180100000Y-88402943D01*
X177397191Y-93903671D02*
X180100000Y-91200862D01*
X177397191Y-93917670D02*
X177397191Y-93903671D01*
%TO.N,Net-(J4-Pin_9)*%
X175799998Y-78900000D02*
X165200000Y-78900000D01*
X161410000Y-75110000D02*
X161410000Y-67190000D01*
X180627386Y-82027386D02*
X176649999Y-78049999D01*
X180627386Y-85193934D02*
X180627386Y-82027386D01*
X161410000Y-67190000D02*
X162560000Y-66040000D01*
X165200000Y-78900000D02*
X161410000Y-75110000D01*
X176649999Y-78049999D02*
X175799998Y-78900000D01*
%TO.N,Net-(J4-Pin_15)*%
X191200000Y-81400000D02*
X191400000Y-81600000D01*
X187756058Y-80356066D02*
X188799992Y-81400000D01*
X191400000Y-90750000D02*
X194600000Y-93950000D01*
X179502082Y-77000000D02*
X182280009Y-79777927D01*
X182280009Y-79777927D02*
X182837805Y-79777927D01*
X191400000Y-81600000D02*
X191400000Y-90750000D01*
X185343934Y-80356066D02*
X187756058Y-80356066D01*
X162560000Y-73660000D02*
X166948958Y-78048958D01*
X178900000Y-77000000D02*
X179502082Y-77000000D01*
X166948958Y-78048958D02*
X175448958Y-78048958D01*
%TO.N,/DSP/MCLK3*%
X191501975Y-99700000D02*
X191500000Y-99700000D01*
X194600000Y-96100000D02*
X194600000Y-95600000D01*
X191500000Y-99200000D02*
X194600000Y-96100000D01*
X191500000Y-99700000D02*
X191500000Y-99200000D01*
X192505403Y-100703428D02*
X191501975Y-99700000D01*
%TO.N,/DSP/SDA*%
X162381371Y-51750000D02*
X161661371Y-52470000D01*
X150825000Y-147000000D02*
X141601040Y-147000000D01*
X162560000Y-68580000D02*
X163780000Y-69800000D01*
D77*
X197075000Y-142288604D02*
X201656281Y-137707323D01*
D76*
X182880000Y-68580000D02*
X184030000Y-69730000D01*
X122000000Y-112601040D02*
X128201040Y-106400000D01*
X186870000Y-69730000D02*
X187300000Y-69300000D01*
X193040000Y-68580000D02*
X194430000Y-69970000D01*
X194430000Y-69970000D02*
X196630000Y-69970000D01*
X196630000Y-69970000D02*
X196800000Y-69800000D01*
X156470000Y-69970000D02*
X157722340Y-68717660D01*
X187300000Y-54385796D02*
X187164204Y-54250000D01*
X140176040Y-145575000D02*
X129575000Y-145575000D01*
X166777508Y-51750000D02*
X166927508Y-51900000D01*
X137400000Y-98100000D02*
X137400000Y-102200000D01*
X134397960Y-106400000D02*
X136277647Y-104520313D01*
X186482938Y-108021234D02*
X186762745Y-108301041D01*
D77*
X204656281Y-122656281D02*
X203000000Y-121000000D01*
D76*
X138257334Y-106500000D02*
X136277647Y-104520313D01*
X185926783Y-108021234D02*
X186482938Y-108021234D01*
X184952774Y-107047225D02*
X185926783Y-108021234D01*
X194450000Y-51250000D02*
X188931698Y-51250000D01*
X122000000Y-138000000D02*
X122000000Y-112601040D01*
D77*
X192029351Y-113630391D02*
X193000000Y-114601040D01*
X193000000Y-122900000D02*
X193645000Y-123545000D01*
D76*
X187300000Y-69300000D02*
X187300000Y-54385796D01*
X135299999Y-95999999D02*
X137400000Y-98100000D01*
D77*
X197075000Y-145432387D02*
X197075000Y-142288604D01*
X193645000Y-123545000D02*
X201586396Y-123545000D01*
D76*
X166900000Y-54600000D02*
X166700000Y-54400000D01*
X176900000Y-69800000D02*
X176987594Y-69712406D01*
X181049996Y-103535490D02*
X181764506Y-104250000D01*
X153790000Y-69970000D02*
X156470000Y-69970000D01*
X179872065Y-101607456D02*
X181049996Y-102785387D01*
X181764506Y-104250000D02*
X182304106Y-104250000D01*
X150350000Y-106475000D02*
X150325000Y-106500000D01*
D77*
X193000000Y-114601040D02*
X193000000Y-122900000D01*
D76*
X181049996Y-102785387D02*
X181049996Y-103535490D01*
X182304106Y-104250000D02*
X182900639Y-104846533D01*
X186630762Y-51250000D02*
X188931698Y-51250000D01*
X195900000Y-52700000D02*
X194450000Y-51250000D01*
D77*
X202000000Y-123131396D02*
X202000000Y-121000000D01*
X202875000Y-57375000D02*
X197500000Y-52000000D01*
D76*
X159201371Y-52470000D02*
X159131371Y-52400000D01*
X157722340Y-68717660D02*
X157722340Y-55845427D01*
D77*
X204656281Y-137707323D02*
X204656281Y-122656281D01*
D76*
X186762745Y-108301041D02*
X186766727Y-108301041D01*
X185980762Y-51900000D02*
X186630762Y-51250000D01*
D77*
X201656281Y-137707323D02*
X204656281Y-137707323D01*
D76*
X184030000Y-69730000D02*
X186870000Y-69730000D01*
X128201040Y-106400000D02*
X134397960Y-106400000D01*
X150350000Y-106000000D02*
X150350000Y-106475000D01*
X166900000Y-69800000D02*
X166900000Y-54600000D01*
X176987594Y-69712406D02*
X176987594Y-54246928D01*
X159131371Y-52400000D02*
X156650000Y-52400000D01*
X186766727Y-108301041D02*
X188900000Y-110434314D01*
X196800000Y-69800000D02*
X196800000Y-53300000D01*
D77*
X195957387Y-146550000D02*
X197075000Y-145432387D01*
D76*
X172720000Y-68580000D02*
X173940000Y-69800000D01*
X195900000Y-52700000D02*
X196200000Y-52700000D01*
X163780000Y-69800000D02*
X166900000Y-69800000D01*
X188900000Y-110501040D02*
X192029351Y-113630391D01*
X188900000Y-110434314D02*
X188900000Y-110501040D01*
D77*
X202875000Y-120125000D02*
X202875000Y-57375000D01*
D76*
X129575000Y-145575000D02*
X122000000Y-138000000D01*
X123237500Y-95999999D02*
X135299999Y-95999999D01*
X152400000Y-68580000D02*
X153790000Y-69970000D01*
D77*
X151275000Y-146550000D02*
X195957387Y-146550000D01*
D76*
X141601040Y-147000000D02*
X140176040Y-145575000D01*
D77*
X151000000Y-146825000D02*
X151275000Y-146550000D01*
D76*
X150325000Y-106500000D02*
X138257334Y-106500000D01*
X166777508Y-51750000D02*
X162381371Y-51750000D01*
D77*
X202000000Y-121000000D02*
X202875000Y-120125000D01*
D76*
X196200000Y-52700000D02*
X196800000Y-53300000D01*
X151000000Y-146825000D02*
X150825000Y-147000000D01*
D77*
X201586396Y-123545000D02*
X202000000Y-123131396D01*
D76*
X173940000Y-69800000D02*
X176900000Y-69800000D01*
X166927508Y-51900000D02*
X185980762Y-51900000D01*
D77*
X202000000Y-121000000D02*
X203000000Y-121000000D01*
D76*
X156650000Y-52400000D02*
X156300000Y-52050000D01*
X161661371Y-52470000D02*
X159201371Y-52470000D01*
D77*
%TO.N,/DSP/SCL*%
X204000000Y-119000000D02*
X205381281Y-120381281D01*
X205381281Y-120381281D02*
X205381281Y-138255115D01*
X201400000Y-57137437D02*
X194662563Y-50400000D01*
D76*
X139852698Y-105300000D02*
X140026327Y-105126371D01*
X138700000Y-105300000D02*
X139852698Y-105300000D01*
D77*
X141425000Y-147425000D02*
X140000000Y-146000000D01*
X121000000Y-138000000D02*
X121000000Y-113000000D01*
D76*
X186690000Y-72510000D02*
X188575766Y-70624234D01*
D77*
X140000000Y-146000000D02*
X129398959Y-146000000D01*
D76*
X159400000Y-50900000D02*
X158300000Y-52000000D01*
X177500000Y-51200000D02*
X177200000Y-50900000D01*
D77*
X193500000Y-122763604D02*
X193831396Y-123095000D01*
X153000000Y-147000000D02*
X196143783Y-147000000D01*
X204000000Y-139636396D02*
X205381281Y-138255115D01*
X121398959Y-138000000D02*
X121000000Y-138000000D01*
D76*
X186752480Y-107716084D02*
X186752480Y-107215102D01*
D77*
X193831396Y-123095000D02*
X201400000Y-123095000D01*
D76*
X182668347Y-103696631D02*
X182885460Y-103696631D01*
X193500000Y-114463604D02*
X186752480Y-107716084D01*
X138700000Y-105300000D02*
X139400000Y-106000000D01*
X176900000Y-50900000D02*
X159400000Y-50900000D01*
X196130000Y-72270000D02*
X197200000Y-71200000D01*
X172720000Y-71120000D02*
X173870000Y-72270000D01*
X158759672Y-70040328D02*
X158759672Y-54808096D01*
X148850000Y-105500000D02*
X150350000Y-104000000D01*
X162560000Y-71120000D02*
X163710000Y-72270000D01*
D77*
X201400000Y-119000000D02*
X202000000Y-119000000D01*
D76*
X187726936Y-50700000D02*
X188026936Y-50400000D01*
X168004622Y-69895378D02*
X168004622Y-54250000D01*
D77*
X198000000Y-145143783D02*
X196143783Y-147000000D01*
D76*
X173870000Y-72270000D02*
X175830000Y-72270000D01*
X133000000Y-106000000D02*
X128000000Y-106000000D01*
X176900000Y-50900000D02*
X177100000Y-50700000D01*
D77*
X201400000Y-123095000D02*
X201400000Y-119000000D01*
X121000000Y-113000000D02*
X128000000Y-106000000D01*
D76*
X153550000Y-72270000D02*
X156530000Y-72270000D01*
X182880000Y-71120000D02*
X184270000Y-72510000D01*
X137800000Y-101397918D02*
X138174982Y-101772900D01*
D77*
X201400000Y-119000000D02*
X201400000Y-57137437D01*
D76*
X144500000Y-105500000D02*
X148850000Y-105500000D01*
X123237500Y-95600000D02*
X135465686Y-95600000D01*
D77*
X194600000Y-50400000D02*
X188026936Y-50400000D01*
D76*
X177200000Y-50900000D02*
X176900000Y-50900000D01*
X175830000Y-72270000D02*
X178915353Y-69184647D01*
X178915353Y-69184647D02*
X178915353Y-54250000D01*
X158300000Y-52000000D02*
X157698490Y-51398490D01*
X157698490Y-51398490D02*
X157247650Y-51398490D01*
X152400000Y-71120000D02*
X153550000Y-72270000D01*
D77*
X152575000Y-147425000D02*
X141425000Y-147425000D01*
X153000000Y-147000000D02*
X152575000Y-147425000D01*
X198000000Y-143000000D02*
X201363604Y-139636396D01*
D76*
X177100000Y-50700000D02*
X187726936Y-50700000D01*
D77*
X129398959Y-146000000D02*
X121398959Y-138000000D01*
X198000000Y-143000000D02*
X198000000Y-145143783D01*
D76*
X156530000Y-72270000D02*
X158759672Y-70040328D01*
X137800000Y-97934314D02*
X137800000Y-101397918D01*
X188575766Y-70624234D02*
X188575766Y-54350000D01*
D77*
X193500000Y-114463604D02*
X193500000Y-122763604D01*
D76*
X139400000Y-106000000D02*
X144000000Y-106000000D01*
X144000000Y-106000000D02*
X144500000Y-105500000D01*
X194190000Y-72270000D02*
X196130000Y-72270000D01*
X193040000Y-71120000D02*
X194190000Y-72270000D01*
X138174982Y-101772900D02*
X138467751Y-101772900D01*
X197200000Y-71200000D02*
X197200000Y-53000000D01*
X135465686Y-95600000D02*
X137800000Y-97934314D01*
X134000000Y-105000000D02*
X133000000Y-106000000D01*
X184270000Y-72510000D02*
X186690000Y-72510000D01*
X163710000Y-72270000D02*
X165630000Y-72270000D01*
X165630000Y-72270000D02*
X168004622Y-69895378D01*
X180225619Y-101253903D02*
X182668347Y-103696631D01*
D77*
X204000000Y-139636396D02*
X201363604Y-139636396D01*
D75*
%TO.N,V33*%
X191388876Y-104186102D02*
X191388876Y-104388876D01*
D76*
X194175000Y-109000000D02*
X192797486Y-109000000D01*
X193300000Y-108000000D02*
X193200000Y-108100000D01*
D75*
X175000000Y-130000000D02*
X173800000Y-130000000D01*
D76*
X172050000Y-108515685D02*
X169700000Y-110865685D01*
D78*
X173550000Y-91050000D02*
X173550000Y-90850000D01*
D79*
X195580000Y-116840000D02*
X198120000Y-116840000D01*
D76*
X169353852Y-99839689D02*
X167693541Y-101500000D01*
D75*
X172200000Y-133200000D02*
X173000000Y-134000000D01*
X181343762Y-115500000D02*
X179500000Y-117343762D01*
X158900000Y-102500000D02*
X158900000Y-102600000D01*
X174500000Y-114400000D02*
X176000000Y-112900000D01*
D76*
X173550000Y-91050000D02*
X173000000Y-90500000D01*
X173950046Y-104435883D02*
X173843980Y-104435883D01*
X168750000Y-113500000D02*
X169750000Y-112500000D01*
X175003456Y-105496544D02*
X174500000Y-106000000D01*
D78*
X161220000Y-130500000D02*
X165100000Y-130500000D01*
D76*
X169750000Y-112500000D02*
X170000000Y-112500000D01*
D78*
X158720000Y-133000000D02*
X161220000Y-130500000D01*
X186000000Y-117000000D02*
X185775000Y-117225000D01*
D75*
X158470000Y-114530000D02*
X158470000Y-122570000D01*
X181900000Y-115500000D02*
X181343762Y-115500000D01*
D78*
X168000000Y-130500000D02*
X169654382Y-128845618D01*
D75*
X158900000Y-102600000D02*
X158100000Y-103400000D01*
X191388876Y-104388876D02*
X192000000Y-105000000D01*
D76*
X161494618Y-100000000D02*
X160497309Y-100997309D01*
X171750000Y-112000000D02*
X171750000Y-112557968D01*
X185996016Y-96203984D02*
X186000000Y-96200000D01*
D75*
X171000000Y-116000000D02*
X170500000Y-115500000D01*
D76*
X174500000Y-106000000D02*
X174500000Y-107903984D01*
X177000000Y-113312994D02*
X177000000Y-114000000D01*
D75*
X169025000Y-136005000D02*
X170180000Y-137160000D01*
D76*
X163747309Y-100997309D02*
X164333274Y-101583274D01*
X193200000Y-108497486D02*
X192747486Y-108950000D01*
X174657153Y-92857010D02*
X173700000Y-91899857D01*
X179515075Y-113484925D02*
X179823043Y-113484925D01*
D78*
X187000000Y-117000000D02*
X186000000Y-117000000D01*
D75*
X182050000Y-115650000D02*
X181900000Y-115500000D01*
D76*
X183596159Y-96203984D02*
X184403984Y-96203984D01*
X173700000Y-91200000D02*
X173550000Y-91050000D01*
X166500000Y-101500000D02*
X165403984Y-101500000D01*
D78*
X187460000Y-116540000D02*
X187000000Y-117000000D01*
D76*
X193200000Y-108100000D02*
X193200000Y-108497486D01*
X165403984Y-101500000D02*
X164103984Y-100200000D01*
D75*
X186100000Y-109900000D02*
X186000000Y-109800000D01*
D78*
X187460000Y-114800000D02*
X187460000Y-116540000D01*
D75*
X158100000Y-103400000D02*
X158100000Y-103500000D01*
X167800000Y-125800000D02*
X167800000Y-123500000D01*
D76*
X200700000Y-107200000D02*
X197746805Y-107200000D01*
X160497309Y-100997309D02*
X163747309Y-100997309D01*
D75*
X170150000Y-133200000D02*
X172200000Y-133200000D01*
X163296016Y-97800000D02*
X162548008Y-98548008D01*
D78*
X169654382Y-128845618D02*
X169654382Y-127654382D01*
D76*
X175348008Y-108751992D02*
X175348008Y-110848008D01*
D75*
X160402691Y-100997309D02*
X158900000Y-102500000D01*
X173800000Y-130000000D02*
X171454382Y-127654382D01*
X173134716Y-115765284D02*
X171234716Y-115765284D01*
X169025000Y-134800000D02*
X169025000Y-136005000D01*
X175000000Y-132000000D02*
X175000000Y-130000000D01*
D76*
X200000000Y-115000000D02*
X200700000Y-114300000D01*
D79*
X198160000Y-116840000D02*
X200000000Y-115000000D01*
D75*
X167800000Y-123500000D02*
X173400000Y-123500000D01*
D76*
X175010706Y-105496544D02*
X175003456Y-105496544D01*
D75*
X176300000Y-116200000D02*
X174500000Y-114400000D01*
X176300000Y-118300000D02*
X176300000Y-116200000D01*
X161354765Y-111645235D02*
X158470000Y-114530000D01*
D76*
X172050000Y-108482232D02*
X172050000Y-108515685D01*
D75*
X158100000Y-103500000D02*
X157300000Y-104300000D01*
X160497309Y-100997309D02*
X160402691Y-100997309D01*
X186100000Y-111600000D02*
X186100000Y-109900000D01*
X170500000Y-115500000D02*
X170500000Y-113807968D01*
D78*
X185000000Y-117225000D02*
X185000000Y-115650000D01*
D76*
X168750000Y-113500000D02*
X168750000Y-114082599D01*
X171750000Y-112557968D02*
X170903984Y-113403984D01*
X170000000Y-112500000D02*
X170903984Y-113403984D01*
D75*
X176400000Y-130100000D02*
X175100000Y-130100000D01*
X169025000Y-134325000D02*
X170150000Y-133200000D01*
D76*
X173000000Y-90500000D02*
X172000000Y-89500000D01*
X180600000Y-119700000D02*
X179300000Y-119700000D01*
X181639832Y-98160311D02*
X183596159Y-96203984D01*
D78*
X193674027Y-100076002D02*
X193674027Y-101900951D01*
D76*
X179300000Y-119700000D02*
X179000000Y-120000000D01*
D78*
X187333274Y-110533274D02*
X187166726Y-110533274D01*
D76*
X173700000Y-91899857D02*
X173700000Y-91200000D01*
X164103984Y-100200000D02*
X162400000Y-100200000D01*
D75*
X173000000Y-134000000D02*
X175000000Y-132000000D01*
D76*
X197746805Y-107200000D02*
X196946805Y-108000000D01*
D75*
X159400000Y-123500000D02*
X167800000Y-123500000D01*
D78*
X193674027Y-101900951D02*
X191388876Y-104186102D01*
D76*
X169700000Y-110865685D02*
X169700000Y-112500000D01*
X172400000Y-105879863D02*
X172400000Y-108132232D01*
D75*
X170500000Y-113807968D02*
X170903984Y-113403984D01*
X174500000Y-114400000D02*
X173134716Y-115765284D01*
D76*
X196946805Y-108000000D02*
X193300000Y-108000000D01*
D75*
X176000000Y-111500000D02*
X175348008Y-110848008D01*
D76*
X178171572Y-112141422D02*
X179515075Y-113484925D01*
X162400000Y-100200000D02*
X162200000Y-100000000D01*
X178171572Y-112141422D02*
X177000000Y-113312994D01*
X173843980Y-104435883D02*
X172400000Y-105879863D01*
D75*
X173400000Y-123500000D02*
X176300000Y-120600000D01*
D78*
X185775000Y-117225000D02*
X185000000Y-117225000D01*
D76*
X180975556Y-114637438D02*
X181037438Y-114637438D01*
D75*
X171454382Y-127654382D02*
X169654382Y-127654382D01*
X169654382Y-127654382D02*
X167800000Y-125800000D01*
D79*
X198120000Y-116840000D02*
X198160000Y-116840000D01*
D76*
X200700000Y-114300000D02*
X200700000Y-107200000D01*
D78*
X187166726Y-110533274D02*
X186100000Y-111600000D01*
X193403428Y-99805403D02*
X193674027Y-100076002D01*
D75*
X175100000Y-130100000D02*
X175000000Y-130000000D01*
D76*
X174500000Y-107903984D02*
X175348008Y-108751992D01*
D75*
X179500000Y-117343762D02*
X177256238Y-117343762D01*
X163700000Y-97800000D02*
X163296016Y-97800000D01*
D76*
X184403984Y-96203984D02*
X185996016Y-96203984D01*
D75*
X171234716Y-115765284D02*
X171000000Y-116000000D01*
X158470000Y-122570000D02*
X159400000Y-123500000D01*
D78*
X187333274Y-110533274D02*
X187133274Y-110533274D01*
D76*
X162200000Y-100000000D02*
X161494618Y-100000000D01*
X179823043Y-113484925D02*
X180975556Y-114637438D01*
D75*
X169025000Y-134800000D02*
X169025000Y-134325000D01*
D76*
X167693541Y-101500000D02*
X166500000Y-101500000D01*
X172400000Y-108132232D02*
X172050000Y-108482232D01*
D75*
X176000000Y-112900000D02*
X176000000Y-111500000D01*
X177256238Y-117343762D02*
X176300000Y-118300000D01*
D76*
X181037438Y-114637438D02*
X181900000Y-115500000D01*
D75*
X162548008Y-98548008D02*
X162548008Y-98946610D01*
D76*
X192797486Y-109000000D02*
X192747486Y-108950000D01*
D75*
X162548008Y-98946610D02*
X160497309Y-100997309D01*
X185000000Y-115650000D02*
X182050000Y-115650000D01*
X176300000Y-120600000D02*
X176300000Y-118300000D01*
%TO.N,/RAW_5V*%
X143000000Y-50900000D02*
X142200000Y-51700000D01*
X172000000Y-53000000D02*
X180000000Y-53000000D01*
X115000000Y-133600000D02*
X115000000Y-137187500D01*
X155010000Y-53270000D02*
X165170000Y-53270000D01*
X203703851Y-126296149D02*
X203703851Y-125935146D01*
X203703851Y-125935146D02*
X203703851Y-124022570D01*
X139600000Y-55980000D02*
X142240000Y-53340000D01*
X180000000Y-53000000D02*
X182880000Y-55880000D01*
X186012133Y-53000000D02*
X182000000Y-53000000D01*
X142240000Y-77740000D02*
X141750000Y-77250000D01*
X142000000Y-145000000D02*
X143100000Y-146100000D01*
X139500000Y-63300000D02*
X139600000Y-63200000D01*
X165170000Y-53270000D02*
X165440000Y-53000000D01*
X186512133Y-52500000D02*
X186012133Y-53000000D01*
X203000000Y-127000000D02*
X203703851Y-126296149D01*
X199425000Y-130175000D02*
X198000000Y-131600000D01*
X192000000Y-135000000D02*
X192000000Y-131600000D01*
X152400000Y-55880000D02*
X149680000Y-55880000D01*
X172000000Y-53000000D02*
X172720000Y-53720000D01*
X203000000Y-127000000D02*
X203000000Y-130175000D01*
X192500000Y-52500000D02*
X193040000Y-53040000D01*
X187000000Y-128000000D02*
X187000000Y-124875001D01*
X192000000Y-131600000D02*
X198000000Y-131600000D01*
X142240000Y-78740000D02*
X142240000Y-77740000D01*
X149680000Y-55880000D02*
X147400000Y-53600000D01*
X147400000Y-53600000D02*
X147400000Y-50900000D01*
X188400000Y-128000000D02*
X187000000Y-128000000D01*
X203703851Y-124022570D02*
X203681281Y-124000000D01*
X142240000Y-51740000D02*
X142240000Y-53340000D01*
X190000000Y-52500000D02*
X186512133Y-52500000D01*
X172720000Y-53720000D02*
X172720000Y-55880000D01*
X141000000Y-144000000D02*
X142000000Y-145000000D01*
X142200000Y-51700000D02*
X142240000Y-51740000D01*
X139600000Y-63200000D02*
X139600000Y-55980000D01*
X192000000Y-131600000D02*
X188400000Y-128000000D01*
X138150001Y-144000000D02*
X141000000Y-144000000D01*
X193040000Y-53040000D02*
X193040000Y-55880000D01*
X203000000Y-130175000D02*
X199425000Y-130175000D01*
X180000000Y-53000000D02*
X182000000Y-53000000D01*
X141750000Y-77250000D02*
X140900000Y-76400000D01*
X147400000Y-50900000D02*
X143000000Y-50900000D01*
X165440000Y-53000000D02*
X172000000Y-53000000D01*
X162560000Y-55880000D02*
X165440000Y-53000000D01*
X115000000Y-137187500D02*
X116812500Y-139000000D01*
X142240000Y-66040000D02*
X139500000Y-63300000D01*
X152400000Y-55880000D02*
X155010000Y-53270000D01*
%TO.N,/DSP/DVDD*%
X155583274Y-102166726D02*
X155583274Y-102626271D01*
D76*
X177300000Y-90900000D02*
X177300000Y-91893541D01*
X169353852Y-98160311D02*
X169294625Y-98160311D01*
D75*
X160300000Y-94900000D02*
X160100000Y-95100000D01*
X162123654Y-102623655D02*
X157668882Y-107078427D01*
D76*
X178400000Y-89800000D02*
X178400000Y-88400001D01*
D78*
X166000000Y-96000000D02*
X165000000Y-95000000D01*
D76*
X187722288Y-102026272D02*
X187722288Y-102431477D01*
X169294625Y-98160311D02*
X168134314Y-97000000D01*
D75*
X165000000Y-95000000D02*
X163900000Y-95000000D01*
D76*
X184251992Y-99748008D02*
X185451992Y-99748008D01*
D75*
X154400001Y-103809545D02*
X157668882Y-107078427D01*
D76*
X177300000Y-91893541D02*
X176336531Y-92857010D01*
X177000000Y-87000000D02*
X176700000Y-87000000D01*
X178400000Y-89800000D02*
X177300000Y-90900000D01*
D79*
X178596016Y-109003984D02*
X179996016Y-109003984D01*
D76*
X178400000Y-88400001D02*
X177500000Y-87500001D01*
D75*
X162700000Y-94900000D02*
X160300000Y-94900000D01*
X154700000Y-101283452D02*
X155583274Y-102166726D01*
D76*
X181639832Y-99839689D02*
X182600143Y-100800000D01*
D75*
X154400000Y-103809545D02*
X154400001Y-103809545D01*
D76*
X185451992Y-99755976D02*
X186548008Y-100851992D01*
X186548008Y-100851992D02*
X187722288Y-102026272D01*
D78*
X167000000Y-97000000D02*
X166000000Y-96000000D01*
D76*
X183200000Y-100800000D02*
X184251992Y-99748008D01*
D75*
X162700000Y-94900000D02*
X163800000Y-94900000D01*
D76*
X177500000Y-87500000D02*
X177000000Y-87000000D01*
X176336531Y-105142990D02*
X177496016Y-106302475D01*
D79*
X179996016Y-109003984D02*
X180000000Y-109000000D01*
D76*
X177496016Y-106302475D02*
X177496016Y-107903984D01*
X182600143Y-100800000D02*
X183200000Y-100800000D01*
D75*
X154700000Y-99720202D02*
X154700000Y-101283452D01*
D76*
X177496016Y-107903984D02*
X178596016Y-109003984D01*
D75*
X159320202Y-95100000D02*
X154700000Y-99720202D01*
X155583274Y-102626271D02*
X154400000Y-103809545D01*
D76*
X177500000Y-87500001D02*
X177500000Y-87500000D01*
D75*
X163800000Y-94900000D02*
X163900000Y-95000000D01*
X160100000Y-95100000D02*
X159320202Y-95100000D01*
D76*
X168134314Y-97000000D02*
X167000000Y-97000000D01*
D77*
%TO.N,/ESP8266/SW*%
X155200000Y-115800000D02*
X156675000Y-114325000D01*
X156975000Y-109975000D02*
X156800000Y-109800000D01*
X152400000Y-132304999D02*
X155200000Y-129504999D01*
X156675000Y-114325000D02*
X156675000Y-113062437D01*
X156975000Y-112762437D02*
X156975000Y-109975000D01*
X156675000Y-113062437D02*
X156975000Y-112762437D01*
X155200000Y-129504999D02*
X155200000Y-115800000D01*
%TO.N,/ESP8266/MCU_V33*%
X146640000Y-127360000D02*
X146000000Y-128000000D01*
D78*
X129540000Y-139925000D02*
X130075000Y-139925000D01*
D77*
X147600000Y-127360000D02*
X146640000Y-127360000D01*
X147600000Y-129900000D02*
X146100000Y-129900000D01*
X146100000Y-129900000D02*
X146000000Y-130000000D01*
D78*
X130075000Y-139925000D02*
X132000000Y-138000000D01*
D77*
%TO.N,/ESP8266/ENCODER1*%
X128202080Y-107000000D02*
X150180000Y-107000000D01*
X124985000Y-135985000D02*
X124000000Y-135000000D01*
X150180000Y-107000000D02*
X152400000Y-109220000D01*
X124000000Y-111202080D02*
X128202080Y-107000000D01*
X128215000Y-131089999D02*
X128215000Y-133466701D01*
X129540000Y-129764999D02*
X128215000Y-131089999D01*
X124000000Y-135000000D02*
X124000000Y-111202080D01*
X128215000Y-133466701D02*
X125696701Y-135985000D01*
X125696701Y-135985000D02*
X124985000Y-135985000D01*
%TO.N,/ESP8266/ENCODER2*%
X136507613Y-107645000D02*
X136277613Y-107875000D01*
X128305000Y-123559999D02*
X130559999Y-123559999D01*
X130559999Y-123559999D02*
X130865000Y-123865000D01*
X130865000Y-130979999D02*
X129540000Y-132304999D01*
X124450000Y-111388476D02*
X124450000Y-119704999D01*
X136277613Y-107875000D02*
X127963476Y-107875000D01*
X148285000Y-107645000D02*
X136507613Y-107645000D01*
X127963476Y-107875000D02*
X124450000Y-111388476D01*
X124450000Y-119704999D02*
X128305000Y-123559999D01*
X130865000Y-123865000D02*
X130865000Y-130979999D01*
X149860000Y-109220000D02*
X148285000Y-107645000D01*
D76*
%TO.N,/ESP8266/MCU_SDA*%
X152000000Y-106000000D02*
X154725000Y-108725000D01*
X154575000Y-127589999D02*
X154575000Y-115823960D01*
X141240000Y-113300000D02*
X155200000Y-113300000D01*
X149385001Y-129764999D02*
X149250000Y-129900000D01*
X152400000Y-129764999D02*
X154575000Y-127589999D01*
X137160000Y-109220000D02*
X141240000Y-113300000D01*
X154575000Y-115823960D02*
X156100000Y-114298960D01*
X155200000Y-113300000D02*
X156100000Y-112400000D01*
X156100000Y-114298960D02*
X156100000Y-112400000D01*
X154725000Y-108725000D02*
X154725000Y-111500000D01*
X152400000Y-129764999D02*
X149385001Y-129764999D01*
D77*
%TO.N,/DSP/AVDD*%
X165700000Y-109100000D02*
X164445235Y-110354765D01*
D76*
X166900000Y-105829075D02*
X166900000Y-107650000D01*
D77*
X164445235Y-110354765D02*
X162645235Y-110354765D01*
D76*
X165700000Y-109100000D02*
X165700000Y-109092032D01*
X166900000Y-107650000D02*
X167096016Y-107846016D01*
X165700000Y-109092032D02*
X166796016Y-107996016D01*
X171121619Y-101607456D02*
X166900000Y-105829075D01*
%TO.N,/ESP8266/MCU_SCL*%
X135533654Y-109220000D02*
X136683654Y-108070000D01*
X154850000Y-112549980D02*
X153942461Y-112549980D01*
X155575000Y-107575000D02*
X155575000Y-111824980D01*
X152400000Y-127224998D02*
X149385002Y-127224998D01*
X152400000Y-127224998D02*
X154175000Y-125449998D01*
X154175000Y-115125000D02*
X155100000Y-114200000D01*
X152000000Y-104000000D02*
X155575000Y-107575000D01*
X134619999Y-109220000D02*
X135533654Y-109220000D01*
X155575000Y-111824980D02*
X154850000Y-112549980D01*
X136683654Y-108070000D02*
X137777767Y-108070000D01*
X154175000Y-125449998D02*
X154175000Y-115125000D01*
X137777767Y-108070000D02*
X142257747Y-112549980D01*
X149385002Y-127224998D02*
X149250000Y-127360000D01*
X142257747Y-112549980D02*
X153942461Y-112549980D01*
%TO.N,Net-(U1-PLLFILT)*%
X173500000Y-105750000D02*
X173500000Y-105593036D01*
X172800000Y-108297918D02*
X172800000Y-108097918D01*
X172800000Y-108097918D02*
X172831802Y-108066116D01*
X173500000Y-105593036D02*
X174303599Y-104789437D01*
X172450000Y-108647918D02*
X172800000Y-108297918D01*
X172831802Y-108066116D02*
X173568198Y-108066116D01*
X173611300Y-105861300D02*
X173500000Y-105750000D01*
X172450000Y-110507968D02*
X172450000Y-108647918D01*
X173568198Y-108066116D02*
X173611300Y-108023014D01*
X173611300Y-108023014D02*
X173611300Y-105861300D01*
X172846016Y-110903984D02*
X172987436Y-110903984D01*
X172987436Y-110903984D02*
X174166726Y-112083274D01*
X172846016Y-110903984D02*
X172450000Y-110507968D01*
%TO.N,/DSP/I2SIN0_SCLK*%
X158701040Y-80300000D02*
X156476040Y-78075000D01*
X151250000Y-64650000D02*
X152400000Y-63500000D01*
X161393036Y-80300000D02*
X158701040Y-80300000D01*
X174303599Y-93210563D02*
X161393036Y-80300000D01*
X156476040Y-78075000D02*
X155076039Y-78075000D01*
X151250000Y-74248961D02*
X151250000Y-64650000D01*
X155076039Y-78075000D02*
X151250000Y-74248961D01*
%TO.N,Net-(J7-Pin_15)*%
X164342969Y-79842969D02*
X176026997Y-79842969D01*
X163200000Y-78700000D02*
X164342969Y-79842969D01*
X188100000Y-82200000D02*
X187200000Y-82200000D01*
X193000000Y-93550000D02*
X190700000Y-91250000D01*
X187200000Y-82200000D02*
X186300000Y-81300000D01*
X156415000Y-77675000D02*
X152400000Y-73660000D01*
X190700000Y-91250000D02*
X190700000Y-83200000D01*
X193000000Y-93950000D02*
X193000000Y-93550000D01*
X158775000Y-77675000D02*
X156415000Y-77675000D01*
X159800000Y-78700000D02*
X158775000Y-77675000D01*
X179900000Y-78100000D02*
X179400000Y-78100000D01*
X183000000Y-81200000D02*
X179900000Y-78100000D01*
%TO.N,/DSP/I2SIN0_SDAT*%
X149475000Y-74276040D02*
X149775000Y-74576040D01*
X156531372Y-79400000D02*
X158331372Y-81200000D01*
X151331372Y-79200000D02*
X156262743Y-79200000D01*
X149475000Y-61345000D02*
X149475000Y-74276040D01*
X150100000Y-77968628D02*
X151331372Y-79200000D01*
X156462743Y-79400000D02*
X156531372Y-79400000D01*
X160878823Y-81200000D02*
X173596493Y-93917670D01*
X152400000Y-58420000D02*
X149475000Y-61345000D01*
X156262743Y-79200000D02*
X156462743Y-79400000D01*
X158331372Y-81200000D02*
X160878823Y-81200000D01*
X150100000Y-75001040D02*
X150100000Y-77968628D01*
X149775000Y-74676040D02*
X150100000Y-75001040D01*
X149775000Y-74576040D02*
X149775000Y-74676040D01*
D77*
%TO.N,/DSP/I2SIN0_LR*%
X150300000Y-73900001D02*
X150300000Y-66200000D01*
X154899999Y-78500000D02*
X156232412Y-78500000D01*
X161160929Y-80775000D02*
X161054864Y-80775000D01*
X154899999Y-78500000D02*
X150300000Y-73900001D01*
X161054864Y-80775000D02*
X158507412Y-80775000D01*
X156232412Y-78500000D02*
X158507412Y-80775000D01*
X173950046Y-93564117D02*
X161160929Y-80775000D01*
%TO.N,Net-(U7-VOUT)*%
X163720000Y-134575002D02*
X163720000Y-137160000D01*
%TO.N,Net-(L3-Pad1)*%
X166525000Y-130669999D02*
X164194999Y-133000000D01*
X158225000Y-124875000D02*
X166328122Y-124875000D01*
X166525000Y-125071878D02*
X166525000Y-130669999D01*
X164194999Y-133000000D02*
X163720000Y-133000000D01*
X156000000Y-122650000D02*
X158225000Y-124875000D01*
X166328122Y-124875000D02*
X166525000Y-125071878D01*
%TO.N,Net-(U7-VCC)*%
X158720000Y-134575002D02*
X158720000Y-137080000D01*
X160720000Y-134550000D02*
X158745002Y-134550000D01*
X158720000Y-137080000D02*
X158640000Y-137160000D01*
X158745002Y-134550000D02*
X158720000Y-134575002D01*
D76*
%TO.N,/DSP/MCLK4*%
X190600000Y-100600000D02*
X190600000Y-99400000D01*
X191601454Y-101601454D02*
X190600000Y-100600000D01*
X190600000Y-99400000D02*
X193000000Y-97000000D01*
X193000000Y-97000000D02*
X193000000Y-95600000D01*
X191607377Y-101601454D02*
X191601454Y-101601454D01*
%TO.N,Net-(C24-Pad2)*%
X173000000Y-113500000D02*
X172000000Y-114500000D01*
X173000000Y-113250000D02*
X173000000Y-113500000D01*
D77*
%TO.N,/DSP/MP7*%
X178811405Y-95331884D02*
X181725000Y-92418289D01*
X181725000Y-92418289D02*
X181725000Y-91950520D01*
X182350520Y-91325000D02*
X182350520Y-91077385D01*
X196090885Y-85849114D02*
X198120000Y-83819999D01*
X181725000Y-91950520D02*
X182350520Y-91325000D01*
X195132940Y-85849114D02*
X196090885Y-85849114D01*
X195132940Y-85849114D02*
X195132940Y-85912940D01*
D76*
%TO.N,Net-(U1-SS_M{slash}MP0)*%
X178949998Y-103513816D02*
X178949998Y-104178831D01*
X184233274Y-110465506D02*
X184144299Y-110376531D01*
X184233274Y-112233274D02*
X184233274Y-110465506D01*
X178457852Y-103021670D02*
X178949998Y-103513816D01*
X178949998Y-104178831D02*
X180064733Y-105293566D01*
%TO.N,/DSP/I2CADDR0*%
X188070129Y-106516560D02*
X188070129Y-105904937D01*
X183446631Y-102446631D02*
X183772342Y-102772342D01*
X182832560Y-102446631D02*
X183446631Y-102446631D01*
X187479670Y-105314478D02*
X186275714Y-105314478D01*
X187901470Y-106685219D02*
X188070129Y-106516560D01*
D77*
X194400000Y-114014071D02*
X194400000Y-118200000D01*
D76*
X184993679Y-103993679D02*
X184993679Y-104390900D01*
X183772342Y-102772342D02*
X184432695Y-102772342D01*
X184432695Y-102772342D02*
X184930613Y-103270260D01*
X184930613Y-103270260D02*
X184930613Y-103930613D01*
X180932725Y-100546796D02*
X182832560Y-102446631D01*
X194348386Y-114014071D02*
X187901470Y-107567155D01*
X188070129Y-105904937D02*
X187479670Y-105314478D01*
X184930613Y-103930613D02*
X184993679Y-103993679D01*
D77*
X194400000Y-118200000D02*
X195580000Y-119380000D01*
D76*
X187901470Y-107567155D02*
X187901470Y-106685219D01*
X194400000Y-114014071D02*
X194348386Y-114014071D01*
%TO.N,/DSP/BCLK_IN1*%
X146031372Y-62700000D02*
X143980000Y-62700000D01*
X173242939Y-94271223D02*
X160571716Y-81600000D01*
X148400000Y-76834314D02*
X148400000Y-65068628D01*
X143980000Y-62700000D02*
X142240000Y-60960000D01*
X148400000Y-65068628D02*
X146031372Y-62700000D01*
X151165686Y-79600000D02*
X148400000Y-76834314D01*
X158165686Y-81600000D02*
X156365686Y-79800000D01*
X160571716Y-81600000D02*
X158165686Y-81600000D01*
X156297057Y-79800000D02*
X156097057Y-79600000D01*
X156365686Y-79800000D02*
X156297057Y-79800000D01*
X156097057Y-79600000D02*
X151165686Y-79600000D01*
D77*
%TO.N,/DSP/MP6*%
X181725395Y-93074605D02*
X182600000Y-92200000D01*
X196486787Y-86359999D02*
X195612385Y-87234401D01*
X198120000Y-86359999D02*
X196486787Y-86359999D01*
X181725395Y-93125000D02*
X181725395Y-93074605D01*
X179164958Y-95685437D02*
X181725395Y-93125000D01*
D76*
%TO.N,/DSP/AUXADC5*%
X173242939Y-103728777D02*
X169661300Y-107310416D01*
D80*
X166100000Y-112701040D02*
X165770000Y-113031040D01*
X165770000Y-114143798D02*
X166356202Y-114730000D01*
D76*
X169661300Y-109138700D02*
X166800000Y-112000000D01*
D80*
X166356202Y-114730000D02*
X167610000Y-114730000D01*
X167610000Y-114730000D02*
X167840000Y-114500000D01*
D76*
X169661300Y-107310416D02*
X169661300Y-109138700D01*
D80*
X165770000Y-113031040D02*
X165770000Y-114143798D01*
D77*
X167840000Y-114500000D02*
X172720000Y-119380000D01*
X166100000Y-112701040D02*
X166800000Y-112001040D01*
D76*
%TO.N,/DSP/dspconnector_minimal_input3/SDAT*%
X140700000Y-86734315D02*
X140300000Y-86334315D01*
X143950000Y-88450000D02*
X142698959Y-89701041D01*
X142698959Y-89701041D02*
X140700000Y-87702082D01*
X147602082Y-89600000D02*
X146452082Y-88450000D01*
X140300000Y-86334315D02*
X140300000Y-83220000D01*
X161500648Y-89600000D02*
X147602082Y-89600000D01*
X142700000Y-91000000D02*
X142700000Y-89702082D01*
X140300000Y-83220000D02*
X142240000Y-81280000D01*
X142700000Y-89702082D02*
X142698959Y-89701041D01*
X169707405Y-97806757D02*
X161500648Y-89600000D01*
X140700000Y-87702082D02*
X140700000Y-86734315D01*
X146452082Y-88450000D02*
X143950000Y-88450000D01*
%TO.N,/DSP/LRCLK_IN1{slash}MP11*%
X141090000Y-61436346D02*
X141090000Y-59570000D01*
X160498924Y-82234315D02*
X158065687Y-82234315D01*
X157500000Y-81668628D02*
X157500000Y-81568629D01*
X172889386Y-94624777D02*
X160498924Y-82234315D01*
X158065687Y-82234315D02*
X157500000Y-81668628D01*
X141090000Y-59570000D02*
X142240000Y-58420000D01*
X151000000Y-80000000D02*
X148000000Y-77000000D01*
X148000000Y-65234314D02*
X145865686Y-63100000D01*
X145865686Y-63100000D02*
X142753654Y-63100000D01*
X142753654Y-63100000D02*
X141090000Y-61436346D01*
X148000000Y-77000000D02*
X148000000Y-65234314D01*
X155931371Y-80000000D02*
X151000000Y-80000000D01*
X157500000Y-81568629D02*
X155931371Y-80000000D01*
%TO.N,/DSP/I2CADDR1*%
X187501470Y-107668193D02*
X187501470Y-106762010D01*
D77*
X198120000Y-119380000D02*
X196755000Y-120745000D01*
D76*
X182529416Y-102850593D02*
X182533378Y-102846631D01*
D77*
X193950000Y-119411701D02*
X193950000Y-114271177D01*
X195283299Y-120745000D02*
X193950000Y-119411701D01*
D76*
X193950000Y-114271177D02*
X187424243Y-107745420D01*
X180579172Y-100900349D02*
X182529416Y-102850593D01*
X187220129Y-106480669D02*
X187220129Y-106164478D01*
X182533378Y-102846631D02*
X183237542Y-102846631D01*
X183735460Y-103344549D02*
X183735460Y-103622342D01*
X183237542Y-102846631D02*
X183735460Y-103344549D01*
X187501470Y-106762010D02*
X187220129Y-106480669D01*
X187424243Y-107745420D02*
X187501470Y-107668193D01*
X183735460Y-103622342D02*
X184080613Y-103622342D01*
D77*
X196755000Y-120745000D02*
X195283299Y-120745000D01*
D76*
%TO.N,/DSP/EXT_LRCLK*%
X145400000Y-91000000D02*
X145400000Y-89800000D01*
X161807755Y-89200000D02*
X147767768Y-89200000D01*
X141100000Y-86846346D02*
X141100000Y-86568629D01*
X141090000Y-84970000D02*
X142240000Y-83820000D01*
X170060959Y-97453204D02*
X161807755Y-89200000D01*
X141100000Y-86568629D02*
X141090000Y-86558629D01*
X142503654Y-88250000D02*
X141100000Y-86846346D01*
X142703654Y-88050000D02*
X142503654Y-88250000D01*
X141090000Y-86558629D02*
X141090000Y-84970000D01*
X147767768Y-89200000D02*
X146617768Y-88050000D01*
X145400000Y-89800000D02*
X145100000Y-89500000D01*
X146617768Y-88050000D02*
X142703654Y-88050000D01*
%TO.N,/DSP/EXT_BCLK*%
X170414512Y-97099651D02*
X162114861Y-88800000D01*
X147933453Y-88800000D02*
X146783453Y-87650000D01*
X148000000Y-91000000D02*
X146300000Y-89300000D01*
X143530000Y-87650000D02*
X142240000Y-86360000D01*
X146300000Y-89300000D02*
X146100000Y-89300000D01*
X162114861Y-88800000D02*
X147933453Y-88800000D01*
X146783453Y-87650000D02*
X143530000Y-87650000D01*
%TO.N,Net-(U1-CLKOUT)*%
X179639584Y-106543566D02*
X181112655Y-108016637D01*
X179456431Y-106453032D02*
X179546965Y-106543566D01*
X181112655Y-108016637D02*
X181616637Y-108016637D01*
X179456431Y-106360413D02*
X179456431Y-106453032D01*
X177397191Y-104082330D02*
X177778347Y-104463486D01*
X179546965Y-106543566D02*
X179639584Y-106543566D01*
X177778347Y-104463486D02*
X177778347Y-104682329D01*
X177778347Y-104682329D02*
X179456431Y-106360413D01*
%TO.N,Net-(JP1-A)*%
X142700000Y-92299998D02*
X142700000Y-94200000D01*
%TO.N,/DSP/SDATA_IN1*%
X147600000Y-65400000D02*
X147600000Y-77200000D01*
X142240000Y-55880000D02*
X140690000Y-57430000D01*
X147600000Y-77200000D02*
X150800000Y-80400000D01*
X157100000Y-81734314D02*
X157100000Y-82308630D01*
X140690000Y-61602031D02*
X142787969Y-63700000D01*
X155765686Y-80400000D02*
X157100000Y-81734314D01*
X150800000Y-80400000D02*
X155765686Y-80400000D01*
X160577502Y-83020000D02*
X172535832Y-94978330D01*
X142787969Y-63700000D02*
X145900000Y-63700000D01*
X157811370Y-83020000D02*
X160577502Y-83020000D01*
X157100000Y-82308630D02*
X157811370Y-83020000D01*
X140690000Y-57430000D02*
X140690000Y-61602031D01*
X145900000Y-63700000D02*
X147600000Y-65400000D01*
D77*
%TO.N,/ESP8266/D4*%
X126590001Y-135969999D02*
X125400000Y-137160000D01*
X132050989Y-134125000D02*
X130205990Y-135969999D01*
X130205990Y-135969999D02*
X126590001Y-135969999D01*
X152400000Y-134844999D02*
X151680001Y-134125000D01*
X151680001Y-134125000D02*
X132050989Y-134125000D01*
D76*
%TO.N,/DSP/~{DSPRESET_SUPERVISED}*%
X182023770Y-106959646D02*
X182023770Y-107023770D01*
X180143566Y-106143566D02*
X180959646Y-106959646D01*
X182852082Y-110250000D02*
X183393480Y-110791398D01*
X181943569Y-109621487D02*
X182572082Y-110250000D01*
X183393480Y-110791398D02*
X183393480Y-113393480D01*
X182023770Y-107023770D02*
X183000000Y-108000000D01*
X179214733Y-105553029D02*
X179805269Y-106143566D01*
X181943569Y-109033207D02*
X181943569Y-109621487D01*
D77*
X182700000Y-117900000D02*
X182600000Y-117800000D01*
X183800000Y-117900000D02*
X182700000Y-117900000D01*
D76*
X183393480Y-113393480D02*
X184000000Y-114000000D01*
X182976776Y-108000000D02*
X181943569Y-109033207D01*
X179214733Y-105192765D02*
X179214733Y-105553029D01*
X179805269Y-106143566D02*
X180143566Y-106143566D01*
X177750745Y-103728777D02*
X179214733Y-105192765D01*
X183000000Y-108000000D02*
X182976776Y-108000000D01*
X182572082Y-110250000D02*
X182852082Y-110250000D01*
X180959646Y-106959646D02*
X182023770Y-106959646D01*
%TO.N,/DSP/AUXADC1*%
X162560000Y-113719046D02*
X162560000Y-119380000D01*
X167800000Y-106400000D02*
X168061300Y-106661300D01*
X168061300Y-106661300D02*
X168061300Y-108404386D01*
X168061300Y-108404386D02*
X165732843Y-110732843D01*
X165510849Y-110768197D02*
X162560000Y-113719046D01*
X171828726Y-102314563D02*
X171828726Y-102371274D01*
X165732843Y-110732843D02*
X165510849Y-110732843D01*
X171828726Y-102371274D02*
X167800000Y-106400000D01*
X165510849Y-110732843D02*
X165510849Y-110768197D01*
%TO.N,/DSP/AUXADC3*%
X164990000Y-112607058D02*
X164990000Y-114556726D01*
D77*
X165175000Y-116914999D02*
X165175000Y-114741726D01*
D76*
X164990000Y-114556726D02*
X165175000Y-114741726D01*
D77*
X167640001Y-119380000D02*
X165175000Y-116914999D01*
D76*
X168861300Y-106696202D02*
X168861300Y-108735758D01*
X168861300Y-108735758D02*
X164990000Y-112607058D01*
X172535832Y-103021670D02*
X168861300Y-106696202D01*
%TO.N,/DSP/SCL_M*%
X180416815Y-104443566D02*
X180914733Y-104941484D01*
X180225002Y-103374607D02*
X180225002Y-104290154D01*
X180914733Y-104941484D02*
X180914733Y-105404685D01*
D77*
X187466726Y-112766726D02*
X187500000Y-112800000D01*
D76*
X186135356Y-112766726D02*
X184844074Y-111475444D01*
D77*
X190000000Y-114000001D02*
X190000000Y-114800000D01*
D76*
X187266726Y-112766726D02*
X186135356Y-112766726D01*
X181148334Y-105638286D02*
X181148334Y-105946252D01*
X180914733Y-105404685D02*
X181148334Y-105638286D01*
D77*
X188799999Y-112800000D02*
X190000000Y-114000001D01*
D76*
X184844074Y-111475444D02*
X184844074Y-109463941D01*
D77*
X187500000Y-112800000D02*
X188799999Y-112800000D01*
X187266726Y-112766726D02*
X187466726Y-112766726D01*
D76*
X180225002Y-104290154D02*
X180378414Y-104443566D01*
X180378414Y-104443566D02*
X180416815Y-104443566D01*
X179164958Y-102314563D02*
X180225002Y-103374607D01*
%TO.N,/DSP/BCLK_IN2*%
X143090000Y-74510000D02*
X142240000Y-73660000D01*
X171475172Y-96038990D02*
X162946182Y-87510000D01*
X148400000Y-87405884D02*
X148400000Y-79168628D01*
X162946182Y-87510000D02*
X148504116Y-87510000D01*
X148400000Y-79168628D02*
X143741372Y-74510000D01*
X148504116Y-87510000D02*
X148400000Y-87405884D01*
X143741372Y-74510000D02*
X143090000Y-74510000D01*
D77*
%TO.N,/ESP8266/D0*%
X125400000Y-134620000D02*
X127765000Y-132255000D01*
X127765000Y-128999998D02*
X129540000Y-127224998D01*
X127765000Y-132255000D02*
X127765000Y-128999998D01*
%TO.N,/ESP8266/A0*%
X129540000Y-124684999D02*
X127000000Y-127224999D01*
X127000000Y-130480000D02*
X125400000Y-132080000D01*
X127000000Y-127224999D02*
X127000000Y-130480000D01*
%TO.N,/ESP8266/D8*%
X127715001Y-137384999D02*
X125400000Y-139700000D01*
X129540000Y-137384999D02*
X127715001Y-137384999D01*
D76*
%TO.N,/DSP/AUXADC4*%
X169261300Y-107003309D02*
X169261300Y-108938700D01*
X165390000Y-112810000D02*
X165390000Y-114301200D01*
X165390000Y-114301200D02*
X170180000Y-119091200D01*
X170180000Y-119091200D02*
X170180000Y-119380000D01*
X172889386Y-103375223D02*
X169261300Y-107003309D01*
X169261300Y-108938700D02*
X165390000Y-112810000D01*
%TO.N,/DSP/AUXADC2*%
X164047897Y-118327897D02*
X165100000Y-119380000D01*
X164047897Y-112983475D02*
X164047897Y-118327897D01*
X168461300Y-108570072D02*
X164047897Y-112983475D01*
X168461300Y-106389095D02*
X168461300Y-108570072D01*
X172182279Y-102668116D02*
X168461300Y-106389095D01*
%TO.N,/DSP/SDA_M*%
X191270000Y-113968960D02*
X189001040Y-111700000D01*
X180649996Y-103734368D02*
X180778414Y-103862786D01*
X188500000Y-110603982D02*
X186317252Y-108421234D01*
X188500000Y-111700000D02*
X188500000Y-110603982D01*
X179518512Y-101961010D02*
X180649996Y-103092494D01*
X191270000Y-114800000D02*
X191270000Y-113968960D01*
X186317252Y-108421234D02*
X185329119Y-108421234D01*
X180778414Y-104039728D02*
X181764733Y-105026047D01*
X180778414Y-103862786D02*
X180778414Y-104039728D01*
X180649996Y-103092494D02*
X180649996Y-103734368D01*
X189001040Y-111700000D02*
X188500000Y-111700000D01*
%TO.N,/DSP/LRCLK_IN2{slash}MP12*%
X143995685Y-75930000D02*
X143365685Y-75300000D01*
X148000000Y-87571570D02*
X148000000Y-79334314D01*
X148000000Y-79334314D02*
X144595686Y-75930000D01*
X148338430Y-87910000D02*
X148000000Y-87571570D01*
X141090000Y-72270000D02*
X142240000Y-71120000D01*
X143365685Y-75300000D02*
X142253654Y-75300000D01*
X144595686Y-75930000D02*
X143995685Y-75930000D01*
X162775686Y-87910000D02*
X148338430Y-87910000D01*
X141090000Y-74136346D02*
X141090000Y-72270000D01*
X163700000Y-88970925D02*
X163700000Y-88834314D01*
X171121619Y-96392544D02*
X163700000Y-88970925D01*
X163700000Y-88834314D02*
X162775686Y-87910000D01*
X142253654Y-75300000D02*
X141090000Y-74136346D01*
D77*
%TO.N,/DSP/AUXADC0*%
X160020000Y-119380000D02*
X160020000Y-115658006D01*
D76*
X165345163Y-110332843D02*
X163482211Y-112195795D01*
X165567157Y-110332843D02*
X165345163Y-110332843D01*
X171475172Y-101961010D02*
X167400000Y-106036182D01*
X167400000Y-106036182D02*
X167400000Y-106865686D01*
D77*
X160020000Y-115658006D02*
X163482211Y-112195795D01*
D76*
X167661300Y-108238700D02*
X165567157Y-110332843D01*
X167400000Y-106865686D02*
X167661300Y-107126986D01*
X167661300Y-107126986D02*
X167661300Y-108238700D01*
%TO.N,/DSP/VDRIVE*%
X167150648Y-102750000D02*
X169707405Y-100193243D01*
X165500000Y-102750000D02*
X167150648Y-102750000D01*
X163750000Y-104250000D02*
X165250000Y-102750000D01*
X165250000Y-102750000D02*
X165500000Y-102750000D01*
D77*
%TO.N,/DSP/SPDIFOUT*%
X166975000Y-124425000D02*
X166975000Y-132990000D01*
X166975000Y-132990000D02*
X167160000Y-133175000D01*
X157575000Y-113739861D02*
X157575000Y-122841726D01*
X157575000Y-122841726D02*
X159158274Y-124425000D01*
X170414512Y-100900349D02*
X157575000Y-113739861D01*
X159158274Y-124425000D02*
X166975000Y-124425000D01*
%TO.N,/DSP/SPDIFIN*%
X157125000Y-113482755D02*
X157125000Y-119875000D01*
X170060959Y-100546796D02*
X157125000Y-113482755D01*
X157125000Y-119875000D02*
X156000000Y-121000000D01*
D76*
%TO.N,/DSP/SDATA_IN2*%
X142240000Y-68580000D02*
X140690000Y-70130000D01*
X147600000Y-79500000D02*
X147600000Y-87737256D01*
X140690000Y-74302032D02*
X142087968Y-75700000D01*
X143630000Y-76330000D02*
X144430000Y-76330000D01*
X162528035Y-88400000D02*
X170768065Y-96640030D01*
X143000000Y-75700000D02*
X143630000Y-76330000D01*
X148262744Y-88400000D02*
X162528035Y-88400000D01*
X147600000Y-87737256D02*
X148262744Y-88400000D01*
X144430000Y-76330000D02*
X147600000Y-79500000D01*
X170768065Y-96640030D02*
X170768065Y-96746097D01*
X140690000Y-70130000D02*
X140690000Y-74302032D01*
X142087968Y-75700000D02*
X143000000Y-75700000D01*
%TO.N,/DSP/SELFBOOT*%
X187114478Y-104914478D02*
X187031275Y-104831275D01*
X194500000Y-112712117D02*
X188470129Y-106682246D01*
D77*
X198120000Y-110120000D02*
X198120000Y-111760000D01*
D76*
X184571982Y-102372342D02*
X184598381Y-102372342D01*
X188470129Y-105739251D02*
X187645356Y-104914478D01*
D77*
X195825000Y-109000000D02*
X197225000Y-109000000D01*
X197225000Y-109225000D02*
X198120000Y-110120000D01*
D76*
X181286279Y-100193243D02*
X182293036Y-101200000D01*
X182293036Y-101200000D02*
X183399640Y-101200000D01*
X188470129Y-106682246D02*
X188470129Y-105739251D01*
X184598381Y-102372342D02*
X185330613Y-103104574D01*
X185606601Y-103406961D02*
X185780613Y-103406961D01*
D77*
X197225000Y-109000000D02*
X197225000Y-109225000D01*
D76*
X183399640Y-101200000D02*
X184571982Y-102372342D01*
X185330613Y-103130973D02*
X185606601Y-103406961D01*
X187031275Y-104831275D02*
X187031275Y-104560464D01*
X194500000Y-113400000D02*
X194500000Y-112712117D01*
D77*
X196480000Y-113400000D02*
X194500000Y-113400000D01*
X198120000Y-111760000D02*
X196480000Y-113400000D01*
D76*
X187645356Y-104914478D02*
X187114478Y-104914478D01*
X185330613Y-103104574D02*
X185330613Y-103130973D01*
D77*
%TO.N,/DSP/~{DSPRESET}*%
X180231238Y-118168762D02*
X179797964Y-118168762D01*
X180600000Y-117800000D02*
X180231238Y-118168762D01*
X173966726Y-125000000D02*
X169000000Y-125000000D01*
X161430457Y-126009061D02*
X165750000Y-126009061D01*
X179797964Y-118168762D02*
X177125000Y-120841726D01*
X129540000Y-134844999D02*
X130709999Y-133675000D01*
X153764518Y-133675000D02*
X161430457Y-126009061D01*
X130709999Y-133675000D02*
X153764518Y-133675000D01*
X177125000Y-120841726D02*
X177125000Y-121841726D01*
X177125000Y-121841726D02*
X173966726Y-125000000D01*
%TO.N,Net-(U4-VIN)*%
X167160000Y-136680000D02*
X167640000Y-137160000D01*
X167160000Y-134825000D02*
X167160000Y-136680000D01*
D75*
%TO.N,Net-(D1-K)*%
X184950002Y-124000000D02*
X183000000Y-124000000D01*
D77*
%TO.N,Net-(D2-K)*%
X177350000Y-124475003D02*
X176950002Y-124875001D01*
X177350000Y-123000000D02*
X177350000Y-124475003D01*
D76*
%TO.N,/DSP/MCLK_DSP*%
X186039809Y-104464478D02*
X186039809Y-104205282D01*
X182783363Y-109183363D02*
X183400000Y-108566726D01*
X186039809Y-104205282D02*
X186630613Y-103614478D01*
X183400000Y-107104287D02*
X186039809Y-104464478D01*
X192490541Y-106692623D02*
X196698546Y-106692623D01*
X189412396Y-103614478D02*
X192490541Y-106692623D01*
X186630613Y-103614478D02*
X189412396Y-103614478D01*
X183400000Y-108566726D02*
X183400000Y-107104287D01*
D75*
%TO.N,/rp2040/VBUS*%
X112500000Y-136500000D02*
X109300000Y-136500000D01*
X108750000Y-130350000D02*
X108750000Y-134900430D01*
X109300000Y-136500000D02*
X109300000Y-135450430D01*
D79*
X116500000Y-140500000D02*
X117175000Y-141175000D01*
X117175000Y-141175000D02*
X117175000Y-143350000D01*
D75*
X109300000Y-135450430D02*
X108750000Y-134900430D01*
X110600000Y-128500000D02*
X108750000Y-130350000D01*
X116500000Y-140500000D02*
X112500000Y-136500000D01*
D76*
%TO.N,/rp2040/PI_3V3*%
X117200000Y-98000000D02*
X115400000Y-98000000D01*
X123237500Y-96400000D02*
X125500000Y-96400000D01*
D75*
X109450000Y-113850000D02*
X109450000Y-113200000D01*
D76*
X127150000Y-92800000D02*
X123237500Y-92800000D01*
X125900000Y-103410000D02*
X124890000Y-103410000D01*
X114800000Y-96800000D02*
X115200000Y-96400000D01*
X115200000Y-96400000D02*
X116362500Y-96400000D01*
X124700000Y-105300000D02*
X124000000Y-106000000D01*
X125850000Y-105150000D02*
X125850000Y-105300000D01*
D77*
X124300000Y-82700000D02*
X124300000Y-84600000D01*
D76*
X114800000Y-96900000D02*
X114800000Y-96800000D01*
X114650000Y-92800000D02*
X114150000Y-92300000D01*
X119299999Y-97337500D02*
X119199999Y-97237500D01*
X116362500Y-92800000D02*
X114650000Y-92800000D01*
X124000000Y-80700000D02*
X124000000Y-82400000D01*
X114800000Y-96900000D02*
X115200000Y-96900000D01*
D77*
X121000000Y-83000000D02*
X121000000Y-80000000D01*
X127450000Y-97100000D02*
X125100000Y-97100000D01*
D76*
X121500000Y-102000000D02*
X119299999Y-99799999D01*
X124600000Y-103900000D02*
X125850000Y-105150000D01*
X124000000Y-80700000D02*
X124000000Y-80247738D01*
D75*
X113000000Y-120000000D02*
X112000000Y-119000000D01*
D76*
X119600000Y-97237500D02*
X119600000Y-100100000D01*
D77*
X112000000Y-90000000D02*
X113750000Y-91750000D01*
X113750000Y-92300000D02*
X113750000Y-91750000D01*
D75*
X113000000Y-120000000D02*
X114000000Y-121000000D01*
X112800000Y-117200000D02*
X109450000Y-113850000D01*
D77*
X117100000Y-98800000D02*
X116200000Y-98800000D01*
D76*
X119299999Y-99799999D02*
X119299999Y-97337500D01*
D77*
X125100000Y-97100000D02*
X125000000Y-97000000D01*
D76*
X117100000Y-97737501D02*
X117100000Y-98800000D01*
X117600001Y-97237500D02*
X117100000Y-97737501D01*
X123237500Y-92800000D02*
X122200000Y-92800000D01*
X119600000Y-100100000D02*
X121500000Y-102000000D01*
D77*
X121500000Y-102000000D02*
X120899986Y-102000000D01*
D75*
X114000000Y-121000000D02*
X112800000Y-122200000D01*
D77*
X134900000Y-97000000D02*
X136200000Y-98300000D01*
D76*
X115200000Y-96900000D02*
X115700000Y-97400000D01*
D75*
X112000000Y-118000000D02*
X112000000Y-119000000D01*
D76*
X124600000Y-103700000D02*
X124600000Y-103900000D01*
X124000000Y-82400000D02*
X124300000Y-82700000D01*
X117200000Y-97237500D02*
X117200000Y-98000000D01*
X119600000Y-84400000D02*
X120000000Y-84000000D01*
X114800000Y-98600000D02*
X114800000Y-98800000D01*
X125850000Y-105300000D02*
X124700000Y-105300000D01*
D77*
X116200000Y-98800000D02*
X116000000Y-99000000D01*
D76*
X127550000Y-92400000D02*
X127150000Y-92800000D01*
X126200000Y-97100000D02*
X127450000Y-97100000D01*
D77*
X113200000Y-98800000D02*
X113000000Y-99000000D01*
D76*
X124890000Y-103410000D02*
X124600000Y-103700000D01*
D77*
X134500000Y-97000000D02*
X134900000Y-97000000D01*
X120899986Y-102000000D02*
X120100000Y-101200014D01*
D76*
X125500000Y-96400000D02*
X126200000Y-97100000D01*
D75*
X112800000Y-122200000D02*
X112800000Y-123499998D01*
D76*
X115400000Y-98000000D02*
X114800000Y-98600000D01*
D75*
X112800000Y-117200000D02*
X112000000Y-118000000D01*
D76*
X122200000Y-92800000D02*
X122000000Y-93000000D01*
D77*
X114800000Y-98800000D02*
X113200000Y-98800000D01*
D76*
X124000000Y-80247738D02*
X124512951Y-79734787D01*
X119600000Y-90362500D02*
X119600000Y-84400000D01*
D77*
X120000000Y-84000000D02*
X121000000Y-83000000D01*
D76*
%TO.N,/rp2040/PI_1V1*%
X123100000Y-101550000D02*
X122800000Y-101250000D01*
X122800000Y-101250000D02*
X121952944Y-101250000D01*
X117992903Y-101107097D02*
X117200000Y-101900000D01*
X123100000Y-102000000D02*
X123100000Y-101550000D01*
X120000000Y-99297056D02*
X120000000Y-97237500D01*
D77*
X123100000Y-102000000D02*
X123129982Y-102000000D01*
X117200000Y-101900000D02*
X114540811Y-101900000D01*
D76*
X118000000Y-97237500D02*
X118000000Y-97711485D01*
X119200000Y-86600000D02*
X119199999Y-86600001D01*
X117992903Y-97718582D02*
X117992903Y-101107097D01*
X121952944Y-101250000D02*
X120000000Y-99297056D01*
X118000000Y-97711485D02*
X117992903Y-97718582D01*
D77*
X118400000Y-84000000D02*
X118400000Y-85800000D01*
D76*
X119199999Y-86600001D02*
X119199999Y-90362500D01*
D77*
X123129982Y-102000000D02*
X124098340Y-102968358D01*
X114540811Y-101900000D02*
X114350000Y-102090811D01*
X118400000Y-85800000D02*
X118800000Y-86200000D01*
D76*
X118800000Y-86200000D02*
X119200000Y-86600000D01*
%TO.N,/rp2040/USB_D_P*%
X118375000Y-106175000D02*
X118375000Y-141674999D01*
X118375000Y-141674999D02*
X118475000Y-141774999D01*
X118475000Y-141774999D02*
X118475000Y-143350000D01*
X119900000Y-104650000D02*
X118375000Y-106175000D01*
%TO.N,/rp2040/USB_D_N*%
X117825000Y-141774999D02*
X117825000Y-143350000D01*
X117925000Y-105988603D02*
X117925000Y-141674999D01*
X118300000Y-104550000D02*
X118300000Y-105613603D01*
X118300000Y-105613603D02*
X117925000Y-105988603D01*
X117925000Y-141674999D02*
X117825000Y-141774999D01*
%TO.N,/rp2040/QSPI_SS*%
X134171924Y-98100000D02*
X122500000Y-98100000D01*
X122400000Y-98000000D02*
X122400000Y-97237500D01*
X136200000Y-99950000D02*
X136200000Y-101500000D01*
X136200000Y-101500000D02*
X135809998Y-101500000D01*
X133100000Y-103410000D02*
X133899999Y-103410000D01*
X135809998Y-101500000D02*
X134854999Y-102454999D01*
X135000000Y-102309999D02*
X135000000Y-98928076D01*
X135000000Y-98928076D02*
X134171924Y-98100000D01*
X134854999Y-102454999D02*
X135000000Y-102309999D01*
X133899999Y-103410000D02*
X134854999Y-102454999D01*
X122500000Y-98100000D02*
X122400000Y-98000000D01*
%TO.N,Net-(SW2-B)*%
X136200000Y-103150000D02*
X139290000Y-103150000D01*
X139290000Y-103150000D02*
X139700000Y-103560000D01*
X139700000Y-103560000D02*
X146200000Y-103560000D01*
%TO.N,/rp2040/GPIO27_ADC1*%
X112094933Y-95200000D02*
X111200000Y-96094933D01*
X116362500Y-95200000D02*
X112094933Y-95200000D01*
X111200000Y-96094933D02*
X111200000Y-100500000D01*
X110320000Y-100500000D02*
X109220000Y-101600000D01*
X111200000Y-100500000D02*
X110320000Y-100500000D01*
%TO.N,Net-(JP2-A)*%
X145400000Y-92299998D02*
X145400000Y-93200000D01*
X145400000Y-93200000D02*
X144400000Y-94200000D01*
%TO.N,Net-(JP3-A)*%
X147900002Y-92299998D02*
X148000000Y-92299998D01*
X146000000Y-94200000D02*
X147900002Y-92299998D01*
%TO.N,/rp2040/QSPI_SD3*%
X122118629Y-100850000D02*
X120400001Y-99131372D01*
X124602954Y-102140000D02*
X123312954Y-100850000D01*
X125900000Y-102140000D02*
X124602954Y-102140000D01*
X123312954Y-100850000D02*
X122118629Y-100850000D01*
X120400001Y-99131372D02*
X120400001Y-97237500D01*
%TO.N,/rp2040/SWD*%
X117662742Y-88365686D02*
X118400000Y-89102944D01*
X117200000Y-80631371D02*
X117200000Y-88365686D01*
X118400000Y-89102944D02*
X118400000Y-90362500D01*
X121950001Y-75881370D02*
X117200000Y-80631371D01*
X117200000Y-88365686D02*
X117662742Y-88365686D01*
X121950001Y-74900000D02*
X121950001Y-75881370D01*
X123190001Y-73660000D02*
X121950001Y-74900000D01*
%TO.N,/rp2040/SWCLK*%
X118800000Y-88937258D02*
X117762742Y-87900000D01*
X117625000Y-80772055D02*
X123097055Y-75300000D01*
X123097055Y-75300000D02*
X126630000Y-75300000D01*
X117700000Y-87700000D02*
X117625000Y-87625000D01*
X117700000Y-87900000D02*
X117700000Y-87700000D01*
X126630000Y-75300000D02*
X128270000Y-73660000D01*
X118800000Y-90362500D02*
X118800000Y-88937258D01*
X117762742Y-87900000D02*
X117700000Y-87900000D01*
X117625000Y-87625000D02*
X117625000Y-80772055D01*
%TO.N,Net-(U10-XIN)*%
X120400001Y-90362500D02*
X120400001Y-88399999D01*
X120400001Y-88399999D02*
X120500000Y-88300000D01*
%TO.N,/rp2040/QSPI_SD0*%
X125900000Y-99600000D02*
X122000000Y-99600000D01*
X121200000Y-98800000D02*
X121200000Y-97237500D01*
X122000000Y-99600000D02*
X121200000Y-98800000D01*
%TO.N,/rp2040/GPIO28_ADC2*%
X109220000Y-104140000D02*
X111600000Y-101760000D01*
X111600000Y-96260619D02*
X112260619Y-95600000D01*
X112260619Y-95600000D02*
X116362500Y-95600000D01*
X111600000Y-101760000D02*
X111600000Y-96260619D01*
%TO.N,/rp2040/GPIO12*%
X140100000Y-68600000D02*
X140000000Y-68500000D01*
X132300000Y-73440000D02*
X137160000Y-68580000D01*
X122831372Y-89500000D02*
X122968628Y-89500000D01*
X132065685Y-89565685D02*
X132300000Y-89331371D01*
X131831371Y-89800000D02*
X132065685Y-89565685D01*
X139900000Y-68800000D02*
X140100000Y-68600000D01*
X139900000Y-93525000D02*
X139900000Y-68800000D01*
X131731371Y-89800000D02*
X131831371Y-89800000D01*
X123368628Y-89900000D02*
X131631371Y-89900000D01*
X122400000Y-90362500D02*
X122400000Y-89931372D01*
X142225000Y-95850000D02*
X139900000Y-93525000D01*
X131631371Y-89900000D02*
X131731371Y-89800000D01*
X140000000Y-68500000D02*
X140000000Y-67900000D01*
X142700000Y-95850000D02*
X142225000Y-95850000D01*
X122400000Y-89931372D02*
X122831372Y-89500000D01*
X122968628Y-89500000D02*
X123368628Y-89900000D01*
X132300000Y-89331371D02*
X132300000Y-73440000D01*
%TO.N,/rp2040/GPIO3*%
X137160000Y-91440000D02*
X133800000Y-94800000D01*
X133800000Y-94800000D02*
X123237500Y-94800000D01*
%TO.N,/rp2040/GPIO2*%
X123237500Y-95200000D02*
X135940000Y-95200000D01*
X135940000Y-95200000D02*
X137160000Y-93980000D01*
%TO.N,/rp2040/QSPI_SCLK*%
X125430000Y-100400000D02*
X125900000Y-100870000D01*
X120800000Y-97237500D02*
X120800000Y-98965686D01*
X120800000Y-98965686D02*
X122234314Y-100400000D01*
X122234314Y-100400000D02*
X125430000Y-100400000D01*
%TO.N,/rp2040/MCU_USB_N*%
X118392903Y-101288897D02*
X118300000Y-101381800D01*
X118400000Y-97877170D02*
X118392903Y-97884267D01*
X118392903Y-97884267D02*
X118392903Y-101288897D01*
X118300000Y-101381800D02*
X118300000Y-103000000D01*
X118400000Y-97237500D02*
X118400000Y-97877170D01*
%TO.N,/rp2040/QSPI_SD1*%
X121999999Y-98165685D02*
X122434314Y-98600000D01*
X134106238Y-98600000D02*
X134600000Y-99093762D01*
X134600000Y-101439999D02*
X133899999Y-102140000D01*
X122434314Y-98600000D02*
X134106238Y-98600000D01*
X134600000Y-99093762D02*
X134600000Y-101439999D01*
X133899999Y-102140000D02*
X133100000Y-102140000D01*
X121999999Y-97237500D02*
X121999999Y-98165685D01*
%TO.N,/rp2040/GPIO26_ADC0*%
X111929247Y-94800000D02*
X116362500Y-94800000D01*
X110800000Y-95929247D02*
X111929247Y-94800000D01*
X109220000Y-99060000D02*
X110800000Y-97480000D01*
X110800000Y-97480000D02*
X110800000Y-95929247D01*
%TO.N,/rp2040/QSPI_SD2*%
X133100000Y-100870000D02*
X133899999Y-100870000D01*
X133940552Y-99000000D02*
X122200000Y-99000000D01*
X122200000Y-99000000D02*
X121600000Y-98400000D01*
X134200000Y-99259448D02*
X133940552Y-99000000D01*
X133899999Y-100870000D02*
X134200000Y-100569999D01*
X121600000Y-98400000D02*
X121600000Y-97237500D01*
X134200000Y-100569999D02*
X134200000Y-99259448D01*
%TO.N,/rp2040/RUN*%
X117068629Y-88800000D02*
X116800000Y-88531371D01*
X116800000Y-77510000D02*
X120650000Y-73660000D01*
X118000000Y-90362500D02*
X118000001Y-89268630D01*
X118000001Y-89268630D02*
X117531371Y-88800000D01*
X117531371Y-88800000D02*
X117068629Y-88800000D01*
X116800000Y-88531371D02*
X116800000Y-77510000D01*
%TO.N,/rp2040/GPIO10*%
X137160000Y-74105686D02*
X134900000Y-76365686D01*
X133149999Y-84115687D02*
X133149999Y-89650000D01*
X125899999Y-91600001D02*
X123237500Y-91600001D01*
X134900000Y-82365686D02*
X133149999Y-84115687D01*
X134900000Y-76365686D02*
X134900000Y-82365686D01*
X137160000Y-73660000D02*
X137160000Y-74105686D01*
X131974999Y-90825000D02*
X126675000Y-90825000D01*
X133149999Y-89650000D02*
X131974999Y-90825000D01*
X126675000Y-90825000D02*
X125899999Y-91600001D01*
%TO.N,/rp2040/GPIO29_ADC3*%
X112000000Y-106300000D02*
X111900000Y-106300000D01*
X116362500Y-95999999D02*
X112426305Y-95999999D01*
X111900000Y-106300000D02*
X111520000Y-106680000D01*
X112000000Y-96426304D02*
X112000000Y-106300000D01*
X112426305Y-95999999D02*
X112000000Y-96426304D01*
X111520000Y-106680000D02*
X109220000Y-106680000D01*
%TO.N,/rp2040/GPIO9*%
X137160000Y-76199999D02*
X137160000Y-76671372D01*
X137160000Y-76671372D02*
X135300000Y-78531372D01*
X126935618Y-91225000D02*
X126160618Y-92000000D01*
X131665685Y-91700000D02*
X131255636Y-91700000D01*
X133600000Y-89765685D02*
X131665685Y-91700000D01*
X126160618Y-92000000D02*
X123237500Y-92000000D01*
X131255636Y-91700000D02*
X130855636Y-91300000D01*
X133600000Y-84565687D02*
X133600000Y-89765685D01*
X129789382Y-91300000D02*
X129714382Y-91225000D01*
X135300000Y-78531372D02*
X135300000Y-82865687D01*
X129714382Y-91225000D02*
X126935618Y-91225000D01*
X130855636Y-91300000D02*
X129789382Y-91300000D01*
X135300000Y-82865687D02*
X133600000Y-84565687D01*
%TO.N,/rp2040/MCU_USB_P*%
X118842903Y-101475297D02*
X118750001Y-101568199D01*
X118750001Y-101850001D02*
X119900000Y-103000000D01*
X118750001Y-101568199D02*
X118750001Y-101850001D01*
X118800000Y-97841364D02*
X118800000Y-97237500D01*
X118842903Y-97884267D02*
X118800000Y-97841364D01*
X118842903Y-101475297D02*
X118842903Y-97884267D01*
%TO.N,/rp2040/GPIO8*%
X134200000Y-84565685D02*
X134200000Y-89731371D01*
X134200000Y-89731371D02*
X131831371Y-92100000D01*
X130689950Y-91700000D02*
X129623696Y-91700000D01*
X131089950Y-92100000D02*
X130689950Y-91700000D01*
X129623696Y-91700000D02*
X129548696Y-91625000D01*
X129548696Y-91625000D02*
X127101304Y-91625000D01*
X135700000Y-80200000D02*
X135700000Y-83065685D01*
X135700000Y-83065685D02*
X134200000Y-84565685D01*
X131831371Y-92100000D02*
X131089950Y-92100000D01*
X137160000Y-78740000D02*
X135700000Y-80200000D01*
X127101304Y-91625000D02*
X126326304Y-92400000D01*
X126326304Y-92400000D02*
X123237500Y-92400000D01*
%TO.N,/rp2040/GPIO4*%
X137160000Y-89813654D02*
X137160000Y-88900001D01*
X132573653Y-94400001D02*
X137160000Y-89813654D01*
X123237500Y-94400001D02*
X132573653Y-94400001D01*
%TO.N,/rp2040/GPIO5*%
X135500000Y-88020000D02*
X135500000Y-90131371D01*
X137160000Y-86360000D02*
X135500000Y-88020000D01*
X131631371Y-94000000D02*
X123237500Y-94000000D01*
X135500000Y-90131371D02*
X131631371Y-94000000D01*
%TO.N,/rp2040/GPIO6*%
X135100000Y-85880000D02*
X137160000Y-83820000D01*
X131465685Y-93600000D02*
X135100000Y-89965685D01*
X135100000Y-89965685D02*
X135100000Y-85880000D01*
X123237500Y-93600000D02*
X131465685Y-93600000D01*
%TO.N,/rp2040/GPIO7*%
X137160000Y-81280000D02*
X137160000Y-82482081D01*
X136010000Y-84404314D02*
X134700000Y-85714314D01*
X134700000Y-85714314D02*
X134700000Y-89800000D01*
X136972081Y-82670000D02*
X136683654Y-82670000D01*
X136010000Y-83343654D02*
X136010000Y-84404314D01*
X134700000Y-89800000D02*
X131300001Y-93199999D01*
X137160000Y-82482081D02*
X136972081Y-82670000D01*
X136683654Y-82670000D02*
X136010000Y-83343654D01*
X131300001Y-93199999D02*
X123237500Y-93199999D01*
%TO.N,/rp2040/GPIO11*%
X134500000Y-73780000D02*
X137160000Y-71120000D01*
X131934313Y-90300000D02*
X132749999Y-89484314D01*
X132749999Y-89484314D02*
X132749999Y-83950001D01*
X132749999Y-83950001D02*
X134500000Y-82200000D01*
X134500000Y-82200000D02*
X134500000Y-73780000D01*
X124137500Y-90300000D02*
X131934313Y-90300000D01*
X123237500Y-91200000D02*
X124137500Y-90300000D01*
%TO.N,/rp2040/GPIO21*%
X115368629Y-92400000D02*
X116362500Y-92400000D01*
X109220000Y-83820000D02*
X113300000Y-87900000D01*
X113300000Y-87900000D02*
X113300000Y-90331371D01*
X113300000Y-90331371D02*
X115368629Y-92400000D01*
%TO.N,/rp2040/GPIO18*%
X114500000Y-89705674D02*
X114500000Y-83400000D01*
X115994326Y-91200000D02*
X114500000Y-89705674D01*
X114500000Y-83400000D02*
X114200000Y-83100000D01*
X114200000Y-81180000D02*
X109220000Y-76200000D01*
X116362500Y-91200000D02*
X115994326Y-91200000D01*
X114200000Y-83100000D02*
X114200000Y-81180000D01*
%TO.N,/rp2040/GPIO20*%
X114600000Y-91000000D02*
X114534315Y-91000000D01*
X115662955Y-92000001D02*
X116362500Y-92000000D01*
X115662955Y-92000001D02*
X115600001Y-92000001D01*
X113700000Y-85760000D02*
X109220000Y-81280000D01*
X114534315Y-91000000D02*
X113700000Y-90165685D01*
X115600001Y-92000001D02*
X114600000Y-91000000D01*
X113700000Y-90165685D02*
X113700000Y-85760000D01*
%TO.N,/rp2040/GPIO17*%
X114900000Y-88062500D02*
X114900000Y-79340000D01*
X114900000Y-79340000D02*
X109220000Y-73660000D01*
X117200000Y-89600001D02*
X116437501Y-89600001D01*
X116437501Y-89600001D02*
X114900000Y-88062500D01*
X117200000Y-90362500D02*
X117200000Y-89600001D01*
%TO.N,/rp2040/GPIO16*%
X109220000Y-71120000D02*
X116400000Y-78300000D01*
X117365685Y-89200000D02*
X116902943Y-89200000D01*
X117600001Y-90362500D02*
X117600001Y-89434316D01*
X117600001Y-89434316D02*
X117365685Y-89200000D01*
X116400000Y-78300000D02*
X116400000Y-88700000D01*
X116902943Y-89200000D02*
X116400000Y-88697057D01*
%TO.N,/rp2040/GPIO19*%
X109220000Y-78740000D02*
X114100000Y-83620000D01*
X114100000Y-83620000D02*
X114100000Y-89871360D01*
X114100000Y-89871360D02*
X115828641Y-91600001D01*
X115828641Y-91600001D02*
X116362500Y-91600001D01*
D75*
%TO.N,Net-(D3-K)*%
X198699998Y-136000000D02*
X199000000Y-136000000D01*
X199000000Y-136000000D02*
X203000000Y-132000000D01*
%TO.N,Net-(D3-A)*%
X195500000Y-142696878D02*
X202196878Y-136000000D01*
X188349570Y-137900000D02*
X195229570Y-144780000D01*
X202196878Y-136000000D02*
X203000000Y-136000000D01*
X180900000Y-137900000D02*
X188349570Y-137900000D01*
X195229570Y-144780000D02*
X195500000Y-144780000D01*
X195500000Y-144780000D02*
X195500000Y-142696878D01*
%TO.N,Net-(D6-K)*%
X137000000Y-139825000D02*
X137000000Y-140849999D01*
X137000000Y-140849999D02*
X133849999Y-144000000D01*
D76*
%TO.N,/rp2040/GPIO13*%
X144400000Y-95850000D02*
X143700000Y-96550000D01*
X143700000Y-96550000D02*
X139847918Y-96550000D01*
X131565685Y-89400000D02*
X131665685Y-89400000D01*
X122665686Y-89100000D02*
X123134314Y-89100000D01*
X121999999Y-90362500D02*
X121999999Y-89765687D01*
X123134314Y-89100000D02*
X123534314Y-89500000D01*
X138650000Y-67530001D02*
X137160000Y-66040001D01*
X138650000Y-95352082D02*
X138650000Y-67530001D01*
X123534314Y-89500000D02*
X131465685Y-89500000D01*
X131465685Y-89500000D02*
X131565685Y-89400000D01*
X131900000Y-89165685D02*
X131900000Y-71300001D01*
X131900000Y-71300001D02*
X137160000Y-66040001D01*
X121999999Y-89765687D02*
X122665686Y-89100000D01*
X131665685Y-89400000D02*
X131900000Y-89165685D01*
X139847918Y-96550000D02*
X138650000Y-95352082D01*
%TO.N,/rp2040/GPIO14*%
X122600000Y-88600000D02*
X123200000Y-88600000D01*
X123200000Y-88600000D02*
X123600000Y-89000000D01*
X131499999Y-89000000D02*
X131499999Y-69160001D01*
X121600000Y-90362500D02*
X121600000Y-89600000D01*
X145200000Y-97100000D02*
X145200000Y-96650000D01*
X131499999Y-69160001D02*
X137160000Y-63500000D01*
X145200000Y-96650000D02*
X146000000Y-95850000D01*
X121600000Y-89600000D02*
X122600000Y-88600000D01*
X139150000Y-65490000D02*
X139150000Y-94650000D01*
X123600000Y-89000000D02*
X131499999Y-89000000D01*
X139150000Y-94650000D02*
X139500000Y-95000000D01*
X137160000Y-63500000D02*
X139150000Y-65490000D01*
%TO.N,/DSP/MCLK*%
X179783363Y-107783363D02*
X180850000Y-108850000D01*
X180850000Y-109462994D02*
X179656497Y-110656497D01*
X180850000Y-108850000D02*
X180850000Y-109462994D01*
%TO.N,Net-(U1-XTALIN{slash}MCLK)*%
X176690085Y-104789437D02*
X177200648Y-105300000D01*
X177300000Y-105300000D02*
X178616637Y-106616637D01*
X177200648Y-105300000D02*
X177300000Y-105300000D01*
%TO.N,Net-(U12-OUT)*%
X122199998Y-84600000D02*
X121600000Y-84600000D01*
X121600000Y-84600000D02*
X120500000Y-85700000D01*
X120500000Y-85700000D02*
X120500000Y-86650000D01*
%TO.N,Net-(C31-Pad1)*%
X158250000Y-99500000D02*
X156750000Y-101000000D01*
D75*
%TO.N,Net-(U3-5V)*%
X152400000Y-139925000D02*
X148150000Y-139925000D01*
X142000000Y-140800000D02*
X139200000Y-138000000D01*
X146000000Y-139775000D02*
X143025000Y-139775000D01*
X143025000Y-139775000D02*
X142000000Y-140800000D01*
X146000000Y-139775000D02*
X148000000Y-139775000D01*
X148150000Y-139925000D02*
X148000000Y-139775000D01*
X139200000Y-138000000D02*
X137000000Y-138000000D01*
D76*
%TO.N,/rp2040/GPIO25*%
X116362500Y-94400001D02*
X109640001Y-94400001D01*
X109640001Y-94400001D02*
X109220000Y-93980000D01*
%TO.N,/rp2040/GPIO22*%
X109220000Y-86360000D02*
X110900000Y-88040000D01*
X110900000Y-92400000D02*
X110900000Y-88040000D01*
X116362500Y-93199999D02*
X111700001Y-93199999D01*
X111700000Y-93200000D02*
X110900000Y-92400000D01*
X111700001Y-93199999D02*
X111700000Y-93200000D01*
%TO.N,/rp2040/GPIO24*%
X109220000Y-91951371D02*
X111268629Y-94000000D01*
X111268629Y-94000000D02*
X116362500Y-94000000D01*
X109220000Y-91440000D02*
X109220000Y-91951371D01*
%TO.N,/rp2040/GPIO23*%
X111534314Y-93600000D02*
X110500000Y-92565686D01*
X116362500Y-93600000D02*
X111534314Y-93600000D01*
X110500000Y-90180000D02*
X109220000Y-88900000D01*
X110500000Y-92565686D02*
X110500000Y-90180000D01*
%TO.N,/DSP/THD_M*%
X151840000Y-85960000D02*
X162725686Y-85960000D01*
X172097570Y-95331884D02*
X172182279Y-95331884D01*
X149700000Y-83820000D02*
X151840000Y-85960000D01*
X162725686Y-85960000D02*
X172097570Y-95331884D01*
%TO.N,/DSP/THD_P*%
X171828726Y-95628726D02*
X162560000Y-86360000D01*
X162560000Y-86360000D02*
X149700000Y-86360000D01*
X171828726Y-95685437D02*
X171828726Y-95628726D01*
D75*
%TO.N,/DSP/dsp_power/V33_BEFORE_F*%
X182450000Y-134450000D02*
X180700001Y-132700001D01*
X178225000Y-130100000D02*
X180500001Y-130100000D01*
X178225000Y-130100000D02*
X178225000Y-125650001D01*
X180500001Y-130100000D02*
X180700001Y-130300000D01*
X186999999Y-130300000D02*
X180700001Y-130300000D01*
X182225000Y-128775001D02*
X180700001Y-130300000D01*
X182225000Y-125800000D02*
X182225000Y-128775001D01*
X180700001Y-132700001D02*
X180700001Y-130300000D01*
X178225000Y-125650001D02*
X179000000Y-124875001D01*
X182450000Y-135000000D02*
X182450000Y-134450000D01*
%TD*%
M02*
