%TF.GenerationSoftware,KiCad,Pcbnew,8.0.5*%
%TF.CreationDate,2025-01-18T12:22:12-08:00*%
%TF.ProjectId,dsp3,64737033-2e6b-4696-9361-645f70636258,rev?*%
%TF.SameCoordinates,Original*%
%TF.FileFunction,Soldermask,Bot*%
%TF.FilePolarity,Negative*%
%FSLAX46Y46*%
G04 Gerber Fmt 4.6, Leading zero omitted, Abs format (unit mm)*
G04 Created by KiCad (PCBNEW 8.0.5) date 2025-01-18 12:22:12*
%MOMM*%
%LPD*%
G01*
G04 APERTURE LIST*
G04 Aperture macros list*
%AMRoundRect*
0 Rectangle with rounded corners*
0 $1 Rounding radius*
0 $2 $3 $4 $5 $6 $7 $8 $9 X,Y pos of 4 corners*
0 Add a 4 corners polygon primitive as box body*
4,1,4,$2,$3,$4,$5,$6,$7,$8,$9,$2,$3,0*
0 Add four circle primitives for the rounded corners*
1,1,$1+$1,$2,$3*
1,1,$1+$1,$4,$5*
1,1,$1+$1,$6,$7*
1,1,$1+$1,$8,$9*
0 Add four rect primitives between the rounded corners*
20,1,$1+$1,$2,$3,$4,$5,0*
20,1,$1+$1,$4,$5,$6,$7,0*
20,1,$1+$1,$6,$7,$8,$9,0*
20,1,$1+$1,$8,$9,$2,$3,0*%
G04 Aperture macros list end*
%ADD10C,2.000000*%
%ADD11C,1.600000*%
%ADD12R,1.700000X1.700000*%
%ADD13O,1.700000X1.700000*%
%ADD14RoundRect,0.250000X-0.600000X-0.600000X0.600000X-0.600000X0.600000X0.600000X-0.600000X0.600000X0*%
%ADD15C,1.700000*%
%ADD16R,2.000000X2.000000*%
%ADD17O,2.000000X1.600000*%
%ADD18R,3.500000X3.500000*%
%ADD19RoundRect,0.750000X1.000000X-0.750000X1.000000X0.750000X-1.000000X0.750000X-1.000000X-0.750000X0*%
%ADD20RoundRect,0.875000X0.875000X-0.875000X0.875000X0.875000X-0.875000X0.875000X-0.875000X-0.875000X0*%
%ADD21C,3.200000*%
%ADD22C,0.600000*%
%ADD23O,1.050000X2.150000*%
%ADD24C,2.500000*%
G04 APERTURE END LIST*
D10*
%TO.C,U7*%
X163980000Y-142400000D03*
X163720000Y-139790000D03*
X158640000Y-139790000D03*
X158380000Y-142400000D03*
D11*
X163720000Y-137160000D03*
X161180000Y-137160000D03*
X158640000Y-137160000D03*
%TD*%
D12*
%TO.C,J5*%
X142240000Y-109220000D03*
D13*
X144780000Y-109220000D03*
X147319999Y-109220000D03*
X149860000Y-109220000D03*
X152400000Y-109220000D03*
%TD*%
D12*
%TO.C,J20*%
X149700000Y-83820000D03*
D13*
X149700000Y-86360000D03*
%TD*%
D12*
%TO.C,J17*%
X128270000Y-73660000D03*
D13*
X125730000Y-73660000D03*
X123190001Y-73660000D03*
X120650000Y-73660000D03*
%TD*%
D14*
%TO.C,J3*%
X172720000Y-55880000D03*
D15*
X175260000Y-55880000D03*
X172720000Y-58420000D03*
X175260000Y-58420000D03*
X172720000Y-60960000D03*
X175260000Y-60960000D03*
X172720000Y-63500000D03*
X175260000Y-63500000D03*
X172720000Y-66040000D03*
X175260000Y-66040000D03*
X172720000Y-68580000D03*
X175260000Y-68580000D03*
X172720000Y-71120000D03*
X175260000Y-71120000D03*
X172720000Y-73660000D03*
X175260000Y-73660000D03*
%TD*%
D14*
%TO.C,J1*%
X193040000Y-55880000D03*
D15*
X195580000Y-55880000D03*
X193040000Y-58420000D03*
X195580000Y-58420000D03*
X193040000Y-60960000D03*
X195580000Y-60960000D03*
X193040000Y-63500000D03*
X195580000Y-63500000D03*
X193040000Y-66040000D03*
X195580000Y-66040000D03*
X193040000Y-68580000D03*
X195580000Y-68580000D03*
X193040000Y-71120000D03*
X195580000Y-71120000D03*
X193040000Y-73660000D03*
X195580000Y-73660000D03*
%TD*%
D12*
%TO.C,J13*%
X198120000Y-111760000D03*
D13*
X195580000Y-111760000D03*
%TD*%
D14*
%TO.C,J2*%
X182880000Y-55880000D03*
D15*
X185420000Y-55880000D03*
X182880000Y-58420000D03*
X185420000Y-58420000D03*
X182880000Y-60959999D03*
X185420000Y-60960000D03*
X182880000Y-63500000D03*
X185420000Y-63500000D03*
X182880000Y-66040000D03*
X185420000Y-66040000D03*
X182880000Y-68580000D03*
X185420000Y-68580000D03*
X182880000Y-71120000D03*
X185420000Y-71120000D03*
X182880000Y-73660001D03*
X185420000Y-73660000D03*
%TD*%
D16*
%TO.C,U3*%
X129540000Y-122144999D03*
D17*
X129540000Y-124684999D03*
X129540000Y-127224998D03*
X129540000Y-129764999D03*
X129540000Y-132304999D03*
X129540000Y-134844999D03*
X129540000Y-137384999D03*
X129540000Y-139925000D03*
X152400000Y-139925000D03*
X152400000Y-137384999D03*
X152400000Y-134844999D03*
X152400000Y-132304999D03*
X152400000Y-129764999D03*
X152400000Y-127224998D03*
X152400000Y-124684999D03*
X152400000Y-122144999D03*
%TD*%
D18*
%TO.C,J21*%
X180900000Y-137900000D03*
D19*
X180900000Y-143900000D03*
D20*
X185600000Y-140900000D03*
%TD*%
D10*
%TO.C,U4*%
X172720000Y-139790000D03*
X167640000Y-139790000D03*
D11*
X167640000Y-137160000D03*
X170180000Y-137160000D03*
X172720000Y-137160000D03*
%TD*%
D12*
%TO.C,J6*%
X129540000Y-109220000D03*
D13*
X132080000Y-109220000D03*
X134619999Y-109220000D03*
X137160000Y-109220000D03*
%TD*%
D12*
%TO.C,J16*%
X198120000Y-86359999D03*
D13*
X198120000Y-83819999D03*
X198120000Y-81280000D03*
%TD*%
D21*
%TO.C,H3*%
X202000000Y-52000000D03*
%TD*%
%TO.C,H1*%
X110000000Y-52000000D03*
%TD*%
D12*
%TO.C,J12*%
X172720000Y-119380000D03*
D13*
X172720000Y-121920000D03*
X170180000Y-119380000D03*
X170180000Y-121920000D03*
X167640001Y-119380000D03*
X167640000Y-121920000D03*
X165100000Y-119380000D03*
X165100000Y-121920000D03*
X162560000Y-119380000D03*
X162560000Y-121920000D03*
X160020000Y-119380000D03*
X160020000Y-121920000D03*
%TD*%
D22*
%TO.C,J14*%
X116475000Y-144150000D03*
X120475000Y-144150000D03*
D23*
X115650000Y-146400000D03*
X121300000Y-146400000D03*
%TD*%
D12*
%TO.C,J18*%
X109220000Y-68580000D03*
D13*
X109220000Y-71120000D03*
X109220000Y-73660000D03*
X109220000Y-76200000D03*
X109220000Y-78740000D03*
X109220000Y-81280000D03*
X109220000Y-83820000D03*
X109220000Y-86360000D03*
X109220000Y-88900000D03*
X109220000Y-91440000D03*
X109220000Y-93980000D03*
X109220000Y-96520000D03*
X109220000Y-99060000D03*
X109220000Y-101600000D03*
X109220000Y-104140000D03*
X109220000Y-106680000D03*
X109220000Y-109220000D03*
%TD*%
D24*
%TO.C,J15*%
X190500000Y-144780000D03*
X195500000Y-144780000D03*
%TD*%
D12*
%TO.C,J19*%
X142240000Y-78740000D03*
D13*
X144780000Y-78740000D03*
X142240000Y-81280000D03*
X144780000Y-81280000D03*
X142240000Y-83820000D03*
X144780000Y-83820000D03*
X142240000Y-86360000D03*
X144780000Y-86360000D03*
%TD*%
D10*
%TO.C,SW2*%
X139700000Y-99060000D03*
X146200000Y-99060000D03*
X139700000Y-103560000D03*
X146200000Y-103560000D03*
%TD*%
D12*
%TO.C,J10*%
X142240000Y-53340000D03*
D13*
X144780000Y-53340000D03*
X142240000Y-55880000D03*
X144780000Y-55880000D03*
X142240000Y-58420000D03*
X144780000Y-58420000D03*
X142240000Y-60960000D03*
X144780000Y-60960000D03*
%TD*%
D12*
%TO.C,J8*%
X195580000Y-116840000D03*
D13*
X198120000Y-116840000D03*
X195580000Y-119380000D03*
X198120000Y-119380000D03*
X195580000Y-121920000D03*
X198120000Y-121920000D03*
%TD*%
D21*
%TO.C,H4*%
X202000000Y-144000000D03*
%TD*%
D14*
%TO.C,J7*%
X152400000Y-55880000D03*
D15*
X154940000Y-55880000D03*
X152400000Y-58420000D03*
X154940000Y-58420000D03*
X152400000Y-60960000D03*
X154940000Y-60960000D03*
X152400000Y-63500000D03*
X154940000Y-63500000D03*
X152400000Y-66040000D03*
X154940000Y-66040000D03*
X152400000Y-68580000D03*
X154940000Y-68580000D03*
X152400000Y-71120000D03*
X154940000Y-71120000D03*
X152400000Y-73660000D03*
X154940000Y-73660000D03*
%TD*%
D14*
%TO.C,J4*%
X162560000Y-55880000D03*
D15*
X165100000Y-55880000D03*
X162560000Y-58420000D03*
X165100000Y-58420000D03*
X162560000Y-60960000D03*
X165100000Y-60960000D03*
X162560000Y-63500000D03*
X165100000Y-63500000D03*
X162560000Y-66040000D03*
X165100000Y-66040000D03*
X162560000Y-68580000D03*
X165100000Y-68580000D03*
X162560000Y-71120000D03*
X165100000Y-71120000D03*
X162560000Y-73660000D03*
X165100000Y-73660000D03*
%TD*%
D21*
%TO.C,H2*%
X110000000Y-144000000D03*
%TD*%
D12*
%TO.C,J11*%
X125400000Y-132080000D03*
D13*
X125400000Y-134620000D03*
X125400000Y-137160000D03*
X125400000Y-139700000D03*
%TD*%
D12*
%TO.C,J22*%
X137160000Y-93980000D03*
D13*
X137160000Y-91440000D03*
X137160000Y-88900001D03*
X137160000Y-86360000D03*
X137160000Y-83820000D03*
X137160000Y-81280000D03*
X137160000Y-78740000D03*
X137160000Y-76199999D03*
X137160000Y-73660000D03*
X137160000Y-71120000D03*
X137160000Y-68580000D03*
X137160000Y-66040001D03*
X137160000Y-63500000D03*
%TD*%
D12*
%TO.C,J9*%
X142240000Y-66040000D03*
D13*
X144780000Y-66040000D03*
X142240000Y-68580000D03*
X144780000Y-68580000D03*
X142240000Y-71120000D03*
X144780000Y-71120000D03*
X142240000Y-73660000D03*
X144780000Y-73660000D03*
%TD*%
M02*
