%TF.GenerationSoftware,KiCad,Pcbnew,8.0.5*%
%TF.CreationDate,2025-01-18T12:22:12-08:00*%
%TF.ProjectId,dsp3,64737033-2e6b-4696-9361-645f70636258,rev?*%
%TF.SameCoordinates,Original*%
%TF.FileFunction,Soldermask,Top*%
%TF.FilePolarity,Negative*%
%FSLAX46Y46*%
G04 Gerber Fmt 4.6, Leading zero omitted, Abs format (unit mm)*
G04 Created by KiCad (PCBNEW 8.0.5) date 2025-01-18 12:22:12*
%MOMM*%
%LPD*%
G01*
G04 APERTURE LIST*
G04 Aperture macros list*
%AMRoundRect*
0 Rectangle with rounded corners*
0 $1 Rounding radius*
0 $2 $3 $4 $5 $6 $7 $8 $9 X,Y pos of 4 corners*
0 Add a 4 corners polygon primitive as box body*
4,1,4,$2,$3,$4,$5,$6,$7,$8,$9,$2,$3,0*
0 Add four circle primitives for the rounded corners*
1,1,$1+$1,$2,$3*
1,1,$1+$1,$4,$5*
1,1,$1+$1,$6,$7*
1,1,$1+$1,$8,$9*
0 Add four rect primitives between the rounded corners*
20,1,$1+$1,$2,$3,$4,$5,0*
20,1,$1+$1,$4,$5,$6,$7,0*
20,1,$1+$1,$6,$7,$8,$9,0*
20,1,$1+$1,$8,$9,$2,$3,0*%
%AMRotRect*
0 Rectangle, with rotation*
0 The origin of the aperture is its center*
0 $1 length*
0 $2 width*
0 $3 Rotation angle, in degrees counterclockwise*
0 Add horizontal line*
21,1,$1,$2,0,0,$3*%
G04 Aperture macros list end*
%ADD10RoundRect,0.200000X0.275000X-0.200000X0.275000X0.200000X-0.275000X0.200000X-0.275000X-0.200000X0*%
%ADD11RoundRect,0.200000X-0.200000X-0.275000X0.200000X-0.275000X0.200000X0.275000X-0.200000X0.275000X0*%
%ADD12RoundRect,0.225000X0.017678X-0.335876X0.335876X-0.017678X-0.017678X0.335876X-0.335876X0.017678X0*%
%ADD13RoundRect,0.175000X0.175000X0.325000X-0.175000X0.325000X-0.175000X-0.325000X0.175000X-0.325000X0*%
%ADD14RoundRect,0.150000X0.200000X0.150000X-0.200000X0.150000X-0.200000X-0.150000X0.200000X-0.150000X0*%
%ADD15RoundRect,0.225000X0.225000X0.250000X-0.225000X0.250000X-0.225000X-0.250000X0.225000X-0.250000X0*%
%ADD16RoundRect,0.225000X-0.225000X-0.250000X0.225000X-0.250000X0.225000X0.250000X-0.225000X0.250000X0*%
%ADD17RoundRect,0.200000X0.053033X-0.335876X0.335876X-0.053033X-0.053033X0.335876X-0.335876X0.053033X0*%
%ADD18C,2.000000*%
%ADD19C,1.600000*%
%ADD20R,1.700000X1.700000*%
%ADD21O,1.700000X1.700000*%
%ADD22RoundRect,0.225000X-0.017678X0.335876X-0.335876X0.017678X0.017678X-0.335876X0.335876X-0.017678X0*%
%ADD23RoundRect,0.225000X-0.250000X0.225000X-0.250000X-0.225000X0.250000X-0.225000X0.250000X0.225000X0*%
%ADD24RoundRect,0.218750X0.256250X-0.218750X0.256250X0.218750X-0.256250X0.218750X-0.256250X-0.218750X0*%
%ADD25RoundRect,0.150000X0.565685X-0.353553X-0.353553X0.565685X-0.565685X0.353553X0.353553X-0.565685X0*%
%ADD26RoundRect,0.200000X-0.335876X-0.053033X-0.053033X-0.335876X0.335876X0.053033X0.053033X0.335876X0*%
%ADD27RoundRect,0.200000X0.200000X0.275000X-0.200000X0.275000X-0.200000X-0.275000X0.200000X-0.275000X0*%
%ADD28RoundRect,0.250000X-0.600000X-0.600000X0.600000X-0.600000X0.600000X0.600000X-0.600000X0.600000X0*%
%ADD29C,1.700000*%
%ADD30RoundRect,0.120000X-0.035355X-0.714178X0.714178X0.035355X0.035355X0.714178X-0.714178X-0.035355X0*%
%ADD31RoundRect,0.225000X0.335876X0.017678X0.017678X0.335876X-0.335876X-0.017678X-0.017678X-0.335876X0*%
%ADD32RoundRect,0.225000X0.250000X-0.225000X0.250000X0.225000X-0.250000X0.225000X-0.250000X-0.225000X0*%
%ADD33RoundRect,0.200000X-0.275000X0.200000X-0.275000X-0.200000X0.275000X-0.200000X0.275000X0.200000X0*%
%ADD34RoundRect,0.250000X0.550000X-1.050000X0.550000X1.050000X-0.550000X1.050000X-0.550000X-1.050000X0*%
%ADD35R,2.000000X2.000000*%
%ADD36O,2.000000X1.600000*%
%ADD37RoundRect,0.250000X-0.550000X1.050000X-0.550000X-1.050000X0.550000X-1.050000X0.550000X1.050000X0*%
%ADD38RoundRect,0.250000X0.450000X-0.262500X0.450000X0.262500X-0.450000X0.262500X-0.450000X-0.262500X0*%
%ADD39RoundRect,0.250000X-1.000000X-0.900000X1.000000X-0.900000X1.000000X0.900000X-1.000000X0.900000X0*%
%ADD40RoundRect,0.120000X0.530000X0.480000X-0.530000X0.480000X-0.530000X-0.480000X0.530000X-0.480000X0*%
%ADD41R,3.500000X3.500000*%
%ADD42RoundRect,0.750000X1.000000X-0.750000X1.000000X0.750000X-1.000000X0.750000X-1.000000X-0.750000X0*%
%ADD43RoundRect,0.875000X0.875000X-0.875000X0.875000X0.875000X-0.875000X0.875000X-0.875000X-0.875000X0*%
%ADD44RoundRect,0.062500X-0.220971X-0.309359X0.309359X0.220971X0.220971X0.309359X-0.309359X-0.220971X0*%
%ADD45RoundRect,0.062500X0.220971X-0.309359X0.309359X-0.220971X-0.220971X0.309359X-0.309359X0.220971X0*%
%ADD46RotRect,5.300000X5.300000X45.000000*%
%ADD47R,1.500000X1.000000*%
%ADD48RoundRect,0.250000X0.262500X0.450000X-0.262500X0.450000X-0.262500X-0.450000X0.262500X-0.450000X0*%
%ADD49RoundRect,0.225000X-0.335876X-0.017678X-0.017678X-0.335876X0.335876X0.017678X0.017678X0.335876X0*%
%ADD50RoundRect,0.250000X1.000000X0.900000X-1.000000X0.900000X-1.000000X-0.900000X1.000000X-0.900000X0*%
%ADD51RoundRect,0.150000X0.650000X0.150000X-0.650000X0.150000X-0.650000X-0.150000X0.650000X-0.150000X0*%
%ADD52RoundRect,0.375000X0.176777X0.707107X-0.707107X-0.176777X-0.176777X-0.707107X0.707107X0.176777X0*%
%ADD53RoundRect,0.500000X-0.636396X1.343503X-1.343503X0.636396X0.636396X-1.343503X1.343503X-0.636396X0*%
%ADD54RoundRect,0.200000X0.335876X0.053033X0.053033X0.335876X-0.335876X-0.053033X-0.053033X-0.335876X0*%
%ADD55C,3.200000*%
%ADD56RoundRect,0.375000X0.625000X0.375000X-0.625000X0.375000X-0.625000X-0.375000X0.625000X-0.375000X0*%
%ADD57RoundRect,0.500000X0.500000X1.400000X-0.500000X1.400000X-0.500000X-1.400000X0.500000X-1.400000X0*%
%ADD58RoundRect,0.375000X0.375000X-0.625000X0.375000X0.625000X-0.375000X0.625000X-0.375000X-0.625000X0*%
%ADD59RoundRect,0.500000X1.400000X-0.500000X1.400000X0.500000X-1.400000X0.500000X-1.400000X-0.500000X0*%
%ADD60C,0.600000*%
%ADD61RoundRect,0.100000X-0.100000X-0.950000X0.100000X-0.950000X0.100000X0.950000X-0.100000X0.950000X0*%
%ADD62R,1.350000X1.000000*%
%ADD63O,1.050000X2.150000*%
%ADD64RoundRect,0.190000X-0.760000X-0.810000X0.760000X-0.810000X0.760000X0.810000X-0.760000X0.810000X0*%
%ADD65C,2.500000*%
%ADD66RoundRect,0.250000X-0.325000X-0.450000X0.325000X-0.450000X0.325000X0.450000X-0.325000X0.450000X0*%
%ADD67RoundRect,0.050000X0.387500X0.050000X-0.387500X0.050000X-0.387500X-0.050000X0.387500X-0.050000X0*%
%ADD68RoundRect,0.050000X0.050000X0.387500X-0.050000X0.387500X-0.050000X-0.387500X0.050000X-0.387500X0*%
%ADD69R,3.200000X3.200000*%
%ADD70RoundRect,0.200000X-0.053033X0.335876X-0.335876X0.053033X0.053033X-0.335876X0.335876X-0.053033X0*%
%ADD71RoundRect,0.150000X0.150000X-0.650000X0.150000X0.650000X-0.150000X0.650000X-0.150000X-0.650000X0*%
%ADD72RoundRect,0.250000X-1.050000X-0.550000X1.050000X-0.550000X1.050000X0.550000X-1.050000X0.550000X0*%
%ADD73RoundRect,0.218750X-0.256250X0.218750X-0.256250X-0.218750X0.256250X-0.218750X0.256250X0.218750X0*%
%ADD74RoundRect,0.250000X0.132583X-0.503814X0.503814X-0.132583X-0.132583X0.503814X-0.503814X0.132583X0*%
G04 APERTURE END LIST*
D10*
%TO.C,R16*%
X194600000Y-95600000D03*
X194600000Y-93950000D03*
%TD*%
D11*
%TO.C,R24*%
X194175000Y-109000000D03*
X195825000Y-109000000D03*
%TD*%
D10*
%TO.C,R12*%
X196200000Y-95600000D03*
X196200000Y-93950000D03*
%TD*%
D12*
%TO.C,C31*%
X158250000Y-99500000D03*
X159346016Y-98403984D03*
%TD*%
D10*
%TO.C,R26*%
X193000000Y-95600000D03*
X193000000Y-93950000D03*
%TD*%
D13*
%TO.C,U8*%
X182600000Y-119500000D03*
D14*
X182600000Y-117800000D03*
X180600000Y-117800000D03*
X180600000Y-119700000D03*
%TD*%
D15*
%TO.C,C49*%
X124000000Y-80700000D03*
X122450000Y-80700000D03*
%TD*%
D16*
%TO.C,C3*%
X169025000Y-134800000D03*
X170575000Y-134800000D03*
%TD*%
D17*
%TO.C,R10*%
X181693934Y-88627386D03*
X182860660Y-87460660D03*
%TD*%
D18*
%TO.C,U7*%
X163980000Y-142400000D03*
X163720000Y-139790000D03*
X158640000Y-139790000D03*
X158380000Y-142400000D03*
D19*
X163720000Y-137160000D03*
X161180000Y-137160000D03*
X158640000Y-137160000D03*
%TD*%
D20*
%TO.C,J5*%
X142240000Y-109220000D03*
D21*
X144780000Y-109220000D03*
X147319999Y-109220000D03*
X149860000Y-109220000D03*
X152400000Y-109220000D03*
%TD*%
D22*
%TO.C,C15*%
X165848008Y-95851992D03*
X164751992Y-96948008D03*
%TD*%
D23*
%TO.C,C36*%
X185000000Y-117225000D03*
X185000000Y-118775000D03*
%TD*%
D17*
%TO.C,R14*%
X178400000Y-85300000D03*
X179566726Y-84133274D03*
%TD*%
D23*
%TO.C,C38*%
X160720000Y-133000000D03*
X160720000Y-134550000D03*
%TD*%
D20*
%TO.C,J20*%
X149700000Y-83820000D03*
D21*
X149700000Y-86360000D03*
%TD*%
D16*
%TO.C,C37*%
X197225000Y-109000000D03*
X198775000Y-109000000D03*
%TD*%
D17*
%TO.C,R2*%
X188272614Y-95006066D03*
X189439340Y-93839340D03*
%TD*%
D11*
%TO.C,R18*%
X147600000Y-129900000D03*
X149250000Y-129900000D03*
%TD*%
D24*
%TO.C,L4*%
X158720000Y-134575002D03*
X158720000Y-133000000D03*
%TD*%
D25*
%TO.C,U2*%
X196698546Y-106692623D03*
X197596572Y-105794597D03*
X198494597Y-104896572D03*
X199392623Y-103998546D03*
X194301454Y-98907377D03*
X193403428Y-99805403D03*
X192505403Y-100703428D03*
X191607377Y-101601454D03*
%TD*%
D17*
%TO.C,R3*%
X189333274Y-96066726D03*
X190500000Y-94900000D03*
%TD*%
D26*
%TO.C,R27*%
X181616637Y-108016637D03*
X182783363Y-109183363D03*
%TD*%
D27*
%TO.C,R30*%
X183000000Y-124000000D03*
X181350000Y-124000000D03*
%TD*%
D20*
%TO.C,J17*%
X128270000Y-73660000D03*
D21*
X125730000Y-73660000D03*
X123190001Y-73660000D03*
X120650000Y-73660000D03*
%TD*%
D28*
%TO.C,J3*%
X172720000Y-55880000D03*
D29*
X175260000Y-55880000D03*
X172720000Y-58420000D03*
X175260000Y-58420000D03*
X172720000Y-60960000D03*
X175260000Y-60960000D03*
X172720000Y-63500000D03*
X175260000Y-63500000D03*
X172720000Y-66040000D03*
X175260000Y-66040000D03*
X172720000Y-68580000D03*
X175260000Y-68580000D03*
X172720000Y-71120000D03*
X175260000Y-71120000D03*
X172720000Y-73660000D03*
X175260000Y-73660000D03*
%TD*%
D30*
%TO.C,U9*%
X179515075Y-113484925D03*
X181000000Y-112000000D03*
X179656497Y-110656497D03*
X178171572Y-112141422D03*
%TD*%
D12*
%TO.C,C23*%
X171750000Y-112000000D03*
X172846016Y-110903984D03*
%TD*%
D16*
%TO.C,C44*%
X127450000Y-97100000D03*
X129000000Y-97100000D03*
%TD*%
D28*
%TO.C,J1*%
X193040000Y-55880000D03*
D29*
X195580000Y-55880000D03*
X193040000Y-58420000D03*
X195580000Y-58420000D03*
X193040000Y-60960000D03*
X195580000Y-60960000D03*
X193040000Y-63500000D03*
X195580000Y-63500000D03*
X193040000Y-66040000D03*
X195580000Y-66040000D03*
X193040000Y-68580000D03*
X195580000Y-68580000D03*
X193040000Y-71120000D03*
X195580000Y-71120000D03*
X193040000Y-73660000D03*
X195580000Y-73660000D03*
%TD*%
D31*
%TO.C,C10*%
X168600000Y-113800000D03*
X167503984Y-112703984D03*
%TD*%
D32*
%TO.C,C55*%
X146000000Y-139775000D03*
X146000000Y-138225000D03*
%TD*%
D20*
%TO.C,J13*%
X198120000Y-111760000D03*
D21*
X195580000Y-111760000D03*
%TD*%
D33*
%TO.C,R33*%
X136200000Y-98300000D03*
X136200000Y-99950000D03*
%TD*%
D28*
%TO.C,J2*%
X182880000Y-55880000D03*
D29*
X185420000Y-55880000D03*
X182880000Y-58420000D03*
X185420000Y-58420000D03*
X182880000Y-60959999D03*
X185420000Y-60960000D03*
X182880000Y-63500000D03*
X185420000Y-63500000D03*
X182880000Y-66040000D03*
X185420000Y-66040000D03*
X182880000Y-68580000D03*
X185420000Y-68580000D03*
X182880000Y-71120000D03*
X185420000Y-71120000D03*
X182880000Y-73660001D03*
X185420000Y-73660000D03*
%TD*%
D34*
%TO.C,C53*%
X142000000Y-140800000D03*
X142000000Y-137200000D03*
%TD*%
D23*
%TO.C,C48*%
X117100000Y-98800000D03*
X117100000Y-100350000D03*
%TD*%
D35*
%TO.C,U3*%
X129540000Y-122144999D03*
D36*
X129540000Y-124684999D03*
X129540000Y-127224998D03*
X129540000Y-129764999D03*
X129540000Y-132304999D03*
X129540000Y-134844999D03*
X129540000Y-137384999D03*
X129540000Y-139925000D03*
X152400000Y-139925000D03*
X152400000Y-137384999D03*
X152400000Y-134844999D03*
X152400000Y-132304999D03*
X152400000Y-129764999D03*
X152400000Y-127224998D03*
X152400000Y-124684999D03*
X152400000Y-122144999D03*
%TD*%
D37*
%TO.C,C27*%
X192000000Y-135000000D03*
X192000000Y-138600000D03*
%TD*%
D38*
%TO.C,FB4*%
X137000000Y-139825000D03*
X137000000Y-138000000D03*
%TD*%
D39*
%TO.C,D3*%
X198699998Y-136000000D03*
X203000000Y-136000000D03*
%TD*%
D40*
%TO.C,U12*%
X124300000Y-82700000D03*
X122199998Y-82700000D03*
X122199998Y-84600000D03*
X124300000Y-84600000D03*
%TD*%
D41*
%TO.C,J21*%
X180900000Y-137900000D03*
D42*
X180900000Y-143900000D03*
D43*
X185600000Y-140900000D03*
%TD*%
D44*
%TO.C,U1*%
X169000298Y-99486136D03*
X169353852Y-99839689D03*
X169707405Y-100193243D03*
X170060959Y-100546796D03*
X170414512Y-100900349D03*
X170768065Y-101253903D03*
X171121619Y-101607456D03*
X171475172Y-101961010D03*
X171828726Y-102314563D03*
X172182279Y-102668116D03*
X172535832Y-103021670D03*
X172889386Y-103375223D03*
X173242939Y-103728777D03*
X173596493Y-104082330D03*
X173950046Y-104435883D03*
X174303599Y-104789437D03*
X174657153Y-105142990D03*
X175010706Y-105496544D03*
D45*
X175982978Y-105496544D03*
X176336531Y-105142990D03*
X176690085Y-104789437D03*
X177043638Y-104435883D03*
X177397191Y-104082330D03*
X177750745Y-103728777D03*
X178104298Y-103375223D03*
X178457852Y-103021670D03*
X178811405Y-102668116D03*
X179164958Y-102314563D03*
X179518512Y-101961010D03*
X179872065Y-101607456D03*
X180225619Y-101253903D03*
X180579172Y-100900349D03*
X180932725Y-100546796D03*
X181286279Y-100193243D03*
X181639832Y-99839689D03*
X181993386Y-99486136D03*
D44*
X181993386Y-98513864D03*
X181639832Y-98160311D03*
X181286279Y-97806757D03*
X180932725Y-97453204D03*
X180579172Y-97099651D03*
X180225619Y-96746097D03*
X179872065Y-96392544D03*
X179518512Y-96038990D03*
X179164958Y-95685437D03*
X178811405Y-95331884D03*
X178457852Y-94978330D03*
X178104298Y-94624777D03*
X177750745Y-94271223D03*
X177397191Y-93917670D03*
X177043638Y-93564117D03*
X176690085Y-93210563D03*
X176336531Y-92857010D03*
X175982978Y-92503456D03*
D45*
X175010706Y-92503456D03*
X174657153Y-92857010D03*
X174303599Y-93210563D03*
X173950046Y-93564117D03*
X173596493Y-93917670D03*
X173242939Y-94271223D03*
X172889386Y-94624777D03*
X172535832Y-94978330D03*
X172182279Y-95331884D03*
X171828726Y-95685437D03*
X171475172Y-96038990D03*
X171121619Y-96392544D03*
X170768065Y-96746097D03*
X170414512Y-97099651D03*
X170060959Y-97453204D03*
X169707405Y-97806757D03*
X169353852Y-98160311D03*
X169000298Y-98513864D03*
D46*
X175496842Y-99000000D03*
%TD*%
D47*
%TO.C,JP1*%
X142700000Y-92299998D03*
X142700000Y-91000000D03*
%TD*%
%TO.C,JP2*%
X145400000Y-92299998D03*
X145400000Y-91000000D03*
%TD*%
D48*
%TO.C,FB2*%
X178225000Y-130100000D03*
X176400000Y-130100000D03*
%TD*%
D49*
%TO.C,C24*%
X170903984Y-113403984D03*
X172000000Y-114500000D03*
%TD*%
D50*
%TO.C,D4*%
X114900002Y-128500000D03*
X110600000Y-128500000D03*
%TD*%
D16*
%TO.C,C28*%
X182450000Y-135000000D03*
X184000000Y-135000000D03*
%TD*%
D10*
%TO.C,R37*%
X146000000Y-95850000D03*
X146000000Y-94200000D03*
%TD*%
D32*
%TO.C,C46*%
X118400000Y-84000000D03*
X118400000Y-82450000D03*
%TD*%
D49*
%TO.C,C17*%
X184403984Y-96203984D03*
X185500000Y-97300000D03*
%TD*%
D51*
%TO.C,U13*%
X133100000Y-103410000D03*
X133100000Y-102140000D03*
X133100000Y-100870000D03*
X133100000Y-99600000D03*
X125900000Y-99600000D03*
X125900000Y-100870000D03*
X125900000Y-102140000D03*
X125900000Y-103410000D03*
%TD*%
D39*
%TO.C,D5*%
X110700000Y-133600000D03*
X115000000Y-133600000D03*
%TD*%
D22*
%TO.C,C5*%
X177496016Y-107903984D03*
X176400000Y-109000000D03*
%TD*%
D52*
%TO.C,Q1*%
X163750000Y-104250000D03*
X162123654Y-102623655D03*
D53*
X157668882Y-107078427D03*
D52*
X160497309Y-100997309D03*
%TD*%
D15*
%TO.C,C33*%
X114800000Y-96900000D03*
X113250000Y-96900000D03*
%TD*%
D18*
%TO.C,U4*%
X172720000Y-139790000D03*
X167640000Y-139790000D03*
D19*
X167640000Y-137160000D03*
X170180000Y-137160000D03*
X172720000Y-137160000D03*
%TD*%
D27*
%TO.C,R28*%
X152000000Y-106000000D03*
X150350000Y-106000000D03*
%TD*%
D38*
%TO.C,FB1*%
X203000000Y-132000000D03*
X203000000Y-130175000D03*
%TD*%
D10*
%TO.C,R4*%
X200600000Y-99150000D03*
X200600000Y-97500000D03*
%TD*%
D54*
%TO.C,R23*%
X185400000Y-113400000D03*
X184233274Y-112233274D03*
%TD*%
D20*
%TO.C,J6*%
X129540000Y-109220000D03*
D21*
X132080000Y-109220000D03*
X134619999Y-109220000D03*
X137160000Y-109220000D03*
%TD*%
D11*
%TO.C,R19*%
X147600000Y-127360000D03*
X149250000Y-127360000D03*
%TD*%
D17*
%TO.C,R7*%
X186054594Y-92888046D03*
X187221320Y-91721320D03*
%TD*%
D16*
%TO.C,C40*%
X127550000Y-92400000D03*
X129100000Y-92400000D03*
%TD*%
D23*
%TO.C,C41*%
X121500000Y-102000000D03*
X121500000Y-103550000D03*
%TD*%
D16*
%TO.C,C32*%
X109450000Y-113200000D03*
X111000000Y-113200000D03*
%TD*%
D20*
%TO.C,J16*%
X198120000Y-86359999D03*
D21*
X198120000Y-83819999D03*
X198120000Y-81280000D03*
%TD*%
D55*
%TO.C,H3*%
X202000000Y-52000000D03*
%TD*%
D33*
%TO.C,R32*%
X119900000Y-103000000D03*
X119900000Y-104650000D03*
%TD*%
D10*
%TO.C,R34*%
X136200000Y-103150000D03*
X136200000Y-101500000D03*
%TD*%
D55*
%TO.C,H1*%
X110000000Y-52000000D03*
%TD*%
D23*
%TO.C,C45*%
X123100000Y-102000000D03*
X123100000Y-103550000D03*
%TD*%
D20*
%TO.C,J12*%
X172720000Y-119380000D03*
D21*
X172720000Y-121920000D03*
X170180000Y-119380000D03*
X170180000Y-121920000D03*
X167640001Y-119380000D03*
X167640000Y-121920000D03*
X165100000Y-119380000D03*
X165100000Y-121920000D03*
X162560000Y-119380000D03*
X162560000Y-121920000D03*
X160020000Y-119380000D03*
X160020000Y-121920000D03*
%TD*%
D26*
%TO.C,R38*%
X187333274Y-110533274D03*
X188500000Y-111700000D03*
%TD*%
D56*
%TO.C,U5*%
X187000000Y-132600000D03*
X186999999Y-130300000D03*
D57*
X180700001Y-130300000D03*
D56*
X187000000Y-128000000D03*
%TD*%
D33*
%TO.C,R25*%
X156000000Y-121000000D03*
X156000000Y-122650000D03*
%TD*%
D17*
%TO.C,R6*%
X184993934Y-91827386D03*
X186160660Y-90660660D03*
%TD*%
D54*
%TO.C,R40*%
X179783363Y-107783363D03*
X178616637Y-106616637D03*
%TD*%
D12*
%TO.C,C1*%
X180975556Y-114637438D03*
X182071572Y-113541422D03*
%TD*%
D58*
%TO.C,U11*%
X110500000Y-123499999D03*
X112800000Y-123499998D03*
D59*
X112800000Y-117200000D03*
D58*
X115100000Y-123499999D03*
%TD*%
D54*
%TO.C,R22*%
X165500000Y-102750000D03*
X164333274Y-101583274D03*
%TD*%
D17*
%TO.C,R5*%
X183933274Y-90766726D03*
X185100000Y-89600000D03*
%TD*%
D31*
%TO.C,C22*%
X166796016Y-107996016D03*
X165700000Y-106900000D03*
%TD*%
D60*
%TO.C,J14*%
X116475000Y-144150000D03*
X120475000Y-144150000D03*
D61*
X117175000Y-143350000D03*
X117825000Y-143350000D03*
X118475000Y-143350000D03*
X119125000Y-143350000D03*
X119775000Y-143350000D03*
D62*
X115275000Y-144150000D03*
D63*
X115650000Y-146400000D03*
D64*
X117325000Y-146400000D03*
X119625000Y-146400000D03*
D63*
X121300000Y-146400000D03*
D62*
X121675000Y-144150000D03*
%TD*%
D17*
%TO.C,R11*%
X182754594Y-89688046D03*
X183921320Y-88521320D03*
%TD*%
D23*
%TO.C,R17*%
X118300000Y-103000000D03*
X118300000Y-104550000D03*
%TD*%
D32*
%TO.C,C54*%
X148000000Y-139775000D03*
X148000000Y-138225000D03*
%TD*%
D20*
%TO.C,J18*%
X109220000Y-68580000D03*
D21*
X109220000Y-71120000D03*
X109220000Y-73660000D03*
X109220000Y-76200000D03*
X109220000Y-78740000D03*
X109220000Y-81280000D03*
X109220000Y-83820000D03*
X109220000Y-86360000D03*
X109220000Y-88900000D03*
X109220000Y-91440000D03*
X109220000Y-93980000D03*
X109220000Y-96520000D03*
X109220000Y-99060000D03*
X109220000Y-101600000D03*
X109220000Y-104140000D03*
X109220000Y-106680000D03*
X109220000Y-109220000D03*
%TD*%
D65*
%TO.C,J15*%
X190500000Y-144780000D03*
X195500000Y-144780000D03*
%TD*%
D23*
%TO.C,C47*%
X116500000Y-101900000D03*
X116500000Y-103450000D03*
%TD*%
D33*
%TO.C,R41*%
X120500000Y-86650000D03*
X120500000Y-88300000D03*
%TD*%
D26*
%TO.C,R39*%
X186100000Y-111600000D03*
X187266726Y-112766726D03*
%TD*%
D20*
%TO.C,J19*%
X142240000Y-78740000D03*
D21*
X144780000Y-78740000D03*
X142240000Y-81280000D03*
X144780000Y-81280000D03*
X142240000Y-83820000D03*
X144780000Y-83820000D03*
X142240000Y-86360000D03*
X144780000Y-86360000D03*
%TD*%
D17*
%TO.C,R9*%
X180633274Y-87566726D03*
X181800000Y-86400000D03*
%TD*%
D18*
%TO.C,SW2*%
X139700000Y-99060000D03*
X146200000Y-99060000D03*
X139700000Y-103560000D03*
X146200000Y-103560000D03*
%TD*%
D15*
%TO.C,C42*%
X113750000Y-92300000D03*
X112200000Y-92300000D03*
%TD*%
D66*
%TO.C,D1*%
X184950002Y-124000000D03*
X187000000Y-124000000D03*
%TD*%
D11*
%TO.C,R31*%
X177350000Y-123000000D03*
X179000000Y-123000000D03*
%TD*%
D10*
%TO.C,R36*%
X144400000Y-95850000D03*
X144400000Y-94200000D03*
%TD*%
D39*
%TO.C,D6*%
X133849999Y-144000000D03*
X138150001Y-144000000D03*
%TD*%
D31*
%TO.C,C51*%
X162548008Y-98548008D03*
X161451992Y-97451992D03*
%TD*%
D20*
%TO.C,J10*%
X142240000Y-53340000D03*
D21*
X144780000Y-53340000D03*
X142240000Y-55880000D03*
X144780000Y-55880000D03*
X142240000Y-58420000D03*
X144780000Y-58420000D03*
X142240000Y-60960000D03*
X144780000Y-60960000D03*
%TD*%
D17*
%TO.C,R1*%
X187211954Y-93945406D03*
X188378680Y-92778680D03*
%TD*%
D67*
%TO.C,U10*%
X123237500Y-96400000D03*
X123237500Y-95999999D03*
X123237500Y-95600000D03*
X123237500Y-95200000D03*
X123237500Y-94800000D03*
X123237500Y-94400001D03*
X123237500Y-94000000D03*
X123237500Y-93600000D03*
X123237500Y-93199999D03*
X123237500Y-92800000D03*
X123237500Y-92400000D03*
X123237500Y-92000000D03*
X123237500Y-91600001D03*
X123237500Y-91200000D03*
D68*
X122400000Y-90362500D03*
X121999999Y-90362500D03*
X121600000Y-90362500D03*
X121200000Y-90362500D03*
X120800000Y-90362500D03*
X120400001Y-90362500D03*
X120000000Y-90362500D03*
X119600000Y-90362500D03*
X119199999Y-90362500D03*
X118800000Y-90362500D03*
X118400000Y-90362500D03*
X118000000Y-90362500D03*
X117600001Y-90362500D03*
X117200000Y-90362500D03*
D67*
X116362500Y-91200000D03*
X116362500Y-91600001D03*
X116362500Y-92000000D03*
X116362500Y-92400000D03*
X116362500Y-92800000D03*
X116362500Y-93199999D03*
X116362500Y-93600000D03*
X116362500Y-94000000D03*
X116362500Y-94400001D03*
X116362500Y-94800000D03*
X116362500Y-95200000D03*
X116362500Y-95600000D03*
X116362500Y-95999999D03*
X116362500Y-96400000D03*
D68*
X117200000Y-97237500D03*
X117600001Y-97237500D03*
X118000000Y-97237500D03*
X118400000Y-97237500D03*
X118800000Y-97237500D03*
X119199999Y-97237500D03*
X119600000Y-97237500D03*
X120000000Y-97237500D03*
X120400001Y-97237500D03*
X120800000Y-97237500D03*
X121200000Y-97237500D03*
X121600000Y-97237500D03*
X121999999Y-97237500D03*
X122400000Y-97237500D03*
D69*
X119800000Y-93800000D03*
%TD*%
D70*
%TO.C,R21*%
X174166726Y-112083274D03*
X173000000Y-113250000D03*
%TD*%
D20*
%TO.C,J8*%
X195580000Y-116840000D03*
D21*
X198120000Y-116840000D03*
X195580000Y-119380000D03*
X198120000Y-119380000D03*
X195580000Y-121920000D03*
X198120000Y-121920000D03*
%TD*%
D34*
%TO.C,C26*%
X198000000Y-131600000D03*
X198000000Y-128000000D03*
%TD*%
D71*
%TO.C,U6*%
X187460000Y-122000000D03*
X188730000Y-122000000D03*
X190000000Y-122000000D03*
X191270000Y-122000000D03*
X191270000Y-114800000D03*
X190000000Y-114800000D03*
X188730000Y-114800000D03*
X187460000Y-114800000D03*
%TD*%
D72*
%TO.C,C2*%
X173000000Y-134000000D03*
X176600000Y-134000000D03*
%TD*%
D55*
%TO.C,H4*%
X202000000Y-144000000D03*
%TD*%
D10*
%TO.C,R35*%
X142700000Y-95850000D03*
X142700000Y-94200000D03*
%TD*%
D16*
%TO.C,C29*%
X182225000Y-125800000D03*
X183775000Y-125800000D03*
%TD*%
D12*
%TO.C,C9*%
X186548008Y-100851992D03*
X187644024Y-99755976D03*
%TD*%
D73*
%TO.C,L3*%
X163720000Y-133000000D03*
X163720000Y-134575002D03*
%TD*%
D74*
%TO.C,FB3*%
X161354765Y-111645235D03*
X162645235Y-110354765D03*
%TD*%
D31*
%TO.C,C12*%
X178400000Y-89800000D03*
X177303984Y-88703984D03*
%TD*%
D66*
%TO.C,D2*%
X176950002Y-124875001D03*
X179000000Y-124875001D03*
%TD*%
D22*
%TO.C,C6*%
X178596016Y-109003984D03*
X177500000Y-110100000D03*
%TD*%
D17*
%TO.C,R13*%
X177339340Y-84239340D03*
X178506066Y-83072614D03*
%TD*%
D22*
%TO.C,C14*%
X167000000Y-97000000D03*
X165903984Y-98096016D03*
%TD*%
D23*
%TO.C,C39*%
X114800000Y-98800000D03*
X114800000Y-100350000D03*
%TD*%
D28*
%TO.C,J7*%
X152400000Y-55880000D03*
D29*
X154940000Y-55880000D03*
X152400000Y-58420000D03*
X154940000Y-58420000D03*
X152400000Y-60960000D03*
X154940000Y-60960000D03*
X152400000Y-63500000D03*
X154940000Y-63500000D03*
X152400000Y-66040000D03*
X154940000Y-66040000D03*
X152400000Y-68580000D03*
X154940000Y-68580000D03*
X152400000Y-71120000D03*
X154940000Y-71120000D03*
X152400000Y-73660000D03*
X154940000Y-73660000D03*
%TD*%
D12*
%TO.C,C8*%
X185451992Y-99748008D03*
X186548008Y-98651992D03*
%TD*%
D28*
%TO.C,J4*%
X162560000Y-55880000D03*
D29*
X165100000Y-55880000D03*
X162560000Y-58420000D03*
X165100000Y-58420000D03*
X162560000Y-60960000D03*
X165100000Y-60960000D03*
X162560000Y-63500000D03*
X165100000Y-63500000D03*
X162560000Y-66040000D03*
X165100000Y-66040000D03*
X162560000Y-68580000D03*
X165100000Y-68580000D03*
X162560000Y-71120000D03*
X165100000Y-71120000D03*
X162560000Y-73660000D03*
X165100000Y-73660000D03*
%TD*%
D33*
%TO.C,R20*%
X167160000Y-133175000D03*
X167160000Y-134825000D03*
%TD*%
D16*
%TO.C,C4*%
X113550000Y-113200000D03*
X115100000Y-113200000D03*
%TD*%
D55*
%TO.C,H2*%
X110000000Y-144000000D03*
%TD*%
D47*
%TO.C,JP3*%
X148000000Y-92299998D03*
X148000000Y-91000000D03*
%TD*%
D16*
%TO.C,C50*%
X125850000Y-105300000D03*
X127400000Y-105300000D03*
%TD*%
D20*
%TO.C,J11*%
X125400000Y-132080000D03*
D21*
X125400000Y-134620000D03*
X125400000Y-137160000D03*
X125400000Y-139700000D03*
%TD*%
D20*
%TO.C,J22*%
X137160000Y-93980000D03*
D21*
X137160000Y-91440000D03*
X137160000Y-88900001D03*
X137160000Y-86360000D03*
X137160000Y-83820000D03*
X137160000Y-81280000D03*
X137160000Y-78740000D03*
X137160000Y-76199999D03*
X137160000Y-73660000D03*
X137160000Y-71120000D03*
X137160000Y-68580000D03*
X137160000Y-66040001D03*
X137160000Y-63500000D03*
%TD*%
D17*
%TO.C,R42*%
X155583274Y-102166726D03*
X156750000Y-101000000D03*
%TD*%
D10*
%TO.C,R8*%
X198900000Y-99150000D03*
X198900000Y-97500000D03*
%TD*%
D32*
%TO.C,C43*%
X120000000Y-84000000D03*
X120000000Y-82450000D03*
%TD*%
D31*
%TO.C,C11*%
X177300000Y-90900000D03*
X176203984Y-89803984D03*
%TD*%
%TO.C,C21*%
X165700000Y-109100000D03*
X164603984Y-108003984D03*
%TD*%
D27*
%TO.C,R29*%
X152000000Y-104000000D03*
X150350000Y-104000000D03*
%TD*%
D34*
%TO.C,C25*%
X192000000Y-131600000D03*
X192000000Y-128000000D03*
%TD*%
D17*
%TO.C,R15*%
X179460660Y-86360660D03*
X180627386Y-85193934D03*
%TD*%
D31*
%TO.C,C20*%
X175348008Y-110848008D03*
X174251992Y-109751992D03*
%TD*%
D12*
%TO.C,C18*%
X173000000Y-90500000D03*
X174096016Y-89403984D03*
%TD*%
D31*
%TO.C,C7*%
X169700000Y-112500000D03*
X168603984Y-111403984D03*
%TD*%
D20*
%TO.C,J9*%
X142240000Y-66040000D03*
D21*
X144780000Y-66040000D03*
X142240000Y-68580000D03*
X144780000Y-68580000D03*
X142240000Y-71120000D03*
X144780000Y-71120000D03*
X142240000Y-73660000D03*
X144780000Y-73660000D03*
%TD*%
D31*
%TO.C,C19*%
X166500000Y-101500000D03*
X165403984Y-100403984D03*
%TD*%
M02*
