%TF.GenerationSoftware,KiCad,Pcbnew,8.0.5*%
%TF.CreationDate,2025-01-18T12:22:14-08:00*%
%TF.ProjectId,dsp3,64737033-2e6b-4696-9361-645f70636258,rev?*%
%TF.SameCoordinates,Original*%
%TF.FileFunction,Drillmap*%
%TF.FilePolarity,Positive*%
%FSLAX45Y45*%
G04 Gerber Fmt 4.5, Leading zero omitted, Abs format (unit mm)*
G04 Created by KiCad (PCBNEW 8.0.5) date 2025-01-18 12:22:14*
%MOMM*%
%LPD*%
G01*
G04 APERTURE LIST*
%ADD10C,0.100000*%
%ADD11C,0.200000*%
%ADD12C,0.110000*%
%ADD13C,0.120000*%
%ADD14C,0.140000*%
G04 APERTURE END LIST*
D10*
X10600000Y-14400000D02*
X10600000Y-5200000D01*
X20200000Y-14800000D02*
X11000000Y-14800000D01*
X20600000Y-5200000D02*
X20600000Y-14400000D01*
X11000000Y-4800000D02*
X20200000Y-4800000D01*
X10600000Y-5200000D02*
G75*
G02*
X11000000Y-4800000I400000J0D01*
G01*
X11000000Y-14800000D02*
G75*
G02*
X10600000Y-14400000I0J400000D01*
G01*
X20600000Y-14400000D02*
G75*
G02*
X20200000Y-14800000I-400000J0D01*
G01*
X20200000Y-4800000D02*
G75*
G02*
X20600000Y-5200000I0J-400000D01*
G01*
D11*
D10*
X10780000Y-12480000D02*
X10820000Y-12520000D01*
X10820000Y-12480000D02*
X10780000Y-12520000D01*
X10880000Y-12380000D02*
X10920000Y-12420000D01*
X10920000Y-12380000D02*
X10880000Y-12420000D01*
X11142142Y-9118918D02*
X11182142Y-9158918D01*
X11182142Y-9118918D02*
X11142142Y-9158918D01*
X11180000Y-8980000D02*
X11220000Y-9020000D01*
X11220000Y-8980000D02*
X11180000Y-9020000D01*
X11180000Y-11180000D02*
X11220000Y-11220000D01*
X11220000Y-11180000D02*
X11180000Y-11220000D01*
X11180000Y-11880000D02*
X11220000Y-11920000D01*
X11220000Y-11880000D02*
X11180000Y-11920000D01*
X11280000Y-9880000D02*
X11320000Y-9920000D01*
X11320000Y-9880000D02*
X11280000Y-9920000D01*
X11280000Y-10074259D02*
X11320000Y-10114259D01*
X11320000Y-10074259D02*
X11280000Y-10114259D01*
X11280000Y-11080000D02*
X11320000Y-11120000D01*
X11320000Y-11080000D02*
X11280000Y-11120000D01*
X11280000Y-11980000D02*
X11320000Y-12020000D01*
X11320000Y-11980000D02*
X11280000Y-12020000D01*
X11370000Y-14660000D02*
X11410000Y-14700000D01*
X11410000Y-14660000D02*
X11370000Y-14700000D01*
X11380000Y-12080000D02*
X11420000Y-12120000D01*
X11420000Y-12080000D02*
X11380000Y-12120000D01*
X11388681Y-9761602D02*
X11428681Y-9801602D01*
X11428681Y-9761602D02*
X11388681Y-9801602D01*
X11400000Y-14280000D02*
X11440000Y-14320000D01*
X11440000Y-14280000D02*
X11400000Y-14320000D01*
X11415000Y-10189081D02*
X11455000Y-10229081D01*
X11455000Y-10189081D02*
X11415000Y-10229081D01*
X11445000Y-10980000D02*
X11485000Y-11020000D01*
X11485000Y-10980000D02*
X11445000Y-11020000D01*
X11445000Y-11080000D02*
X11485000Y-11120000D01*
X11485000Y-11080000D02*
X11445000Y-11120000D01*
X11480000Y-13680001D02*
X11520000Y-13720001D01*
X11520000Y-13680001D02*
X11480000Y-13720001D01*
X11550000Y-9720000D02*
X11590000Y-9760000D01*
X11590000Y-9720000D02*
X11550000Y-9760000D01*
X11580000Y-9880000D02*
X11620000Y-9920000D01*
X11620000Y-9880000D02*
X11580000Y-9920000D01*
X11580000Y-10015000D02*
X11620000Y-10055000D01*
X11620000Y-10015000D02*
X11580000Y-10055000D01*
X11580000Y-13780000D02*
X11620000Y-13820000D01*
X11620000Y-13780000D02*
X11580000Y-13820000D01*
X11590000Y-10460000D02*
X11630000Y-10500000D01*
X11630000Y-10460000D02*
X11590000Y-10500000D01*
X11661250Y-13880000D02*
X11701250Y-13920000D01*
X11701250Y-13880000D02*
X11661250Y-13920000D01*
X11820000Y-8090000D02*
X11860000Y-8130000D01*
X11860000Y-8090000D02*
X11820000Y-8130000D01*
X11850000Y-9250000D02*
X11890000Y-9290000D01*
X11890000Y-9250000D02*
X11850000Y-9290000D01*
X11850000Y-9350000D02*
X11890000Y-9390000D01*
X11890000Y-9350000D02*
X11850000Y-9390000D01*
X11850000Y-9460000D02*
X11890000Y-9500000D01*
X11890000Y-9460000D02*
X11850000Y-9500000D01*
X11860000Y-8600000D02*
X11900000Y-8640000D01*
X11900000Y-8600000D02*
X11860000Y-8640000D01*
X11950000Y-9460000D02*
X11990000Y-9500000D01*
X11990000Y-9460000D02*
X11950000Y-9500000D01*
X11960000Y-9360000D02*
X12000000Y-9400000D01*
X12000000Y-9360000D02*
X11960000Y-9400000D01*
X11960000Y-9250000D02*
X12000000Y-9290000D01*
X12000000Y-9250000D02*
X11960000Y-9290000D01*
X11960000Y-14010000D02*
X12000000Y-14050000D01*
X12000000Y-14010000D02*
X11960000Y-14050000D01*
X11980000Y-8090000D02*
X12020000Y-8130000D01*
X12020000Y-8090000D02*
X11980000Y-8130000D01*
X11990000Y-10100001D02*
X12030000Y-10140001D01*
X12030000Y-10100001D02*
X11990000Y-10140001D01*
X12060000Y-9250000D02*
X12100000Y-9290000D01*
X12100000Y-9250000D02*
X12060000Y-9290000D01*
X12060000Y-9350000D02*
X12100000Y-9390000D01*
X12100000Y-9350000D02*
X12060000Y-9390000D01*
X12060000Y-9460000D02*
X12100000Y-9500000D01*
X12100000Y-9460000D02*
X12060000Y-9500000D01*
X12080000Y-7980000D02*
X12120000Y-8020000D01*
X12120000Y-7980000D02*
X12080000Y-8020000D01*
X12098442Y-10475219D02*
X12138442Y-10515219D01*
X12138442Y-10475219D02*
X12098442Y-10515219D01*
X12180000Y-9280000D02*
X12220000Y-9320000D01*
X12220000Y-9280000D02*
X12180000Y-9320000D01*
X12220000Y-7910000D02*
X12260000Y-7950000D01*
X12260000Y-7910000D02*
X12220000Y-7950000D01*
X12255000Y-10528943D02*
X12295000Y-10568943D01*
X12295000Y-10528943D02*
X12255000Y-10568943D01*
X12280000Y-8720000D02*
X12320000Y-8760000D01*
X12320000Y-8720000D02*
X12280000Y-8760000D01*
X12330000Y-14380000D02*
X12370000Y-14420000D01*
X12370000Y-14380000D02*
X12330000Y-14420000D01*
X12330000Y-14610000D02*
X12370000Y-14650000D01*
X12370000Y-14610000D02*
X12330000Y-14650000D01*
X12380000Y-10580000D02*
X12420000Y-10620000D01*
X12420000Y-10580000D02*
X12380000Y-10620000D01*
X12389834Y-10276836D02*
X12429834Y-10316836D01*
X12429834Y-10276836D02*
X12389834Y-10316836D01*
X12431295Y-7953479D02*
X12471295Y-7993479D01*
X12471295Y-7953479D02*
X12431295Y-7993479D01*
X12480000Y-9680000D02*
X12520000Y-9720000D01*
X12520000Y-9680000D02*
X12480000Y-9720000D01*
X12840000Y-10510000D02*
X12880000Y-10550000D01*
X12880000Y-10510000D02*
X12840000Y-10550000D01*
X13010000Y-9690000D02*
X13050000Y-9730000D01*
X13050000Y-9690000D02*
X13010000Y-9730000D01*
X13020000Y-9220000D02*
X13060000Y-9260000D01*
X13060000Y-9220000D02*
X13020000Y-9260000D01*
X13180000Y-13780000D02*
X13220000Y-13820000D01*
X13220000Y-13780000D02*
X13180000Y-13820000D01*
X13380000Y-10480000D02*
X13420000Y-10520000D01*
X13420000Y-10480000D02*
X13380000Y-10520000D01*
X13430000Y-9680000D02*
X13470000Y-9720000D01*
X13470000Y-9680000D02*
X13430000Y-9720000D01*
X13607765Y-10432031D02*
X13647765Y-10472031D01*
X13647765Y-10432031D02*
X13607765Y-10472031D01*
X13720000Y-10200000D02*
X13760000Y-10240000D01*
X13760000Y-10200000D02*
X13720000Y-10240000D01*
X13826775Y-10157290D02*
X13866775Y-10197290D01*
X13866775Y-10157290D02*
X13826775Y-10197290D01*
X13850000Y-10510000D02*
X13890000Y-10550000D01*
X13890000Y-10510000D02*
X13850000Y-10550000D01*
X13930000Y-9480000D02*
X13970000Y-9520000D01*
X13970000Y-9480000D02*
X13930000Y-9520000D01*
X13980000Y-6770000D02*
X14020000Y-6810000D01*
X14020000Y-6770000D02*
X13980000Y-6810000D01*
X13982633Y-10492637D02*
X14022633Y-10532637D01*
X14022633Y-10492637D02*
X13982633Y-10532637D01*
X14070000Y-7620000D02*
X14110000Y-7660000D01*
X14110000Y-7620000D02*
X14070000Y-7660000D01*
X14080000Y-14380000D02*
X14120000Y-14420000D01*
X14120000Y-14380000D02*
X14080000Y-14420000D01*
X14155000Y-7705000D02*
X14195000Y-7745000D01*
X14195000Y-7705000D02*
X14155000Y-7745000D01*
X14180000Y-14480000D02*
X14220000Y-14520000D01*
X14220000Y-14480000D02*
X14180000Y-14520000D01*
X14230365Y-8805000D02*
X14270365Y-8845000D01*
X14270365Y-8805000D02*
X14230365Y-8845000D01*
X14290000Y-14590000D02*
X14330000Y-14630000D01*
X14330000Y-14590000D02*
X14290000Y-14630000D01*
X14490000Y-8930000D02*
X14530000Y-8970000D01*
X14530000Y-8930000D02*
X14490000Y-8970000D01*
X14500000Y-9690000D02*
X14540000Y-9730000D01*
X14540000Y-9690000D02*
X14500000Y-9730000D01*
X14580000Y-12780000D02*
X14620000Y-12820000D01*
X14620000Y-12780000D02*
X14580000Y-12820000D01*
X14580000Y-12980000D02*
X14620000Y-13020000D01*
X14620000Y-12980000D02*
X14580000Y-13020000D01*
X14590000Y-8910000D02*
X14630000Y-8950000D01*
X14630000Y-8910000D02*
X14590000Y-8950000D01*
X15010000Y-6600000D02*
X15050000Y-6640000D01*
X15050000Y-6600000D02*
X15010000Y-6640000D01*
X15374246Y-11234998D02*
X15414246Y-11274998D01*
X15414246Y-11234998D02*
X15374246Y-11274998D01*
X15452500Y-11130000D02*
X15492500Y-11170000D01*
X15492500Y-11130000D02*
X15452500Y-11170000D01*
X15490000Y-11400000D02*
X15530000Y-11440000D01*
X15530000Y-11400000D02*
X15490000Y-11440000D01*
X15590000Y-11220000D02*
X15630000Y-11260000D01*
X15630000Y-11220000D02*
X15590000Y-11260000D01*
X15610000Y-5185000D02*
X15650000Y-5225000D01*
X15650000Y-5185000D02*
X15610000Y-5225000D01*
X15660000Y-10960000D02*
X15700000Y-11000000D01*
X15700000Y-10960000D02*
X15660000Y-11000000D01*
X15704765Y-5119849D02*
X15744765Y-5159849D01*
X15744765Y-5119849D02*
X15704765Y-5159849D01*
X15710000Y-10410000D02*
X15750000Y-10450000D01*
X15750000Y-10410000D02*
X15710000Y-10450000D01*
X15752234Y-5564543D02*
X15792234Y-5604543D01*
X15792234Y-5564543D02*
X15752234Y-5604543D01*
X15779532Y-9799265D02*
X15819532Y-9839265D01*
X15819532Y-9799265D02*
X15779532Y-9839265D01*
X15790000Y-10320000D02*
X15830000Y-10360000D01*
X15830000Y-10320000D02*
X15790000Y-10360000D01*
X15827000Y-11433000D02*
X15867000Y-11473000D01*
X15867000Y-11433000D02*
X15827000Y-11473000D01*
X15855967Y-5460810D02*
X15895967Y-5500810D01*
X15895967Y-5460810D02*
X15855967Y-5500810D01*
X15870000Y-10230000D02*
X15910000Y-10270000D01*
X15910000Y-10230000D02*
X15870000Y-10270000D01*
X15915000Y-11345000D02*
X15955000Y-11385000D01*
X15955000Y-11345000D02*
X15915000Y-11385000D01*
X15960000Y-7850000D02*
X16000000Y-7890000D01*
X16000000Y-7850000D02*
X15960000Y-7890000D01*
X15990000Y-11270000D02*
X16030000Y-11310000D01*
X16030000Y-11270000D02*
X15990000Y-11310000D01*
X16130000Y-13170000D02*
X16170000Y-13210000D01*
X16170000Y-13170000D02*
X16130000Y-13210000D01*
X16250000Y-9470000D02*
X16290000Y-9510000D01*
X16290000Y-9470000D02*
X16250000Y-9510000D01*
X16300000Y-7850000D02*
X16340000Y-7890000D01*
X16340000Y-7850000D02*
X16300000Y-7890000D01*
X16350000Y-9760000D02*
X16390000Y-9800000D01*
X16390000Y-9760000D02*
X16350000Y-9800000D01*
X16350000Y-10860000D02*
X16390000Y-10900000D01*
X16390000Y-10860000D02*
X16350000Y-10900000D01*
X16370000Y-9480000D02*
X16410000Y-9520000D01*
X16410000Y-9480000D02*
X16370000Y-9520000D01*
X16420000Y-9920000D02*
X16460000Y-9960000D01*
X16460000Y-9920000D02*
X16420000Y-9960000D01*
X16426702Y-9638700D02*
X16466702Y-9678700D01*
X16466702Y-9638700D02*
X16426702Y-9678700D01*
X16480000Y-9480000D02*
X16520000Y-9520000D01*
X16520000Y-9480000D02*
X16480000Y-9520000D01*
X16490000Y-13030000D02*
X16530000Y-13070000D01*
X16530000Y-13030000D02*
X16490000Y-13070000D01*
X16555000Y-12580906D02*
X16595000Y-12620906D01*
X16595000Y-12580906D02*
X16555000Y-12620906D01*
X16650000Y-5420000D02*
X16690000Y-5460000D01*
X16690000Y-5420000D02*
X16650000Y-5460000D01*
X16650000Y-11370000D02*
X16690000Y-11410000D01*
X16690000Y-11370000D02*
X16650000Y-11410000D01*
X16657751Y-5155000D02*
X16697751Y-5195000D01*
X16697751Y-5155000D02*
X16657751Y-5195000D01*
X16757261Y-5097357D02*
X16797261Y-5137357D01*
X16797261Y-5097357D02*
X16757261Y-5137357D01*
X16780000Y-13030000D02*
X16820000Y-13070000D01*
X16820000Y-13030000D02*
X16780000Y-13070000D01*
X16780462Y-5405000D02*
X16820462Y-5445000D01*
X16820462Y-5405000D02*
X16780462Y-5445000D01*
X16880000Y-12480000D02*
X16920000Y-12520000D01*
X16920000Y-12480000D02*
X16880000Y-12520000D01*
X17080000Y-11580000D02*
X17120000Y-11620000D01*
X17120000Y-11580000D02*
X17080000Y-11620000D01*
X17180000Y-8930000D02*
X17220000Y-8970000D01*
X17220000Y-8930000D02*
X17180000Y-8970000D01*
X17290000Y-8830000D02*
X17330000Y-8870000D01*
X17330000Y-8830000D02*
X17290000Y-8870000D01*
X17310000Y-10880000D02*
X17350000Y-10920000D01*
X17350000Y-10880000D02*
X17310000Y-10920000D01*
X17380000Y-9880000D02*
X17420000Y-9920000D01*
X17420000Y-9880000D02*
X17380000Y-9920000D01*
X17480000Y-9780000D02*
X17520000Y-9820000D01*
X17520000Y-9780000D02*
X17480000Y-9820000D01*
X17480000Y-9980000D02*
X17520000Y-10020000D01*
X17520000Y-9980000D02*
X17480000Y-10020000D01*
X17524896Y-7784896D02*
X17564896Y-7824896D01*
X17564896Y-7784896D02*
X17524896Y-7824896D01*
X17580000Y-8795000D02*
X17620000Y-8835000D01*
X17620000Y-8795000D02*
X17580000Y-8835000D01*
X17580000Y-9680000D02*
X17620000Y-9720000D01*
X17620000Y-9680000D02*
X17580000Y-9720000D01*
X17580000Y-9880000D02*
X17620000Y-9920000D01*
X17620000Y-9880000D02*
X17580000Y-9920000D01*
X17580000Y-10080000D02*
X17620000Y-10120000D01*
X17620000Y-10080000D02*
X17580000Y-10120000D01*
X17582700Y-7964297D02*
X17622700Y-8004297D01*
X17622700Y-7964297D02*
X17582700Y-8004297D01*
X17610000Y-12040000D02*
X17650000Y-12080000D01*
X17650000Y-12040000D02*
X17610000Y-12080000D01*
X17632902Y-5151980D02*
X17672902Y-5191980D01*
X17672902Y-5151980D02*
X17632902Y-5191980D01*
X17650000Y-8680001D02*
X17690000Y-8720001D01*
X17690000Y-8680001D02*
X17650000Y-8720001D01*
X17678759Y-5404693D02*
X17718759Y-5444693D01*
X17718759Y-5404693D02*
X17678759Y-5444693D01*
X17680000Y-9780000D02*
X17720000Y-9820000D01*
X17720000Y-9780000D02*
X17680000Y-9820000D01*
X17680000Y-9980000D02*
X17720000Y-10020000D01*
X17720000Y-9980000D02*
X17680000Y-10020000D01*
X17680000Y-11380000D02*
X17720000Y-11420000D01*
X17720000Y-11380000D02*
X17680000Y-11420000D01*
X17700000Y-11100000D02*
X17740000Y-11140000D01*
X17740000Y-11100000D02*
X17700000Y-11140000D01*
X17720000Y-10250000D02*
X17760000Y-10290000D01*
X17760000Y-10250000D02*
X17720000Y-10290000D01*
X17730000Y-5100000D02*
X17770000Y-5140000D01*
X17770000Y-5100000D02*
X17730000Y-5140000D01*
X17780000Y-9880000D02*
X17820000Y-9920000D01*
X17820000Y-9880000D02*
X17780000Y-9920000D01*
X17780000Y-13180000D02*
X17820000Y-13220000D01*
X17820000Y-13180000D02*
X17780000Y-13220000D01*
X17780000Y-13280000D02*
X17820000Y-13320000D01*
X17820000Y-13280000D02*
X17780000Y-13320000D01*
X17870000Y-7680000D02*
X17910000Y-7720000D01*
X17910000Y-7680000D02*
X17870000Y-7720000D01*
X17871535Y-5405000D02*
X17911535Y-5445000D01*
X17911535Y-5405000D02*
X17871535Y-5445000D01*
X17880000Y-11980000D02*
X17920000Y-12020000D01*
X17920000Y-11980000D02*
X17880000Y-12020000D01*
X17920000Y-7790000D02*
X17960000Y-7830000D01*
X17960000Y-7790000D02*
X17920000Y-7830000D01*
X17980000Y-10880000D02*
X18020000Y-10920000D01*
X18020000Y-10880000D02*
X17980000Y-10920000D01*
X17986473Y-10509357D02*
X18026473Y-10549357D01*
X18026473Y-10509357D02*
X17986473Y-10549357D01*
X18080000Y-12180000D02*
X18120000Y-12220000D01*
X18120000Y-12180000D02*
X18080000Y-12220000D01*
X18094833Y-10574625D02*
X18134833Y-10614625D01*
X18134833Y-10574625D02*
X18094833Y-10614625D01*
X18156473Y-10482605D02*
X18196473Y-10522605D01*
X18196473Y-10482605D02*
X18156473Y-10522605D01*
X18170000Y-11530000D02*
X18210000Y-11570000D01*
X18210000Y-11530000D02*
X18170000Y-11570000D01*
X18180000Y-5280000D02*
X18220000Y-5320000D01*
X18220000Y-5280000D02*
X18180000Y-5320000D01*
X18212492Y-7854863D02*
X18252492Y-7894863D01*
X18252492Y-7854863D02*
X18212492Y-7894863D01*
X18215052Y-9087739D02*
X18255052Y-9127739D01*
X18255052Y-9087739D02*
X18215052Y-9127739D01*
X18230000Y-11110000D02*
X18270000Y-11150000D01*
X18270000Y-11110000D02*
X18230000Y-11150000D01*
X18240000Y-9200000D02*
X18280000Y-9240000D01*
X18280000Y-9200000D02*
X18240000Y-9240000D01*
X18263781Y-7957793D02*
X18303781Y-7997793D01*
X18303781Y-7957793D02*
X18263781Y-7997793D01*
X18268546Y-10349663D02*
X18308546Y-10389663D01*
X18308546Y-10349663D02*
X18268546Y-10389663D01*
X18270000Y-11405000D02*
X18310000Y-11445000D01*
X18310000Y-11405000D02*
X18270000Y-11445000D01*
X18270064Y-10464653D02*
X18310064Y-10504653D01*
X18310064Y-10464653D02*
X18270064Y-10504653D01*
X18280000Y-8100000D02*
X18320000Y-8140000D01*
X18320000Y-8100000D02*
X18280000Y-8140000D01*
X18280000Y-12080000D02*
X18320000Y-12120000D01*
X18320000Y-12080000D02*
X18280000Y-12120000D01*
X18360000Y-11770000D02*
X18400000Y-11810000D01*
X18400000Y-11770000D02*
X18360000Y-11810000D01*
X18380000Y-5280000D02*
X18420000Y-5320000D01*
X18420000Y-5280000D02*
X18380000Y-5320000D01*
X18380000Y-11380000D02*
X18420000Y-11420000D01*
X18420000Y-11380000D02*
X18380000Y-11420000D01*
X18380000Y-14537500D02*
X18420000Y-14577500D01*
X18420000Y-14537500D02*
X18380000Y-14577500D01*
X18388061Y-10342234D02*
X18428061Y-10382234D01*
X18428061Y-10342234D02*
X18388061Y-10382234D01*
X18394430Y-11017653D02*
X18434430Y-11057653D01*
X18434430Y-11017653D02*
X18394430Y-11057653D01*
X18464407Y-10926394D02*
X18504407Y-10966394D01*
X18504407Y-10926394D02*
X18464407Y-10966394D01*
X18475277Y-10684723D02*
X18515277Y-10724723D01*
X18515277Y-10684723D02*
X18475277Y-10724723D01*
X18479368Y-10419090D02*
X18519368Y-10459090D01*
X18519368Y-10419090D02*
X18479368Y-10459090D01*
X18480000Y-11545000D02*
X18520000Y-11585000D01*
X18520000Y-11545000D02*
X18480000Y-11585000D01*
X18480000Y-12580000D02*
X18520000Y-12620000D01*
X18520000Y-12580000D02*
X18480000Y-12620000D01*
X18480000Y-14537500D02*
X18520000Y-14577500D01*
X18520000Y-14537500D02*
X18480000Y-14577500D01*
X18485000Y-7915000D02*
X18525000Y-7955000D01*
X18525000Y-7915000D02*
X18485000Y-7955000D01*
X18490000Y-12000000D02*
X18530000Y-12040000D01*
X18530000Y-12000000D02*
X18490000Y-12040000D01*
X18512912Y-10822123D02*
X18552912Y-10862123D01*
X18552912Y-10822123D02*
X18512912Y-10862123D01*
X18514393Y-8015607D02*
X18554393Y-8055607D01*
X18554393Y-8015607D02*
X18514393Y-8055607D01*
X18530000Y-11430000D02*
X18570000Y-11470000D01*
X18570000Y-11430000D02*
X18530000Y-11470000D01*
X18558061Y-10320696D02*
X18598061Y-10360696D01*
X18598061Y-10320696D02*
X18558061Y-10360696D01*
X18580000Y-9600000D02*
X18620000Y-9640000D01*
X18620000Y-9600000D02*
X18580000Y-9640000D01*
X18580000Y-10960000D02*
X18620000Y-11000000D01*
X18620000Y-10960000D02*
X18580000Y-11000000D01*
X18607571Y-10511448D02*
X18647571Y-10551448D01*
X18647571Y-10511448D02*
X18607571Y-10551448D01*
X18610000Y-8110000D02*
X18650000Y-8150000D01*
X18650000Y-8110000D02*
X18610000Y-8150000D01*
X18655248Y-10701510D02*
X18695248Y-10741510D01*
X18695248Y-10701510D02*
X18655248Y-10741510D01*
X18680000Y-13480000D02*
X18720000Y-13520000D01*
X18720000Y-13480000D02*
X18680000Y-13520000D01*
X18680000Y-13580000D02*
X18720000Y-13620000D01*
X18720000Y-13580000D02*
X18680000Y-13620000D01*
X18683128Y-10436046D02*
X18723128Y-10476046D01*
X18723128Y-10436046D02*
X18683128Y-10476046D01*
X18696420Y-5405000D02*
X18736420Y-5445000D01*
X18736420Y-5405000D02*
X18696420Y-5445000D01*
X18702013Y-10596448D02*
X18742013Y-10636448D01*
X18742013Y-10596448D02*
X18702013Y-10636448D01*
X18705000Y-9670000D02*
X18745000Y-9710000D01*
X18745000Y-9670000D02*
X18705000Y-9710000D01*
X18752229Y-10223148D02*
X18792229Y-10263148D01*
X18792229Y-10223148D02*
X18752229Y-10263148D01*
X18782694Y-5020000D02*
X18822694Y-5060000D01*
X18822694Y-5020000D02*
X18782694Y-5060000D01*
X18790000Y-8200000D02*
X18830000Y-8240000D01*
X18830000Y-8200000D02*
X18790000Y-8240000D01*
X18820000Y-7840000D02*
X18860000Y-7880000D01*
X18860000Y-7840000D02*
X18820000Y-7880000D01*
X18837577Y-5415000D02*
X18877577Y-5455000D01*
X18877577Y-5415000D02*
X18837577Y-5455000D01*
X18850000Y-11620000D02*
X18890000Y-11660000D01*
X18890000Y-11620000D02*
X18850000Y-11660000D01*
X18859999Y-8120000D02*
X18899999Y-8160000D01*
X18899999Y-8120000D02*
X18859999Y-8160000D01*
X18860000Y-12030000D02*
X18900000Y-12070000D01*
X18900000Y-12030000D02*
X18860000Y-12070000D01*
X18870001Y-7980000D02*
X18910001Y-8020000D01*
X18910001Y-7980000D02*
X18870001Y-8020000D01*
X18873170Y-5105000D02*
X18913170Y-5145000D01*
X18913170Y-5105000D02*
X18873170Y-5145000D01*
X18880000Y-14080000D02*
X18920000Y-14120000D01*
X18920000Y-14080000D02*
X18880000Y-14120000D01*
X18880000Y-14180000D02*
X18920000Y-14220000D01*
X18920000Y-14180000D02*
X18880000Y-14220000D01*
X18980000Y-5230000D02*
X19020000Y-5270000D01*
X19020000Y-5230000D02*
X18980000Y-5270000D01*
X18980000Y-12030000D02*
X19020000Y-12070000D01*
X19020000Y-12030000D02*
X18980000Y-12070000D01*
X18986432Y-10110869D02*
X19026432Y-10150869D01*
X19026432Y-10110869D02*
X18986432Y-10150869D01*
X19050000Y-8300000D02*
X19090000Y-8340000D01*
X19090000Y-8300000D02*
X19050000Y-8340000D01*
X19100000Y-8120000D02*
X19140000Y-8160000D01*
X19140000Y-8120000D02*
X19100000Y-8160000D01*
X19110000Y-7870000D02*
X19150000Y-7910000D01*
X19150000Y-7870000D02*
X19110000Y-7910000D01*
X19110000Y-12030000D02*
X19150000Y-12070000D01*
X19150000Y-12030000D02*
X19110000Y-12070000D01*
X19118888Y-10398610D02*
X19158888Y-10438610D01*
X19158888Y-10398610D02*
X19118888Y-10438610D01*
X19120000Y-7990000D02*
X19160000Y-8030000D01*
X19160000Y-7990000D02*
X19120000Y-8030000D01*
X19180000Y-10480000D02*
X19220000Y-10520000D01*
X19220000Y-10480000D02*
X19180000Y-10520000D01*
X19180000Y-12480000D02*
X19220000Y-12520000D01*
X19220000Y-12480000D02*
X19180000Y-12520000D01*
X19230000Y-5230000D02*
X19270000Y-5270000D01*
X19270000Y-5230000D02*
X19230000Y-5270000D01*
X19254749Y-10875000D02*
X19294749Y-10915000D01*
X19294749Y-10875000D02*
X19254749Y-10915000D01*
X19380000Y-13880000D02*
X19420000Y-13920000D01*
X19420000Y-13880000D02*
X19380000Y-13920000D01*
X19480000Y-13980000D02*
X19520000Y-14020000D01*
X19520000Y-13980000D02*
X19480000Y-14020000D01*
X19493294Y-8564911D02*
X19533294Y-8604911D01*
X19533294Y-8564911D02*
X19493294Y-8604911D01*
X19539355Y-14053545D02*
X19579355Y-14093545D01*
X19579355Y-14053545D02*
X19539355Y-14093545D01*
X19541239Y-8703440D02*
X19581239Y-8743440D01*
X19581239Y-8703440D02*
X19541239Y-8743440D01*
X19570000Y-5250000D02*
X19610000Y-5290000D01*
X19610000Y-5250000D02*
X19570000Y-5290000D01*
X19680000Y-10280000D02*
X19720000Y-10320000D01*
X19720000Y-10280000D02*
X19680000Y-10320000D01*
X19730000Y-5180000D02*
X19770000Y-5220000D01*
X19770000Y-5180000D02*
X19730000Y-5220000D01*
X19780000Y-12480000D02*
X19820000Y-12520000D01*
X19820000Y-12480000D02*
X19780000Y-12520000D01*
X19980000Y-10780000D02*
X20020000Y-10820000D01*
X20020000Y-10780000D02*
X19980000Y-10820000D01*
X19980000Y-10880000D02*
X20020000Y-10920000D01*
X20020000Y-10880000D02*
X19980000Y-10920000D01*
X20180000Y-11880000D02*
X20220000Y-11920000D01*
X20220000Y-11880000D02*
X20180000Y-11920000D01*
X20280000Y-12680000D02*
X20320000Y-12720000D01*
X20320000Y-12680000D02*
X20280000Y-12720000D01*
X20280000Y-12880000D02*
X20320000Y-12920000D01*
X20320000Y-12880000D02*
X20280000Y-12920000D01*
X20348128Y-12380000D02*
X20388128Y-12420000D01*
X20388128Y-12380000D02*
X20348128Y-12420000D01*
X20350385Y-12573515D02*
X20390385Y-12613515D01*
X20390385Y-12573515D02*
X20350385Y-12613515D01*
X20380000Y-11880000D02*
X20420000Y-11920000D01*
X20420000Y-11880000D02*
X20380000Y-11920000D01*
X11590000Y-14640000D02*
G75*
G02*
X11540000Y-14640000I-25000J0D01*
G01*
X11540000Y-14640000D02*
G75*
G02*
X11590000Y-14640000I25000J0D01*
G01*
X11540000Y-14587500D02*
X11540000Y-14692500D01*
X11590000Y-14692500D02*
G75*
G02*
X11540000Y-14692500I-25000J0D01*
G01*
X11590000Y-14692500D02*
X11590000Y-14587500D01*
X11590000Y-14587500D02*
G75*
G03*
X11540000Y-14587500I-25000J0D01*
G01*
X12155000Y-14640000D02*
G75*
G02*
X12105000Y-14640000I-25000J0D01*
G01*
X12105000Y-14640000D02*
G75*
G02*
X12155000Y-14640000I25000J0D01*
G01*
X12105000Y-14587500D02*
X12105000Y-14692500D01*
X12155000Y-14692500D02*
G75*
G02*
X12105000Y-14692500I-25000J0D01*
G01*
X12155000Y-14692500D02*
X12155000Y-14587500D01*
X12155000Y-14587500D02*
G75*
G03*
X12105000Y-14587500I-25000J0D01*
G01*
X15864000Y-13671000D02*
X15864000Y-13761000D01*
X15819000Y-13716000D02*
X15909000Y-13716000D01*
X16118000Y-13671000D02*
X16118000Y-13761000D01*
X16073000Y-13716000D02*
X16163000Y-13716000D01*
X16372000Y-13671000D02*
X16372000Y-13761000D01*
X16327000Y-13716000D02*
X16417000Y-13716000D01*
X16764000Y-13671000D02*
X16764000Y-13761000D01*
X16719000Y-13716000D02*
X16809000Y-13716000D01*
X17018000Y-13671000D02*
X17018000Y-13761000D01*
X16973000Y-13716000D02*
X17063000Y-13716000D01*
X17272000Y-13671000D02*
X17272000Y-13761000D01*
X17227000Y-13716000D02*
X17317000Y-13716000D01*
X10957356Y-6893356D02*
X10957356Y-6822644D01*
X10886644Y-6822644D01*
X10886644Y-6893356D01*
X10957356Y-6893356D01*
X10957356Y-7147356D02*
X10957356Y-7076644D01*
X10886644Y-7076644D01*
X10886644Y-7147356D01*
X10957356Y-7147356D01*
X10957356Y-7401356D02*
X10957356Y-7330644D01*
X10886644Y-7330644D01*
X10886644Y-7401356D01*
X10957356Y-7401356D01*
X10957356Y-7655356D02*
X10957356Y-7584644D01*
X10886644Y-7584644D01*
X10886644Y-7655356D01*
X10957356Y-7655356D01*
X10957356Y-7909356D02*
X10957356Y-7838644D01*
X10886644Y-7838644D01*
X10886644Y-7909356D01*
X10957356Y-7909356D01*
X10957356Y-8163356D02*
X10957356Y-8092644D01*
X10886644Y-8092644D01*
X10886644Y-8163356D01*
X10957356Y-8163356D01*
X10957356Y-8417356D02*
X10957356Y-8346644D01*
X10886644Y-8346644D01*
X10886644Y-8417356D01*
X10957356Y-8417356D01*
X10957356Y-8671356D02*
X10957356Y-8600644D01*
X10886644Y-8600644D01*
X10886644Y-8671356D01*
X10957356Y-8671356D01*
X10957356Y-8925356D02*
X10957356Y-8854644D01*
X10886644Y-8854644D01*
X10886644Y-8925356D01*
X10957356Y-8925356D01*
X10957356Y-9179356D02*
X10957356Y-9108644D01*
X10886644Y-9108644D01*
X10886644Y-9179356D01*
X10957356Y-9179356D01*
X10957356Y-9433356D02*
X10957356Y-9362644D01*
X10886644Y-9362644D01*
X10886644Y-9433356D01*
X10957356Y-9433356D01*
X10957356Y-9687356D02*
X10957356Y-9616644D01*
X10886644Y-9616644D01*
X10886644Y-9687356D01*
X10957356Y-9687356D01*
X10957356Y-9941356D02*
X10957356Y-9870644D01*
X10886644Y-9870644D01*
X10886644Y-9941356D01*
X10957356Y-9941356D01*
X10957356Y-10195356D02*
X10957356Y-10124644D01*
X10886644Y-10124644D01*
X10886644Y-10195356D01*
X10957356Y-10195356D01*
X10957356Y-10449356D02*
X10957356Y-10378644D01*
X10886644Y-10378644D01*
X10886644Y-10449356D01*
X10957356Y-10449356D01*
X10957356Y-10703356D02*
X10957356Y-10632644D01*
X10886644Y-10632644D01*
X10886644Y-10703356D01*
X10957356Y-10703356D01*
X10957356Y-10957356D02*
X10957356Y-10886644D01*
X10886644Y-10886644D01*
X10886644Y-10957356D01*
X10957356Y-10957356D01*
X12100356Y-7401356D02*
X12100356Y-7330644D01*
X12029644Y-7330644D01*
X12029644Y-7401356D01*
X12100356Y-7401356D01*
X12354356Y-7401356D02*
X12354356Y-7330644D01*
X12283644Y-7330644D01*
X12283644Y-7401356D01*
X12354356Y-7401356D01*
X12575356Y-13243356D02*
X12575356Y-13172644D01*
X12504644Y-13172644D01*
X12504644Y-13243356D01*
X12575356Y-13243356D01*
X12575356Y-13497356D02*
X12575356Y-13426644D01*
X12504644Y-13426644D01*
X12504644Y-13497356D01*
X12575356Y-13497356D01*
X12575356Y-13751356D02*
X12575356Y-13680644D01*
X12504644Y-13680644D01*
X12504644Y-13751356D01*
X12575356Y-13751356D01*
X12575356Y-14005356D02*
X12575356Y-13934644D01*
X12504644Y-13934644D01*
X12504644Y-14005356D01*
X12575356Y-14005356D01*
X12608356Y-7401356D02*
X12608356Y-7330644D01*
X12537644Y-7330644D01*
X12537644Y-7401356D01*
X12608356Y-7401356D01*
X12862356Y-7401356D02*
X12862356Y-7330644D01*
X12791644Y-7330644D01*
X12791644Y-7401356D01*
X12862356Y-7401356D01*
X12989356Y-10957356D02*
X12989356Y-10886644D01*
X12918644Y-10886644D01*
X12918644Y-10957356D01*
X12989356Y-10957356D01*
X12989356Y-12249856D02*
X12989356Y-12179144D01*
X12918644Y-12179144D01*
X12918644Y-12249856D01*
X12989356Y-12249856D01*
X12989356Y-12503856D02*
X12989356Y-12433144D01*
X12918644Y-12433144D01*
X12918644Y-12503856D01*
X12989356Y-12503856D01*
X12989356Y-12757855D02*
X12989356Y-12687144D01*
X12918644Y-12687144D01*
X12918644Y-12757855D01*
X12989356Y-12757855D01*
X12989356Y-13011856D02*
X12989356Y-12941144D01*
X12918644Y-12941144D01*
X12918644Y-13011856D01*
X12989356Y-13011856D01*
X12989356Y-13265856D02*
X12989356Y-13195144D01*
X12918644Y-13195144D01*
X12918644Y-13265856D01*
X12989356Y-13265856D01*
X12989356Y-13519856D02*
X12989356Y-13449144D01*
X12918644Y-13449144D01*
X12918644Y-13519856D01*
X12989356Y-13519856D01*
X12989356Y-13773856D02*
X12989356Y-13703144D01*
X12918644Y-13703144D01*
X12918644Y-13773856D01*
X12989356Y-13773856D01*
X12989356Y-14027856D02*
X12989356Y-13957144D01*
X12918644Y-13957144D01*
X12918644Y-14027856D01*
X12989356Y-14027856D01*
X13243356Y-10957356D02*
X13243356Y-10886644D01*
X13172644Y-10886644D01*
X13172644Y-10957356D01*
X13243356Y-10957356D01*
X13497356Y-10957356D02*
X13497356Y-10886644D01*
X13426644Y-10886644D01*
X13426644Y-10957356D01*
X13497356Y-10957356D01*
X13751356Y-6385356D02*
X13751356Y-6314644D01*
X13680644Y-6314644D01*
X13680644Y-6385356D01*
X13751356Y-6385356D01*
X13751356Y-6639356D02*
X13751356Y-6568644D01*
X13680644Y-6568644D01*
X13680644Y-6639356D01*
X13751356Y-6639356D01*
X13751356Y-6893356D02*
X13751356Y-6822644D01*
X13680644Y-6822644D01*
X13680644Y-6893356D01*
X13751356Y-6893356D01*
X13751356Y-7147356D02*
X13751356Y-7076644D01*
X13680644Y-7076644D01*
X13680644Y-7147356D01*
X13751356Y-7147356D01*
X13751356Y-7401356D02*
X13751356Y-7330644D01*
X13680644Y-7330644D01*
X13680644Y-7401356D01*
X13751356Y-7401356D01*
X13751356Y-7655356D02*
X13751356Y-7584644D01*
X13680644Y-7584644D01*
X13680644Y-7655356D01*
X13751356Y-7655356D01*
X13751356Y-7909356D02*
X13751356Y-7838644D01*
X13680644Y-7838644D01*
X13680644Y-7909356D01*
X13751356Y-7909356D01*
X13751356Y-8163356D02*
X13751356Y-8092644D01*
X13680644Y-8092644D01*
X13680644Y-8163356D01*
X13751356Y-8163356D01*
X13751356Y-8417356D02*
X13751356Y-8346644D01*
X13680644Y-8346644D01*
X13680644Y-8417356D01*
X13751356Y-8417356D01*
X13751356Y-8671356D02*
X13751356Y-8600644D01*
X13680644Y-8600644D01*
X13680644Y-8671356D01*
X13751356Y-8671356D01*
X13751356Y-8925356D02*
X13751356Y-8854644D01*
X13680644Y-8854644D01*
X13680644Y-8925356D01*
X13751356Y-8925356D01*
X13751356Y-9179356D02*
X13751356Y-9108644D01*
X13680644Y-9108644D01*
X13680644Y-9179356D01*
X13751356Y-9179356D01*
X13751356Y-9433356D02*
X13751356Y-9362644D01*
X13680644Y-9362644D01*
X13680644Y-9433356D01*
X13751356Y-9433356D01*
X13751356Y-10957356D02*
X13751356Y-10886644D01*
X13680644Y-10886644D01*
X13680644Y-10957356D01*
X13751356Y-10957356D01*
X14259356Y-5369356D02*
X14259356Y-5298644D01*
X14188644Y-5298644D01*
X14188644Y-5369356D01*
X14259356Y-5369356D01*
X14259356Y-5623356D02*
X14259356Y-5552644D01*
X14188644Y-5552644D01*
X14188644Y-5623356D01*
X14259356Y-5623356D01*
X14259356Y-5877356D02*
X14259356Y-5806644D01*
X14188644Y-5806644D01*
X14188644Y-5877356D01*
X14259356Y-5877356D01*
X14259356Y-6131356D02*
X14259356Y-6060644D01*
X14188644Y-6060644D01*
X14188644Y-6131356D01*
X14259356Y-6131356D01*
X14259356Y-6639356D02*
X14259356Y-6568644D01*
X14188644Y-6568644D01*
X14188644Y-6639356D01*
X14259356Y-6639356D01*
X14259356Y-6893356D02*
X14259356Y-6822644D01*
X14188644Y-6822644D01*
X14188644Y-6893356D01*
X14259356Y-6893356D01*
X14259356Y-7147356D02*
X14259356Y-7076644D01*
X14188644Y-7076644D01*
X14188644Y-7147356D01*
X14259356Y-7147356D01*
X14259356Y-7401356D02*
X14259356Y-7330644D01*
X14188644Y-7330644D01*
X14188644Y-7401356D01*
X14259356Y-7401356D01*
X14259356Y-7909356D02*
X14259356Y-7838644D01*
X14188644Y-7838644D01*
X14188644Y-7909356D01*
X14259356Y-7909356D01*
X14259356Y-8163356D02*
X14259356Y-8092644D01*
X14188644Y-8092644D01*
X14188644Y-8163356D01*
X14259356Y-8163356D01*
X14259356Y-8417356D02*
X14259356Y-8346644D01*
X14188644Y-8346644D01*
X14188644Y-8417356D01*
X14259356Y-8417356D01*
X14259356Y-8671356D02*
X14259356Y-8600644D01*
X14188644Y-8600644D01*
X14188644Y-8671356D01*
X14259356Y-8671356D01*
X14259356Y-10957356D02*
X14259356Y-10886644D01*
X14188644Y-10886644D01*
X14188644Y-10957356D01*
X14259356Y-10957356D01*
X14513356Y-5369356D02*
X14513356Y-5298644D01*
X14442644Y-5298644D01*
X14442644Y-5369356D01*
X14513356Y-5369356D01*
X14513356Y-5623356D02*
X14513356Y-5552644D01*
X14442644Y-5552644D01*
X14442644Y-5623356D01*
X14513356Y-5623356D01*
X14513356Y-5877356D02*
X14513356Y-5806644D01*
X14442644Y-5806644D01*
X14442644Y-5877356D01*
X14513356Y-5877356D01*
X14513356Y-6131356D02*
X14513356Y-6060644D01*
X14442644Y-6060644D01*
X14442644Y-6131356D01*
X14513356Y-6131356D01*
X14513356Y-6639356D02*
X14513356Y-6568644D01*
X14442644Y-6568644D01*
X14442644Y-6639356D01*
X14513356Y-6639356D01*
X14513356Y-6893356D02*
X14513356Y-6822644D01*
X14442644Y-6822644D01*
X14442644Y-6893356D01*
X14513356Y-6893356D01*
X14513356Y-7147356D02*
X14513356Y-7076644D01*
X14442644Y-7076644D01*
X14442644Y-7147356D01*
X14513356Y-7147356D01*
X14513356Y-7401356D02*
X14513356Y-7330644D01*
X14442644Y-7330644D01*
X14442644Y-7401356D01*
X14513356Y-7401356D01*
X14513356Y-7909356D02*
X14513356Y-7838644D01*
X14442644Y-7838644D01*
X14442644Y-7909356D01*
X14513356Y-7909356D01*
X14513356Y-8163356D02*
X14513356Y-8092644D01*
X14442644Y-8092644D01*
X14442644Y-8163356D01*
X14513356Y-8163356D01*
X14513356Y-8417356D02*
X14513356Y-8346644D01*
X14442644Y-8346644D01*
X14442644Y-8417356D01*
X14513356Y-8417356D01*
X14513356Y-8671356D02*
X14513356Y-8600644D01*
X14442644Y-8600644D01*
X14442644Y-8671356D01*
X14513356Y-8671356D01*
X14513356Y-10957356D02*
X14513356Y-10886644D01*
X14442644Y-10886644D01*
X14442644Y-10957356D01*
X14513356Y-10957356D01*
X14767356Y-10957356D02*
X14767356Y-10886644D01*
X14696644Y-10886644D01*
X14696644Y-10957356D01*
X14767356Y-10957356D01*
X15005356Y-8417356D02*
X15005356Y-8346644D01*
X14934644Y-8346644D01*
X14934644Y-8417356D01*
X15005356Y-8417356D01*
X15005356Y-8671356D02*
X15005356Y-8600644D01*
X14934644Y-8600644D01*
X14934644Y-8671356D01*
X15005356Y-8671356D01*
X15021356Y-10957356D02*
X15021356Y-10886644D01*
X14950644Y-10886644D01*
X14950644Y-10957356D01*
X15021356Y-10957356D01*
X15275356Y-5623356D02*
X15275356Y-5552644D01*
X15204644Y-5552644D01*
X15204644Y-5623356D01*
X15275356Y-5623356D01*
X15275356Y-5877356D02*
X15275356Y-5806644D01*
X15204644Y-5806644D01*
X15204644Y-5877356D01*
X15275356Y-5877356D01*
X15275356Y-6131356D02*
X15275356Y-6060644D01*
X15204644Y-6060644D01*
X15204644Y-6131356D01*
X15275356Y-6131356D01*
X15275356Y-6385356D02*
X15275356Y-6314644D01*
X15204644Y-6314644D01*
X15204644Y-6385356D01*
X15275356Y-6385356D01*
X15275356Y-6639356D02*
X15275356Y-6568644D01*
X15204644Y-6568644D01*
X15204644Y-6639356D01*
X15275356Y-6639356D01*
X15275356Y-6893356D02*
X15275356Y-6822644D01*
X15204644Y-6822644D01*
X15204644Y-6893356D01*
X15275356Y-6893356D01*
X15275356Y-7147356D02*
X15275356Y-7076644D01*
X15204644Y-7076644D01*
X15204644Y-7147356D01*
X15275356Y-7147356D01*
X15275356Y-7401356D02*
X15275356Y-7330644D01*
X15204644Y-7330644D01*
X15204644Y-7401356D01*
X15275356Y-7401356D01*
X15275356Y-10957356D02*
X15275356Y-10886644D01*
X15204644Y-10886644D01*
X15204644Y-10957356D01*
X15275356Y-10957356D01*
X15275356Y-12249856D02*
X15275356Y-12179144D01*
X15204644Y-12179144D01*
X15204644Y-12249856D01*
X15275356Y-12249856D01*
X15275356Y-12503856D02*
X15275356Y-12433144D01*
X15204644Y-12433144D01*
X15204644Y-12503856D01*
X15275356Y-12503856D01*
X15275356Y-12757855D02*
X15275356Y-12687144D01*
X15204644Y-12687144D01*
X15204644Y-12757855D01*
X15275356Y-12757855D01*
X15275356Y-13011856D02*
X15275356Y-12941144D01*
X15204644Y-12941144D01*
X15204644Y-13011856D01*
X15275356Y-13011856D01*
X15275356Y-13265856D02*
X15275356Y-13195144D01*
X15204644Y-13195144D01*
X15204644Y-13265856D01*
X15275356Y-13265856D01*
X15275356Y-13519856D02*
X15275356Y-13449144D01*
X15204644Y-13449144D01*
X15204644Y-13519856D01*
X15275356Y-13519856D01*
X15275356Y-13773856D02*
X15275356Y-13703144D01*
X15204644Y-13703144D01*
X15204644Y-13773856D01*
X15275356Y-13773856D01*
X15275356Y-14027856D02*
X15275356Y-13957144D01*
X15204644Y-13957144D01*
X15204644Y-14027856D01*
X15275356Y-14027856D01*
X15529356Y-5623356D02*
X15529356Y-5552644D01*
X15458644Y-5552644D01*
X15458644Y-5623356D01*
X15529356Y-5623356D01*
X15529356Y-5877356D02*
X15529356Y-5806644D01*
X15458644Y-5806644D01*
X15458644Y-5877356D01*
X15529356Y-5877356D01*
X15529356Y-6131356D02*
X15529356Y-6060644D01*
X15458644Y-6060644D01*
X15458644Y-6131356D01*
X15529356Y-6131356D01*
X15529356Y-6385356D02*
X15529356Y-6314644D01*
X15458644Y-6314644D01*
X15458644Y-6385356D01*
X15529356Y-6385356D01*
X15529356Y-6639356D02*
X15529356Y-6568644D01*
X15458644Y-6568644D01*
X15458644Y-6639356D01*
X15529356Y-6639356D01*
X15529356Y-6893356D02*
X15529356Y-6822644D01*
X15458644Y-6822644D01*
X15458644Y-6893356D01*
X15529356Y-6893356D01*
X15529356Y-7147356D02*
X15529356Y-7076644D01*
X15458644Y-7076644D01*
X15458644Y-7147356D01*
X15529356Y-7147356D01*
X15529356Y-7401356D02*
X15529356Y-7330644D01*
X15458644Y-7330644D01*
X15458644Y-7401356D01*
X15529356Y-7401356D01*
X16037356Y-11973356D02*
X16037356Y-11902644D01*
X15966644Y-11902644D01*
X15966644Y-11973356D01*
X16037356Y-11973356D01*
X16037356Y-12227356D02*
X16037356Y-12156644D01*
X15966644Y-12156644D01*
X15966644Y-12227356D01*
X16037356Y-12227356D01*
X16291356Y-5623356D02*
X16291356Y-5552644D01*
X16220644Y-5552644D01*
X16220644Y-5623356D01*
X16291356Y-5623356D01*
X16291356Y-5877356D02*
X16291356Y-5806644D01*
X16220644Y-5806644D01*
X16220644Y-5877356D01*
X16291356Y-5877356D01*
X16291356Y-6131356D02*
X16291356Y-6060644D01*
X16220644Y-6060644D01*
X16220644Y-6131356D01*
X16291356Y-6131356D01*
X16291356Y-6385356D02*
X16291356Y-6314644D01*
X16220644Y-6314644D01*
X16220644Y-6385356D01*
X16291356Y-6385356D01*
X16291356Y-6639356D02*
X16291356Y-6568644D01*
X16220644Y-6568644D01*
X16220644Y-6639356D01*
X16291356Y-6639356D01*
X16291356Y-6893356D02*
X16291356Y-6822644D01*
X16220644Y-6822644D01*
X16220644Y-6893356D01*
X16291356Y-6893356D01*
X16291356Y-7147356D02*
X16291356Y-7076644D01*
X16220644Y-7076644D01*
X16220644Y-7147356D01*
X16291356Y-7147356D01*
X16291356Y-7401356D02*
X16291356Y-7330644D01*
X16220644Y-7330644D01*
X16220644Y-7401356D01*
X16291356Y-7401356D01*
X16291356Y-11973356D02*
X16291356Y-11902644D01*
X16220644Y-11902644D01*
X16220644Y-11973356D01*
X16291356Y-11973356D01*
X16291356Y-12227356D02*
X16291356Y-12156644D01*
X16220644Y-12156644D01*
X16220644Y-12227356D01*
X16291356Y-12227356D01*
X16545356Y-5623356D02*
X16545356Y-5552644D01*
X16474644Y-5552644D01*
X16474644Y-5623356D01*
X16545356Y-5623356D01*
X16545356Y-5877356D02*
X16545356Y-5806644D01*
X16474644Y-5806644D01*
X16474644Y-5877356D01*
X16545356Y-5877356D01*
X16545356Y-6131356D02*
X16545356Y-6060644D01*
X16474644Y-6060644D01*
X16474644Y-6131356D01*
X16545356Y-6131356D01*
X16545356Y-6385356D02*
X16545356Y-6314644D01*
X16474644Y-6314644D01*
X16474644Y-6385356D01*
X16545356Y-6385356D01*
X16545356Y-6639356D02*
X16545356Y-6568644D01*
X16474644Y-6568644D01*
X16474644Y-6639356D01*
X16545356Y-6639356D01*
X16545356Y-6893356D02*
X16545356Y-6822644D01*
X16474644Y-6822644D01*
X16474644Y-6893356D01*
X16545356Y-6893356D01*
X16545356Y-7147356D02*
X16545356Y-7076644D01*
X16474644Y-7076644D01*
X16474644Y-7147356D01*
X16545356Y-7147356D01*
X16545356Y-7401356D02*
X16545356Y-7330644D01*
X16474644Y-7330644D01*
X16474644Y-7401356D01*
X16545356Y-7401356D01*
X16545356Y-11973356D02*
X16545356Y-11902644D01*
X16474644Y-11902644D01*
X16474644Y-11973356D01*
X16545356Y-11973356D01*
X16545356Y-12227356D02*
X16545356Y-12156644D01*
X16474644Y-12156644D01*
X16474644Y-12227356D01*
X16545356Y-12227356D01*
X16799356Y-12227356D02*
X16799356Y-12156644D01*
X16728644Y-12156644D01*
X16728644Y-12227356D01*
X16799356Y-12227356D01*
X16799356Y-11973356D02*
X16799356Y-11902644D01*
X16728644Y-11902644D01*
X16728644Y-11973356D01*
X16799356Y-11973356D01*
X17053356Y-11973356D02*
X17053356Y-11902644D01*
X16982644Y-11902644D01*
X16982644Y-11973356D01*
X17053356Y-11973356D01*
X17053356Y-12227356D02*
X17053356Y-12156644D01*
X16982644Y-12156644D01*
X16982644Y-12227356D01*
X17053356Y-12227356D01*
X17307356Y-5623356D02*
X17307356Y-5552644D01*
X17236644Y-5552644D01*
X17236644Y-5623356D01*
X17307356Y-5623356D01*
X17307356Y-5877356D02*
X17307356Y-5806644D01*
X17236644Y-5806644D01*
X17236644Y-5877356D01*
X17307356Y-5877356D01*
X17307356Y-6131356D02*
X17307356Y-6060644D01*
X17236644Y-6060644D01*
X17236644Y-6131356D01*
X17307356Y-6131356D01*
X17307356Y-6385356D02*
X17307356Y-6314644D01*
X17236644Y-6314644D01*
X17236644Y-6385356D01*
X17307356Y-6385356D01*
X17307356Y-6639356D02*
X17307356Y-6568644D01*
X17236644Y-6568644D01*
X17236644Y-6639356D01*
X17307356Y-6639356D01*
X17307356Y-6893356D02*
X17307356Y-6822644D01*
X17236644Y-6822644D01*
X17236644Y-6893356D01*
X17307356Y-6893356D01*
X17307356Y-7147356D02*
X17307356Y-7076644D01*
X17236644Y-7076644D01*
X17236644Y-7147356D01*
X17307356Y-7147356D01*
X17307356Y-7401356D02*
X17307356Y-7330644D01*
X17236644Y-7330644D01*
X17236644Y-7401356D01*
X17307356Y-7401356D01*
X17307356Y-11973356D02*
X17307356Y-11902644D01*
X17236644Y-11902644D01*
X17236644Y-11973356D01*
X17307356Y-11973356D01*
X17307356Y-12227356D02*
X17307356Y-12156644D01*
X17236644Y-12156644D01*
X17236644Y-12227356D01*
X17307356Y-12227356D01*
X17561356Y-5623356D02*
X17561356Y-5552644D01*
X17490644Y-5552644D01*
X17490644Y-5623356D01*
X17561356Y-5623356D01*
X17561356Y-5877356D02*
X17561356Y-5806644D01*
X17490644Y-5806644D01*
X17490644Y-5877356D01*
X17561356Y-5877356D01*
X17561356Y-6131356D02*
X17561356Y-6060644D01*
X17490644Y-6060644D01*
X17490644Y-6131356D01*
X17561356Y-6131356D01*
X17561356Y-6385356D02*
X17561356Y-6314644D01*
X17490644Y-6314644D01*
X17490644Y-6385356D01*
X17561356Y-6385356D01*
X17561356Y-6639356D02*
X17561356Y-6568644D01*
X17490644Y-6568644D01*
X17490644Y-6639356D01*
X17561356Y-6639356D01*
X17561356Y-6893356D02*
X17561356Y-6822644D01*
X17490644Y-6822644D01*
X17490644Y-6893356D01*
X17561356Y-6893356D01*
X17561356Y-7147356D02*
X17561356Y-7076644D01*
X17490644Y-7076644D01*
X17490644Y-7147356D01*
X17561356Y-7147356D01*
X17561356Y-7401356D02*
X17561356Y-7330644D01*
X17490644Y-7330644D01*
X17490644Y-7401356D01*
X17561356Y-7401356D01*
X18125356Y-13825356D02*
X18125356Y-13754644D01*
X18054644Y-13754644D01*
X18054644Y-13825356D01*
X18125356Y-13825356D01*
X17990000Y-13840000D02*
X18190000Y-13840000D01*
X18190000Y-13740000D02*
G75*
G02*
X18190000Y-13840000I0J-50000D01*
G01*
X18190000Y-13740000D02*
X17990000Y-13740000D01*
X17990000Y-13740000D02*
G75*
G03*
X17990000Y-13840000I0J-50000D01*
G01*
X18125356Y-14425356D02*
X18125356Y-14354644D01*
X18054644Y-14354644D01*
X18054644Y-14425356D01*
X18125356Y-14425356D01*
X17990000Y-14440000D02*
X18190000Y-14440000D01*
X18190000Y-14340000D02*
G75*
G02*
X18190000Y-14440000I0J-50000D01*
G01*
X18190000Y-14340000D02*
X17990000Y-14340000D01*
X17990000Y-14340000D02*
G75*
G03*
X17990000Y-14440000I0J-50000D01*
G01*
X18323356Y-5623356D02*
X18323356Y-5552644D01*
X18252644Y-5552644D01*
X18252644Y-5623356D01*
X18323356Y-5623356D01*
X18323356Y-5877356D02*
X18323356Y-5806644D01*
X18252644Y-5806644D01*
X18252644Y-5877356D01*
X18323356Y-5877356D01*
X18323356Y-6131356D02*
X18323356Y-6060644D01*
X18252644Y-6060644D01*
X18252644Y-6131356D01*
X18323356Y-6131356D01*
X18323356Y-6385356D02*
X18323356Y-6314644D01*
X18252644Y-6314644D01*
X18252644Y-6385356D01*
X18323356Y-6385356D01*
X18323356Y-6639356D02*
X18323356Y-6568644D01*
X18252644Y-6568644D01*
X18252644Y-6639356D01*
X18323356Y-6639356D01*
X18323356Y-6893356D02*
X18323356Y-6822644D01*
X18252644Y-6822644D01*
X18252644Y-6893356D01*
X18323356Y-6893356D01*
X18323356Y-7147356D02*
X18323356Y-7076644D01*
X18252644Y-7076644D01*
X18252644Y-7147356D01*
X18323356Y-7147356D01*
X18323356Y-7401356D02*
X18323356Y-7330644D01*
X18252644Y-7330644D01*
X18252644Y-7401356D01*
X18323356Y-7401356D01*
X18577356Y-5623356D02*
X18577356Y-5552644D01*
X18506644Y-5552644D01*
X18506644Y-5623356D01*
X18577356Y-5623356D01*
X18577356Y-5877356D02*
X18577356Y-5806644D01*
X18506644Y-5806644D01*
X18506644Y-5877356D01*
X18577356Y-5877356D01*
X18577356Y-6131356D02*
X18577356Y-6060644D01*
X18506644Y-6060644D01*
X18506644Y-6131356D01*
X18577356Y-6131356D01*
X18577356Y-6385356D02*
X18577356Y-6314644D01*
X18506644Y-6314644D01*
X18506644Y-6385356D01*
X18577356Y-6385356D01*
X18577356Y-6639356D02*
X18577356Y-6568644D01*
X18506644Y-6568644D01*
X18506644Y-6639356D01*
X18577356Y-6639356D01*
X18577356Y-6893356D02*
X18577356Y-6822644D01*
X18506644Y-6822644D01*
X18506644Y-6893356D01*
X18577356Y-6893356D01*
X18577356Y-7147356D02*
X18577356Y-7076644D01*
X18506644Y-7076644D01*
X18506644Y-7147356D01*
X18577356Y-7147356D01*
X18577356Y-7401356D02*
X18577356Y-7330644D01*
X18506644Y-7330644D01*
X18506644Y-7401356D01*
X18577356Y-7401356D01*
X18595356Y-14125356D02*
X18595356Y-14054644D01*
X18524644Y-14054644D01*
X18524644Y-14125356D01*
X18595356Y-14125356D01*
X18610000Y-14190000D02*
X18610000Y-13990000D01*
X18510000Y-13990000D02*
G75*
G02*
X18610000Y-13990000I50000J0D01*
G01*
X18510000Y-13990000D02*
X18510000Y-14190000D01*
X18510000Y-14190000D02*
G75*
G03*
X18610000Y-14190000I50000J0D01*
G01*
X19339356Y-5623356D02*
X19339356Y-5552644D01*
X19268644Y-5552644D01*
X19268644Y-5623356D01*
X19339356Y-5623356D01*
X19339356Y-5877356D02*
X19339356Y-5806644D01*
X19268644Y-5806644D01*
X19268644Y-5877356D01*
X19339356Y-5877356D01*
X19339356Y-6131356D02*
X19339356Y-6060644D01*
X19268644Y-6060644D01*
X19268644Y-6131356D01*
X19339356Y-6131356D01*
X19339356Y-6385356D02*
X19339356Y-6314644D01*
X19268644Y-6314644D01*
X19268644Y-6385356D01*
X19339356Y-6385356D01*
X19339356Y-6639356D02*
X19339356Y-6568644D01*
X19268644Y-6568644D01*
X19268644Y-6639356D01*
X19339356Y-6639356D01*
X19339356Y-6893356D02*
X19339356Y-6822644D01*
X19268644Y-6822644D01*
X19268644Y-6893356D01*
X19339356Y-6893356D01*
X19339356Y-7147356D02*
X19339356Y-7076644D01*
X19268644Y-7076644D01*
X19268644Y-7147356D01*
X19339356Y-7147356D01*
X19339356Y-7401356D02*
X19339356Y-7330644D01*
X19268644Y-7330644D01*
X19268644Y-7401356D01*
X19339356Y-7401356D01*
X19593356Y-5623356D02*
X19593356Y-5552644D01*
X19522644Y-5552644D01*
X19522644Y-5623356D01*
X19593356Y-5623356D01*
X19593356Y-5877356D02*
X19593356Y-5806644D01*
X19522644Y-5806644D01*
X19522644Y-5877356D01*
X19593356Y-5877356D01*
X19593356Y-6131356D02*
X19593356Y-6060644D01*
X19522644Y-6060644D01*
X19522644Y-6131356D01*
X19593356Y-6131356D01*
X19593356Y-6385356D02*
X19593356Y-6314644D01*
X19522644Y-6314644D01*
X19522644Y-6385356D01*
X19593356Y-6385356D01*
X19593356Y-6639356D02*
X19593356Y-6568644D01*
X19522644Y-6568644D01*
X19522644Y-6639356D01*
X19593356Y-6639356D01*
X19593356Y-6893356D02*
X19593356Y-6822644D01*
X19522644Y-6822644D01*
X19522644Y-6893356D01*
X19593356Y-6893356D01*
X19593356Y-7147356D02*
X19593356Y-7076644D01*
X19522644Y-7076644D01*
X19522644Y-7147356D01*
X19593356Y-7147356D01*
X19593356Y-7401356D02*
X19593356Y-7330644D01*
X19522644Y-7330644D01*
X19522644Y-7401356D01*
X19593356Y-7401356D01*
X19593356Y-11211356D02*
X19593356Y-11140644D01*
X19522644Y-11140644D01*
X19522644Y-11211356D01*
X19593356Y-11211356D01*
X19593356Y-11719356D02*
X19593356Y-11648644D01*
X19522644Y-11648644D01*
X19522644Y-11719356D01*
X19593356Y-11719356D01*
X19593356Y-11973356D02*
X19593356Y-11902644D01*
X19522644Y-11902644D01*
X19522644Y-11973356D01*
X19593356Y-11973356D01*
X19593356Y-12227356D02*
X19593356Y-12156644D01*
X19522644Y-12156644D01*
X19522644Y-12227356D01*
X19593356Y-12227356D01*
X19847356Y-8163356D02*
X19847356Y-8092644D01*
X19776644Y-8092644D01*
X19776644Y-8163356D01*
X19847356Y-8163356D01*
X19847356Y-8417356D02*
X19847356Y-8346644D01*
X19776644Y-8346644D01*
X19776644Y-8417356D01*
X19847356Y-8417356D01*
X19847356Y-8671356D02*
X19847356Y-8600644D01*
X19776644Y-8600644D01*
X19776644Y-8671356D01*
X19847356Y-8671356D01*
X19847356Y-11211356D02*
X19847356Y-11140644D01*
X19776644Y-11140644D01*
X19776644Y-11211356D01*
X19847356Y-11211356D01*
X19847356Y-11719356D02*
X19847356Y-11648644D01*
X19776644Y-11648644D01*
X19776644Y-11719356D01*
X19847356Y-11719356D01*
X19847356Y-11973356D02*
X19847356Y-11902644D01*
X19776644Y-11902644D01*
X19776644Y-11973356D01*
X19847356Y-11973356D01*
X19847356Y-12227356D02*
X19847356Y-12156644D01*
X19776644Y-12156644D01*
X19776644Y-12227356D01*
X19847356Y-12227356D01*
D12*
X13970000Y-9961000D02*
X14025000Y-9906000D01*
X13970000Y-9851000D01*
X13915000Y-9906000D01*
X13970000Y-9961000D01*
X13970000Y-10411000D02*
X14025000Y-10356000D01*
X13970000Y-10301000D01*
X13915000Y-10356000D01*
X13970000Y-10411000D01*
X14620000Y-9961000D02*
X14675000Y-9906000D01*
X14620000Y-9851000D01*
X14565000Y-9906000D01*
X14620000Y-9961000D01*
X14620000Y-10411000D02*
X14675000Y-10356000D01*
X14620000Y-10301000D01*
X14565000Y-10356000D01*
X14620000Y-10411000D01*
D13*
X16312000Y-13919000D02*
X16432000Y-14039000D01*
X16432000Y-13919000D02*
X16312000Y-14039000D01*
X16432000Y-13979000D02*
G75*
G02*
X16312000Y-13979000I-60000J0D01*
G01*
X16312000Y-13979000D02*
G75*
G02*
X16432000Y-13979000I60000J0D01*
G01*
X16704000Y-13919000D02*
X16824000Y-14039000D01*
X16824000Y-13919000D02*
X16704000Y-14039000D01*
X16824000Y-13979000D02*
G75*
G02*
X16704000Y-13979000I-60000J0D01*
G01*
X16704000Y-13979000D02*
G75*
G02*
X16824000Y-13979000I60000J0D01*
G01*
X17212000Y-13919000D02*
X17332000Y-14039000D01*
X17332000Y-13919000D02*
X17212000Y-14039000D01*
X17332000Y-13979000D02*
G75*
G02*
X17212000Y-13979000I-60000J0D01*
G01*
X17212000Y-13979000D02*
G75*
G02*
X17332000Y-13979000I60000J0D01*
G01*
X18990000Y-14418000D02*
X19110000Y-14538000D01*
X19110000Y-14418000D02*
X18990000Y-14538000D01*
X19110000Y-14478000D02*
G75*
G02*
X18990000Y-14478000I-60000J0D01*
G01*
X18990000Y-14478000D02*
G75*
G02*
X19110000Y-14478000I60000J0D01*
G01*
X19490000Y-14418000D02*
X19610000Y-14538000D01*
X19610000Y-14418000D02*
X19490000Y-14538000D01*
X19610000Y-14478000D02*
G75*
G02*
X19490000Y-14478000I-60000J0D01*
G01*
X19490000Y-14478000D02*
G75*
G02*
X19610000Y-14478000I60000J0D01*
G01*
D14*
X15794000Y-13909000D02*
X15934000Y-14049000D01*
X15934000Y-13909000D02*
X15794000Y-14049000D01*
X15864000Y-13909000D02*
X15864000Y-14049000D01*
X15794000Y-13979000D02*
X15934000Y-13979000D01*
D11*
X10855777Y-15116484D02*
X10855777Y-14916484D01*
X10855777Y-14916484D02*
X10903396Y-14916484D01*
X10903396Y-14916484D02*
X10931967Y-14926008D01*
X10931967Y-14926008D02*
X10951015Y-14945055D01*
X10951015Y-14945055D02*
X10960539Y-14964103D01*
X10960539Y-14964103D02*
X10970063Y-15002198D01*
X10970063Y-15002198D02*
X10970063Y-15030769D01*
X10970063Y-15030769D02*
X10960539Y-15068865D01*
X10960539Y-15068865D02*
X10951015Y-15087912D01*
X10951015Y-15087912D02*
X10931967Y-15106960D01*
X10931967Y-15106960D02*
X10903396Y-15116484D01*
X10903396Y-15116484D02*
X10855777Y-15116484D01*
X11055777Y-15116484D02*
X11055777Y-14983150D01*
X11055777Y-15021246D02*
X11065301Y-15002198D01*
X11065301Y-15002198D02*
X11074824Y-14992674D01*
X11074824Y-14992674D02*
X11093872Y-14983150D01*
X11093872Y-14983150D02*
X11112920Y-14983150D01*
X11179586Y-15116484D02*
X11179586Y-14983150D01*
X11179586Y-14916484D02*
X11170063Y-14926008D01*
X11170063Y-14926008D02*
X11179586Y-14935531D01*
X11179586Y-14935531D02*
X11189110Y-14926008D01*
X11189110Y-14926008D02*
X11179586Y-14916484D01*
X11179586Y-14916484D02*
X11179586Y-14935531D01*
X11303396Y-15116484D02*
X11284348Y-15106960D01*
X11284348Y-15106960D02*
X11274824Y-15087912D01*
X11274824Y-15087912D02*
X11274824Y-14916484D01*
X11408158Y-15116484D02*
X11389110Y-15106960D01*
X11389110Y-15106960D02*
X11379586Y-15087912D01*
X11379586Y-15087912D02*
X11379586Y-14916484D01*
X11636729Y-15116484D02*
X11636729Y-14916484D01*
X11636729Y-14916484D02*
X11703396Y-15059341D01*
X11703396Y-15059341D02*
X11770062Y-14916484D01*
X11770062Y-14916484D02*
X11770062Y-15116484D01*
X11951015Y-15116484D02*
X11951015Y-15011722D01*
X11951015Y-15011722D02*
X11941491Y-14992674D01*
X11941491Y-14992674D02*
X11922443Y-14983150D01*
X11922443Y-14983150D02*
X11884348Y-14983150D01*
X11884348Y-14983150D02*
X11865301Y-14992674D01*
X11951015Y-15106960D02*
X11931967Y-15116484D01*
X11931967Y-15116484D02*
X11884348Y-15116484D01*
X11884348Y-15116484D02*
X11865301Y-15106960D01*
X11865301Y-15106960D02*
X11855777Y-15087912D01*
X11855777Y-15087912D02*
X11855777Y-15068865D01*
X11855777Y-15068865D02*
X11865301Y-15049817D01*
X11865301Y-15049817D02*
X11884348Y-15040293D01*
X11884348Y-15040293D02*
X11931967Y-15040293D01*
X11931967Y-15040293D02*
X11951015Y-15030769D01*
X12046253Y-14983150D02*
X12046253Y-15183150D01*
X12046253Y-14992674D02*
X12065301Y-14983150D01*
X12065301Y-14983150D02*
X12103396Y-14983150D01*
X12103396Y-14983150D02*
X12122443Y-14992674D01*
X12122443Y-14992674D02*
X12131967Y-15002198D01*
X12131967Y-15002198D02*
X12141491Y-15021246D01*
X12141491Y-15021246D02*
X12141491Y-15078388D01*
X12141491Y-15078388D02*
X12131967Y-15097436D01*
X12131967Y-15097436D02*
X12122443Y-15106960D01*
X12122443Y-15106960D02*
X12103396Y-15116484D01*
X12103396Y-15116484D02*
X12065301Y-15116484D01*
X12065301Y-15116484D02*
X12046253Y-15106960D01*
X12227205Y-15097436D02*
X12236729Y-15106960D01*
X12236729Y-15106960D02*
X12227205Y-15116484D01*
X12227205Y-15116484D02*
X12217682Y-15106960D01*
X12217682Y-15106960D02*
X12227205Y-15097436D01*
X12227205Y-15097436D02*
X12227205Y-15116484D01*
X12227205Y-14992674D02*
X12236729Y-15002198D01*
X12236729Y-15002198D02*
X12227205Y-15011722D01*
X12227205Y-15011722D02*
X12217682Y-15002198D01*
X12217682Y-15002198D02*
X12227205Y-14992674D01*
X12227205Y-14992674D02*
X12227205Y-15011722D01*
D10*
X10555000Y-15425000D02*
X10595000Y-15465000D01*
X10595000Y-15425000D02*
X10555000Y-15465000D01*
D11*
X10893872Y-15336484D02*
X10912920Y-15336484D01*
X10912920Y-15336484D02*
X10931967Y-15346008D01*
X10931967Y-15346008D02*
X10941491Y-15355531D01*
X10941491Y-15355531D02*
X10951015Y-15374579D01*
X10951015Y-15374579D02*
X10960539Y-15412674D01*
X10960539Y-15412674D02*
X10960539Y-15460293D01*
X10960539Y-15460293D02*
X10951015Y-15498388D01*
X10951015Y-15498388D02*
X10941491Y-15517436D01*
X10941491Y-15517436D02*
X10931967Y-15526960D01*
X10931967Y-15526960D02*
X10912920Y-15536484D01*
X10912920Y-15536484D02*
X10893872Y-15536484D01*
X10893872Y-15536484D02*
X10874824Y-15526960D01*
X10874824Y-15526960D02*
X10865301Y-15517436D01*
X10865301Y-15517436D02*
X10855777Y-15498388D01*
X10855777Y-15498388D02*
X10846253Y-15460293D01*
X10846253Y-15460293D02*
X10846253Y-15412674D01*
X10846253Y-15412674D02*
X10855777Y-15374579D01*
X10855777Y-15374579D02*
X10865301Y-15355531D01*
X10865301Y-15355531D02*
X10874824Y-15346008D01*
X10874824Y-15346008D02*
X10893872Y-15336484D01*
X11046253Y-15517436D02*
X11055777Y-15526960D01*
X11055777Y-15526960D02*
X11046253Y-15536484D01*
X11046253Y-15536484D02*
X11036729Y-15526960D01*
X11036729Y-15526960D02*
X11046253Y-15517436D01*
X11046253Y-15517436D02*
X11046253Y-15536484D01*
X11227205Y-15403150D02*
X11227205Y-15536484D01*
X11179586Y-15326960D02*
X11131967Y-15469817D01*
X11131967Y-15469817D02*
X11255777Y-15469817D01*
X11370062Y-15336484D02*
X11389110Y-15336484D01*
X11389110Y-15336484D02*
X11408158Y-15346008D01*
X11408158Y-15346008D02*
X11417682Y-15355531D01*
X11417682Y-15355531D02*
X11427205Y-15374579D01*
X11427205Y-15374579D02*
X11436729Y-15412674D01*
X11436729Y-15412674D02*
X11436729Y-15460293D01*
X11436729Y-15460293D02*
X11427205Y-15498388D01*
X11427205Y-15498388D02*
X11417682Y-15517436D01*
X11417682Y-15517436D02*
X11408158Y-15526960D01*
X11408158Y-15526960D02*
X11389110Y-15536484D01*
X11389110Y-15536484D02*
X11370062Y-15536484D01*
X11370062Y-15536484D02*
X11351015Y-15526960D01*
X11351015Y-15526960D02*
X11341491Y-15517436D01*
X11341491Y-15517436D02*
X11331967Y-15498388D01*
X11331967Y-15498388D02*
X11322443Y-15460293D01*
X11322443Y-15460293D02*
X11322443Y-15412674D01*
X11322443Y-15412674D02*
X11331967Y-15374579D01*
X11331967Y-15374579D02*
X11341491Y-15355531D01*
X11341491Y-15355531D02*
X11351015Y-15346008D01*
X11351015Y-15346008D02*
X11370062Y-15336484D01*
X11560539Y-15336484D02*
X11579586Y-15336484D01*
X11579586Y-15336484D02*
X11598634Y-15346008D01*
X11598634Y-15346008D02*
X11608158Y-15355531D01*
X11608158Y-15355531D02*
X11617682Y-15374579D01*
X11617682Y-15374579D02*
X11627205Y-15412674D01*
X11627205Y-15412674D02*
X11627205Y-15460293D01*
X11627205Y-15460293D02*
X11617682Y-15498388D01*
X11617682Y-15498388D02*
X11608158Y-15517436D01*
X11608158Y-15517436D02*
X11598634Y-15526960D01*
X11598634Y-15526960D02*
X11579586Y-15536484D01*
X11579586Y-15536484D02*
X11560539Y-15536484D01*
X11560539Y-15536484D02*
X11541491Y-15526960D01*
X11541491Y-15526960D02*
X11531967Y-15517436D01*
X11531967Y-15517436D02*
X11522443Y-15498388D01*
X11522443Y-15498388D02*
X11512920Y-15460293D01*
X11512920Y-15460293D02*
X11512920Y-15412674D01*
X11512920Y-15412674D02*
X11522443Y-15374579D01*
X11522443Y-15374579D02*
X11531967Y-15355531D01*
X11531967Y-15355531D02*
X11541491Y-15346008D01*
X11541491Y-15346008D02*
X11560539Y-15336484D01*
X11712920Y-15536484D02*
X11712920Y-15403150D01*
X11712920Y-15422198D02*
X11722443Y-15412674D01*
X11722443Y-15412674D02*
X11741491Y-15403150D01*
X11741491Y-15403150D02*
X11770063Y-15403150D01*
X11770063Y-15403150D02*
X11789110Y-15412674D01*
X11789110Y-15412674D02*
X11798634Y-15431722D01*
X11798634Y-15431722D02*
X11798634Y-15536484D01*
X11798634Y-15431722D02*
X11808158Y-15412674D01*
X11808158Y-15412674D02*
X11827205Y-15403150D01*
X11827205Y-15403150D02*
X11855777Y-15403150D01*
X11855777Y-15403150D02*
X11874824Y-15412674D01*
X11874824Y-15412674D02*
X11884348Y-15431722D01*
X11884348Y-15431722D02*
X11884348Y-15536484D01*
X11979586Y-15536484D02*
X11979586Y-15403150D01*
X11979586Y-15422198D02*
X11989110Y-15412674D01*
X11989110Y-15412674D02*
X12008158Y-15403150D01*
X12008158Y-15403150D02*
X12036729Y-15403150D01*
X12036729Y-15403150D02*
X12055777Y-15412674D01*
X12055777Y-15412674D02*
X12065301Y-15431722D01*
X12065301Y-15431722D02*
X12065301Y-15536484D01*
X12065301Y-15431722D02*
X12074824Y-15412674D01*
X12074824Y-15412674D02*
X12093872Y-15403150D01*
X12093872Y-15403150D02*
X12122443Y-15403150D01*
X12122443Y-15403150D02*
X12141491Y-15412674D01*
X12141491Y-15412674D02*
X12151015Y-15431722D01*
X12151015Y-15431722D02*
X12151015Y-15536484D01*
X12541491Y-15326960D02*
X12370063Y-15584103D01*
X12798634Y-15336484D02*
X12817682Y-15336484D01*
X12817682Y-15336484D02*
X12836729Y-15346008D01*
X12836729Y-15346008D02*
X12846253Y-15355531D01*
X12846253Y-15355531D02*
X12855777Y-15374579D01*
X12855777Y-15374579D02*
X12865301Y-15412674D01*
X12865301Y-15412674D02*
X12865301Y-15460293D01*
X12865301Y-15460293D02*
X12855777Y-15498388D01*
X12855777Y-15498388D02*
X12846253Y-15517436D01*
X12846253Y-15517436D02*
X12836729Y-15526960D01*
X12836729Y-15526960D02*
X12817682Y-15536484D01*
X12817682Y-15536484D02*
X12798634Y-15536484D01*
X12798634Y-15536484D02*
X12779586Y-15526960D01*
X12779586Y-15526960D02*
X12770063Y-15517436D01*
X12770063Y-15517436D02*
X12760539Y-15498388D01*
X12760539Y-15498388D02*
X12751015Y-15460293D01*
X12751015Y-15460293D02*
X12751015Y-15412674D01*
X12751015Y-15412674D02*
X12760539Y-15374579D01*
X12760539Y-15374579D02*
X12770063Y-15355531D01*
X12770063Y-15355531D02*
X12779586Y-15346008D01*
X12779586Y-15346008D02*
X12798634Y-15336484D01*
X12951015Y-15517436D02*
X12960539Y-15526960D01*
X12960539Y-15526960D02*
X12951015Y-15536484D01*
X12951015Y-15536484D02*
X12941491Y-15526960D01*
X12941491Y-15526960D02*
X12951015Y-15517436D01*
X12951015Y-15517436D02*
X12951015Y-15536484D01*
X13084348Y-15336484D02*
X13103396Y-15336484D01*
X13103396Y-15336484D02*
X13122444Y-15346008D01*
X13122444Y-15346008D02*
X13131967Y-15355531D01*
X13131967Y-15355531D02*
X13141491Y-15374579D01*
X13141491Y-15374579D02*
X13151015Y-15412674D01*
X13151015Y-15412674D02*
X13151015Y-15460293D01*
X13151015Y-15460293D02*
X13141491Y-15498388D01*
X13141491Y-15498388D02*
X13131967Y-15517436D01*
X13131967Y-15517436D02*
X13122444Y-15526960D01*
X13122444Y-15526960D02*
X13103396Y-15536484D01*
X13103396Y-15536484D02*
X13084348Y-15536484D01*
X13084348Y-15536484D02*
X13065301Y-15526960D01*
X13065301Y-15526960D02*
X13055777Y-15517436D01*
X13055777Y-15517436D02*
X13046253Y-15498388D01*
X13046253Y-15498388D02*
X13036729Y-15460293D01*
X13036729Y-15460293D02*
X13036729Y-15412674D01*
X13036729Y-15412674D02*
X13046253Y-15374579D01*
X13046253Y-15374579D02*
X13055777Y-15355531D01*
X13055777Y-15355531D02*
X13065301Y-15346008D01*
X13065301Y-15346008D02*
X13084348Y-15336484D01*
X13341491Y-15536484D02*
X13227206Y-15536484D01*
X13284348Y-15536484D02*
X13284348Y-15336484D01*
X13284348Y-15336484D02*
X13265301Y-15365055D01*
X13265301Y-15365055D02*
X13246253Y-15384103D01*
X13246253Y-15384103D02*
X13227206Y-15393627D01*
X13522444Y-15336484D02*
X13427206Y-15336484D01*
X13427206Y-15336484D02*
X13417682Y-15431722D01*
X13417682Y-15431722D02*
X13427206Y-15422198D01*
X13427206Y-15422198D02*
X13446253Y-15412674D01*
X13446253Y-15412674D02*
X13493872Y-15412674D01*
X13493872Y-15412674D02*
X13512920Y-15422198D01*
X13512920Y-15422198D02*
X13522444Y-15431722D01*
X13522444Y-15431722D02*
X13531967Y-15450769D01*
X13531967Y-15450769D02*
X13531967Y-15498388D01*
X13531967Y-15498388D02*
X13522444Y-15517436D01*
X13522444Y-15517436D02*
X13512920Y-15526960D01*
X13512920Y-15526960D02*
X13493872Y-15536484D01*
X13493872Y-15536484D02*
X13446253Y-15536484D01*
X13446253Y-15536484D02*
X13427206Y-15526960D01*
X13427206Y-15526960D02*
X13417682Y-15517436D01*
X13598634Y-15336484D02*
X13731967Y-15336484D01*
X13731967Y-15336484D02*
X13646253Y-15536484D01*
X13798634Y-15336484D02*
X13798634Y-15374579D01*
X13874825Y-15336484D02*
X13874825Y-15374579D01*
X14170063Y-15612674D02*
X14160539Y-15603150D01*
X14160539Y-15603150D02*
X14141491Y-15574579D01*
X14141491Y-15574579D02*
X14131968Y-15555531D01*
X14131968Y-15555531D02*
X14122444Y-15526960D01*
X14122444Y-15526960D02*
X14112920Y-15479341D01*
X14112920Y-15479341D02*
X14112920Y-15441246D01*
X14112920Y-15441246D02*
X14122444Y-15393627D01*
X14122444Y-15393627D02*
X14131968Y-15365055D01*
X14131968Y-15365055D02*
X14141491Y-15346008D01*
X14141491Y-15346008D02*
X14160539Y-15317436D01*
X14160539Y-15317436D02*
X14170063Y-15307912D01*
X14236729Y-15355531D02*
X14246253Y-15346008D01*
X14246253Y-15346008D02*
X14265301Y-15336484D01*
X14265301Y-15336484D02*
X14312920Y-15336484D01*
X14312920Y-15336484D02*
X14331968Y-15346008D01*
X14331968Y-15346008D02*
X14341491Y-15355531D01*
X14341491Y-15355531D02*
X14351015Y-15374579D01*
X14351015Y-15374579D02*
X14351015Y-15393627D01*
X14351015Y-15393627D02*
X14341491Y-15422198D01*
X14341491Y-15422198D02*
X14227206Y-15536484D01*
X14227206Y-15536484D02*
X14351015Y-15536484D01*
X14427206Y-15355531D02*
X14436729Y-15346008D01*
X14436729Y-15346008D02*
X14455777Y-15336484D01*
X14455777Y-15336484D02*
X14503396Y-15336484D01*
X14503396Y-15336484D02*
X14522444Y-15346008D01*
X14522444Y-15346008D02*
X14531968Y-15355531D01*
X14531968Y-15355531D02*
X14541491Y-15374579D01*
X14541491Y-15374579D02*
X14541491Y-15393627D01*
X14541491Y-15393627D02*
X14531968Y-15422198D01*
X14531968Y-15422198D02*
X14417682Y-15536484D01*
X14417682Y-15536484D02*
X14541491Y-15536484D01*
X14655777Y-15422198D02*
X14636729Y-15412674D01*
X14636729Y-15412674D02*
X14627206Y-15403150D01*
X14627206Y-15403150D02*
X14617682Y-15384103D01*
X14617682Y-15384103D02*
X14617682Y-15374579D01*
X14617682Y-15374579D02*
X14627206Y-15355531D01*
X14627206Y-15355531D02*
X14636729Y-15346008D01*
X14636729Y-15346008D02*
X14655777Y-15336484D01*
X14655777Y-15336484D02*
X14693872Y-15336484D01*
X14693872Y-15336484D02*
X14712920Y-15346008D01*
X14712920Y-15346008D02*
X14722444Y-15355531D01*
X14722444Y-15355531D02*
X14731968Y-15374579D01*
X14731968Y-15374579D02*
X14731968Y-15384103D01*
X14731968Y-15384103D02*
X14722444Y-15403150D01*
X14722444Y-15403150D02*
X14712920Y-15412674D01*
X14712920Y-15412674D02*
X14693872Y-15422198D01*
X14693872Y-15422198D02*
X14655777Y-15422198D01*
X14655777Y-15422198D02*
X14636729Y-15431722D01*
X14636729Y-15431722D02*
X14627206Y-15441246D01*
X14627206Y-15441246D02*
X14617682Y-15460293D01*
X14617682Y-15460293D02*
X14617682Y-15498388D01*
X14617682Y-15498388D02*
X14627206Y-15517436D01*
X14627206Y-15517436D02*
X14636729Y-15526960D01*
X14636729Y-15526960D02*
X14655777Y-15536484D01*
X14655777Y-15536484D02*
X14693872Y-15536484D01*
X14693872Y-15536484D02*
X14712920Y-15526960D01*
X14712920Y-15526960D02*
X14722444Y-15517436D01*
X14722444Y-15517436D02*
X14731968Y-15498388D01*
X14731968Y-15498388D02*
X14731968Y-15460293D01*
X14731968Y-15460293D02*
X14722444Y-15441246D01*
X14722444Y-15441246D02*
X14712920Y-15431722D01*
X14712920Y-15431722D02*
X14693872Y-15422198D01*
X14970063Y-15536484D02*
X14970063Y-15336484D01*
X15055777Y-15536484D02*
X15055777Y-15431722D01*
X15055777Y-15431722D02*
X15046253Y-15412674D01*
X15046253Y-15412674D02*
X15027206Y-15403150D01*
X15027206Y-15403150D02*
X14998634Y-15403150D01*
X14998634Y-15403150D02*
X14979587Y-15412674D01*
X14979587Y-15412674D02*
X14970063Y-15422198D01*
X15179587Y-15536484D02*
X15160539Y-15526960D01*
X15160539Y-15526960D02*
X15151015Y-15517436D01*
X15151015Y-15517436D02*
X15141491Y-15498388D01*
X15141491Y-15498388D02*
X15141491Y-15441246D01*
X15141491Y-15441246D02*
X15151015Y-15422198D01*
X15151015Y-15422198D02*
X15160539Y-15412674D01*
X15160539Y-15412674D02*
X15179587Y-15403150D01*
X15179587Y-15403150D02*
X15208158Y-15403150D01*
X15208158Y-15403150D02*
X15227206Y-15412674D01*
X15227206Y-15412674D02*
X15236730Y-15422198D01*
X15236730Y-15422198D02*
X15246253Y-15441246D01*
X15246253Y-15441246D02*
X15246253Y-15498388D01*
X15246253Y-15498388D02*
X15236730Y-15517436D01*
X15236730Y-15517436D02*
X15227206Y-15526960D01*
X15227206Y-15526960D02*
X15208158Y-15536484D01*
X15208158Y-15536484D02*
X15179587Y-15536484D01*
X15360539Y-15536484D02*
X15341491Y-15526960D01*
X15341491Y-15526960D02*
X15331968Y-15507912D01*
X15331968Y-15507912D02*
X15331968Y-15336484D01*
X15512920Y-15526960D02*
X15493872Y-15536484D01*
X15493872Y-15536484D02*
X15455777Y-15536484D01*
X15455777Y-15536484D02*
X15436730Y-15526960D01*
X15436730Y-15526960D02*
X15427206Y-15507912D01*
X15427206Y-15507912D02*
X15427206Y-15431722D01*
X15427206Y-15431722D02*
X15436730Y-15412674D01*
X15436730Y-15412674D02*
X15455777Y-15403150D01*
X15455777Y-15403150D02*
X15493872Y-15403150D01*
X15493872Y-15403150D02*
X15512920Y-15412674D01*
X15512920Y-15412674D02*
X15522444Y-15431722D01*
X15522444Y-15431722D02*
X15522444Y-15450769D01*
X15522444Y-15450769D02*
X15427206Y-15469817D01*
X15598634Y-15526960D02*
X15617682Y-15536484D01*
X15617682Y-15536484D02*
X15655777Y-15536484D01*
X15655777Y-15536484D02*
X15674825Y-15526960D01*
X15674825Y-15526960D02*
X15684349Y-15507912D01*
X15684349Y-15507912D02*
X15684349Y-15498388D01*
X15684349Y-15498388D02*
X15674825Y-15479341D01*
X15674825Y-15479341D02*
X15655777Y-15469817D01*
X15655777Y-15469817D02*
X15627206Y-15469817D01*
X15627206Y-15469817D02*
X15608158Y-15460293D01*
X15608158Y-15460293D02*
X15598634Y-15441246D01*
X15598634Y-15441246D02*
X15598634Y-15431722D01*
X15598634Y-15431722D02*
X15608158Y-15412674D01*
X15608158Y-15412674D02*
X15627206Y-15403150D01*
X15627206Y-15403150D02*
X15655777Y-15403150D01*
X15655777Y-15403150D02*
X15674825Y-15412674D01*
X15751015Y-15612674D02*
X15760539Y-15603150D01*
X15760539Y-15603150D02*
X15779587Y-15574579D01*
X15779587Y-15574579D02*
X15789111Y-15555531D01*
X15789111Y-15555531D02*
X15798634Y-15526960D01*
X15798634Y-15526960D02*
X15808158Y-15479341D01*
X15808158Y-15479341D02*
X15808158Y-15441246D01*
X15808158Y-15441246D02*
X15798634Y-15393627D01*
X15798634Y-15393627D02*
X15789111Y-15365055D01*
X15789111Y-15365055D02*
X15779587Y-15346008D01*
X15779587Y-15346008D02*
X15760539Y-15317436D01*
X15760539Y-15317436D02*
X15751015Y-15307912D01*
D10*
X10595000Y-15709000D02*
G75*
G02*
X10545000Y-15709000I-25000J0D01*
G01*
X10545000Y-15709000D02*
G75*
G02*
X10595000Y-15709000I25000J0D01*
G01*
D11*
X10893872Y-15600484D02*
X10912920Y-15600484D01*
X10912920Y-15600484D02*
X10931967Y-15610008D01*
X10931967Y-15610008D02*
X10941491Y-15619531D01*
X10941491Y-15619531D02*
X10951015Y-15638579D01*
X10951015Y-15638579D02*
X10960539Y-15676674D01*
X10960539Y-15676674D02*
X10960539Y-15724293D01*
X10960539Y-15724293D02*
X10951015Y-15762388D01*
X10951015Y-15762388D02*
X10941491Y-15781436D01*
X10941491Y-15781436D02*
X10931967Y-15790960D01*
X10931967Y-15790960D02*
X10912920Y-15800484D01*
X10912920Y-15800484D02*
X10893872Y-15800484D01*
X10893872Y-15800484D02*
X10874824Y-15790960D01*
X10874824Y-15790960D02*
X10865301Y-15781436D01*
X10865301Y-15781436D02*
X10855777Y-15762388D01*
X10855777Y-15762388D02*
X10846253Y-15724293D01*
X10846253Y-15724293D02*
X10846253Y-15676674D01*
X10846253Y-15676674D02*
X10855777Y-15638579D01*
X10855777Y-15638579D02*
X10865301Y-15619531D01*
X10865301Y-15619531D02*
X10874824Y-15610008D01*
X10874824Y-15610008D02*
X10893872Y-15600484D01*
X11046253Y-15781436D02*
X11055777Y-15790960D01*
X11055777Y-15790960D02*
X11046253Y-15800484D01*
X11046253Y-15800484D02*
X11036729Y-15790960D01*
X11036729Y-15790960D02*
X11046253Y-15781436D01*
X11046253Y-15781436D02*
X11046253Y-15800484D01*
X11236729Y-15600484D02*
X11141491Y-15600484D01*
X11141491Y-15600484D02*
X11131967Y-15695722D01*
X11131967Y-15695722D02*
X11141491Y-15686198D01*
X11141491Y-15686198D02*
X11160539Y-15676674D01*
X11160539Y-15676674D02*
X11208158Y-15676674D01*
X11208158Y-15676674D02*
X11227205Y-15686198D01*
X11227205Y-15686198D02*
X11236729Y-15695722D01*
X11236729Y-15695722D02*
X11246253Y-15714769D01*
X11246253Y-15714769D02*
X11246253Y-15762388D01*
X11246253Y-15762388D02*
X11236729Y-15781436D01*
X11236729Y-15781436D02*
X11227205Y-15790960D01*
X11227205Y-15790960D02*
X11208158Y-15800484D01*
X11208158Y-15800484D02*
X11160539Y-15800484D01*
X11160539Y-15800484D02*
X11141491Y-15790960D01*
X11141491Y-15790960D02*
X11131967Y-15781436D01*
X11370062Y-15600484D02*
X11389110Y-15600484D01*
X11389110Y-15600484D02*
X11408158Y-15610008D01*
X11408158Y-15610008D02*
X11417682Y-15619531D01*
X11417682Y-15619531D02*
X11427205Y-15638579D01*
X11427205Y-15638579D02*
X11436729Y-15676674D01*
X11436729Y-15676674D02*
X11436729Y-15724293D01*
X11436729Y-15724293D02*
X11427205Y-15762388D01*
X11427205Y-15762388D02*
X11417682Y-15781436D01*
X11417682Y-15781436D02*
X11408158Y-15790960D01*
X11408158Y-15790960D02*
X11389110Y-15800484D01*
X11389110Y-15800484D02*
X11370062Y-15800484D01*
X11370062Y-15800484D02*
X11351015Y-15790960D01*
X11351015Y-15790960D02*
X11341491Y-15781436D01*
X11341491Y-15781436D02*
X11331967Y-15762388D01*
X11331967Y-15762388D02*
X11322443Y-15724293D01*
X11322443Y-15724293D02*
X11322443Y-15676674D01*
X11322443Y-15676674D02*
X11331967Y-15638579D01*
X11331967Y-15638579D02*
X11341491Y-15619531D01*
X11341491Y-15619531D02*
X11351015Y-15610008D01*
X11351015Y-15610008D02*
X11370062Y-15600484D01*
X11560539Y-15600484D02*
X11579586Y-15600484D01*
X11579586Y-15600484D02*
X11598634Y-15610008D01*
X11598634Y-15610008D02*
X11608158Y-15619531D01*
X11608158Y-15619531D02*
X11617682Y-15638579D01*
X11617682Y-15638579D02*
X11627205Y-15676674D01*
X11627205Y-15676674D02*
X11627205Y-15724293D01*
X11627205Y-15724293D02*
X11617682Y-15762388D01*
X11617682Y-15762388D02*
X11608158Y-15781436D01*
X11608158Y-15781436D02*
X11598634Y-15790960D01*
X11598634Y-15790960D02*
X11579586Y-15800484D01*
X11579586Y-15800484D02*
X11560539Y-15800484D01*
X11560539Y-15800484D02*
X11541491Y-15790960D01*
X11541491Y-15790960D02*
X11531967Y-15781436D01*
X11531967Y-15781436D02*
X11522443Y-15762388D01*
X11522443Y-15762388D02*
X11512920Y-15724293D01*
X11512920Y-15724293D02*
X11512920Y-15676674D01*
X11512920Y-15676674D02*
X11522443Y-15638579D01*
X11522443Y-15638579D02*
X11531967Y-15619531D01*
X11531967Y-15619531D02*
X11541491Y-15610008D01*
X11541491Y-15610008D02*
X11560539Y-15600484D01*
X11712920Y-15800484D02*
X11712920Y-15667150D01*
X11712920Y-15686198D02*
X11722443Y-15676674D01*
X11722443Y-15676674D02*
X11741491Y-15667150D01*
X11741491Y-15667150D02*
X11770063Y-15667150D01*
X11770063Y-15667150D02*
X11789110Y-15676674D01*
X11789110Y-15676674D02*
X11798634Y-15695722D01*
X11798634Y-15695722D02*
X11798634Y-15800484D01*
X11798634Y-15695722D02*
X11808158Y-15676674D01*
X11808158Y-15676674D02*
X11827205Y-15667150D01*
X11827205Y-15667150D02*
X11855777Y-15667150D01*
X11855777Y-15667150D02*
X11874824Y-15676674D01*
X11874824Y-15676674D02*
X11884348Y-15695722D01*
X11884348Y-15695722D02*
X11884348Y-15800484D01*
X11979586Y-15800484D02*
X11979586Y-15667150D01*
X11979586Y-15686198D02*
X11989110Y-15676674D01*
X11989110Y-15676674D02*
X12008158Y-15667150D01*
X12008158Y-15667150D02*
X12036729Y-15667150D01*
X12036729Y-15667150D02*
X12055777Y-15676674D01*
X12055777Y-15676674D02*
X12065301Y-15695722D01*
X12065301Y-15695722D02*
X12065301Y-15800484D01*
X12065301Y-15695722D02*
X12074824Y-15676674D01*
X12074824Y-15676674D02*
X12093872Y-15667150D01*
X12093872Y-15667150D02*
X12122443Y-15667150D01*
X12122443Y-15667150D02*
X12141491Y-15676674D01*
X12141491Y-15676674D02*
X12151015Y-15695722D01*
X12151015Y-15695722D02*
X12151015Y-15800484D01*
X12541491Y-15590960D02*
X12370063Y-15848103D01*
X12798634Y-15600484D02*
X12817682Y-15600484D01*
X12817682Y-15600484D02*
X12836729Y-15610008D01*
X12836729Y-15610008D02*
X12846253Y-15619531D01*
X12846253Y-15619531D02*
X12855777Y-15638579D01*
X12855777Y-15638579D02*
X12865301Y-15676674D01*
X12865301Y-15676674D02*
X12865301Y-15724293D01*
X12865301Y-15724293D02*
X12855777Y-15762388D01*
X12855777Y-15762388D02*
X12846253Y-15781436D01*
X12846253Y-15781436D02*
X12836729Y-15790960D01*
X12836729Y-15790960D02*
X12817682Y-15800484D01*
X12817682Y-15800484D02*
X12798634Y-15800484D01*
X12798634Y-15800484D02*
X12779586Y-15790960D01*
X12779586Y-15790960D02*
X12770063Y-15781436D01*
X12770063Y-15781436D02*
X12760539Y-15762388D01*
X12760539Y-15762388D02*
X12751015Y-15724293D01*
X12751015Y-15724293D02*
X12751015Y-15676674D01*
X12751015Y-15676674D02*
X12760539Y-15638579D01*
X12760539Y-15638579D02*
X12770063Y-15619531D01*
X12770063Y-15619531D02*
X12779586Y-15610008D01*
X12779586Y-15610008D02*
X12798634Y-15600484D01*
X12951015Y-15781436D02*
X12960539Y-15790960D01*
X12960539Y-15790960D02*
X12951015Y-15800484D01*
X12951015Y-15800484D02*
X12941491Y-15790960D01*
X12941491Y-15790960D02*
X12951015Y-15781436D01*
X12951015Y-15781436D02*
X12951015Y-15800484D01*
X13084348Y-15600484D02*
X13103396Y-15600484D01*
X13103396Y-15600484D02*
X13122444Y-15610008D01*
X13122444Y-15610008D02*
X13131967Y-15619531D01*
X13131967Y-15619531D02*
X13141491Y-15638579D01*
X13141491Y-15638579D02*
X13151015Y-15676674D01*
X13151015Y-15676674D02*
X13151015Y-15724293D01*
X13151015Y-15724293D02*
X13141491Y-15762388D01*
X13141491Y-15762388D02*
X13131967Y-15781436D01*
X13131967Y-15781436D02*
X13122444Y-15790960D01*
X13122444Y-15790960D02*
X13103396Y-15800484D01*
X13103396Y-15800484D02*
X13084348Y-15800484D01*
X13084348Y-15800484D02*
X13065301Y-15790960D01*
X13065301Y-15790960D02*
X13055777Y-15781436D01*
X13055777Y-15781436D02*
X13046253Y-15762388D01*
X13046253Y-15762388D02*
X13036729Y-15724293D01*
X13036729Y-15724293D02*
X13036729Y-15676674D01*
X13036729Y-15676674D02*
X13046253Y-15638579D01*
X13046253Y-15638579D02*
X13055777Y-15619531D01*
X13055777Y-15619531D02*
X13065301Y-15610008D01*
X13065301Y-15610008D02*
X13084348Y-15600484D01*
X13341491Y-15800484D02*
X13227206Y-15800484D01*
X13284348Y-15800484D02*
X13284348Y-15600484D01*
X13284348Y-15600484D02*
X13265301Y-15629055D01*
X13265301Y-15629055D02*
X13246253Y-15648103D01*
X13246253Y-15648103D02*
X13227206Y-15657627D01*
X13436729Y-15800484D02*
X13474825Y-15800484D01*
X13474825Y-15800484D02*
X13493872Y-15790960D01*
X13493872Y-15790960D02*
X13503396Y-15781436D01*
X13503396Y-15781436D02*
X13522444Y-15752865D01*
X13522444Y-15752865D02*
X13531967Y-15714769D01*
X13531967Y-15714769D02*
X13531967Y-15638579D01*
X13531967Y-15638579D02*
X13522444Y-15619531D01*
X13522444Y-15619531D02*
X13512920Y-15610008D01*
X13512920Y-15610008D02*
X13493872Y-15600484D01*
X13493872Y-15600484D02*
X13455777Y-15600484D01*
X13455777Y-15600484D02*
X13436729Y-15610008D01*
X13436729Y-15610008D02*
X13427206Y-15619531D01*
X13427206Y-15619531D02*
X13417682Y-15638579D01*
X13417682Y-15638579D02*
X13417682Y-15686198D01*
X13417682Y-15686198D02*
X13427206Y-15705246D01*
X13427206Y-15705246D02*
X13436729Y-15714769D01*
X13436729Y-15714769D02*
X13455777Y-15724293D01*
X13455777Y-15724293D02*
X13493872Y-15724293D01*
X13493872Y-15724293D02*
X13512920Y-15714769D01*
X13512920Y-15714769D02*
X13522444Y-15705246D01*
X13522444Y-15705246D02*
X13531967Y-15686198D01*
X13598634Y-15600484D02*
X13731967Y-15600484D01*
X13731967Y-15600484D02*
X13646253Y-15800484D01*
X13798634Y-15600484D02*
X13798634Y-15638579D01*
X13874825Y-15600484D02*
X13874825Y-15638579D01*
X14170063Y-15876674D02*
X14160539Y-15867150D01*
X14160539Y-15867150D02*
X14141491Y-15838579D01*
X14141491Y-15838579D02*
X14131968Y-15819531D01*
X14131968Y-15819531D02*
X14122444Y-15790960D01*
X14122444Y-15790960D02*
X14112920Y-15743341D01*
X14112920Y-15743341D02*
X14112920Y-15705246D01*
X14112920Y-15705246D02*
X14122444Y-15657627D01*
X14122444Y-15657627D02*
X14131968Y-15629055D01*
X14131968Y-15629055D02*
X14141491Y-15610008D01*
X14141491Y-15610008D02*
X14160539Y-15581436D01*
X14160539Y-15581436D02*
X14170063Y-15571912D01*
X14284348Y-15600484D02*
X14303396Y-15600484D01*
X14303396Y-15600484D02*
X14322444Y-15610008D01*
X14322444Y-15610008D02*
X14331968Y-15619531D01*
X14331968Y-15619531D02*
X14341491Y-15638579D01*
X14341491Y-15638579D02*
X14351015Y-15676674D01*
X14351015Y-15676674D02*
X14351015Y-15724293D01*
X14351015Y-15724293D02*
X14341491Y-15762388D01*
X14341491Y-15762388D02*
X14331968Y-15781436D01*
X14331968Y-15781436D02*
X14322444Y-15790960D01*
X14322444Y-15790960D02*
X14303396Y-15800484D01*
X14303396Y-15800484D02*
X14284348Y-15800484D01*
X14284348Y-15800484D02*
X14265301Y-15790960D01*
X14265301Y-15790960D02*
X14255777Y-15781436D01*
X14255777Y-15781436D02*
X14246253Y-15762388D01*
X14246253Y-15762388D02*
X14236729Y-15724293D01*
X14236729Y-15724293D02*
X14236729Y-15676674D01*
X14236729Y-15676674D02*
X14246253Y-15638579D01*
X14246253Y-15638579D02*
X14255777Y-15619531D01*
X14255777Y-15619531D02*
X14265301Y-15610008D01*
X14265301Y-15610008D02*
X14284348Y-15600484D01*
X14589110Y-15800484D02*
X14589110Y-15600484D01*
X14674825Y-15800484D02*
X14674825Y-15695722D01*
X14674825Y-15695722D02*
X14665301Y-15676674D01*
X14665301Y-15676674D02*
X14646253Y-15667150D01*
X14646253Y-15667150D02*
X14617682Y-15667150D01*
X14617682Y-15667150D02*
X14598634Y-15676674D01*
X14598634Y-15676674D02*
X14589110Y-15686198D01*
X14798634Y-15800484D02*
X14779587Y-15790960D01*
X14779587Y-15790960D02*
X14770063Y-15781436D01*
X14770063Y-15781436D02*
X14760539Y-15762388D01*
X14760539Y-15762388D02*
X14760539Y-15705246D01*
X14760539Y-15705246D02*
X14770063Y-15686198D01*
X14770063Y-15686198D02*
X14779587Y-15676674D01*
X14779587Y-15676674D02*
X14798634Y-15667150D01*
X14798634Y-15667150D02*
X14827206Y-15667150D01*
X14827206Y-15667150D02*
X14846253Y-15676674D01*
X14846253Y-15676674D02*
X14855777Y-15686198D01*
X14855777Y-15686198D02*
X14865301Y-15705246D01*
X14865301Y-15705246D02*
X14865301Y-15762388D01*
X14865301Y-15762388D02*
X14855777Y-15781436D01*
X14855777Y-15781436D02*
X14846253Y-15790960D01*
X14846253Y-15790960D02*
X14827206Y-15800484D01*
X14827206Y-15800484D02*
X14798634Y-15800484D01*
X14979587Y-15800484D02*
X14960539Y-15790960D01*
X14960539Y-15790960D02*
X14951015Y-15771912D01*
X14951015Y-15771912D02*
X14951015Y-15600484D01*
X15131968Y-15790960D02*
X15112920Y-15800484D01*
X15112920Y-15800484D02*
X15074825Y-15800484D01*
X15074825Y-15800484D02*
X15055777Y-15790960D01*
X15055777Y-15790960D02*
X15046253Y-15771912D01*
X15046253Y-15771912D02*
X15046253Y-15695722D01*
X15046253Y-15695722D02*
X15055777Y-15676674D01*
X15055777Y-15676674D02*
X15074825Y-15667150D01*
X15074825Y-15667150D02*
X15112920Y-15667150D01*
X15112920Y-15667150D02*
X15131968Y-15676674D01*
X15131968Y-15676674D02*
X15141491Y-15695722D01*
X15141491Y-15695722D02*
X15141491Y-15714769D01*
X15141491Y-15714769D02*
X15046253Y-15733817D01*
X15217682Y-15790960D02*
X15236730Y-15800484D01*
X15236730Y-15800484D02*
X15274825Y-15800484D01*
X15274825Y-15800484D02*
X15293872Y-15790960D01*
X15293872Y-15790960D02*
X15303396Y-15771912D01*
X15303396Y-15771912D02*
X15303396Y-15762388D01*
X15303396Y-15762388D02*
X15293872Y-15743341D01*
X15293872Y-15743341D02*
X15274825Y-15733817D01*
X15274825Y-15733817D02*
X15246253Y-15733817D01*
X15246253Y-15733817D02*
X15227206Y-15724293D01*
X15227206Y-15724293D02*
X15217682Y-15705246D01*
X15217682Y-15705246D02*
X15217682Y-15695722D01*
X15217682Y-15695722D02*
X15227206Y-15676674D01*
X15227206Y-15676674D02*
X15246253Y-15667150D01*
X15246253Y-15667150D02*
X15274825Y-15667150D01*
X15274825Y-15667150D02*
X15293872Y-15676674D01*
X15541492Y-15724293D02*
X15693873Y-15724293D01*
X15617682Y-15800484D02*
X15617682Y-15648103D01*
X15931968Y-15619531D02*
X15941492Y-15610008D01*
X15941492Y-15610008D02*
X15960539Y-15600484D01*
X15960539Y-15600484D02*
X16008158Y-15600484D01*
X16008158Y-15600484D02*
X16027206Y-15610008D01*
X16027206Y-15610008D02*
X16036730Y-15619531D01*
X16036730Y-15619531D02*
X16046253Y-15638579D01*
X16046253Y-15638579D02*
X16046253Y-15657627D01*
X16046253Y-15657627D02*
X16036730Y-15686198D01*
X16036730Y-15686198D02*
X15922444Y-15800484D01*
X15922444Y-15800484D02*
X16046253Y-15800484D01*
X16274825Y-15790960D02*
X16293873Y-15800484D01*
X16293873Y-15800484D02*
X16331968Y-15800484D01*
X16331968Y-15800484D02*
X16351015Y-15790960D01*
X16351015Y-15790960D02*
X16360539Y-15771912D01*
X16360539Y-15771912D02*
X16360539Y-15762388D01*
X16360539Y-15762388D02*
X16351015Y-15743341D01*
X16351015Y-15743341D02*
X16331968Y-15733817D01*
X16331968Y-15733817D02*
X16303396Y-15733817D01*
X16303396Y-15733817D02*
X16284349Y-15724293D01*
X16284349Y-15724293D02*
X16274825Y-15705246D01*
X16274825Y-15705246D02*
X16274825Y-15695722D01*
X16274825Y-15695722D02*
X16284349Y-15676674D01*
X16284349Y-15676674D02*
X16303396Y-15667150D01*
X16303396Y-15667150D02*
X16331968Y-15667150D01*
X16331968Y-15667150D02*
X16351015Y-15676674D01*
X16474825Y-15800484D02*
X16455777Y-15790960D01*
X16455777Y-15790960D02*
X16446254Y-15771912D01*
X16446254Y-15771912D02*
X16446254Y-15600484D01*
X16579587Y-15800484D02*
X16560539Y-15790960D01*
X16560539Y-15790960D02*
X16551015Y-15781436D01*
X16551015Y-15781436D02*
X16541492Y-15762388D01*
X16541492Y-15762388D02*
X16541492Y-15705246D01*
X16541492Y-15705246D02*
X16551015Y-15686198D01*
X16551015Y-15686198D02*
X16560539Y-15676674D01*
X16560539Y-15676674D02*
X16579587Y-15667150D01*
X16579587Y-15667150D02*
X16608158Y-15667150D01*
X16608158Y-15667150D02*
X16627206Y-15676674D01*
X16627206Y-15676674D02*
X16636730Y-15686198D01*
X16636730Y-15686198D02*
X16646254Y-15705246D01*
X16646254Y-15705246D02*
X16646254Y-15762388D01*
X16646254Y-15762388D02*
X16636730Y-15781436D01*
X16636730Y-15781436D02*
X16627206Y-15790960D01*
X16627206Y-15790960D02*
X16608158Y-15800484D01*
X16608158Y-15800484D02*
X16579587Y-15800484D01*
X16703396Y-15667150D02*
X16779587Y-15667150D01*
X16731968Y-15600484D02*
X16731968Y-15771912D01*
X16731968Y-15771912D02*
X16741492Y-15790960D01*
X16741492Y-15790960D02*
X16760539Y-15800484D01*
X16760539Y-15800484D02*
X16779587Y-15800484D01*
X16836730Y-15790960D02*
X16855777Y-15800484D01*
X16855777Y-15800484D02*
X16893873Y-15800484D01*
X16893873Y-15800484D02*
X16912920Y-15790960D01*
X16912920Y-15790960D02*
X16922444Y-15771912D01*
X16922444Y-15771912D02*
X16922444Y-15762388D01*
X16922444Y-15762388D02*
X16912920Y-15743341D01*
X16912920Y-15743341D02*
X16893873Y-15733817D01*
X16893873Y-15733817D02*
X16865301Y-15733817D01*
X16865301Y-15733817D02*
X16846254Y-15724293D01*
X16846254Y-15724293D02*
X16836730Y-15705246D01*
X16836730Y-15705246D02*
X16836730Y-15695722D01*
X16836730Y-15695722D02*
X16846254Y-15676674D01*
X16846254Y-15676674D02*
X16865301Y-15667150D01*
X16865301Y-15667150D02*
X16893873Y-15667150D01*
X16893873Y-15667150D02*
X16912920Y-15676674D01*
X16989111Y-15876674D02*
X16998635Y-15867150D01*
X16998635Y-15867150D02*
X17017682Y-15838579D01*
X17017682Y-15838579D02*
X17027206Y-15819531D01*
X17027206Y-15819531D02*
X17036730Y-15790960D01*
X17036730Y-15790960D02*
X17046254Y-15743341D01*
X17046254Y-15743341D02*
X17046254Y-15705246D01*
X17046254Y-15705246D02*
X17036730Y-15657627D01*
X17036730Y-15657627D02*
X17027206Y-15629055D01*
X17027206Y-15629055D02*
X17017682Y-15610008D01*
X17017682Y-15610008D02*
X16998635Y-15581436D01*
X16998635Y-15581436D02*
X16989111Y-15571912D01*
D10*
X10550000Y-15928000D02*
X10550000Y-16018000D01*
X10505000Y-15973000D02*
X10595000Y-15973000D01*
D11*
X10893872Y-15864484D02*
X10912920Y-15864484D01*
X10912920Y-15864484D02*
X10931967Y-15874008D01*
X10931967Y-15874008D02*
X10941491Y-15883531D01*
X10941491Y-15883531D02*
X10951015Y-15902579D01*
X10951015Y-15902579D02*
X10960539Y-15940674D01*
X10960539Y-15940674D02*
X10960539Y-15988293D01*
X10960539Y-15988293D02*
X10951015Y-16026388D01*
X10951015Y-16026388D02*
X10941491Y-16045436D01*
X10941491Y-16045436D02*
X10931967Y-16054960D01*
X10931967Y-16054960D02*
X10912920Y-16064484D01*
X10912920Y-16064484D02*
X10893872Y-16064484D01*
X10893872Y-16064484D02*
X10874824Y-16054960D01*
X10874824Y-16054960D02*
X10865301Y-16045436D01*
X10865301Y-16045436D02*
X10855777Y-16026388D01*
X10855777Y-16026388D02*
X10846253Y-15988293D01*
X10846253Y-15988293D02*
X10846253Y-15940674D01*
X10846253Y-15940674D02*
X10855777Y-15902579D01*
X10855777Y-15902579D02*
X10865301Y-15883531D01*
X10865301Y-15883531D02*
X10874824Y-15874008D01*
X10874824Y-15874008D02*
X10893872Y-15864484D01*
X11046253Y-16045436D02*
X11055777Y-16054960D01*
X11055777Y-16054960D02*
X11046253Y-16064484D01*
X11046253Y-16064484D02*
X11036729Y-16054960D01*
X11036729Y-16054960D02*
X11046253Y-16045436D01*
X11046253Y-16045436D02*
X11046253Y-16064484D01*
X11151015Y-16064484D02*
X11189110Y-16064484D01*
X11189110Y-16064484D02*
X11208158Y-16054960D01*
X11208158Y-16054960D02*
X11217682Y-16045436D01*
X11217682Y-16045436D02*
X11236729Y-16016865D01*
X11236729Y-16016865D02*
X11246253Y-15978769D01*
X11246253Y-15978769D02*
X11246253Y-15902579D01*
X11246253Y-15902579D02*
X11236729Y-15883531D01*
X11236729Y-15883531D02*
X11227205Y-15874008D01*
X11227205Y-15874008D02*
X11208158Y-15864484D01*
X11208158Y-15864484D02*
X11170063Y-15864484D01*
X11170063Y-15864484D02*
X11151015Y-15874008D01*
X11151015Y-15874008D02*
X11141491Y-15883531D01*
X11141491Y-15883531D02*
X11131967Y-15902579D01*
X11131967Y-15902579D02*
X11131967Y-15950198D01*
X11131967Y-15950198D02*
X11141491Y-15969246D01*
X11141491Y-15969246D02*
X11151015Y-15978769D01*
X11151015Y-15978769D02*
X11170063Y-15988293D01*
X11170063Y-15988293D02*
X11208158Y-15988293D01*
X11208158Y-15988293D02*
X11227205Y-15978769D01*
X11227205Y-15978769D02*
X11236729Y-15969246D01*
X11236729Y-15969246D02*
X11246253Y-15950198D01*
X11370062Y-15864484D02*
X11389110Y-15864484D01*
X11389110Y-15864484D02*
X11408158Y-15874008D01*
X11408158Y-15874008D02*
X11417682Y-15883531D01*
X11417682Y-15883531D02*
X11427205Y-15902579D01*
X11427205Y-15902579D02*
X11436729Y-15940674D01*
X11436729Y-15940674D02*
X11436729Y-15988293D01*
X11436729Y-15988293D02*
X11427205Y-16026388D01*
X11427205Y-16026388D02*
X11417682Y-16045436D01*
X11417682Y-16045436D02*
X11408158Y-16054960D01*
X11408158Y-16054960D02*
X11389110Y-16064484D01*
X11389110Y-16064484D02*
X11370062Y-16064484D01*
X11370062Y-16064484D02*
X11351015Y-16054960D01*
X11351015Y-16054960D02*
X11341491Y-16045436D01*
X11341491Y-16045436D02*
X11331967Y-16026388D01*
X11331967Y-16026388D02*
X11322443Y-15988293D01*
X11322443Y-15988293D02*
X11322443Y-15940674D01*
X11322443Y-15940674D02*
X11331967Y-15902579D01*
X11331967Y-15902579D02*
X11341491Y-15883531D01*
X11341491Y-15883531D02*
X11351015Y-15874008D01*
X11351015Y-15874008D02*
X11370062Y-15864484D01*
X11560539Y-15864484D02*
X11579586Y-15864484D01*
X11579586Y-15864484D02*
X11598634Y-15874008D01*
X11598634Y-15874008D02*
X11608158Y-15883531D01*
X11608158Y-15883531D02*
X11617682Y-15902579D01*
X11617682Y-15902579D02*
X11627205Y-15940674D01*
X11627205Y-15940674D02*
X11627205Y-15988293D01*
X11627205Y-15988293D02*
X11617682Y-16026388D01*
X11617682Y-16026388D02*
X11608158Y-16045436D01*
X11608158Y-16045436D02*
X11598634Y-16054960D01*
X11598634Y-16054960D02*
X11579586Y-16064484D01*
X11579586Y-16064484D02*
X11560539Y-16064484D01*
X11560539Y-16064484D02*
X11541491Y-16054960D01*
X11541491Y-16054960D02*
X11531967Y-16045436D01*
X11531967Y-16045436D02*
X11522443Y-16026388D01*
X11522443Y-16026388D02*
X11512920Y-15988293D01*
X11512920Y-15988293D02*
X11512920Y-15940674D01*
X11512920Y-15940674D02*
X11522443Y-15902579D01*
X11522443Y-15902579D02*
X11531967Y-15883531D01*
X11531967Y-15883531D02*
X11541491Y-15874008D01*
X11541491Y-15874008D02*
X11560539Y-15864484D01*
X11712920Y-16064484D02*
X11712920Y-15931150D01*
X11712920Y-15950198D02*
X11722443Y-15940674D01*
X11722443Y-15940674D02*
X11741491Y-15931150D01*
X11741491Y-15931150D02*
X11770063Y-15931150D01*
X11770063Y-15931150D02*
X11789110Y-15940674D01*
X11789110Y-15940674D02*
X11798634Y-15959722D01*
X11798634Y-15959722D02*
X11798634Y-16064484D01*
X11798634Y-15959722D02*
X11808158Y-15940674D01*
X11808158Y-15940674D02*
X11827205Y-15931150D01*
X11827205Y-15931150D02*
X11855777Y-15931150D01*
X11855777Y-15931150D02*
X11874824Y-15940674D01*
X11874824Y-15940674D02*
X11884348Y-15959722D01*
X11884348Y-15959722D02*
X11884348Y-16064484D01*
X11979586Y-16064484D02*
X11979586Y-15931150D01*
X11979586Y-15950198D02*
X11989110Y-15940674D01*
X11989110Y-15940674D02*
X12008158Y-15931150D01*
X12008158Y-15931150D02*
X12036729Y-15931150D01*
X12036729Y-15931150D02*
X12055777Y-15940674D01*
X12055777Y-15940674D02*
X12065301Y-15959722D01*
X12065301Y-15959722D02*
X12065301Y-16064484D01*
X12065301Y-15959722D02*
X12074824Y-15940674D01*
X12074824Y-15940674D02*
X12093872Y-15931150D01*
X12093872Y-15931150D02*
X12122443Y-15931150D01*
X12122443Y-15931150D02*
X12141491Y-15940674D01*
X12141491Y-15940674D02*
X12151015Y-15959722D01*
X12151015Y-15959722D02*
X12151015Y-16064484D01*
X12541491Y-15854960D02*
X12370063Y-16112103D01*
X12798634Y-15864484D02*
X12817682Y-15864484D01*
X12817682Y-15864484D02*
X12836729Y-15874008D01*
X12836729Y-15874008D02*
X12846253Y-15883531D01*
X12846253Y-15883531D02*
X12855777Y-15902579D01*
X12855777Y-15902579D02*
X12865301Y-15940674D01*
X12865301Y-15940674D02*
X12865301Y-15988293D01*
X12865301Y-15988293D02*
X12855777Y-16026388D01*
X12855777Y-16026388D02*
X12846253Y-16045436D01*
X12846253Y-16045436D02*
X12836729Y-16054960D01*
X12836729Y-16054960D02*
X12817682Y-16064484D01*
X12817682Y-16064484D02*
X12798634Y-16064484D01*
X12798634Y-16064484D02*
X12779586Y-16054960D01*
X12779586Y-16054960D02*
X12770063Y-16045436D01*
X12770063Y-16045436D02*
X12760539Y-16026388D01*
X12760539Y-16026388D02*
X12751015Y-15988293D01*
X12751015Y-15988293D02*
X12751015Y-15940674D01*
X12751015Y-15940674D02*
X12760539Y-15902579D01*
X12760539Y-15902579D02*
X12770063Y-15883531D01*
X12770063Y-15883531D02*
X12779586Y-15874008D01*
X12779586Y-15874008D02*
X12798634Y-15864484D01*
X12951015Y-16045436D02*
X12960539Y-16054960D01*
X12960539Y-16054960D02*
X12951015Y-16064484D01*
X12951015Y-16064484D02*
X12941491Y-16054960D01*
X12941491Y-16054960D02*
X12951015Y-16045436D01*
X12951015Y-16045436D02*
X12951015Y-16064484D01*
X13084348Y-15864484D02*
X13103396Y-15864484D01*
X13103396Y-15864484D02*
X13122444Y-15874008D01*
X13122444Y-15874008D02*
X13131967Y-15883531D01*
X13131967Y-15883531D02*
X13141491Y-15902579D01*
X13141491Y-15902579D02*
X13151015Y-15940674D01*
X13151015Y-15940674D02*
X13151015Y-15988293D01*
X13151015Y-15988293D02*
X13141491Y-16026388D01*
X13141491Y-16026388D02*
X13131967Y-16045436D01*
X13131967Y-16045436D02*
X13122444Y-16054960D01*
X13122444Y-16054960D02*
X13103396Y-16064484D01*
X13103396Y-16064484D02*
X13084348Y-16064484D01*
X13084348Y-16064484D02*
X13065301Y-16054960D01*
X13065301Y-16054960D02*
X13055777Y-16045436D01*
X13055777Y-16045436D02*
X13046253Y-16026388D01*
X13046253Y-16026388D02*
X13036729Y-15988293D01*
X13036729Y-15988293D02*
X13036729Y-15940674D01*
X13036729Y-15940674D02*
X13046253Y-15902579D01*
X13046253Y-15902579D02*
X13055777Y-15883531D01*
X13055777Y-15883531D02*
X13065301Y-15874008D01*
X13065301Y-15874008D02*
X13084348Y-15864484D01*
X13217682Y-15864484D02*
X13341491Y-15864484D01*
X13341491Y-15864484D02*
X13274825Y-15940674D01*
X13274825Y-15940674D02*
X13303396Y-15940674D01*
X13303396Y-15940674D02*
X13322444Y-15950198D01*
X13322444Y-15950198D02*
X13331967Y-15959722D01*
X13331967Y-15959722D02*
X13341491Y-15978769D01*
X13341491Y-15978769D02*
X13341491Y-16026388D01*
X13341491Y-16026388D02*
X13331967Y-16045436D01*
X13331967Y-16045436D02*
X13322444Y-16054960D01*
X13322444Y-16054960D02*
X13303396Y-16064484D01*
X13303396Y-16064484D02*
X13246253Y-16064484D01*
X13246253Y-16064484D02*
X13227206Y-16054960D01*
X13227206Y-16054960D02*
X13217682Y-16045436D01*
X13522444Y-15864484D02*
X13427206Y-15864484D01*
X13427206Y-15864484D02*
X13417682Y-15959722D01*
X13417682Y-15959722D02*
X13427206Y-15950198D01*
X13427206Y-15950198D02*
X13446253Y-15940674D01*
X13446253Y-15940674D02*
X13493872Y-15940674D01*
X13493872Y-15940674D02*
X13512920Y-15950198D01*
X13512920Y-15950198D02*
X13522444Y-15959722D01*
X13522444Y-15959722D02*
X13531967Y-15978769D01*
X13531967Y-15978769D02*
X13531967Y-16026388D01*
X13531967Y-16026388D02*
X13522444Y-16045436D01*
X13522444Y-16045436D02*
X13512920Y-16054960D01*
X13512920Y-16054960D02*
X13493872Y-16064484D01*
X13493872Y-16064484D02*
X13446253Y-16064484D01*
X13446253Y-16064484D02*
X13427206Y-16054960D01*
X13427206Y-16054960D02*
X13417682Y-16045436D01*
X13703396Y-15931150D02*
X13703396Y-16064484D01*
X13655777Y-15854960D02*
X13608158Y-15997817D01*
X13608158Y-15997817D02*
X13731967Y-15997817D01*
X13798634Y-15864484D02*
X13798634Y-15902579D01*
X13874825Y-15864484D02*
X13874825Y-15902579D01*
X14170063Y-16140674D02*
X14160539Y-16131150D01*
X14160539Y-16131150D02*
X14141491Y-16102579D01*
X14141491Y-16102579D02*
X14131968Y-16083531D01*
X14131968Y-16083531D02*
X14122444Y-16054960D01*
X14122444Y-16054960D02*
X14112920Y-16007341D01*
X14112920Y-16007341D02*
X14112920Y-15969246D01*
X14112920Y-15969246D02*
X14122444Y-15921627D01*
X14122444Y-15921627D02*
X14131968Y-15893055D01*
X14131968Y-15893055D02*
X14141491Y-15874008D01*
X14141491Y-15874008D02*
X14160539Y-15845436D01*
X14160539Y-15845436D02*
X14170063Y-15835912D01*
X14331968Y-15864484D02*
X14293872Y-15864484D01*
X14293872Y-15864484D02*
X14274825Y-15874008D01*
X14274825Y-15874008D02*
X14265301Y-15883531D01*
X14265301Y-15883531D02*
X14246253Y-15912103D01*
X14246253Y-15912103D02*
X14236729Y-15950198D01*
X14236729Y-15950198D02*
X14236729Y-16026388D01*
X14236729Y-16026388D02*
X14246253Y-16045436D01*
X14246253Y-16045436D02*
X14255777Y-16054960D01*
X14255777Y-16054960D02*
X14274825Y-16064484D01*
X14274825Y-16064484D02*
X14312920Y-16064484D01*
X14312920Y-16064484D02*
X14331968Y-16054960D01*
X14331968Y-16054960D02*
X14341491Y-16045436D01*
X14341491Y-16045436D02*
X14351015Y-16026388D01*
X14351015Y-16026388D02*
X14351015Y-15978769D01*
X14351015Y-15978769D02*
X14341491Y-15959722D01*
X14341491Y-15959722D02*
X14331968Y-15950198D01*
X14331968Y-15950198D02*
X14312920Y-15940674D01*
X14312920Y-15940674D02*
X14274825Y-15940674D01*
X14274825Y-15940674D02*
X14255777Y-15950198D01*
X14255777Y-15950198D02*
X14246253Y-15959722D01*
X14246253Y-15959722D02*
X14236729Y-15978769D01*
X14589110Y-16064484D02*
X14589110Y-15864484D01*
X14674825Y-16064484D02*
X14674825Y-15959722D01*
X14674825Y-15959722D02*
X14665301Y-15940674D01*
X14665301Y-15940674D02*
X14646253Y-15931150D01*
X14646253Y-15931150D02*
X14617682Y-15931150D01*
X14617682Y-15931150D02*
X14598634Y-15940674D01*
X14598634Y-15940674D02*
X14589110Y-15950198D01*
X14798634Y-16064484D02*
X14779587Y-16054960D01*
X14779587Y-16054960D02*
X14770063Y-16045436D01*
X14770063Y-16045436D02*
X14760539Y-16026388D01*
X14760539Y-16026388D02*
X14760539Y-15969246D01*
X14760539Y-15969246D02*
X14770063Y-15950198D01*
X14770063Y-15950198D02*
X14779587Y-15940674D01*
X14779587Y-15940674D02*
X14798634Y-15931150D01*
X14798634Y-15931150D02*
X14827206Y-15931150D01*
X14827206Y-15931150D02*
X14846253Y-15940674D01*
X14846253Y-15940674D02*
X14855777Y-15950198D01*
X14855777Y-15950198D02*
X14865301Y-15969246D01*
X14865301Y-15969246D02*
X14865301Y-16026388D01*
X14865301Y-16026388D02*
X14855777Y-16045436D01*
X14855777Y-16045436D02*
X14846253Y-16054960D01*
X14846253Y-16054960D02*
X14827206Y-16064484D01*
X14827206Y-16064484D02*
X14798634Y-16064484D01*
X14979587Y-16064484D02*
X14960539Y-16054960D01*
X14960539Y-16054960D02*
X14951015Y-16035912D01*
X14951015Y-16035912D02*
X14951015Y-15864484D01*
X15131968Y-16054960D02*
X15112920Y-16064484D01*
X15112920Y-16064484D02*
X15074825Y-16064484D01*
X15074825Y-16064484D02*
X15055777Y-16054960D01*
X15055777Y-16054960D02*
X15046253Y-16035912D01*
X15046253Y-16035912D02*
X15046253Y-15959722D01*
X15046253Y-15959722D02*
X15055777Y-15940674D01*
X15055777Y-15940674D02*
X15074825Y-15931150D01*
X15074825Y-15931150D02*
X15112920Y-15931150D01*
X15112920Y-15931150D02*
X15131968Y-15940674D01*
X15131968Y-15940674D02*
X15141491Y-15959722D01*
X15141491Y-15959722D02*
X15141491Y-15978769D01*
X15141491Y-15978769D02*
X15046253Y-15997817D01*
X15217682Y-16054960D02*
X15236730Y-16064484D01*
X15236730Y-16064484D02*
X15274825Y-16064484D01*
X15274825Y-16064484D02*
X15293872Y-16054960D01*
X15293872Y-16054960D02*
X15303396Y-16035912D01*
X15303396Y-16035912D02*
X15303396Y-16026388D01*
X15303396Y-16026388D02*
X15293872Y-16007341D01*
X15293872Y-16007341D02*
X15274825Y-15997817D01*
X15274825Y-15997817D02*
X15246253Y-15997817D01*
X15246253Y-15997817D02*
X15227206Y-15988293D01*
X15227206Y-15988293D02*
X15217682Y-15969246D01*
X15217682Y-15969246D02*
X15217682Y-15959722D01*
X15217682Y-15959722D02*
X15227206Y-15940674D01*
X15227206Y-15940674D02*
X15246253Y-15931150D01*
X15246253Y-15931150D02*
X15274825Y-15931150D01*
X15274825Y-15931150D02*
X15293872Y-15940674D01*
X15370063Y-16140674D02*
X15379587Y-16131150D01*
X15379587Y-16131150D02*
X15398634Y-16102579D01*
X15398634Y-16102579D02*
X15408158Y-16083531D01*
X15408158Y-16083531D02*
X15417682Y-16054960D01*
X15417682Y-16054960D02*
X15427206Y-16007341D01*
X15427206Y-16007341D02*
X15427206Y-15969246D01*
X15427206Y-15969246D02*
X15417682Y-15921627D01*
X15417682Y-15921627D02*
X15408158Y-15893055D01*
X15408158Y-15893055D02*
X15398634Y-15874008D01*
X15398634Y-15874008D02*
X15379587Y-15845436D01*
X15379587Y-15845436D02*
X15370063Y-15835912D01*
D10*
X10580356Y-16272356D02*
X10580356Y-16201644D01*
X10509644Y-16201644D01*
X10509644Y-16272356D01*
X10580356Y-16272356D01*
D11*
X10960539Y-16328484D02*
X10846253Y-16328484D01*
X10903396Y-16328484D02*
X10903396Y-16128484D01*
X10903396Y-16128484D02*
X10884348Y-16157055D01*
X10884348Y-16157055D02*
X10865301Y-16176103D01*
X10865301Y-16176103D02*
X10846253Y-16185627D01*
X11046253Y-16309436D02*
X11055777Y-16318960D01*
X11055777Y-16318960D02*
X11046253Y-16328484D01*
X11046253Y-16328484D02*
X11036729Y-16318960D01*
X11036729Y-16318960D02*
X11046253Y-16309436D01*
X11046253Y-16309436D02*
X11046253Y-16328484D01*
X11179586Y-16128484D02*
X11198634Y-16128484D01*
X11198634Y-16128484D02*
X11217682Y-16138008D01*
X11217682Y-16138008D02*
X11227205Y-16147531D01*
X11227205Y-16147531D02*
X11236729Y-16166579D01*
X11236729Y-16166579D02*
X11246253Y-16204674D01*
X11246253Y-16204674D02*
X11246253Y-16252293D01*
X11246253Y-16252293D02*
X11236729Y-16290388D01*
X11236729Y-16290388D02*
X11227205Y-16309436D01*
X11227205Y-16309436D02*
X11217682Y-16318960D01*
X11217682Y-16318960D02*
X11198634Y-16328484D01*
X11198634Y-16328484D02*
X11179586Y-16328484D01*
X11179586Y-16328484D02*
X11160539Y-16318960D01*
X11160539Y-16318960D02*
X11151015Y-16309436D01*
X11151015Y-16309436D02*
X11141491Y-16290388D01*
X11141491Y-16290388D02*
X11131967Y-16252293D01*
X11131967Y-16252293D02*
X11131967Y-16204674D01*
X11131967Y-16204674D02*
X11141491Y-16166579D01*
X11141491Y-16166579D02*
X11151015Y-16147531D01*
X11151015Y-16147531D02*
X11160539Y-16138008D01*
X11160539Y-16138008D02*
X11179586Y-16128484D01*
X11370062Y-16128484D02*
X11389110Y-16128484D01*
X11389110Y-16128484D02*
X11408158Y-16138008D01*
X11408158Y-16138008D02*
X11417682Y-16147531D01*
X11417682Y-16147531D02*
X11427205Y-16166579D01*
X11427205Y-16166579D02*
X11436729Y-16204674D01*
X11436729Y-16204674D02*
X11436729Y-16252293D01*
X11436729Y-16252293D02*
X11427205Y-16290388D01*
X11427205Y-16290388D02*
X11417682Y-16309436D01*
X11417682Y-16309436D02*
X11408158Y-16318960D01*
X11408158Y-16318960D02*
X11389110Y-16328484D01*
X11389110Y-16328484D02*
X11370062Y-16328484D01*
X11370062Y-16328484D02*
X11351015Y-16318960D01*
X11351015Y-16318960D02*
X11341491Y-16309436D01*
X11341491Y-16309436D02*
X11331967Y-16290388D01*
X11331967Y-16290388D02*
X11322443Y-16252293D01*
X11322443Y-16252293D02*
X11322443Y-16204674D01*
X11322443Y-16204674D02*
X11331967Y-16166579D01*
X11331967Y-16166579D02*
X11341491Y-16147531D01*
X11341491Y-16147531D02*
X11351015Y-16138008D01*
X11351015Y-16138008D02*
X11370062Y-16128484D01*
X11560539Y-16128484D02*
X11579586Y-16128484D01*
X11579586Y-16128484D02*
X11598634Y-16138008D01*
X11598634Y-16138008D02*
X11608158Y-16147531D01*
X11608158Y-16147531D02*
X11617682Y-16166579D01*
X11617682Y-16166579D02*
X11627205Y-16204674D01*
X11627205Y-16204674D02*
X11627205Y-16252293D01*
X11627205Y-16252293D02*
X11617682Y-16290388D01*
X11617682Y-16290388D02*
X11608158Y-16309436D01*
X11608158Y-16309436D02*
X11598634Y-16318960D01*
X11598634Y-16318960D02*
X11579586Y-16328484D01*
X11579586Y-16328484D02*
X11560539Y-16328484D01*
X11560539Y-16328484D02*
X11541491Y-16318960D01*
X11541491Y-16318960D02*
X11531967Y-16309436D01*
X11531967Y-16309436D02*
X11522443Y-16290388D01*
X11522443Y-16290388D02*
X11512920Y-16252293D01*
X11512920Y-16252293D02*
X11512920Y-16204674D01*
X11512920Y-16204674D02*
X11522443Y-16166579D01*
X11522443Y-16166579D02*
X11531967Y-16147531D01*
X11531967Y-16147531D02*
X11541491Y-16138008D01*
X11541491Y-16138008D02*
X11560539Y-16128484D01*
X11712920Y-16328484D02*
X11712920Y-16195150D01*
X11712920Y-16214198D02*
X11722443Y-16204674D01*
X11722443Y-16204674D02*
X11741491Y-16195150D01*
X11741491Y-16195150D02*
X11770063Y-16195150D01*
X11770063Y-16195150D02*
X11789110Y-16204674D01*
X11789110Y-16204674D02*
X11798634Y-16223722D01*
X11798634Y-16223722D02*
X11798634Y-16328484D01*
X11798634Y-16223722D02*
X11808158Y-16204674D01*
X11808158Y-16204674D02*
X11827205Y-16195150D01*
X11827205Y-16195150D02*
X11855777Y-16195150D01*
X11855777Y-16195150D02*
X11874824Y-16204674D01*
X11874824Y-16204674D02*
X11884348Y-16223722D01*
X11884348Y-16223722D02*
X11884348Y-16328484D01*
X11979586Y-16328484D02*
X11979586Y-16195150D01*
X11979586Y-16214198D02*
X11989110Y-16204674D01*
X11989110Y-16204674D02*
X12008158Y-16195150D01*
X12008158Y-16195150D02*
X12036729Y-16195150D01*
X12036729Y-16195150D02*
X12055777Y-16204674D01*
X12055777Y-16204674D02*
X12065301Y-16223722D01*
X12065301Y-16223722D02*
X12065301Y-16328484D01*
X12065301Y-16223722D02*
X12074824Y-16204674D01*
X12074824Y-16204674D02*
X12093872Y-16195150D01*
X12093872Y-16195150D02*
X12122443Y-16195150D01*
X12122443Y-16195150D02*
X12141491Y-16204674D01*
X12141491Y-16204674D02*
X12151015Y-16223722D01*
X12151015Y-16223722D02*
X12151015Y-16328484D01*
X12541491Y-16118960D02*
X12370063Y-16376103D01*
X12798634Y-16128484D02*
X12817682Y-16128484D01*
X12817682Y-16128484D02*
X12836729Y-16138008D01*
X12836729Y-16138008D02*
X12846253Y-16147531D01*
X12846253Y-16147531D02*
X12855777Y-16166579D01*
X12855777Y-16166579D02*
X12865301Y-16204674D01*
X12865301Y-16204674D02*
X12865301Y-16252293D01*
X12865301Y-16252293D02*
X12855777Y-16290388D01*
X12855777Y-16290388D02*
X12846253Y-16309436D01*
X12846253Y-16309436D02*
X12836729Y-16318960D01*
X12836729Y-16318960D02*
X12817682Y-16328484D01*
X12817682Y-16328484D02*
X12798634Y-16328484D01*
X12798634Y-16328484D02*
X12779586Y-16318960D01*
X12779586Y-16318960D02*
X12770063Y-16309436D01*
X12770063Y-16309436D02*
X12760539Y-16290388D01*
X12760539Y-16290388D02*
X12751015Y-16252293D01*
X12751015Y-16252293D02*
X12751015Y-16204674D01*
X12751015Y-16204674D02*
X12760539Y-16166579D01*
X12760539Y-16166579D02*
X12770063Y-16147531D01*
X12770063Y-16147531D02*
X12779586Y-16138008D01*
X12779586Y-16138008D02*
X12798634Y-16128484D01*
X12951015Y-16309436D02*
X12960539Y-16318960D01*
X12960539Y-16318960D02*
X12951015Y-16328484D01*
X12951015Y-16328484D02*
X12941491Y-16318960D01*
X12941491Y-16318960D02*
X12951015Y-16309436D01*
X12951015Y-16309436D02*
X12951015Y-16328484D01*
X13084348Y-16128484D02*
X13103396Y-16128484D01*
X13103396Y-16128484D02*
X13122444Y-16138008D01*
X13122444Y-16138008D02*
X13131967Y-16147531D01*
X13131967Y-16147531D02*
X13141491Y-16166579D01*
X13141491Y-16166579D02*
X13151015Y-16204674D01*
X13151015Y-16204674D02*
X13151015Y-16252293D01*
X13151015Y-16252293D02*
X13141491Y-16290388D01*
X13141491Y-16290388D02*
X13131967Y-16309436D01*
X13131967Y-16309436D02*
X13122444Y-16318960D01*
X13122444Y-16318960D02*
X13103396Y-16328484D01*
X13103396Y-16328484D02*
X13084348Y-16328484D01*
X13084348Y-16328484D02*
X13065301Y-16318960D01*
X13065301Y-16318960D02*
X13055777Y-16309436D01*
X13055777Y-16309436D02*
X13046253Y-16290388D01*
X13046253Y-16290388D02*
X13036729Y-16252293D01*
X13036729Y-16252293D02*
X13036729Y-16204674D01*
X13036729Y-16204674D02*
X13046253Y-16166579D01*
X13046253Y-16166579D02*
X13055777Y-16147531D01*
X13055777Y-16147531D02*
X13065301Y-16138008D01*
X13065301Y-16138008D02*
X13084348Y-16128484D01*
X13217682Y-16128484D02*
X13341491Y-16128484D01*
X13341491Y-16128484D02*
X13274825Y-16204674D01*
X13274825Y-16204674D02*
X13303396Y-16204674D01*
X13303396Y-16204674D02*
X13322444Y-16214198D01*
X13322444Y-16214198D02*
X13331967Y-16223722D01*
X13331967Y-16223722D02*
X13341491Y-16242769D01*
X13341491Y-16242769D02*
X13341491Y-16290388D01*
X13341491Y-16290388D02*
X13331967Y-16309436D01*
X13331967Y-16309436D02*
X13322444Y-16318960D01*
X13322444Y-16318960D02*
X13303396Y-16328484D01*
X13303396Y-16328484D02*
X13246253Y-16328484D01*
X13246253Y-16328484D02*
X13227206Y-16318960D01*
X13227206Y-16318960D02*
X13217682Y-16309436D01*
X13436729Y-16328484D02*
X13474825Y-16328484D01*
X13474825Y-16328484D02*
X13493872Y-16318960D01*
X13493872Y-16318960D02*
X13503396Y-16309436D01*
X13503396Y-16309436D02*
X13522444Y-16280865D01*
X13522444Y-16280865D02*
X13531967Y-16242769D01*
X13531967Y-16242769D02*
X13531967Y-16166579D01*
X13531967Y-16166579D02*
X13522444Y-16147531D01*
X13522444Y-16147531D02*
X13512920Y-16138008D01*
X13512920Y-16138008D02*
X13493872Y-16128484D01*
X13493872Y-16128484D02*
X13455777Y-16128484D01*
X13455777Y-16128484D02*
X13436729Y-16138008D01*
X13436729Y-16138008D02*
X13427206Y-16147531D01*
X13427206Y-16147531D02*
X13417682Y-16166579D01*
X13417682Y-16166579D02*
X13417682Y-16214198D01*
X13417682Y-16214198D02*
X13427206Y-16233246D01*
X13427206Y-16233246D02*
X13436729Y-16242769D01*
X13436729Y-16242769D02*
X13455777Y-16252293D01*
X13455777Y-16252293D02*
X13493872Y-16252293D01*
X13493872Y-16252293D02*
X13512920Y-16242769D01*
X13512920Y-16242769D02*
X13522444Y-16233246D01*
X13522444Y-16233246D02*
X13531967Y-16214198D01*
X13703396Y-16195150D02*
X13703396Y-16328484D01*
X13655777Y-16118960D02*
X13608158Y-16261817D01*
X13608158Y-16261817D02*
X13731967Y-16261817D01*
X13798634Y-16128484D02*
X13798634Y-16166579D01*
X13874825Y-16128484D02*
X13874825Y-16166579D01*
X14170063Y-16404674D02*
X14160539Y-16395150D01*
X14160539Y-16395150D02*
X14141491Y-16366579D01*
X14141491Y-16366579D02*
X14131968Y-16347531D01*
X14131968Y-16347531D02*
X14122444Y-16318960D01*
X14122444Y-16318960D02*
X14112920Y-16271341D01*
X14112920Y-16271341D02*
X14112920Y-16233246D01*
X14112920Y-16233246D02*
X14122444Y-16185627D01*
X14122444Y-16185627D02*
X14131968Y-16157055D01*
X14131968Y-16157055D02*
X14141491Y-16138008D01*
X14141491Y-16138008D02*
X14160539Y-16109436D01*
X14160539Y-16109436D02*
X14170063Y-16099912D01*
X14351015Y-16328484D02*
X14236729Y-16328484D01*
X14293872Y-16328484D02*
X14293872Y-16128484D01*
X14293872Y-16128484D02*
X14274825Y-16157055D01*
X14274825Y-16157055D02*
X14255777Y-16176103D01*
X14255777Y-16176103D02*
X14236729Y-16185627D01*
X14446253Y-16328484D02*
X14484348Y-16328484D01*
X14484348Y-16328484D02*
X14503396Y-16318960D01*
X14503396Y-16318960D02*
X14512920Y-16309436D01*
X14512920Y-16309436D02*
X14531968Y-16280865D01*
X14531968Y-16280865D02*
X14541491Y-16242769D01*
X14541491Y-16242769D02*
X14541491Y-16166579D01*
X14541491Y-16166579D02*
X14531968Y-16147531D01*
X14531968Y-16147531D02*
X14522444Y-16138008D01*
X14522444Y-16138008D02*
X14503396Y-16128484D01*
X14503396Y-16128484D02*
X14465301Y-16128484D01*
X14465301Y-16128484D02*
X14446253Y-16138008D01*
X14446253Y-16138008D02*
X14436729Y-16147531D01*
X14436729Y-16147531D02*
X14427206Y-16166579D01*
X14427206Y-16166579D02*
X14427206Y-16214198D01*
X14427206Y-16214198D02*
X14436729Y-16233246D01*
X14436729Y-16233246D02*
X14446253Y-16242769D01*
X14446253Y-16242769D02*
X14465301Y-16252293D01*
X14465301Y-16252293D02*
X14503396Y-16252293D01*
X14503396Y-16252293D02*
X14522444Y-16242769D01*
X14522444Y-16242769D02*
X14531968Y-16233246D01*
X14531968Y-16233246D02*
X14541491Y-16214198D01*
X14617682Y-16147531D02*
X14627206Y-16138008D01*
X14627206Y-16138008D02*
X14646253Y-16128484D01*
X14646253Y-16128484D02*
X14693872Y-16128484D01*
X14693872Y-16128484D02*
X14712920Y-16138008D01*
X14712920Y-16138008D02*
X14722444Y-16147531D01*
X14722444Y-16147531D02*
X14731968Y-16166579D01*
X14731968Y-16166579D02*
X14731968Y-16185627D01*
X14731968Y-16185627D02*
X14722444Y-16214198D01*
X14722444Y-16214198D02*
X14608158Y-16328484D01*
X14608158Y-16328484D02*
X14731968Y-16328484D01*
X14970063Y-16328484D02*
X14970063Y-16128484D01*
X15055777Y-16328484D02*
X15055777Y-16223722D01*
X15055777Y-16223722D02*
X15046253Y-16204674D01*
X15046253Y-16204674D02*
X15027206Y-16195150D01*
X15027206Y-16195150D02*
X14998634Y-16195150D01*
X14998634Y-16195150D02*
X14979587Y-16204674D01*
X14979587Y-16204674D02*
X14970063Y-16214198D01*
X15179587Y-16328484D02*
X15160539Y-16318960D01*
X15160539Y-16318960D02*
X15151015Y-16309436D01*
X15151015Y-16309436D02*
X15141491Y-16290388D01*
X15141491Y-16290388D02*
X15141491Y-16233246D01*
X15141491Y-16233246D02*
X15151015Y-16214198D01*
X15151015Y-16214198D02*
X15160539Y-16204674D01*
X15160539Y-16204674D02*
X15179587Y-16195150D01*
X15179587Y-16195150D02*
X15208158Y-16195150D01*
X15208158Y-16195150D02*
X15227206Y-16204674D01*
X15227206Y-16204674D02*
X15236730Y-16214198D01*
X15236730Y-16214198D02*
X15246253Y-16233246D01*
X15246253Y-16233246D02*
X15246253Y-16290388D01*
X15246253Y-16290388D02*
X15236730Y-16309436D01*
X15236730Y-16309436D02*
X15227206Y-16318960D01*
X15227206Y-16318960D02*
X15208158Y-16328484D01*
X15208158Y-16328484D02*
X15179587Y-16328484D01*
X15360539Y-16328484D02*
X15341491Y-16318960D01*
X15341491Y-16318960D02*
X15331968Y-16299912D01*
X15331968Y-16299912D02*
X15331968Y-16128484D01*
X15512920Y-16318960D02*
X15493872Y-16328484D01*
X15493872Y-16328484D02*
X15455777Y-16328484D01*
X15455777Y-16328484D02*
X15436730Y-16318960D01*
X15436730Y-16318960D02*
X15427206Y-16299912D01*
X15427206Y-16299912D02*
X15427206Y-16223722D01*
X15427206Y-16223722D02*
X15436730Y-16204674D01*
X15436730Y-16204674D02*
X15455777Y-16195150D01*
X15455777Y-16195150D02*
X15493872Y-16195150D01*
X15493872Y-16195150D02*
X15512920Y-16204674D01*
X15512920Y-16204674D02*
X15522444Y-16223722D01*
X15522444Y-16223722D02*
X15522444Y-16242769D01*
X15522444Y-16242769D02*
X15427206Y-16261817D01*
X15598634Y-16318960D02*
X15617682Y-16328484D01*
X15617682Y-16328484D02*
X15655777Y-16328484D01*
X15655777Y-16328484D02*
X15674825Y-16318960D01*
X15674825Y-16318960D02*
X15684349Y-16299912D01*
X15684349Y-16299912D02*
X15684349Y-16290388D01*
X15684349Y-16290388D02*
X15674825Y-16271341D01*
X15674825Y-16271341D02*
X15655777Y-16261817D01*
X15655777Y-16261817D02*
X15627206Y-16261817D01*
X15627206Y-16261817D02*
X15608158Y-16252293D01*
X15608158Y-16252293D02*
X15598634Y-16233246D01*
X15598634Y-16233246D02*
X15598634Y-16223722D01*
X15598634Y-16223722D02*
X15608158Y-16204674D01*
X15608158Y-16204674D02*
X15627206Y-16195150D01*
X15627206Y-16195150D02*
X15655777Y-16195150D01*
X15655777Y-16195150D02*
X15674825Y-16204674D01*
X15922444Y-16252293D02*
X16074825Y-16252293D01*
X15998634Y-16328484D02*
X15998634Y-16176103D01*
X16303396Y-16128484D02*
X16427206Y-16128484D01*
X16427206Y-16128484D02*
X16360539Y-16204674D01*
X16360539Y-16204674D02*
X16389111Y-16204674D01*
X16389111Y-16204674D02*
X16408158Y-16214198D01*
X16408158Y-16214198D02*
X16417682Y-16223722D01*
X16417682Y-16223722D02*
X16427206Y-16242769D01*
X16427206Y-16242769D02*
X16427206Y-16290388D01*
X16427206Y-16290388D02*
X16417682Y-16309436D01*
X16417682Y-16309436D02*
X16408158Y-16318960D01*
X16408158Y-16318960D02*
X16389111Y-16328484D01*
X16389111Y-16328484D02*
X16331968Y-16328484D01*
X16331968Y-16328484D02*
X16312920Y-16318960D01*
X16312920Y-16318960D02*
X16303396Y-16309436D01*
X16655777Y-16318960D02*
X16674825Y-16328484D01*
X16674825Y-16328484D02*
X16712920Y-16328484D01*
X16712920Y-16328484D02*
X16731968Y-16318960D01*
X16731968Y-16318960D02*
X16741492Y-16299912D01*
X16741492Y-16299912D02*
X16741492Y-16290388D01*
X16741492Y-16290388D02*
X16731968Y-16271341D01*
X16731968Y-16271341D02*
X16712920Y-16261817D01*
X16712920Y-16261817D02*
X16684349Y-16261817D01*
X16684349Y-16261817D02*
X16665301Y-16252293D01*
X16665301Y-16252293D02*
X16655777Y-16233246D01*
X16655777Y-16233246D02*
X16655777Y-16223722D01*
X16655777Y-16223722D02*
X16665301Y-16204674D01*
X16665301Y-16204674D02*
X16684349Y-16195150D01*
X16684349Y-16195150D02*
X16712920Y-16195150D01*
X16712920Y-16195150D02*
X16731968Y-16204674D01*
X16855777Y-16328484D02*
X16836730Y-16318960D01*
X16836730Y-16318960D02*
X16827206Y-16299912D01*
X16827206Y-16299912D02*
X16827206Y-16128484D01*
X16960539Y-16328484D02*
X16941492Y-16318960D01*
X16941492Y-16318960D02*
X16931968Y-16309436D01*
X16931968Y-16309436D02*
X16922444Y-16290388D01*
X16922444Y-16290388D02*
X16922444Y-16233246D01*
X16922444Y-16233246D02*
X16931968Y-16214198D01*
X16931968Y-16214198D02*
X16941492Y-16204674D01*
X16941492Y-16204674D02*
X16960539Y-16195150D01*
X16960539Y-16195150D02*
X16989111Y-16195150D01*
X16989111Y-16195150D02*
X17008158Y-16204674D01*
X17008158Y-16204674D02*
X17017682Y-16214198D01*
X17017682Y-16214198D02*
X17027206Y-16233246D01*
X17027206Y-16233246D02*
X17027206Y-16290388D01*
X17027206Y-16290388D02*
X17017682Y-16309436D01*
X17017682Y-16309436D02*
X17008158Y-16318960D01*
X17008158Y-16318960D02*
X16989111Y-16328484D01*
X16989111Y-16328484D02*
X16960539Y-16328484D01*
X17084349Y-16195150D02*
X17160539Y-16195150D01*
X17112920Y-16128484D02*
X17112920Y-16299912D01*
X17112920Y-16299912D02*
X17122444Y-16318960D01*
X17122444Y-16318960D02*
X17141492Y-16328484D01*
X17141492Y-16328484D02*
X17160539Y-16328484D01*
X17217682Y-16318960D02*
X17236730Y-16328484D01*
X17236730Y-16328484D02*
X17274825Y-16328484D01*
X17274825Y-16328484D02*
X17293873Y-16318960D01*
X17293873Y-16318960D02*
X17303397Y-16299912D01*
X17303397Y-16299912D02*
X17303397Y-16290388D01*
X17303397Y-16290388D02*
X17293873Y-16271341D01*
X17293873Y-16271341D02*
X17274825Y-16261817D01*
X17274825Y-16261817D02*
X17246254Y-16261817D01*
X17246254Y-16261817D02*
X17227206Y-16252293D01*
X17227206Y-16252293D02*
X17217682Y-16233246D01*
X17217682Y-16233246D02*
X17217682Y-16223722D01*
X17217682Y-16223722D02*
X17227206Y-16204674D01*
X17227206Y-16204674D02*
X17246254Y-16195150D01*
X17246254Y-16195150D02*
X17274825Y-16195150D01*
X17274825Y-16195150D02*
X17293873Y-16204674D01*
X17370063Y-16404674D02*
X17379587Y-16395150D01*
X17379587Y-16395150D02*
X17398635Y-16366579D01*
X17398635Y-16366579D02*
X17408158Y-16347531D01*
X17408158Y-16347531D02*
X17417682Y-16318960D01*
X17417682Y-16318960D02*
X17427206Y-16271341D01*
X17427206Y-16271341D02*
X17427206Y-16233246D01*
X17427206Y-16233246D02*
X17417682Y-16185627D01*
X17417682Y-16185627D02*
X17408158Y-16157055D01*
X17408158Y-16157055D02*
X17398635Y-16138008D01*
X17398635Y-16138008D02*
X17379587Y-16109436D01*
X17379587Y-16109436D02*
X17370063Y-16099912D01*
D12*
X10540000Y-16556000D02*
X10595000Y-16501000D01*
X10540000Y-16446000D01*
X10485000Y-16501000D01*
X10540000Y-16556000D01*
D11*
X10960539Y-16592484D02*
X10846253Y-16592484D01*
X10903396Y-16592484D02*
X10903396Y-16392484D01*
X10903396Y-16392484D02*
X10884348Y-16421055D01*
X10884348Y-16421055D02*
X10865301Y-16440103D01*
X10865301Y-16440103D02*
X10846253Y-16449627D01*
X11046253Y-16573436D02*
X11055777Y-16582960D01*
X11055777Y-16582960D02*
X11046253Y-16592484D01*
X11046253Y-16592484D02*
X11036729Y-16582960D01*
X11036729Y-16582960D02*
X11046253Y-16573436D01*
X11046253Y-16573436D02*
X11046253Y-16592484D01*
X11246253Y-16592484D02*
X11131967Y-16592484D01*
X11189110Y-16592484D02*
X11189110Y-16392484D01*
X11189110Y-16392484D02*
X11170063Y-16421055D01*
X11170063Y-16421055D02*
X11151015Y-16440103D01*
X11151015Y-16440103D02*
X11131967Y-16449627D01*
X11370062Y-16392484D02*
X11389110Y-16392484D01*
X11389110Y-16392484D02*
X11408158Y-16402008D01*
X11408158Y-16402008D02*
X11417682Y-16411531D01*
X11417682Y-16411531D02*
X11427205Y-16430579D01*
X11427205Y-16430579D02*
X11436729Y-16468674D01*
X11436729Y-16468674D02*
X11436729Y-16516293D01*
X11436729Y-16516293D02*
X11427205Y-16554388D01*
X11427205Y-16554388D02*
X11417682Y-16573436D01*
X11417682Y-16573436D02*
X11408158Y-16582960D01*
X11408158Y-16582960D02*
X11389110Y-16592484D01*
X11389110Y-16592484D02*
X11370062Y-16592484D01*
X11370062Y-16592484D02*
X11351015Y-16582960D01*
X11351015Y-16582960D02*
X11341491Y-16573436D01*
X11341491Y-16573436D02*
X11331967Y-16554388D01*
X11331967Y-16554388D02*
X11322443Y-16516293D01*
X11322443Y-16516293D02*
X11322443Y-16468674D01*
X11322443Y-16468674D02*
X11331967Y-16430579D01*
X11331967Y-16430579D02*
X11341491Y-16411531D01*
X11341491Y-16411531D02*
X11351015Y-16402008D01*
X11351015Y-16402008D02*
X11370062Y-16392484D01*
X11560539Y-16392484D02*
X11579586Y-16392484D01*
X11579586Y-16392484D02*
X11598634Y-16402008D01*
X11598634Y-16402008D02*
X11608158Y-16411531D01*
X11608158Y-16411531D02*
X11617682Y-16430579D01*
X11617682Y-16430579D02*
X11627205Y-16468674D01*
X11627205Y-16468674D02*
X11627205Y-16516293D01*
X11627205Y-16516293D02*
X11617682Y-16554388D01*
X11617682Y-16554388D02*
X11608158Y-16573436D01*
X11608158Y-16573436D02*
X11598634Y-16582960D01*
X11598634Y-16582960D02*
X11579586Y-16592484D01*
X11579586Y-16592484D02*
X11560539Y-16592484D01*
X11560539Y-16592484D02*
X11541491Y-16582960D01*
X11541491Y-16582960D02*
X11531967Y-16573436D01*
X11531967Y-16573436D02*
X11522443Y-16554388D01*
X11522443Y-16554388D02*
X11512920Y-16516293D01*
X11512920Y-16516293D02*
X11512920Y-16468674D01*
X11512920Y-16468674D02*
X11522443Y-16430579D01*
X11522443Y-16430579D02*
X11531967Y-16411531D01*
X11531967Y-16411531D02*
X11541491Y-16402008D01*
X11541491Y-16402008D02*
X11560539Y-16392484D01*
X11712920Y-16592484D02*
X11712920Y-16459150D01*
X11712920Y-16478198D02*
X11722443Y-16468674D01*
X11722443Y-16468674D02*
X11741491Y-16459150D01*
X11741491Y-16459150D02*
X11770063Y-16459150D01*
X11770063Y-16459150D02*
X11789110Y-16468674D01*
X11789110Y-16468674D02*
X11798634Y-16487722D01*
X11798634Y-16487722D02*
X11798634Y-16592484D01*
X11798634Y-16487722D02*
X11808158Y-16468674D01*
X11808158Y-16468674D02*
X11827205Y-16459150D01*
X11827205Y-16459150D02*
X11855777Y-16459150D01*
X11855777Y-16459150D02*
X11874824Y-16468674D01*
X11874824Y-16468674D02*
X11884348Y-16487722D01*
X11884348Y-16487722D02*
X11884348Y-16592484D01*
X11979586Y-16592484D02*
X11979586Y-16459150D01*
X11979586Y-16478198D02*
X11989110Y-16468674D01*
X11989110Y-16468674D02*
X12008158Y-16459150D01*
X12008158Y-16459150D02*
X12036729Y-16459150D01*
X12036729Y-16459150D02*
X12055777Y-16468674D01*
X12055777Y-16468674D02*
X12065301Y-16487722D01*
X12065301Y-16487722D02*
X12065301Y-16592484D01*
X12065301Y-16487722D02*
X12074824Y-16468674D01*
X12074824Y-16468674D02*
X12093872Y-16459150D01*
X12093872Y-16459150D02*
X12122443Y-16459150D01*
X12122443Y-16459150D02*
X12141491Y-16468674D01*
X12141491Y-16468674D02*
X12151015Y-16487722D01*
X12151015Y-16487722D02*
X12151015Y-16592484D01*
X12541491Y-16382960D02*
X12370063Y-16640103D01*
X12798634Y-16392484D02*
X12817682Y-16392484D01*
X12817682Y-16392484D02*
X12836729Y-16402008D01*
X12836729Y-16402008D02*
X12846253Y-16411531D01*
X12846253Y-16411531D02*
X12855777Y-16430579D01*
X12855777Y-16430579D02*
X12865301Y-16468674D01*
X12865301Y-16468674D02*
X12865301Y-16516293D01*
X12865301Y-16516293D02*
X12855777Y-16554388D01*
X12855777Y-16554388D02*
X12846253Y-16573436D01*
X12846253Y-16573436D02*
X12836729Y-16582960D01*
X12836729Y-16582960D02*
X12817682Y-16592484D01*
X12817682Y-16592484D02*
X12798634Y-16592484D01*
X12798634Y-16592484D02*
X12779586Y-16582960D01*
X12779586Y-16582960D02*
X12770063Y-16573436D01*
X12770063Y-16573436D02*
X12760539Y-16554388D01*
X12760539Y-16554388D02*
X12751015Y-16516293D01*
X12751015Y-16516293D02*
X12751015Y-16468674D01*
X12751015Y-16468674D02*
X12760539Y-16430579D01*
X12760539Y-16430579D02*
X12770063Y-16411531D01*
X12770063Y-16411531D02*
X12779586Y-16402008D01*
X12779586Y-16402008D02*
X12798634Y-16392484D01*
X12951015Y-16573436D02*
X12960539Y-16582960D01*
X12960539Y-16582960D02*
X12951015Y-16592484D01*
X12951015Y-16592484D02*
X12941491Y-16582960D01*
X12941491Y-16582960D02*
X12951015Y-16573436D01*
X12951015Y-16573436D02*
X12951015Y-16592484D01*
X13084348Y-16392484D02*
X13103396Y-16392484D01*
X13103396Y-16392484D02*
X13122444Y-16402008D01*
X13122444Y-16402008D02*
X13131967Y-16411531D01*
X13131967Y-16411531D02*
X13141491Y-16430579D01*
X13141491Y-16430579D02*
X13151015Y-16468674D01*
X13151015Y-16468674D02*
X13151015Y-16516293D01*
X13151015Y-16516293D02*
X13141491Y-16554388D01*
X13141491Y-16554388D02*
X13131967Y-16573436D01*
X13131967Y-16573436D02*
X13122444Y-16582960D01*
X13122444Y-16582960D02*
X13103396Y-16592484D01*
X13103396Y-16592484D02*
X13084348Y-16592484D01*
X13084348Y-16592484D02*
X13065301Y-16582960D01*
X13065301Y-16582960D02*
X13055777Y-16573436D01*
X13055777Y-16573436D02*
X13046253Y-16554388D01*
X13046253Y-16554388D02*
X13036729Y-16516293D01*
X13036729Y-16516293D02*
X13036729Y-16468674D01*
X13036729Y-16468674D02*
X13046253Y-16430579D01*
X13046253Y-16430579D02*
X13055777Y-16411531D01*
X13055777Y-16411531D02*
X13065301Y-16402008D01*
X13065301Y-16402008D02*
X13084348Y-16392484D01*
X13322444Y-16459150D02*
X13322444Y-16592484D01*
X13274825Y-16382960D02*
X13227206Y-16525817D01*
X13227206Y-16525817D02*
X13351015Y-16525817D01*
X13408158Y-16392484D02*
X13531967Y-16392484D01*
X13531967Y-16392484D02*
X13465301Y-16468674D01*
X13465301Y-16468674D02*
X13493872Y-16468674D01*
X13493872Y-16468674D02*
X13512920Y-16478198D01*
X13512920Y-16478198D02*
X13522444Y-16487722D01*
X13522444Y-16487722D02*
X13531967Y-16506769D01*
X13531967Y-16506769D02*
X13531967Y-16554388D01*
X13531967Y-16554388D02*
X13522444Y-16573436D01*
X13522444Y-16573436D02*
X13512920Y-16582960D01*
X13512920Y-16582960D02*
X13493872Y-16592484D01*
X13493872Y-16592484D02*
X13436729Y-16592484D01*
X13436729Y-16592484D02*
X13417682Y-16582960D01*
X13417682Y-16582960D02*
X13408158Y-16573436D01*
X13598634Y-16392484D02*
X13722444Y-16392484D01*
X13722444Y-16392484D02*
X13655777Y-16468674D01*
X13655777Y-16468674D02*
X13684348Y-16468674D01*
X13684348Y-16468674D02*
X13703396Y-16478198D01*
X13703396Y-16478198D02*
X13712920Y-16487722D01*
X13712920Y-16487722D02*
X13722444Y-16506769D01*
X13722444Y-16506769D02*
X13722444Y-16554388D01*
X13722444Y-16554388D02*
X13712920Y-16573436D01*
X13712920Y-16573436D02*
X13703396Y-16582960D01*
X13703396Y-16582960D02*
X13684348Y-16592484D01*
X13684348Y-16592484D02*
X13627206Y-16592484D01*
X13627206Y-16592484D02*
X13608158Y-16582960D01*
X13608158Y-16582960D02*
X13598634Y-16573436D01*
X13798634Y-16392484D02*
X13798634Y-16430579D01*
X13874825Y-16392484D02*
X13874825Y-16430579D01*
X14170063Y-16668674D02*
X14160539Y-16659150D01*
X14160539Y-16659150D02*
X14141491Y-16630579D01*
X14141491Y-16630579D02*
X14131968Y-16611531D01*
X14131968Y-16611531D02*
X14122444Y-16582960D01*
X14122444Y-16582960D02*
X14112920Y-16535341D01*
X14112920Y-16535341D02*
X14112920Y-16497246D01*
X14112920Y-16497246D02*
X14122444Y-16449627D01*
X14122444Y-16449627D02*
X14131968Y-16421055D01*
X14131968Y-16421055D02*
X14141491Y-16402008D01*
X14141491Y-16402008D02*
X14160539Y-16373436D01*
X14160539Y-16373436D02*
X14170063Y-16363912D01*
X14331968Y-16459150D02*
X14331968Y-16592484D01*
X14284348Y-16382960D02*
X14236729Y-16525817D01*
X14236729Y-16525817D02*
X14360539Y-16525817D01*
X14589110Y-16592484D02*
X14589110Y-16392484D01*
X14674825Y-16592484D02*
X14674825Y-16487722D01*
X14674825Y-16487722D02*
X14665301Y-16468674D01*
X14665301Y-16468674D02*
X14646253Y-16459150D01*
X14646253Y-16459150D02*
X14617682Y-16459150D01*
X14617682Y-16459150D02*
X14598634Y-16468674D01*
X14598634Y-16468674D02*
X14589110Y-16478198D01*
X14798634Y-16592484D02*
X14779587Y-16582960D01*
X14779587Y-16582960D02*
X14770063Y-16573436D01*
X14770063Y-16573436D02*
X14760539Y-16554388D01*
X14760539Y-16554388D02*
X14760539Y-16497246D01*
X14760539Y-16497246D02*
X14770063Y-16478198D01*
X14770063Y-16478198D02*
X14779587Y-16468674D01*
X14779587Y-16468674D02*
X14798634Y-16459150D01*
X14798634Y-16459150D02*
X14827206Y-16459150D01*
X14827206Y-16459150D02*
X14846253Y-16468674D01*
X14846253Y-16468674D02*
X14855777Y-16478198D01*
X14855777Y-16478198D02*
X14865301Y-16497246D01*
X14865301Y-16497246D02*
X14865301Y-16554388D01*
X14865301Y-16554388D02*
X14855777Y-16573436D01*
X14855777Y-16573436D02*
X14846253Y-16582960D01*
X14846253Y-16582960D02*
X14827206Y-16592484D01*
X14827206Y-16592484D02*
X14798634Y-16592484D01*
X14979587Y-16592484D02*
X14960539Y-16582960D01*
X14960539Y-16582960D02*
X14951015Y-16563912D01*
X14951015Y-16563912D02*
X14951015Y-16392484D01*
X15131968Y-16582960D02*
X15112920Y-16592484D01*
X15112920Y-16592484D02*
X15074825Y-16592484D01*
X15074825Y-16592484D02*
X15055777Y-16582960D01*
X15055777Y-16582960D02*
X15046253Y-16563912D01*
X15046253Y-16563912D02*
X15046253Y-16487722D01*
X15046253Y-16487722D02*
X15055777Y-16468674D01*
X15055777Y-16468674D02*
X15074825Y-16459150D01*
X15074825Y-16459150D02*
X15112920Y-16459150D01*
X15112920Y-16459150D02*
X15131968Y-16468674D01*
X15131968Y-16468674D02*
X15141491Y-16487722D01*
X15141491Y-16487722D02*
X15141491Y-16506769D01*
X15141491Y-16506769D02*
X15046253Y-16525817D01*
X15217682Y-16582960D02*
X15236730Y-16592484D01*
X15236730Y-16592484D02*
X15274825Y-16592484D01*
X15274825Y-16592484D02*
X15293872Y-16582960D01*
X15293872Y-16582960D02*
X15303396Y-16563912D01*
X15303396Y-16563912D02*
X15303396Y-16554388D01*
X15303396Y-16554388D02*
X15293872Y-16535341D01*
X15293872Y-16535341D02*
X15274825Y-16525817D01*
X15274825Y-16525817D02*
X15246253Y-16525817D01*
X15246253Y-16525817D02*
X15227206Y-16516293D01*
X15227206Y-16516293D02*
X15217682Y-16497246D01*
X15217682Y-16497246D02*
X15217682Y-16487722D01*
X15217682Y-16487722D02*
X15227206Y-16468674D01*
X15227206Y-16468674D02*
X15246253Y-16459150D01*
X15246253Y-16459150D02*
X15274825Y-16459150D01*
X15274825Y-16459150D02*
X15293872Y-16468674D01*
X15370063Y-16668674D02*
X15379587Y-16659150D01*
X15379587Y-16659150D02*
X15398634Y-16630579D01*
X15398634Y-16630579D02*
X15408158Y-16611531D01*
X15408158Y-16611531D02*
X15417682Y-16582960D01*
X15417682Y-16582960D02*
X15427206Y-16535341D01*
X15427206Y-16535341D02*
X15427206Y-16497246D01*
X15427206Y-16497246D02*
X15417682Y-16449627D01*
X15417682Y-16449627D02*
X15408158Y-16421055D01*
X15408158Y-16421055D02*
X15398634Y-16402008D01*
X15398634Y-16402008D02*
X15379587Y-16373436D01*
X15379587Y-16373436D02*
X15370063Y-16363912D01*
D13*
X10475000Y-16705000D02*
X10595000Y-16825000D01*
X10595000Y-16705000D02*
X10475000Y-16825000D01*
X10595000Y-16765000D02*
G75*
G02*
X10475000Y-16765000I-60000J0D01*
G01*
X10475000Y-16765000D02*
G75*
G02*
X10595000Y-16765000I60000J0D01*
G01*
D11*
X10960539Y-16856484D02*
X10846253Y-16856484D01*
X10903396Y-16856484D02*
X10903396Y-16656484D01*
X10903396Y-16656484D02*
X10884348Y-16685055D01*
X10884348Y-16685055D02*
X10865301Y-16704103D01*
X10865301Y-16704103D02*
X10846253Y-16713627D01*
X11046253Y-16837436D02*
X11055777Y-16846960D01*
X11055777Y-16846960D02*
X11046253Y-16856484D01*
X11046253Y-16856484D02*
X11036729Y-16846960D01*
X11036729Y-16846960D02*
X11046253Y-16837436D01*
X11046253Y-16837436D02*
X11046253Y-16856484D01*
X11131967Y-16675531D02*
X11141491Y-16666008D01*
X11141491Y-16666008D02*
X11160539Y-16656484D01*
X11160539Y-16656484D02*
X11208158Y-16656484D01*
X11208158Y-16656484D02*
X11227205Y-16666008D01*
X11227205Y-16666008D02*
X11236729Y-16675531D01*
X11236729Y-16675531D02*
X11246253Y-16694579D01*
X11246253Y-16694579D02*
X11246253Y-16713627D01*
X11246253Y-16713627D02*
X11236729Y-16742198D01*
X11236729Y-16742198D02*
X11122444Y-16856484D01*
X11122444Y-16856484D02*
X11246253Y-16856484D01*
X11370062Y-16656484D02*
X11389110Y-16656484D01*
X11389110Y-16656484D02*
X11408158Y-16666008D01*
X11408158Y-16666008D02*
X11417682Y-16675531D01*
X11417682Y-16675531D02*
X11427205Y-16694579D01*
X11427205Y-16694579D02*
X11436729Y-16732674D01*
X11436729Y-16732674D02*
X11436729Y-16780293D01*
X11436729Y-16780293D02*
X11427205Y-16818389D01*
X11427205Y-16818389D02*
X11417682Y-16837436D01*
X11417682Y-16837436D02*
X11408158Y-16846960D01*
X11408158Y-16846960D02*
X11389110Y-16856484D01*
X11389110Y-16856484D02*
X11370062Y-16856484D01*
X11370062Y-16856484D02*
X11351015Y-16846960D01*
X11351015Y-16846960D02*
X11341491Y-16837436D01*
X11341491Y-16837436D02*
X11331967Y-16818389D01*
X11331967Y-16818389D02*
X11322443Y-16780293D01*
X11322443Y-16780293D02*
X11322443Y-16732674D01*
X11322443Y-16732674D02*
X11331967Y-16694579D01*
X11331967Y-16694579D02*
X11341491Y-16675531D01*
X11341491Y-16675531D02*
X11351015Y-16666008D01*
X11351015Y-16666008D02*
X11370062Y-16656484D01*
X11560539Y-16656484D02*
X11579586Y-16656484D01*
X11579586Y-16656484D02*
X11598634Y-16666008D01*
X11598634Y-16666008D02*
X11608158Y-16675531D01*
X11608158Y-16675531D02*
X11617682Y-16694579D01*
X11617682Y-16694579D02*
X11627205Y-16732674D01*
X11627205Y-16732674D02*
X11627205Y-16780293D01*
X11627205Y-16780293D02*
X11617682Y-16818389D01*
X11617682Y-16818389D02*
X11608158Y-16837436D01*
X11608158Y-16837436D02*
X11598634Y-16846960D01*
X11598634Y-16846960D02*
X11579586Y-16856484D01*
X11579586Y-16856484D02*
X11560539Y-16856484D01*
X11560539Y-16856484D02*
X11541491Y-16846960D01*
X11541491Y-16846960D02*
X11531967Y-16837436D01*
X11531967Y-16837436D02*
X11522443Y-16818389D01*
X11522443Y-16818389D02*
X11512920Y-16780293D01*
X11512920Y-16780293D02*
X11512920Y-16732674D01*
X11512920Y-16732674D02*
X11522443Y-16694579D01*
X11522443Y-16694579D02*
X11531967Y-16675531D01*
X11531967Y-16675531D02*
X11541491Y-16666008D01*
X11541491Y-16666008D02*
X11560539Y-16656484D01*
X11712920Y-16856484D02*
X11712920Y-16723150D01*
X11712920Y-16742198D02*
X11722443Y-16732674D01*
X11722443Y-16732674D02*
X11741491Y-16723150D01*
X11741491Y-16723150D02*
X11770063Y-16723150D01*
X11770063Y-16723150D02*
X11789110Y-16732674D01*
X11789110Y-16732674D02*
X11798634Y-16751722D01*
X11798634Y-16751722D02*
X11798634Y-16856484D01*
X11798634Y-16751722D02*
X11808158Y-16732674D01*
X11808158Y-16732674D02*
X11827205Y-16723150D01*
X11827205Y-16723150D02*
X11855777Y-16723150D01*
X11855777Y-16723150D02*
X11874824Y-16732674D01*
X11874824Y-16732674D02*
X11884348Y-16751722D01*
X11884348Y-16751722D02*
X11884348Y-16856484D01*
X11979586Y-16856484D02*
X11979586Y-16723150D01*
X11979586Y-16742198D02*
X11989110Y-16732674D01*
X11989110Y-16732674D02*
X12008158Y-16723150D01*
X12008158Y-16723150D02*
X12036729Y-16723150D01*
X12036729Y-16723150D02*
X12055777Y-16732674D01*
X12055777Y-16732674D02*
X12065301Y-16751722D01*
X12065301Y-16751722D02*
X12065301Y-16856484D01*
X12065301Y-16751722D02*
X12074824Y-16732674D01*
X12074824Y-16732674D02*
X12093872Y-16723150D01*
X12093872Y-16723150D02*
X12122443Y-16723150D01*
X12122443Y-16723150D02*
X12141491Y-16732674D01*
X12141491Y-16732674D02*
X12151015Y-16751722D01*
X12151015Y-16751722D02*
X12151015Y-16856484D01*
X12541491Y-16646960D02*
X12370063Y-16904103D01*
X12798634Y-16656484D02*
X12817682Y-16656484D01*
X12817682Y-16656484D02*
X12836729Y-16666008D01*
X12836729Y-16666008D02*
X12846253Y-16675531D01*
X12846253Y-16675531D02*
X12855777Y-16694579D01*
X12855777Y-16694579D02*
X12865301Y-16732674D01*
X12865301Y-16732674D02*
X12865301Y-16780293D01*
X12865301Y-16780293D02*
X12855777Y-16818389D01*
X12855777Y-16818389D02*
X12846253Y-16837436D01*
X12846253Y-16837436D02*
X12836729Y-16846960D01*
X12836729Y-16846960D02*
X12817682Y-16856484D01*
X12817682Y-16856484D02*
X12798634Y-16856484D01*
X12798634Y-16856484D02*
X12779586Y-16846960D01*
X12779586Y-16846960D02*
X12770063Y-16837436D01*
X12770063Y-16837436D02*
X12760539Y-16818389D01*
X12760539Y-16818389D02*
X12751015Y-16780293D01*
X12751015Y-16780293D02*
X12751015Y-16732674D01*
X12751015Y-16732674D02*
X12760539Y-16694579D01*
X12760539Y-16694579D02*
X12770063Y-16675531D01*
X12770063Y-16675531D02*
X12779586Y-16666008D01*
X12779586Y-16666008D02*
X12798634Y-16656484D01*
X12951015Y-16837436D02*
X12960539Y-16846960D01*
X12960539Y-16846960D02*
X12951015Y-16856484D01*
X12951015Y-16856484D02*
X12941491Y-16846960D01*
X12941491Y-16846960D02*
X12951015Y-16837436D01*
X12951015Y-16837436D02*
X12951015Y-16856484D01*
X13084348Y-16656484D02*
X13103396Y-16656484D01*
X13103396Y-16656484D02*
X13122444Y-16666008D01*
X13122444Y-16666008D02*
X13131967Y-16675531D01*
X13131967Y-16675531D02*
X13141491Y-16694579D01*
X13141491Y-16694579D02*
X13151015Y-16732674D01*
X13151015Y-16732674D02*
X13151015Y-16780293D01*
X13151015Y-16780293D02*
X13141491Y-16818389D01*
X13141491Y-16818389D02*
X13131967Y-16837436D01*
X13131967Y-16837436D02*
X13122444Y-16846960D01*
X13122444Y-16846960D02*
X13103396Y-16856484D01*
X13103396Y-16856484D02*
X13084348Y-16856484D01*
X13084348Y-16856484D02*
X13065301Y-16846960D01*
X13065301Y-16846960D02*
X13055777Y-16837436D01*
X13055777Y-16837436D02*
X13046253Y-16818389D01*
X13046253Y-16818389D02*
X13036729Y-16780293D01*
X13036729Y-16780293D02*
X13036729Y-16732674D01*
X13036729Y-16732674D02*
X13046253Y-16694579D01*
X13046253Y-16694579D02*
X13055777Y-16675531D01*
X13055777Y-16675531D02*
X13065301Y-16666008D01*
X13065301Y-16666008D02*
X13084348Y-16656484D01*
X13322444Y-16723150D02*
X13322444Y-16856484D01*
X13274825Y-16646960D02*
X13227206Y-16789817D01*
X13227206Y-16789817D02*
X13351015Y-16789817D01*
X13408158Y-16656484D02*
X13541491Y-16656484D01*
X13541491Y-16656484D02*
X13455777Y-16856484D01*
X13608158Y-16675531D02*
X13617682Y-16666008D01*
X13617682Y-16666008D02*
X13636729Y-16656484D01*
X13636729Y-16656484D02*
X13684348Y-16656484D01*
X13684348Y-16656484D02*
X13703396Y-16666008D01*
X13703396Y-16666008D02*
X13712920Y-16675531D01*
X13712920Y-16675531D02*
X13722444Y-16694579D01*
X13722444Y-16694579D02*
X13722444Y-16713627D01*
X13722444Y-16713627D02*
X13712920Y-16742198D01*
X13712920Y-16742198D02*
X13598634Y-16856484D01*
X13598634Y-16856484D02*
X13722444Y-16856484D01*
X13798634Y-16656484D02*
X13798634Y-16694579D01*
X13874825Y-16656484D02*
X13874825Y-16694579D01*
X14170063Y-16932674D02*
X14160539Y-16923150D01*
X14160539Y-16923150D02*
X14141491Y-16894579D01*
X14141491Y-16894579D02*
X14131968Y-16875531D01*
X14131968Y-16875531D02*
X14122444Y-16846960D01*
X14122444Y-16846960D02*
X14112920Y-16799341D01*
X14112920Y-16799341D02*
X14112920Y-16761246D01*
X14112920Y-16761246D02*
X14122444Y-16713627D01*
X14122444Y-16713627D02*
X14131968Y-16685055D01*
X14131968Y-16685055D02*
X14141491Y-16666008D01*
X14141491Y-16666008D02*
X14160539Y-16637436D01*
X14160539Y-16637436D02*
X14170063Y-16627912D01*
X14341491Y-16656484D02*
X14246253Y-16656484D01*
X14246253Y-16656484D02*
X14236729Y-16751722D01*
X14236729Y-16751722D02*
X14246253Y-16742198D01*
X14246253Y-16742198D02*
X14265301Y-16732674D01*
X14265301Y-16732674D02*
X14312920Y-16732674D01*
X14312920Y-16732674D02*
X14331968Y-16742198D01*
X14331968Y-16742198D02*
X14341491Y-16751722D01*
X14341491Y-16751722D02*
X14351015Y-16770769D01*
X14351015Y-16770769D02*
X14351015Y-16818389D01*
X14351015Y-16818389D02*
X14341491Y-16837436D01*
X14341491Y-16837436D02*
X14331968Y-16846960D01*
X14331968Y-16846960D02*
X14312920Y-16856484D01*
X14312920Y-16856484D02*
X14265301Y-16856484D01*
X14265301Y-16856484D02*
X14246253Y-16846960D01*
X14246253Y-16846960D02*
X14236729Y-16837436D01*
X14589110Y-16856484D02*
X14589110Y-16656484D01*
X14674825Y-16856484D02*
X14674825Y-16751722D01*
X14674825Y-16751722D02*
X14665301Y-16732674D01*
X14665301Y-16732674D02*
X14646253Y-16723150D01*
X14646253Y-16723150D02*
X14617682Y-16723150D01*
X14617682Y-16723150D02*
X14598634Y-16732674D01*
X14598634Y-16732674D02*
X14589110Y-16742198D01*
X14798634Y-16856484D02*
X14779587Y-16846960D01*
X14779587Y-16846960D02*
X14770063Y-16837436D01*
X14770063Y-16837436D02*
X14760539Y-16818389D01*
X14760539Y-16818389D02*
X14760539Y-16761246D01*
X14760539Y-16761246D02*
X14770063Y-16742198D01*
X14770063Y-16742198D02*
X14779587Y-16732674D01*
X14779587Y-16732674D02*
X14798634Y-16723150D01*
X14798634Y-16723150D02*
X14827206Y-16723150D01*
X14827206Y-16723150D02*
X14846253Y-16732674D01*
X14846253Y-16732674D02*
X14855777Y-16742198D01*
X14855777Y-16742198D02*
X14865301Y-16761246D01*
X14865301Y-16761246D02*
X14865301Y-16818389D01*
X14865301Y-16818389D02*
X14855777Y-16837436D01*
X14855777Y-16837436D02*
X14846253Y-16846960D01*
X14846253Y-16846960D02*
X14827206Y-16856484D01*
X14827206Y-16856484D02*
X14798634Y-16856484D01*
X14979587Y-16856484D02*
X14960539Y-16846960D01*
X14960539Y-16846960D02*
X14951015Y-16827912D01*
X14951015Y-16827912D02*
X14951015Y-16656484D01*
X15131968Y-16846960D02*
X15112920Y-16856484D01*
X15112920Y-16856484D02*
X15074825Y-16856484D01*
X15074825Y-16856484D02*
X15055777Y-16846960D01*
X15055777Y-16846960D02*
X15046253Y-16827912D01*
X15046253Y-16827912D02*
X15046253Y-16751722D01*
X15046253Y-16751722D02*
X15055777Y-16732674D01*
X15055777Y-16732674D02*
X15074825Y-16723150D01*
X15074825Y-16723150D02*
X15112920Y-16723150D01*
X15112920Y-16723150D02*
X15131968Y-16732674D01*
X15131968Y-16732674D02*
X15141491Y-16751722D01*
X15141491Y-16751722D02*
X15141491Y-16770769D01*
X15141491Y-16770769D02*
X15046253Y-16789817D01*
X15217682Y-16846960D02*
X15236730Y-16856484D01*
X15236730Y-16856484D02*
X15274825Y-16856484D01*
X15274825Y-16856484D02*
X15293872Y-16846960D01*
X15293872Y-16846960D02*
X15303396Y-16827912D01*
X15303396Y-16827912D02*
X15303396Y-16818389D01*
X15303396Y-16818389D02*
X15293872Y-16799341D01*
X15293872Y-16799341D02*
X15274825Y-16789817D01*
X15274825Y-16789817D02*
X15246253Y-16789817D01*
X15246253Y-16789817D02*
X15227206Y-16780293D01*
X15227206Y-16780293D02*
X15217682Y-16761246D01*
X15217682Y-16761246D02*
X15217682Y-16751722D01*
X15217682Y-16751722D02*
X15227206Y-16732674D01*
X15227206Y-16732674D02*
X15246253Y-16723150D01*
X15246253Y-16723150D02*
X15274825Y-16723150D01*
X15274825Y-16723150D02*
X15293872Y-16732674D01*
X15370063Y-16932674D02*
X15379587Y-16923150D01*
X15379587Y-16923150D02*
X15398634Y-16894579D01*
X15398634Y-16894579D02*
X15408158Y-16875531D01*
X15408158Y-16875531D02*
X15417682Y-16846960D01*
X15417682Y-16846960D02*
X15427206Y-16799341D01*
X15427206Y-16799341D02*
X15427206Y-16761246D01*
X15427206Y-16761246D02*
X15417682Y-16713627D01*
X15417682Y-16713627D02*
X15408158Y-16685055D01*
X15408158Y-16685055D02*
X15398634Y-16666008D01*
X15398634Y-16666008D02*
X15379587Y-16637436D01*
X15379587Y-16637436D02*
X15370063Y-16627912D01*
D14*
X10455000Y-16959000D02*
X10595000Y-17099000D01*
X10595000Y-16959000D02*
X10455000Y-17099000D01*
X10525000Y-16959000D02*
X10525000Y-17099000D01*
X10455000Y-17029000D02*
X10595000Y-17029000D01*
D11*
X10960539Y-17120484D02*
X10846253Y-17120484D01*
X10903396Y-17120484D02*
X10903396Y-16920484D01*
X10903396Y-16920484D02*
X10884348Y-16949055D01*
X10884348Y-16949055D02*
X10865301Y-16968103D01*
X10865301Y-16968103D02*
X10846253Y-16977627D01*
X11046253Y-17101436D02*
X11055777Y-17110960D01*
X11055777Y-17110960D02*
X11046253Y-17120484D01*
X11046253Y-17120484D02*
X11036729Y-17110960D01*
X11036729Y-17110960D02*
X11046253Y-17101436D01*
X11046253Y-17101436D02*
X11046253Y-17120484D01*
X11227205Y-16987150D02*
X11227205Y-17120484D01*
X11179586Y-16910960D02*
X11131967Y-17053817D01*
X11131967Y-17053817D02*
X11255777Y-17053817D01*
X11370062Y-16920484D02*
X11389110Y-16920484D01*
X11389110Y-16920484D02*
X11408158Y-16930008D01*
X11408158Y-16930008D02*
X11417682Y-16939531D01*
X11417682Y-16939531D02*
X11427205Y-16958579D01*
X11427205Y-16958579D02*
X11436729Y-16996674D01*
X11436729Y-16996674D02*
X11436729Y-17044293D01*
X11436729Y-17044293D02*
X11427205Y-17082389D01*
X11427205Y-17082389D02*
X11417682Y-17101436D01*
X11417682Y-17101436D02*
X11408158Y-17110960D01*
X11408158Y-17110960D02*
X11389110Y-17120484D01*
X11389110Y-17120484D02*
X11370062Y-17120484D01*
X11370062Y-17120484D02*
X11351015Y-17110960D01*
X11351015Y-17110960D02*
X11341491Y-17101436D01*
X11341491Y-17101436D02*
X11331967Y-17082389D01*
X11331967Y-17082389D02*
X11322443Y-17044293D01*
X11322443Y-17044293D02*
X11322443Y-16996674D01*
X11322443Y-16996674D02*
X11331967Y-16958579D01*
X11331967Y-16958579D02*
X11341491Y-16939531D01*
X11341491Y-16939531D02*
X11351015Y-16930008D01*
X11351015Y-16930008D02*
X11370062Y-16920484D01*
X11560539Y-16920484D02*
X11579586Y-16920484D01*
X11579586Y-16920484D02*
X11598634Y-16930008D01*
X11598634Y-16930008D02*
X11608158Y-16939531D01*
X11608158Y-16939531D02*
X11617682Y-16958579D01*
X11617682Y-16958579D02*
X11627205Y-16996674D01*
X11627205Y-16996674D02*
X11627205Y-17044293D01*
X11627205Y-17044293D02*
X11617682Y-17082389D01*
X11617682Y-17082389D02*
X11608158Y-17101436D01*
X11608158Y-17101436D02*
X11598634Y-17110960D01*
X11598634Y-17110960D02*
X11579586Y-17120484D01*
X11579586Y-17120484D02*
X11560539Y-17120484D01*
X11560539Y-17120484D02*
X11541491Y-17110960D01*
X11541491Y-17110960D02*
X11531967Y-17101436D01*
X11531967Y-17101436D02*
X11522443Y-17082389D01*
X11522443Y-17082389D02*
X11512920Y-17044293D01*
X11512920Y-17044293D02*
X11512920Y-16996674D01*
X11512920Y-16996674D02*
X11522443Y-16958579D01*
X11522443Y-16958579D02*
X11531967Y-16939531D01*
X11531967Y-16939531D02*
X11541491Y-16930008D01*
X11541491Y-16930008D02*
X11560539Y-16920484D01*
X11712920Y-17120484D02*
X11712920Y-16987150D01*
X11712920Y-17006198D02*
X11722443Y-16996674D01*
X11722443Y-16996674D02*
X11741491Y-16987150D01*
X11741491Y-16987150D02*
X11770063Y-16987150D01*
X11770063Y-16987150D02*
X11789110Y-16996674D01*
X11789110Y-16996674D02*
X11798634Y-17015722D01*
X11798634Y-17015722D02*
X11798634Y-17120484D01*
X11798634Y-17015722D02*
X11808158Y-16996674D01*
X11808158Y-16996674D02*
X11827205Y-16987150D01*
X11827205Y-16987150D02*
X11855777Y-16987150D01*
X11855777Y-16987150D02*
X11874824Y-16996674D01*
X11874824Y-16996674D02*
X11884348Y-17015722D01*
X11884348Y-17015722D02*
X11884348Y-17120484D01*
X11979586Y-17120484D02*
X11979586Y-16987150D01*
X11979586Y-17006198D02*
X11989110Y-16996674D01*
X11989110Y-16996674D02*
X12008158Y-16987150D01*
X12008158Y-16987150D02*
X12036729Y-16987150D01*
X12036729Y-16987150D02*
X12055777Y-16996674D01*
X12055777Y-16996674D02*
X12065301Y-17015722D01*
X12065301Y-17015722D02*
X12065301Y-17120484D01*
X12065301Y-17015722D02*
X12074824Y-16996674D01*
X12074824Y-16996674D02*
X12093872Y-16987150D01*
X12093872Y-16987150D02*
X12122443Y-16987150D01*
X12122443Y-16987150D02*
X12141491Y-16996674D01*
X12141491Y-16996674D02*
X12151015Y-17015722D01*
X12151015Y-17015722D02*
X12151015Y-17120484D01*
X12541491Y-16910960D02*
X12370063Y-17168103D01*
X12798634Y-16920484D02*
X12817682Y-16920484D01*
X12817682Y-16920484D02*
X12836729Y-16930008D01*
X12836729Y-16930008D02*
X12846253Y-16939531D01*
X12846253Y-16939531D02*
X12855777Y-16958579D01*
X12855777Y-16958579D02*
X12865301Y-16996674D01*
X12865301Y-16996674D02*
X12865301Y-17044293D01*
X12865301Y-17044293D02*
X12855777Y-17082389D01*
X12855777Y-17082389D02*
X12846253Y-17101436D01*
X12846253Y-17101436D02*
X12836729Y-17110960D01*
X12836729Y-17110960D02*
X12817682Y-17120484D01*
X12817682Y-17120484D02*
X12798634Y-17120484D01*
X12798634Y-17120484D02*
X12779586Y-17110960D01*
X12779586Y-17110960D02*
X12770063Y-17101436D01*
X12770063Y-17101436D02*
X12760539Y-17082389D01*
X12760539Y-17082389D02*
X12751015Y-17044293D01*
X12751015Y-17044293D02*
X12751015Y-16996674D01*
X12751015Y-16996674D02*
X12760539Y-16958579D01*
X12760539Y-16958579D02*
X12770063Y-16939531D01*
X12770063Y-16939531D02*
X12779586Y-16930008D01*
X12779586Y-16930008D02*
X12798634Y-16920484D01*
X12951015Y-17101436D02*
X12960539Y-17110960D01*
X12960539Y-17110960D02*
X12951015Y-17120484D01*
X12951015Y-17120484D02*
X12941491Y-17110960D01*
X12941491Y-17110960D02*
X12951015Y-17101436D01*
X12951015Y-17101436D02*
X12951015Y-17120484D01*
X13084348Y-16920484D02*
X13103396Y-16920484D01*
X13103396Y-16920484D02*
X13122444Y-16930008D01*
X13122444Y-16930008D02*
X13131967Y-16939531D01*
X13131967Y-16939531D02*
X13141491Y-16958579D01*
X13141491Y-16958579D02*
X13151015Y-16996674D01*
X13151015Y-16996674D02*
X13151015Y-17044293D01*
X13151015Y-17044293D02*
X13141491Y-17082389D01*
X13141491Y-17082389D02*
X13131967Y-17101436D01*
X13131967Y-17101436D02*
X13122444Y-17110960D01*
X13122444Y-17110960D02*
X13103396Y-17120484D01*
X13103396Y-17120484D02*
X13084348Y-17120484D01*
X13084348Y-17120484D02*
X13065301Y-17110960D01*
X13065301Y-17110960D02*
X13055777Y-17101436D01*
X13055777Y-17101436D02*
X13046253Y-17082389D01*
X13046253Y-17082389D02*
X13036729Y-17044293D01*
X13036729Y-17044293D02*
X13036729Y-16996674D01*
X13036729Y-16996674D02*
X13046253Y-16958579D01*
X13046253Y-16958579D02*
X13055777Y-16939531D01*
X13055777Y-16939531D02*
X13065301Y-16930008D01*
X13065301Y-16930008D02*
X13084348Y-16920484D01*
X13331967Y-16920484D02*
X13236729Y-16920484D01*
X13236729Y-16920484D02*
X13227206Y-17015722D01*
X13227206Y-17015722D02*
X13236729Y-17006198D01*
X13236729Y-17006198D02*
X13255777Y-16996674D01*
X13255777Y-16996674D02*
X13303396Y-16996674D01*
X13303396Y-16996674D02*
X13322444Y-17006198D01*
X13322444Y-17006198D02*
X13331967Y-17015722D01*
X13331967Y-17015722D02*
X13341491Y-17034770D01*
X13341491Y-17034770D02*
X13341491Y-17082389D01*
X13341491Y-17082389D02*
X13331967Y-17101436D01*
X13331967Y-17101436D02*
X13322444Y-17110960D01*
X13322444Y-17110960D02*
X13303396Y-17120484D01*
X13303396Y-17120484D02*
X13255777Y-17120484D01*
X13255777Y-17120484D02*
X13236729Y-17110960D01*
X13236729Y-17110960D02*
X13227206Y-17101436D01*
X13522444Y-16920484D02*
X13427206Y-16920484D01*
X13427206Y-16920484D02*
X13417682Y-17015722D01*
X13417682Y-17015722D02*
X13427206Y-17006198D01*
X13427206Y-17006198D02*
X13446253Y-16996674D01*
X13446253Y-16996674D02*
X13493872Y-16996674D01*
X13493872Y-16996674D02*
X13512920Y-17006198D01*
X13512920Y-17006198D02*
X13522444Y-17015722D01*
X13522444Y-17015722D02*
X13531967Y-17034770D01*
X13531967Y-17034770D02*
X13531967Y-17082389D01*
X13531967Y-17082389D02*
X13522444Y-17101436D01*
X13522444Y-17101436D02*
X13512920Y-17110960D01*
X13512920Y-17110960D02*
X13493872Y-17120484D01*
X13493872Y-17120484D02*
X13446253Y-17120484D01*
X13446253Y-17120484D02*
X13427206Y-17110960D01*
X13427206Y-17110960D02*
X13417682Y-17101436D01*
X13722444Y-17120484D02*
X13608158Y-17120484D01*
X13665301Y-17120484D02*
X13665301Y-16920484D01*
X13665301Y-16920484D02*
X13646253Y-16949055D01*
X13646253Y-16949055D02*
X13627206Y-16968103D01*
X13627206Y-16968103D02*
X13608158Y-16977627D01*
X13798634Y-16920484D02*
X13798634Y-16958579D01*
X13874825Y-16920484D02*
X13874825Y-16958579D01*
X14170063Y-17196674D02*
X14160539Y-17187150D01*
X14160539Y-17187150D02*
X14141491Y-17158579D01*
X14141491Y-17158579D02*
X14131968Y-17139531D01*
X14131968Y-17139531D02*
X14122444Y-17110960D01*
X14122444Y-17110960D02*
X14112920Y-17063341D01*
X14112920Y-17063341D02*
X14112920Y-17025246D01*
X14112920Y-17025246D02*
X14122444Y-16977627D01*
X14122444Y-16977627D02*
X14131968Y-16949055D01*
X14131968Y-16949055D02*
X14141491Y-16930008D01*
X14141491Y-16930008D02*
X14160539Y-16901436D01*
X14160539Y-16901436D02*
X14170063Y-16891912D01*
X14351015Y-17120484D02*
X14236729Y-17120484D01*
X14293872Y-17120484D02*
X14293872Y-16920484D01*
X14293872Y-16920484D02*
X14274825Y-16949055D01*
X14274825Y-16949055D02*
X14255777Y-16968103D01*
X14255777Y-16968103D02*
X14236729Y-16977627D01*
X14589110Y-17120484D02*
X14589110Y-16920484D01*
X14674825Y-17120484D02*
X14674825Y-17015722D01*
X14674825Y-17015722D02*
X14665301Y-16996674D01*
X14665301Y-16996674D02*
X14646253Y-16987150D01*
X14646253Y-16987150D02*
X14617682Y-16987150D01*
X14617682Y-16987150D02*
X14598634Y-16996674D01*
X14598634Y-16996674D02*
X14589110Y-17006198D01*
X14798634Y-17120484D02*
X14779587Y-17110960D01*
X14779587Y-17110960D02*
X14770063Y-17101436D01*
X14770063Y-17101436D02*
X14760539Y-17082389D01*
X14760539Y-17082389D02*
X14760539Y-17025246D01*
X14760539Y-17025246D02*
X14770063Y-17006198D01*
X14770063Y-17006198D02*
X14779587Y-16996674D01*
X14779587Y-16996674D02*
X14798634Y-16987150D01*
X14798634Y-16987150D02*
X14827206Y-16987150D01*
X14827206Y-16987150D02*
X14846253Y-16996674D01*
X14846253Y-16996674D02*
X14855777Y-17006198D01*
X14855777Y-17006198D02*
X14865301Y-17025246D01*
X14865301Y-17025246D02*
X14865301Y-17082389D01*
X14865301Y-17082389D02*
X14855777Y-17101436D01*
X14855777Y-17101436D02*
X14846253Y-17110960D01*
X14846253Y-17110960D02*
X14827206Y-17120484D01*
X14827206Y-17120484D02*
X14798634Y-17120484D01*
X14979587Y-17120484D02*
X14960539Y-17110960D01*
X14960539Y-17110960D02*
X14951015Y-17091912D01*
X14951015Y-17091912D02*
X14951015Y-16920484D01*
X15131968Y-17110960D02*
X15112920Y-17120484D01*
X15112920Y-17120484D02*
X15074825Y-17120484D01*
X15074825Y-17120484D02*
X15055777Y-17110960D01*
X15055777Y-17110960D02*
X15046253Y-17091912D01*
X15046253Y-17091912D02*
X15046253Y-17015722D01*
X15046253Y-17015722D02*
X15055777Y-16996674D01*
X15055777Y-16996674D02*
X15074825Y-16987150D01*
X15074825Y-16987150D02*
X15112920Y-16987150D01*
X15112920Y-16987150D02*
X15131968Y-16996674D01*
X15131968Y-16996674D02*
X15141491Y-17015722D01*
X15141491Y-17015722D02*
X15141491Y-17034770D01*
X15141491Y-17034770D02*
X15046253Y-17053817D01*
X15208158Y-17196674D02*
X15217682Y-17187150D01*
X15217682Y-17187150D02*
X15236730Y-17158579D01*
X15236730Y-17158579D02*
X15246253Y-17139531D01*
X15246253Y-17139531D02*
X15255777Y-17110960D01*
X15255777Y-17110960D02*
X15265301Y-17063341D01*
X15265301Y-17063341D02*
X15265301Y-17025246D01*
X15265301Y-17025246D02*
X15255777Y-16977627D01*
X15255777Y-16977627D02*
X15246253Y-16949055D01*
X15246253Y-16949055D02*
X15236730Y-16930008D01*
X15236730Y-16930008D02*
X15217682Y-16901436D01*
X15217682Y-16901436D02*
X15208158Y-16891912D01*
M02*
